<svg width="200" height="200" viewBox="0 0 200 200" fill="none" xmlns="http://www.w3.org/2000/svg">
    <g opacity=".01">
        <path opacity=".01" d="M200 0H0v200h200V0z" fill="#fff"/>
        <path opacity=".01" d="M198.333 1.667H1.667v196.666h196.666V1.667z" stroke="#707070"/>
    </g>
    <path d="M17.534 125.321c10.57-36.207 56.263-7.953 76.513-57.78 16.26-40.007 82.81-24.26 88.907 21.073 5.163 38.4-43.157 74.29-84.127 76.667-2.81.163-5.666.243-8.51.243-38.816.007-80.19-14.833-72.783-40.203zm17.63-42.333c-8.58-19.584 31.17-46.374 47-26.197C94 71.868 66.667 89.994 48.52 89.994c-6.12 0-11.187-2.063-13.357-7.006z" fill="#FAF4EC"/>
    <path d="M109.081 155.92c3.307-3.753 4-8.536 1.573-10.686l-1.783-1.574a16.862 16.862 0 0 0-8.617 4.477 19.235 19.235 0 0 0-3.357 9.11l1.784 1.573c2.437 2.15 7.093.847 10.4-2.9z" fill="#FFA200"/>
    <path opacity=".34" d="m113.02 150.491-3.316-2.821-3.194 5.05 3.897 3.13 2.613-5.359z" fill="#FFC700"/>
    <path opacity=".34" d="m112.617 151.913-3.316-2.823-1.474 2.043 3.897 3.134.893-2.354z" fill="#FFD600"/>
    <path opacity=".34" d="m112.164 145.93-3.317-2.823-.55 1.027 3.787 3.333.08-1.537zM103.064 160.25l-3.64-2.77-4.52.737 3.896 3.13 4.264-1.097z" fill="#E17D00"/>
    <path d="M107.52 154.499c3.286-3.771 3.917-8.6 1.409-10.786s-7.206-.9-10.492 2.871c-3.286 3.772-3.917 8.601-1.409 10.786 2.509 2.186 7.206.9 10.492-2.871z" fill="#FFC700"/>
    <path opacity=".65" d="M106.218 153.472c2.694-3.083 3.37-6.9 1.509-8.526-1.86-1.625-5.552-.444-8.246 2.639-2.694 3.083-3.37 6.9-1.51 8.526 1.86 1.626 5.553.444 8.247-2.639z" fill="url(#a)"/>
    <path d="M99.944 147.993c2.633-3 6.206-4.183 8.096-2.727a2.989 2.989 0 0 0-.296-.31c-1.85-1.636-5.54-.47-8.243 2.607-2.704 3.077-3.394 6.9-1.54 8.537.046.04.096.08.143.117-1.463-1.77-.707-5.331 1.84-8.224z" fill="#F89A00"/>
    <path opacity=".55" d="m101.736 147.606-6.22 6.537a9.158 9.158 0 0 1 .867-4.377l5.353-2.16z" fill="#E48100"/>
    <path d="M79.944 79.411s12.57 6.27 14.737 17.634c2.166 11.363 23.49-10.237 23.73-10.784a177.664 177.664 0 0 0-8.933-24.333c-1.78-2.397-20.394-8.866-20.394-8.866l-7.333 8.74-1.807 17.61z" fill="#FFADAF"/>
    <path d="M125.524 84.214s-10.766 8.606-14.136.18c-2.247-5.667-19.297-18.597-29.827-27.883-5.193-4.58-8.793-8.267-8.25-9.74a.41.41 0 0 1 .057-.12c.433-.897 1.823-1.084 3.843-.737 1.83.352 3.622.872 5.357 1.553a108.158 108.158 0 0 1 25.883 14.58c.557.45 1.103.907 1.667 1.387a75.374 75.374 0 0 1 3.593 3.333c5 5.021 9.008 10.94 11.813 17.447z" fill="#FFCCCD"/>
    <path d="M83.664 56.585c-.08.216-.213 1.31-.283 1.46-5.194-4.58-10.61-9.797-10.067-11.267a.407.407 0 0 1 .057-.12 23.72 23.72 0 0 0 2.623 2.29c.39.183.897-1.64 1.22-3.03 1.83.353 3.622.873 5.357 1.553.08 2.884 1.753 7.267 1.093 9.114z" fill="#FEBFB2"/>
    <path d="M126.665 96.865c-.237 6.103-5.84 20.943-9.433 27.883-1.03 1.973-1.667 3.18-1.667 3.18l-4.103-3.38c-.53-.783-1.034-1.537-1.527-2.26a44.32 44.32 0 0 0-4.704-6.873 31.285 31.285 0 0 0-1.599-1.597c0-.005-.003-.01-.006-.014a.02.02 0 0 0-.014-.006 22.943 22.943 0 0 1-7.297-10.403c-.357-1.11-.773-3.667-1.067-4.547a11.144 11.144 0 0 1-.877-5.334 15.11 15.11 0 0 1 3.31-6.36 46.17 46.17 0 0 1 8.164-8.046 28.747 28.747 0 0 1 9.227-5.203c2.053-.554 3.749-.334 4.689 1 1.044 1.486 2.334 3.216 3.647 5.12a29.617 29.617 0 0 1 3.257 16.84z" fill="#F8A48D"/>
    <path d="M108.544 101.924a5.602 5.602 0 0 0-1.56-4.38 5.584 5.584 0 0 0-4.334-1.686 8.712 8.712 0 0 0-7.413 3 11.14 11.14 0 0 1-.877-5.334 43.067 43.067 0 0 1 9.45-2.293c2.93.034 9.377-.587 11.164-.577 1.786.01-6.43 11.27-6.43 11.27z" fill="#FE9E8C"/>
    <path d="M108.878 94.348h-.563l-7.44.186-2.95.074-6.46.163-3.187.08h-.11a4.666 4.666 0 0 1-4.78-4.55l-1.28-50.253a4.69 4.69 0 0 1 4.55-4.777l20.707-.523a4.667 4.667 0 0 1 4.787 4.543l1.05 41.667.226 8.61a4.686 4.686 0 0 1-4.55 4.78z" fill="url(#b)"/>
    <path d="m107.671 88.36-18.604.47a3.624 3.624 0 0 1-3.703-3.52l-1.06-42.03a3.623 3.623 0 0 1 3.52-3.703l18.604-.47a3.623 3.623 0 0 1 3.7 3.52l1.059 42.03a3.624 3.624 0 0 1-3.516 3.704z" fill="#FFF7ED"/>
    <path d="M98.977 93.099a1.4 1.4 0 1 0-.226-2.79 1.4 1.4 0 0 0 .226 2.79zM101.418 36.989l-8.077.203a.33.33 0 1 0 .016.66l8.078-.204a.33.33 0 1 0-.017-.66z" fill="#FFFFFB"/>
    <path d="M101.559 57.888a4.48 4.48 0 1 0-6.555-6.11 4.48 4.48 0 0 0 6.555 6.11z" fill="#32A1BF"/>
    <path d="M98.072 57.182a.727.727 0 0 1-.499-.316l-1.411-2.025a.727.727 0 0 1 .181-1.014.737.737 0 0 1 1.007.185l.773 1.1 1.375-2.362a.729.729 0 0 1 1.207-.073.732.732 0 0 1 .049.807l-1.951 3.34a.731.731 0 0 1-.598.354.699.699 0 0 1-.133.005z" fill="#fff"/>
    <path d="M91.405 72.084a.296.296 0 0 1-.108.244.409.409 0 0 1-.61-.075l-.897-1.24a.816.816 0 0 0-.277-.277.733.733 0 0 0-.372-.06l-.616.02.05 1.413a.411.411 0 0 1-.097.304.387.387 0 0 1-.286.12.398.398 0 0 1-.297-.1.404.404 0 0 1-.12-.306l-.13-3.684a.375.375 0 0 1 .094-.287.394.394 0 0 1 .283-.11l1.576-.055c.41-.044.821.06 1.16.293a1.21 1.21 0 0 1 .428.96c.024.31-.07.618-.264.862-.21.24-.497.4-.811.452.123.021.239.07.339.145.103.089.194.192.267.307l.604.857a.4.4 0 0 1 .084.217zm-1.183-2.25a.643.643 0 0 0 .195-.537.632.632 0 0 0-.232-.53 1.096 1.096 0 0 0-.672-.143l-1.066.038.05 1.405 1.059-.037c.238.011.472-.058.666-.196zM94.68 71.496c.05.062.076.139.074.218a.383.383 0 0 1-.222.341c-.15.088-.311.158-.48.207-.166.052-.339.081-.513.088a1.606 1.606 0 0 1-1.194-.385 1.57 1.57 0 0 1-.474-1.158 1.8 1.8 0 0 1 .16-.843c.111-.24.29-.443.513-.585.231-.145.497-.224.77-.23.253-.014.505.04.729.158.21.115.383.288.498.5.126.24.194.508.197.78.006.182-.07.275-.23.278l-1.856.065a1 1 0 0 0 .266.631.826.826 0 0 0 .613.185c.12-.002.24-.023.355-.062.117-.044.233-.095.345-.152a.697.697 0 0 1 .273-.11.214.214 0 0 1 .176.074zm-1.84-1.573a.95.95 0 0 0-.203.584l1.423-.05a.9.9 0 0 0-.22-.572.622.622 0 0 0-.487-.184.666.666 0 0 0-.513.222zM96.423 68.517a.686.686 0 0 0-.117.457l.005.144.546-.02c.222-.007.337.088.343.285.007.198-.1.3-.322.308l-.543.02.075 2.148a.335.335 0 0 1-.114.28.417.417 0 0 1-.277.104.43.43 0 0 1-.286-.084.332.332 0 0 1-.113-.272l-.075-2.149-.313.01c-.236.01-.357-.086-.364-.283-.006-.198.108-.3.343-.31l.313-.01v-.037c-.032-.34.068-.679.28-.947a1.28 1.28 0 0 1 .865-.427l.163-.005a.573.573 0 0 1 .359.044.252.252 0 0 1 .11.22c.007.18-.093.284-.298.313l-.173.02a.574.574 0 0 0-.407.19zM100.228 71.302c.05.062.077.139.075.218a.383.383 0 0 1-.222.341c-.15.089-.312.158-.48.207-.166.052-.339.081-.513.088a1.606 1.606 0 0 1-1.195-.385 1.572 1.572 0 0 1-.474-1.158c-.015-.29.04-.579.161-.843.111-.24.29-.443.513-.584.231-.145.497-.225.77-.23.252-.015.504.04.729.157.21.115.383.289.497.5.127.24.195.508.198.78.006.182-.071.275-.231.278l-1.855.065a1 1 0 0 0 .265.631.826.826 0 0 0 .614.186c.12-.002.24-.023.355-.063a3.46 3.46 0 0 0 .344-.152.699.699 0 0 1 .273-.11.211.211 0 0 1 .176.074zm-1.839-1.573a.95.95 0 0 0-.203.584l1.422-.05a.9.9 0 0 0-.22-.572.623.623 0 0 0-.486-.184.666.666 0 0 0-.513.222zM102.86 68.895a.304.304 0 0 1 .103.26.336.336 0 0 1-.066.24.498.498 0 0 1-.299.106l-.189.034a.768.768 0 0 0-.538.272.827.827 0 0 0-.154.543l.046 1.332a.334.334 0 0 1-.11.274.42.42 0 0 1-.273.106.41.41 0 0 1-.284-.087.343.343 0 0 1-.09-.124.343.343 0 0 1-.029-.152l-.085-2.438a.34.34 0 0 1 .018-.148.347.347 0 0 1 .082-.126.407.407 0 0 1 .27-.106.382.382 0 0 1 .27.084.342.342 0 0 1 .109.256l.009.254a.927.927 0 0 1 .341-.443c.154-.108.333-.176.52-.194l.087-.003a.33.33 0 0 1 .262.06zM105.272 68.81a.304.304 0 0 1 .103.26.34.34 0 0 1-.065.24.505.505 0 0 1-.3.107l-.189.033a.774.774 0 0 0-.538.272.827.827 0 0 0-.154.543l.046 1.332a.334.334 0 0 1-.11.274.419.419 0 0 1-.273.106.406.406 0 0 1-.283-.087.358.358 0 0 1-.12-.275l-.085-2.439a.34.34 0 0 1 .018-.148.345.345 0 0 1 .082-.126.408.408 0 0 1 .27-.106.382.382 0 0 1 .27.084.337.337 0 0 1 .109.256l.009.254a.934.934 0 0 1 .341-.442c.154-.11.333-.176.52-.195l.087-.004a.33.33 0 0 1 .262.061zM107.989 68.97c.237.26.362.603.347.955l.053 1.522a.362.362 0 0 1-.091.27.38.38 0 0 1-.286.11.367.367 0 0 1-.27-.09.364.364 0 0 1-.103-.264l-.004-.14a.831.831 0 0 1-.32.395 1.002 1.002 0 0 1-.528.159 1.242 1.242 0 0 1-.568-.104 1.007 1.007 0 0 1-.408-.32.876.876 0 0 1-.164-.5.777.777 0 0 1 .155-.543c.148-.156.341-.261.553-.302.353-.08.714-.124 1.076-.128l.156-.006-.005-.143a.644.644 0 0 0-.149-.445.558.558 0 0 0-.431-.125c-.127.01-.251.036-.371.08a2.944 2.944 0 0 0-.441.155.633.633 0 0 1-.237.092.24.24 0 0 1-.19-.077.309.309 0 0 1-.08-.21.329.329 0 0 1 .047-.189.501.501 0 0 1 .181-.153c.161-.092.333-.162.513-.208.196-.053.398-.083.601-.091a1.278 1.278 0 0 1 .964.3zm-.563 2.117a.764.764 0 0 0 .181-.553l-.005-.13-.113.004a4.335 4.335 0 0 0-.665.06.64.64 0 0 0-.329.145.324.324 0 0 0-.09.263.433.433 0 0 0 .154.328c.094.08.215.122.338.119a.664.664 0 0 0 .529-.236zM109.308 71.69a.358.358 0 0 1-.12-.277l-.131-3.757a.335.335 0 0 1 .1-.284.418.418 0 0 1 .277-.103c.1-.006.199.024.279.084a.34.34 0 0 1 .099.122c.022.048.033.1.031.153l.131 3.758a.329.329 0 0 1-.11.284.419.419 0 0 1-.28.106.406.406 0 0 1-.276-.087zM95.146 66.326a.349.349 0 0 1-.1.26.356.356 0 0 1-.26.12.406.406 0 0 1-.295-.124l-2.164-1.892.06 1.699a.406.406 0 0 1-.1.3.396.396 0 0 1-.296.124.39.39 0 0 1-.297-.1.406.406 0 0 1-.12-.292l-.13-3.698a.398.398 0 0 1 .1-.297.396.396 0 0 1 .29-.12.406.406 0 0 1 .303.1.395.395 0 0 1 .12.289l.057 1.619 1.962-1.973a.357.357 0 0 1 .253-.13.349.349 0 0 1 .26.102.35.35 0 0 1 .12.259.36.36 0 0 1-.125.268l-1.635 1.608 1.86 1.603a.366.366 0 0 1 .137.275zM96.215 66.472a1.353 1.353 0 0 1-.569-.53 1.777 1.777 0 0 1-.226-.843 1.76 1.76 0 0 1 .167-.853c.116-.24.3-.44.53-.576.25-.144.534-.221.823-.225.287-.016.574.042.833.168.24.118.437.305.569.537.141.257.216.546.22.84.017.293-.038.587-.16.855a1.332 1.332 0 0 1-.531.57c-.249.146-.53.227-.82.235a1.697 1.697 0 0 1-.836-.178zm1.386-.715c.139-.22.2-.481.174-.74.01-.263-.07-.52-.226-.733a.697.697 0 0 0-.588-.233.704.704 0 0 0-.567.273 1.16 1.16 0 0 0-.188.748c-.004.261.08.517.239.725a.701.701 0 0 0 .579.243.707.707 0 0 0 .577-.284zM101.971 62.052a.329.329 0 0 1 .122.262l.132 3.765c.004.05-.003.1-.02.147a.349.349 0 0 1-.077.126.399.399 0 0 1-.28.11.397.397 0 0 1-.287-.09.352.352 0 0 1-.116-.266l-.005-.157c-.086.174-.22.319-.386.418a1.21 1.21 0 0 1-.591.164 1.277 1.277 0 0 1-.706-.166 1.334 1.334 0 0 1-.507-.553 1.97 1.97 0 0 1-.21-.85c-.016-.288.033-.578.144-.845.1-.232.265-.43.474-.57.207-.132.448-.203.693-.204.205-.017.41.019.598.102.17.082.313.213.41.376l-.052-1.492a.334.334 0 0 1 .094-.26.393.393 0 0 1 .276-.107.42.42 0 0 1 .294.09zm-.745 3.595c.144-.225.206-.492.177-.757a1.155 1.155 0 0 0-.229-.726.692.692 0 0 0-.585-.233.721.721 0 0 0-.575.27 1.116 1.116 0 0 0-.187.734c-.006.265.079.524.239.736a.695.695 0 0 0 .589.242.7.7 0 0 0 .571-.266zM105.634 65.536c.05.061.076.138.075.217a.383.383 0 0 1-.222.341 2.112 2.112 0 0 1-.48.207 1.993 1.993 0 0 1-.514.088 1.606 1.606 0 0 1-1.194-.385 1.564 1.564 0 0 1-.474-1.157c-.015-.29.04-.58.161-.843.111-.24.289-.444.513-.585.231-.145.497-.225.769-.23.253-.015.505.04.729.158.211.114.384.288.498.5.127.24.195.507.198.78.006.182-.071.275-.231.281l-1.855.065a1 1 0 0 0 .265.628.83.83 0 0 0 .614.185c.12-.002.24-.023.354-.063.118-.044.233-.095.345-.152a.695.695 0 0 1 .273-.11.216.216 0 0 1 .176.075zm-1.839-1.574a.952.952 0 0 0-.203.584l1.422-.05a.9.9 0 0 0-.22-.572.62.62 0 0 0-.487-.183.663.663 0 0 0-.512.221z" fill="#F4991D"/>
    <path d="m179.971 162.737-41.12-1.56a.207.207 0 0 0-.123.034l-1.817 1.183a.213.213 0 0 1-.159.032.215.215 0 0 1-.134-.092c-.047-.06-.09-.137-.157-.223a2.977 2.977 0 0 1-.21-.334c-2.71-4.083-16.05-24.233-24.786-37.22-.53-.783-1.034-1.536-1.527-2.26a504.565 504.565 0 0 0-1.717-2.536 61.308 61.308 0 0 0-4.596-5.944l-.01-.002-.01.002a.387.387 0 0 0-.057-.076c2.467 2.123 8 3.09 6.977.06-.027-.09-.067-.177-.104-.277a5.527 5.527 0 0 0-.603-1.077 9.595 9.595 0 0 1-1.333-2.823 18.225 18.225 0 0 1 .86-10.497 28.235 28.235 0 0 1-.277-3.1c-.667-18.956 5-16.286 3.923-24.453-1.076-8.167-3.036-5.71-2.946-14 .09-8.29 4.67-9.757 6.136-9.757 1.467 0 1.374 5.13 1.797 8.69.423 3.56 5.613 6.944 8.93 17.464 3.317 10.52.557 14.463.567 19.06.01 4.596 6.716 20.786 6.716 20.786.437.597.804 1.11 1.087 1.517 3.583 5.15 40.717 42.85 44.853 47.043a.209.209 0 0 1 .047.231.204.204 0 0 1-.079.095.206.206 0 0 1-.118.034h-.01z" fill="url(#c)"/>
    <path d="m138.672 161.252-1.824 1.187a.147.147 0 0 1-.103.019.135.135 0 0 1-.087-.06l-.043-.07c-.047-.06-.093-.136-.157-.226a3.912 3.912 0 0 1-.21-.334c-2.71-4.083-16.046-24.233-24.786-37.216-.53-.784-1.034-1.537-1.527-2.26a464.538 464.538 0 0 0-1.717-2.537 61.185 61.185 0 0 0-4.586-5.93.02.02 0 0 0-.007-.013.02.02 0 0 0-.013-.007.35.35 0 0 0-.057-.07s0-.02-.02-.02a4.152 4.152 0 0 1-.507-.52l-.056-.08c-.334-.486-.427-.667-.264-.453 1.694 2.213 8.727 4.23 7.823 1.13-.026-.09-.063-.177-.103-.277a5.49 5.49 0 0 0-.603-1.076 9.904 9.904 0 0 1-.687-1.151.137.137 0 0 1 .057-.186.142.142 0 0 1 .105-.011.143.143 0 0 1 .082.067c1.563 2.667 4.883 8.364 7.86 13.594 2.233 3.916 4.276 7.566 5.263 9.503 2.11 4.187 11.627 19.507 16.213 26.803.01.016.017.034.021.052a.146.146 0 0 1-.002.055.145.145 0 0 1-.065.087z" fill="#F8A48D"/>
    <path d="M103.528 113.717a4.152 4.152 0 0 1-.507-.52 3.012 3.012 0 0 1-.056-.08c.201.187.389.388.563.6z" fill="#FFADAF"/>
    <path d="M117.051 48.731s-.829-.573-1.849.737-.074 6.283.333 6.937a1.517 1.517 0 0 0 1.752.193c.184-.102.344-.24.471-.407a27.694 27.694 0 0 0-.707-7.46z" fill="#FFBABC" style="mix-blend-mode:screen" opacity=".4"/>
    <path d="M121.388 130.632a79.554 79.554 0 0 1 4.51 10.453l-5.844-9.714c-1.966-3.213-3.916-6.43-5.926-9.61-.98-1.61-2-3.163-2.977-4.846a35.577 35.577 0 0 1-2.487-5.227 18.34 18.34 0 0 1-1.173-5.72 8.977 8.977 0 0 1 .393-2.913 4.843 4.843 0 0 1 1.56-2.41 5.048 5.048 0 0 0-1.033 2.536 8.904 8.904 0 0 0 .033 2.717 20.45 20.45 0 0 0 1.627 5.217 82.09 82.09 0 0 0 5.71 9.61l5.607 9.907zM83.35 81.271a6.847 6.847 0 0 1-7.426-3.42 4.753 4.753 0 0 1 1.207-5.507l.066-.06c1.667-1.41 3 .31 5.9 2.307.434.292.809.664 1.104 1.097a3.936 3.936 0 0 1-.85 5.583z" fill="#F8A48D"/>
    <path d="M84.308 87.022a6.253 6.253 0 0 1-7.107-2.284 3.923 3.923 0 0 1-.263-3.88c.208-.47.483-.908.817-1.3 1.37-1.46 2.766-.05 5.59 1.447.684.35 1.25.897 1.623 1.57a3.473 3.473 0 0 1-.66 4.447z" fill="#F8A48D"/>
    <path d="M84.981 82.578a9.817 9.817 0 0 1-8.03-1.717c.208-.47.483-.908.817-1.3 1.37-1.46 2.766-.05 5.593 1.447a3.878 3.878 0 0 1 1.62 1.57z" fill="#FEBFB2"/>
    <path d="M77.96 77.89a.89.89 0 0 1 .907-.603c1.074.144 4.194-.076 4.264 1.334.09 1.783-.45 2.666-1.034 2.596-1.396-.163-4.136-.816-4.286-2a2.601 2.601 0 0 1 .15-1.326zM79.744 84.715a.667.667 0 0 1 .687-.457c.81.11 3.17-.057 3.223 1 .067 1.333-.333 2-.78 1.963-1.053-.123-3.126-.62-3.243-1.506-.05-.338-.01-.682.113-1z" fill="#FFCCCD"/>
    <path d="M84.205 75.688a5.796 5.796 0 0 1-1.537 0 13.88 13.88 0 0 1-5.536-3.334l.067-.06c1.666-1.41 3 .31 5.9 2.307.434.289.81.657 1.106 1.087z" fill="#FEBFB2"/>
    <path d="M82.555 57.357s-5.397-1.11-6.51 2.883c-.4 2.658-.21 5.372.56 7.947 2.03 4.174 3.913 7.22 7.03 6.04 3.117-1.18 2.19-4.667 1-6.723-1.19-2.057-2.114-3-1.98-3.297.133-.297-.1-6.85-.1-6.85z" fill="#F8A48D"/>
    <path d="M78.605 67.854a.946.946 0 0 1 1.16-.1c1.08.667 3.827 2.633 3.43 3.967-.507 1.706-1.737 2.58-2.18 2.056-.443-.523-3.247-3.603-3-4.773.073-.435.279-.837.59-1.15z" fill="#FFCCCD"/>
    <path d="M119.218 62.478c.233.2.455.41.666.633a27.02 27.02 0 0 1 6.473 16.764 78.784 78.784 0 0 1-1.643 18.213c-.05.29-.146.633-.426.713-.454.13-.7-.513-.714-1-.11-3.856.587-7.693.683-11.55a37.575 37.575 0 0 0-6.313-21.723c-.333-.51-1.566-2.19-.886-2.797.546-.466 1.483.174 2.16.747z" fill="#F8A48D"/>
    <path d="M104.128 84.14a241.202 241.202 0 0 1-1.577 5.287c-.227.733-.46 1.44-.667 2.12-.333 1.05-.667 2.024-.98 2.944v.05l-2.95.073-6.46.163 2.227-4.953.507-1.13 8.883-19.82s4.767 2.08 1.017 15.267z" fill="#DFDFEB" style="mix-blend-mode:multiply" opacity=".6"/>
    <path d="M114.421 107.695a68.396 68.396 0 0 0-11.667 9.306c-1.58 2.214-6.526 9.697-11.116 15.044a27.466 27.466 0 0 1-5.13 4.916c-5.154 3.333-9.647.747-10.897 4l-.26.96-.277.87-10.7 33.77a3.866 3.866 0 0 1-2.165 2.385 3.854 3.854 0 0 1-3.22-.088l-19.001-9.37a3.854 3.854 0 0 1-2-4.57c.63-2.097 1.536-5.06 2.566-8.31a141.19 141.19 0 0 1 7.544-20.417 16.028 16.028 0 0 0 3.576-10.776c.25-7.851 1.11-15.67 2.57-23.387a6.07 6.07 0 0 1 .104-.39c1.413-4.827 2.906-5.297 4.666-4.933 1.76.363 3.667-1.04 5.524-3.287 2-2.424 3.883-.857 5.333-.313 1.45.543 3.207 1.586 6.427-1.88 3.22-3.467 5.72-.804 7.456.12.361.161.77.18 1.144.05a3.709 3.709 0 0 0 2.463-2.447 129.284 129.284 0 0 1 10.8-19.457c2.46-4.183 6.647-3 6.717 1.157 0 .217 0 .46-.037.707-.02.45-.903 3.023-1 3.5-1.153 4.666-8.893 15.52-12.376 23.636-.124.27-.24.53-.334.78a58.726 58.726 0 0 0-2.313 16.737.892.892 0 0 0 1.61.553c2.563-3.49 8.46-10 12.39-11.053a40.54 40.54 0 0 1 5.413-1.093c6.733-.877 9.317 1.1 6.19 3.28z" fill="url(#d)"/>
    <path d="M102.851 70.12a2.77 2.77 0 0 1-.214.564c-.496 1-1.28 3.03-2.666 2.88a2 2 0 0 1-1.247-.847 1.181 1.181 0 0 1-.243-1.186 6.783 6.783 0 0 1 1.466-3.117 1.661 1.661 0 0 1 1.259-.434 1.665 1.665 0 0 1 1.175.627 1.517 1.517 0 0 1 .47 1.513zM114.418 105.251a1.533 1.533 0 0 0-.926-.207c-.622.021-1.241.095-1.85.22-.814.177-2.55.817-2.56 1.97 0 1.643 1.176 2.333 1.833 2.047 1-.417 5.503-2.397 3.577-3.977l-.074-.053z" fill="#FFBABC" style="mix-blend-mode:screen" opacity=".4"/>
    <path d="M89.557 119.578c1.407-.534 6.14-8.56 11.334-11.537 2.766-1.583 5.166-2.413 7.306-3.62a39.341 39.341 0 0 0-5.417 1.093c-3.93 1.064-9.83 7.56-12.393 11.05a.889.889 0 0 1-1.607-.546 58.466 58.466 0 0 1 2.314-16.74c.1-.25.216-.514.333-.777 3.483-8.123 11.224-18.977 12.384-23.643.113-.48 1-3.044 1.016-3.5 0-.244.033-.49.03-.704-4.48 7.444-15.787 24.644-17.633 33.37-3.55 16.817.926 16.07 2.333 15.554zM84.93 93.218c-1.116 2.28-2.226 4.333-3.183 6.503a65.966 65.966 0 0 0-1.4 3.26c-.433 1.11-.84 2.244-1.37 3.42a10.526 10.526 0 0 1-.02-3.803 13.699 13.699 0 0 1 1.11-3.647 14.42 14.42 0 0 1 2-3.23 10.288 10.288 0 0 1 2.864-2.503zM72.35 94.944a47.947 47.947 0 0 1-1.536 5.12c-.28.817-.587 1.624-.897 2.447-.322.861-.699 1.7-1.127 2.513a9.122 9.122 0 0 1 .28-5.57c.309-.887.735-1.73 1.267-2.503a7 7 0 0 1 2.013-2.007zM61.282 97.702a8.11 8.11 0 0 1 0 2.103c-.08.647-.208 1.288-.38 1.917a16.975 16.975 0 0 1-.62 1.823c-.247.604-.524 1.18-.867 1.86a3.998 3.998 0 0 1-.563-2.106 7.081 7.081 0 0 1 .27-2.064 8.033 8.033 0 0 1 .79-1.893 5.831 5.831 0 0 1 1.37-1.64z" fill="#F8A48D"/>
    <path d="M60.391 133.911c.18 1.377-8-2.067-8.84-1.193-.84.873-11 23.923-11 23.923v-.03a141.19 141.19 0 0 1 7.544-20.416 16.026 16.026 0 0 0 3.576-10.777c.25-7.85 1.11-15.669 2.57-23.387-.733 8.567-1.843 23.69-.843 26.063 1.427 3.34 6.816 4.444 6.993 5.817z" fill="#FCD2BF"/>
    <path d="M91.628 132.044a27.382 27.382 0 0 1-5.13 4.917c-5.153 3.333-9.647.746-10.897 4l-.256.96-.277.87a34.925 34.925 0 0 0-4.51-5.953c2.395.63 4.857.966 7.333.999 4.28.107 10.584-3.696 13.737-5.793z" fill="#FEBFB2"/>
    <path d="M95.328 87.745a3.706 3.706 0 0 1-1.74.51 4.582 4.582 0 0 1-1.767-.217 3.717 3.717 0 0 1-1.606-.977 2.13 2.13 0 0 1-.667-1.803v-.023a.046.046 0 0 1 .053-.037.05.05 0 0 1 .034.027c.23.485.588.898 1.036 1.193.449.297.942.522 1.46.666.516.17 1.044.297 1.58.38.537.08 1.08.144 1.624.174a.046.046 0 0 1 .04.032.048.048 0 0 1-.004.04.046.046 0 0 1-.016.015l-.027.02zM95.427 86.028a3.764 3.764 0 0 1-1.383.21 4.773 4.773 0 0 1-1.387-.224 5.617 5.617 0 0 1-.666-.276 3.232 3.232 0 0 1-.604-.43 1.834 1.834 0 0 1-.666-1.294c0-.006.002-.012.007-.016a.023.023 0 0 1 .016-.007.024.024 0 0 1 .023 0c.177.408.47.755.84 1a4.19 4.19 0 0 0 1.197.553 9.461 9.461 0 0 0 2.617.437.027.027 0 0 1 .023.026.027.027 0 0 1 .003.012.026.026 0 0 1-.003.012l-.017-.003zM95.321 85.018a2.899 2.899 0 0 0-.647-.837 3.623 3.623 0 0 0-.873-.6 4.054 4.054 0 0 0-.51-.193 2.456 2.456 0 0 0-.553-.08 1.387 1.387 0 0 0-1.037.36.015.015 0 0 0-.005.006.016.016 0 0 0-.002.007l.002.008a.016.016 0 0 0 .005.005.02.02 0 0 0 .01.003 1.723 1.723 0 0 1 .987-.106c.33.061.648.174.943.333a7.133 7.133 0 0 1 1.667 1.127.02.02 0 0 0 .013.005.02.02 0 0 0 .014-.005.02.02 0 0 0 0-.02l-.014-.013zM102.585 116.678c-.46.154-.95.199-1.43.131a3.385 3.385 0 0 1-1.287-.414 2.467 2.467 0 0 1-1-.95 1.505 1.505 0 0 1-.107-1.43v-.016a.042.042 0 0 1 .021-.02.036.036 0 0 1 .03 0c.005.002.01.005.013.01.004.004.006.01.006.016.064.388.244.747.517 1.03.274.288.595.527.95.707.355.2.726.37 1.11.507.387.136.783.259 1.187.359l.012.006a.031.031 0 0 1 .009.011.05.05 0 0 1 .004.013c0 .005 0 .01-.002.014a.033.033 0 0 1-.011.015.03.03 0 0 1-.016.008l-.006.003z" fill="#F8A48D"/>
    <path d="M103.458 105.335a14.17 14.17 0 0 1 3-1.207 16.733 16.733 0 0 1 3.193-.587 9.998 9.998 0 0 1 3.28.241 4.392 4.392 0 0 1 2.73 1.763 5.878 5.878 0 0 0-2.873-1 15.338 15.338 0 0 0-3.06 0c-2.08.123-4.14.496-6.27.79z" fill="#FE9E8C"/>
    <path d="M139.625 38.013c1.563-4.75.333-9.426-2.757-10.443l-2.26-.743a16.853 16.853 0 0 0-6.163 7.503 19.217 19.217 0 0 0 .497 9.697l2.26.743c3.09 1.02 6.86-2.007 8.423-6.757z" fill="#FFA200"/>
    <path opacity=".34" d="m141.111 31.47-4.16-1.29-.95 5.9 4.817 1.334.293-5.943z" fill="#FFC700"/>
    <path opacity=".34" d="m141.298 32.93-4.16-1.29-.55 2.457 4.816 1.334-.106-2.5z" fill="#FFD600"/>
    <path opacity=".34" d="m138.525 27.61-4.16-1.29-.1 1.16 4.793 1.58-.533-1.45zM135.788 44.343l-4.437-1.114-3.867 2.454 4.817 1.333 3.487-2.673z" fill="#E17D00"/>
    <path d="M137.627 37.332c1.541-4.757.225-9.444-2.939-10.468-3.163-1.025-6.977 2-8.517 6.757-1.541 4.757-.225 9.444 2.939 10.469 3.163 1.024 6.977-2.001 8.517-6.758z" fill="#FFC700"/>
    <path opacity=".65" d="M136.031 36.888c1.266-3.894.386-7.67-1.963-8.433-2.35-.763-5.28 1.774-6.545 5.668-1.265 3.894-.386 7.67 1.963 8.433 2.35.764 5.28-1.774 6.545-5.668z" fill="url(#e)"/>
    <path d="M128.104 34.317c1.243-3.793 4.06-6.286 6.373-5.69a2.73 2.73 0 0 0-.393-.166c-2.333-.777-5.28 1.746-6.553 5.64-1.274 3.893-.404 7.666 1.94 8.453l.18.05c-2.047-1.05-2.747-4.62-1.547-8.287z" fill="#F89A00"/>
    <path d="M47.237 65.304c-3-4-3.333-8.823-.736-10.773l1.903-1.43c3.192.865 6.059 2.65 8.243 5.133a19.232 19.232 0 0 1 2.637 9.334l-1.903 1.43c-2.597 1.963-7.14.306-10.144-3.694z" fill="#FFA200"/>
    <path opacity=".34" d="m43.73 59.582 3.527-2.557 2.79 5.283-4.13 2.82-2.187-5.546z" fill="#FFC700"/>
    <path opacity=".34" d="m44.007 61.027 3.527-2.556 1.31 2.15-4.13 2.82-.707-2.414z" fill="#FFD600"/>
    <path opacity=".34" d="m44.944 55.101 3.526-2.557.467 1.067-4.037 3.03.044-1.54zM52.897 70.075l3.847-2.477 4.446 1.084-4.13 2.82-4.163-1.427z" fill="#E17D00"/>
    <path d="M59.14 67.692c2.669-1.985 2.413-6.848-.571-10.862C55.584 52.816 51 51.17 48.33 53.156c-2.67 1.985-2.414 6.848.57 10.862 2.985 4.014 7.569 5.659 10.238 3.674z" fill="#FFC700"/>
    <path opacity=".65" d="M58.294 66.36c1.981-1.477 1.604-5.335-.843-8.618-2.446-3.283-6.035-4.747-8.017-3.271-1.98 1.476-1.603 5.334.843 8.617 2.447 3.283 6.036 4.748 8.017 3.272z" fill="url(#f)"/>
    <path d="M56.974 58.11c-2.393-3.193-5.86-4.666-7.86-3.333.103-.103.215-.198.334-.283 1.973-1.487 5.56-.036 8 3.24 2.44 3.277 2.843 7.14.873 8.63l-.153.107c1.586-1.667 1.106-5.274-1.194-8.36z" fill="#F89A00"/>
    <path d="M151.327 80.138c4.26-2.62 6.333-7 4.63-9.757l-1.247-2.027a16.846 16.846 0 0 0-9.55 1.757 19.236 19.236 0 0 0-5.876 7.73l1.246 2.027c1.704 2.77 6.537 2.89 10.797.27z" fill="#FFA200"/>
    <path opacity=".34" d="m156.684 76.094-2.333-3.667-4.534 3.893 2.81 4.137 4.057-4.363z" fill="#FFC700"/>
    <path opacity=".34" d="m155.884 77.33-2.333-3.666-2 1.523 2.81 4.133 1.523-1.99z" fill="#FFD600"/>
    <path opacity=".34" d="m157.201 71.477-2.333-3.666-.827.82 2.647 4.3.513-1.454zM144.314 82.497l-2.666-3.713-4.537-.62 2.81 4.133 4.393.2z" fill="#E17D00"/>
    <path d="M150.248 78.325c4.247-2.642 6.265-7.074 4.508-9.898-1.757-2.825-6.625-2.973-10.872-.33-4.247 2.642-6.265 7.074-4.508 9.898 1.758 2.825 6.625 2.972 10.872.33z" fill="#FFC700"/>
    <path opacity=".65" d="M149.306 76.964c3.48-2.157 5.245-5.608 3.943-7.708-1.301-2.1-5.178-2.053-8.657.104-3.48 2.158-5.246 5.609-3.944 7.709 1.302 2.1 5.178 2.052 8.658-.105z" fill="url(#g)"/>
    <path d="M144.908 69.88c3.397-2.096 7.157-2.183 8.54-.236a2.625 2.625 0 0 0-.194-.383c-1.29-2.107-5.159-2.07-8.643.083-3.483 2.153-5.26 5.603-3.97 7.71.034.053.067.103.104.153-.884-2.12.883-5.3 4.163-7.326z" fill="#F89A00"/>
    <path d="m40.824 143.507-1.463-1.127a.974.974 0 0 0-1.073-.072.974.974 0 0 0-.284.249l-9.873 12.813a.953.953 0 0 0-.087 1.051c.06.109.142.206.24.283l1.484 1.14a.971.971 0 0 0 1.072.074.959.959 0 0 0 .284-.248l9.874-12.813a.968.968 0 0 0-.174-1.35zM28.958 98.583l-.83 1.647a.97.97 0 0 0 .13 1.067.954.954 0 0 0 .297.233l14.443 7.284a.957.957 0 0 0 .73.069.957.957 0 0 0 .56-.473l.84-1.667a.962.962 0 0 0-.13-1.067.966.966 0 0 0-.297-.232L30.258 98.16a.967.967 0 0 0-1.3.423zM161.594 117.268l-1.18 1.42a.973.973 0 0 0-.221.707.978.978 0 0 0 .345.656l12.43 10.334a.946.946 0 0 0 1.333-.104l1.197-1.44a.973.973 0 0 0 .221-.707.954.954 0 0 0-.345-.656l-12.43-10.334a.97.97 0 0 0-1.35.124z" fill="#FFC700"/>
    <defs>
        <linearGradient id="a" x1="99.481" y1="147.585" x2="106.218" y2="153.472" gradientUnits="userSpaceOnUse">
            <stop stop-color="#FAD8AA"/>
            <stop offset="1" stop-color="#F4991D"/>
        </linearGradient>
        <linearGradient id="b" x1="97.768" y1="34.746" x2="97.768" y2="94.853" gradientUnits="userSpaceOnUse">
            <stop stop-color="#FAD8AA"/>
            <stop offset="1" stop-color="#F4991D"/>
        </linearGradient>
        <linearGradient id="c" x1="141.871" y1="47.817" x2="218.406" y2="265.813" gradientUnits="userSpaceOnUse">
            <stop stop-color="#FCD2BF"/>
            <stop offset="1" stop-color="#F8A48D"/>
        </linearGradient>
        <linearGradient id="d" x1="37.825" y1="66.881" x2="47.7" y2="272.73" gradientUnits="userSpaceOnUse">
            <stop stop-color="#FCD2BF"/>
            <stop offset="1" stop-color="#F8A48D"/>
        </linearGradient>
        <linearGradient id="e" x1="127.523" y1="34.123" x2="136.031" y2="36.888" gradientUnits="userSpaceOnUse">
            <stop stop-color="#FAD8AA"/>
            <stop offset="1" stop-color="#F4991D"/>
        </linearGradient>
        <linearGradient id="f" x1="49.434" y1="54.471" x2="58.294" y2="66.36" gradientUnits="userSpaceOnUse">
            <stop stop-color="#FAD8AA"/>
            <stop offset="1" stop-color="#F4991D"/>
        </linearGradient>
        <linearGradient id="g" x1="144.592" y1="69.36" x2="149.306" y2="76.964" gradientUnits="userSpaceOnUse">
            <stop stop-color="#FAD8AA"/>
            <stop offset="1" stop-color="#F4991D"/>
        </linearGradient>
    </defs>
</svg>
