<svg width="200" height="200" fill="none" xmlns="http://www.w3.org/2000/svg">
    <path d="M21.076 110.679s-14.684-75.434 39.9-86.842c54.583-11.408 97.066-16.433 99.166 42.359 2.1 58.791 35.834 87.5 12.392 103.016-23.442 15.517-144.558-7.391-151.458-58.533z" fill="#FAF4EC"/>
    <path d="M80.501 82.85a87.922 87.922 0 0 0 4.067-17.167 7.5 7.5 0 0 1 8.05-5.692 120.646 120.646 0 0 0-1.108 13.292A7.617 7.617 0 0 1 86.943 80L80.5 82.85z" fill="#EFA788"/>
    <path d="M87.198 73.165a145.034 145.034 0 0 1-5.675 17.559c-.308.633-.65 1.275-1.025 1.933l2.258-.75 5.55-1.841c.43-.144.847-.32 1.25-.525v-19.9a10.682 10.682 0 0 0-2.358 3.524z" fill="#EFA788"/>
    <path d="M89.564 89.55v-19.9a8.742 8.742 0 0 1 7.641-2.191l-.308 1.666c-.35 1.826-.934 4.9-1.45 7.7-.517 2.8-.942 5.183-1.05 5.983a8.893 8.893 0 0 1-4.834 6.742z" fill="url(#a)"/>
    <path d="M84.599 102.408c-2.776 1.175-5.725 2.499-8.642 4.074l-1.059.567a121.22 121.22 0 0 1 3.409 2.208c2.091 1.4 4.025 2.784 5.733 4.059l.75.567c1.3.983 3.267 2.566 4.767 3.799v-10.916c-.95-.908-2-1.791-3.125-2.75-.592-.508-1.209-1.033-1.834-1.608z" fill="#EFA788"/>
    <path d="M91.722 119.425a8.21 8.21 0 0 0-.433-10.834 20.673 20.673 0 0 0-1.725-1.825v10.917l2.158 1.742z" fill="url(#b)"/>
    <path d="M89.697 100.335c3.084-1.175 9.475-3.216 9.475-3.216a8.333 8.333 0 0 0-9.541-5.409h-.067v8.659l.133-.034z" fill="url(#c)"/>
    <path d="M79.556 97.076a40.87 40.87 0 0 0 5 5.341l.117-.05a120.867 120.867 0 0 1 4.85-1.941v-8.658c-3.275.416-6.467 1.816-10.733 2.816l-.934.208c.55.834 1.109 1.584 1.667 2.292l.033-.008z" fill="#EFA788"/>
    <path d="M35.425 35.517c1.075-8.334 18.208-12.967 25.491-7.584a13.652 13.652 0 0 1 3.667 6.25l.058.15c.3.834.584 1.667.883 2.5l.067.2c.158.442.308.884.467 1.325v.084c.316.833.65 1.725 1.008 2.541v.067a10.224 10.224 0 0 0 4.358 5.433A23.025 23.025 0 0 1 81.7 56.808c.358.68.673 1.381.942 2.1l-1.308.134a182.241 182.241 0 0 1-32.942.666 25.258 25.258 0 0 1-2.5-.441c-2.875-.65-4.667-1.667-4.617-3.2a14.008 14.008 0 0 0-1.733-6.8c-.333-.692-.7-1.384-1.066-2.075-.267-.509-.534-1.017-.834-1.534l-.092-.183a35.81 35.81 0 0 1-.933-1.975l-.1-.233a14.608 14.608 0 0 1-1.091-7.75z" fill="url(#d)"/>
    <path d="M49.1 126.508a3.706 3.706 0 0 0 3.734 3.692h29.208a3.71 3.71 0 0 0 3.444-2.272c.19-.449.287-.932.29-1.42v-2.424H49.109l-.008 2.424z" fill="#EB840B"/>
    <path d="M85.775 124.083V64.658a3.708 3.708 0 0 0-3.733-3.692H52.833a3.734 3.734 0 0 0-2.866 1.334 3.641 3.641 0 0 0-.834 2.358v59.425h36.642z" fill="#fff"/>
    <path d="M81.098 66.334c.935 0 1.692-.75 1.692-1.675s-.757-1.675-1.692-1.675c-.934 0-1.691.75-1.691 1.675s.757 1.675 1.691 1.675z" fill="#E7E7F7"/>
    <path d="M74.409 66.334c.934 0 1.691-.75 1.691-1.675s-.757-1.675-1.691-1.675c-.935 0-1.692.75-1.692 1.675s.757 1.675 1.692 1.675z" fill="#CBCBEE"/>
    <path d="M67.715 66.334c.934 0 1.692-.75 1.692-1.675s-.758-1.675-1.692-1.675c-.934 0-1.692.75-1.692 1.675s.758 1.675 1.692 1.675zM61.026 66.334c.934 0 1.691-.75 1.691-1.675s-.757-1.675-1.691-1.675c-.935 0-1.692.75-1.692 1.675s.757 1.675 1.692 1.675zM54.332 66.334c.935 0 1.692-.75 1.692-1.675s-.757-1.675-1.692-1.675c-.934 0-1.691.75-1.691 1.675s.757 1.675 1.691 1.675z" fill="#E7E7F7"/>
    <path d="M79.383 81.1h-3.825v1.216h3.825V81.1z" fill="#CBCBEE"/>
    <path d="M79.38 77.05h-7.733v1.217h7.734v-1.216z" fill="#E7E7F7"/>
    <path d="M69.95 77.05H61.3v1.217h8.65v-1.216z" fill="#CBCBEE"/>
    <path d="M59.6 77.05h-4v1.217h4v-1.216zM63.99 73.393H55.6v1.216h8.39v-1.216zM73.782 81.1H55.6v1.216h18.183V81.1z" fill="#E7E7F7"/>
    <path d="M79.375 73.393h-13.75v1.216h13.75v-1.216z" fill="#CBCBEE"/>
    <path d="M85.734 68.583H49.1v.333h36.633v-.333zM78.7 122.143c2.038 0 3.691-1.634 3.691-3.65s-1.653-3.65-3.692-3.65c-2.038 0-3.691 1.634-3.691 3.65s1.653 3.65 3.692 3.65z" fill="#E7E7F7"/>
    <path d="M67.432 122.143c2.04 0 3.692-1.634 3.692-3.65s-1.653-3.65-3.692-3.65c-2.038 0-3.691 1.634-3.691 3.65s1.653 3.65 3.691 3.65z" fill="#CBCBEE"/>
    <path d="M56.167 114.859a3.657 3.657 0 0 0-3.342 2.282 3.652 3.652 0 0 0 2.687 4.951 3.648 3.648 0 0 0 4.347-3.583 3.676 3.676 0 0 0-3.692-3.65zm0 6.667a2.986 2.986 0 0 1-2.888-3.585 2.983 2.983 0 0 1 5.905.602 3.007 3.007 0 0 1-3.017 2.942v.041zM85.775 112.341H49.142v.334h36.633v-.334z" fill="#E7E7F7"/>
    <path d="M48.452 59.7c.678-.582 1.54-.9 2.433-.9h29.217a3.7 3.7 0 0 1 1.291.232l1.309-.133a17.695 17.695 0 0 0-.942-2.108 5.461 5.461 0 0 0-1.325-.159H50.527a5.325 5.325 0 0 0-4.6 2.625c.775.175 1.617.325 2.525.442z" fill="#EFA788"/>
    <path d="M52.485 132.368h29.908a5.301 5.301 0 0 0 5.325-5.267V64.076a5.3 5.3 0 0 0-5.325-5.267H52.485a5.3 5.3 0 0 0-5.325 5.267v63.025a5.301 5.301 0 0 0 5.325 5.267zm-3.384-16.9V64.634a3.65 3.65 0 0 1 .834-2.358 3.742 3.742 0 0 1 2.866-1.333H82.01a3.707 3.707 0 0 1 3.733 3.691v61.9a3.708 3.708 0 0 1-3.733 3.692H52.826a3.711 3.711 0 0 1-3.733-3.692l.008-11.066z" fill="url(#e)"/>
    <path d="M76.81 127.815h3.158a.691.691 0 0 0 .692-.691v-.009a.691.691 0 0 0-.692-.691H76.81a.691.691 0 0 0-.692.691v.009c0 .382.31.691.692.691zM82.195 127.815h.626a.691.691 0 0 0 .691-.691v-.009a.691.691 0 0 0-.692-.691h-.624a.691.691 0 0 0-.692.691v.009c0 .382.31.691.691.691zM52.145 127.882a.729.729 0 0 0 .733-.725.73.73 0 0 0-.733-.725.73.73 0 0 0-.733.725c0 .401.328.725.733.725zM57.353 127.882a.729.729 0 0 0 .734-.725.73.73 0 0 0-.734-.725.73.73 0 0 0-.733.725c0 .401.328.725.733.725zM54.753 127.882a.729.729 0 0 0 .734-.725.73.73 0 0 0-.734-.725.73.73 0 0 0-.733.725c0 .401.328.725.733.725z" fill="#fff"/>
    <path d="M66.403 87.517H65.837a1.28 1.28 0 0 0-.234 0c-.173.015-.346.04-.516.075-.142 0-.292.058-.442.083h-.067l-.325.075-.283.183-.208.067h-.084l-.275.108-.183.075-.35.15-.275.142-.233.117-.142.083-.15.1a.057.057 0 0 0-.05 0l-.317.192-.233.166-.175.117-.175.133-.233.192-.184.167-.133.116-.292.284-.191.2-.167.183-.133.15-.234.275c-.075.1-.175.233-.258.358l-.175.259-.183.291-.142.25-.208.392c-.067.125-.109.217-.159.325l-.183.442-.117.3c0 .1-.05.166-.075.25l-.083.275v.116l-.075.309c0 .15-.067.3-.092.458-.025.158 0 .208-.041.308-.042.1 0 .292-.05.442v.792a2.565 2.565 0 0 0 0 .441.65.65 0 0 0 .183.359.835.835 0 0 0 .267.158c.207.064.425.087.641.067H60.845a.575.575 0 0 0 .333-.084c.059 0 .134-.075.192-.116a.733.733 0 0 0 .125-.142.933.933 0 0 0 .2-.608 3.568 3.568 0 0 1 0-.359c0-.166 0-.341.058-.508.059-.167.042-.258.075-.392a3.13 3.13 0 0 1 .1-.358c.059-.158.117-.308.184-.458.066-.15.108-.25.175-.367.066-.117.125-.233.2-.35.063-.1.132-.194.208-.283l.217-.275a1.9 1.9 0 0 1 .166-.175l.267-.267.125-.117.192-.158.316-.233c.109-.075.209-.125.309-.184l.141-.083.167-.083.142-.067.233-.108.142-.05h.116l.342-.1.3-.059h.283c.24-.045.482-.064.725-.058.154.008.307.025.459.05h.141l.25.042.3.058h.1l.35.108.192.075.217.092.15.075c.125.067.25.125.366.192.081.051.159.107.234.166l.175.117.25.2.141.125.217.208.142.15.15.184.183.233c.058.075.133.233.217.325.07.11.151.214.241.308.107.09.228.16.359.209.12.046.246.077.375.091.19.019.383.019.575 0h.191c.111-.015.22-.043.325-.083.1-.05.2-.075.3-.117l.134-.083.2-.142.233-.2c.06-.059.116-.123.167-.191.108-.14.195-.294.258-.459.05-.135.09-.275.117-.416a2.74 2.74 0 0 0 0-.459 1.56 1.56 0 0 0-.05-.341 2.383 2.383 0 0 0-.117-.35 2.2 2.2 0 0 0-.142-.267l-.133-.183-.342-.442a2.083 2.083 0 0 0-.183-.2l-.15-.167-.217-.233-.158-.158-.15-.15-.233-.209-.117-.1-.125-.1-.292-.233-.275-.208a2.256 2.256 0 0 0-.2-.117l-.116-.075-.15-.083-.117-.075-.158-.109h-.075c-.134-.05-.242-.141-.384-.183l-.191-.1-.267-.117-.233-.083a2.304 2.304 0 0 0-.442-.15l-.25-.083-.258-.075-.2-.05-.4-.084-.234-.05h-.091l-.534-.05-.533-.05-.667.034z" fill="#EB840B"/>
    <path d="M73.684 95.606h-1.083a.458.458 0 0 0-.291.084c-.05 0-.117.066-.167.108a.835.835 0 0 0-.15.15 1.728 1.728 0 0 0-.117.208.716.716 0 0 0-.067.3v.042a4.7 4.7 0 0 1 0 .65c0 .167-.05.333-.083.5a3.68 3.68 0 0 1-.083.35c-.03.11-.066.219-.109.325-.058.158-.125.308-.191.458-.06.126-.127.248-.2.367-.092.15-.183.292-.284.433a4.192 4.192 0 0 1-.283.35c-.1.114-.205.223-.316.325l-.326.292a2.315 2.315 0 0 1-.358.258 2.22 2.22 0 0 0-.233.167h-.067l-.316.167-.284.133-.341.117-.259.083h-.158a1.372 1.372 0 0 1-.359.075h-1.891l-.359-.092h-.05l-.266-.083-.275-.117-.267-.133-.233-.117-.15-.091-.217-.142-.1-.075-.208-.167-.15-.133-.233-.233a6.9 6.9 0 0 1-.234-.25c-.075-.084-.125-.167-.183-.259l-.142-.191c-.083-.125-.158-.25-.242-.367-.083-.117-.125-.125-.183-.192a.833.833 0 0 0-.258-.141 1.269 1.269 0 0 0-.292-.084l-.258-.05a1.874 1.874 0 0 0-.717 0l-.317.084-.166.075a3.17 3.17 0 0 0-.334.191c-.066.05-.127.106-.183.167a1.532 1.532 0 0 0-.175.183c-.09.12-.174.245-.25.375-.048.092-.09.186-.125.284a.82.82 0 0 0 0 .125 1.88 1.88 0 0 0-.058.691c.018.155.049.309.092.459.055.191.149.37.275.525.083.1.158.233.233.325l.142.183.266.308.3.325c.1.109.2.209.309.309l.291.25.317.266.158.117.209.142.291.183.117.083.142.084.124.083.15.1.092.05.3.15.425.208h.092l.233.084.217.083.166.058.284.084h.05l.308.075c.142 0 .283.083.425.108l.525.083.617.059h.733c.25 0 .392 0 .592-.05h.617a.87.87 0 0 0 .124 0l.542-.1a.387.387 0 0 0 .084 0l.316-.075h.059l.366-.117.192-.067.267-.1.183-.075.442-.191.175-.1.233-.125.158-.084.258-.15.117-.075.092-.066.283-.2.175-.117.175-.133.233-.192.234-.208.208-.192.192-.192.166-.175.159-.166.2-.234.125-.158.233-.3.2-.292a6.355 6.355 0 0 0 .517-.866c.083-.167.183-.375.267-.559a8.56 8.56 0 0 0 .216-.516c.067-.175.1-.309.15-.459.05-.15.1-.325.142-.491.041-.167.058-.275.083-.409a8.788 8.788 0 0 0 .167-1.908.999.999 0 0 0-.075-.408.566.566 0 0 0-.242-.284l-.183-.083a.401.401 0 0 0-.142 0l-1.5-.042-.041-.025z" fill="#32A1BF"/>
    <path d="M51.434 101.558c-.28-5.622-.208-11.255.217-16.867a21.04 21.04 0 0 1 .883-2.992 23.852 23.852 0 0 1 4.684-7.566 45 45 0 0 0 4.691-6.225 31.762 31.762 0 0 0 3.283-6.942H52.384a3.75 3.75 0 0 0-2.45 1.308 3.666 3.666 0 0 0-.833 2.367v42.133a10.355 10.355 0 0 0 2.333-5.216z" fill="#DADAF3"/>
    <path d="m41.326 56.058 2.225 1.333c4.45-6.667 10.925-10.092 15-7.767 4.359 2.5 3.859 10.425-.125 18.259a44.305 44.305 0 0 1-4.166 6.575 22.924 22.924 0 0 0-4.625 10.966c.06 5.612.471 11.215 1.233 16.775a9.083 9.083 0 0 1-8 8.859s-.042-.609-.15-1.667c0-.208-.05-.442-.067-.683v-.117a142.688 142.688 0 0 0-1.066-8.058c0-.15-.05-.309-.075-.459a17.383 17.383 0 0 0-.142-.833 125.73 125.73 0 0 0-4.392-18.333c-1.541-4.8 3.167-17.817 4.35-24.85z" fill="url(#f)"/>
    <path d="M41.601 100.492a4.655 4.655 0 0 1 3.275 3.592l.558 2.917a.957.957 0 0 1-.7 1.107l-2.058.568v-.117c-.2-1.85-.533-4.7-1.075-8.067zM93.874 72.566l.359-2.716a.966.966 0 0 1 1.016-.834l1.667.075c-.35 1.825-.934 4.9-1.45 7.7a4.823 4.823 0 0 1-1.592-4.225z" fill="#FFDBCD"/>
    <path d="M16.666 18.766h45.592L70 39l-6.758 2.034-27.409 8.225-19.166-30.492zm36.609 11.467v.833-.833c0-.278.014-.556.041-.834.012.273-.002.55-.041.834z" fill="url(#g)"/>
    <path d="M119.501 119.267a87.927 87.927 0 0 0-4.067 17.167 7.498 7.498 0 0 1-8.049 5.691c.614-4.406.985-8.844 1.109-13.291a7.618 7.618 0 0 1 4.566-6.717l6.441-2.85z" fill="#EFA788"/>
    <path d="M112.807 128.932a145.152 145.152 0 0 1 5.675-17.558 34.64 34.64 0 0 1 1.026-1.934l-2.258.751-5.551 1.841a9.126 9.126 0 0 0-1.25.525v19.901a10.676 10.676 0 0 0 2.358-3.526z" fill="#EFA788"/>
    <path d="M110.474 112.557v19.901a8.743 8.743 0 0 1-7.642 2.191l.308-1.666c.35-1.825.934-4.9 1.451-7.7s.95-5.184 1.05-5.984a8.89 8.89 0 0 1 4.833-6.742z" fill="url(#h)"/>
    <path d="M115.407 99.691c2.775-1.175 5.725-2.5 8.642-4.075l1.059-.566a115.183 115.183 0 0 1-3.409-2.209 137.017 137.017 0 0 1-5.733-4.058l-.75-.567c-1.3-.983-3.267-2.567-4.767-3.808v10.917c.95.908 2 1.791 3.125 2.75.584.525 1.2 1.058 1.833 1.616z" fill="#EFA788"/>
    <path d="M108.286 82.642a8.207 8.207 0 0 0 .433 10.833 20.895 20.895 0 0 0 1.725 1.825V84.384l-2.158-1.742z" fill="url(#i)"/>
    <path d="M110.31 101.734c-3.084 1.167-9.476 3.217-9.476 3.217a8.333 8.333 0 0 0 9.542 5.409h.067v-8.659l-.133.033z" fill="url(#j)"/>
    <path d="M120.444 105.034a40.913 40.913 0 0 0-5-5.343l-.117.05a121.225 121.225 0 0 1-4.849 1.942v8.667c3.275-.417 6.466-1.817 10.733-2.817l.932-.209a33.406 33.406 0 0 0-1.666-2.29h-.033z" fill="#EFA788"/>
    <path d="M164.575 166.593c-1.075 8.333-18.208 12.967-25.491 7.583a13.659 13.659 0 0 1-3.667-6.25l-.058-.149c-.3-.833-.592-1.667-.883-2.5l-.067-.2c-.159-.442-.309-.884-.467-1.325v-.084c-.317-.833-.65-1.724-1.008-2.541v-.067a10.228 10.228 0 0 0-4.358-5.433 23.03 23.03 0 0 1-10.276-10.325 18.494 18.494 0 0 1-.942-2.109l1.31-.133a182.263 182.263 0 0 1 32.941-.667c.909.117 1.75.267 2.5.442 2.875.65 4.674 1.667 4.616 3.2a14 14 0 0 0 1.733 6.799c.334.692.701 1.384 1.067 2.076.267.508.534 1.017.834 1.534l.091.183c.325.641.642 1.299.934 1.974l.1.234a14.607 14.607 0 0 1 1.091 7.758z" fill="url(#k)"/>
    <path d="M150.851 75.6a3.702 3.702 0 0 0-2.31-3.419 3.71 3.71 0 0 0-1.423-.273H117.91a3.714 3.714 0 0 0-2.633 1.072 3.705 3.705 0 0 0-1.101 2.62v2.425h36.667l.008-2.426z" fill="#EB840B"/>
    <path d="M114.192 78.027v59.425a3.714 3.714 0 0 0 3.734 3.691h29.208a3.726 3.726 0 0 0 2.867-1.333 3.653 3.653 0 0 0 .834-2.358V78.027h-36.643z" fill="#fff"/>
    <path d="M118.883 139.128c.934 0 1.692-.75 1.692-1.675s-.758-1.675-1.692-1.675c-.934 0-1.692.75-1.692 1.675s.758 1.675 1.692 1.675z" fill="#E7E7F7"/>
    <path d="M125.576 139.128c.935 0 1.692-.75 1.692-1.675s-.757-1.675-1.692-1.675c-.934 0-1.691.75-1.691 1.675s.757 1.675 1.691 1.675z" fill="#CBCBEE"/>
    <path d="M132.266 139.128c.934 0 1.692-.75 1.692-1.675s-.758-1.675-1.692-1.675c-.934 0-1.692.75-1.692 1.675s.758 1.675 1.692 1.675zM138.959 139.128c.935 0 1.692-.75 1.692-1.675s-.757-1.675-1.692-1.675c-.934 0-1.691.75-1.691 1.675s.757 1.675 1.691 1.675zM145.649 139.128c.934 0 1.692-.75 1.692-1.675s-.758-1.675-1.692-1.675c-.934 0-1.691.75-1.691 1.675s.757 1.675 1.691 1.675z" fill="#E7E7F7"/>
    <path d="M124.434 119.784h-3.825V121h3.825v-1.216z" fill="#CBCBEE"/>
    <path d="M128.342 123.833h-7.733v1.216h7.733v-1.216z" fill="#E7E7F7"/>
    <path d="M138.683 123.833h-8.65v1.216h8.65v-1.216z" fill="#CBCBEE"/>
    <path d="M144.393 123.833h-4v1.216h4v-1.216zM144.394 127.491h-8.392v1.216h8.392v-1.216zM144.391 119.784h-18.183V121h18.183v-1.216z" fill="#E7E7F7"/>
    <path d="M134.359 127.491h-13.75v1.216h13.75v-1.216z" fill="#CBCBEE"/>
    <path d="M150.891 133.195h-36.633v.333h36.633v-.333zM121.282 87.26c2.039 0 3.692-1.634 3.692-3.65s-1.653-3.65-3.692-3.65-3.692 1.634-3.692 3.65 1.653 3.65 3.692 3.65z" fill="#E7E7F7"/>
    <path d="M132.549 87.26c2.039 0 3.692-1.634 3.692-3.65s-1.653-3.65-3.692-3.65-3.692 1.634-3.692 3.65 1.653 3.65 3.692 3.65z" fill="#CBCBEE"/>
    <path d="M143.823 79.96a3.652 3.652 0 0 0-3.342 2.282 3.644 3.644 0 0 0 .818 3.963 3.645 3.645 0 0 0 3.972.773 3.652 3.652 0 0 0 2.244-3.368 3.677 3.677 0 0 0-3.692-3.65zm0 6.667a2.985 2.985 0 1 1 1.182-5.736 2.979 2.979 0 0 1 1.835 2.752 3.01 3.01 0 0 1-3.017 2.959v.025zM150.85 89.428h-36.633v.334h36.633v-.334z" fill="#E7E7F7"/>
    <path d="M151.552 142.399a3.74 3.74 0 0 1-2.434.9H119.91a3.698 3.698 0 0 1-1.3-.233l-1.309.134c.268.722.583 1.426.942 2.107.431.106.872.16 1.316.159h29.909a5.32 5.32 0 0 0 4.6-2.625 26.603 26.603 0 0 0-2.516-.442z" fill="#EFA788"/>
    <path d="M147.509 69.743h-29.908a5.3 5.3 0 0 0-5.325 5.267v63.024a5.296 5.296 0 0 0 1.573 3.735 5.296 5.296 0 0 0 3.752 1.532h29.908a5.301 5.301 0 0 0 5.326-5.267V75.01a5.303 5.303 0 0 0-5.326-5.267zm3.384 16.9v50.833a3.65 3.65 0 0 1-.833 2.358 3.753 3.753 0 0 1-2.867 1.334h-29.208a3.708 3.708 0 0 1-3.734-3.692v-61.85a3.707 3.707 0 0 1 3.734-3.692h29.208a3.71 3.71 0 0 1 3.733 3.692l-.033 11.017z" fill="url(#l)"/>
    <path d="M123.185 74.284h-3.158a.692.692 0 0 0-.692.691v.009c0 .382.31.691.692.691h3.158c.382 0 .692-.31.692-.691v-.009a.692.692 0 0 0-.692-.691zM117.8 74.284h-.625a.692.692 0 0 0-.692.691v.009c0 .382.31.691.692.691h.625c.382 0 .692-.31.692-.691v-.009a.692.692 0 0 0-.692-.691zM147.852 75.668a.729.729 0 0 0 .733-.725c0-.4-.328-.725-.733-.725a.729.729 0 0 0-.733.725c0 .4.328.725.733.725zM142.643 75.668a.73.73 0 0 0 .734-.725.73.73 0 0 0-.734-.725.729.729 0 0 0-.733.725c0 .4.328.725.733.725zM145.244 75.668a.729.729 0 0 0 .733-.725c0-.4-.328-.725-.733-.725a.73.73 0 0 0-.734.725c0 .4.329.725.734.725z" fill="#fff"/>
    <path d="M132.744 112.585h-.567a1.295 1.295 0 0 1-.233 0 4.534 4.534 0 0 1-.517-.075c-.141 0-.291-.059-.441-.084h-.067l-.325-.075-.275-.091-.208-.067h-.084l-.275-.108-.183-.075-.35-.15-.275-.142-.233-.117-.142-.083-.15-.1a.054.054 0 0 1-.05 0l-.317-.192-.233-.166-.175-.117-.175-.133-.233-.192-.184-.167-.133-.116-.292-.284-.191-.2-.167-.183-.133-.15-.234-.275c-.075-.1-.175-.233-.258-.358l-.175-.259-.183-.291-.142-.25-.208-.392c-.067-.125-.109-.217-.159-.325l-.183-.442-.117-.3c0-.1-.05-.166-.075-.25l-.083-.275v-.116l-.075-.309c0-.15-.067-.3-.092-.458-.025-.158 0-.208-.041-.308-.042-.1 0-.292-.05-.442v-.792a2.498 2.498 0 0 1 0-.441.653.653 0 0 1 .183-.359.839.839 0 0 1 .267-.158c.207-.064.425-.086.641-.067H127.194a.582.582 0 0 1 .333.084c.059 0 .134.075.192.116.048.042.09.09.125.142a.935.935 0 0 1 .2.608c-.006.12-.006.239 0 .359 0 .166 0 .341.058.508.059.167.042.258.075.392.027.121.06.241.1.358.059.158.117.308.184.458.066.15.108.25.175.367.066.117.125.233.2.35.063.099.132.194.208.283l.217.275c.052.062.107.121.166.175l.267.267.125.117.192.158.316.233c.109.075.209.125.309.184l.141.083.167.083.142.067.233.108.142.05h.116l.342.1.3.059h.283c.239.045.482.064.725.058.154-.008.307-.025.459-.05h.141l.25-.042.3-.058h.1l.35-.108.192-.075.217-.092.15-.075c.125-.067.25-.125.366-.192.081-.051.159-.107.234-.166l.175-.117.25-.2.141-.125.217-.208.142-.15.15-.184.183-.233c.058-.075.133-.233.217-.325.07-.11.151-.213.241-.308.107-.09.228-.16.359-.209a1.5 1.5 0 0 1 .375-.091c.191-.018.384-.018.575 0h.191c.112.016.221.044.325.083.1.05.2.075.3.117l.134.083.2.142.233.2c.061.059.117.123.167.191.108.14.195.294.258.459.05.135.089.275.117.416.013.153.013.306 0 .459-.004.115-.021.23-.05.341a2.067 2.067 0 0 1-.259.617l-.133.183-.342.442a2.037 2.037 0 0 1-.183.2l-.15.167-.217.233-.158.158-.15.15-.233.209-.117.1-.125.1-.292.233-.275.208a1.9 1.9 0 0 1-.2.117l-.116.075-.15.083-.117.075-.158.109h-.075c-.134.05-.242.141-.384.183l-.191.1-.267.117-.233.083c-.142.065-.29.115-.442.15l-.25.083-.258.075-.2.05-.4.084-.234.05h-.091l-.534.05-.533.05-.675-.125z" fill="#EB840B"/>
    <path d="M140.025 104.477h-1.083a.454.454 0 0 1-.292-.083c-.05 0-.116-.067-.166-.108a.82.82 0 0 1-.15-.15 1.643 1.643 0 0 1-.117-.209.722.722 0 0 1-.067-.3v-.041a4.7 4.7 0 0 0 0-.65c0-.167-.05-.334-.083-.5a3.628 3.628 0 0 0-.192-.675c-.058-.159-.125-.309-.191-.459a3.93 3.93 0 0 0-.2-.366 8.099 8.099 0 0 0-.284-.434 4.286 4.286 0 0 0-.283-.35 4.33 4.33 0 0 0-.317-.325l-.325-.291a2.351 2.351 0 0 0-.358-.258 2.214 2.214 0 0 1-.233-.167h-.067l-.317-.167-.283-.133-.342-.117-.258-.083h-.158a1.363 1.363 0 0 0-.359-.075h-1.891l-.359.091h-.05l-.266.084-.275.117-.267.133-.233.117-.15.091-.217.142-.1.075-.208.166-.15.134-.234.233a7.128 7.128 0 0 0-.233.25c-.075.083-.125.167-.183.258l-.142.192c-.083.125-.158.25-.242.367-.083.116-.125.125-.183.191a.815.815 0 0 1-.258.142 1.297 1.297 0 0 1-.292.083l-.258.05a1.88 1.88 0 0 1-.717 0l-.317-.083-.166-.075a3.042 3.042 0 0 1-.334-.192 1.307 1.307 0 0 1-.183-.166 1.523 1.523 0 0 1-.175-.184 3.76 3.76 0 0 1-.25-.375 2.231 2.231 0 0 1-.125-.283.868.868 0 0 1 0-.125 1.876 1.876 0 0 1-.058-.691 2.86 2.86 0 0 1 .091-.459c.056-.192.149-.37.275-.525.084-.1.159-.233.234-.325l.141-.183.267-.308.3-.325c.1-.109.2-.209.308-.309l.292-.25.317-.266.158-.117.208-.142.292-.183.117-.084.141-.083.125-.083.15-.1.092-.05.3-.15.425-.209h.092l.233-.083.217-.083.166-.058.284-.084h.05l.308-.075c.142 0 .283-.083.425-.108l.525-.084.617-.058h.733c.25 0 .392 0 .592.05h.616a.841.841 0 0 1 .125 0l.542.1a.384.384 0 0 1 .083 0l.317.075h.058l.367.117.192.067.266.1.184.075.441.191.175.1.234.125.158.084.258.15.117.075.092.066.283.2.175.117.175.133.233.192.234.208.208.192.192.192.166.175.159.166.2.233.125.159.233.3.2.291a6.666 6.666 0 0 1 .517.867c.083.167.183.375.266.558.084.184.15.342.217.517s.1.308.15.458c.05.15.1.325.142.492.041.167.058.275.083.408a8.827 8.827 0 0 1 .167 1.909c.003.14-.022.279-.075.408a.568.568 0 0 1-.242.283l-.183.084a.423.423 0 0 1-.142 0l-1.5.041-.042.025z" fill="#32A1BF"/>
    <path d="M148.544 100.553a134.64 134.64 0 0 1-.217 16.866 20.781 20.781 0 0 1-.883 2.992 23.831 23.831 0 0 1-4.683 7.566 45.036 45.036 0 0 0-4.692 6.225 31.752 31.752 0 0 0-3.283 6.942h12.808a3.745 3.745 0 0 0 2.441-1.308 3.66 3.66 0 0 0 .834-2.367v-42.1a10.368 10.368 0 0 0-2.325 5.184z" fill="#DADAF3"/>
    <path d="m158.677 146.044-2.224-1.333c-4.45 6.666-10.925 10.091-15 7.766-4.358-2.5-3.859-10.424.124-18.258a44.45 44.45 0 0 1 4.167-6.575 22.9 22.9 0 0 0 4.625-10.966 133.924 133.924 0 0 0-1.232-16.775 9.083 9.083 0 0 1 7.999-8.86s.041.61.15 1.668c0 .208.05.442.075.683v.117c.192 1.875.525 4.691 1.067 8.058 0 .15.049.309.074.459.042.283.093.575.143.833a125.955 125.955 0 0 0 4.391 18.333c1.534 4.8-3.134 17.817-4.359 24.85z" fill="url(#m)"/>
    <path d="M158.4 101.62a4.674 4.674 0 0 1-3.275-3.592l-.559-2.917a.964.964 0 0 1 .7-1.108l2.059-.567v.117c.2 1.883.534 4.7 1.075 8.067zM106.117 129.534l-.358 2.717a.965.965 0 0 1-1.008.833l-1.667-.075c.35-1.825.934-4.9 1.451-7.7a4.822 4.822 0 0 1 1.582 4.225z" fill="#FFDBCD"/>
    <path d="M161.025 183.335a8.924 8.924 0 0 0-2.3-.9l-5.275-1.258 5.283 1.25a8.924 8.924 0 0 1 2.3.9h-23.291l-7.7-20.225 6.758-2.025 4.583 1.917-4.583-1.917 27.325-8.233 19.25 30.491h-22.35z" fill="url(#n)"/>
    <defs>
        <linearGradient id="a" x1="93.384" y1="67.297" x2="93.384" y2="89.55" gradientUnits="userSpaceOnUse">
            <stop stop-color="#FBD1BE"/>
            <stop offset="1" stop-color="#F8A68F"/>
        </linearGradient>
        <linearGradient id="b" x1="91.559" y1="106.766" x2="91.559" y2="119.425" gradientUnits="userSpaceOnUse">
            <stop stop-color="#FBD1BE"/>
            <stop offset="1" stop-color="#F8A68F"/>
        </linearGradient>
        <linearGradient id="c" x1="94.368" y1="91.54" x2="94.368" y2="100.369" gradientUnits="userSpaceOnUse">
            <stop stop-color="#FBD1BE"/>
            <stop offset="1" stop-color="#F8A68F"/>
        </linearGradient>
        <linearGradient id="d" x1="58.97" y1="25.622" x2="58.97" y2="60.158" gradientUnits="userSpaceOnUse">
            <stop stop-color="#FBD1BE"/>
            <stop offset="1" stop-color="#F8A68F"/>
        </linearGradient>
        <linearGradient id="e" x1="67.439" y1="58.809" x2="67.439" y2="132.368" gradientUnits="userSpaceOnUse">
            <stop stop-color="#F9CC90"/>
            <stop offset="1" stop-color="#F1971D"/>
        </linearGradient>
        <linearGradient id="f" x1="49.145" y1="48.897" x2="49.145" y2="111.058" gradientUnits="userSpaceOnUse">
            <stop stop-color="#F8AC95"/>
            <stop offset="1" stop-color="#F8AB95"/>
        </linearGradient>
        <linearGradient id="g" x1="43.333" y1="18.766" x2="43.333" y2="49.258" gradientUnits="userSpaceOnUse">
            <stop stop-color="#319EBC"/>
            <stop offset=".966" stop-color="#5FC9E5"/>
            <stop offset="1" stop-color="#3A1E4C"/>
        </linearGradient>
        <linearGradient id="h" x1="106.653" y1="112.557" x2="106.653" y2="134.811" gradientUnits="userSpaceOnUse">
            <stop stop-color="#FBD1BE"/>
            <stop offset="1" stop-color="#F8A68F"/>
        </linearGradient>
        <linearGradient id="i" x1="108.449" y1="82.642" x2="108.449" y2="95.3" gradientUnits="userSpaceOnUse">
            <stop stop-color="#FBD1BE"/>
            <stop offset="1" stop-color="#F8A68F"/>
        </linearGradient>
        <linearGradient id="j" x1="105.638" y1="101.701" x2="105.638" y2="110.53" gradientUnits="userSpaceOnUse">
            <stop stop-color="#FBD1BE"/>
            <stop offset="1" stop-color="#F8A68F"/>
        </linearGradient>
        <linearGradient id="k" x1="141.03" y1="141.943" x2="141.03" y2="176.488" gradientUnits="userSpaceOnUse">
            <stop stop-color="#FBD1BE"/>
            <stop offset="1" stop-color="#F8A68F"/>
        </linearGradient>
        <linearGradient id="l" x1="132.555" y1="69.743" x2="132.555" y2="143.301" gradientUnits="userSpaceOnUse">
            <stop stop-color="#F9CC90"/>
            <stop offset="1" stop-color="#F1971D"/>
        </linearGradient>
        <linearGradient id="m" x1="150.863" y1="91.044" x2="150.863" y2="153.205" gradientUnits="userSpaceOnUse">
            <stop stop-color="#FBD1BE"/>
            <stop offset="1" stop-color="#FACAB6"/>
        </linearGradient>
        <linearGradient id="n" x1="156.708" y1="152.844" x2="156.708" y2="183.335" gradientUnits="userSpaceOnUse">
            <stop stop-color="#4C39BD"/>
            <stop offset="1" stop-color="#1D1164"/>
        </linearGradient>
    </defs>
</svg>
