<svg width="200" height="200" fill="none" xmlns="http://www.w3.org/2000/svg">
    <path d="M25.13 78.342c1.341-9.366 9.883-8.766 13.783-16.441 4.217-8.284-1.95-22.75 4.783-29.709 8.967-9.266 28.1 2.634 39.742 1.792 6.583-.475 12.225 5.092 18.642 6.625a39.71 39.71 0 0 0 13.791.834 36.947 36.947 0 0 1 9.459-.667 17.062 17.062 0 0 1 9.925 5.833c11.225 12.45 8.017 32.225 15.3 47.325a36.396 36.396 0 0 0 8.808 11.508c4.625 4.042 10.217 6.859 14.859 10.884a37.501 37.501 0 0 1 12.75 28.183 22.916 22.916 0 0 1-2.601 11.159 28.333 28.333 0 0 1-9.166 8.933c-14.684 10-35.833 23.9-49.833 16.783-5.284-2.683-6.584-10.192-10.367-15a30.64 30.64 0 0 0-23.117-9.733c-8.617-.392-17.267.975-25.833.233a16.179 16.179 0 0 1-13.067-6.3 22.043 22.043 0 0 1 .358-16.192 26.33 26.33 0 0 0-2.858-22.641c-4.067-4.95-27.5-18.442-25.358-33.409z" fill="#FAF4EC"/>
    <path d="M61.896 60.72c14.292 8.674 23.692 16.608 24.075 16.008a61.325 61.325 0 0 0-19.592-17.5C58.046 53.653 49.421 47.86 52.454 42.46c2.884-5.125 18.067 4.875 29.025 10a80.528 80.528 0 0 1 43.884 38.167l16.625-4.217c5.216 15.384 10.933 28.109 16.141 43.492a152.816 152.816 0 0 0 15.667 24.458c-7.267 14.9-23.617 17.692-34.65 25.633a98.027 98.027 0 0 0-12.992-24.741c-1.758-.567-4.666-2.5-6.425-3.059-16.975-12.233-19.025-18.549-32.025-30.933a246.324 246.324 0 0 1-32.591-22.125c-8.05-7.167-12.1-11.617-10.767-15.517 2.025-5.95 25 12 28.833 14.6-14.708-9.908-33.266-22.966-30.241-28.183 4.3-7.4 25.833 12.242 33.125 14.308a266.956 266.956 0 0 1-22.5-14.8c-4.567-3.091-13.334-9.791-11.292-13.908 2.492-5.05 11.317.083 19.625 5.083z" fill="url(#a)"/>
    <path d="m62.696 105.004 2.8-26.733c-1.45-.959-2.134-1.425-3.634-2.4l-3 26.275c1.3.991 2.175 1.675 3.834 2.858zM61.93 75.344c1.417.992 2.117 1.467 3.617 2.5l1.45-13.883c-1.417-.908-2.042-1.317-3.575-2.258L61.93 75.344zM63.83 57.47c1.109.758 1.417 1.032 2.542 1.782l1.042.7 1.459-13.916c-1.525-.775-1.584-.834-3.017-1.517l-2.025 12.95zM81.505 52.444c-3.575-1.667-7.6-3.842-11.5-5.834L68.538 60.72a56.77 56.77 0 0 1 17.459 16.058c-.325.508-7.117-5.108-17.867-12.108l-1.442 13.916a82.891 82.891 0 0 0 9.4 5.734 44.465 44.465 0 0 1-9.441-5.317l-2.784 26.817a211.412 211.412 0 0 0 23.867 15.417c8.242 7.85 10.892 12.05 16.925 18.075l4.308.466a7.662 7.662 0 0 0 6.984-7.267l4.766-50.1a84.624 84.624 0 0 0-39.208-29.966z" fill="#FCAC91"/>
    <path d="M133.396 158.785a.092.092 0 0 1-.05-.037.1.1 0 0 1-.021-.06c0-.021.008-.041.021-.059a.096.096 0 0 1 .05-.036 45.457 45.457 0 0 0 21.925-19.892.119.119 0 0 1 .033-.022.099.099 0 0 1 .038-.007.1.1 0 0 1 .039.007.119.119 0 0 1 .033.022c.009.01.016.021.021.033a.096.096 0 0 1 0 .076.115.115 0 0 1-.021.033 45.65 45.65 0 0 1-22.026 20l-.042-.058z" fill="#F28F8F"/>
    <path d="M134.83 162.862a.098.098 0 0 1-.071-.03.096.096 0 0 1-.03-.07c0-.026.011-.052.03-.071a.098.098 0 0 1 .071-.03 46.192 46.192 0 0 0 12.899-8.333 58.38 58.38 0 0 0 10.417-13.824.094.094 0 0 1 .07-.03.1.1 0 0 1 .039.007.104.104 0 0 1 .062.093.1.1 0 0 1-.008.038.093.093 0 0 1-.021.033 58.589 58.589 0 0 1-10.459 13.875 46.425 46.425 0 0 1-12.958 8.334l-.041.008zM146.945 135.043a19.029 19.029 0 0 1-10.375-3.25.117.117 0 0 1-.025-.128.114.114 0 0 1 .025-.039.124.124 0 0 1 .084-.034.117.117 0 0 1 .083.034 18.261 18.261 0 0 0 13.267 2.934 17.384 17.384 0 0 0 7.75-3.617.118.118 0 0 1 .166.017.117.117 0 0 1-.016.167 17.62 17.62 0 0 1-7.858 3.666 16.963 16.963 0 0 1-3.101.25zM121.622 120.019a.119.119 0 0 1-.083 0 18.192 18.192 0 0 1-5-15.309.114.114 0 0 1 .116-.116c.031 0 .061.012.083.034a.115.115 0 0 1 .034.082 17.933 17.933 0 0 0 .707 8.141 17.937 17.937 0 0 0 4.243 6.985c.011.011.02.023.026.037a.125.125 0 0 1 .009.046.113.113 0 0 1-.009.045.127.127 0 0 1-.026.039.124.124 0 0 1-.048.019.114.114 0 0 1-.052-.003zM53.322 67.47a.117.117 0 0 1-.076-.208 12.408 12.408 0 0 0 4.35-7 .117.117 0 0 1 .047-.086.115.115 0 0 1 .14 0c.014.01.025.024.033.039a.114.114 0 0 1 .006.097 12.634 12.634 0 0 1-4.425 7.133.116.116 0 0 1-.075.025zM52.97 81.469a.119.119 0 0 1-.05-.01.117.117 0 0 1-.04-.032.116.116 0 0 1 0-.166 12.4 12.4 0 0 0 4.35-7 .117.117 0 0 1 .225.05 12.642 12.642 0 0 1-4.426 7.133.116.116 0 0 1-.058.025zM52.97 95.596a.12.12 0 0 1-.09-.042.117.117 0 0 1 0-.167 12.399 12.399 0 0 0 4.35-7 .117.117 0 0 1 .133-.07.117.117 0 0 1 .09.12 12.642 12.642 0 0 1-4.424 7.134.115.115 0 0 1-.058.025z" fill="#FCAC91"/>
    <path d="M120.212 79.495a81.467 81.467 0 0 0-14.067-15.834 53.017 53.017 0 0 1-4.741-4.066 34.733 34.733 0 0 0 2.366 3.874 64.996 64.996 0 0 1 16.667 21.25l-.225-5.224z" fill="#F28F8F"/>
    <path d="m64.389 57.913.192-1.617a57.57 57.57 0 0 1-8.784-6.242 10.943 10.943 0 0 1-3.958-5.617c-.325 4.392 5.883 8.992 12.55 13.476zM55.095 99.104c1.025.916 2.667 2.216 4.692 3.741.125-.7 0-.666.108-1.366a69.614 69.614 0 0 1-11.5-9.834 14.384 14.384 0 0 1-4.167-7.758c-1.025 3.833 3.026 8.234 10.867 15.217z" fill="#FCAC91"/>
    <path d="M53.587 69.512c1.2.833 4.842 3.416 8.942 6.25l.191-1.742a65.114 65.114 0 0 1-14.941-10.2c-5.784-5.3-5.484-8.225-5.484-8.225-2.041 4.125 6.726 10.825 11.292 13.917zM62.354 77.313l.116-1.05a58.708 58.708 0 0 0-14-7.55 103.886 103.886 0 0 1 13.884 8.6z" fill="#FBAC91"/>
    <path d="M61.264 90.788v-3.142a60.227 60.227 0 0 1-11.475-8.25c-3.474-3.158-6.191-5.191-6.808-9.45l-.058.092c-2.075 3.567 5.966 10.833 15.966 18.208a55.76 55.76 0 0 0-9.441-5.108 135.254 135.254 0 0 1 11.816 7.65z" fill="#FCAC91"/>
    <path d="m64.507 133.05 42.008 3.65a7.04 7.04 0 0 0 6.785-3.896 7.017 7.017 0 0 0 .715-2.654l8.067-92.733a7.035 7.035 0 0 0-6.234-7.742l-40.466-3.517c-5.525-.483-7.067 2.5-7.5 6.425l-9.6 92.625a6.97 6.97 0 0 0 3.575 7.024c.82.447 1.72.725 2.65.818z" fill="#EFF1F9"/>
    <path d="M107.08 136.752h-.583l-42.008-3.65a7.1 7.1 0 0 1-4.868-2.7 6.999 6.999 0 0 1-1.408-5.234l9.609-92.591c.341-3.334 1.508-7.009 7.5-6.475l40.466 3.516a7.098 7.098 0 0 1 6.292 7.808l-8.066 92.734a7.134 7.134 0 0 1-6.934 6.592zm-42.575-3.792 42.008 3.65a6.985 6.985 0 0 0 7.417-6.5l8.067-92.733a6.981 6.981 0 0 0-6.183-7.684l-40.467-3.516c-5.925-.517-7.067 3.133-7.4 6.375l-9.609 92.6a6.89 6.89 0 0 0 1.384 5.15 6.99 6.99 0 0 0 4.791 2.658h-.008z" fill="#4E62BD"/>
    <path d="m65.497 131.602 41.308 3.592a6.924 6.924 0 0 0 7.359-6.458l7.949-91.434a6.923 6.923 0 0 0-6.133-7.633l-39.791-3.458a6.5 6.5 0 0 0-7.342 6.341l-9.442 91.292a6.936 6.936 0 0 0 6.092 7.758z" fill="url(#b)"/>
    <path d="m115.639 32.144-39.85-3.55a3.384 3.384 0 0 0-3.666 3.017l-8.842 85.442 48.258 4.549 7.75-85.1a4.017 4.017 0 0 0-3.65-4.358z" fill="#fff"/>
    <path d="M86.996 129.629a3.842 3.842 0 1 0-1.244-7.583 3.842 3.842 0 0 0 1.244 7.583z" fill="#EFF1F9"/>
    <path d="M84.987 130.368a4.738 4.738 0 0 1-3.338-4.529 4.742 4.742 0 0 1 3.338-4.529v.108a4.626 4.626 0 0 0 0 8.833v.117z" fill="#EFF1F9"/>
    <path d="M102.798 35.6 88.04 34.283a.117.117 0 0 1 0-.233l14.758 1.317c.031 0 .061.012.083.034a.12.12 0 0 1 .034.082.12.12 0 0 1-.034.083.118.118 0 0 1-.083.034zM106.09 37.742l-21.85-1.941a.117.117 0 0 1 0-.234l21.85 1.942a.116.116 0 0 1 .116.117.116.116 0 0 1-.116.117z" fill="#4E62BD"/>
    <path d="M141.98 86.383c-1.867-4.033-15-19.4-22.258-29.283-1.667-2.275-5.55-3.4-8.675-6.35a43.51 43.51 0 0 1-7.742-9.758c-7.275 2.941-5.791 13.583.467 22.45 15.833 13.833 20.433 27.675 19.167 33.616" fill="url(#c)"/>
    <path d="M109.546 51.549a6.341 6.341 0 0 1-4.167-2.067 17.75 17.75 0 0 1-4.459-6.858.117.117 0 1 1 .226-.067 17.494 17.494 0 0 0 4.391 6.758c2.05 1.917 3.892 2.45 5.634 1.667a.115.115 0 0 1 .14.061.12.12 0 0 1 .008.081.118.118 0 0 1-.049.067c-.541.247-1.13.369-1.724.358z" fill="#F28F8F"/>
    <path d="M128.706 92.481a13.451 13.451 0 0 1-9.1-4.633.118.118 0 0 1 .167-.166 11.98 11.98 0 0 0 10.833 4.358.115.115 0 0 1 .098.005.126.126 0 0 1 .059.078.142.142 0 0 1 0 .05.121.121 0 0 1-.058.078.123.123 0 0 1-.049.014 9.613 9.613 0 0 1-1.95.216z" fill="#FCAC91"/>
    <path d="M106.931 65.693c-.32 0-.64-.017-.959-.05a.117.117 0 0 1-.117-.117.117.117 0 0 1 .117-.117 9.277 9.277 0 0 0 4.109-.516 9.172 9.172 0 0 0 2.566-1.458.12.12 0 0 1 .167.017c.02.024.03.055.026.086a.115.115 0 0 1-.043.08 9.347 9.347 0 0 1-2.633 1.492 9.456 9.456 0 0 1-3.233.583z" fill="#F28F8F"/>
    <path d="M101.237 42.217a14.433 14.433 0 0 0 7.35 8.75 3.66 3.66 0 0 0 2.459-.217 81.512 81.512 0 0 1-7.742-9.758 5 5 0 0 0-2.067 1.225z" fill="#fff"/>
    <path d="M120.204 79.491a81.434 81.434 0 0 0-14.067-15.833 53.017 53.017 0 0 1-4.741-4.067 34.741 34.741 0 0 0 2.367 3.875 64.993 64.993 0 0 1 16.666 21.25l-.225-5.225z" fill="#FBAC91"/>
    <path d="M43.58 112.176a1.891 1.891 0 0 1-1.464.797 1.897 1.897 0 0 1-1.528-.663 1.905 1.905 0 0 0-1.825 1.983c.066 1.434 3.567 3.734 3.567 3.734s3.333-2.592 3.233-4.026a1.909 1.909 0 0 0-1.983-1.825zM102.979 22.376l-.617-1.708c.274-.339.444-.75.492-1.183a2.873 2.873 0 0 0-2.835-3.534 2.875 2.875 0 0 0-.266 5.734 3.122 3.122 0 0 0 1.567-.234l1.659.925zM34.287 39.486a3.274 3.274 0 1 0 .117 6.547 3.274 3.274 0 0 0-.117-6.547zm.967 1.85a.408.408 0 1 1-.4.417.409.409 0 0 1 .4-.425v.008zm-1.842 0a.409.409 0 1 1-.4.417.408.408 0 0 1 .4-.383v-.034zm.975 3.15a1.766 1.766 0 0 1-1.809-1.733h3.55a1.707 1.707 0 0 1-1.741 1.767v-.034zM150.764 56.47a3.1 3.1 0 1 0 .058 6.2h.059a3.1 3.1 0 1 0-.059-6.2h-.058zm.058 4.808a1.957 1.957 0 0 1-1.758-1.092.168.168 0 0 1-.016-.066.173.173 0 0 1 .165-.184.175.175 0 0 1 .167.1 1.619 1.619 0 0 0 1.475.892 1.583 1.583 0 0 0 1.459-.941.17.17 0 0 1 .095-.096.173.173 0 0 1 .191.038.173.173 0 0 1 .038.191 1.928 1.928 0 0 1-1.775 1.158h-.041zm-.933-2.917a.233.233 0 1 0 0 .467.233.233 0 0 0 0-.467zm1.85-.033a.237.237 0 0 0-.169.071.238.238 0 0 0 .083.383.232.232 0 0 0 .252-.054.231.231 0 0 0 .067-.167.237.237 0 0 0-.018-.09.239.239 0 0 0-.131-.128.243.243 0 0 0-.093-.015h.009zm-1.842 0a.234.234 0 0 0-.165.398.234.234 0 0 0 .33 0 .236.236 0 0 0 0-.33.234.234 0 0 0-.165-.068zm1.842 0a.237.237 0 0 0-.169.071.238.238 0 0 0 .083.383.232.232 0 0 0 .252-.054.231.231 0 0 0 .067-.167.237.237 0 0 0-.018-.09.239.239 0 0 0-.131-.128.243.243 0 0 0-.093-.015h.009zm-1.842 0a.234.234 0 0 0-.165.398.234.234 0 0 0 .33 0 .236.236 0 0 0 0-.33.234.234 0 0 0-.165-.068zm1.842 0a.237.237 0 0 0-.169.071.238.238 0 0 0 .083.383.232.232 0 0 0 .252-.054.231.231 0 0 0 .067-.167.237.237 0 0 0-.018-.09.239.239 0 0 0-.131-.128.243.243 0 0 0-.093-.015h.009z" fill="#221669"/>
    <path d="M149.898 58.244a.346.346 0 0 0-.318.223.343.343 0 0 0 .082.377.349.349 0 0 0 .594-.25.35.35 0 0 0-.35-.35h-.008zM151.728 58.212a.35.35 0 1 0 .111.684.349.349 0 0 0 .242-.372.35.35 0 0 0-.353-.313z" fill="#fff"/>
    <path d="M90.822 90.793h-.367l-.492-.05c-.113.01-.227.01-.341 0a6.821 6.821 0 0 1-.775-.116c-.217-.059-.442-.084-.667-.125a.39.39 0 0 1-.1 0l-.483-.217-.408-.142-.317-.1h-.133l-.417-.158-.267-.117-.525-.233c-.175-.083-.275-.142-.416-.217-.142-.075-.234-.108-.342-.175l-.217-.125-.225-.158a.091.091 0 0 1-.075 0c-.158-.092-.316-.183-.466-.292-.15-.108-.217-.175-.342-.25l-.267-.175-.258-.2c-.084-.066-.233-.183-.342-.283l-.275-.25c-.092-.083-.133-.117-.2-.175l-.433-.425-.292-.292-.242-.275-.2-.233-.341-.417a9.017 9.017 0 0 1-.392-.533c-.133-.192-.183-.25-.266-.383l-.275-.434a6.299 6.299 0 0 1-.209-.366l-.317-.584c-.1-.191-.158-.325-.233-.491a15.091 15.091 0 0 1-.267-.659c-.083-.216-.116-.291-.175-.441-.058-.15-.075-.25-.116-.375l-.125-.409-.05-.175c0-.15-.075-.308-.108-.458-.034-.15-.1-.45-.134-.683-.033-.234-.05-.309-.067-.459-.016-.15-.05-.433-.075-.658v-.217c0-.325 0-.641-.041-.958a3.82 3.82 0 0 1 .05-.658.967.967 0 0 1 .275-.542c.117-.104.253-.186.4-.242a2.55 2.55 0 0 1 .958-.1h.833l2.217-.05a.834.834 0 0 1 .5.125c.092.059.2.109.292.175.072.061.137.131.191.209.2.256.303.575.292.9a5.331 5.331 0 0 0 0 .533c0 .25.05.508.092.758.041.25.067.392.108.584.04.183.09.364.15.541a12.015 12.015 0 0 0 .533 1.233c.092.184.192.342.3.526.093.148.196.29.309.425l.317.408c.077.094.16.183.25.267l.391.4.192.175.291.233.467.342c.159.116.308.183.467.275l.208.116.25.117.217.1.341.158c.071.03.143.055.217.075l.167.05.508.15c.148.039.299.07.45.092l.417.058c.357.066.72.094 1.083.084.229-.01.457-.032.683-.067h.217l.367-.067.45-.083h.15l.525-.167.283-.108.317-.133.233-.109c.183-.1.375-.183.55-.291.118-.078.232-.161.342-.25l.258-.175.375-.3.209-.184.316-.316.209-.225c.066-.075.158-.184.233-.275l.275-.342c.083-.108.2-.342.325-.492.104-.166.224-.323.358-.466.16-.133.34-.237.534-.309.18-.068.367-.112.558-.133.275-.045.554-.065.833-.058.096.006.191.023.283.05.165.021.327.06.484.116.141.075.3.109.45.167.07.032.137.071.2.117l.3.216c.119.094.233.194.341.3.092.09.175.188.25.292.161.208.29.438.384.683.075.2.133.407.175.617.019.227.019.456 0 .683a2.355 2.355 0 0 1-.067.509c-.045.179-.103.354-.175.525a3.03 3.03 0 0 1-.4.675l-.508.658c-.084.108-.175.2-.267.3l-.225.25-.325.342-.258.175-.225.216-.342.317-.175.15-.192.15-.433.342-.408.308a3.374 3.374 0 0 1-.292.175l-.175.117-.217.125-.175.108-.241.158-.117.059c-.2.075-.367.216-.575.275a1.971 1.971 0 0 0-.283.15l-.4.166-.342.125c-.21.1-.431.178-.658.234-.125 0-.25.083-.375.125l-.383.108-.3.075-.6.125-.342.075h-.133l-.834.075-.833.075-.85.008z" fill="#EB840B"/>
    <path d="M101.681 78.685h-1.617a.683.683 0 0 1-.433-.125c-.075-.058-.175-.1-.25-.158a1.224 1.224 0 0 1-.217-.233 2.595 2.595 0 0 1-.166-.309c-.066-.14-.1-.294-.1-.45v-.066a6.998 6.998 0 0 0-.042-.967c0-.25-.075-.5-.125-.742-.05-.241-.075-.341-.117-.525a4.198 4.198 0 0 0-.158-.483c-.092-.233-.184-.467-.284-.683a5.587 5.587 0 0 0-.291-.542 10.506 10.506 0 0 0-.417-.642 6.232 6.232 0 0 0-.433-.525 6.411 6.411 0 0 0-.467-.491l-.491-.442a3.508 3.508 0 0 0-.534-.392 3.278 3.278 0 0 1-.341-.25l-.1-.041-.475-.25a4.495 4.495 0 0 0-.425-.2c-.167-.067-.342-.109-.509-.167l-.383-.125-.233-.058a2.025 2.025 0 0 0-.534-.109h-.341c-.3 0-.609-.05-.9-.05-.292 0-.509 0-.759.05l-.617.059-.191.058-.533.133h-.075l-.392.125h-.05l-.417.175-.4.2-.342.175-.216.134-.325.216-.15.109-.317.25c-.1.083-.15.133-.216.2l-.342.341c-.109.117-.234.242-.342.375-.108.134-.183.25-.275.384l-.208.291c-.125.184-.234.367-.367.542-.133.175-.191.192-.275.292a1.199 1.199 0 0 1-.383.216c-.14.059-.285.101-.433.125-.129.036-.26.06-.392.075a2.81 2.81 0 0 1-1.175-.025l-.475-.125a1.423 1.423 0 0 1-.25-.108c-.167-.092-.342-.183-.5-.292a2.069 2.069 0 0 1-.275-.25 2.293 2.293 0 0 1-.258-.275 5.764 5.764 0 0 1-.376-.558 3.27 3.27 0 0 1-.191-.433 1.2 1.2 0 0 1-.05-.184 2.818 2.818 0 0 1-.092-1.033c.029-.231.076-.46.142-.683.081-.289.22-.558.408-.792.134-.158.234-.342.342-.492l.216-.275c.134-.158.259-.316.4-.466l.45-.484c.159-.158.3-.316.467-.458l.434-.375.466-.392c.075-.058.159-.116.234-.175l.308-.216.466-.267.175-.117.209-.116.183-.125.225-.15c.043-.025.088-.047.133-.067l.45-.225.642-.317.133-.041.342-.125.325-.134.25-.083.417-.117h.075l.466-.116h.059c.216-.059.425-.117.642-.159a13.277 13.277 0 0 1 1.716-.208c.308-.017.725-.05 1.092-.042.367.009.591 0 .883.067h.125l.834.058c.063-.004.127-.004.191 0l.834.159a.568.568 0 0 1 .124 0l.475.108h.092l.542.175.291.1.4.15.267.117.667.283c.092 0 .175.1.258.142l.342.183.242.125.391.225.175.117.133.133.417.292.259.175.258.2.341.283.342.308.308.284.292.291.25.259.233.25.292.341.192.234.341.45c.117.158.2.291.3.441.1.15.25.375.367.567.117.192.275.475.4.717.125.241.275.558.4.833.125.275.217.517.317.775s.15.458.225.683c.075.225.15.492.216.734.067.241.092.408.125.616.034.209.1.55.134.834.088.674.125 1.353.108 2.033a1.49 1.49 0 0 1-.108.608.831.831 0 0 1-.359.425l-.275.125a.591.591 0 0 1-.208.059l-2.242.066-.016-.025z" fill="#32A1BF"/>
    <defs>
        <linearGradient id="a" x1="107.882" y1="41.04" x2="107.882" y2="179.994" gradientUnits="userSpaceOnUse">
            <stop stop-color="#FCD2BF"/>
            <stop offset="1" stop-color="#F8A68F"/>
        </linearGradient>
        <linearGradient id="b" x1="90.752" y1="26.156" x2="90.752" y2="135.208" gradientUnits="userSpaceOnUse">
            <stop stop-color="#F8C886"/>
            <stop offset="1" stop-color="#F49B22"/>
        </linearGradient>
        <linearGradient id="c" x1="120.209" y1="40.992" x2="120.209" y2="97.058" gradientUnits="userSpaceOnUse">
            <stop stop-color="#FCD2BF"/>
            <stop offset="1" stop-color="#FAC0AC"/>
        </linearGradient>
    </defs>
</svg>
