<svg width="200" height="200" fill="none" xmlns="http://www.w3.org/2000/svg">
    <path d="M128.46 76.779s70.695 22.975 21.881 57.902c-48.813 34.927-84.8 36.877-107.765-3.236-22.964-40.113 16.166-54.654 33.3-77.068 17.133-22.413 65.202-21.906 52.584 22.402z" fill="#FAF4EC"/>
    <path d="M163.495 102.445H36.512a57.206 57.206 0 0 0-19.842 41.584h166.667a57.204 57.204 0 0 0-19.842-41.584z" fill="url(#a)"/>
    <path d="M32.394 96.978s20.5 19.334 70.666 16.809c50.167-2.525 63.233-10.119 63.233-14.169 0-5.35-77.35-4.508-98.525-1.483-21.175 3.025-31.541-4.99-35.374-1.157z" fill="#F49D27"/>
    <path d="M151.578 108.801a319.95 319.95 0 0 1-48.517 5.001 155.396 155.396 0 0 1-54.05-5.351l-.326-.108h.25c17.793.384 14.276-1.808 38.743-2.166a600.536 600.536 0 0 1 63.9 2.624z" fill="#B75742"/>
    <path d="M67.292 64.893a168.33 168.33 0 0 0 59.865 27.021l-6.167 27.953a194.624 194.624 0 0 1-69.241-31.23l15.543-23.744z" fill="#3C8F7C"/>
    <path d="m124.556 96.794-3.986 17.447a4.082 4.082 0 0 0-5.029 2.74A193.24 193.24 0 0 1 57.49 90.799a4.342 4.342 0 0 0-1.491-5.682l9.585-14.897a3.625 3.625 0 0 0 5.221-1.09 169.686 169.686 0 0 0 50.962 23 3.852 3.852 0 0 0 1.434 4.022c.405.301.865.52 1.355.642z" fill="#96D9C9"/>
    <path d="M79.708 89.865a9.875 9.875 0 0 1 13.04-4.48 10.542 10.542 0 0 1 5.515 13.002 9.528 9.528 0 0 1-9.422 6.033 9.529 9.529 0 0 1-3.816-1.045 10.147 10.147 0 0 1-5.317-13.51zM101.212 98.975c4.81 1.809 9.696 3.411 14.658 4.806l-.716 2.675a200.188 200.188 0 0 1-14.861-4.872l.919-2.61zM64.32 80.062a178.717 178.717 0 0 0 13.3 8.035l-1.25 2.454a178.716 178.716 0 0 1-13.489-8.147l1.439-2.342z" fill="#50BFA5"/>
    <path d="m91.496 99.782-.26.15-.152.088-.18.104-.152.087c-.1.048-.203.086-.31.112l-.16.092-.224-.072-.122.071-.308.033-.195.045-.058.034-.359-.005-.382.038-.449-.011-.172-.015-.233-.02a.855.855 0 0 1-.174-.034 3.287 3.287 0 0 1-.37-.057 3.446 3.446 0 0 1-.307-.033l-.235-.057-.28-.069-.131-.06-.061-.022-.199-.078-.126-.052-.257-.111-.21-.13-.149-.058-.107-.053-.095-.08c-.119-.057-.2-.097-.266-.145-.067-.048-.106-.083-.164-.117l-.129-.09-.125-.1c-.025-.043-.11-.09-.165-.136l-.134-.115-.062-.108-.243-.187-.14-.141-.087-.152-.07-.123-.22-.162-.158-.274c-.054-.094-.125-.1-.163-.166l-.12-.21-.105-.18-.154-.267-.129-.223a.832.832 0 0 1-.123-.314c-.011-.119-.075-.13-.113-.195-.037-.065.017-.154-.01-.216l-.052-.19-.041-.073-.04-.236c-.022-.104-.047-.214-.065-.329l-.028-.215-.038-.315-.002-.104a2.476 2.476 0 0 0-.046-.445c.008-.111.025-.22.052-.328a.458.458 0 0 1 .13-.258.635.635 0 0 1 .195-.113c.146-.045.3-.061.452-.05.138-.011.269 0 .403-.001l1.056-.022a.417.417 0 0 1 .239.063c.025.044.096.05.135.086.03.02.056.044.08.07.107.127.164.29.157.457a2.427 2.427 0 0 0-.002.261c.023.14.028.234.043.36.016.126.03.185.054.277.019.087.043.173.072.257.032.106.08.223.132.328.05.105.095.166.145.252l.142.246c.037.075.079.147.125.216l.125.217c.025.05.053.098.083.144l.245.157.058.101.141.111.26.149c.106.035.14.092.216.125l.1.058.12.056.103.046.162.08.106.034.08.022.243.071.22.047.2.029c.169.031.341.045.513.04.11-.006.219-.017.327-.035l.08-.046.173-.032.254.007.058-.033.254-.06.122-.071.145-.084.36-.208.174-.1.13-.075.194-.113.109-.062.171-.186.102-.107.108-.13.129-.16c.05-.03.098-.163.154-.233.05-.08.106-.155.17-.223a1.055 1.055 0 0 1 .521-.214 2.18 2.18 0 0 1 .409-.025l.135.018c.078.012.154.032.228.06.07.038.145.052.217.077a.521.521 0 0 1 .094.062l.144.1c.056.046.11.095.162.147.033.048.062.098.087.151.078.099.141.208.188.325.036.097.064.196.085.297.014.109.019.218.016.328a1.16 1.16 0 0 1-.035.24c-.022.087-.05.17-.085.252l-.1.193-.069.116-.242.313-.13.143-.105.118-.154.166-.137.08-.123.07-.162.152-.094.054-.101.058-.224.13-.21.12-.605.35.1.173zm3.055-5.074-.086.05-1.07.03-.77.002a.325.325 0 0 1-.208-.062c-.021-.036-.085-.047-.12-.075a.551.551 0 0 1-.075-.13 1.239 1.239 0 0 1-.084-.144.515.515 0 0 1-.046-.214 3.282 3.282 0 0 0-.057-.516 3.565 3.565 0 0 0-.03-.367l-.125-.217a1.966 1.966 0 0 0-.041-.255c-.058-.101-.117-.202-.132-.328a2.85 2.85 0 0 0-.15-.26c-.062-.108-.12-.21-.183-.317a3.222 3.222 0 0 0-.204-.22 3.24 3.24 0 0 0-.236-.258l-.236-.21a1.619 1.619 0 0 0-.261-.186 1.523 1.523 0 0 1-.164-.117l-.267-.145-.207-.092-.24-.082-.179-.06-.114-.031a.942.942 0 0 0-.28-.05l-.165-.02c-.138-.007-.285-.028-.41-.043-.123-.015-.258.034-.377.045l-.3.03-.08.045-.27.05-.224.062-.188.108-.476.275-.159.092-.079.046-.155.099-.122.07-.15.192-.168.175-.135.183-.092.14-.175.265c-.038.05-.091.091-.133.135a.567.567 0 0 1-.18.104.834.834 0 0 1-.218.058l-.172.051c-.174.022-.351.01-.521-.036l-.228-.06-.126-.053c-.078-.051-.159-.091-.249-.164a.989.989 0 0 1-.245-.225 2.807 2.807 0 0 1-.158-.274 1.517 1.517 0 0 1-.093-.177.55.55 0 0 1-.046-.08 1.344 1.344 0 0 1-.035-.528c.009-.114.027-.228.054-.339.043-.134.111-.259.202-.367.063-.074.117-.164.165-.23l.075-.12.222-.234.214-.23.23-.218.2-.184.229-.19.115-.066.125-.15.664-.383.21-.12.296-.171.057-.034.152-.087.144-.083.108-.063.27.066.285-.088.302-.078.381-.056.445-.046c.175-.014.354-.021.525-.024.172-.003.275.043.418.057l.043-.025.383.03.094.013.39.073.056.016.224.053.32.123.141.044.195.07.116.068.318.134s.085.047.123.063l.166.088.112.06.185.105.082.058.038.065.242.12.139.074.121.093.165.136.162.147.143.148.14.141.083.145.08.137.107.187.071.123.134.231.129.224.162.281.196.34.22.382c.072.123.134.23.158.371.023.14.069.22.106.334.036.113.217.143.255.276.038.132.045.195.062.29l.035.394c.035.313.046.628.034.943a.7.7 0 0 1-.053.29.408.408 0 0 1-.17.205l-.1.077z" fill="#3BB195"/>
    <path d="M67.987 90.794a154.245 154.245 0 0 0 62.924-.813l4.632 28.022a178.328 178.328 0 0 1-72.772.956l5.216-28.165z" fill="#3C8F7C"/>
    <path d="m130.377 95.554 2.726 17.537a4.299 4.299 0 0 0-3.471 4.621 176.99 176.99 0 0 1-60.981.778 4.066 4.066 0 0 0-3.367-4.532l3.124-17.604a3.691 3.691 0 0 0 4.232-3.203 155.454 155.454 0 0 0 53.571-.696 3.495 3.495 0 0 0 1.396 2.474 3.49 3.49 0 0 0 2.77.625z" fill="#96D9C9"/>
    <path d="M88.058 108.207a10.242 10.242 0 0 1 9.92-9.567 9.702 9.702 0 0 1 9.593 9.482 9.883 9.883 0 0 1-2.829 7.172 9.91 9.91 0 0 1-7.117 2.968 9.405 9.405 0 0 1-7.003-2.916 9.39 9.39 0 0 1-2.564-7.139zM110.414 107.415c4.93-.395 9.857-1.017 14.781-1.865l.312 2.774a174.14 174.14 0 0 1-14.965 1.847l-.128-2.756zM70.835 105.844a170.63 170.63 0 0 0 14.693 1.697l-.227 2.758c-4.981-.35-9.946-.922-14.895-1.715l.43-2.74z" fill="#50BFA5"/>
    <path d="m100.854 114.252-.26.15-.151.088-.181.104-.151.087a1.58 1.58 0 0 1-.31.112l-.16.092-.224-.073-.123.071-.308.034-.195.045-.058.033-.358-.004-.383.038-.448-.011-.173-.016-.233-.019a.795.795 0 0 1-.174-.035 3.07 3.07 0 0 1-.369-.056 3.887 3.887 0 0 1-.308-.034l-.235-.056-.28-.069-.13-.06-.062-.022-.199-.078-.126-.052-.257-.112-.21-.129-.148-.058-.108-.053-.094-.081c-.12-.056-.2-.096-.267-.144-.066-.049-.106-.083-.164-.117l-.128-.09-.126-.1c-.025-.044-.11-.091-.165-.136l-.133-.115-.063-.109-.243-.187-.139-.141-.087-.151-.071-.123-.219-.162-.158-.274c-.054-.094-.126-.101-.163-.166l-.121-.209-.104-.181-.154-.267-.13-.224c-.041-.072-.112-.194-.123-.313-.01-.119-.075-.13-.113-.195-.037-.065.017-.154-.009-.216l-.052-.191-.042-.072-.04-.237c-.021-.103-.047-.214-.065-.328l-.028-.215-.037-.315-.003-.105a2.471 2.471 0 0 0-.045-.445c.007-.11.024-.22.051-.328a.461.461 0 0 1 .13-.258.637.637 0 0 1 .195-.112c.147-.045.3-.062.453-.05.137-.012.268-.001.403-.002l1.055-.022a.42.42 0 0 1 .24.064c.024.044.095.05.135.085a.522.522 0 0 1 .079.07.67.67 0 0 1 .158.458 2.418 2.418 0 0 0-.003.261c.023.141.029.234.044.36.015.126.03.185.054.276.018.087.042.173.071.257.033.107.08.223.132.329.051.105.096.166.146.252l.141.246c.037.074.08.147.125.216a41.88 41.88 0 0 1 .209.361l.244.157.059.101.14.111.26.149c.107.034.14.092.216.125l.101.057.12.057.103.046.161.08.107.034.08.022.243.071.22.046.199.029c.17.032.341.045.514.041a2.98 2.98 0 0 0 .326-.035l.08-.046.173-.033.254.008.058-.034.254-.06.123-.071.144-.083.36-.208.174-.1.13-.075.195-.113.108-.062.172-.186.102-.107.108-.13.128-.161c.051-.029.099-.162.154-.233.05-.079.106-.154.17-.223a.847.847 0 0 1 .252-.146c.086-.034.177-.057.269-.068.135-.021.272-.029.409-.025l.135.018c.078.013.155.033.228.061.07.037.145.052.218.077a.52.52 0 0 1 .093.062l.144.099c.056.047.11.096.162.147a.995.995 0 0 1 .087.152c.078.098.142.208.188.325.036.096.065.196.085.297.014.109.019.218.016.328a1.157 1.157 0 0 1-.034.241 1.906 1.906 0 0 1-.086.251l-.1.193-.068.116-.243.313-.129.142-.105.119-.154.166-.138.079-.122.071-.163.151-.094.054-.101.059-.223.129-.21.121-.606.35.1.173zm3.056-5.074-.087.05-1.07.03-.769.002a.328.328 0 0 1-.209-.062c-.021-.037-.085-.048-.12-.075a.563.563 0 0 1-.075-.13 1.156 1.156 0 0 1-.083-.145.508.508 0 0 1-.047-.213 3.195 3.195 0 0 0-.057-.516 3.486 3.486 0 0 0-.029-.368 30.353 30.353 0 0 1-.125-.216 1.994 1.994 0 0 0-.042-.255.872.872 0 0 1-.132-.328 2.578 2.578 0 0 0-.15-.26 32.86 32.86 0 0 0-.183-.318 3.228 3.228 0 0 0-.203-.219 3.207 3.207 0 0 0-.236-.258l-.237-.21a1.563 1.563 0 0 0-.261-.186 1.723 1.723 0 0 1-.164-.117l-.266-.145-.207-.092-.24-.083-.18-.06-.114-.03a.949.949 0 0 0-.279-.051l-.165-.02c-.139-.006-.286-.027-.41-.042-.124-.015-.259.034-.378.045l-.3.029-.08.046-.27.05-.224.062-.187.108-.476.275-.16.092-.079.045-.154.099-.123.071-.149.192-.169.174-.134.184-.093.14-.174.264c-.038.051-.092.092-.134.135a.554.554 0 0 1-.18.104.815.815 0 0 1-.217.058l-.172.052c-.175.022-.352.01-.522-.036l-.227-.061-.127-.052c-.077-.052-.158-.092-.248-.165a1.015 1.015 0 0 1-.245-.224 2.802 2.802 0 0 1-.159-.274 1.52 1.52 0 0 1-.093-.177.59.59 0 0 1-.045-.08 1.343 1.343 0 0 1-.036-.528 2.1 2.1 0 0 1 .054-.339c.043-.135.112-.259.203-.367.062-.075.117-.164.165-.23l.075-.12.221-.234.214-.229.23-.219.201-.184.228-.189.115-.067.126-.15.664-.383.209-.121.296-.171.058-.033.151-.087.145-.084.108-.062.269.066.286-.088.301-.078.381-.057.446-.045c.174-.014.353-.021.525-.024.171-.003.275.043.418.057l.043-.025.382.029.094.013.39.074.056.015.224.054.32.123.142.043.194.071.116.068.318.134s.085.047.124.063l.165.087.112.061.186.104.082.059.037.065.243.12.138.074.122.093.165.136.162.147.143.148.139.141.083.144.08.138.108.187.071.123.133.231.129.224.163.281.196.339.22.383c.071.122.134.231.157.371.023.141.069.22.106.333.037.114.218.144.255.276.038.132.046.195.063.292l.035.393c.034.313.046.628.034.943a.69.69 0 0 1-.054.29.403.403 0 0 1-.17.205l-.1.077z" fill="#3BB195"/>
    <path d="M32.395 96.977s-3.334 3.957 1.008 10.832c4.342 6.875 45.875 17.5 80.159 13.783 34.283-3.716 51.425-13.783 52.942-19.167 1.516-5.383-5.884-6.049-15.625 1.01-9.742 7.058-94.1 13.982-106.376 1.666-12.275-12.317-12.108-8.124-12.108-8.124zM134.026 64.939a16.453 16.453 0 0 1 6.778 16.974 16.445 16.445 0 0 1-13.088 12.759 16.448 16.448 0 0 1-19.452-16.383 16.453 16.453 0 0 1 19.864-15.883 16.453 16.453 0 0 1 5.898 2.533z" fill="#FAE0B2"/>
    <path d="M132.531 67.119a13.811 13.811 0 0 1 5.695 14.248 13.809 13.809 0 1 1-5.695-14.248z" fill="#F7CC7F"/>
    <path d="m128.516 85.546-.325.187-.159.092-.216.125-.181.104a2.05 2.05 0 0 1-.448.057l-.22.069-.224.062-.176.044-.355.07-.202.05-.065.037-.485.01-.471.051-.545-.012-.215-.02-.307-.016a3.922 3.922 0 0 1-.65-.077c-.119-.056-.251-.067-.4-.076a.192.192 0 0 1-.025-.044l-.303-.056-.258-.082-.191-.063-.079-.021-.245-.09-.117-.087-.34-.121c-.102-.027-.165-.087-.246-.127l-.2-.096-.132-.078-.128-.09c-.146-.07-.267-.096-.322-.19-.054-.093-.132-.096-.206-.14l-.155-.103-.157-.121c-.029-.05-.141-.111-.204-.17l-.155-.152c-.033-.058-.05-.087-.118-.105l-.274-.275c-.042-.072-.116-.116-.168-.173-.052-.056-.07-.122-.144-.166l-.088-.152-.221-.2a1.294 1.294 0 0 0-.227-.31c-.103-.095-.092-.16-.138-.239-.046-.08-.129-.156-.179-.243l-.125-.216-.191-.332a49.097 49.097 0 0 1-.163-.282c-.054-.094-.137-.238-.158-.39-.02-.152-.091-.159-.137-.238-.046-.08.026-.188.003-.261l-.071-.239-.054-.094-.046-.28c-.027-.13-.057-.266-.081-.407-.023-.14-.025-.177-.038-.266l-.042-.39.025-.14a2.483 2.483 0 0 1-.055-.545 2.26 2.26 0 0 1 .032-.394.564.564 0 0 1 .157-.312.76.76 0 0 1 .238-.137c.183-.059.376-.082.567-.068.146.003.329.003.493.004l1.302-.03a.51.51 0 0 1 .303.076c.029.05.104.064.155.103a.568.568 0 0 1 .079.137.829.829 0 0 1 .207.525c-.004.102-.002.204.004.306.009.149.029.3.049.452.021.152.044.225.062.34.022.107.051.213.086.316.053.142.11.273.179.426.069.153.116.202.179.31l.175.304c.045.092.097.181.154.267.05.086.104.18.19.246.042.044.085.087.131.126.033.058.152.163.235.24.083.077.046.08.114.098l.176.139.271.219c.097.068.178.108.275.159l.127.07.146.07.131.06.2.096.122.044.095.032.3.087.272.054.248.03a3.025 3.025 0 0 0 1.024.006l.126-.015.218-.04.262-.045.072-.042.308-.1.151-.088.173-.1.145-.083.317-.183.217-.125.159-.092.245-.142.137-.079.191-.187.122-.138.128-.16.164-.2c.065-.038.122-.206.188-.292.06-.098.13-.19.207-.274.095-.079.202-.14.318-.183a1.3 1.3 0 0 1 .331-.076c.166-.026.335-.036.502-.03l.163.031c.096.013.189.036.28.07.085.046.179.06.267.095.041.018.08.041.117.068.033.058.124.082.179.127.07.057.137.118.201.182.041.06.078.122.109.188.095.12.172.254.229.397.044.118.079.24.104.363.017.133.024.268.02.402a1.388 1.388 0 0 1-.038.301 2.158 2.158 0 0 1-.108.313l-.124.235-.117.164-.247.373-.157.177-.133.154-.189.206-.141.139-.133.153-.23.133-.116.067-.123.071-.256.206-.26.15-.722.416.063.109zm3.788-6.239a.337.337 0 0 1-.108.063l-1.323.042-.959.005a.401.401 0 0 1-.255-.074c-.025-.043-.1-.058-.144-.1a.671.671 0 0 1-.151-.162 1.427 1.427 0 0 1-.104-.18.624.624 0 0 1-.057-.266c.003-.19-.007-.38-.031-.57a4.362 4.362 0 0 0-.071-.44c-.05-.086-.042-.206-.071-.305a2.534 2.534 0 0 0-.095-.282c-.071-.123-.11-.273-.166-.404a3.543 3.543 0 0 0-.184-.318l-.225-.39a3.844 3.844 0 0 0-.272-.371 4.05 4.05 0 0 0-.271-.287c-.063-.108-.19-.179-.292-.255a1.951 1.951 0 0 0-.309-.235 1.977 1.977 0 0 1-.194-.12l-.025-.042-.323-.16a2.626 2.626 0 0 0-.249-.116c-.1-.039-.202-.066-.31-.12l-.212-.05-.137-.037a1.178 1.178 0 0 0-.336-.066l-.207-.024c-.18-.012-.369-.057-.528-.032-.159.024-.298.018-.45.038l-.356.033-.101.058-.333.057-.036.021-.242.063-.231.133-.231.134-.354.204-.195.113-.093.054-.203.116-.151.088-.18.238-.199.221-.17.223-.12.176-.209.322c-.065.038-.129.075-.165.163a.708.708 0 0 1-.224.13 1.08 1.08 0 0 1-.253.078l-.241.033a1.665 1.665 0 0 1-.628-.022l-.285-.076a.849.849 0 0 1-.146-.07 1.211 1.211 0 0 1-.29-.17 1.258 1.258 0 0 1-.162-.146 1.416 1.416 0 0 1-.159-.159 3.633 3.633 0 0 1-.196-.339 1.965 1.965 0 0 1-.137-.238.584.584 0 0 1-.054-.094 1.667 1.667 0 0 1-.027-.63 2.54 2.54 0 0 1 .084-.404c.051-.168.134-.324.245-.459.073-.09.134-.202.221-.3l.107-.149.233-.279.271-.281.267-.27.26-.217.277-.237.144-.084.195-.112.218-.222.563-.325.26-.15.361-.209.072-.041.18-.104.174-.1.137-.08.245-.074.044-.025.268-.068.379-.094.466-.077.66.11c.212-.016.428-.026.641-.023.213.002.348.02.525.043l.058-.034.472.035a.844.844 0 0 1 .11.024l.476.09.072.026.276.062.021.036.32.104.168.057.304.094.153.066.395.166c.021.036.1.058.154.084l.204.104.139.074.217.125.105.064.081.059.246.176.156.102.153.133.201.163.201.182.181.165.179.176.172.132.1.173.197.223.087.152c.029.05.108.187.203.267.094.08.104.18.158.275a104.747 104.747 0 0 0 .442.765c.079.137.183.317.235.49.051.172.162.281.188.459.025.177.087.267.129.406.042.14.088.286.122.43.035.143.052.24.074.361l.078.485c.052.396.074.795.064 1.194a.83.83 0 0 1-.06.362.498.498 0 0 1-.213.248l-.085.02z" fill="#EDBB61"/>
    <defs>
        <linearGradient id="a" x1="100.004" y1="102.445" x2="100.004" y2="144.029" gradientUnits="userSpaceOnUse">
            <stop stop-color="#F7C683"/>
            <stop offset="1" stop-color="#F49B23"/>
        </linearGradient>
    </defs>
</svg>
