<svg width="47" height="34" viewBox="0 0 47 34" fill="none" xmlns="http://www.w3.org/2000/svg">
<path fill-rule="evenodd" clip-rule="evenodd" d="M27.0938 6.41705C28.3578 6.81554 29.4608 7.59448 30.2454 8.64272C30.4509 8.96244 30.3147 9.22402 29.9979 9.41052L28.6909 9.99666C28.5647 10.0805 28.4116 10.1165 28.2603 10.0977C28.109 10.079 27.9699 10.0069 27.869 9.89493C27.3785 9.3588 26.7332 8.98104 26.0184 8.81162C25.3037 8.64219 24.5532 8.6891 23.8663 8.94613C23.1794 9.20315 22.5884 9.65819 22.1716 10.251C21.7548 10.8439 21.5317 11.5466 21.532 12.2661V13.7194H24.8787C24.9665 13.7194 25.0534 13.7363 25.1345 13.7692C25.2156 13.802 25.2893 13.8502 25.3513 13.9109C25.4134 13.9716 25.4626 14.0437 25.4962 14.1231C25.5298 14.2024 25.5471 14.2874 25.5471 14.3733V15.6812C25.5464 15.8545 25.4758 16.0205 25.3506 16.143C25.2254 16.2655 25.0558 16.3346 24.8787 16.3352H21.532V17.7884V22.3904C21.5314 22.5636 21.4607 22.7296 21.3355 22.8521C21.2103 22.9746 21.0407 23.0437 20.8636 23.0443H19.5269C19.3497 23.0443 19.1797 22.9754 19.0543 22.8528C18.929 22.7301 18.8586 22.5638 18.8586 22.3904V18.8638V12.2758C18.8609 10.9765 19.2825 9.71108 20.0634 8.66016C20.8443 7.60924 21.9446 6.82652 23.2071 6.4237C24.4696 6.02088 25.8299 6.01855 27.0938 6.41705ZM27.8837 12.1554C29.0164 11.0018 30.5522 10.3529 32.1541 10.351H32.1612C33.1108 10.351 34.047 10.5791 34.8939 11.0167C35.7407 11.4543 36.4743 12.0891 37.035 12.8695C37.5958 13.6499 37.968 14.554 38.1215 15.5084C38.2749 16.4628 38.2051 17.4406 37.918 18.3624C37.6308 19.2842 37.1342 20.1241 36.4686 20.8138C35.803 21.5035 34.9871 22.0237 34.0871 22.3321C33.1871 22.6406 32.2283 22.7285 31.2887 22.5888C30.3491 22.4492 29.455 22.0858 28.6791 21.5283V27.2281C28.6791 27.4009 28.6116 27.5667 28.4916 27.689C28.3716 27.8112 28.2088 27.8799 28.0391 27.8799H26.7519C26.5824 27.8792 26.4199 27.8104 26.3 27.6883C26.1802 27.5662 26.1125 27.4007 26.1119 27.2281V16.5794V16.5625V16.5046C26.1138 14.8731 26.751 13.309 27.8837 12.1554ZM30.2195 19.4532C30.7922 19.8429 31.4654 20.0509 32.1541 20.0509C33.0773 20.0496 33.9622 19.6756 34.615 19.0108C35.2678 18.346 35.635 17.4447 35.6363 16.5046C35.6363 15.8032 35.4321 15.1175 35.0494 14.5343C34.6668 13.9511 34.123 13.4966 33.4867 13.2282C32.8504 12.9598 32.1503 12.8895 31.4748 13.0264C30.7993 13.1632 30.1789 13.501 29.6919 13.9969C29.2049 14.4929 28.8732 15.1248 28.7389 15.8127C28.6045 16.5006 28.6735 17.2137 28.937 17.8617C29.2006 18.5097 29.6469 19.0636 30.2195 19.4532ZM16.9038 13.2726C17.7809 14.339 18.2565 15.6552 18.2541 17.0098V22.1404C18.2541 22.3099 18.1834 22.4725 18.0575 22.5924C17.9316 22.7123 17.7609 22.7796 17.5829 22.7796H16.2405C16.0627 22.779 15.8923 22.7115 15.7666 22.5917C15.6409 22.472 15.5699 22.3097 15.5693 22.1404V21.9368C14.4075 22.7184 13.0037 23.1056 11.5832 23.0364C10.1626 22.9672 8.80765 22.4455 7.7357 21.5551C6.66375 20.6646 5.93696 19.457 5.67193 18.1261C5.40691 16.7951 5.61903 15.4179 6.27425 14.2156C6.92947 13.0132 7.9898 12.0553 9.28512 11.4955C10.5804 10.9358 12.0356 10.8067 13.4172 11.1289C14.7988 11.4512 16.0267 12.2061 16.9038 13.2726ZM9.88852 19.9017C10.4891 20.2838 11.1951 20.4878 11.9174 20.4878C12.8857 20.4872 13.8142 20.1206 14.4989 19.4684C15.1837 18.8163 15.5686 17.9321 15.5693 17.0098C15.5693 16.322 15.3551 15.6495 14.9538 15.0776C14.5525 14.5056 13.9822 14.0598 13.3149 13.7966C12.6476 13.5334 11.9133 13.4645 11.205 13.5987C10.4966 13.7329 9.84585 14.0641 9.33513 14.5505C8.8244 15.0369 8.4766 15.6567 8.33569 16.3313C8.19478 17.006 8.2671 17.7053 8.5435 18.3408C8.8199 18.9763 9.28797 19.5195 9.88852 19.9017ZM41.223 10.9554H40.0141C39.6803 10.9554 39.4097 11.257 39.4097 11.6291V22.3706C39.4097 22.7427 39.6803 23.0443 40.0141 23.0443H41.223C41.5568 23.0443 41.8275 22.7427 41.8275 22.3706V11.6291C41.8275 11.257 41.5568 10.9554 41.223 10.9554Z" fill="#1A5632"/>
</svg>
