<svg width="75" height="25" viewBox="0 0 75 25" fill="none" xmlns="http://www.w3.org/2000/svg">
<g clip-path="url(#clip0_157_22409)">
<path fill-rule="evenodd" clip-rule="evenodd" d="M72.2222 24.3108H2.79025C1.25242 24.3108 0 22.9582 0 21.3108V3.31079C0 1.65742 1.25242 0.310791 2.79025 0.310791H72.2222C73.7587 0.310791 75.0125 1.65742 75.0125 3.31079V21.3108C75.0125 22.9582 73.7587 24.3108 72.2222 24.3108Z" fill="#181818"/>
<path fill-rule="evenodd" clip-rule="evenodd" d="M72.2222 0.79109C73.512 0.79109 74.5677 1.92376 74.5677 3.31079V21.3108C74.5677 22.6978 73.519 23.8305 72.2222 23.8305H2.79025C1.50042 23.8305 0.444721 22.6978 0.444721 21.3108V3.31079C0.444721 1.92376 1.49349 0.79109 2.79025 0.79109H72.2222ZM72.2222 0.310791H2.79025C1.25242 0.310791 0 1.66341 0 3.31079V21.3108C0 22.9642 1.25242 24.3108 2.79025 24.3108H72.2222C73.7587 24.3108 75.0125 22.9642 75.0125 21.3108V3.31079C75.0125 1.66341 73.7587 0.310791 72.2222 0.310791Z" fill="#C2C2C2"/>
<path d="M37.853 14.3934C36.5463 14.3934 35.4813 15.3868 35.4813 16.7562C35.4813 18.1168 36.5463 19.119 37.853 19.119C39.1597 19.119 40.2247 18.1168 40.2247 16.7562C40.2247 15.3868 39.1597 14.3934 37.853 14.3934ZM37.853 18.1884C37.1369 18.1884 36.5191 17.5979 36.5191 16.7562C36.5191 15.9057 37.1369 15.324 37.853 15.324C38.5691 15.324 39.1863 15.9057 39.1863 16.7562C39.1863 17.5973 38.5691 18.1884 37.853 18.1884ZM32.6786 14.3934C31.3719 14.3934 30.3069 15.3868 30.3069 16.7562C30.3069 18.1168 31.3719 19.119 32.6786 19.119C33.9852 19.119 35.0502 18.1168 35.0502 16.7562C35.0508 15.3868 33.9852 14.3934 32.6786 14.3934ZM32.6786 18.1884C31.9624 18.1884 31.3452 17.5979 31.3452 16.7562C31.3452 15.9057 31.963 15.324 32.6786 15.324C33.3947 15.324 34.0119 15.9057 34.0119 16.7562C34.0124 17.5973 33.3947 18.1884 32.6786 18.1884ZM26.5241 15.1184V16.1207H28.923C28.8513 16.6845 28.6636 17.0962 28.3769 17.3829C28.028 17.7318 27.4819 18.1168 26.5241 18.1168C25.0474 18.1168 23.893 16.9262 23.893 15.4495C23.893 13.9729 25.0474 12.7823 26.5241 12.7823C27.3208 12.7823 27.9024 13.0957 28.3319 13.4984L29.0391 12.7912C28.4397 12.2184 27.643 11.7795 26.5241 11.7795C24.5013 11.7795 22.8008 13.4262 22.8008 15.449C22.8008 17.4718 24.5013 19.1184 26.5241 19.1184C27.6158 19.1184 28.4397 18.7607 29.0841 18.089C29.7463 17.4268 29.9524 16.4957 29.9524 15.744C29.9524 15.5112 29.9347 15.2962 29.8986 15.1173H26.5241V15.1184ZM51.6952 15.8968C51.4986 15.3684 50.8986 14.3929 49.6725 14.3929C48.4552 14.3929 47.4441 15.3507 47.4441 16.7557C47.4441 18.0801 48.4463 19.1184 49.7891 19.1184C50.8719 19.1184 51.4986 18.4562 51.758 18.0712L50.9524 17.534C50.6841 17.9279 50.3169 18.1873 49.7891 18.1873C49.2608 18.1873 48.8852 17.9457 48.6436 17.4712L51.803 16.1645L51.6952 15.8968ZM48.473 16.6845C48.4463 15.7718 49.1802 15.3062 49.708 15.3062C50.1197 15.3062 50.4686 15.5118 50.5852 15.8073L48.473 16.6845ZM45.9041 18.9757H46.9424V12.0307H45.9041V18.9757ZM44.2036 14.9212H44.168C43.9352 14.644 43.488 14.3929 42.9241 14.3929C41.7424 14.3929 40.6597 15.4312 40.6597 16.7645C40.6597 18.089 41.7424 19.1184 42.9241 19.1184C43.488 19.1184 43.9352 18.8679 44.168 18.5812H44.2036V18.9212C44.2036 19.8251 43.7202 20.3084 42.9413 20.3084C42.3058 20.3084 41.9119 19.8518 41.7508 19.4673L40.8469 19.8434C41.1063 20.4701 41.7958 21.2395 42.9413 21.2395C44.1586 21.2395 45.188 20.5234 45.188 18.7784V14.5362H44.2036V14.9212ZM43.0136 18.1884C42.2975 18.1884 41.698 17.589 41.698 16.7651C41.698 15.9329 42.2975 15.324 43.0136 15.324C43.7208 15.324 44.2752 15.9323 44.2752 16.7651C44.2752 17.5884 43.7208 18.1884 43.0136 18.1884ZM56.5586 12.0307H54.0747V18.9757H55.1108V16.3445H56.558C57.7069 16.3445 58.8363 15.5129 58.8363 14.1879C58.8363 12.8629 57.7075 12.0307 56.5586 12.0307ZM56.5852 15.3779H55.1108V12.9973H56.5852C57.3602 12.9973 57.8002 13.639 57.8002 14.1879C57.8002 14.7257 57.3602 15.3779 56.5852 15.3779ZM62.9919 14.3807C62.2413 14.3807 61.4641 14.7112 61.1424 15.444L62.063 15.8284C62.2597 15.444 62.6258 15.319 63.0102 15.319C63.5463 15.319 64.0913 15.6407 64.1002 16.2123V16.284C63.9124 16.1768 63.5102 16.0157 63.0191 16.0157C62.0274 16.0157 61.0174 16.5607 61.0174 17.5795C61.0174 18.509 61.8308 19.1073 62.7419 19.1073C63.4391 19.1073 63.823 18.7945 64.0641 18.4284H64.0997V18.9645H65.1002V16.3018C65.1002 15.0684 64.1802 14.3807 62.9919 14.3807ZM62.8663 18.1868C62.5269 18.1868 62.053 18.0168 62.053 17.5973C62.053 17.0612 62.643 16.8557 63.1519 16.8557C63.6075 16.8557 63.8219 16.954 64.0991 17.0879C64.0191 17.7312 63.4652 18.1868 62.8663 18.1868ZM68.7458 14.5323L67.5574 17.5434H67.5219L66.2891 14.5323H65.1724L67.0219 18.7407L65.9674 21.0818H67.0486L69.8991 14.5323H68.7458ZM59.4086 18.9757H60.4452V12.0307H59.4086V18.9757Z" fill="white"/>
<path fill-rule="evenodd" clip-rule="evenodd" d="M40.8932 7.64398C40.5654 8.00818 40.1582 8.18938 39.671 8.18938C39.1838 8.18938 38.7765 8.00758 38.4493 7.64398C38.1215 7.28038 37.9582 6.83518 37.9582 6.30898C37.9582 5.78278 38.1215 5.33758 38.4493 4.97398C38.7765 4.60978 39.1838 4.42798 39.671 4.42798C40.1554 4.42798 40.5621 4.61098 40.891 4.97638C41.2199 5.34178 41.3843 5.78578 41.3843 6.30898C41.3843 6.83578 41.2204 7.28098 40.8932 7.64398ZM38.7654 7.34278C39.0121 7.61278 39.3138 7.74718 39.671 7.74718C40.0282 7.74718 40.3299 7.61218 40.5765 7.34278C40.8232 7.07278 40.9471 6.72838 40.9471 6.30958C40.9471 5.89078 40.8232 5.54578 40.5765 5.27638C40.3304 5.00638 40.0282 4.87198 39.671 4.87198C39.3138 4.87198 39.0121 5.00698 38.7654 5.27638C38.5193 5.54638 38.3954 5.89078 38.3954 6.30958C38.3954 6.72838 38.5193 7.07278 38.7654 7.34278Z" fill="white"/>
<path d="M26.3427 6.45538C26.3427 6.95818 26.2049 7.35838 25.9288 7.65718C25.6154 8.01238 25.2065 8.18998 24.7043 8.18998C24.2232 8.18998 23.8138 8.00998 23.4777 7.64998C23.141 7.28938 22.9727 6.84298 22.9727 6.31018C22.9727 5.77678 23.141 5.33038 23.4777 4.97038C23.8138 4.60978 24.2232 4.42978 24.7043 4.42978C24.9432 4.42978 25.1715 4.48018 25.3882 4.58038C25.6054 4.68118 25.7793 4.81498 25.9093 4.98238L25.6165 5.29918C25.396 5.01418 25.0921 4.87198 24.7038 4.87198C24.3527 4.87198 24.0493 5.00518 23.7932 5.27158C23.5377 5.53798 23.4099 5.88358 23.4099 6.30958C23.4099 6.73558 23.5377 7.08118 23.7938 7.34818C24.0499 7.61458 24.3532 7.74778 24.7043 7.74778C25.0765 7.74778 25.3871 7.61398 25.6354 7.34578C25.7965 7.17118 25.8899 6.92818 25.9149 6.61678H24.7043V6.18358H26.3193C26.3354 6.27778 26.3427 6.36838 26.3427 6.45538Z" fill="white"/>
<path d="M28.9038 4.95178H27.386V6.09298H28.7549V6.52558H27.386V7.66678H28.9038V8.10958H26.9577V4.50958H28.9038V4.95178Z" fill="white"/>
<path d="M30.281 8.10958H30.7093V4.95178H31.6404V4.50958H29.3499V4.95178H30.281V8.10958Z" fill="white"/>
<path d="M33.2982 8.10958V4.50958H33.7265V8.10958H33.2982Z" fill="white"/>
<path d="M35.1971 8.10958H35.6254V4.95178H36.5565V4.50958H34.266V4.95178H35.1971V8.10958Z" fill="white"/>
<path d="M41.9854 4.50958V8.10958H42.4127V5.86678L42.3943 5.17318H42.4127L44.1077 8.10958H44.5549V4.50958H44.1265V6.61678L44.1449 7.31038H44.1265L42.5065 4.50958H41.9854Z" fill="white"/>
<path fill-rule="evenodd" clip-rule="evenodd" d="M40.8932 7.64398C40.5654 8.00818 40.1582 8.18938 39.671 8.18938C39.1838 8.18938 38.7765 8.00758 38.4493 7.64398C38.1215 7.28038 37.9582 6.83518 37.9582 6.30898C37.9582 5.78278 38.1215 5.33758 38.4493 4.97398C38.7765 4.60978 39.1838 4.42798 39.671 4.42798C40.1554 4.42798 40.5621 4.61098 40.891 4.97638C41.2199 5.34178 41.3843 5.78578 41.3843 6.30898C41.3843 6.83578 41.2204 7.28098 40.8932 7.64398ZM38.7654 7.34278C39.0121 7.61278 39.3138 7.74718 39.671 7.74718C40.0282 7.74718 40.3299 7.61218 40.5765 7.34278C40.8232 7.07278 40.9471 6.72838 40.9471 6.30958C40.9471 5.89078 40.8232 5.54578 40.5765 5.27638C40.3304 5.00638 40.0282 4.87198 39.671 4.87198C39.3138 4.87198 39.0121 5.00698 38.7654 5.27638C38.5193 5.54638 38.3954 5.89078 38.3954 6.30958C38.3954 6.72838 38.5193 7.07278 38.7654 7.34278Z" stroke="white" stroke-width="0.111111" stroke-miterlimit="10"/>
<path d="M26.3427 6.45538C26.3427 6.95818 26.2049 7.35838 25.9288 7.65718C25.6154 8.01238 25.2065 8.18998 24.7043 8.18998C24.2232 8.18998 23.8138 8.00998 23.4777 7.64998C23.141 7.28938 22.9727 6.84298 22.9727 6.31018C22.9727 5.77678 23.141 5.33038 23.4777 4.97038C23.8138 4.60978 24.2232 4.42978 24.7043 4.42978C24.9432 4.42978 25.1715 4.48018 25.3882 4.58038C25.6054 4.68118 25.7793 4.81498 25.9093 4.98238L25.6165 5.29918C25.396 5.01418 25.0921 4.87198 24.7038 4.87198C24.3527 4.87198 24.0493 5.00518 23.7932 5.27158C23.5377 5.53798 23.4099 5.88358 23.4099 6.30958C23.4099 6.73558 23.5377 7.08118 23.7938 7.34818C24.0499 7.61458 24.3532 7.74778 24.7043 7.74778C25.0765 7.74778 25.3871 7.61398 25.6354 7.34578C25.7965 7.17118 25.8899 6.92818 25.9149 6.61678H24.7043V6.18358H26.3193C26.3354 6.27778 26.3427 6.36838 26.3427 6.45538Z" stroke="white" stroke-width="0.111111" stroke-miterlimit="10"/>
<path d="M28.9038 4.95178H27.386V6.09298H28.7549V6.52558H27.386V7.66678H28.9038V8.10958H26.9577V4.50958H28.9038V4.95178Z" stroke="white" stroke-width="0.111111" stroke-miterlimit="10"/>
<path d="M30.281 8.10958H30.7093V4.95178H31.6404V4.50958H29.3499V4.95178H30.281V8.10958Z" stroke="white" stroke-width="0.111111" stroke-miterlimit="10"/>
<path d="M33.2982 8.10958V4.50958H33.7265V8.10958H33.2982Z" stroke="white" stroke-width="0.111111" stroke-miterlimit="10"/>
<path d="M35.1971 8.10958H35.6254V4.95178H36.5565V4.50958H34.266V4.95178H35.1971V8.10958Z" stroke="white" stroke-width="0.111111" stroke-miterlimit="10"/>
<path d="M41.9854 4.50958V8.10958H42.4127V5.86678L42.3943 5.17318H42.4127L44.1077 8.10958H44.5549V4.50958H44.1265V6.61678L44.1449 7.31038H44.1265L42.5065 4.50958H41.9854Z" stroke="white" stroke-width="0.111111" stroke-miterlimit="10"/>
<path d="M6.26066 5.52728C6.09683 5.69492 6 5.95509 6 6.292V18.3293C6 18.6668 6.09683 18.9264 6.26066 19.0941L6.30232 19.1332L13.277 12.3901V12.3107V12.2312L6.30232 5.48755L6.26066 5.52728Z" fill="url(#paint0_linear_157_22409)"/>
<path d="M15.6021 14.6391L13.2776 12.3907V12.3112V12.2318L15.6027 9.98389L15.655 10.0127L18.4097 11.5258C19.1967 11.958 19.1967 12.665 18.4097 13.0977L15.655 14.6108L15.6021 14.6391Z" fill="url(#paint1_linear_157_22409)"/>
<path d="M15.655 14.6096L13.2776 12.3105L6.26062 19.0939C6.52015 19.3595 6.94802 19.3922 7.43049 19.1271L15.655 14.6096Z" fill="url(#paint2_linear_157_22409)"/>
<path d="M15.6551 10.0116L7.4311 5.49401C6.94863 5.22895 6.52076 5.26215 6.26123 5.52721L13.2776 12.3106L15.6551 10.0116Z" fill="url(#paint3_linear_157_22409)"/>
<path opacity="0.2" d="M15.6027 14.5591L7.43105 19.0478C6.97391 19.2987 6.56519 19.2824 6.30284 19.0538L6.26062 19.0946L6.30228 19.1338C6.56463 19.3624 6.97335 19.3792 7.43049 19.1278L15.6545 14.6102L15.6027 14.5591Z" fill="#181818"/>
<path opacity="0.12" d="M6.26066 19.0145C6.09683 18.8468 6 18.5867 6 18.2498V18.3292C6 18.6661 6.09683 18.9263 6.26066 19.0939L6.30288 19.0531L6.26066 19.0145Z" fill="#181818"/>
<path opacity="0.12" d="M18.4098 13.017L15.6028 14.5589L15.6551 14.6095L18.4098 13.0964C18.8033 12.8804 18.9998 12.5957 18.9998 12.311C18.9666 12.5685 18.7662 12.821 18.4098 13.017Z" fill="#181818"/>
<path opacity="0.25" d="M7.43053 5.5735L18.4092 11.6041C18.7661 11.8001 18.9659 12.0526 18.9992 12.3106C18.9992 12.026 18.8027 11.7408 18.4092 11.5247L7.43053 5.49403C6.64348 5.06187 6 5.42056 6 6.29195V6.37196C6 5.50057 6.64405 5.14134 7.43053 5.5735Z" fill="white"/>
</g>
<defs>
<linearGradient id="paint0_linear_157_22409" x1="12.6587" y1="6.16507" x2="3.52952" y2="15.6078" gradientUnits="userSpaceOnUse">
<stop stop-color="#00A0FF"/>
<stop offset="0.0066" stop-color="#00A1FF"/>
<stop offset="0.2601" stop-color="#00BEFF"/>
<stop offset="0.5122" stop-color="#00D2FF"/>
<stop offset="0.7604" stop-color="#00DFFF"/>
<stop offset="1" stop-color="#00E3FF"/>
</linearGradient>
<linearGradient id="paint1_linear_157_22409" x1="19.4339" y1="12.311" x2="5.8116" y2="12.311" gradientUnits="userSpaceOnUse">
<stop stop-color="#FFE000"/>
<stop offset="0.4087" stop-color="#FFBD00"/>
<stop offset="0.7754" stop-color="#FFA500"/>
<stop offset="1" stop-color="#FF9C00"/>
</linearGradient>
<linearGradient id="paint2_linear_157_22409" x1="14.3629" y1="13.5598" x2="1.98307" y2="26.3649" gradientUnits="userSpaceOnUse">
<stop stop-color="#FF3A44"/>
<stop offset="1" stop-color="#C31162"/>
</linearGradient>
<linearGradient id="paint3_linear_157_22409" x1="4.49416" y1="1.52037" x2="10.0223" y2="7.23837" gradientUnits="userSpaceOnUse">
<stop stop-color="#32A071"/>
<stop offset="0.0685" stop-color="#2DA771"/>
<stop offset="0.4762" stop-color="#15CF74"/>
<stop offset="0.8009" stop-color="#06E775"/>
<stop offset="1" stop-color="#00F076"/>
</linearGradient>
<clipPath id="clip0_157_22409">
<rect width="75" height="24" fill="white" transform="translate(0 0.310791)"/>
</clipPath>
</defs>
</svg>
