<svg xmlns="http://www.w3.org/2000/svg" width="12" height="13" fill="none" viewBox="0 0 12 13">
    <path fill="#5E5E5E" fill-rule="evenodd" d="M11.5 5.88H1.434L6.272.889c.095-.1.148-.23.148-.368 0-.137-.053-.269-.148-.368-.046-.049-.101-.087-.163-.114C6.048.013 5.982 0 5.915 0s-.133.014-.194.04c-.062.027-.117.065-.163.114L.352 5.523c-.226.236-.351.55-.351.877 0 .327.125.64.351.877l5.206 5.37c.046.048.101.087.163.113.061.026.127.04.194.04s.133-.014.194-.04c.062-.026.117-.065.163-.113.095-.1.148-.23.148-.368 0-.137-.053-.269-.148-.368l-4.838-4.99H11.5c.134-.006.26-.063.354-.16.092-.097.144-.226.144-.36 0-.135-.052-.264-.144-.36-.093-.098-.22-.155-.354-.161z" clip-rule="evenodd"/>
</svg>
