<svg xmlns="http://www.w3.org/2000/svg" width="34" height="32" fill="none" viewBox="0 0 34 32">
    <path fill="#000" d="M17 32c8.837 0 16-7.163 16-16S25.837 0 17 0 1 7.163 1 16s7.163 16 16 16z"/>
    <path fill="#fff" d="M17 32c8.837 0 16-7.163 16-16S25.837 0 17 0 1 7.163 1 16s7.163 16 16 16z"/>
    <path fill="url(#paint0_linear)" fill-rule="evenodd" d="M13 17c0 .857.254 1.695.73 2.407.476.713 1.153 1.268 1.945 1.596.792.328 1.663.414 2.503.247.84-.168 1.613-.58 2.219-1.186.606-.606 1.019-1.378 1.186-2.219.167-.84.081-1.711-.247-2.503s-.883-1.469-1.596-1.945c-.712-.476-1.55-.73-2.407-.73-1.15 0-2.251.457-3.064 1.27C13.456 14.748 13 15.85 13 17zm2.007.179c-.035-.46.067-.92.293-1.323.227-.402.567-.728.98-.937.41-.208.875-.29 1.334-.235.458.056.89.246 1.24.547.35.3.603.699.727 1.143.123.445.113.917-.032 1.355-.144.439-.415.825-.778 1.109-.364.284-.804.455-1.264.489-.061 0-.121.007-.181.007-.588 0-1.153-.223-1.584-.623-.43-.399-.695-.946-.74-1.532" clip-rule="evenodd"/>
    <path fill="#00ACF0" fill-rule="evenodd" d="M17 0c-2.101-.004-4.183.405-6.126 1.205-1.942.8-3.709 1.975-5.198 3.457C2.67 7.656.975 11.722.966 15.966c-.009 4.243 1.668 8.317 4.662 11.324 2.994 3.007 7.06 4.701 11.304 4.71h.136c4.243-.009 8.31-1.703 11.304-4.71 2.994-3.007 4.671-7.08 4.662-11.324-.009-4.243-1.703-8.31-4.71-11.304C25.317 1.668 21.244-.009 17 0zm7 11h-1.809c-.219 0-.435-.043-.637-.126-.203-.084-.386-.206-.541-.361l-.691-.692c-.313-.312-.736-.487-1.178-.487h-3.62c-.219 0-.435.043-.637.126-.203.084-.386.206-.541.361l-.692.692c-.155.155-.338.277-.54.36-.203.084-.42.127-.638.127h-1.809c-.442 0-.866.176-1.179.488-.312.313-.488.737-.488 1.179V21c0 .219.043.436.127.638s.206.386.361.54c.155.156.339.278.541.362.202.084.42.127.638.127H24c.219 0 .436-.043.638-.127s.386-.206.54-.361c.155-.155.278-.339.362-.541.084-.202.127-.419.127-.638v-8.333c0-.219-.043-.436-.127-.638s-.206-.386-.361-.54c-.155-.155-.339-.278-.541-.362-.202-.084-.42-.127-.638-.127z" clip-rule="evenodd"/>
    <defs>
        <linearGradient id="paint0_linear" x1="17.333" x2="17.333" y1=".526" y2="32.191" gradientUnits="userSpaceOnUse">
            <stop stop-color="#00ACF0"/>
            <stop offset="1" stop-color="#0694C9"/>
        </linearGradient>
    </defs>
</svg>
