<svg xmlns="http://www.w3.org/2000/svg" width="136" height="96" fill="none" viewBox="0 0 136 96">
    <g clip-path="url(#clip0)">
        <g opacity=".3">
            <path fill="url(#paint0_linear)" d="M0 79.704h136s-26.88-6.027-42.071-11.379c-5.594-1.974-10.721-4.319-15.82-5.709-11.579-3.17-28.991-.294-45.142 4.575C26.622 69.103 0 79.704 0 79.704z" opacity=".4"/>
            <path fill="url(#paint1_linear)" d="M2.357 80.294l131.63.245s-16.22-12.438-26.9-13.583c-8.368-.9-21.268 2.692-27.323 4.667-6.017 1.963-13.354 5.218-22.587 5.691-14.977.767-18-9.066-27.6-7.56-10.344 1.621-27.22 10.54-27.22 10.54z" opacity=".6"/>
            <path fill="url(#paint2_linear)" d="M14.252 73.715c0-.582.169-1.152.486-1.64.318-.488.77-.874 1.302-1.11.533-.235 1.122-.312 1.697-.22.575.093 1.11.35 1.542.742.431.39.74.899.888 1.462.148.563.13 1.157-.053 1.71-.183.553-.522 1.04-.977 1.404-.455.364-1.006.587-1.585.644v3.158c-.006.074-.04.142-.094.192-.054.05-.125.078-.199.078-.074 0-.145-.028-.2-.078-.053-.05-.087-.118-.093-.192v-3.157c-.743-.073-1.433-.42-1.934-.973-.502-.553-.78-1.273-.78-2.02z" opacity=".5"/>
            <path fill="url(#paint3_linear)" d="M32.823 57.754c0-.198.078-.389.217-.53.14-.142.328-.223.527-.227-.076-.39-.006-.794.197-1.135.202-.342.523-.597.901-.717.379-.12.788-.098 1.15.064.363.162.654.451.817.813.177-.103.376-.164.58-.178.205-.015.41.018.6.096s.358.198.494.352c.136.153.235.336.288.534.054.197.062.405.022.606-.039.201-.124.391-.248.554-.125.163-.285.295-.468.387-.184.09-.386.139-.591.14h-3.776c-.193-.012-.374-.098-.506-.239-.132-.14-.205-.327-.204-.52z" opacity=".3"/>
            <path fill="url(#paint4_linear)" d="M26.409 76.414c0-.338.098-.67.282-.954.184-.283.447-.508.757-.645.31-.138.652-.182.986-.128.334.053.646.203.897.43.25.227.43.523.516.85.087.328.076.673-.03.994-.107.322-.304.605-.569.817-.264.211-.584.341-.921.374v1.835c0 .046-.018.089-.05.12-.032.033-.075.05-.12.05-.046 0-.09-.017-.121-.05-.032-.031-.05-.075-.05-.12v-1.835c-.432-.042-.832-.244-1.123-.565-.292-.321-.454-.739-.454-1.173z" opacity=".5"/>
            <path fill="url(#paint5_linear)" d="M95.429 62.501c0-.246.097-.483.27-.658.173-.176.408-.276.654-.28-.097-.486-.012-.99.24-1.416.251-.427.65-.746 1.123-.896.472-.15.982-.121 1.434.082.452.203.813.565 1.014 1.017.22-.128.467-.203.721-.22.254-.017.509.024.745.121.235.097.445.247.614.438.168.19.291.418.357.664.067.246.076.504.027.754-.048.25-.154.485-.308.688-.155.202-.353.367-.581.48-.228.114-.479.174-.734.175h-4.689c-.242-.013-.47-.12-.634-.296-.166-.177-.256-.41-.253-.653z" opacity=".2"/>
            <path fill="url(#paint6_linear)" d="M121.705 74.774c0-.52.15-1.03.434-1.467.284-.437.689-.782 1.165-.994.476-.211 1.003-.28 1.517-.197.515.083.994.313 1.38.662.386.35.662.804.795 1.308s.117 1.035-.047 1.53c-.163.494-.467.93-.873 1.256-.407.326-.9.526-1.418.577v2.825c-.004.067-.034.13-.082.175-.049.046-.114.072-.181.072-.066 0-.131-.026-.18-.072-.048-.045-.078-.108-.082-.175V77.45c-.665-.065-1.281-.375-1.73-.87-.449-.494-.697-1.137-.698-1.805z" opacity=".5"/>
        </g>
        <path fill="url(#paint7_linear)" d="M125.565 29.04c-.002-.442-.178-.866-.489-1.18-.312-.315-.735-.494-1.177-.5.166-.87.007-1.772-.449-2.532-.455-.76-1.174-1.327-2.02-1.592-.846-.264-1.76-.208-2.568.157-.807.366-1.452 1.016-1.811 1.826-.396-.23-.84-.365-1.297-.395-.457-.03-.915.045-1.338.22-.423.175-.8.445-1.102.79-.302.345-.52.754-.638 1.197-.118.442-.133.906-.043 1.355.091.449.283.871.563 1.234.28.362.64.655 1.051.857.412.2.864.304 1.322.302l8.414-.04c.431-.028.835-.219 1.129-.535.294-.316.456-.732.453-1.164z"/>
        <path fill="url(#paint8_linear)" d="M79.725 17.538c.002-.728-.283-1.427-.792-1.947-.51-.52-1.203-.819-1.931-.832.284-1.43.031-2.914-.71-4.17-.742-1.255-1.92-2.194-3.309-2.636-1.39-.442-2.892-.356-4.223.24-1.33.596-2.395 1.662-2.989 2.993-.65-.383-1.379-.61-2.13-.666-.752-.055-1.507.064-2.205.348-.698.284-1.322.726-1.822 1.29-.5.564-.862 1.236-1.06 1.964-.198.727-.225 1.49-.08 2.23.146.74.46 1.436.919 2.035.458.598 1.048 1.083 1.725 1.416.676.333 1.42.505 2.174.504h13.821v-.008c.705-.041 1.368-.35 1.853-.863.486-.513.757-1.192.759-1.898z"/>
        <path fill="url(#paint9_linear)" d="M62.398 21.241c0-.566-.222-1.11-.62-1.515-.396-.404-.936-.636-1.503-.647.216-1.112.016-2.265-.563-3.24-.578-.975-1.494-1.703-2.574-2.047-1.08-.343-2.249-.278-3.284.183-1.035.461-1.865 1.287-2.332 2.32-.506-.298-1.073-.474-1.659-.516-.585-.042-1.172.052-1.715.273-.543.222-1.028.566-1.417 1.005-.388.44-.67.962-.824 1.528-.154.566-.175 1.16-.063 1.736.113.576.357 1.117.714 1.583.356.466.815.844 1.34 1.104.527.26 1.105.395 1.692.395h10.768c.552-.03 1.071-.272 1.45-.674.38-.403.59-.935.59-1.488z"/>
        <g opacity=".4">
            <path fill="url(#paint10_linear)" d="M40.827 26.562l.572-1.4h-.664l-1.066 1.376H37.48l.5-.433h-.525l-1.121.433h-3.378c-.16 0-.312.063-.424.176-.113.112-.176.265-.176.424 0 .16.063.312.176.424.112.113.265.176.424.176h7.72c.148.004.292-.047.405-.144.112-.096.185-.23.205-.377.02-.147-.017-.296-.1-.418-.084-.122-.21-.21-.354-.244l-.005.007z" opacity=".6"/>
            <path fill="url(#paint11_linear)" d="M42.385 27.53c.232 0 .42-.188.42-.42 0-.232-.188-.42-.42-.42-.232 0-.42.188-.42.42 0 .232.188.42.42.42z" opacity=".6"/>
            <path fill="url(#paint12_linear)" d="M43.528 27.444c.141 0 .256-.114.256-.256 0-.141-.115-.256-.256-.256-.141 0-.256.115-.256.256 0 .142.115.256.256.256z" opacity=".6"/>
        </g>
        <path fill="url(#paint13_linear)" d="M101.351 89.472H23.53c-1.803 0-3.264 1.462-3.264 3.264 0 1.803 1.461 3.264 3.264 3.264h77.821c1.803 0 3.264-1.461 3.264-3.264 0-1.803-1.461-3.264-3.264-3.264z" opacity=".28"/>
        <path fill="url(#paint14_linear)" d="M103.476 4.868v83c.004 1.287-.503 2.522-1.41 3.435-.907.913-2.14 1.428-3.426 1.433H67.053c-.636 0-1.266-.126-1.853-.37-.587-.245-1.12-.603-1.568-1.055-.908-.916-1.417-2.154-1.415-3.444v-83c-.002-.637.121-1.269.363-1.858.242-.59.597-1.126 1.047-1.578.449-.452.982-.811 1.57-1.057.588-.246 1.219-.373 1.856-.375h31.586c1.286.007 2.518.523 3.424 1.435.907.913 1.415 2.148 1.413 3.434z"/>
        <path fill="#fff" d="M67.052 4.195h31.587c.965.004 1.889.39 2.569 1.075.68.686 1.06 1.613 1.057 2.578V84.46c.002.478-.091.952-.272 1.395-.181.442-.448.844-.785 1.184-.337.34-.737.609-1.178.794-.442.184-.915.28-1.393.282H67.052c-.478-.002-.951-.098-1.393-.282-.44-.185-.841-.455-1.178-.794-.337-.34-.604-.742-.785-1.184-.181-.443-.274-.917-.272-1.395V7.848c-.002-.478.09-.952.272-1.394.182-.443.448-.845.785-1.184.337-.34.738-.609 1.179-.793.44-.185.914-.28 1.392-.282z"/>
        <path fill="url(#paint15_linear)" d="M86.925 47.598c-1.25-.669-.586-1.924 0-2.51.712-1.031 1.275-2.158 1.673-3.347.507-.21.947-.555 1.272-.997.324-.443.521-.966.569-1.513.669-2.176-1.005-2.51-1.005-2.51s1.338-3.6.25-6.359c-1.422-3.6-7.19-4.938-8.2-1.59-6.862-1.507-5.44 7.95-5.44 7.95s-1.674.335-1 2.51c.048.547.245 1.07.57 1.513.324.442.764.787 1.271.997.398 1.189.96 2.316 1.673 3.347.586.586 1.25 1.841 0 2.51-2.51 1.338-10.042 1.674-10.042 7.531h28.449c.001-5.858-7.532-6.193-10.04-7.532z"/>
        <path fill="url(#paint16_linear)" d="M97.612 60.463c0 .36-.143.704-.397.958s-.599.397-.958.397H69.29c-.36 0-.704-.143-.958-.397s-.397-.599-.397-.958c0-.36.143-.704.397-.958s.599-.397.958-.397h26.965c.178 0 .355.035.52.103.164.067.313.167.44.293.126.126.225.275.294.44.068.164.103.34.103.519z" opacity=".3"/>
        <path fill="#999" d="M91.419 65.527c0 .257-.102.503-.284.684-.181.182-.427.284-.684.284H68.904c-.256 0-.502-.103-.683-.284-.181-.182-.283-.427-.283-.684 0-.257.102-.503.284-.684.181-.182.427-.284.684-.284h21.541c.257 0 .503.102.684.284.182.181.284.427.284.684h.004zM91.42 69.167c0 .257-.102.503-.284.685-.181.181-.427.283-.684.283H68.905c-.257 0-.503-.102-.684-.283-.182-.182-.284-.428-.284-.685 0-.257.102-.503.284-.684.181-.182.427-.284.684-.284h21.542c.257 0 .503.102.684.284.182.181.284.427.284.684h.005z"/>
        <path fill="#000" d="M69.009 65.383H28.39c-1.105 0-2 .895-2 2v22.969c0 1.104.895 2 2 2h40.619c1.105 0 2-.896 2-2v-22.97c0-1.104-.895-2-2-2z" opacity=".2"/>
        <path fill="#fff" d="M64.678 65.383H24.059c-1.105 0-2 .895-2 2v22.969c0 1.104.895 2 2 2h40.619c1.105 0 2-.896 2-2v-22.97c0-1.104-.895-2-2-2z"/>
        <path fill="url(#paint17_linear)" d="M64.678 65.383H24.059c-1.105 0-2 .895-2 2v22.969c0 1.104.895 2 2 2h40.619c1.105 0 2-.896 2-2v-22.97c0-1.104-.895-2-2-2z" opacity=".6"/>
        <path fill="#EAEAEA" d="M64.157 80.895c0 .495-.196.969-.546 1.319-.35.35-.824.546-1.319.546h-5.26c-.495 0-.969-.197-1.319-.546-.35-.35-.546-.824-.546-1.319v-7.673c0-.495.197-.969.546-1.319.35-.35.824-.546 1.319-.546h5.26c.495 0 .969.196 1.319.546.35.35.546.824.546 1.319v7.673z"/>
        <path fill="#999" d="M60.616 78.565c-.286-.156-.134-.44 0-.572.162-.235.29-.492.381-.763.116-.048.216-.127.29-.227.074-.101.118-.22.129-.345.156-.5-.23-.572-.23-.572.174-.465.195-.974.058-1.451-.324-.821-1.641-1.125-1.876-.363-1.563-.344-1.241 1.812-1.241 1.812s-.381.077-.228.572c.01.124.056.244.13.345.074.1.174.18.29.227.09.27.219.528.381.763.134.134.286.42 0 .572-.572.313-2.288.38-2.288 1.719h6.492c.001-1.334-1.717-1.411-2.288-1.717z"/>
        <path fill="#EAEAEA" d="M53.302 68.653c0 .24-.095.469-.263.638-.169.17-.398.266-.637.267H38.31c-.119 0-.236-.023-.346-.069-.11-.046-.209-.112-.292-.196-.084-.084-.15-.184-.195-.294-.045-.11-.068-.227-.067-.346 0-.119.022-.236.067-.346.045-.11.111-.21.195-.294.084-.084.183-.15.293-.196.109-.045.226-.069.345-.069h14.088c.24 0 .47.096.64.265.169.17.264.4.264.64zM48.699 72.88c0 .22-.087.43-.242.585-.155.155-.366.242-.585.242H25.745c-.22 0-.43-.087-.585-.242-.155-.155-.242-.365-.242-.585 0-.22.087-.43.242-.584.155-.156.366-.243.585-.243h22.128c.22 0 .43.088.584.243.155.155.242.365.242.584zM42.772 76.842c0 .101-.02.2-.058.294-.039.093-.095.178-.166.25-.072.07-.156.127-.25.166-.092.038-.192.058-.293.058H25.686c-.1 0-.2-.02-.294-.058-.093-.039-.178-.095-.25-.166-.07-.072-.127-.156-.166-.25-.038-.093-.058-.193-.058-.294 0-.1.02-.2.058-.294.039-.093.095-.178.167-.25.071-.07.156-.127.249-.166.093-.038.193-.058.294-.058h16.327c.1 0 .2.02.294.059.093.038.177.095.249.166.071.072.127.156.166.25.038.093.058.192.058.293h-.008zM42.772 81.023c0 .198-.079.388-.218.527-.14.14-.33.219-.528.219H25.662c-.197 0-.387-.08-.526-.22-.14-.14-.218-.329-.218-.526 0-.198.078-.387.218-.527s.329-.219.526-.22h16.376c.196.004.383.084.52.224s.214.327.214.523z"/>
        <path fill="#fff" d="M63.677 88.628c-.184-.003-.364-.055-.523-.15-.157-.095-.288-.23-.377-.39-.132-.228-.347-.396-.6-.47-.222-.008-.443.038-.644.134-.339.122-.689.248-.938.072-.092-.05-.168-.124-.219-.215-.05-.091-.075-.195-.069-.299v-.023c-.577.425-1.284.636-2 .594-.09-.018-.177-.048-.259-.088-.802.446-1.687.726-2.6.821l-.014-.156c.87-.068 1.715-.32 2.479-.742-.157-.112-.282-.262-.366-.436-.107-.246-.134-.52-.076-.781.058-.262.197-.5.398-.677.277-.334.636-.59 1.042-.744.405-.154.844-.2 1.273-.135l.056.02v.06c-.105.57-.343 1.11-.693 1.573-.35.463-.803.84-1.323 1.097.039.014.079.025.119.033.752.019 1.486-.227 2.076-.694.167-.211.387-.373.639-.469l.488-.21-.408.342c-.192.16-.392.31-.6.45-.037.054-.061.117-.07.182 0 .076.02.151.059.217.039.065.095.118.163.153.188.13.5.02.8-.09.228-.11.48-.158.732-.14.288.083.533.273.686.53.088.174.231.314.406.398.176.085.374.11.565.071l.022.156c-.074.008-.15.01-.224.006zm-3.88-3.6c-.695.055-1.343.373-1.81.891-.174.159-.296.366-.35.595-.053.23-.036.47.05.688.082.174.215.32.38.417.495-.261.929-.624 1.274-1.065.346-.44.595-.948.731-1.49-.09-.026-.184-.038-.278-.037l.003.001z"/>
    </g>
    <defs>
        <linearGradient id="paint0_linear" x1="-1700" x2="-1700" y1="79.704" y2="61.285" gradientUnits="userSpaceOnUse">
            <stop stop-color="#fff" stop-opacity="0"/>
            <stop offset=".88"/>
        </linearGradient>
        <linearGradient id="paint1_linear" x1="-1700.54" x2="-1700.54" y1="80.539" y2="66.814" gradientUnits="userSpaceOnUse">
            <stop stop-color="#fff" stop-opacity="0"/>
            <stop offset=".88"/>
        </linearGradient>
        <linearGradient id="paint2_linear" x1="-1641.02" x2="-1641.02" y1="80.154" y2="70.707" gradientUnits="userSpaceOnUse">
            <stop stop-color="#fff" stop-opacity="0"/>
            <stop offset=".12" stop-color="#777" stop-opacity=".529"/>
            <stop offset=".88"/>
        </linearGradient>
        <linearGradient id="paint3_linear" x1="-1658.7" x2="-1658.7" y1="58.512" y2="55.065" gradientUnits="userSpaceOnUse">
            <stop stop-color="#fff" stop-opacity="0"/>
            <stop offset=".12" stop-color="#777" stop-opacity=".529"/>
            <stop offset=".88"/>
        </linearGradient>
        <linearGradient id="paint4_linear" x1="-1652.32" x2="-1652.32" y1="80.158" y2="74.665" gradientUnits="userSpaceOnUse">
            <stop stop-color="#fff" stop-opacity="0"/>
            <stop offset=".12" stop-color="#777" stop-opacity=".529"/>
            <stop offset=".88"/>
        </linearGradient>
        <linearGradient id="paint5_linear" x1="-1720.48" x2="-1720.48" y1="63.45" y2="59.16" gradientUnits="userSpaceOnUse">
            <stop stop-color="#fff" stop-opacity="0"/>
            <stop offset=".12" stop-color="#777" stop-opacity=".529"/>
            <stop offset=".88"/>
        </linearGradient>
        <linearGradient id="paint6_linear" x1="-1746.98" x2="-1746.98" y1="80.521" y2="72.091" gradientUnits="userSpaceOnUse">
            <stop stop-color="#fff" stop-opacity="0"/>
            <stop offset=".12" stop-color="#777" stop-opacity=".529"/>
            <stop offset=".88"/>
        </linearGradient>
        <linearGradient id="paint7_linear" x1="117.472" x2="117.472" y1="25.083" y2="32.768" gradientUnits="userSpaceOnUse">
            <stop stop-color="#fff"/>
            <stop offset="1" stop-color="#E5E5E5"/>
        </linearGradient>
        <linearGradient id="paint8_linear" x1="69.054" x2="69.054" y1="7.687" y2="20.307" gradientUnits="userSpaceOnUse">
            <stop stop-color="#fff"/>
            <stop offset="1" stop-color="#B5B5B5"/>
        </linearGradient>
        <linearGradient id="paint9_linear" x1="54.086" x2="54.086" y1="13.565" y2="23.403" gradientUnits="userSpaceOnUse">
            <stop stop-color="#fff"/>
            <stop offset="1" stop-color="#B5B5B5"/>
        </linearGradient>
        <linearGradient id="paint10_linear" x1="36.877" x2="36.877" y1="27.738" y2="25.162" gradientUnits="userSpaceOnUse">
            <stop stop-color="#2B3154" stop-opacity="0"/>
            <stop offset=".04" stop-color="#2B3254" stop-opacity=".102"/>
            <stop offset=".18" stop-color="#2A3554" stop-opacity=".42"/>
            <stop offset=".33" stop-color="#2A3853" stop-opacity=".678"/>
            <stop offset=".5" stop-color="#293A53" stop-opacity=".859"/>
            <stop offset=".7" stop-color="#293B53" stop-opacity=".969"/>
            <stop offset="1" stop-color="#293B53"/>
        </linearGradient>
        <linearGradient id="paint11_linear" x1="42.385" x2="42.385" y1="27.528" y2="26.69" gradientUnits="userSpaceOnUse">
            <stop stop-color="#2B3154" stop-opacity="0"/>
            <stop offset=".04" stop-color="#2B3254" stop-opacity=".102"/>
            <stop offset=".18" stop-color="#2A3554" stop-opacity=".42"/>
            <stop offset=".33" stop-color="#2A3853" stop-opacity=".678"/>
            <stop offset=".5" stop-color="#293A53" stop-opacity=".859"/>
            <stop offset=".7" stop-color="#293B53" stop-opacity=".969"/>
            <stop offset="1" stop-color="#293B53"/>
        </linearGradient>
        <linearGradient id="paint12_linear" x1="43.528" x2="43.528" y1="27.444" y2="26.932" gradientUnits="userSpaceOnUse">
            <stop stop-color="#2B3154" stop-opacity="0"/>
            <stop offset=".04" stop-color="#2B3254" stop-opacity=".102"/>
            <stop offset=".18" stop-color="#2A3554" stop-opacity=".42"/>
            <stop offset=".33" stop-color="#2A3853" stop-opacity=".678"/>
            <stop offset=".5" stop-color="#293A53" stop-opacity=".859"/>
            <stop offset=".7" stop-color="#293B53" stop-opacity=".969"/>
            <stop offset="1" stop-color="#293B53"/>
        </linearGradient>
        <linearGradient id="paint13_linear" x1="62.441" x2="62.441" y1="96" y2="89.472" gradientUnits="userSpaceOnUse">
            <stop stop-color="#2B3154" stop-opacity="0"/>
            <stop offset=".3" stop-color="#2A3654" stop-opacity=".231"/>
            <stop offset=".36" stop-color="#2A3754" stop-opacity=".271"/>
            <stop offset=".7" stop-color="#293A53" stop-opacity=".439"/>
            <stop offset="1" stop-color="#293B53" stop-opacity=".502"/>
        </linearGradient>
        <linearGradient id="paint14_linear" x1="82.847" x2="82.847" y1="-.001" y2="92.736" gradientUnits="userSpaceOnUse">
            <stop stop-color="#5E5E5E"/>
            <stop offset="1" stop-color="#2E2E2E"/>
        </linearGradient>
        <linearGradient id="paint15_linear" x1="82.74" x2="82.74" y1="26.849" y2="55.13" gradientUnits="userSpaceOnUse">
            <stop stop-color="#2CA7E0"/>
            <stop offset=".28" stop-color="#2BA4DC"/>
            <stop offset=".56" stop-color="#289CD0"/>
            <stop offset=".84" stop-color="#228FBC"/>
            <stop offset="1" stop-color="#1E85AD"/>
        </linearGradient>
        <linearGradient id="paint16_linear" x1="82.773" x2="82.773" y1="61.818" y2="59.111" gradientUnits="userSpaceOnUse">
            <stop stop-color="#13637B"/>
            <stop offset="1" stop-color="#0B80A9"/>
        </linearGradient>
        <linearGradient id="paint17_linear" x1="44.368" x2="44.368" y1="65.383" y2="92.352" gradientUnits="userSpaceOnUse">
            <stop stop-color="#2CA7E0"/>
            <stop offset=".28" stop-color="#2BA4DC"/>
            <stop offset=".56" stop-color="#289CD0"/>
            <stop offset=".84" stop-color="#228FBC"/>
            <stop offset="1" stop-color="#1E85AD"/>
        </linearGradient>
        <clipPath id="clip0">
            <path fill="#fff" d="M0 0H136V96H0z"/>
        </clipPath>
    </defs>
</svg>
