<svg xmlns="http://www.w3.org/2000/svg" width="76" height="33" fill="none" viewBox="0 0 76 33">
    <path fill="#fff" d="M.492 0H0v.498h.492V0zM2.388.64h-.492v.499h.492V.64zM4.355 1.422h-.492v.499h.492v-.499zM6.322 2.134H5.83v.498h.492v-.498zM8.289 2.916h-.492v.498h.492v-.498zM10.185 3.556h-.492v.498h.492v-.498zM12.011 4.267h-.491v.498h.491v-.498zM13.767 4.836h-.492v.498h.492v-.498zM15.383 5.405h-.492v.498h.492v-.498zM2.529 1.85h-.492v.497h.492V1.85zM4.214 2.418h-.491v.498h.491v-.498zM5.97 2.987H5.48v.498h.491v-.498zM7.727 3.627h-.492v.498h.492v-.498zM9.482 4.267h-.491v.498h.491v-.498zM11.238 4.836h-.491v.498h.491v-.498zM12.924 5.405h-.491v.498h.491v-.498zM14.47 5.974h-.492v.498h.492v-.498zM16.015 6.4h-.492V6.9h.492v-.498zM4.425 3.556h-.491v.498h.491v-.498zM5.9 4.054H5.41v.498H5.9v-.498zM7.445 4.552h-.491v.498h.491v-.498zM9.061 5.05h-.492v.498h.492V5.05zM10.606 5.547h-.491v.499h.491v-.499zM12.222 6.116h-.492v.498h.492v-.498zM13.697 6.543h-.492v.498h.492v-.498zM15.172 7.04h-.492v.499h.492v-.498zM16.577 7.468h-.492v.498h.492v-.498zM6.04 5.192H5.55v.498h.492v-.498zM7.375 5.547h-.491v.499h.491v-.499zM8.78 5.974H8.29v.498h.491v-.498zM10.255 6.4h-.491V6.9h.491v-.498zM11.66 6.828h-.492v.498h.492v-.498zM13.065 7.254h-.492v.498h.492v-.498zM14.47 7.681h-.492v.498h.492v-.498zM15.874 8.037h-.491v.498h.492v-.498zM17.139 8.392h-.492v.498h.492v-.498zM7.516 6.685h-.492v.498h.492v-.498zM8.71 6.97h-.492v.498h.492V6.97zM9.974 7.325h-.492v.498h.492v-.498zM11.309 7.681h-.492v.498h.492v-.498zM12.573 8.037h-.492v.498h.492v-.498zM13.908 8.392h-.492v.498h.492v-.498zM15.172 8.748h-.492v.498h.492v-.498zM16.436 9.032h-.492v.498h.492v-.498zM17.63 9.388h-.491v.498h.491v-.498zM8.78 8.108H8.29v.498h.491v-.498zM9.904 8.321h-.492v.498h.492v-.498zM11.028 8.606h-.492v.498h.492v-.498zM12.222 8.89h-.492v.498h.492V8.89zM13.416 9.175h-.492v.498h.492v-.498zM14.61 9.459h-.492v.498h.492V9.46zM15.804 9.744h-.492v.498h.492v-.498zM16.928 10.028h-.492v.498h.492v-.498zM18.052 10.312h-.492v.498h.492v-.498zM9.833 9.388h-.491v.498h.491v-.498zM10.887 9.601h-.492v.498h.492v-.498zM11.94 9.815h-.49v.498h.49v-.498zM13.065 10.028h-.492v.498h.492v-.498zM14.188 10.312h-.491v.498h.492v-.498zM15.242 10.526h-.492v.498h.492v-.498zM16.366 10.74h-.492v.497h.492v-.498zM17.42 10.953h-.492v.498h.491v-.498zM18.473 11.166h-.492v.498h.492v-.498zM10.747 10.597h-.492v.498h.492v-.498zM11.73 10.74h-.492v.497h.492v-.498zM12.784 10.953h-.492v.498h.492v-.498zM13.767 11.095h-.492v.498h.492v-.498zM14.82 11.308h-.49v.498h.49v-.498zM15.804 11.521h-.492v.499h.492v-.498zM16.858 11.664h-.492v.498h.492v-.498zM17.84 11.877h-.49v.498h.49v-.498zM18.824 12.02h-.492v.498h.492v-.498zM11.59 11.735h-.492v.498h.492v-.498zM12.503 11.806h-.492v.498h.492v-.498zM13.416 12.02h-.492v.498h.492v-.498zM14.4 12.162h-.492v.498h.491v-.498zM15.313 12.304h-.492v.498h.492v-.498zM16.296 12.446h-.492v.498h.492v-.498zM17.28 12.588h-.492v.498h.491v-.498zM18.192 12.73h-.491v.499h.491v-.498zM19.105 12.873h-.491v.498h.491v-.498zM12.222 12.73h-.492v.499h.492v-.498zM13.135 12.873h-.492v.498h.492v-.498zM13.978 12.944h-.492v.498h.492v-.498zM14.891 13.086H14.4v.498h.492v-.498zM15.804 13.228h-.492v.498h.492v-.498zM16.717 13.37h-.491v.498h.491v-.498zM17.63 13.442h-.491v.498h.491v-.498zM18.473 13.584h-.492v.498h.492v-.498zM19.316 13.655h-.492v.498h.492v-.498zM12.784 13.726h-.492v.498h.492v-.498zM13.626 13.797h-.491v.498h.491v-.498zM14.47 13.94h-.492v.498h.492v-.498zM15.313 14.01h-.492v.499h.492v-.498zM16.155 14.082h-.491v.498h.491v-.498zM17.068 14.224h-.491v.498h.491v-.498zM17.911 14.295h-.492v.498h.492v-.498zM18.754 14.366h-.491v.498h.491v-.498zM19.527 14.438h-.492v.498h.492v-.498zM13.275 14.65h-.491v.499h.491v-.498zM14.048 14.722h-.491v.498h.491v-.498zM14.82 14.793h-.49v.498h.49v-.498zM15.664 14.864h-.492v.498h.492v-.498zM16.506 14.935h-.491v.498h.491v-.498zM17.28 15.006h-.492v.498h.491v-.498zM18.122 15.077h-.492v.498h.492v-.498zM18.895 15.149h-.492v.498h.492v-.498zM19.738 15.22h-.492v.498h.492v-.498zM13.626 15.575h-.491v.498h.491v-.498zM14.4 15.575h-.492v.498h.491v-.498zM15.172 15.646h-.492v.499h.492v-.498zM15.945 15.717h-.492v.499h.492v-.499zM16.717 15.717h-.491v.499h.491v-.499zM17.49 15.789h-.492v.498h.492v-.498zM18.332 15.86h-.491v.498h.491v-.498zM19.105 15.931h-.491v.498h.491v-.498zM19.808 15.931h-.492v.498h.492v-.498zM13.908 16.358h-.492v.498h.492v-.498zM14.61 16.429h-.492v.498h.492v-.498zM15.383 16.429h-.492v.498h.492v-.498zM16.155 16.5h-.491v.498h.491V16.5zM16.928 16.5h-.492v.498h.492V16.5zM17.7 16.571h-.491v.498h.492v-.498zM18.473 16.571h-.492v.498h.492v-.498zM19.176 16.642h-.492v.498h.492v-.498zM19.948 16.642h-.492v.498h.492v-.498zM14.118 17.14h-.492v.498h.492v-.498zM14.82 17.211h-.49v.498h.49v-.498zM15.593 17.211h-.491v.498h.491v-.498zM16.296 17.211h-.492v.498h.492v-.498zM17.068 17.282h-.491v.498h.491v-.498zM17.84 17.282h-.49v.498h.49v-.498zM18.543 17.353h-.491v.498h.491v-.498zM19.246 17.353h-.492v.498h.492v-.498zM20.018 17.353h-.491v.498h.491v-.498zM14.259 17.922h-.492v.498h.492v-.498zM14.961 17.922h-.491v.498h.491v-.498zM15.734 17.993h-.492v.499h.492v-.499zM16.436 17.993h-.492v.499h.492v-.499zM17.209 17.993h-.492v.499h.492v-.499zM17.911 17.993h-.492v.499h.492v-.499zM18.614 18.065h-.492v.498h.492v-.498zM19.316 18.065h-.492v.498h.492v-.498zM20.089 18.065h-.492v.498h.492v-.498zM14.4 18.633h-.492v.498h.491v-.498zM15.101 18.633h-.491v.498h.492v-.498zM15.804 18.705h-.492v.498h.492v-.498zM16.506 18.705h-.491v.498h.491v-.498zM17.28 18.705h-.492v.498h.491v-.498zM17.981 18.705h-.491v.498h.491v-.498zM18.684 18.705h-.492v.498h.492v-.498zM19.386 18.776h-.491v.498h.491v-.498zM20.089 18.776h-.492v.498h.492v-.498zM14.47 19.345h-.492v.498h.492v-.498zM15.172 19.345h-.492v.498h.492v-.498zM15.874 19.416h-.491v.498h.492v-.498zM16.577 19.416h-.492v.498h.492v-.498zM17.28 19.416h-.492v.498h.491v-.498zM17.981 19.416h-.491v.498h.491v-.498zM18.684 19.416h-.492v.498h.492v-.498zM19.386 19.416h-.491v.498h.491v-.498zM20.089 19.416h-.492v.498h.492v-.498zM14.54 20.056h-.492v.498h.492v-.498zM15.242 20.056h-.492v.498h.492v-.498zM15.945 20.056h-.492v.498h.492v-.498zM16.647 20.056h-.492v.498h.492v-.498zM17.35 20.056h-.493v.498h.492v-.498zM18.052 20.056h-.492v.498h.492v-.498zM18.754 20.056h-.491v.498h.491v-.498zM19.456 20.127h-.491v.498h.491v-.498zM20.16 20.127h-.492v.498h.491v-.498zM14.54 20.767h-.492v.498h.492v-.498zM15.242 20.767h-.492v.498h.492v-.498zM15.945 20.767h-.492v.498h.492v-.498zM16.647 20.767h-.492v.498h.492v-.498zM17.35 20.767h-.493v.498h.492v-.498zM18.052 20.767h-.492v.498h.492v-.498zM18.754 20.767h-.491v.498h.491v-.498zM19.456 20.767h-.491v.498h.491v-.498zM20.16 20.767h-.492v.498h.491v-.498zM14.61 21.407h-.492v.498h.492v-.498zM15.313 21.407h-.492v.498h.492v-.498zM15.945 21.407h-.492v.498h.492v-.498zM16.647 21.407h-.492v.498h.492v-.498zM17.35 21.407h-.493v.498h.492v-.498zM18.052 21.407h-.492v.498h.492v-.498zM18.754 21.407h-.491v.498h.491v-.498zM19.456 21.407h-.491v.498h.491v-.498zM20.16 21.407h-.492v.498h.491v-.498zM14.61 22.118h-.492v.499h.492v-.499zM15.313 22.118h-.492v.499h.492v-.499zM16.015 22.118h-.492v.499h.492v-.499zM16.647 22.118h-.492v.499h.492v-.499zM17.35 22.118h-.493v.499h.492v-.499zM18.052 22.118h-.492v.499h.492v-.499zM18.754 22.118h-.491v.499h.491v-.499zM19.456 22.118h-.491v.499h.491v-.499zM20.16 22.118h-.492v.499h.491v-.499zM14.61 22.759h-.492v.498h.492v-.498zM15.313 22.759h-.492v.498h.492v-.498zM16.015 22.759h-.492v.498h.492v-.498zM16.647 22.759h-.492v.498h.492v-.498zM17.35 22.759h-.493v.498h.492v-.498zM18.052 22.759h-.492v.498h.492v-.498zM18.754 22.759h-.491v.498h.491v-.498zM19.456 22.759h-.491v.498h.491v-.498zM20.16 22.759h-.492v.498h.491v-.498zM7.024 23.825l-.28.143h.28v-.143zM7.726 23.968v-.356l-.561.213v.143h.561zM8.359 23.968c0-.214-.07-.498-.07-.498-.14 0-.281.07-.422.07v.357h.492v.07zM14.61 23.398h-.492v.499h.492v-.499zM15.313 23.398h-.492v.499h.492v-.499zM16.015 23.398h-.492v.499h.492v-.499zM16.647 23.398h-.492v.499h.492v-.499zM17.35 23.398h-.493v.499h.492v-.499zM18.052 23.398h-.492v.499h.492v-.499zM18.754 23.398h-.491v.499h.491v-.499zM19.456 23.398h-.491v.499h.491v-.499zM20.16 23.398h-.492v.499h.491v-.499zM4.917 24.536l-.14.07h.14v-.07zM5.62 24.608v-.285l-.493.143v.142h.492zM6.322 24.608v-.498l-.492.142v.356h.492zM7.024 24.11h-.492v.498h.492v-.498zM7.656 24.11h-.491v.498h.491v-.498zM8.359 24.11h-.492v.498h.492v-.498zM8.64 24.608c0-.072 0-.072-.07-.143l.07.143zM13.908 24.323c0 .071 0 .214-.07.285h.07v-.285zM14.61 24.11h-.492v.498h.492v-.498zM15.313 24.11h-.492v.498h.492v-.498zM16.015 24.11h-.492v.498h.492v-.498zM16.647 24.11h-.492v.498h.492v-.498zM17.35 24.11h-.493v.498h.492v-.498zM18.052 24.11h-.492v.498h.492v-.498zM18.754 24.11h-.491v.498h.491v-.498zM19.456 24.11h-.491v.498h.491v-.498zM20.16 24.11h-.492v.498h.491v-.498zM3.582 25.248v-.214l-.561.143v.07h.561zM4.214 25.248v-.498l-.491.213v.285h.491zM4.917 24.75h-.492v.498h.492v-.498zM5.62 24.75h-.493v.498h.492v-.498zM6.322 24.75H5.83v.498h.492v-.498zM7.024 24.75h-.492v.498h.492v-.498zM7.656 24.75h-.491v.498h.491v-.498zM8.359 24.75h-.492v.498h.492v-.498zM8.57 25.248h.35c-.07-.142-.14-.356-.21-.498h-.14v.498zM13.908 24.75c-.07.142-.141.356-.211.498h.21v-.498zM14.61 24.75h-.492v.498h.492v-.498zM15.313 24.75h-.492v.498h.492v-.498zM16.015 24.75h-.492v.498h.492v-.498zM16.647 24.75h-.492v.498h.492v-.498zM17.35 24.75h-.493v.498h.492v-.498zM18.052 24.75h-.492v.498h.492v-.498zM18.754 24.75h-.491v.498h.491v-.498zM19.456 24.75h-.491v.498h.491v-.498zM19.668 24.75v.498h.491c0-.142.07-.356.07-.498h-.561zM2.88 25.39h-.351c-.07 0-.07.071-.07.071 0 .142.07.285.07.427h.421l-.07-.498zM3.512 25.39h-.491v.498h.491v-.498zM4.214 25.39h-.491v.498h.491v-.498zM4.917 25.39h-.492v.498h.492v-.498zM5.62 25.39h-.493v.498h.492v-.498zM6.322 25.39H5.83v.498h.492v-.498zM7.024 25.39h-.492v.498h.492v-.498zM7.656 25.39h-.491v.498h.491v-.498zM8.359 25.39h-.492v.498h.492v-.498zM8.57 25.96h.491v-.428c0-.07-.07-.07-.07-.142h-.422v.57zM9.412 25.959l-.14-.142v.142h.14zM13.908 25.96v-.5h-.281c-.07.143-.14.357-.281.5h.562zM14.61 25.39h-.492v.498h.492v-.498zM15.313 25.39h-.492v.498h.492v-.498zM16.015 25.39h-.492v.498h.492v-.498zM16.647 25.39h-.492v.498h.492v-.498zM17.35 25.39h-.493v.498h.492v-.498zM18.052 25.39h-.492v.498h.492v-.498zM18.754 25.39h-.491v.498h.491v-.498zM19.456 25.39h-.491v.498h.491v-.498zM19.668 25.96h.35c.07-.143.07-.357.07-.5h-.42v.5zM2.88 26.101h-.351c.07.142.07.356.14.498h.281l-.07-.498zM3.512 26.101h-.491v.498h.491v-.498zM4.214 26.101h-.491v.498h.491v-.498zM4.917 26.101h-.492v.498h.492v-.498zM5.62 26.101h-.493v.498h.492v-.498zM6.322 26.101H5.83v.498h.492v-.498zM7.024 26.101h-.492v.498h.492v-.498zM7.656 26.101h-.491v.498h.491v-.498zM8.359 26.101h-.492v.498h.492v-.498zM9.061 26.101h-.492v.498h.492v-.498zM9.272 26.6h.492v-.357l-.211-.213h-.281v.57zM10.396 26.599l-.422-.213v.213h.422zM13.205 26.6V26.1c-.14.142-.351.285-.492.356v.142h.492zM13.908 26.101h-.492v.498h.492v-.498zM14.61 26.101h-.492v.498h.492v-.498zM15.313 26.101h-.492v.498h.492v-.498zM16.015 26.101h-.492v.498h.492v-.498zM16.647 26.101h-.492v.498h.492v-.498zM17.35 26.101h-.493v.498h.492v-.498zM18.052 26.101h-.492v.498h.492v-.498zM18.754 26.101h-.491v.498h.491v-.498zM19.456 26.101h-.491v.498h.491v-.498zM19.668 26.6h.21c.07-.143.07-.357.14-.499h-.35v.498zM2.88 26.741h-.211c.07.143.07.356.14.498h.07v-.498zM3.512 26.741h-.491v.498h.491v-.498zM4.214 26.741h-.491v.498h.491v-.498zM4.917 26.741h-.492v.498h.492v-.498zM5.62 26.741h-.493v.498h.492v-.498zM6.322 26.741H5.83v.498h.492v-.498zM7.024 26.741h-.492v.498h.492v-.498zM7.656 26.741h-.491v.498h.491v-.498zM8.359 26.741h-.492v.498h.492v-.498zM9.061 26.741h-.492v.498h.492v-.498zM9.764 26.741h-.492v.498h.492v-.498zM10.466 26.741h-.492v.498h.492v-.498zM10.677 27.24h.491v-.499h-.491v.498zM11.87 27.24v-.499h-.561v.498h.562zM12.503 26.741h-.492v.498h.492v-.498zM13.205 26.741h-.492v.498h.492v-.498zM13.908 26.741h-.492v.498h.492v-.498zM14.61 26.741h-.492v.498h.492v-.498zM15.313 26.741h-.492v.498h.492v-.498zM16.015 26.741h-.492v.498h.492v-.498zM16.647 26.741h-.492v.498h.492v-.498zM17.35 26.741h-.493v.498h.492v-.498zM18.052 26.741h-.492v.498h.492v-.498zM18.754 26.741h-.491v.498h.491v-.498zM19.456 26.741h-.491v.498h.491v-.498zM19.668 27.24c.07-.143.14-.356.14-.499h-.14v.498zM3.512 27.381h-.491v.498h.491v-.498zM4.214 27.381h-.491v.498h.491v-.498zM4.917 27.381h-.492v.498h.492v-.498zM5.62 27.381h-.493v.498h.492v-.498zM6.322 27.381H5.83v.498h.492v-.498zM7.024 27.381h-.492v.498h.492v-.498zM7.656 27.381h-.491v.498h.491v-.498zM8.359 27.381h-.492v.498h.492v-.498zM9.061 27.381h-.492v.498h.492v-.498zM9.764 27.381h-.492v.498h.492v-.498zM10.466 27.381h-.492v.498h.492v-.498zM11.168 27.381h-.491v.498h.491v-.498zM11.8 27.381h-.491v.498h.491v-.498zM12.503 27.381h-.492v.498h.492v-.498zM13.205 27.381h-.492v.498h.492v-.498zM13.908 27.381h-.492v.498h.492v-.498zM14.61 27.381h-.492v.498h.492v-.498zM15.313 27.381h-.492v.498h.492v-.498zM16.015 27.381h-.492v.498h.492v-.498zM16.647 27.381h-.492v.498h.492v-.498zM17.35 27.381h-.493v.498h.492v-.498zM18.052 27.381h-.492v.498h.492v-.498zM18.754 27.381h-.491v.498h.491v-.498zM18.965 27.381v.498h.421c0-.07.07-.142.07-.213v-.285h-.491zM3.583 28.093H3.09c.07.142.14.355.21.498h.281v-.498zM4.214 28.093h-.491v.498h.491v-.498zM4.917 28.093h-.492v.498h.492v-.498zM5.62 28.093h-.493v.498h.492v-.498zM6.322 28.093H5.83v.498h.492v-.498zM7.024 28.093h-.492v.498h.492v-.498zM7.656 28.093h-.491v.498h.491v-.498zM8.359 28.093h-.492v.498h.492v-.498zM9.061 28.093h-.492v.498h.492v-.498zM9.764 28.093h-.492v.498h.492v-.498zM10.466 28.093h-.492v.498h.492v-.498zM11.168 28.093h-.491v.498h.491v-.498zM11.8 28.093h-.491v.498h.491v-.498zM12.503 28.093h-.492v.498h.492v-.498zM13.205 28.093h-.492v.498h.492v-.498zM13.908 28.093h-.492v.498h.492v-.498zM14.61 28.093h-.492v.498h.492v-.498zM15.313 28.093h-.492v.498h.492v-.498zM16.015 28.093h-.492v.498h.492v-.498zM16.647 28.093h-.492v.498h.492v-.498zM17.35 28.093h-.493v.498h.492v-.498zM18.052 28.093h-.492v.498h.492v-.498zM18.754 28.093h-.491v.498h.491v-.498zM18.965 28.59c.14-.142.28-.355.351-.497h-.351v.498zM3.372 28.733c.07.142.14.213.21.355v-.355h-.21zM4.214 28.733h-.491v.498h.491v-.498zM4.917 28.733h-.492v.498h.492v-.498zM5.62 28.733h-.493v.498h.492v-.498zM6.322 28.733H5.83v.498h.492v-.498zM7.024 28.733h-.492v.498h.492v-.498zM7.656 28.733h-.491v.498h.491v-.498zM8.359 28.733h-.492v.498h.492v-.498zM9.061 28.733h-.492v.498h.492v-.498zM9.764 28.733h-.492v.498h.492v-.498zM10.466 28.733h-.492v.498h.492v-.498zM11.168 28.733h-.491v.498h.491v-.498zM11.8 28.733h-.491v.498h.491v-.498zM12.503 28.733h-.492v.498h.492v-.498zM13.205 28.733h-.492v.498h.492v-.498zM13.908 28.733h-.492v.498h.492v-.498zM14.61 28.733h-.492v.498h.492v-.498zM15.313 28.733h-.492v.498h.492v-.498zM16.015 28.733h-.492v.498h.492v-.498zM16.647 28.733h-.492v.498h.492v-.498zM17.35 28.733h-.493v.498h.492v-.498zM18.052 28.733h-.492v.498h.492v-.498zM18.263 28.733v.498h.421c.07-.071.07-.143.14-.143v-.355h-.561zM4.214 29.373h-.491c.14.142.21.355.35.498h.141v-.498zM4.917 29.373h-.492v.498h.492v-.498zM5.62 29.373h-.493v.498h.492v-.498zM6.322 29.373H5.83v.498h.492v-.498zM7.024 29.373h-.492v.498h.492v-.498zM7.656 29.373h-.491v.498h.491v-.498zM8.359 29.373h-.492v.498h.492v-.498zM9.061 29.373h-.492v.498h.492v-.498zM9.764 29.373h-.492v.498h.492v-.498zM10.466 29.373h-.492v.498h.492v-.498zM11.168 29.373h-.491v.498h.491v-.498zM11.8 29.373h-.491v.498h.491v-.498zM12.503 29.373h-.492v.498h.492v-.498zM13.205 29.373h-.492v.498h.492v-.498zM13.908 29.373h-.492v.498h.492v-.498zM14.61 29.373h-.492v.498h.492v-.498zM15.313 29.373h-.492v.498h.492v-.498zM16.015 29.373h-.492v.498h.492v-.498zM16.647 29.373h-.492v.498h.492v-.498zM17.35 29.373h-.493v.498h.492v-.498zM18.052 29.373h-.492v.498h.492v-.498zM18.263 29.8c.07-.143.21-.285.28-.356h-.28v.356zM4.917 30.013h-.492v.284l.211.214h.281v-.498zM5.62 30.013h-.493v.498h.492v-.498zM6.322 30.013H5.83v.498h.492v-.498zM7.024 30.013h-.492v.498h.492v-.498zM7.656 30.013h-.491v.498h.491v-.498zM8.359 30.013h-.492v.498h.492v-.498zM9.061 30.013h-.492v.498h.492v-.498zM9.764 30.013h-.492v.498h.492v-.498zM10.466 30.013h-.492v.498h.492v-.498zM11.168 30.013h-.491v.498h.491v-.498zM11.8 30.013h-.491v.498h.491v-.498zM12.503 30.013h-.492v.498h.492v-.498zM13.205 30.013h-.492v.498h.492v-.498zM13.908 30.013h-.492v.498h.492v-.498zM14.61 30.013h-.492v.498h.492v-.498zM15.313 30.013h-.492v.498h.492v-.498zM16.015 30.013h-.492v.498h.492v-.498zM16.647 30.013h-.492v.498h.492v-.498zM17.35 30.013h-.493v.498h.492v-.498zM17.56 30.51l.492-.497h-.492v.498zM4.776 30.724l.14.142v-.142h-.14zM5.62 30.724h-.493v.356l.211.213h.281v-.569zM6.322 30.724H5.83v.498h.492v-.498zM7.024 30.724h-.492v.498h.492v-.498zM7.656 30.724h-.491v.498h.491v-.498zM8.359 30.724h-.492v.498h.492v-.498zM9.061 30.724h-.492v.498h.492v-.498zM9.764 30.724h-.492v.498h.492v-.498zM10.466 30.724h-.492v.498h.492v-.498zM11.168 30.724h-.491v.498h.491v-.498zM11.8 30.724h-.491v.498h.491v-.498zM12.503 30.724h-.492v.498h.492v-.498zM13.205 30.724h-.492v.498h.492v-.498zM13.908 30.724h-.492v.498h.492v-.498zM14.61 30.724h-.492v.498h.492v-.498zM15.313 30.724h-.492v.498h.492v-.498zM16.015 30.724h-.492v.498h.492v-.498zM16.647 30.724h-.492v.498h.492v-.498zM16.857 31.151c.211-.142.352-.285.492-.427h-.492v.427zM5.549 31.364l.07.07v-.07h-.07zM5.83 31.364v.213c.14.143.351.214.492.285v-.498H5.83zM7.024 31.364h-.492v.498h.492v-.498zM7.656 31.364h-.491v.498h.491v-.498zM8.359 31.364h-.492v.498h.492v-.498zM9.061 31.364h-.492v.498h.492v-.498zM9.764 31.364h-.492v.498h.492v-.498zM10.466 31.364h-.492v.498h.492v-.498zM11.168 31.364h-.491v.498h.491v-.498zM11.8 31.364h-.491v.498h.491v-.498zM12.503 31.364h-.492v.498h.492v-.498zM13.205 31.364h-.492v.498h.492v-.498zM13.908 31.364h-.492v.498h.492v-.498zM14.61 31.364h-.492v.498h.492v-.498zM15.313 31.364h-.492v.498h.492v-.498zM15.523 31.364v.498h.21c.141-.071.211-.142.352-.142v-.356h-.562zM16.155 31.578c.14-.072.211-.143.351-.214h-.35v.213zM6.603 32.004l.421.214v-.214h-.421zM7.165 32.004v.285c.14.071.35.142.491.213v-.427l-.491-.07zM8.359 32.004h-.492v.498h.492v-.498zM9.061 32.004h-.492v.498h.492v-.498zM9.764 32.004h-.492v.498h.492v-.498zM10.466 32.004h-.492v.498h.492v-.498zM11.168 32.004h-.491v.498h.491v-.498zM11.8 32.004h-.491v.498h.491v-.498zM12.503 32.004h-.492v.498h.492v-.498zM13.205 32.004h-.492v.498h.492v-.498zM13.908 32.004h-.492v.498h.492v-.498zM14.118 32.004v.498c.14-.07.351-.142.492-.142v-.285l-.492-.07zM14.82 32.004v.214c.141-.072.352-.143.492-.214h-.491zM8.57 32.716c.14.07.35.07.491.142v-.142h-.492zM9.272 32.716v.142c.14 0 .351.071.492.071v-.213h-.492zM9.974 32.716v.213h.492v-.213h-.492zM10.677 32.716V33h.491v-.284h-.491zM11.309 32.716v.213h.491v-.213h-.491zM12.011 32.716v.213c.14 0 .351 0 .492-.071v-.142h-.492zM12.713 32.716v.142c.14 0 .352-.071.492-.071h-.492v-.071zM37.508 24.18c0 2.917-1.615 5.264-5.127 5.264-3.512 0-5.057-2.205-5.057-5.263v-9.246h-1.546v9.317c0 3.84 2.178 6.685 6.603 6.685 4.495 0 6.743-3.058 6.743-6.614v-9.317h-1.545l-.07 9.175zM47.483 14.864h-1.616l-.07 15.789 11.168.07v-1.422l-9.553-.07.07-14.367zM67.782 14.508c-4.636 0-8.148 3.485-8.148 8.25 0 4.694 3.442 8.25 8.148 8.25 4.706 0 8.218-3.484 8.218-8.25 0-4.693-3.512-8.25-8.218-8.25zm-.07 15.007c-3.794 0-6.603-2.916-6.533-6.756 0-3.912 2.81-6.757 6.603-6.757 3.863 0 6.602 2.916 6.602 6.757 0 3.911-2.81 6.827-6.673 6.756z"/>
</svg>
