<svg width="144" height="137" viewBox="0 0 144 137" fill="none" xmlns="http://www.w3.org/2000/svg">
<g clip-path="url(#clip0_699_17265)">
<path d="M97.3125 135.094H38.25C17.2969 135.094 0.28125 118.078 0.28125 97.125V38.0625C0.28125 17.1094 17.2969 0.09375 38.25 0.09375H97.3125C118.125 0.09375 135.281 17.1094 135.281 38.0625V97.125C135.281 118.078 118.266 135.094 97.3125 135.094Z" fill="#FAE78D"/>
<path d="M93.0938 126.656H42.3281C22.9219 126.656 7.17188 110.906 7.17188 91.6406V91.5C7.17188 72.0937 22.9219 56.3438 42.3281 56.3438H93.0938C112.5 56.3438 128.109 72.0938 128.109 91.3594V91.5C128.109 110.906 112.5 126.656 93.0938 126.656Z" fill="#F9DD60"/>
<path d="M73.125 51C72.1406 50.0156 72 49.3125 72 48.0469C72 46.7812 72.1406 45.0937 73.125 44.1094L96.4688 20.7656C97.4531 19.7812 98.7188 19.3594 99.9844 19.3594C101.25 19.3594 102.516 19.7812 103.5 20.7656L109.969 27.2344C110.953 28.2188 111.375 29.4844 111.375 30.75C111.375 32.0156 110.953 33.2812 109.969 34.2656L86.4844 57.4687C85.5 58.4531 84.2344 58.875 82.9688 58.875C81.7031 58.875 72.1406 62.6719 71.1563 61.6875L72.1406 64.7812C75.0937 67.7344 79.0312 69.2812 82.9688 69.2812C86.9062 69.2812 90.8438 67.7344 93.7969 64.7812L117.141 41.4375C120.094 38.4844 121.641 34.5469 121.641 30.6094C121.641 26.6719 120.094 22.7344 117.141 19.7812L110.672 13.3125C107.719 10.3594 103.781 8.8125 99.8438 8.8125C95.9063 8.8125 91.9687 10.3594 89.0156 13.3125L65.6719 36.6562C62.7188 39.6094 61.1719 43.5469 61.1719 47.4844C61.1719 51.4219 62.7188 55.3594 65.6719 58.3125L73.125 51Z" fill="#2891B5"/>
<path d="M67.7812 82.078C68.7656 83.0624 69.1875 84.328 69.1875 85.5937C69.1875 86.8593 68.7656 88.1249 67.7812 89.1093L44.4375 112.453C43.4531 113.437 42.1875 113.859 40.9219 113.859C39.6562 113.859 38.3906 113.437 37.4062 112.453L30.9375 105.984C29.9531 105 29.5312 103.734 29.5312 102.469C29.5312 101.203 29.9531 99.9374 30.9375 98.953L54.2813 75.6093C55.2656 74.6249 56.5313 74.203 57.7969 74.203C59.0625 74.203 60.3281 74.6249 61.3125 75.6093L68.625 68.2968C68.3437 67.5937 68.0625 66.6093 67.5 65.203C64.8281 63.2343 60.8906 63.7968 57.7969 63.7968C53.8594 63.7968 49.9219 65.3437 46.9688 68.2968L23.625 91.6405C20.6719 94.5937 19.125 98.5312 19.125 102.469C19.125 106.406 20.6719 110.344 23.625 113.297L30.0938 119.766C33.0469 122.719 36.9844 124.266 40.9219 124.266C44.8594 124.266 48.7969 122.719 51.75 119.766L75.0938 96.4218C78.0469 93.4687 79.5938 89.5312 79.5938 85.5937C79.5938 81.6562 78.0469 77.7187 75.0938 74.7655L66.7969 78.9843L67.7812 82.078Z" fill="#2891B5"/>
<path d="M72 48.0469C71.0156 47.0625 70.5938 45.7969 70.5938 44.5312C70.5938 43.2656 71.0156 42 72 41.0156L95.3437 17.6719C96.3281 16.6875 97.5937 16.2656 98.8594 16.2656C100.125 16.2656 101.391 16.6875 102.375 17.6719L108.844 24.1406C109.828 25.125 110.25 26.3906 110.25 27.6562C110.25 28.9219 109.828 30.1875 108.844 31.1719L85.5 54.5156C84.5156 55.5 83.25 55.9219 81.9844 55.9219C80.7187 55.9219 79.4531 55.5 78.4687 54.5156L71.1563 61.8281C74.1094 64.7813 78.0469 66.3281 81.9844 66.3281C85.9219 66.3281 89.8594 64.7813 92.8125 61.8281L116.156 38.4844C119.109 35.5312 120.656 31.5938 120.656 27.6562C120.656 23.7188 119.109 19.7812 116.156 16.8281L109.688 10.3594C106.734 7.40625 102.797 5.85938 98.8594 5.85938C94.9219 5.85938 90.9844 7.40625 88.0313 10.3594L64.6875 33.7031C61.7344 36.6562 60.1875 40.5938 60.1875 44.5312C60.1875 48.4688 61.7344 52.4062 64.6875 55.3594L72 48.0469Z" fill="#00ACF0"/>
<path d="M66.7969 79.125C67.7812 80.1094 68.2031 81.375 68.2031 82.6406C68.2031 83.9062 67.7812 85.1719 66.7969 86.1562L43.4531 109.5C42.4688 110.484 41.2031 110.906 39.9375 110.906C38.6719 110.906 37.4063 110.484 36.4219 109.5L29.9531 103.031C28.9688 102.047 28.5469 100.781 28.5469 99.5156C28.5469 98.25 28.9688 96.9844 29.9531 96L53.2969 72.6562C54.2812 71.6719 55.5469 71.25 56.8125 71.25C58.0781 71.25 59.3438 71.6719 60.3281 72.6562L67.6406 65.3438C64.6875 62.3906 60.75 60.8438 56.8125 60.8438C52.875 60.8438 48.9375 62.3906 45.9844 65.3438L22.6406 88.6875C19.6875 91.6406 18.1406 95.5781 18.1406 99.5156C18.1406 103.453 19.6875 107.391 22.6406 110.344L29.1094 116.812C32.0625 119.766 36 121.312 39.9375 121.312C43.875 121.312 47.8125 119.766 50.7656 116.812L74.1094 93.4688C77.0625 90.5156 78.6094 86.5781 78.6094 82.6406C78.6094 78.7031 77.0625 74.7656 74.1094 71.8125L66.7969 79.125Z" fill="#00ACF0"/>
<path d="M46.125 30.8907L49.5 42.5626C49.9219 44.1095 51.4688 44.9532 53.0156 44.5313C54.5625 44.1094 55.4063 42.5626 54.9844 41.0157L51.6094 29.3438C51.1875 27.7969 49.6406 26.9532 48.0938 27.3751C46.5469 27.9376 45.7031 29.4845 46.125 30.8907Z" fill="white"/>
<path d="M30.2344 60.4219L42.3281 58.7344C43.875 58.4531 45 57.0469 44.7188 55.5C44.4375 53.9531 43.0313 52.8281 41.4844 53.1094L29.3906 54.7969C27.8438 55.0781 26.7188 56.4844 27 58.0313C27.2813 59.5781 28.6875 60.5625 30.2344 60.4219Z" fill="white"/>
<path d="M31.7812 40.5937L42.3281 49.3125C43.4531 50.2969 45.2812 50.1563 46.2656 48.8906C47.25 47.7656 47.1094 45.9375 45.8438 44.9531L35.2969 36.2344C34.1719 35.25 32.3438 35.3906 31.3594 36.6562C30.375 37.9219 30.5156 39.6094 31.7812 40.5937Z" fill="white"/>
<path d="M88.3125 98.3907L84.9375 86.7188C84.5156 85.1719 82.9688 84.3282 81.4219 84.7501C79.875 85.172 79.0313 86.7188 79.4531 88.2657L82.8281 99.9376C83.25 101.484 84.7969 102.328 86.3438 101.906C87.8906 101.484 88.7344 99.9376 88.3125 98.3907Z" fill="white"/>
<path d="M104.203 69L92.1094 70.6875C90.5625 70.9688 89.4375 72.375 89.7188 73.9219C90 75.4688 91.4063 76.5938 92.9531 76.3125L105.047 74.625C106.594 74.3438 107.719 72.9375 107.438 71.3906C107.156 69.8438 105.75 68.7188 104.203 69Z" fill="white"/>
<path d="M102.797 88.8281L92.25 80.1094C91.125 79.125 89.2969 79.2656 88.3125 80.5312C87.3281 81.6562 87.4688 83.4844 88.7344 84.4687L99.2812 93.1875C100.406 94.1719 102.234 94.0313 103.219 92.7656C104.062 91.5 103.922 89.8125 102.797 88.8281Z" fill="white"/>
<path opacity="0.67" d="M88.4531 47.0625V71.1094L95.625 86.1562L109.688 90.0937L94.3594 97.9687L87.6094 113.297L87.75 131.016L136.687 132C136.687 132 135.281 113.859 135.422 113.578C135.562 113.297 132.891 102.75 132.891 102.75L125.578 94.7344L117.703 90.7969C117.703 90.7969 126.422 85.4531 127.547 84.8906C128.812 84.1875 136.406 73.6406 136.406 73.6406V47.3437L88.4531 47.0625Z" fill="#FAEFC3"/>
<path d="M87.3281 133.547H90.1406V116.391C90.1406 105.141 98.0156 95.5781 108.984 93.1875C110.391 92.9062 111.234 91.6406 111.234 90.2344C111.094 88.8281 109.969 87.7031 108.562 87.7031C98.0156 87.1406 89.5781 78.4219 89.5781 67.7344V48.3281H133.734V67.7344C133.734 78.2812 125.438 87.1406 114.75 87.7031C113.344 87.8438 112.219 88.8281 112.078 90.2344C111.938 91.6406 112.922 92.9062 114.328 93.1875C125.297 95.4375 133.172 105.141 133.172 116.391V130.734H87.1875V133.547H90H87.3281V136.359H135.984C136.688 136.359 137.391 136.078 137.953 135.516C138.516 134.953 138.797 134.25 138.797 133.547V116.391C138.797 102.609 129.094 90.6562 115.594 87.8438L115.031 90.5156L115.172 93.3281C128.672 92.625 139.359 81.375 139.359 67.875V45.6563C139.359 44.9531 139.078 44.25 138.516 43.6875C137.953 43.125 137.25 42.8438 136.547 42.8438H86.7656C86.0625 42.8438 85.3594 43.125 84.7969 43.6875C84.2344 44.25 83.9531 44.9531 83.9531 45.6563V67.875C83.9531 81.5156 94.6406 92.625 108.141 93.3281L108.281 90.5156L107.719 87.8438C94.2188 90.6562 84.5156 102.609 84.5156 116.391V133.547C84.5156 134.25 84.7969 134.953 85.3594 135.516C85.9219 136.078 86.625 136.359 87.3281 136.359V133.547Z" fill="#F6C957"/>
<path d="M140.062 48.6094H83.3906C81.4219 48.6094 79.875 47.0625 79.875 45.0938C79.875 43.125 81.4219 41.5781 83.3906 41.5781H140.062C142.031 41.5781 143.578 43.125 143.578 45.0938C143.578 47.0625 142.031 48.6094 140.062 48.6094Z" fill="#F09537"/>
<path d="M140.062 136.922H83.3906C81.4219 136.922 79.875 135.375 79.875 133.406C79.875 131.438 81.4219 129.891 83.3906 129.891H140.062C142.031 129.891 143.578 131.438 143.578 133.406C143.578 135.375 142.031 136.922 140.062 136.922Z" fill="#F09537"/>
<path d="M129.375 126.375H94.3594V113.016C94.3594 107.531 98.8594 103.031 104.344 103.031H119.391C124.875 103.031 129.375 107.531 129.375 113.016V126.375Z" fill="#F9DD60"/>
<path opacity="0.5" d="M102.094 51.2812V71.25C102.094 71.25 103.078 81.0938 110.953 86.1562C110.953 86.1562 93.6562 85.4531 91.5469 65.625V51.4219L102.094 51.2812Z" fill="white"/>
<path opacity="0.5" d="M102.375 128.766V109.781C102.375 109.781 103.359 100.359 110.812 95.5781C110.812 95.5781 94.3594 96.1406 92.3906 114.984V128.484L102.375 128.766Z" fill="white"/>
<path opacity="0.5" d="M117.703 47.3438L122.344 42.7031H131.625L126.984 47.3438H117.703Z" fill="white"/>
<path opacity="0.5" d="M129.234 47.3438L133.875 42.7031H139.641C140.906 42.7031 141.891 43.6875 141.891 44.9531C141.891 46.2188 140.906 47.2031 139.641 47.2031H129.234V47.3438Z" fill="white"/>
<path d="M58.0781 96.7031L56.3906 109.641L61.875 104.438L63.5625 90.9375L58.0781 96.7031Z" fill="#5DCEE8"/>
<path d="M50.9063 103.453L49.2188 116.391L54.5625 111.328L56.3906 97.6875L50.9063 103.453Z" fill="#5DCEE8"/>
<path d="M62.5781 69.1406L63.2812 63.2344C63.2812 63.2344 61.0312 61.9688 59.0625 61.9688L58.2188 69.5625C58.2188 69.5625 60.0469 70.4062 60.3281 71.25L62.5781 69.1406Z" fill="#5DCEE8"/>
<path d="M57.9375 61.8281L57.0938 69.5625C57.0938 69.5625 54.7031 69.1406 52.4531 71.5312L53.1563 62.6718C53.1563 62.5312 55.2656 61.5468 57.9375 61.8281Z" fill="#5DCEE8"/>
<path d="M64.4063 54.0938L65.9531 33.8438C65.9531 33.8438 57.5157 41.1563 64.4063 54.0938Z" fill="#5DCEE8"/>
</g>
<defs>
<clipPath id="clip0_699_17265">
<rect width="143.297" height="136.828" fill="white" transform="translate(0.28125 0.09375)"/>
</clipPath>
</defs>
</svg>
