<svg xmlns="http://www.w3.org/2000/svg" width="73" height="120" fill="none" viewBox="0 0 73 120">
    <path fill="#fff" d="M28.718 63.344l-.12.04.12-.04zM7.446 0H6.06v1.393h1.386V0zM12.517 1.831H11.13v1.394h1.387V1.83zM17.864 3.822h-1.387v1.394h1.387V3.822zM23.211 5.853h-1.386v1.393h1.386V5.853zM28.558 7.843h-1.386v1.394h1.386V7.843zM33.747 9.754h-1.386v1.394h1.386V9.754zM38.738 11.546h-1.386v1.394h1.386v-1.394zM43.53 13.179h-1.386v1.393h1.387V13.18zM47.967 14.691H46.58v1.394h1.386V14.69zM12.992 4.977h-1.387V6.37h1.387V4.977zM17.547 6.53h-1.386v1.393h1.386V6.53zM22.26 8.162h-1.386v1.393h1.386V8.162zM27.053 9.874h-1.386v1.393h1.386V9.874zM31.885 11.546H30.5v1.394h1.386v-1.394zM36.6 13.179h-1.387v1.393h1.386V13.18zM41.154 14.691h-1.386v1.394h1.386V14.69zM45.511 16.125h-1.386v1.393h1.386v-1.393zM49.63 17.439h-1.386v1.393h1.386V17.44zM17.983 9.675h-1.387v1.393h1.387V9.675zM22.062 10.949h-1.386v1.393h1.386V10.95zM26.3 12.303h-1.386v1.393H26.3v-1.393zM30.618 13.696h-1.386v1.393h1.386v-1.393zM34.936 15.09h-1.387v1.393h1.387v-1.394zM39.214 16.483h-1.387v1.393h1.387v-1.393zM43.372 17.837h-1.386v1.393h1.386v-1.393zM47.412 19.031h-1.386v1.394h1.386V19.03zM51.215 20.146h-1.386v1.393h1.386v-1.393zM22.459 14.054h-1.387v1.394h1.387v-1.394zM26.103 15.05h-1.387v1.393h1.387V15.05zM29.945 16.204h-1.386v1.394h1.386v-1.394zM33.866 17.36H32.48v1.393h1.386v-1.394zM37.787 18.553h-1.386v1.394h1.386v-1.394zM41.669 19.708h-1.386v1.394h1.386v-1.394zM45.472 20.783h-1.387v1.393h1.387v-1.393zM49.155 21.818H47.77v1.394h1.386v-1.394zM52.68 22.774h-1.386v1.393h1.386v-1.393zM26.38 18.116h-1.386v1.393h1.386v-1.393zM29.707 18.951h-1.386v1.394h1.386v-1.393zM33.193 19.867h-1.387v1.394h1.387v-1.394zM36.757 20.823h-1.386v1.393h1.386v-1.393zM40.322 21.818h-1.386v1.394h1.386v-1.394zM43.887 22.774h-1.386v1.393h1.386v-1.393zM47.373 23.69h-1.387v1.393h1.387V23.69zM50.74 24.565h-1.387v1.394h1.386v-1.394zM53.987 25.362h-1.386v1.393h1.386v-1.393zM29.826 21.898h-1.387v1.393h1.387v-1.393zM32.876 22.575h-1.387v1.393h1.387v-1.393zM36.084 23.331h-1.386v1.394h1.386V23.33zM39.332 24.127h-1.386v1.394h1.386v-1.394zM42.62 24.924h-1.387v1.393h1.387v-1.393zM45.868 25.72H44.48v1.394h1.387V25.72zM49.076 26.477H47.69v1.393h1.386v-1.393zM52.205 27.193H50.82v1.394h1.386v-1.394zM55.215 27.87H53.83v1.393h1.386V27.87zM32.797 25.401H31.41v1.394h1.387v-1.394zM35.648 25.959h-1.386v1.393h1.386V25.96zM38.58 26.556h-1.387v1.393h1.387v-1.393zM41.59 27.193h-1.386v1.394h1.386v-1.394zM44.6 27.87h-1.386v1.393H44.6V27.87zM47.61 28.507h-1.386V29.9h1.386v-1.393zM50.581 29.144h-1.386v1.393h1.386v-1.393zM53.473 29.701h-1.387v1.394h1.387V29.7zM56.324 30.259h-1.386v1.393h1.386V30.26zM35.371 28.666h-1.386v1.394h1.386v-1.394zM38.025 29.104h-1.386v1.394h1.386v-1.394zM40.758 29.582h-1.386v1.393h1.386v-1.393zM43.53 30.1h-1.386v1.393h1.387V30.1zM46.303 30.657h-1.386v1.393h1.386v-1.393zM49.115 31.175H47.73v1.393h1.386v-1.393zM51.849 31.692h-1.387v1.394h1.387v-1.394zM54.582 32.17h-1.387v1.393h1.387V32.17zM57.235 32.608H55.85V34h1.386v-1.393zM37.55 31.732h-1.387v1.393h1.386v-1.393zM40.005 32.05H38.62v1.394h1.386V32.05zM42.58 32.449h-1.386v1.393h1.386V32.45zM45.194 32.847h-1.386v1.393h1.386v-1.393zM47.809 33.285h-1.387v1.393h1.387v-1.393zM50.423 33.723h-1.386v1.393h1.386v-1.393zM52.997 34.12h-1.386v1.394h1.386v-1.393zM55.532 34.519h-1.386v1.393h1.386V34.52zM58.028 34.837h-1.386v1.394h1.386v-1.394zM39.332 34.559h-1.386v1.393h1.386V34.56zM41.709 34.837h-1.387v1.394h1.387v-1.394zM44.125 35.156h-1.387v1.393h1.387v-1.393zM46.58 35.474h-1.386v1.394h1.387v-1.394zM49.036 35.793H47.65v1.394h1.386v-1.394zM51.492 36.111h-1.386v1.394h1.386V36.11zM53.908 36.43h-1.386v1.393h1.386V36.43zM56.324 36.748h-1.386v1.394h1.386v-1.394zM58.7 37.027h-1.386v1.394h1.387v-1.394zM40.837 37.226h-1.386v1.394h1.386v-1.394zM43.134 37.425h-1.386v1.394h1.386v-1.394zM45.432 37.664h-1.387v1.394h1.387v-1.394zM47.73 37.943h-1.387v1.394h1.386v-1.394zM50.066 38.182H48.68v1.393h1.386v-1.393zM52.403 38.42h-1.386v1.394h1.386v-1.393zM54.74 38.7h-1.386v1.393h1.386v-1.394zM56.998 38.938H55.61v1.394h1.387v-1.394zM59.255 39.137H57.87v1.394h1.386v-1.394zM42.065 39.695h-1.386v1.393h1.386v-1.393zM44.244 39.854h-1.387v1.394h1.387v-1.394zM46.462 40.053h-1.386v1.394h1.386v-1.394zM48.68 40.252h-1.386v1.394h1.386v-1.394zM50.898 40.451h-1.386v1.394h1.386V40.45zM53.116 40.65H51.73v1.394h1.386V40.65zM55.334 40.85h-1.386v1.393h1.386v-1.394zM57.513 41.048h-1.386v1.394h1.386v-1.394zM59.691 41.208h-1.386V42.6h1.386v-1.393zM43.055 42.084H41.67v1.393h1.386v-1.393zM45.154 42.203h-1.386v1.393h1.386v-1.393zM47.294 42.323h-1.387v1.393h1.387v-1.393zM49.433 42.482h-1.387v1.393h1.387v-1.393zM51.571 42.641h-1.386v1.394h1.386V42.64zM53.71 42.8h-1.386v1.394h1.387V42.8zM55.85 42.92h-1.387v1.393h1.386V42.92zM57.948 43.04h-1.386v1.393h1.386v-1.394zM60.048 43.199h-1.386v1.393h1.386v-1.393zM43.847 44.313h-1.386v1.394h1.386v-1.394zM45.868 44.393H44.48v1.393h1.387v-1.393zM47.927 44.512h-1.386v1.394h1.386v-1.394zM50.026 44.632H48.64v1.393h1.386v-1.393zM52.086 44.711H50.7v1.394h1.386V44.71zM54.146 44.83H52.76v1.394h1.386v-1.393zM56.245 44.95H54.86v1.394h1.386V44.95zM58.305 45.07h-1.386v1.393h1.386V45.07zM60.285 45.15H58.9v1.393h1.386v-1.394zM44.441 46.463h-1.386v1.394h1.386v-1.394zM46.422 46.503h-1.386v1.394h1.386v-1.394zM48.443 46.583h-1.387v1.393h1.387v-1.393zM50.462 46.662h-1.386v1.394h1.386v-1.394zM52.483 46.742h-1.387v1.393h1.387v-1.393zM54.502 46.822h-1.386v1.393h1.386v-1.394zM56.523 46.901h-1.387v1.394h1.387V46.9zM58.543 46.98h-1.387v1.394h1.387v-1.393zM60.523 47.06h-1.386v1.394h1.386V47.06zM44.877 48.494h-1.386v1.393h1.386v-1.393zM46.858 48.573h-1.386v1.394h1.386v-1.394zM48.839 48.613h-1.387v1.394h1.387v-1.394zM50.819 48.653h-1.386v1.394h1.386v-1.394zM52.76 48.733h-1.386v1.393h1.386v-1.393zM54.74 48.772h-1.386v1.394h1.386v-1.394zM56.72 48.812h-1.386v1.394h1.386v-1.394zM58.7 48.892h-1.386v1.393h1.387v-1.393zM60.642 48.892h-1.387v1.393h1.387v-1.393zM45.194 50.484h-1.386v1.394h1.386v-1.394zM47.135 50.524h-1.386v1.394h1.386v-1.394zM49.076 50.564H47.69v1.394h1.386v-1.394zM51.056 50.604H49.67v1.393h1.386v-1.393zM52.958 50.644H51.57v1.393h1.387v-1.393zM54.938 50.644h-1.386v1.393h1.386v-1.393zM56.879 50.723h-1.386v1.394h1.386v-1.394zM58.78 50.723h-1.386v1.394h1.386v-1.394zM60.721 50.763h-1.386v1.394h1.386v-1.394zM45.432 52.395h-1.387v1.394h1.387v-1.394zM47.333 52.435h-1.386v1.394h1.386v-1.394zM49.274 52.475h-1.386v1.394h1.386v-1.394zM51.215 52.475h-1.386v1.394h1.386v-1.394zM53.116 52.475H51.73v1.394h1.386v-1.394zM55.057 52.515h-1.386v1.393h1.386v-1.393zM56.958 52.555h-1.386v1.393h1.386v-1.393zM58.86 52.555h-1.387v1.393h1.386v-1.393zM60.76 52.555h-1.386v1.393h1.387v-1.393zM45.59 54.307h-1.386V55.7h1.386v-1.393zM47.492 54.307h-1.386V55.7h1.386v-1.393zM49.393 54.307h-1.387V55.7h1.387v-1.393zM51.294 54.307h-1.386V55.7h1.386v-1.393zM53.195 54.346H51.81v1.394h1.386v-1.394zM55.136 54.346H53.75v1.394h1.386v-1.394zM57.038 54.386H55.65v1.394h1.387v-1.394zM58.939 54.386h-1.387v1.394h1.387v-1.394zM60.84 54.386h-1.386v1.394h1.386v-1.394zM45.67 56.138h-1.387v1.393h1.386v-1.393zM47.57 56.138h-1.385v1.393h1.386v-1.393zM49.472 56.138h-1.386v1.393h1.386v-1.393zM51.373 56.138h-1.386v1.393h1.386v-1.393zM53.275 56.138h-1.387v1.393h1.387v-1.393zM55.176 56.178H53.79v1.394h1.386v-1.394zM57.038 56.178H55.65v1.394h1.387v-1.394zM58.939 56.178h-1.387v1.394h1.387v-1.394zM60.84 56.178h-1.386v1.394h1.386v-1.394zM45.749 57.97h-1.387v1.393h1.387v-1.394zM47.61 57.97h-1.386v1.393h1.386v-1.394zM49.512 57.97h-1.386v1.393h1.386v-1.394zM51.373 57.97h-1.386v1.393h1.386v-1.394zM53.275 57.97h-1.387v1.393h1.387v-1.394zM55.176 57.97H53.79v1.393h1.386v-1.394zM57.077 57.97h-1.386v1.393h1.386v-1.394zM58.939 57.97h-1.387v1.393h1.387v-1.394zM60.84 57.97h-1.386v1.393h1.386v-1.394zM45.749 59.761h-1.387v1.393h1.387v-1.393zM47.65 59.761h-1.386v1.393h1.386v-1.393zM49.551 59.761h-1.386v1.393h1.386v-1.393zM51.413 59.761h-1.387v1.393h1.387v-1.393zM53.275 59.761h-1.387v1.393h1.387v-1.393zM55.215 59.761H53.83v1.393h1.386v-1.393zM57.077 59.761h-1.386v1.393h1.386v-1.393zM58.939 59.761h-1.387v1.393h1.387v-1.393zM60.84 59.761h-1.386v1.393h1.386v-1.393zM45.749 61.593h-1.387v1.393h1.387v-1.393zM47.65 61.593h-1.386v1.393h1.386v-1.393zM49.551 61.593h-1.386v1.393h1.386v-1.393zM51.413 61.593h-1.387v1.393h1.387v-1.393zM53.314 61.593h-1.386v1.393h1.386v-1.393zM55.215 61.593H53.83v1.393h1.386v-1.393zM57.077 61.593h-1.386v1.393h1.386v-1.393zM58.939 61.593h-1.387v1.393h1.387v-1.393zM60.84 61.593h-1.386v1.393h1.386v-1.393zM25.033 64.539l-.634.239h.634v-.24zM26.934 64.778v-.876l-1.386.477v.398h1.386zM28.796 64.778c-.08-.598-.119-1.235-.238-1.274-.396.04-.752.12-1.148.278v.996h1.386zM45.749 63.344h-1.387v1.394h1.387v-1.394zM47.65 63.344h-1.386v1.394h1.386v-1.394zM49.551 63.344h-1.386v1.394h1.386v-1.394zM51.413 63.344h-1.387v1.394h1.387v-1.394zM53.314 63.344h-1.386v1.394h1.386v-1.394zM55.215 63.344H53.83v1.394h1.386v-1.394zM57.077 63.344h-1.386v1.394h1.386v-1.394zM58.939 63.344h-1.387v1.394h1.387v-1.394zM60.84 63.344h-1.386v1.394h1.386v-1.394zM19.409 66.41l-.396.12h.396v-.12zM21.27 66.53v-.717l-1.386.438v.279h1.386zM23.172 66.53v-1.354l-1.387.438v.915h1.387zM25.073 65.176h-1.387v1.393h1.387v-1.393zM26.934 65.176h-1.386v1.393h1.386v-1.393zM28.835 65.176H27.45v1.393h1.386v-1.393zM29.43 66.53c-.04-.12-.08-.2-.119-.32v.32h.12zM43.888 65.813c-.04.279-.08.518-.12.757h.12v-.757zM45.788 65.176h-1.386v1.393h1.386v-1.393zM47.65 65.176h-1.386v1.393h1.386v-1.393zM49.551 65.176h-1.386v1.393h1.386v-1.393zM51.413 65.176h-1.387v1.393h1.387v-1.393zM53.314 65.176h-1.386v1.393h1.386v-1.393zM55.215 65.176H53.83v1.393h1.386v-1.393zM57.077 65.176h-1.386v1.393h1.386v-1.393zM58.939 65.176h-1.387v1.393h1.387v-1.393zM60.84 65.176h-1.386v1.393h1.386v-1.393zM13.745 68.281l-.16.08h.16v-.08zM15.646 68.36v-.716l-1.387.478v.239h1.387zM17.507 68.361v-1.354l-1.386.478v.876h1.386zM19.409 66.928h-1.386v1.393h1.386v-1.393zM21.27 66.928h-1.386v1.393h1.386v-1.393zM23.172 66.928h-1.387v1.393h1.387v-1.393zM25.073 66.928h-1.387v1.393h1.387v-1.393zM26.934 66.928h-1.386v1.393h1.386v-1.393zM28.835 66.928H27.45v1.393h1.386v-1.393zM29.311 68.361h.911c-.277-.438-.475-.916-.673-1.394h-.277v1.394h.04zM43.887 66.928h-.198c-.119.478-.198.916-.356 1.393h.554v-1.393zM45.788 66.928h-1.386v1.393h1.386v-1.393zM47.65 66.928h-1.386v1.393h1.386v-1.393zM49.551 66.928h-1.386v1.393h1.386v-1.393zM51.413 66.928h-1.387v1.393h1.387v-1.393zM53.314 66.928h-1.386v1.393h1.386v-1.393zM55.215 66.928H53.83v1.393h1.386v-1.393zM57.077 66.928h-1.386v1.393h1.386v-1.393zM58.939 66.928h-1.387v1.393h1.387v-1.393zM59.454 66.928v1.393h1.267c.04-.438.119-.915.119-1.393h-1.386zM13.745 68.759h-1.03c-.159 0-.277.12-.277.279v.04c.04.358.118.716.197 1.075h1.11v-1.394zM15.646 68.759h-1.387v1.394h1.387v-1.394zM17.547 68.759h-1.386v1.394h1.386v-1.394zM19.409 68.759h-1.386v1.394h1.386v-1.394zM21.27 68.759h-1.386v1.394h1.386v-1.394zM23.172 68.759h-1.387v1.394h1.387v-1.394zM25.073 68.759h-1.387v1.394h1.387v-1.394zM26.934 68.759h-1.386v1.394h1.386v-1.394zM28.835 68.759H27.45v1.394h1.386v-1.394zM29.311 70.113h1.386v-1.075c-.079-.12-.158-.2-.198-.319h-1.148l-.04 1.394zM31.569 70.113c-.119-.12-.238-.279-.357-.398v.398h.357zM43.887 70.113v-1.394h-.713c-.198.438-.396.876-.673 1.274v.12h1.386zM45.788 68.759h-1.386v1.394h1.386v-1.394zM47.65 68.759h-1.386v1.394h1.386v-1.394zM49.551 68.759h-1.386v1.394h1.386v-1.394zM51.413 68.759h-1.387v1.394h1.387v-1.394zM53.314 68.759h-1.386v1.394h1.386v-1.394zM55.215 68.759H53.83v1.394h1.386v-1.394zM57.077 68.759h-1.386v1.394h1.386v-1.394zM58.939 68.759h-1.387v1.394h1.387v-1.394zM59.454 70.113h1.03c.118-.438.197-.916.197-1.394h-1.227v1.394zM13.744 70.511h-1.03c.12.478.198.916.317 1.394h.713V70.51zM15.646 70.511h-1.387v1.394h1.387V70.51zM17.547 70.511h-1.386v1.394h1.386V70.51zM19.409 70.511h-1.386v1.394h1.386V70.51zM21.27 70.511h-1.386v1.394h1.386V70.51zM23.172 70.511h-1.387v1.394h1.387V70.51zM25.073 70.511h-1.387v1.394h1.387V70.51zM26.934 70.511h-1.386v1.394h1.386V70.51zM28.835 70.511H27.45v1.394h1.386V70.51zM30.697 70.511h-1.386v1.394h1.386V70.51zM31.212 71.904H32.6v-.915c-.198-.16-.436-.319-.594-.478h-.793v1.394zM34.341 71.904c-.435-.159-.832-.358-1.228-.597v.597h1.228zM40.124 71.825c-.079.04-.158.04-.237.08h.237v-.08zM41.986 71.904v-1.313c-.396.438-.871.756-1.386.995v.279h1.386v.04zM43.887 70.511h-1.386v1.394h1.386V70.51zM45.788 70.511h-1.386v1.394h1.386V70.51zM47.65 70.511h-1.386v1.394h1.386V70.51zM49.551 70.511h-1.386v1.394h1.386V70.51zM51.413 70.511h-1.387v1.394h1.387V70.51zM53.314 70.511h-1.386v1.394h1.386V70.51zM55.215 70.511H53.83v1.394h1.386V70.51zM57.077 70.511h-1.386v1.394h1.386V70.51zM58.939 70.511h-1.387v1.394h1.387V70.51zM59.454 71.904h.594c.119-.438.237-.915.356-1.393h-.95v1.394zM13.745 72.342h-.595c.12.478.278.916.396 1.394h.199v-1.394zM15.646 72.342h-1.387v1.394h1.387v-1.394zM17.547 72.342h-1.386v1.394h1.386v-1.394zM19.409 72.342h-1.386v1.394h1.386v-1.394zM21.27 72.342h-1.386v1.394h1.386v-1.394zM23.172 72.342h-1.387v1.394h1.387v-1.394zM25.073 72.342h-1.387v1.394h1.387v-1.394zM26.934 72.342h-1.386v1.394h1.386v-1.394zM28.835 72.342H27.45v1.394h1.386v-1.394zM30.697 72.342h-1.386v1.394h1.386v-1.394zM32.599 72.342h-1.387v1.394H32.6v-1.394zM34.46 72.342h-1.386v1.394h1.386v-1.394zM34.975 73.736h1.386v-1.394h-1.386v1.394zM38.223 73.736v-1.394h-.673c-.238 0-.436.04-.673.04v1.394l1.346-.04zM40.124 72.342h-1.386v1.394h1.386v-1.394zM42.026 72.342h-1.387v1.394h1.386v-1.394zM43.887 72.342h-1.386v1.394h1.386v-1.394zM45.788 72.342h-1.386v1.394h1.386v-1.394zM47.65 72.342h-1.386v1.394h1.386v-1.394zM49.551 72.342h-1.386v1.394h1.386v-1.394zM51.413 72.342h-1.387v1.394h1.387v-1.394zM53.314 72.342h-1.386v1.394h1.386v-1.394zM55.215 72.342H53.83v1.394h1.386v-1.394zM57.077 72.342h-1.386v1.394h1.386v-1.394zM58.939 72.342h-1.387v1.394h1.387v-1.394zM59.454 73.736c.158-.438.316-.916.435-1.394h-.475l.04 1.394zM13.705 74.134c.04.08.04.16.08.239v-.239h-.08zM15.646 74.134h-1.387v1.394h1.387v-1.394zM17.547 74.134h-1.386v1.394h1.386v-1.394zM19.409 74.134h-1.386v1.394h1.386v-1.394zM21.27 74.134h-1.386v1.394h1.386v-1.394zM23.172 74.134h-1.387v1.394h1.387v-1.394zM25.073 74.134h-1.387v1.394h1.387v-1.394zM26.934 74.134h-1.386v1.394h1.386v-1.394zM28.835 74.134H27.45v1.394h1.386v-1.394zM30.697 74.134h-1.386v1.394h1.386v-1.394zM32.599 74.134h-1.387v1.394H32.6v-1.394zM34.46 74.134h-1.386v1.394h1.386v-1.394zM36.361 74.134h-1.386v1.394h1.386v-1.394zM38.223 74.134h-1.386v1.394h1.386v-1.394zM40.124 74.134h-1.386v1.394h1.386v-1.394zM42.026 74.134h-1.387v1.394h1.386v-1.394zM43.887 74.134h-1.386v1.394h1.386v-1.394zM45.788 74.134h-1.386v1.394h1.386v-1.394zM47.65 74.134h-1.386v1.394h1.386v-1.394zM49.551 74.134h-1.386v1.394h1.386v-1.394zM51.413 74.134h-1.387v1.394h1.387v-1.394zM53.314 74.134h-1.386v1.394h1.386v-1.394zM55.215 74.134H53.83v1.394h1.386v-1.394zM57.077 74.134h-1.386v1.394h1.386v-1.394zM57.552 74.134v1.394h1.149c.08-.16.119-.319.198-.478v-.916h-1.347zM15.606 75.925h-1.307c.198.478.396.916.594 1.394h.673v-1.394h.04zM17.547 75.925h-1.386v1.394h1.386v-1.394zM19.409 75.925h-1.386v1.394h1.386v-1.394zM21.27 75.925h-1.386v1.394h1.386v-1.394zM23.172 75.925h-1.387v1.394h1.387v-1.394zM25.073 75.925h-1.387v1.394h1.387v-1.394zM26.934 75.925h-1.386v1.394h1.386v-1.394zM28.835 75.925H27.45v1.394h1.386v-1.394zM30.697 75.925h-1.386v1.394h1.386v-1.394zM32.599 75.925h-1.387v1.394H32.6v-1.394zM34.46 75.925h-1.386v1.394h1.386v-1.394zM36.361 75.925h-1.386v1.394h1.386v-1.394zM38.223 75.925h-1.386v1.394h1.386v-1.394zM40.124 75.925h-1.386v1.394h1.386v-1.394zM42.026 75.925h-1.387v1.394h1.386v-1.394zM43.887 75.925h-1.386v1.394h1.386v-1.394zM45.788 75.925h-1.386v1.394h1.386v-1.394zM47.65 75.925h-1.386v1.394h1.386v-1.394zM49.551 75.925h-1.386v1.394h1.386v-1.394zM51.413 75.925h-1.387v1.394h1.387v-1.394zM53.314 75.925h-1.386v1.394h1.386v-1.394zM55.215 75.925H53.83v1.394h1.386v-1.394zM57.077 75.925h-1.386v1.394h1.386v-1.394zM57.552 77.319h.278c.237-.438.475-.916.712-1.394h-.99v1.394zM15.13 77.717c.16.319.318.597.476.916v-.916h-.475zM17.547 77.717h-1.386v1.394h1.386v-1.394zM19.409 77.717h-1.386v1.394h1.386v-1.394zM21.27 77.717h-1.386v1.394h1.386v-1.394zM23.172 77.717h-1.387v1.394h1.387v-1.394zM25.073 77.717h-1.387v1.394h1.387v-1.394zM26.934 77.717h-1.386v1.394h1.386v-1.394zM28.835 77.717H27.45v1.394h1.386v-1.394zM30.697 77.717h-1.386v1.394h1.386v-1.394zM32.599 77.717h-1.387v1.394H32.6v-1.394zM34.46 77.717h-1.386v1.394h1.386v-1.394zM36.361 77.717h-1.386v1.394h1.386v-1.394zM38.223 77.717h-1.386v1.394h1.386v-1.394zM40.124 77.717h-1.386v1.394h1.386v-1.394zM42.026 77.717h-1.387v1.394h1.386v-1.394zM43.887 77.717h-1.386v1.394h1.386v-1.394zM45.788 77.717h-1.386v1.394h1.386v-1.394zM47.65 77.717h-1.386v1.394h1.386v-1.394zM49.551 77.717h-1.386v1.394h1.386v-1.394zM51.413 77.717h-1.387v1.394h1.387v-1.394zM53.314 77.717h-1.386v1.394h1.386v-1.394zM55.215 77.717H53.83v1.394h1.386v-1.394zM55.69 77.717v1.394h1.07c.12-.16.198-.319.278-.478v-.916H55.69zM57.552 77.797l.04-.12h-.04v.12zM17.507 79.47h-1.386c.277.477.594.955.95 1.393h.436v-1.394zM19.409 79.47h-1.386v1.393h1.386v-1.394zM21.27 79.47h-1.386v1.393h1.386v-1.394zM23.172 79.47h-1.387v1.393h1.387v-1.394zM25.073 79.47h-1.387v1.393h1.387v-1.394zM26.934 79.47h-1.386v1.393h1.386v-1.394zM28.835 79.47H27.45v1.393h1.386v-1.394zM30.697 79.47h-1.386v1.393h1.386v-1.394zM32.599 79.47h-1.387v1.393H32.6v-1.394zM34.46 79.47h-1.386v1.393h1.386v-1.394zM36.361 79.47h-1.386v1.393h1.386v-1.394zM38.223 79.47h-1.386v1.393h1.386v-1.394zM40.124 79.47h-1.386v1.393h1.386v-1.394zM42.026 79.47h-1.387v1.393h1.386v-1.394zM43.887 79.47h-1.386v1.393h1.386v-1.394zM45.788 79.47h-1.386v1.393h1.386v-1.394zM47.65 79.47h-1.386v1.393h1.386v-1.394zM49.551 79.47h-1.386v1.393h1.386v-1.394zM51.413 79.47h-1.387v1.393h1.387v-1.394zM53.314 79.47h-1.386v1.393h1.386v-1.394zM55.215 79.47H53.83v1.393h1.386v-1.394zM55.69 80.544c.278-.358.555-.677.793-1.075h-.792v1.075zM17.389 81.3l.12.16v-.16h-.12zM19.409 81.3h-1.386v.757c.198.2.356.438.594.637h.831l-.04-1.394zM21.27 81.3h-1.386v1.394h1.386V81.3zM23.172 81.3h-1.387v1.394h1.387V81.3zM25.073 81.3h-1.387v1.394h1.387V81.3zM26.934 81.3h-1.386v1.394h1.386V81.3zM28.835 81.3H27.45v1.394h1.386V81.3zM30.697 81.3h-1.386v1.394h1.386V81.3zM32.599 81.3h-1.387v1.394H32.6V81.3zM34.46 81.3h-1.386v1.394h1.386V81.3zM36.361 81.3h-1.386v1.394h1.386V81.3zM38.223 81.3h-1.386v1.394h1.386V81.3zM40.124 81.3h-1.386v1.394h1.386V81.3zM42.026 81.3h-1.387v1.394h1.386V81.3zM43.887 81.3h-1.386v1.394h1.386V81.3zM45.788 81.3h-1.386v1.394h1.386V81.3zM47.65 81.3h-1.386v1.394h1.386V81.3zM49.551 81.3h-1.386v1.394h1.386V81.3zM51.413 81.3h-1.387v1.394h1.387V81.3zM53.314 81.3h-1.386v1.394h1.386V81.3zM53.83 82.614c.435-.438.87-.876 1.267-1.314h-1.268v1.314zM18.973 83.092c.119.12.277.279.436.398v-.398h-.436zM21.27 83.092h-1.386v.876c.198.2.396.358.594.518h.752c.04 0 .04-1.394.04-1.394zM23.172 83.052h-1.387v1.394h1.387v-1.394zM25.073 83.052h-1.387v1.394h1.387v-1.394zM26.934 83.052h-1.386v1.394h1.386v-1.394zM28.835 83.052H27.45v1.394h1.386v-1.394zM30.697 83.052h-1.386v1.394h1.386v-1.394zM32.599 83.052h-1.387v1.394H32.6v-1.394zM34.46 83.052h-1.386v1.394h1.386v-1.394zM36.361 83.052h-1.386v1.394h1.386v-1.394zM38.223 83.052h-1.386v1.394h1.386v-1.394zM40.124 83.052h-1.386v1.394h1.386v-1.394zM42.026 83.052h-1.387v1.394h1.386v-1.394zM43.887 83.052h-1.386v1.394h1.386v-1.394zM45.788 83.052h-1.386v1.394h1.386v-1.394zM47.65 83.052h-1.386v1.394h1.386v-1.394zM49.551 83.052h-1.386v1.394h1.386v-1.394zM51.413 83.052h-1.387v1.394h1.387v-1.394zM51.928 84.247c.475-.358.91-.757 1.386-1.155h-1.386v1.155zM21.033 84.884c.079.04.158.12.237.199v-.2h-.237zM21.785 84.884v.517c.436.28.911.598 1.387.837v-1.354h-1.387zM25.073 84.884h-1.387v1.393h1.387v-1.393zM26.934 84.884h-1.386v1.393h1.386v-1.393zM28.835 84.884H27.45v1.393h1.386v-1.393zM30.697 84.884h-1.386v1.393h1.386v-1.393zM32.599 84.884h-1.387v1.393H32.6v-1.393zM34.46 84.884h-1.386v1.393h1.386v-1.393zM36.361 84.884h-1.386v1.393h1.386v-1.393zM38.223 84.884h-1.386v1.393h1.386v-1.393zM40.124 84.884h-1.386v1.393h1.386v-1.393zM42.026 84.884h-1.387v1.393h1.386v-1.393zM43.887 84.884h-1.386v1.393h1.386v-1.393zM45.788 84.884h-1.386v1.393h1.386v-1.393zM47.65 84.884h-1.386v1.393h1.386v-1.393zM48.165 84.884v1.393h.515c.277-.159.594-.318.871-.478v-.915h-1.386zM50.026 85.481c.357-.199.674-.398.99-.637h-.99v.637zM23.924 86.675c.356.2.752.359 1.109.518v-.517h-1.11zM25.548 86.676v.716c.436.2.91.359 1.386.478v-1.234l-1.386.04zM28.796 86.675H27.41v1.394l.04.04h1.306v-1.433h.04zM30.697 86.675h-1.386v1.394h1.386v-1.394zM32.599 86.675h-1.387v1.394H32.6v-1.394zM34.46 86.675h-1.386v1.394h1.386v-1.394zM36.361 86.675h-1.386v1.394h1.386v-1.394zM38.223 86.675h-1.386v1.394h1.386v-1.394zM40.124 86.675h-1.386v1.394h1.386v-1.394zM42.026 86.675h-1.387v1.394h1.386v-1.394zM43.887 86.675h-1.386v1.394h1.386v-1.394zM44.402 86.675v1.314c.475-.119.91-.278 1.386-.438v-.836l-1.386-.04zM46.264 86.675v.677c.475-.199.91-.358 1.386-.557v-.08l-1.386-.04zM29.311 88.467v.04c.436.12.911.2 1.386.279v-.319h-1.386zM31.212 88.467v.398c.436.04.911.12 1.387.16v-.558h-1.387zM33.074 88.467v.597c.435.04.91.04 1.386.08v-.677h-1.386zM34.975 88.467v.677h.634c.198 0 .475 0 .752-.04v-.677l-1.386.04zM36.837 88.467v.677c.475-.04.91-.04 1.386-.08v-.597h-1.386zM38.738 88.467v.558c.475-.04.91-.08 1.386-.16v-.398h-1.386zM40.64 88.467v.319c.474-.08.91-.16 1.386-.24v-.079h-1.387zM11.25 113.152c0 3.145-1.625 5.216-4.794 5.216-3.168 0-4.555-1.951-4.792-5.097L0 113.47c.238 3.942 2.258 6.53 6.456 6.53 4.199 0 6.496-2.787 6.496-6.729V102.8H11.25v10.352zM32.599 112.674c0 3.146-1.704 5.694-5.585 5.694-3.842 0-5.546-2.31-5.546-5.654v-9.993h-1.703v10.073c0 4.14 2.416 7.166 7.249 7.166 4.832 0 7.288-3.344 7.288-7.166v-10.073h-1.703v9.953zM42.54 102.721h-1.663v16.961h11.328v-1.553h-9.664v-15.408zM64.286 102.482c-4.951 0-8.635 3.742-8.635 8.759 0 4.977 3.724 8.679 8.635 8.679 4.951 0 8.714-3.742 8.714-8.679-.04-5.017-3.763-8.759-8.714-8.759zm0 15.846c-4 0-6.971-3.026-6.971-7.087 0-4.101 2.97-7.127 6.971-7.127 4.08 0 7.05 2.986 7.05 7.127-.039 4.061-2.97 7.087-7.05 7.087z"/>
</svg>
