<svg xmlns="http://www.w3.org/2000/svg" width="80" height="40" fill="none" viewBox="0 0 80 40">
    <path fill="#fff" d="M77 0H3C1.343 0 0 1.343 0 3v34c0 1.657 1.343 3 3 3h74c1.657 0 3-1.343 3-3V3c0-1.657-1.343-3-3-3z"/>
    <path fill="url(#paint0_radial)" d="M35.253 30.656l-4.924-7.241-2.161 1.98v-4.924l5.572-6.447h5.41l-5.958 6.294 6.925 10.338h-4.864zm-13.3-.038c-1.1.003-2.173-.343-3.065-.987-1.078.637-2.307.972-3.558.972h-.013c-4.136 0-7.5-3.643-7.5-8.122 0-4.48 3.354-8.128 7.478-8.137 1.459.03 2.877.485 4.08 1.312 1.203.826 2.137 1.986 2.688 3.338.062.138.122.282.193.467.357.964.54 1.984.54 3.012.01 1.71-.496 3.382-1.451 4.8.119.22.368.313.833.313.878 0 1.347-.647 1.435-1.98V14.26h3.534v12.15c-.27 1.178-.926 2.23-1.863 2.993-.937.762-2.1 1.19-3.308 1.215l-.023-.001zM10.78 22.444c0 2.985 2.025 5.413 4.514 5.413.642-.004 1.273-.167 1.837-.474.846-.51 1.54-1.237 2.01-2.105.472-.868.702-1.847.668-2.834.001-.751-.132-1.496-.393-2.2-.277-.893-.82-1.68-1.557-2.254-.737-.575-1.632-.91-2.565-.961-2.49 0-4.514 2.429-4.514 5.415z"/>
    <path fill="#8C0000" d="M43.541 14.046h.509v16.4h-.509v-16.4z"/>
    <path fill="#313132" d="M39.342 14.176c-1.124.114-2.256.114-3.38 0-.072.007-.144.007-.216 0-5.4-1.529-6.791-4.206-10.48-6.416C21.77 5.665 13.689 3.723 5.563 9.098c1.514 1.147 2.768 2.601 3.681 4.267 1.721 3.06.857 5.032.857 5.032s4.762-4.917 10.295-5.123c4.667-.176 10.067 1.628 14.377 2.095.75.09 1.506.125 2.261.107 4.515-.16 6.243-2.73 6.243-2.73-1.12.894-2.502 1.397-3.935 1.43z" opacity=".5"/>
    <path fill="url(#paint1_linear)" d="M21.979 9.817c6.613 1.744 8.072 4.267 13.449 4.229-.328-.198-.67-.37-1.026-.512-2.493-.466-4.1-2.975-9.076-5.827C22.284 5.97 18.8 5.164 15.304 5.39c-3.495.225-6.847 1.472-9.64 3.586-.011.008-.02.02-.027.032-.006.013-.01.026-.01.04 0 .015.004.028.01.041.007.013.016.024.027.032 1.427 1.036 2.599 2.383 3.427 3.939.224-.252.44-.482.664-.7 4.282-4.393 8.365-3.537 12.224-2.543z"/>
    <path fill="url(#paint2_linear)" d="M39.883 13.618c-1.113.236-2.256.298-3.388.184-5.356-.39-9.114-2.9-14.077-4.5-3.804-1.213-8.388-1.335-12.679 3.062-.224.222-.44.45-.664.7l.07.13c.883 1.36 1.282 2.978 1.13 4.592 0 0 4.758-4.627 10.23-4.825 4.63-.161 10.032 1.529 14.307 1.988.746.085 1.496.118 2.246.1 4.492-.153 6.282-2.478 6.282-2.478s-.565.558-3.457 1.047z"/>
    <path fill="#646464" d="M54.83 29.76c-.217.018-.436-.015-.64-.094-.203-.08-.386-.205-.534-.365-.149-.16-.259-.352-.323-.561-.063-.21-.079-.43-.045-.646V25.8l.587-.023v2.294c0 .872.417 1.247.98 1.247s1.026-.382 1.026-1.247v-2.294h.548v2.294c.033.22.016.446-.051.659-.067.213-.182.408-.335.57-.14.147-.309.265-.496.345-.187.08-.388.122-.591.122-.04 0-.081-.003-.125-.006zm-7.693-.068v-3.915h.548v1.88c.115-.152.223-.29.33-.411l1.29-1.461h.68l-1.544 1.649 1.643 2.248h-.64l-1.39-1.912-.4.428v1.49l-.517.004zm17.92-.52c-.195-.187-.347-.413-.448-.664-.102-.25-.149-.52-.14-.79.002-.288.065-.574.186-.836.12-.263.296-.497.515-.686.22-.19.477-.333.756-.417.278-.084.571-.108.86-.071.358-.01.715.05 1.05.176l-.131.413c-.309-.114-.637-.16-.965-.138-.218-.022-.438.002-.646.07-.209.07-.4.182-.561.33-.16.148-.287.328-.372.53-.085.2-.125.417-.12.635-.014.214.017.43.094.63.078.201.198.383.353.532.156.15.342.265.546.336.205.071.422.098.638.077.246.012.492-.025.725-.107v-1.158h-.887v-.406h1.387v1.843c-.42.139-.858.21-1.3.214h-.1c-.525 0-1.034-.18-1.44-.512zm9.84.5l-1.336-1.98c-.284-.416-.542-.85-.771-1.3 0 .49.046.965.046 1.608v1.667l-.555.007v-3.9h.594l1.35 1.973c.286.405.544.83.772 1.27-.046-.52-.062-.995-.062-1.607v-1.633h.509v3.9l-.547-.004zm-11.538 0l-1.335-1.98c-.285-.416-.543-.85-.772-1.3 0 .49.047.965.047 1.608v1.667l-.587.007v-3.9h.626l1.35 1.973c.285.405.543.83.772 1.27-.047-.52-.062-.995-.062-1.607v-1.633h.509v3.9l-.548-.004zm-12.965 0v-3.9h2.315v.42h-1.775v1.232h1.635v.42h-1.635v1.408h1.829v.42h-2.37zm20.374-1.23h-1.5l-.44 1.224h-.548l1.436-3.9h.656l1.435 3.9h-.594l-.445-1.223zm-.957-1.521l-.41 1.132h1.25l-.408-1.12c-.078-.213-.134-.414-.187-.608l-.03-.1c-.076.278-.142.496-.215.7v-.004zm-10.6 1.522h-1.5l-.44 1.223h-.564l1.436-3.9h.654l1.435 3.9h-.578l-.443-1.223zm-.965-1.522l-.41 1.132h1.25l-.411-1.12c-.081-.22-.138-.424-.193-.622l-.024-.09c-.074.275-.142.499-.216.704l.004-.004zm-5.422-2.903l.109-.436c.298.163.632.25.972.252.555 0 .879-.275.879-.665s-.223-.574-.771-.765c-.71-.237-1.166-.581-1.166-1.116.045-.32.213-.609.468-.806.256-.197.578-.286.899-.248.322-.01.641.055.933.19l-.15.41c-.24-.118-.504-.181-.772-.184-.58 0-.771.32-.771.58 0 .26.255.544.84.766.71.252 1.074.573 1.074 1.147 0 .574-.471 1.127-1.471 1.127h-.017c-.367 0-.729-.086-1.056-.252zm-6.127.145l.085-.412c.146.05.3.076.455.076.486 0 .772-.2.772-.963l-.012-2.57h.548v2.608c0 1.04-.548 1.354-1.274 1.354-.195-.001-.389-.033-.574-.093zm9.49.03h-.561l1.436-3.9h.656l1.436 3.9h-.58l-.447-1.222h-1.5l-.438 1.223h-.001zm.982-2.737l-.464 1.13h1.3l-.408-1.122c-.077-.211-.132-.41-.185-.6l-.031-.11c-.07.28-.14.499-.212.703v-.001zm-8.18 2.738l1.444-3.9h.655l1.435 3.9h-.578l-.448-1.223h-1.5l-.436 1.223h-.572zm1.552-2.737l-.433 1.13h1.274l-.41-1.123c-.081-.222-.138-.43-.193-.632l-.022-.08c-.075.282-.144.5-.216.705zm5.062-2.692h-.042c-.252 0-.502-.051-.734-.15-.232-.098-.441-.243-.616-.424-.178-.186-.316-.407-.403-.65-.087-.242-.123-.5-.104-.757-.02-.266.016-.532.106-.783.09-.25.232-.48.416-.672.18-.188.397-.338.636-.44.24-.102.497-.155.758-.155h.1c.25 0 .499.051.73.15.23.098.438.243.612.424.178.187.315.41.4.654.085.244.118.503.095.76.023.266-.011.533-.1.784-.088.25-.23.48-.413.672-.179.186-.393.333-.63.434-.237.101-.492.154-.75.154l-.061-.001zm-.993-.9c.127.147.282.268.456.354.175.085.365.135.559.146.197-.012.39-.065.565-.154.177-.089.333-.213.46-.365.126-.151.22-.327.276-.516.057-.19.074-.388.05-.584.021-.192.003-.387-.054-.572-.057-.185-.15-.356-.275-.504-.127-.148-.281-.27-.455-.356-.174-.087-.364-.139-.558-.151-.928 0-1.343.818-1.343 1.628l-.008-.007c-.022.192-.004.387.052.573.057.185.15.357.276.505l-.001.003zm-5.822.9h-.042c-.252 0-.501-.051-.733-.15-.232-.098-.441-.242-.616-.423-.179-.186-.316-.408-.403-.65-.088-.243-.123-.501-.104-.758-.02-.266.016-.532.106-.783.09-.25.23-.48.415-.672.18-.188.397-.337.636-.44.24-.102.497-.155.758-.155h.1c.25 0 .498.051.729.15.23.099.438.243.612.424.18.186.317.41.403.653.086.244.12.504.097.762.023.265-.011.532-.1.783-.088.25-.23.48-.413.672-.179.186-.393.333-.63.434-.237.101-.492.154-.75.154l-.065-.001zm0-3.595c-.193-.004-.384.039-.557.124-.173.086-.323.211-.437.367-.234.33-.355.726-.345 1.13-.022.192-.005.387.051.573.057.185.15.357.276.505.127.147.282.268.457.354.174.085.364.135.559.146.196-.013.388-.066.563-.155.175-.089.33-.213.457-.364.126-.15.22-.326.276-.514.056-.189.073-.387.05-.582.022-.193.003-.387-.054-.573-.056-.185-.15-.356-.275-.504-.127-.148-.281-.268-.455-.355-.174-.087-.363-.138-.557-.151l-.01-.001zm19.903 3.342l.13-.4c.3.163.634.25.974.252.555 0 .879-.275.879-.665s-.224-.573-.771-.765c-.688-.221-1.111-.558-1.111-1.11 0-.55.548-1.058 1.366-1.058.322-.01.641.055.933.19l-.147.414c-.24-.118-.504-.181-.771-.184-.58 0-.772.32-.772.58 0 .26.255.544.842.766.71.252 1.073.573 1.073 1.147 0 .574-.563 1.086-1.552 1.086h-.017c-.367 0-.729-.087-1.056-.253zm-5.178.207l-.008-3.472h-1.28v-.428h3.087v.428H64.06v3.472h-.548zm-2.176 0v-3.9h.56v3.9h-.56zm-9.377 0l-.008-3.472H50.67v-.428h3.087v.428h-1.25v3.472h-.548zm13.489-.007h-.562l1.435-3.9h.656l1.435 3.9h-.578l-.448-1.224h-1.5l-.44 1.223h.002zm.98-2.746l-.462 1.132h1.3l-.41-1.124c-.078-.214-.134-.415-.187-.61l-.03-.1c-.07.282-.137.499-.21.702zm-5.541 2.738h-.562c-.124-.3-.217-.614-.278-.933-.126-.551-.363-.765-.842-.765h-.51v1.69h-.547l-.023-3.823c.339-.057.682-.085 1.026-.085h.016c.058-.005.116-.008.174-.008.374-.002.74.113 1.045.329.11.093.197.211.255.344.058.132.084.276.077.42-.003.228-.08.448-.219.627-.139.18-.333.309-.552.368.16.063.301.167.41.3.108.135.18.295.207.465.073.366.181.724.324 1.069l-.001.002zm-2.222-3.541l.008 1.483h.555c.577 0 .95-.3.95-.765 0-.446-.355-.724-.973-.764h-.07c-.158 0-.316.015-.47.046z"/>
    <defs>
        <linearGradient id="paint1_linear" x1="30.183" x2="26.965" y1="7.604" y2="21.249" gradientUnits="userSpaceOnUse">
            <stop stop-color="#E78B62"/>
            <stop offset=".02" stop-color="#DC684E"/>
            <stop offset=".05" stop-color="#D24C3D"/>
            <stop offset=".08" stop-color="#CB3630"/>
            <stop offset=".11" stop-color="#C62627"/>
            <stop offset=".14" stop-color="#C31D22"/>
            <stop offset=".19" stop-color="#C21A20"/>
            <stop offset=".25" stop-color="#D04239"/>
            <stop offset=".33" stop-color="#E17157"/>
            <stop offset=".37" stop-color="#E78362"/>
            <stop offset=".39" stop-color="#E57A5C"/>
            <stop offset=".5" stop-color="#DD5A46"/>
            <stop offset=".61" stop-color="#D64235"/>
            <stop offset=".73" stop-color="#D23029"/>
            <stop offset=".85" stop-color="#CF2522"/>
            <stop offset="1" stop-color="#CE2220"/>
        </linearGradient>
        <linearGradient id="paint2_linear" x1="-1.821" x2="2.172" y1="22.363" y2="2.449" gradientUnits="userSpaceOnUse">
            <stop stop-color="#878787"/>
            <stop offset=".09" stop-color="#959595"/>
            <stop offset=".27" stop-color="#BABABA"/>
            <stop offset=".51" stop-color="#F6F6F6"/>
            <stop offset=".55" stop-color="#fff"/>
            <stop offset=".57" stop-color="#F5F5F5"/>
            <stop offset=".64" stop-color="#D9D9D9"/>
            <stop offset=".69" stop-color="#C8C8C8"/>
            <stop offset=".74" stop-color="#C2C2C2"/>
            <stop offset=".79" stop-color="#CFCFCF"/>
            <stop offset=".9" stop-color="#F2F2F2"/>
            <stop offset=".93" stop-color="#fff"/>
            <stop offset=".97" stop-color="#F3F3F3"/>
            <stop offset="1" stop-color="#E0E0E0"/>
        </linearGradient>
        <radialGradient id="paint0_radial" cx="0" cy="0" r="1" gradientTransform="matrix(23.8051 0 0 12.2578 36.596 21.458)" gradientUnits="userSpaceOnUse">
            <stop stop-color="#D60015"/>
            <stop offset=".01" stop-color="#D50015"/>
            <stop offset=".27" stop-color="#B60917"/>
            <stop offset=".53" stop-color="#A01019"/>
            <stop offset=".78" stop-color="#93141A"/>
            <stop offset="1" stop-color="#8E151A"/>
        </radialGradient>
    </defs>
</svg>
