<?xml version="1.0" encoding="utf-8"?>
<!-- Generator: Adobe Illustrator 21.0.0, SVG Export Plug-In . SVG Version: 6.00 Build 0)  -->
<svg version="1.1" id="Layer_1" xmlns="http://www.w3.org/2000/svg" xmlns:xlink="http://www.w3.org/1999/xlink" x="0px" y="0px"
	 viewBox="0 0 400 400" style="enable-background:new 0 0 400 400;" xml:space="preserve">
<style type="text/css">
	.st0{opacity:0.2;fill:url(#SVGID_1_);enable-background:new    ;}
	.st1{fill:url(#SVGID_2_);}
	.st2{opacity:0.5;fill:url(#SVGID_3_);enable-background:new    ;}
	.st3{opacity:0.5;fill:url(#SVGID_4_);enable-background:new    ;}
	.st4{opacity:0.5;fill:url(#SVGID_5_);enable-background:new    ;}
	.st5{opacity:0.5;fill:url(#SVGID_6_);enable-background:new    ;}
	.st6{opacity:0.5;fill:url(#SVGID_7_);enable-background:new    ;}
	.st7{opacity:0.5;fill:url(#SVGID_8_);enable-background:new    ;}
	.st8{opacity:5.000000e-02;enable-background:new    ;}
	.st9{fill:url(#SVGID_9_);}
	.st10{fill:none;stroke:url(#SVGID_10_);stroke-width:1.42;stroke-linecap:round;stroke-linejoin:round;}
	.st11{opacity:0.1;}
	.st12{fill:url(#SVGID_11_);}
	.st13{fill:url(#SVGID_12_);}
	.st14{fill:url(#SVGID_13_);}
	.st15{fill:url(#SVGID_14_);}
	.st16{fill:url(#SVGID_15_);}
	.st17{fill:url(#SVGID_16_);}
	.st18{fill:url(#SVGID_17_);}
	.st19{fill:#DD6868;}
	.st20{opacity:0.2;fill:url(#SVGID_18_);enable-background:new    ;}
	.st21{fill:url(#SVGID_19_);}
	.st22{fill:url(#SVGID_20_);}
	.st23{fill:url(#SVGID_21_);}
	.st24{opacity:0.78;fill:url(#SVGID_22_);enable-background:new    ;}
	.st25{opacity:0.78;fill:url(#SVGID_23_);enable-background:new    ;}
	.st26{opacity:0.78;fill:url(#SVGID_24_);enable-background:new    ;}
	.st27{opacity:0.78;fill:url(#SVGID_25_);enable-background:new    ;}
	.st28{fill:url(#SVGID_26_);}
	.st29{fill:url(#SVGID_27_);}
	.st30{fill:url(#SVGID_28_);}
	.st31{fill:url(#SVGID_29_);}
	.st32{fill:url(#SVGID_30_);}
	.st33{fill:url(#SVGID_31_);}
	.st34{fill:url(#SVGID_32_);}
	.st35{fill:url(#SVGID_33_);}
	.st36{fill:url(#SVGID_34_);}
	.st37{fill:url(#SVGID_35_);}
	.st38{fill:url(#SVGID_36_);}
	.st39{fill:url(#SVGID_37_);}
	.st40{fill:url(#SVGID_38_);}
	.st41{fill:url(#SVGID_39_);}
	.st42{fill:url(#SVGID_40_);}
	.st43{fill:url(#SVGID_41_);}
	.st44{fill:url(#SVGID_42_);}
	.st45{fill:url(#SVGID_43_);}
	.st46{fill:url(#SVGID_44_);}
	.st47{fill:url(#SVGID_45_);}
	.st48{fill:url(#SVGID_46_);}
	.st49{fill:url(#SVGID_47_);}
	.st50{fill:url(#SVGID_48_);}
	.st51{fill:url(#SVGID_49_);}
	.st52{fill:url(#SVGID_50_);}
	.st53{fill:url(#SVGID_51_);}
	.st54{opacity:0.1;enable-background:new    ;}
	.st55{fill:url(#SVGID_52_);}
	.st56{fill:none;stroke:#DFBD12;stroke-width:3;stroke-linecap:round;stroke-linejoin:round;}
	.st57{fill:none;stroke:url(#SVGID_53_);stroke-width:3;stroke-linecap:round;stroke-linejoin:round;}
	.st58{fill:url(#SVGID_54_);}
</style>
<title>Il_approve</title>
<g id="Approve">
	
		<linearGradient id="SVGID_1_" gradientUnits="userSpaceOnUse" x1="75.92" y1="102.26" x2="263.33" y2="102.26" gradientTransform="matrix(1 0 0 -1 0 402.06)">
		<stop  offset="0" style="stop-color:#5E5E5E;stop-opacity:0.5"/>
		<stop  offset="1" style="stop-color:#2E2E2E"/>
	</linearGradient>
	<path class="st0" d="M81.1,294.6h177.1c2.8,0,5.2,2.3,5.2,5.2l0,0c0,2.8-2.3,5.2-5.2,5.2H81.1c-2.8,0-5.2-2.3-5.2-5.2l0,0
		C75.9,297,78.2,294.6,81.1,294.6z"/>
	
		<linearGradient id="SVGID_2_" gradientUnits="userSpaceOnUse" x1="168.96" y1="339.33" x2="168.96" y2="102.25" gradientTransform="matrix(1 0 0 -1 0 402.06)">
		<stop  offset="0" style="stop-color:#F2F2F2"/>
		<stop  offset="1" style="stop-color:#CCCCCC"/>
	</linearGradient>
	<path class="st1" d="M200.8,62.7h-97c-13.1,0-25,10.8-25,23.9v190c0,5.5,2.1,10.7,5.8,14.8c4.9,5.4,11.9,8.4,19.2,8.4h131.5
		c13.1,0,23.9-10,23.9-23.1V119.2L200.8,62.7z"/>
	
		<linearGradient id="SVGID_3_" gradientUnits="userSpaceOnUse" x1="138.07" y1="315.27" x2="138.07" y2="303.25" gradientTransform="matrix(1 0 0 -1 0 402.06)">
		<stop  offset="0" style="stop-color:#ADADAD"/>
		<stop  offset="1" style="stop-color:#ADADAD"/>
	</linearGradient>
	<path class="st2" d="M109.9,86.8h56.3c3,0,5.4,2.4,5.4,5.4v1.3c0,3-2.4,5.4-5.4,5.4h-56.3c-3,0-5.4-2.4-5.4-5.4v-1.3
		C104.6,89.2,107,86.8,109.9,86.8z"/>
	
		<linearGradient id="SVGID_4_" gradientUnits="userSpaceOnUse" x1="205.07" y1="139.8" x2="205.07" y2="127.78" gradientTransform="matrix(1 0 0 -1 0 402.06)">
		<stop  offset="0" style="stop-color:#ADADAD"/>
		<stop  offset="1" style="stop-color:#ADADAD"/>
	</linearGradient>
	<path class="st3" d="M176.9,262.3h56.3c3,0,5.4,2.4,5.4,5.4v1.3c0,3-2.4,5.4-5.4,5.4h-56.3c-3,0-5.4-2.4-5.4-5.4v-1.3
		C171.6,264.7,174,262.3,176.9,262.3z"/>
	
		<linearGradient id="SVGID_5_" gradientUnits="userSpaceOnUse" x1="168.99" y1="224.8" x2="168.99" y2="212.78" gradientTransform="matrix(1 0 0 -1 0 402.06)">
		<stop  offset="0" style="stop-color:#ADADAD"/>
		<stop  offset="1" style="stop-color:#ADADAD"/>
	</linearGradient>
	<path class="st4" d="M109.9,177.3H228c3,0,5.4,2.4,5.4,5.4v1.3c0,3-2.4,5.4-5.4,5.4H109.9c-3,0-5.4-2.4-5.4-5.4v-1.3
		C104.6,179.7,107,177.3,109.9,177.3z"/>
	
		<linearGradient id="SVGID_6_" gradientUnits="userSpaceOnUse" x1="168.99" y1="250.76" x2="168.99" y2="238.74" gradientTransform="matrix(1 0 0 -1 0 402.06)">
		<stop  offset="0" style="stop-color:#ADADAD"/>
		<stop  offset="1" style="stop-color:#ADADAD"/>
	</linearGradient>
	<path class="st5" d="M109.9,151.3H228c3,0,5.4,2.4,5.4,5.4v1.3c0,3-2.4,5.4-5.4,5.4H109.9c-3,0-5.4-2.4-5.4-5.4v-1.3
		C104.6,153.7,107,151.3,109.9,151.3z"/>
	
		<linearGradient id="SVGID_7_" gradientUnits="userSpaceOnUse" x1="168.99" y1="276.72" x2="168.99" y2="264.7" gradientTransform="matrix(1 0 0 -1 0 402.06)">
		<stop  offset="0" style="stop-color:#ADADAD"/>
		<stop  offset="1" style="stop-color:#ADADAD"/>
	</linearGradient>
	<path class="st6" d="M109.9,125.3H228c3,0,5.4,2.4,5.4,5.4v1.3c0,3-2.4,5.4-5.4,5.4H109.9c-3,0-5.4-2.4-5.4-5.4v-1.3
		C104.6,127.7,107,125.3,109.9,125.3z"/>
	
		<linearGradient id="SVGID_8_" gradientUnits="userSpaceOnUse" x1="168.99" y1="199.03" x2="168.99" y2="187.01" gradientTransform="matrix(1 0 0 -1 0 402.06)">
		<stop  offset="0" style="stop-color:#ADADAD"/>
		<stop  offset="1" style="stop-color:#ADADAD"/>
	</linearGradient>
	<path class="st7" d="M109.9,203H228c3,0,5.4,2.4,5.4,5.4v1.3c0,3-2.4,5.4-5.4,5.4H109.9c-3,0-5.4-2.4-5.4-5.4v-1.3
		C104.6,205.4,107,203,109.9,203z"/>
	<path class="st8" d="M199,62.7V109c0,7.8,5,13.8,12.7,13.8h47.4v-3.4l-58.4-56.7L199,62.7z"/>
	
		<linearGradient id="SVGID_9_" gradientUnits="userSpaceOnUse" x1="229.975" y1="339.32" x2="229.975" y2="282.63" gradientTransform="matrix(1 0 0 -1 0 402.06)">
		<stop  offset="0" style="stop-color:#DEDEDE"/>
		<stop  offset="1" style="stop-color:#BFBFBF"/>
	</linearGradient>
	<path class="st9" d="M200.8,62.7v42.8c0,7.8,5,13.8,12.7,13.8h45.7L200.8,62.7z"/>
	
		<linearGradient id="SVGID_10_" gradientUnits="userSpaceOnUse" x1="181.88" y1="162.105" x2="230.91" y2="162.105" gradientTransform="matrix(1 0 0 -1 0 402.06)">
		<stop  offset="0" style="stop-color:#5E5E5E"/>
		<stop  offset="1" style="stop-color:#2E2E2E"/>
	</linearGradient>
	<path class="st10" d="M182.6,255.3c3.7-0.4,7.4-1.6,10.7-3.5c9.7-5.3,16.8-16.3,14.9-27.2c-4.5,7.1-8.5,14.5-12,22.1
		c-0.6,1.3-0.9,3.3,0.4,3.8c0.7,0.2,1.5,0,2.1-0.5c3.4-1.9,6.3-4.5,8.7-7.6l-2.4,6c2.4-0.8,4.6-2,6.5-3.7c-0.6,1.9-1,4-1.2,6l5-1.9
		c0.5-0.2,1.1-0.3,1.6-0.3c0.4,0.1,0.9,0.2,1.3,0.4c1,0.1,1.9,0,2.9-0.3c3-0.9,6.1-1.3,9.3-1.2"/>
	<g class="st11">
		<path d="M108,138.2h-0.1l-2.3,15.4l-0.9,5.6L84.6,291.4c-3.7-4-5.8-9.3-5.8-14.8v-26.8L96,136.3l4.9,0.8l-4.4-0.7L101,125l3.5,0.5
			l-3.4-0.5l3.9-10.2c0,0,0.2-0.4,0.5-0.4s0.3,0.6,0.3,0.6l1.1,10.9l0,0l0.1,0.5l1.1,10.7L108,138.2z"/>
	</g>
	
		<linearGradient id="SVGID_11_" gradientUnits="userSpaceOnUse" x1="2003.9901" y1="-692.007" x2="2003.9901" y2="-680.0058" gradientTransform="matrix(0.15 -0.99 -0.99 -0.15 -911.0848 2181.9543)">
		<stop  offset="0" style="stop-color:#94273A"/>
		<stop  offset="1" style="stop-color:#C6514D"/>
	</linearGradient>
	<path class="st12" d="M74.2,305c-0.2,1.3-1.5,1.3-2.7,1.1l-6.9-1c-1.3-0.2-2.5-0.5-2.3-1.8l1-6.5c0.3-2,12.2-0.2,11.9,1.8L74.2,305
		z"/>
	
		<linearGradient id="SVGID_12_" gradientUnits="userSpaceOnUse" x1="2013.5342" y1="-680.5137" x2="2013.5342" y2="-692.5145" gradientTransform="matrix(0.1502 -0.9887 -0.9887 -0.1502 -911.7067 2182.762)">
		<stop  offset="0" style="stop-color:#E5E5E5"/>
		<stop  offset="1" style="stop-color:#999999"/>
	</linearGradient>
	<polygon class="st13" points="63.3,296.8 64.1,291.9 75.9,293.7 75.2,298.6 	"/>
	
		<linearGradient id="SVGID_13_" gradientUnits="userSpaceOnUse" x1="2191.5527" y1="-683.257" x2="2191.5527" y2="-689.0762" gradientTransform="matrix(0.15 -0.99 -0.99 -0.15 -911.0848 2181.9543)">
		<stop  offset="0" style="stop-color:#5E5E5E"/>
		<stop  offset="1" style="stop-color:#2E2E2E"/>
	</linearGradient>
	<path class="st14" d="M97.8,109.7c-0.3,0-0.5,0.4-0.5,0.4l-3.9,10.2l5.8,0.9l-1.1-10.9C98.1,110.3,98.1,109.8,97.8,109.7z"/>
	
		<linearGradient id="SVGID_14_" gradientUnits="userSpaceOnUse" x1="2016.1963" y1="-682.888" x2="2178.1963" y2="-682.888" gradientTransform="matrix(0.1504 -0.9886 -0.9886 -0.1504 -911.8221 2182.8027)">
		<stop  offset="0" style="stop-color:#FFEE69"/>
		<stop  offset="1" style="stop-color:#FFDF4B"/>
	</linearGradient>
	<polygon class="st15" points="64.1,291.9 88.4,131.7 93.4,132.5 69,292.6 	"/>
	
		<linearGradient id="SVGID_15_" gradientUnits="userSpaceOnUse" x1="2096.9746" y1="-684.9969" x2="2096.9746" y2="-688.007" gradientTransform="matrix(0.15 -0.99 -0.99 -0.15 -911.0421 2185.4526)">
		<stop  offset="0" style="stop-color:#F1D353"/>
		<stop  offset="1" style="stop-color:#E8C44A"/>
	</linearGradient>
	<polygon class="st16" points="69.4,292.4 93.7,132 96.7,132.4 72.4,292.8 	"/>
	
		<linearGradient id="SVGID_16_" gradientUnits="userSpaceOnUse" x1="2096.9844" y1="-687.9969" x2="2096.9844" y2="-692.007" gradientTransform="matrix(0.15 -0.99 -0.99 -0.15 -911.035 2185.4629)">
		<stop  offset="0" style="stop-color:#EDB346"/>
		<stop  offset="1" style="stop-color:#DEB75A"/>
	</linearGradient>
	<polygon class="st17" points="72.4,292.8 96.7,132.4 100.6,133 76.3,293.4 	"/>
	
		<linearGradient id="SVGID_17_" gradientUnits="userSpaceOnUse" x1="2180.0078" y1="-692.127" x2="2180.0078" y2="-680.6" gradientTransform="matrix(0.15 -0.99 -0.99 -0.15 -911.0848 2181.9543)">
		<stop  offset="0" style="stop-color:#F3D286"/>
		<stop  offset="1" style="stop-color:#F3E4A8"/>
	</linearGradient>
	<polygon class="st18" points="93.4,120.3 89,131.8 100.4,133.5 99.2,121.2 	"/>
	<polygon class="st19" points="67,312.5 67,312.5 67,312.5 67,312.5 67.1,312 67.1,312 67.1,312 67.1,312 	"/>
	
		<linearGradient id="SVGID_18_" gradientUnits="userSpaceOnUse" x1="282.08" y1="96.54" x2="282.08" y2="214.95" gradientTransform="matrix(1 0 0 -1 0 402.06)">
		<stop  offset="0" style="stop-color:#5E5E5E;stop-opacity:0.5"/>
		<stop  offset="1" style="stop-color:#2E2E2E"/>
	</linearGradient>
	<path class="st20" d="M247.2,187.1h69.7c4.4,0,7.9,3.5,7.9,7.9v102.6c0,4.4-3.5,7.9-7.9,7.9h-69.7c-4.4,0-7.9-3.5-7.9-7.9V195
		C239.3,190.6,242.9,187.1,247.2,187.1z"/>
	
		<linearGradient id="SVGID_19_" gradientUnits="userSpaceOnUse" x1="289.5" y1="96.54" x2="289.5" y2="214.95" gradientTransform="matrix(1 0 0 -1 0 402.06)">
		<stop  offset="0" style="stop-color:#5E5E5E"/>
		<stop  offset="1" style="stop-color:#2E2E2E"/>
	</linearGradient>
	<path class="st21" d="M254.7,187.1h69.7c4.4,0,7.9,3.5,7.9,7.9v102.6c0,4.4-3.5,7.9-7.9,7.9h-69.7c-4.4,0-7.9-3.5-7.9-7.9V195
		C246.8,190.6,250.3,187.1,254.7,187.1z"/>
	
		<linearGradient id="SVGID_20_" gradientUnits="userSpaceOnUse" x1="294.95" y1="214.95" x2="294.95" y2="96.54" gradientTransform="matrix(1 0 0 -1 0 402.06)">
		<stop  offset="0" style="stop-color:#5E5E5E"/>
		<stop  offset="1" style="stop-color:#2E2E2E"/>
	</linearGradient>
	<path class="st22" d="M260.1,187.1h69.7c4.4,0,7.9,3.5,7.9,7.9v102.6c0,4.4-3.5,7.9-7.9,7.9h-69.7c-4.4,0-7.9-3.5-7.9-7.9V195
		C252.2,190.6,255.7,187.1,260.1,187.1z"/>
	
		<linearGradient id="SVGID_21_" gradientUnits="userSpaceOnUse" x1="294.955" y1="202.97" x2="294.955" y2="183.26" gradientTransform="matrix(1 0 0 -1 0 402.06)">
		<stop  offset="0" style="stop-color:#F2F2F2"/>
		<stop  offset="1" style="stop-color:#CCCCCC"/>
	</linearGradient>
	<path class="st23" d="M327.4,207v3.9c0,4.4-3.5,7.9-7.9,7.9h-49.2c-4.4,0-7.9-3.5-7.9-7.9V207c0-4.4,3.5-7.9,7.9-7.9h49.2
		C323.9,199.1,327.4,202.6,327.4,207z"/>
	
		<linearGradient id="SVGID_22_" gradientUnits="userSpaceOnUse" x1="276.27" y1="170.94" x2="276.27" y2="143.34" gradientTransform="matrix(1 0 0 -1 0 402.06)">
		<stop  offset="0" style="stop-color:#5E5E5E;stop-opacity:0.5"/>
		<stop  offset="1" style="stop-color:#2E2E2E"/>
	</linearGradient>
	<path class="st24" d="M290.1,239v11.8c0,4.4-3.5,7.9-7.9,7.9h-11.8c-4.4,0-7.9-3.5-7.9-7.9V239c0-4.4,3.5-7.9,7.9-7.9h11.8
		C286.5,231.1,290.1,234.7,290.1,239z"/>
	
		<linearGradient id="SVGID_23_" gradientUnits="userSpaceOnUse" x1="313.31" y1="170.94" x2="313.31" y2="143.34" gradientTransform="matrix(1 0 0 -1 0 402.06)">
		<stop  offset="0" style="stop-color:#5E5E5E;stop-opacity:0.5"/>
		<stop  offset="1" style="stop-color:#2E2E2E"/>
	</linearGradient>
	<path class="st25" d="M327.1,239v11.8c0,4.4-3.5,7.9-7.9,7.9h-11.8c-4.4,0-7.9-3.5-7.9-7.9V239c0-4.4,3.5-7.9,7.9-7.9h11.8
		C323.6,231.1,327.1,234.7,327.1,239z"/>
	
		<linearGradient id="SVGID_24_" gradientUnits="userSpaceOnUse" x1="313.31" y1="132.86" x2="313.31" y2="105.26" gradientTransform="matrix(1 0 0 -1 0 402.06)">
		<stop  offset="0" style="stop-color:#5E5E5E;stop-opacity:0.5"/>
		<stop  offset="1" style="stop-color:#2E2E2E"/>
	</linearGradient>
	<path class="st26" d="M327.1,277.1v11.8c0,4.4-3.5,7.9-7.9,7.9h-11.8c-4.4,0-7.9-3.5-7.9-7.9v-11.8c0-4.4,3.5-7.9,7.9-7.9h11.8
		C323.6,269.2,327.1,272.7,327.1,277.1z"/>
	
		<linearGradient id="SVGID_25_" gradientUnits="userSpaceOnUse" x1="276.27" y1="132.86" x2="276.27" y2="105.26" gradientTransform="matrix(1 0 0 -1 0 402.06)">
		<stop  offset="0" style="stop-color:#5E5E5E;stop-opacity:0.5"/>
		<stop  offset="1" style="stop-color:#2E2E2E"/>
	</linearGradient>
	<path class="st27" d="M290.1,277.1v11.8c0,4.4-3.5,7.9-7.9,7.9h-11.8c-4.4,0-7.9-3.5-7.9-7.9v-11.8c0-4.4,3.5-7.9,7.9-7.9h11.8
		C286.5,269.2,290.1,272.7,290.1,277.1z"/>
	
		<linearGradient id="SVGID_26_" gradientUnits="userSpaceOnUse" x1="276.27" y1="173.19" x2="276.27" y2="145.59" gradientTransform="matrix(1 0 0 -1 0 402.06)">
		<stop  offset="0" style="stop-color:#F2F2F2"/>
		<stop  offset="1" style="stop-color:#CCCCCC"/>
	</linearGradient>
	<path class="st28" d="M290.1,236.8v11.8c0,4.4-3.5,7.9-7.9,7.9h-11.8c-4.4,0-7.9-3.5-7.9-7.9v-11.8c0-4.4,3.5-7.9,7.9-7.9h11.8
		C286.5,228.9,290.1,232.4,290.1,236.8z"/>
	
		<linearGradient id="SVGID_27_" gradientUnits="userSpaceOnUse" x1="313.31" y1="173.18" x2="313.31" y2="145.58" gradientTransform="matrix(1 0 0 -1 0 402.06)">
		<stop  offset="0" style="stop-color:#F2F2F2"/>
		<stop  offset="1" style="stop-color:#CCCCCC"/>
	</linearGradient>
	<path class="st29" d="M327.1,236.8v11.8c0,4.4-3.5,7.9-7.9,7.9h-11.8c-4.4,0-7.9-3.5-7.9-7.9v-11.8c0-4.4,3.5-7.9,7.9-7.9h11.8
		C323.6,228.9,327.1,232.4,327.1,236.8z"/>
	
		<linearGradient id="SVGID_28_" gradientUnits="userSpaceOnUse" x1="276.27" y1="135.51" x2="276.27" y2="107.91" gradientTransform="matrix(1 0 0 -1 0 402.06)">
		<stop  offset="0" style="stop-color:#F2F2F2"/>
		<stop  offset="1" style="stop-color:#CCCCCC"/>
	</linearGradient>
	<path class="st30" d="M290.1,274.4v11.8c0,4.4-3.5,7.9-7.9,7.9h-11.8c-4.4,0-7.9-3.5-7.9-7.9v-11.8c0-4.4,3.5-7.9,7.9-7.9h11.8
		C286.5,266.5,290.1,270.1,290.1,274.4z"/>
	
		<linearGradient id="SVGID_29_" gradientUnits="userSpaceOnUse" x1="313.31" y1="135.51" x2="313.31" y2="107.91" gradientTransform="matrix(1 0 0 -1 0 402.06)">
		<stop  offset="0" style="stop-color:#F2F2F2"/>
		<stop  offset="1" style="stop-color:#CCCCCC"/>
	</linearGradient>
	<path class="st31" d="M327.1,274.4v11.8c0,4.4-3.5,7.9-7.9,7.9h-11.8c-4.4,0-7.9-3.5-7.9-7.9v-11.8c0-4.4,3.5-7.9,7.9-7.9h11.8
		C323.6,266.6,327.1,270.1,327.1,274.4z"/>
	
		<linearGradient id="SVGID_30_" gradientUnits="userSpaceOnUse" x1="269.82" y1="159.41" x2="282.73" y2="159.41" gradientTransform="matrix(1 0 0 -1 0 402.06)">
		<stop  offset="0" style="stop-color:#2CA7E0"/>
		<stop  offset="0.28" style="stop-color:#2BA4DC"/>
		<stop  offset="0.56" style="stop-color:#289CD0"/>
		<stop  offset="0.84" style="stop-color:#228FBC"/>
		<stop  offset="1" style="stop-color:#1E85AD"/>
	</linearGradient>
	<path class="st32" d="M274.5,249v-4.8h-4.6V241h4.6v-4.8h3.6v4.8h4.6v3.2h-4.6v4.8H274.5z"/>
	
		<linearGradient id="SVGID_31_" gradientUnits="userSpaceOnUse" x1="308.6" y1="159.39" x2="318.02" y2="159.39" gradientTransform="matrix(1 0 0 -1 0 402.06)">
		<stop  offset="0" style="stop-color:#94273A"/>
		<stop  offset="1" style="stop-color:#C6514D"/>
	</linearGradient>
	<path class="st33" d="M308.6,244.4v-3.5h9.4v3.5H308.6z"/>
	
		<linearGradient id="SVGID_32_" gradientUnits="userSpaceOnUse" x1="270.47" y1="121.705" x2="282.08" y2="121.705" gradientTransform="matrix(1 0 0 -1 0 402.06)">
		<stop  offset="0" style="stop-color:#3495D2"/>
		<stop  offset="0.28" style="stop-color:#378FCD"/>
		<stop  offset="0.65" style="stop-color:#3F7FC1"/>
		<stop  offset="1" style="stop-color:#4969B0"/>
	</linearGradient>
	<path class="st34" d="M270.5,283.6l3.4-3.4l-3.3-3.3l2.3-2.3l3.3,3.3l3.4-3.4l2.5,2.6l-3.4,3.4l3.3,3.3l-2.3,2.3l-3.3-3.3l-3.3,3.4
		L270.5,283.6z"/>
	
		<linearGradient id="SVGID_33_" gradientUnits="userSpaceOnUse" x1="306.87" y1="121.715" x2="319.75" y2="121.715" gradientTransform="matrix(1 0 0 -1 0 402.06)">
		<stop  offset="0" style="stop-color:#4C64AD"/>
		<stop  offset="0.31" style="stop-color:#545CA4"/>
		<stop  offset="0.8" style="stop-color:#69488C"/>
		<stop  offset="1" style="stop-color:#733E81"/>
	</linearGradient>
	<path class="st35" d="M306.9,275.4h12.9v3.2h-12.9V275.4z M306.9,282h12.9v3.2h-12.9V282z"/>
	
		<linearGradient id="SVGID_34_" gradientUnits="userSpaceOnUse" x1="291.235" y1="197.67" x2="291.235" y2="189.1" gradientTransform="matrix(1 0 0 -1 0 402.06)">
		<stop  offset="0" style="stop-color:#5E5E5E"/>
		<stop  offset="1" style="stop-color:#2E2E2E"/>
	</linearGradient>
	<path class="st36" d="M289.5,204.4h3.5v8.6h-1.8V206h-1.6V204.4z"/>
	
		<linearGradient id="SVGID_35_" gradientUnits="userSpaceOnUse" x1="295.7954" y1="191.16" x2="295.7954" y2="189.01" gradientTransform="matrix(1 0 0 -1 0 402.06)">
		<stop  offset="0" style="stop-color:#5E5E5E"/>
		<stop  offset="1" style="stop-color:#2E2E2E"/>
	</linearGradient>
	<path class="st37" d="M295,212.7c-0.4-0.4-0.4-1.1,0-1.6c0.4-0.4,1.1-0.4,1.6,0c0.4,0.4,0.4,1.1,0,1.6c-0.2,0.2-0.5,0.3-0.8,0.3
		C295.5,213.1,295.2,212.9,295,212.7z"/>
	
		<linearGradient id="SVGID_36_" gradientUnits="userSpaceOnUse" x1="301.295" y1="197.87" x2="301.295" y2="189.1" gradientTransform="matrix(1 0 0 -1 0 402.06)">
		<stop  offset="0" style="stop-color:#5E5E5E"/>
		<stop  offset="1" style="stop-color:#2E2E2E"/>
	</linearGradient>
	<path class="st38" d="M301.9,207.7c0.2-0.3,0.3-0.6,0.3-0.9c0-0.3-0.1-0.5-0.3-0.7c-0.2-0.2-0.5-0.3-0.7-0.3c-0.5,0-1,0.4-1.5,1.1
		l-1.5-0.9c0.3-0.6,0.8-1,1.3-1.4c0.5-0.3,1.2-0.5,1.8-0.5c0.7,0,1.4,0.2,2,0.7c0.6,0.5,0.9,1.2,0.8,1.9c0,0.4-0.1,0.9-0.3,1.3
		c-0.3,0.6-0.8,1.1-1.2,1.5l-1.5,1.6h3.4v1.7h-6v-1.4l2.5-2.6C301.3,208.6,301.6,208.2,301.9,207.7z"/>
	
		<linearGradient id="SVGID_37_" gradientUnits="userSpaceOnUse" x1="308.5165" y1="197.67" x2="308.5165" y2="189.0071" gradientTransform="matrix(1 0 0 -1 0 402.06)">
		<stop  offset="0" style="stop-color:#5E5E5E"/>
		<stop  offset="1" style="stop-color:#2E2E2E"/>
	</linearGradient>
	<path class="st39" d="M305.9,206v-1.6h5.2v1.3l-1.8,2c0.6,0.1,1.2,0.4,1.6,0.9c0.4,0.5,0.6,1,0.6,1.6c0,0.8-0.3,1.6-0.9,2.1
		c-0.7,0.5-1.5,0.8-2.3,0.8c-1,0-2-0.4-2.9-1l0.8-1.5c0.6,0.5,1.4,0.8,2.2,0.9c0.4,0,0.7-0.1,1-0.3c0.2-0.2,0.4-0.5,0.4-0.8
		c0-0.3-0.2-0.7-0.4-0.9c-0.4-0.2-0.8-0.3-1.2-0.3c-0.4,0-0.8,0.1-1.1,0.2V208l1.6-1.9L305.9,206z"/>
	
		<linearGradient id="SVGID_38_" gradientUnits="userSpaceOnUse" x1="315.885" y1="197.67" x2="315.885" y2="189.1" gradientTransform="matrix(1 0 0 -1 0 402.06)">
		<stop  offset="0" style="stop-color:#5E5E5E"/>
		<stop  offset="1" style="stop-color:#2E2E2E"/>
	</linearGradient>
	<path class="st40" d="M316.1,209.2v-1.5h1.9v1.5h1v1.7h-1v2h-1.8v-2h-3.5v-1.5l3-5.1h2.1l-2.9,4.9L316.1,209.2z"/>
	
		<linearGradient id="SVGID_39_" gradientUnits="userSpaceOnUse" x1="100.4274" y1="34.4366" x2="100.4274" y2="81.0717" gradientTransform="matrix(0.9128 -0.4085 -0.4085 -0.9128 99.1931 288.5738)">
		<stop  offset="0" style="stop-color:#1E8239"/>
		<stop  offset="1" style="stop-color:#2B9428"/>
	</linearGradient>
	<path class="st41" d="M226.8,193.7l-100.1,44.8c-4.2,1.9-9,0-10.9-4.2l-12.3-27.5c-1.9-4.2,0-9,4.2-10.9l100.1-44.8
		c4.2-1.9,9,0,10.9,4.2l12.3,27.5C232.9,187,231,191.9,226.8,193.7z M109.4,199.8c-2,0.9-2.9,3.3-2,5.3c0,0,0,0,0,0l12.3,27.5
		c0.9,2,3.3,2.9,5.3,2c0,0,0,0,0,0l100.1-44.8c2-0.9,2.9-3.3,2-5.3c0,0,0,0,0,0L214.8,157c-0.9-2-3.3-2.9-5.3-2c0,0,0,0,0,0
		L109.4,199.8z"/>
	
		<linearGradient id="SVGID_40_" gradientUnits="userSpaceOnUse" x1="100.4182" y1="42.0287" x2="100.4182" y2="73.4633" gradientTransform="matrix(0.9128 -0.4085 -0.4085 -0.9128 99.1931 288.5738)">
		<stop  offset="0" style="stop-color:#1E8239"/>
		<stop  offset="1" style="stop-color:#2B9428"/>
	</linearGradient>
	<path class="st42" d="M220,188.5l-92.6,41.5c-2.6,1.2-5.6,0-6.8-2.6l-8.7-19.3c-1.2-2.6,0-5.6,2.6-6.8l92.7-41.5
		c2.6-1.2,5.6,0,6.8,2.6l8.6,19.3C223.8,184.2,222.6,187.3,220,188.5z M115.4,203.2c-1.5,0.7-2.2,2.4-1.6,3.9c0,0,0,0,0,0.1
		l8.6,19.3c0.7,1.5,2.4,2.2,3.9,1.6c0,0,0,0,0.1,0l92.6-41.5c1.5-0.7,2.2-2.4,1.6-3.9c0,0,0,0,0-0.1l-8.7-19.3
		c-0.7-1.5-2.4-2.2-3.9-1.6c0,0,0,0-0.1,0L115.4,203.2z"/>
	
		<linearGradient id="SVGID_41_" gradientUnits="userSpaceOnUse" x1="64.4963" y1="53.0476" x2="64.4963" y2="65.1576" gradientTransform="matrix(0.9128 -0.4085 -0.4085 -0.9128 99.1931 288.5738)">
		<stop  offset="0" style="stop-color:#1E8239"/>
		<stop  offset="1" style="stop-color:#2B9428"/>
	</linearGradient>
	<path class="st43" d="M135.5,202.7c1.6,0.6,2.8,1.8,3.4,3.3c0.7,1.5,0.9,3.2,0.3,4.8c-0.8,1.7-2.2,3-4,3.6l-3.8,1.7l-4.9-11
		l3.9-1.8C131.9,202.4,133.8,202.2,135.5,202.7z M136.7,210.1c0.3-0.9,0.3-2-0.2-2.9c-0.3-0.9-1.1-1.7-2-2.1
		c-1.1-0.3-2.2-0.2-3.2,0.4l-1.4,0.6l3,6.7l1.6-0.7C135.4,211.7,136.2,211,136.7,210.1L136.7,210.1z"/>
	
		<linearGradient id="SVGID_42_" gradientUnits="userSpaceOnUse" x1="73.3044" y1="53.0405" x2="73.3044" y2="66.1726" gradientTransform="matrix(0.9128 -0.4085 -0.4085 -0.9128 99.1931 288.5738)">
		<stop  offset="0" style="stop-color:#1E8239"/>
		<stop  offset="1" style="stop-color:#2B9428"/>
	</linearGradient>
	<path class="st44" d="M139.1,201.1c-0.8-0.3-1.2-1.2-0.9-2c0.3-0.8,1.2-1.2,2-0.9s1.2,1.2,0.9,2c-0.2,0.4-0.5,0.7-0.9,0.9
		C139.9,201.2,139.5,201.2,139.1,201.1z M145.6,209.7l-2.4,1.1l-3.8-8.5l2.4-1.1L145.6,209.7z"/>
	
		<linearGradient id="SVGID_43_" gradientUnits="userSpaceOnUse" x1="85.8647" y1="52.9176" x2="85.8647" y2="65.4376" gradientTransform="matrix(0.9128 -0.4085 -0.4085 -0.9128 99.1931 288.5738)">
		<stop  offset="0" style="stop-color:#1E8239"/>
		<stop  offset="1" style="stop-color:#2B9428"/>
	</linearGradient>
	<path class="st45" d="M150.9,196.7c-0.2,0.3-0.2,0.6,0,0.9c0.1,0.3,0.4,0.5,0.8,0.6c0.8,0,1.6-0.1,2.3-0.2c1-0.2,2-0.2,3,0.1
		c0.9,0.3,1.6,1,1.9,1.9c0.5,0.9,0.5,2,0,2.9c-0.5,1-1.4,1.8-2.5,2.2c-1.8,0.8-3.8,0.8-5.6,0.2l0.7-2.5c1.3,0.5,2.7,0.5,4,0.1
		c0.4-0.1,0.7-0.4,0.9-0.8c0.2-0.3,0.2-0.7,0-1c-0.1-0.3-0.4-0.6-0.8-0.6c-0.6-0.1-1.3,0-1.9,0.1c-1.1,0.3-2.2,0.3-3.4,0.1
		c-0.9-0.3-1.6-1-1.9-1.9c-0.5-0.9-0.5-2,0-2.9c0.6-1,1.4-1.7,2.4-2.1c0.8-0.3,1.6-0.5,2.4-0.6c0.8-0.1,1.6,0,2.4,0.2l-0.4,2.4
		c-1.1-0.3-2.4-0.2-3.5,0.2C151.3,196.1,151,196.4,150.9,196.7z"/>
	
		<linearGradient id="SVGID_44_" gradientUnits="userSpaceOnUse" x1="96.7886" y1="52.9176" x2="96.7886" y2="62.5276" gradientTransform="matrix(0.9128 -0.4085 -0.4085 -0.9128 99.1931 288.5738)">
		<stop  offset="0" style="stop-color:#1E8239"/>
		<stop  offset="1" style="stop-color:#2B9428"/>
	</linearGradient>
	<path class="st46" d="M168.9,197.8c-0.5,1.3-1.5,2.3-2.8,2.9c-1.2,0.6-2.5,0.7-3.7,0.2c-1.2-0.5-2.2-1.4-2.7-2.6
		c-0.6-1.2-0.6-2.6-0.1-3.8c0.5-1.1,1.4-2.1,2.5-2.5c1.1-0.5,2.3-0.6,3.5-0.3c1.1,0.4,2.1,1.2,2.5,2.4l0.6,1.3l-6.2,2.8
		c0.3,0.4,0.7,0.7,1.2,0.8c0.5,0.1,1.1,0,1.6-0.2c0.8-0.3,1.4-1,1.7-1.8L168.9,197.8z M164.4,193.8c-0.5-0.1-0.9-0.1-1.4,0.1
		c-0.5,0.2-0.9,0.6-1.1,1c-0.3,0.4-0.3,1-0.2,1.5l3.7-1.7C165.2,194.2,164.9,193.9,164.4,193.8L164.4,193.8z"/>
	
		<linearGradient id="SVGID_45_" gradientUnits="userSpaceOnUse" x1="106.0628" y1="52.9176" x2="106.0628" y2="65.1576" gradientTransform="matrix(0.9128 -0.4085 -0.4085 -0.9128 99.1931 288.5738)">
		<stop  offset="0" style="stop-color:#1E8239"/>
		<stop  offset="1" style="stop-color:#2B9428"/>
	</linearGradient>
	<path class="st47" d="M171.6,189.9l1.7,3.8c0.1,0.3,0.3,0.5,0.6,0.6c0.2,0.1,0.5,0.1,0.7,0c0.4-0.2,0.8-0.6,0.9-1.1l1.6,1.3
		c-0.3,0.9-1,1.6-1.9,2.1c-1.5,0.7-3.4,0.1-4.1-1.4c0-0.1-0.1-0.2-0.1-0.3l-1.8-3.9l-1,0.5l-0.8-1.7l1-0.5l-1.1-2.5l2.4-1.1l1.1,2.5
		l2.1-0.9l0.8,1.7L171.6,189.9z"/>
	
		<linearGradient id="SVGID_46_" gradientUnits="userSpaceOnUse" x1="115.149" y1="52.9176" x2="115.149" y2="62.3676" gradientTransform="matrix(0.9128 -0.4085 -0.4085 -0.9128 99.1931 288.5738)">
		<stop  offset="0" style="stop-color:#1E8239"/>
		<stop  offset="1" style="stop-color:#2B9428"/>
	</linearGradient>
	<path class="st48" d="M182.5,188.5l-2-4.6l2.4-1.1l3.8,8.5l-2.4,1.1l-0.5-1.1c-0.2,1-0.8,1.9-1.7,2.3c-0.9,0.4-1.8,0.5-2.7,0.2
		c-1-0.4-1.8-1.2-2.1-2.2l-2.3-5.2l2.4-1.1l2.1,4.6c0.6,1.3,1.4,1.8,2.3,1.3c0.5-0.2,0.8-0.6,1-1.1
		C182.8,189.6,182.7,189,182.5,188.5z"/>
	
		<linearGradient id="SVGID_47_" gradientUnits="userSpaceOnUse" x1="122.7383" y1="49.3776" x2="122.7383" y2="66.1676" gradientTransform="matrix(0.9128 -0.4085 -0.4085 -0.9128 99.1931 288.5738)">
		<stop  offset="0" style="stop-color:#1E8239"/>
		<stop  offset="1" style="stop-color:#2B9428"/>
	</linearGradient>
	<path class="st49" d="M189.7,190.1l-3.9-8.7l2.4-1.1l4,8.9c0.8,1.5,0.2,3.4-1.3,4.2c-0.1,0-0.2,0.1-0.3,0.1c-0.9,0.4-1.9,0.4-2.8,0
		l0.3-2.2c0.4,0.2,0.9,0.3,1.3,0.1c0.2-0.1,0.4-0.3,0.4-0.5C189.9,190.7,189.9,190.4,189.7,190.1z M185.6,180.3
		c-0.8-0.3-1.2-1.2-0.9-2c0.3-0.8,1.2-1.2,2-0.9s1.2,1.2,0.9,2c-0.2,0.4-0.5,0.7-0.9,0.9C186.4,180.5,185.9,180.5,185.6,180.3z"/>
	
		<linearGradient id="SVGID_48_" gradientUnits="userSpaceOnUse" x1="132.1906" y1="52.9176" x2="132.1906" y2="62.3676" gradientTransform="matrix(0.9128 -0.4085 -0.4085 -0.9128 99.1931 288.5738)">
		<stop  offset="0" style="stop-color:#1E8239"/>
		<stop  offset="1" style="stop-color:#2B9428"/>
	</linearGradient>
	<path class="st50" d="M198,181.5l-2-4.6l2.4-1.1l3.8,8.5l-2.4,1.1l-0.5-1.1c-0.2,1-0.8,1.9-1.7,2.3c-0.9,0.4-1.8,0.5-2.7,0.2
		c-1-0.4-1.8-1.2-2.1-2.2l-2.3-5.2l2.4-1.1l2.1,4.6c0.6,1.3,1.4,1.8,2.3,1.3c0.5-0.2,0.8-0.6,1-1.1
		C198.4,182.7,198.3,182.1,198,181.5z"/>
	
		<linearGradient id="SVGID_49_" gradientUnits="userSpaceOnUse" x1="140.3367" y1="53.0476" x2="140.3367" y2="66.1797" gradientTransform="matrix(0.9128 -0.4085 -0.4085 -0.9128 99.1931 288.5738)">
		<stop  offset="0" style="stop-color:#1E8239"/>
		<stop  offset="1" style="stop-color:#2B9428"/>
	</linearGradient>
	<path class="st51" d="M200.3,173.7c-0.8-0.3-1.2-1.2-0.9-2c0.3-0.8,1.2-1.2,2-0.9s1.2,1.2,0.9,2c-0.2,0.4-0.5,0.7-0.9,0.9
		C201.1,173.9,200.7,173.9,200.3,173.7z M206.8,182.3l-2.4,1.1l-3.8-8.5l2.4-1.1L206.8,182.3z"/>
	
		<linearGradient id="SVGID_50_" gradientUnits="userSpaceOnUse" x1="664.6075" y1="509.4842" x2="698.6475" y2="529.1342" gradientTransform="matrix(0.98 -0.23 -0.23 -0.98 -283.1025 837.5563)">
		<stop  offset="0" style="stop-color:#ECC41C"/>
		<stop  offset="0.47" style="stop-color:#FFFFCC"/>
		<stop  offset="0.99" style="stop-color:#FFE93C"/>
	</linearGradient>
	<path class="st52" d="M269.6,191.6c-10.6,2.6-21.3-4-23.9-14.6s4-21.3,14.6-23.9s21.3,4,23.9,14.6c0,0,0,0,0,0.1
		C286.7,178.4,280.2,189,269.6,191.6z"/>
	
		<linearGradient id="SVGID_51_" gradientUnits="userSpaceOnUse" x1="665.4698" y1="507.4483" x2="705.6498" y2="522.0784" gradientTransform="matrix(0.9729 -0.2312 -0.2336 -0.9826 -284.4648 838.4819)">
		<stop  offset="0" style="stop-color:#ECC41C"/>
		<stop  offset="0.47" style="stop-color:#FFFFCC"/>
		<stop  offset="0.99" style="stop-color:#FFE93C"/>
	</linearGradient>
	<path class="st53" d="M260,151.4c11.5-2.7,23.1,4.4,25.9,16c2.7,11.6-4.4,23.2-15.9,25.9c-11.5,2.7-23.1-4.4-25.9-16
		S248.5,154.2,260,151.4z"/>
	
		<ellipse transform="matrix(0.9729 -0.2312 0.2312 0.9729 -32.6714 65.9458)" class="st54" cx="265" cy="172.3" rx="21.5" ry="21.5"/>
	
		<linearGradient id="SVGID_52_" gradientUnits="userSpaceOnUse" x1="664.6075" y1="509.4842" x2="698.6475" y2="529.1342" gradientTransform="matrix(0.98 -0.23 -0.23 -0.98 -283.1025 837.5563)">
		<stop  offset="0" style="stop-color:#F7DE65"/>
		<stop  offset="0.47" style="stop-color:#FFFFCC"/>
		<stop  offset="0.99" style="stop-color:#FFF582"/>
	</linearGradient>
	<path class="st55" d="M269.6,191.6c-10.6,2.6-21.3-4-23.9-14.6s4-21.3,14.6-23.9s21.3,4,23.9,14.6c0,0,0,0,0,0.1
		C286.7,178.4,280.2,189,269.6,191.6z"/>
	<polyline class="st56" points="255.6,174.6 263.9,179.8 273.7,163.9 	"/>
	
		<linearGradient id="SVGID_53_" gradientUnits="userSpaceOnUse" x1="673.0756" y1="515.1228" x2="693.3558" y2="526.8414" gradientTransform="matrix(0.98 -0.23 -0.23 -0.98 -283.1025 837.5563)">
		<stop  offset="0" style="stop-color:#E7CB4C"/>
		<stop  offset="0.1" style="stop-color:#E7CC4F"/>
		<stop  offset="0.18" style="stop-color:#E9CF5A"/>
		<stop  offset="0.25" style="stop-color:#EBD46C"/>
		<stop  offset="0.33" style="stop-color:#EEDB85"/>
		<stop  offset="0.4" style="stop-color:#F2E4A5"/>
		<stop  offset="0.47" style="stop-color:#F7EECC"/>
		<stop  offset="0.51" style="stop-color:#FAF5E3"/>
		<stop  offset="0.56" style="stop-color:#F8F2D6"/>
		<stop  offset="0.65" style="stop-color:#F4E8B4"/>
		<stop  offset="0.78" style="stop-color:#EDDA7D"/>
		<stop  offset="0.93" style="stop-color:#E3C532"/>
		<stop  offset="0.99" style="stop-color:#DFBD12"/>
	</linearGradient>
	<polyline class="st57" points="255.4,173.9 263.8,179 273.5,163.1 	"/>
	
		<linearGradient id="SVGID_54_" gradientUnits="userSpaceOnUse" x1="281.26" y1="193.19" x2="286.5" y2="193.19" gradientTransform="matrix(1 0 0 -1 0 402.06)">
		<stop  offset="0" style="stop-color:#5E5E5E"/>
		<stop  offset="1" style="stop-color:#2E2E2E"/>
	</linearGradient>
	<path class="st58" d="M283.1,211.5v-1.9h-1.9v-1.3h1.9v-1.9h1.5v1.9h1.9v1.3h-1.9v1.9H283.1z"/>
</g>
</svg>
