<?xml version="1.0" encoding="utf-8"?>
<!-- Generator: Adobe Illustrator 21.0.0, SVG Export Plug-In . SVG Version: 6.00 Build 0)  -->
<svg version="1.1" id="Layer_1" xmlns="http://www.w3.org/2000/svg" xmlns:xlink="http://www.w3.org/1999/xlink" x="0px" y="0px"
	 viewBox="0 0 400 400" style="enable-background:new 0 0 400 400;" xml:space="preserve">
<style type="text/css">
	.st0{opacity:0.2;fill:url(#SVGID_1_);enable-background:new    ;}
	.st1{opacity:0.2;fill:url(#SVGID_2_);enable-background:new    ;}
	.st2{opacity:0.2;enable-background:new    ;}
	.st3{fill:url(#SVGID_3_);}
	.st4{fill:url(#SVGID_4_);}
	.st5{fill:url(#SVGID_5_);}
	.st6{fill:url(#SVGID_6_);}
	.st7{fill:url(#SVGID_7_);}
	.st8{opacity:0.12;enable-background:new    ;}
	.st9{opacity:0.25;fill:#FFFFFF;enable-background:new    ;}
	.st10{fill:url(#SVGID_8_);}
	.st11{fill:#FFFFFF;}
	.st12{fill:url(#SVGID_9_);}
	.st13{fill:url(#SVGID_10_);}
	.st14{fill:url(#SVGID_11_);}
	.st15{fill:url(#SVGID_12_);}
</style>
<title>Il_download-44</title>
<g id="Download_App">
	
		<linearGradient id="SVGID_1_" gradientUnits="userSpaceOnUse" x1="133.6898" y1="98.21" x2="133.6898" y2="104.19" gradientTransform="matrix(1 0 0 -1 0 402)">
		<stop  offset="0" style="stop-color:#5E5E5E;stop-opacity:0.5"/>
		<stop  offset="1" style="stop-color:#2E2E2E"/>
	</linearGradient>
	<path class="st0" d="M88.8,297.8h89.7c1.6,0,2.8,1.3,2.8,2.8v0.4c0,1.6-1.3,2.8-2.8,2.8H88.8c-1.6,0-2.8-1.3-2.8-2.8c0,0,0,0,0,0
		v-0.3C86,299.1,87.2,297.8,88.8,297.8C88.8,297.8,88.8,297.8,88.8,297.8z"/>
	
		<linearGradient id="SVGID_2_" gradientUnits="userSpaceOnUse" x1="210.145" y1="92.94" x2="210.145" y2="101.2" gradientTransform="matrix(1 0 0 -1 0 402)">
		<stop  offset="0" style="stop-color:#5E5E5E;stop-opacity:0.5"/>
		<stop  offset="1" style="stop-color:#2E2E2E"/>
	</linearGradient>
	<path class="st1" d="M158.1,300.8h104c1.6,0,2.8,1.3,2.8,2.8v2.6c0,1.6-1.3,2.8-2.8,2.8h-104c-1.6,0-2.8-1.3-2.8-2.8v-2.6
		C155.3,302.1,156.6,300.8,158.1,300.8z"/>
	<polygon class="st2" points="129.8,295.7 129.1,300.6 129.1,300.8 116.9,300.8 117.2,298.8 118,293.9 122.9,294.6 125.9,295.1 	"/>
	
		<linearGradient id="SVGID_3_" gradientUnits="userSpaceOnUse" x1="136.3107" y1="101.2" x2="136.3107" y2="184.2" gradientTransform="matrix(1 0 0 -1 0 402)">
		<stop  offset="0" style="stop-color:#5E5E5E"/>
		<stop  offset="1" style="stop-color:#999999"/>
	</linearGradient>
	<path class="st3" d="M178.3,231.2c-1.4-1.5-4.3-1.4-7.5-1.4h-13.9v-5l-8.1-7h-25l-7.9,7v5h-14.1c-4.7,0-8.5-0.2-8.5,4.5v58
		c0,4.7,3.8,8.5,8.5,8.5h69c4.7,0,8.5-3.8,8.5-8.5v-58C179.4,233.2,179,232.1,178.3,231.2z M123.6,225.9c0-1.6,1.3-2.8,2.8-2.8h19.8
		c1.6,0,2.8,1.3,2.8,2.8v1.1c0,1.6-1.3,2.8-2.8,2.8h-19.8c-1.6,0-2.8-1.3-2.8-2.8V225.9z"/>
	
		<linearGradient id="SVGID_4_" gradientUnits="userSpaceOnUse" x1="136.7401" y1="-4687.48" x2="110.2501" y2="-4660.9902" gradientTransform="matrix(1 0 0 1 0 4936.6699)">
		<stop  offset="0" style="stop-color:#00A0FF"/>
		<stop  offset="1.000000e-02" style="stop-color:#00A1FF"/>
		<stop  offset="0.26" style="stop-color:#00BEFF"/>
		<stop  offset="0.51" style="stop-color:#00D2FF"/>
		<stop  offset="0.76" style="stop-color:#00DFFF"/>
		<stop  offset="1" style="stop-color:#00E3FF"/>
	</linearGradient>
	<path class="st4" d="M118.8,247.3c-0.5,0.6-0.8,1.4-0.7,2.2v34.9c0,0.8,0.2,1.6,0.7,2.2l0.1,0.1l19.6-19.6v-0.5l-19.6-19.6
		L118.8,247.3z"/>
	
		<linearGradient id="SVGID_5_" gradientUnits="userSpaceOnUse" x1="155.74" y1="-4669.6499" x2="117.55" y2="-4669.6499" gradientTransform="matrix(1 0 0 1 0 4936.6699)">
		<stop  offset="0" style="stop-color:#FFE000"/>
		<stop  offset="0.41" style="stop-color:#FFBD00"/>
		<stop  offset="0.78" style="stop-color:#FFA500"/>
		<stop  offset="1" style="stop-color:#FF9C00"/>
	</linearGradient>
	<path class="st5" d="M145,273.8l-6.5-6.5v-0.5l6.5-6.5l0.1,0.1l7.7,4.4c2.2,1.2,2.2,3.3,0,4.6l-7.7,4.4L145,273.8z"/>
	
		<linearGradient id="SVGID_6_" gradientUnits="userSpaceOnUse" x1="141.5226" y1="-4666.0376" x2="105.6026" y2="-4630.1074" gradientTransform="matrix(1 0 0 1 0 4936.6699)">
		<stop  offset="0" style="stop-color:#FF3A44"/>
		<stop  offset="1" style="stop-color:#C31162"/>
	</linearGradient>
	<path class="st6" d="M145.1,273.7l-6.7-6.7l-19.7,19.7c0.7,0.8,1.9,0.9,3.3,0.1L145.1,273.7L145.1,273.7z"/>
	
		<linearGradient id="SVGID_7_" gradientUnits="userSpaceOnUse" x1="113.8499" y1="-4700.9502" x2="129.8899" y2="-4684.9102" gradientTransform="matrix(1 0 0 1 0 4936.6699)">
		<stop  offset="0" style="stop-color:#32A071"/>
		<stop  offset="7.000000e-02" style="stop-color:#2DA771"/>
		<stop  offset="0.48" style="stop-color:#15CF74"/>
		<stop  offset="0.8" style="stop-color:#06E775"/>
		<stop  offset="1" style="stop-color:#00F076"/>
	</linearGradient>
	<path class="st7" d="M145.1,260.4l-23.1-13.1c-1.4-0.8-2.6-0.7-3.3,0.1l19.7,19.6L145.1,260.4z"/>
	<path class="st2" d="M145,273.5l-22.9,13c-1.3,0.7-2.4,0.7-3.2,0l0,0l-0.1,0.1l0,0l0.1,0.1l0,0c0.7,0.7,1.9,0.7,3.2,0l23.1-13.1
		L145,273.5z"/>
	<path class="st8" d="M118.8,286.5c-0.5-0.6-0.8-1.4-0.7-2.2v0.2c0,0.8,0.2,1.6,0.7,2.2l0.1-0.1L118.8,286.5z"/>
	<path class="st8" d="M152.9,269.1l-7.9,4.5l0.1,0.1l7.7-4.4c0.9-0.4,1.6-1.3,1.6-2.3l0,0C154.3,267.9,153.7,268.7,152.9,269.1z"/>
	<path class="st9" d="M122.1,247.5l30.8,17.5c0.8,0.4,1.4,1.1,1.6,2l0,0c-0.1-1-0.7-1.9-1.6-2.3l-30.8-17.5c-2.2-1.2-4-0.2-4,2.3
		v0.2C118.1,247.3,119.9,246.2,122.1,247.5z"/>
	
		<linearGradient id="SVGID_8_" gradientUnits="userSpaceOnUse" x1="207.17" y1="312.39" x2="207.17" y2="96.39" gradientTransform="matrix(1 0 0 -1 0 402)">
		<stop  offset="0" style="stop-color:#5E5E5E"/>
		<stop  offset="1" style="stop-color:#2E2E2E"/>
	</linearGradient>
	<path class="st10" d="M255.5,100.9v193.3c0,6.3-5.1,11.3-11.3,11.3h-74.1c-6.3,0-11.3-5.1-11.3-11.3c0,0,0,0,0,0V100.9
		c0-6.3,5.1-11.3,11.3-11.3h74.1C250.5,89.6,255.5,94.7,255.5,100.9z"/>
	<path class="st11" d="M170.1,99.4h74.1c4.7,0,8.5,3.8,8.5,8.5v178.3c0,4.7-3.8,8.5-8.5,8.5h-74.1c-4.7,0-8.5-3.8-8.5-8.5V107.9
		C161.6,103.2,165.4,99.4,170.1,99.4z"/>
	
		<linearGradient id="SVGID_9_" gradientUnits="userSpaceOnUse" x1="182.443" y1="224.1217" x2="231.437" y2="195.8383" gradientTransform="matrix(1 0 0 -1 0 402)">
		<stop  offset="0" style="stop-color:#00ACF0"/>
		<stop  offset="1" style="stop-color:#13637B"/>
	</linearGradient>
	<path class="st12" d="M224.4,213.9h-35c-2.4,0-4.4-2-4.4-4.4l0,0v-35c0-2.4,2-4.4,4.4-4.4l0,0h35c2.4,0,4.4,2,4.4,4.4l0,0v35
		C228.8,211.9,226.9,213.9,224.4,213.9L224.4,213.9z"/>
	<path class="st11" d="M203.9,198.8L203.9,198.8z"/>
	<rect x="195.7" y="175.9" class="st11" width="0.5" height="0.5"/>
	<rect x="197.6" y="176.6" class="st11" width="0.5" height="0.5"/>
	<rect x="199.5" y="177.3" class="st11" width="0.5" height="0.5"/>
	<rect x="201.4" y="178" class="st11" width="0.5" height="0.5"/>
	<rect x="203.4" y="178.8" class="st11" width="0.5" height="0.5"/>
	<rect x="205.2" y="179.5" class="st11" width="0.5" height="0.5"/>
	<rect x="207.1" y="180.1" class="st11" width="0.5" height="0.5"/>
	<rect x="208.8" y="180.7" class="st11" width="0.5" height="0.5"/>
	<rect x="210.4" y="181.2" class="st11" width="0.5" height="0.5"/>
	<rect x="197.7" y="177.7" class="st11" width="0.5" height="0.5"/>
	<rect x="199.4" y="178.3" class="st11" width="0.5" height="0.5"/>
	<rect x="201.1" y="178.9" class="st11" width="0.5" height="0.5"/>
	<rect x="202.8" y="179.5" class="st11" width="0.5" height="0.5"/>
	<rect x="204.6" y="180.1" class="st11" width="0.5" height="0.5"/>
	<rect x="206.3" y="180.7" class="st11" width="0.5" height="0.5"/>
	<rect x="207.9" y="181.2" class="st11" width="0.5" height="0.5"/>
	<rect x="209.5" y="181.8" class="st11" width="0.5" height="0.5"/>
	<rect x="211" y="182.2" class="st11" width="0.5" height="0.5"/>
	<rect x="199.5" y="179.4" class="st11" width="0.5" height="0.5"/>
	<rect x="201" y="179.9" class="st11" width="0.5" height="0.5"/>
	<rect x="202.5" y="180.4" class="st11" width="0.5" height="0.5"/>
	<rect x="204.1" y="180.9" class="st11" width="0.5" height="0.5"/>
	<rect x="205.7" y="181.4" class="st11" width="0.5" height="0.5"/>
	<rect x="207.2" y="181.9" class="st11" width="0.5" height="0.5"/>
	<rect x="208.8" y="182.4" class="st11" width="0.5" height="0.5"/>
	<rect x="210.2" y="182.8" class="st11" width="0.5" height="0.5"/>
	<rect x="211.6" y="183.2" class="st11" width="0.5" height="0.5"/>
	<rect x="201.1" y="181" class="st11" width="0.5" height="0.5"/>
	<rect x="202.5" y="181.4" class="st11" width="0.5" height="0.5"/>
	<rect x="203.9" y="181.8" class="st11" width="0.5" height="0.5"/>
	<rect x="205.3" y="182.2" class="st11" width="0.5" height="0.5"/>
	<rect x="206.7" y="182.6" class="st11" width="0.5" height="0.5"/>
	<rect x="208.1" y="183" class="st11" width="0.5" height="0.5"/>
	<rect x="209.5" y="183.4" class="st11" width="0.5" height="0.5"/>
	<rect x="210.8" y="183.8" class="st11" width="0.5" height="0.5"/>
	<rect x="212.1" y="184.2" class="st11" width="0.5" height="0.5"/>
	<rect x="202.6" y="182.5" class="st11" width="0.5" height="0.5"/>
	<rect x="203.8" y="182.8" class="st11" width="0.5" height="0.5"/>
	<rect x="205" y="183.1" class="st11" width="0.5" height="0.5"/>
	<rect x="206.3" y="183.5" class="st11" width="0.5" height="0.5"/>
	<rect x="207.6" y="183.8" class="st11" width="0.5" height="0.5"/>
	<rect x="208.9" y="184.1" class="st11" width="0.5" height="0.5"/>
	<rect x="210.2" y="184.5" class="st11" width="0.5" height="0.5"/>
	<rect x="211.4" y="184.8" class="st11" width="0.5" height="0.5"/>
	<rect x="212.6" y="185.1" class="st11" width="0.5" height="0.5"/>
	<rect x="203.8" y="183.8" class="st11" width="0.5" height="0.5"/>
	<rect x="204.9" y="184.1" class="st11" width="0.5" height="0.5"/>
	<rect x="206.1" y="184.4" class="st11" width="0.5" height="0.5"/>
	<rect x="207.3" y="184.6" class="st11" width="0.5" height="0.5"/>
	<rect x="208.5" y="184.9" class="st11" width="0.5" height="0.5"/>
	<rect x="209.6" y="185.2" class="st11" width="0.5" height="0.5"/>
	<rect x="210.8" y="185.5" class="st11" width="0.5" height="0.5"/>
	<rect x="211.9" y="185.7" class="st11" width="0.5" height="0.5"/>
	<rect x="213" y="186" class="st11" width="0.5" height="0.5"/>
	<rect x="204.9" y="185.1" class="st11" width="0.5" height="0.5"/>
	<rect x="205.9" y="185.3" class="st11" width="0.5" height="0.5"/>
	<rect x="207" y="185.5" class="st11" width="0.5" height="0.5"/>
	<rect x="208.1" y="185.8" class="st11" width="0.5" height="0.5"/>
	<rect x="209.2" y="186" class="st11" width="0.5" height="0.5"/>
	<rect x="210.3" y="186.2" class="st11" width="0.5" height="0.5"/>
	<rect x="211.4" y="186.4" class="st11" width="0.5" height="0.5"/>
	<rect x="212.4" y="186.7" class="st11" width="0.5" height="0.5"/>
	<rect x="213.4" y="186.9" class="st11" width="0.5" height="0.5"/>
	<rect x="205.8" y="186.3" class="st11" width="0.5" height="0.5"/>
	<rect x="206.8" y="186.4" class="st11" width="0.5" height="0.5"/>
	<rect x="207.8" y="186.6" class="st11" width="0.5" height="0.5"/>
	<rect x="208.8" y="186.8" class="st11" width="0.5" height="0.5"/>
	<rect x="209.8" y="187" class="st11" width="0.5" height="0.5"/>
	<rect x="210.8" y="187.2" class="st11" width="0.5" height="0.5"/>
	<rect x="211.8" y="187.4" class="st11" width="0.5" height="0.5"/>
	<rect x="212.8" y="187.5" class="st11" width="0.5" height="0.5"/>
	<rect x="213.8" y="187.7" class="st11" width="0.5" height="0.5"/>
	<rect x="206.6" y="187.4" class="st11" width="0.5" height="0.5"/>
	<rect x="207.5" y="187.5" class="st11" width="0.5" height="0.5"/>
	<rect x="208.5" y="187.6" class="st11" width="0.5" height="0.5"/>
	<rect x="209.4" y="187.8" class="st11" width="0.5" height="0.5"/>
	<rect x="210.3" y="187.9" class="st11" width="0.5" height="0.5"/>
	<rect x="211.3" y="188.1" class="st11" width="0.5" height="0.5"/>
	<rect x="212.2" y="188.2" class="st11" width="0.5" height="0.5"/>
	<rect x="213.1" y="188.4" class="st11" width="0.5" height="0.5"/>
	<rect x="214.1" y="188.5" class="st11" width="0.5" height="0.5"/>
	<rect x="207.3" y="188.4" class="st11" width="0.5" height="0.5"/>
	<rect x="208.1" y="188.5" class="st11" width="0.5" height="0.5"/>
	<rect x="209" y="188.6" class="st11" width="0.5" height="0.5"/>
	<rect x="209.9" y="188.7" class="st11" width="0.5" height="0.5"/>
	<rect x="210.8" y="188.9" class="st11" width="0.5" height="0.5"/>
	<rect x="211.7" y="189" class="st11" width="0.5" height="0.5"/>
	<rect x="212.6" y="189.1" class="st11" width="0.5" height="0.5"/>
	<rect x="213.4" y="189.2" class="st11" width="0.5" height="0.5"/>
	<rect x="214.3" y="189.3" class="st11" width="0.5" height="0.5"/>
	<rect x="207.8" y="189.4" class="st11" width="0.5" height="0.5"/>
	<rect x="208.6" y="189.4" class="st11" width="0.5" height="0.5"/>
	<rect x="209.5" y="189.5" class="st11" width="0.5" height="0.5"/>
	<rect x="210.3" y="189.6" class="st11" width="0.5" height="0.5"/>
	<rect x="211.2" y="189.7" class="st11" width="0.5" height="0.5"/>
	<rect x="212" y="189.8" class="st11" width="0.5" height="0.5"/>
	<rect x="212.9" y="189.9" class="st11" width="0.5" height="0.5"/>
	<rect x="213.7" y="190" class="st11" width="0.5" height="0.5"/>
	<rect x="214.5" y="190" class="st11" width="0.5" height="0.5"/>
	<rect x="208.3" y="190.3" class="st11" width="0.5" height="0.5"/>
	<rect x="209.1" y="190.3" class="st11" width="0.5" height="0.5"/>
	<rect x="209.9" y="190.4" class="st11" width="0.5" height="0.5"/>
	<rect x="210.7" y="190.5" class="st11" width="0.5" height="0.5"/>
	<rect x="211.5" y="190.5" class="st11" width="0.5" height="0.5"/>
	<rect x="212.3" y="190.6" class="st11" width="0.5" height="0.5"/>
	<rect x="213.1" y="190.7" class="st11" width="0.5" height="0.5"/>
	<rect x="213.9" y="190.7" class="st11" width="0.5" height="0.5"/>
	<rect x="214.7" y="190.8" class="st11" width="0.5" height="0.5"/>
	<rect x="208.6" y="191.1" class="st11" width="0.5" height="0.5"/>
	<rect x="209.4" y="191.2" class="st11" width="0.5" height="0.5"/>
	<rect x="210.2" y="191.2" class="st11" width="0.5" height="0.5"/>
	<rect x="210.9" y="191.3" class="st11" width="0.5" height="0.5"/>
	<rect x="211.7" y="191.3" class="st11" width="0.5" height="0.5"/>
	<rect x="212.5" y="191.4" class="st11" width="0.5" height="0.5"/>
	<rect x="213.3" y="191.4" class="st11" width="0.5" height="0.5"/>
	<rect x="214" y="191.5" class="st11" width="0.5" height="0.5"/>
	<rect x="214.8" y="191.5" class="st11" width="0.5" height="0.5"/>
	<rect x="208.9" y="191.9" class="st11" width="0.5" height="0.5"/>
	<rect x="209.6" y="192" class="st11" width="0.5" height="0.5"/>
	<rect x="210.4" y="192" class="st11" width="0.5" height="0.5"/>
	<rect x="211.1" y="192" class="st11" width="0.5" height="0.5"/>
	<rect x="211.9" y="192.1" class="st11" width="0.5" height="0.5"/>
	<rect x="212.6" y="192.1" class="st11" width="0.5" height="0.5"/>
	<rect x="213.4" y="192.1" class="st11" width="0.5" height="0.5"/>
	<rect x="214.1" y="192.2" class="st11" width="0.5" height="0.5"/>
	<rect x="214.9" y="192.2" class="st11" width="0.5" height="0.5"/>
	<rect x="209.1" y="192.7" class="st11" width="0.5" height="0.5"/>
	<rect x="209.9" y="192.7" class="st11" width="0.5" height="0.5"/>
	<rect x="210.6" y="192.7" class="st11" width="0.5" height="0.5"/>
	<rect x="211.3" y="192.8" class="st11" width="0.5" height="0.5"/>
	<rect x="212" y="192.8" class="st11" width="0.5" height="0.5"/>
	<rect x="212.8" y="192.8" class="st11" width="0.5" height="0.5"/>
	<rect x="213.5" y="192.9" class="st11" width="0.5" height="0.5"/>
	<rect x="214.2" y="192.9" class="st11" width="0.5" height="0.5"/>
	<rect x="215" y="192.9" class="st11" width="0.5" height="0.5"/>
	<rect x="209.3" y="193.4" class="st11" width="0.5" height="0.5"/>
	<rect x="210" y="193.5" class="st11" width="0.5" height="0.5"/>
	<rect x="210.7" y="193.5" class="st11" width="0.5" height="0.5"/>
	<rect x="211.4" y="193.5" class="st11" width="0.5" height="0.5"/>
	<rect x="212.1" y="193.5" class="st11" width="0.5" height="0.5"/>
	<rect x="212.9" y="193.5" class="st11" width="0.5" height="0.5"/>
	<rect x="213.6" y="193.5" class="st11" width="0.5" height="0.5"/>
	<rect x="214.3" y="193.6" class="st11" width="0.5" height="0.5"/>
	<rect x="215" y="193.6" class="st11" width="0.5" height="0.5"/>
	<rect x="209.4" y="194.1" class="st11" width="0.5" height="0.5"/>
	<rect x="210.1" y="194.2" class="st11" width="0.5" height="0.5"/>
	<rect x="210.8" y="194.2" class="st11" width="0.5" height="0.5"/>
	<rect x="211.5" y="194.2" class="st11" width="0.5" height="0.5"/>
	<rect x="212.2" y="194.2" class="st11" width="0.5" height="0.5"/>
	<rect x="212.9" y="194.2" class="st11" width="0.5" height="0.5"/>
	<rect x="213.6" y="194.2" class="st11" width="0.5" height="0.5"/>
	<rect x="214.3" y="194.2" class="st11" width="0.5" height="0.5"/>
	<rect x="215" y="194.2" class="st11" width="0.5" height="0.5"/>
	<rect x="209.5" y="194.8" class="st11" width="0.5" height="0.5"/>
	<rect x="210.2" y="194.9" class="st11" width="0.5" height="0.5"/>
	<rect x="210.9" y="194.9" class="st11" width="0.5" height="0.5"/>
	<rect x="211.6" y="194.9" class="st11" width="0.5" height="0.5"/>
	<rect x="212.3" y="194.9" class="st11" width="0.5" height="0.5"/>
	<rect x="213" y="194.9" class="st11" width="0.5" height="0.5"/>
	<rect x="213.7" y="194.9" class="st11" width="0.5" height="0.5"/>
	<rect x="214.4" y="194.9" class="st11" width="0.5" height="0.5"/>
	<rect x="215" y="194.9" class="st11" width="0.5" height="0.5"/>
	<rect x="209.5" y="195.5" class="st11" width="0.5" height="0.5"/>
	<rect x="210.2" y="195.5" class="st11" width="0.5" height="0.5"/>
	<rect x="210.9" y="195.5" class="st11" width="0.5" height="0.5"/>
	<rect x="211.6" y="195.5" class="st11" width="0.5" height="0.5"/>
	<rect x="212.3" y="195.5" class="st11" width="0.5" height="0.5"/>
	<rect x="213" y="195.5" class="st11" width="0.5" height="0.5"/>
	<rect x="213.7" y="195.5" class="st11" width="0.5" height="0.5"/>
	<rect x="214.4" y="195.5" class="st11" width="0.5" height="0.5"/>
	<rect x="215.1" y="195.5" class="st11" width="0.5" height="0.5"/>
	<rect x="209.6" y="196.2" class="st11" width="0.5" height="0.5"/>
	<rect x="210.3" y="196.2" class="st11" width="0.5" height="0.5"/>
	<rect x="211" y="196.2" class="st11" width="0.5" height="0.5"/>
	<rect x="211.6" y="196.2" class="st11" width="0.5" height="0.5"/>
	<rect x="212.3" y="196.2" class="st11" width="0.5" height="0.5"/>
	<rect x="213" y="196.2" class="st11" width="0.5" height="0.5"/>
	<rect x="213.7" y="196.2" class="st11" width="0.5" height="0.5"/>
	<rect x="214.4" y="196.2" class="st11" width="0.5" height="0.5"/>
	<rect x="215.1" y="196.2" class="st11" width="0.5" height="0.5"/>
	<rect x="209.6" y="196.8" class="st11" width="0.5" height="0.5"/>
	<rect x="210.3" y="196.8" class="st11" width="0.5" height="0.5"/>
	<rect x="211" y="196.9" class="st11" width="0.5" height="0.5"/>
	<rect x="211.6" y="196.9" class="st11" width="0.5" height="0.5"/>
	<rect x="212.3" y="196.9" class="st11" width="0.5" height="0.5"/>
	<rect x="213" y="196.9" class="st11" width="0.5" height="0.5"/>
	<rect x="213.7" y="196.9" class="st11" width="0.5" height="0.5"/>
	<rect x="214.4" y="196.9" class="st11" width="0.5" height="0.5"/>
	<rect x="215.1" y="196.9" class="st11" width="0.5" height="0.5"/>
	<rect x="209.6" y="197.5" class="st11" width="0.5" height="0.5"/>
	<rect x="210.3" y="197.5" class="st11" width="0.5" height="0.5"/>
	<rect x="211" y="197.5" class="st11" width="0.5" height="0.5"/>
	<rect x="211.7" y="197.5" class="st11" width="0.5" height="0.5"/>
	<rect x="212.3" y="197.5" class="st11" width="0.5" height="0.5"/>
	<rect x="213" y="197.5" class="st11" width="0.5" height="0.5"/>
	<rect x="213.7" y="197.5" class="st11" width="0.5" height="0.5"/>
	<rect x="214.4" y="197.5" class="st11" width="0.5" height="0.5"/>
	<rect x="215.1" y="197.5" class="st11" width="0.5" height="0.5"/>
	<rect x="209.6" y="198.1" class="st11" width="0.5" height="0.5"/>
	<rect x="210.3" y="198.1" class="st11" width="0.5" height="0.5"/>
	<rect x="211" y="198.1" class="st11" width="0.5" height="0.5"/>
	<rect x="211.7" y="198.1" class="st11" width="0.5" height="0.5"/>
	<rect x="212.3" y="198.1" class="st11" width="0.5" height="0.5"/>
	<rect x="213" y="198.1" class="st11" width="0.5" height="0.5"/>
	<rect x="213.7" y="198.1" class="st11" width="0.5" height="0.5"/>
	<rect x="214.4" y="198.1" class="st11" width="0.5" height="0.5"/>
	<rect x="215.1" y="198.1" class="st11" width="0.5" height="0.5"/>
	<polygon class="st11" points="202.6,199.2 202.4,199.3 202.6,199.3 	"/>
	<polygon class="st11" points="203.3,199.3 203.3,199 202.8,199.2 202.8,199.3 	"/>
	<path class="st11" d="M204,199.3c0-0.2,0-0.5-0.1-0.5c-0.1,0-0.3,0-0.4,0.1v0.4H204z"/>
	<rect x="209.6" y="198.8" class="st11" width="0.5" height="0.5"/>
	<rect x="210.3" y="198.8" class="st11" width="0.5" height="0.5"/>
	<rect x="211" y="198.8" class="st11" width="0.5" height="0.5"/>
	<rect x="211.7" y="198.8" class="st11" width="0.5" height="0.5"/>
	<rect x="212.3" y="198.8" class="st11" width="0.5" height="0.5"/>
	<rect x="213" y="198.8" class="st11" width="0.5" height="0.5"/>
	<rect x="213.7" y="198.8" class="st11" width="0.5" height="0.5"/>
	<rect x="214.4" y="198.8" class="st11" width="0.5" height="0.5"/>
	<rect x="215.1" y="198.8" class="st11" width="0.5" height="0.5"/>
	<polygon class="st11" points="200.5,199.9 200.4,199.9 200.5,199.9 	"/>
	<polygon class="st11" points="201.2,199.9 201.2,199.7 200.7,199.8 200.7,199.9 	"/>
	<polygon class="st11" points="201.9,199.9 201.9,199.4 201.4,199.6 201.4,199.9 	"/>
	<rect x="202.1" y="199.4" class="st11" width="0.5" height="0.5"/>
	<rect x="202.8" y="199.4" class="st11" width="0.5" height="0.5"/>
	<rect x="203.5" y="199.4" class="st11" width="0.5" height="0.5"/>
	<path class="st11" d="M204.2,199.9v-0.1V199.9z"/>
	<path class="st11" d="M209.4,199.7c0,0.1,0,0.2,0,0.3l0,0V199.7z"/>
	<rect x="209.6" y="199.4" class="st11" width="0.5" height="0.5"/>
	<rect x="210.3" y="199.4" class="st11" width="0.5" height="0.5"/>
	<rect x="211" y="199.4" class="st11" width="0.5" height="0.5"/>
	<rect x="211.7" y="199.4" class="st11" width="0.5" height="0.5"/>
	<rect x="212.3" y="199.4" class="st11" width="0.5" height="0.5"/>
	<rect x="213" y="199.4" class="st11" width="0.5" height="0.5"/>
	<rect x="213.7" y="199.4" class="st11" width="0.5" height="0.5"/>
	<rect x="214.4" y="199.4" class="st11" width="0.5" height="0.5"/>
	<rect x="215.1" y="199.4" class="st11" width="0.5" height="0.5"/>
	<polygon class="st11" points="198.5,200.6 198.4,200.6 198.5,200.6 	"/>
	<polygon class="st11" points="199.2,200.6 199.2,200.3 198.7,200.5 198.7,200.6 	"/>
	<polygon class="st11" points="199.9,200.6 199.9,200.1 199.4,200.3 199.4,200.6 	"/>
	<rect x="200" y="200.1" class="st11" width="0.5" height="0.5"/>
	<rect x="200.7" y="200.1" class="st11" width="0.5" height="0.5"/>
	<rect x="201.4" y="200.1" class="st11" width="0.5" height="0.5"/>
	<rect x="202.1" y="200.1" class="st11" width="0.5" height="0.5"/>
	<rect x="202.8" y="200.1" class="st11" width="0.5" height="0.5"/>
	<rect x="203.5" y="200.1" class="st11" width="0.5" height="0.5"/>
	<path class="st11" d="M204.1,200.6h0.3c-0.1-0.2-0.2-0.3-0.2-0.5h-0.1L204.1,200.6z"/>
	<path class="st11" d="M209.4,200.1L209.4,200.1c-0.1,0.2-0.2,0.3-0.2,0.5h0.2L209.4,200.1z"/>
	<rect x="209.6" y="200.1" class="st11" width="0.5" height="0.5"/>
	<rect x="210.3" y="200.1" class="st11" width="0.5" height="0.5"/>
	<rect x="211" y="200.1" class="st11" width="0.5" height="0.5"/>
	<rect x="211.7" y="200.1" class="st11" width="0.5" height="0.5"/>
	<rect x="212.3" y="200.1" class="st11" width="0.5" height="0.5"/>
	<rect x="213" y="200.1" class="st11" width="0.5" height="0.5"/>
	<rect x="213.7" y="200.1" class="st11" width="0.5" height="0.5"/>
	<rect x="214.4" y="200.1" class="st11" width="0.5" height="0.5"/>
	<path class="st11" d="M215.1,200.1v0.5h0.5c0-0.2,0-0.3,0-0.5H215.1z"/>
	<path class="st11" d="M198.5,200.7h-0.4c-0.1,0-0.1,0-0.1,0.1c0,0,0,0,0,0l0.1,0.4h0.4V200.7z"/>
	<rect x="198.7" y="200.7" class="st11" width="0.5" height="0.5"/>
	<rect x="199.4" y="200.7" class="st11" width="0.5" height="0.5"/>
	<rect x="200" y="200.7" class="st11" width="0.5" height="0.5"/>
	<rect x="200.7" y="200.7" class="st11" width="0.5" height="0.5"/>
	<rect x="201.4" y="200.7" class="st11" width="0.5" height="0.5"/>
	<rect x="202.1" y="200.7" class="st11" width="0.5" height="0.5"/>
	<rect x="202.8" y="200.7" class="st11" width="0.5" height="0.5"/>
	<rect x="203.5" y="200.7" class="st11" width="0.5" height="0.5"/>
	<path class="st11" d="M204.1,201.2h0.5v-0.4l-0.1-0.1h-0.4V201.2z"/>
	<path class="st11" d="M205,201.2l-0.1-0.1v0.1H205z"/>
	<path class="st11" d="M209.4,201.2v-0.5h-0.3c-0.1,0.2-0.1,0.3-0.2,0.5l0,0L209.4,201.2z"/>
	<rect x="209.6" y="200.7" class="st11" width="0.5" height="0.5"/>
	<rect x="210.3" y="200.7" class="st11" width="0.5" height="0.5"/>
	<rect x="211" y="200.7" class="st11" width="0.5" height="0.5"/>
	<rect x="211.7" y="200.7" class="st11" width="0.5" height="0.5"/>
	<rect x="212.3" y="200.7" class="st11" width="0.5" height="0.5"/>
	<rect x="213" y="200.7" class="st11" width="0.5" height="0.5"/>
	<rect x="213.7" y="200.7" class="st11" width="0.5" height="0.5"/>
	<rect x="214.4" y="200.7" class="st11" width="0.5" height="0.5"/>
	<path class="st11" d="M215.1,201.2h0.4c0-0.2,0.1-0.3,0.1-0.5h-0.5L215.1,201.2z"/>
	<path class="st11" d="M198.5,201.4h-0.4c0,0.2,0.1,0.3,0.1,0.5h0.3V201.4z"/>
	<rect x="198.7" y="201.4" class="st11" width="0.5" height="0.5"/>
	<rect x="199.4" y="201.4" class="st11" width="0.5" height="0.5"/>
	<rect x="200" y="201.4" class="st11" width="0.5" height="0.5"/>
	<rect x="200.7" y="201.4" class="st11" width="0.5" height="0.5"/>
	<rect x="201.4" y="201.4" class="st11" width="0.5" height="0.5"/>
	<rect x="202.1" y="201.4" class="st11" width="0.5" height="0.5"/>
	<rect x="202.8" y="201.4" class="st11" width="0.5" height="0.5"/>
	<rect x="203.5" y="201.4" class="st11" width="0.5" height="0.5"/>
	<rect x="204.1" y="201.4" class="st11" width="0.5" height="0.5"/>
	<path class="st11" d="M204.8,201.9h0.5v-0.3l-0.2-0.2h-0.3V201.9z"/>
	<path class="st11" d="M206,201.9c-0.2-0.1-0.3-0.1-0.5-0.2v0.2H206z"/>
	<path class="st11" d="M208.1,201.9L208.1,201.9L208.1,201.9z"/>
	<path class="st11" d="M208.8,201.9v-0.5c-0.1,0.1-0.3,0.3-0.5,0.4v0.1L208.8,201.9z"/>
	<rect x="208.9" y="201.4" class="st11" width="0.5" height="0.5"/>
	<rect x="209.6" y="201.4" class="st11" width="0.5" height="0.5"/>
	<rect x="210.3" y="201.4" class="st11" width="0.5" height="0.5"/>
	<rect x="211" y="201.4" class="st11" width="0.5" height="0.5"/>
	<rect x="211.7" y="201.4" class="st11" width="0.5" height="0.5"/>
	<rect x="212.3" y="201.4" class="st11" width="0.5" height="0.5"/>
	<rect x="213" y="201.4" class="st11" width="0.5" height="0.5"/>
	<rect x="213.7" y="201.4" class="st11" width="0.5" height="0.5"/>
	<rect x="214.4" y="201.4" class="st11" width="0.5" height="0.5"/>
	<path class="st11" d="M215.1,201.9h0.2c0-0.2,0.1-0.3,0.1-0.5h-0.3V201.9z"/>
	<path class="st11" d="M198.5,202h-0.2c0,0.2,0.1,0.3,0.1,0.5h0.1L198.5,202z"/>
	<rect x="198.7" y="202" class="st11" width="0.5" height="0.5"/>
	<rect x="199.4" y="202" class="st11" width="0.5" height="0.5"/>
	<rect x="200" y="202" class="st11" width="0.5" height="0.5"/>
	<rect x="200.7" y="202" class="st11" width="0.5" height="0.5"/>
	<rect x="201.4" y="202" class="st11" width="0.5" height="0.5"/>
	<rect x="202.1" y="202" class="st11" width="0.5" height="0.5"/>
	<rect x="202.8" y="202" class="st11" width="0.5" height="0.5"/>
	<rect x="203.5" y="202" class="st11" width="0.5" height="0.5"/>
	<rect x="204.1" y="202" class="st11" width="0.5" height="0.5"/>
	<rect x="204.8" y="202" class="st11" width="0.5" height="0.5"/>
	<rect x="205.5" y="202" class="st11" width="0.5" height="0.5"/>
	<rect x="206.2" y="202" class="st11" width="0.5" height="0.5"/>
	<path class="st11" d="M207.4,202.5V202h-0.5v0.5L207.4,202.5z"/>
	<rect x="207.6" y="202" class="st11" width="0.5" height="0.5"/>
	<rect x="208.2" y="202" class="st11" width="0.5" height="0.5"/>
	<rect x="208.9" y="202" class="st11" width="0.5" height="0.5"/>
	<rect x="209.6" y="202" class="st11" width="0.5" height="0.5"/>
	<rect x="210.3" y="202" class="st11" width="0.5" height="0.5"/>
	<rect x="211" y="202" class="st11" width="0.5" height="0.5"/>
	<rect x="211.7" y="202" class="st11" width="0.5" height="0.5"/>
	<rect x="212.3" y="202" class="st11" width="0.5" height="0.5"/>
	<rect x="213" y="202" class="st11" width="0.5" height="0.5"/>
	<rect x="213.7" y="202" class="st11" width="0.5" height="0.5"/>
	<rect x="214.4" y="202" class="st11" width="0.5" height="0.5"/>
	<path class="st11" d="M215.1,202.5L215.1,202.5c0.1-0.2,0.1-0.3,0.2-0.5h-0.2V202.5z"/>
	<path class="st11" d="M198.5,202.7L198.5,202.7L198.5,202.7z"/>
	<rect x="198.7" y="202.7" class="st11" width="0.5" height="0.5"/>
	<rect x="199.4" y="202.7" class="st11" width="0.5" height="0.5"/>
	<rect x="200" y="202.7" class="st11" width="0.5" height="0.5"/>
	<rect x="200.7" y="202.7" class="st11" width="0.5" height="0.5"/>
	<rect x="201.4" y="202.7" class="st11" width="0.5" height="0.5"/>
	<rect x="202.1" y="202.7" class="st11" width="0.5" height="0.5"/>
	<rect x="202.8" y="202.7" class="st11" width="0.5" height="0.5"/>
	<rect x="203.5" y="202.7" class="st11" width="0.5" height="0.5"/>
	<rect x="204.1" y="202.7" class="st11" width="0.5" height="0.5"/>
	<rect x="204.8" y="202.7" class="st11" width="0.5" height="0.5"/>
	<rect x="205.5" y="202.7" class="st11" width="0.5" height="0.5"/>
	<rect x="206.2" y="202.7" class="st11" width="0.5" height="0.5"/>
	<rect x="206.9" y="202.7" class="st11" width="0.5" height="0.5"/>
	<rect x="207.6" y="202.7" class="st11" width="0.5" height="0.5"/>
	<rect x="208.2" y="202.7" class="st11" width="0.5" height="0.5"/>
	<rect x="208.9" y="202.7" class="st11" width="0.5" height="0.5"/>
	<rect x="209.6" y="202.7" class="st11" width="0.5" height="0.5"/>
	<rect x="210.3" y="202.7" class="st11" width="0.5" height="0.5"/>
	<rect x="211" y="202.7" class="st11" width="0.5" height="0.5"/>
	<rect x="211.7" y="202.7" class="st11" width="0.5" height="0.5"/>
	<rect x="212.3" y="202.7" class="st11" width="0.5" height="0.5"/>
	<rect x="213" y="202.7" class="st11" width="0.5" height="0.5"/>
	<rect x="213.7" y="202.7" class="st11" width="0.5" height="0.5"/>
	<path class="st11" d="M214.4,202.7v0.5h0.4l0.1-0.2v-0.3L214.4,202.7z"/>
	<path class="st11" d="M199.2,203.3h-0.5c0.1,0.2,0.1,0.3,0.2,0.5h0.2V203.3z"/>
	<rect x="199.4" y="203.3" class="st11" width="0.5" height="0.5"/>
	<rect x="200" y="203.3" class="st11" width="0.5" height="0.5"/>
	<rect x="200.7" y="203.3" class="st11" width="0.5" height="0.5"/>
	<rect x="201.4" y="203.3" class="st11" width="0.5" height="0.5"/>
	<rect x="202.1" y="203.3" class="st11" width="0.5" height="0.5"/>
	<rect x="202.8" y="203.3" class="st11" width="0.5" height="0.5"/>
	<rect x="203.5" y="203.3" class="st11" width="0.5" height="0.5"/>
	<rect x="204.1" y="203.3" class="st11" width="0.5" height="0.5"/>
	<rect x="204.8" y="203.3" class="st11" width="0.5" height="0.5"/>
	<rect x="205.5" y="203.3" class="st11" width="0.5" height="0.5"/>
	<rect x="206.2" y="203.3" class="st11" width="0.5" height="0.5"/>
	<rect x="206.9" y="203.3" class="st11" width="0.5" height="0.5"/>
	<rect x="207.6" y="203.3" class="st11" width="0.5" height="0.5"/>
	<rect x="208.2" y="203.3" class="st11" width="0.5" height="0.5"/>
	<rect x="208.9" y="203.3" class="st11" width="0.5" height="0.5"/>
	<rect x="209.6" y="203.3" class="st11" width="0.5" height="0.5"/>
	<rect x="210.3" y="203.3" class="st11" width="0.5" height="0.5"/>
	<rect x="211" y="203.3" class="st11" width="0.5" height="0.5"/>
	<rect x="211.7" y="203.3" class="st11" width="0.5" height="0.5"/>
	<rect x="212.3" y="203.3" class="st11" width="0.5" height="0.5"/>
	<rect x="213" y="203.3" class="st11" width="0.5" height="0.5"/>
	<rect x="213.7" y="203.3" class="st11" width="0.5" height="0.5"/>
	<path class="st11" d="M214.4,203.8h0.1c0.1-0.2,0.2-0.3,0.3-0.5h-0.4L214.4,203.8z"/>
	<path class="st11" d="M199,204l0.2,0.3V204H199z"/>
	<rect x="199.4" y="204" class="st11" width="0.5" height="0.5"/>
	<rect x="200" y="204" class="st11" width="0.5" height="0.5"/>
	<rect x="200.7" y="204" class="st11" width="0.5" height="0.5"/>
	<rect x="201.4" y="204" class="st11" width="0.5" height="0.5"/>
	<rect x="202.1" y="204" class="st11" width="0.5" height="0.5"/>
	<rect x="202.8" y="204" class="st11" width="0.5" height="0.5"/>
	<rect x="203.5" y="204" class="st11" width="0.5" height="0.5"/>
	<rect x="204.1" y="204" class="st11" width="0.5" height="0.5"/>
	<rect x="204.8" y="204" class="st11" width="0.5" height="0.5"/>
	<rect x="205.5" y="204" class="st11" width="0.5" height="0.5"/>
	<rect x="206.2" y="204" class="st11" width="0.5" height="0.5"/>
	<rect x="206.9" y="204" class="st11" width="0.5" height="0.5"/>
	<rect x="207.6" y="204" class="st11" width="0.5" height="0.5"/>
	<rect x="208.2" y="204" class="st11" width="0.5" height="0.5"/>
	<rect x="208.9" y="204" class="st11" width="0.5" height="0.5"/>
	<rect x="209.6" y="204" class="st11" width="0.5" height="0.5"/>
	<rect x="210.3" y="204" class="st11" width="0.5" height="0.5"/>
	<rect x="211" y="204" class="st11" width="0.5" height="0.5"/>
	<rect x="211.7" y="204" class="st11" width="0.5" height="0.5"/>
	<rect x="212.3" y="204" class="st11" width="0.5" height="0.5"/>
	<rect x="213" y="204" class="st11" width="0.5" height="0.5"/>
	<path class="st11" d="M213.7,204v0.5h0.4l0.1-0.2V204H213.7z"/>
	<path class="st11" d="M214.4,204L214.4,204L214.4,204z"/>
	<path class="st11" d="M199.9,204.6h-0.5c0.1,0.2,0.2,0.3,0.3,0.5h0.2V204.6z"/>
	<rect x="200" y="204.6" class="st11" width="0.5" height="0.5"/>
	<rect x="200.7" y="204.6" class="st11" width="0.5" height="0.5"/>
	<rect x="201.4" y="204.6" class="st11" width="0.5" height="0.5"/>
	<rect x="202.1" y="204.6" class="st11" width="0.5" height="0.5"/>
	<rect x="202.8" y="204.6" class="st11" width="0.5" height="0.5"/>
	<rect x="203.5" y="204.6" class="st11" width="0.5" height="0.5"/>
	<rect x="204.1" y="204.6" class="st11" width="0.5" height="0.5"/>
	<rect x="204.8" y="204.6" class="st11" width="0.5" height="0.5"/>
	<rect x="205.5" y="204.6" class="st11" width="0.5" height="0.5"/>
	<rect x="206.2" y="204.6" class="st11" width="0.5" height="0.5"/>
	<rect x="206.9" y="204.6" class="st11" width="0.5" height="0.5"/>
	<rect x="207.6" y="204.6" class="st11" width="0.5" height="0.5"/>
	<rect x="208.2" y="204.6" class="st11" width="0.5" height="0.5"/>
	<rect x="208.9" y="204.6" class="st11" width="0.5" height="0.5"/>
	<rect x="209.6" y="204.6" class="st11" width="0.5" height="0.5"/>
	<rect x="210.3" y="204.6" class="st11" width="0.5" height="0.5"/>
	<rect x="211" y="204.6" class="st11" width="0.5" height="0.5"/>
	<rect x="211.7" y="204.6" class="st11" width="0.5" height="0.5"/>
	<rect x="212.3" y="204.6" class="st11" width="0.5" height="0.5"/>
	<rect x="213" y="204.6" class="st11" width="0.5" height="0.5"/>
	<path class="st11" d="M213.7,205l0.3-0.4h-0.3V205z"/>
	<path class="st11" d="M199.8,205.3L199.8,205.3L199.8,205.3z"/>
	<path class="st11" d="M200.5,205.3H200v0.3l0.2,0.2h0.3L200.5,205.3z"/>
	<rect x="200.7" y="205.3" class="st11" width="0.5" height="0.5"/>
	<rect x="201.4" y="205.3" class="st11" width="0.5" height="0.5"/>
	<rect x="202.1" y="205.3" class="st11" width="0.5" height="0.5"/>
	<rect x="202.8" y="205.3" class="st11" width="0.5" height="0.5"/>
	<rect x="203.5" y="205.3" class="st11" width="0.5" height="0.5"/>
	<rect x="204.1" y="205.3" class="st11" width="0.5" height="0.5"/>
	<rect x="204.8" y="205.3" class="st11" width="0.5" height="0.5"/>
	<rect x="205.5" y="205.3" class="st11" width="0.5" height="0.5"/>
	<rect x="206.2" y="205.3" class="st11" width="0.5" height="0.5"/>
	<rect x="206.9" y="205.3" class="st11" width="0.5" height="0.5"/>
	<rect x="207.6" y="205.3" class="st11" width="0.5" height="0.5"/>
	<rect x="208.2" y="205.3" class="st11" width="0.5" height="0.5"/>
	<rect x="208.9" y="205.3" class="st11" width="0.5" height="0.5"/>
	<rect x="209.6" y="205.3" class="st11" width="0.5" height="0.5"/>
	<rect x="210.3" y="205.3" class="st11" width="0.5" height="0.5"/>
	<rect x="211" y="205.3" class="st11" width="0.5" height="0.5"/>
	<rect x="211.7" y="205.3" class="st11" width="0.5" height="0.5"/>
	<rect x="212.3" y="205.3" class="st11" width="0.5" height="0.5"/>
	<path class="st11" d="M213,205.7c0.2-0.1,0.3-0.3,0.5-0.5H213V205.7z"/>
	<path class="st11" d="M200.4,205.9l0.2,0.1v-0.1H200.4z"/>
	<path class="st11" d="M201.2,205.9h-0.5v0.3l0.2,0.2h0.3V205.9z"/>
	<rect x="201.4" y="205.9" class="st11" width="0.5" height="0.5"/>
	<rect x="202.1" y="205.9" class="st11" width="0.5" height="0.5"/>
	<rect x="202.8" y="205.9" class="st11" width="0.5" height="0.5"/>
	<rect x="203.5" y="205.9" class="st11" width="0.5" height="0.5"/>
	<rect x="204.1" y="205.9" class="st11" width="0.5" height="0.5"/>
	<rect x="204.8" y="205.9" class="st11" width="0.5" height="0.5"/>
	<rect x="205.5" y="205.9" class="st11" width="0.5" height="0.5"/>
	<rect x="206.2" y="205.9" class="st11" width="0.5" height="0.5"/>
	<rect x="206.9" y="205.9" class="st11" width="0.5" height="0.5"/>
	<rect x="207.6" y="205.9" class="st11" width="0.5" height="0.5"/>
	<rect x="208.2" y="205.9" class="st11" width="0.5" height="0.5"/>
	<rect x="208.9" y="205.9" class="st11" width="0.5" height="0.5"/>
	<rect x="209.6" y="205.9" class="st11" width="0.5" height="0.5"/>
	<rect x="210.3" y="205.9" class="st11" width="0.5" height="0.5"/>
	<rect x="211" y="205.9" class="st11" width="0.5" height="0.5"/>
	<rect x="211.7" y="205.9" class="st11" width="0.5" height="0.5"/>
	<path class="st11" d="M212.3,206.3c0.2-0.1,0.3-0.3,0.5-0.4h-0.5V206.3z"/>
	<path class="st11" d="M201.1,206.5L201.1,206.5L201.1,206.5L201.1,206.5z"/>
	<path class="st11" d="M201.4,206.5v0.2l0.5,0.3v-0.5H201.4z"/>
	<rect x="202.1" y="206.5" class="st11" width="0.5" height="0.5"/>
	<rect x="202.8" y="206.5" class="st11" width="0.5" height="0.5"/>
	<rect x="203.5" y="206.5" class="st11" width="0.5" height="0.5"/>
	<rect x="204.1" y="206.5" class="st11" width="0.5" height="0.5"/>
	<rect x="204.8" y="206.5" class="st11" width="0.5" height="0.5"/>
	<rect x="205.5" y="206.5" class="st11" width="0.5" height="0.5"/>
	<rect x="206.2" y="206.5" class="st11" width="0.5" height="0.5"/>
	<rect x="206.9" y="206.5" class="st11" width="0.5" height="0.5"/>
	<rect x="207.6" y="206.5" class="st11" width="0.5" height="0.5"/>
	<rect x="208.2" y="206.5" class="st11" width="0.5" height="0.5"/>
	<rect x="208.9" y="206.5" class="st11" width="0.5" height="0.5"/>
	<rect x="209.6" y="206.5" class="st11" width="0.5" height="0.5"/>
	<rect x="210.3" y="206.5" class="st11" width="0.5" height="0.5"/>
	<path class="st11" d="M211,206.5v0.5h0.2l0.3-0.2v-0.3H211z"/>
	<path class="st11" d="M211.7,206.8l0.4-0.2h-0.4V206.8z"/>
	<path class="st11" d="M202.2,207.2l0.4,0.2v-0.2H202.2z"/>
	<path class="st11" d="M202.8,207.2v0.3l0.5,0.2v-0.4H202.8z"/>
	<path class="st11" d="M204,207.2h-0.5v0.5h0.5V207.2z"/>
	<rect x="204.1" y="207.2" class="st11" width="0.5" height="0.5"/>
	<rect x="204.8" y="207.2" class="st11" width="0.5" height="0.5"/>
	<rect x="205.5" y="207.2" class="st11" width="0.5" height="0.5"/>
	<rect x="206.2" y="207.2" class="st11" width="0.5" height="0.5"/>
	<rect x="206.9" y="207.2" class="st11" width="0.5" height="0.5"/>
	<rect x="207.6" y="207.2" class="st11" width="0.5" height="0.5"/>
	<rect x="208.2" y="207.2" class="st11" width="0.5" height="0.5"/>
	<rect x="208.9" y="207.2" class="st11" width="0.5" height="0.5"/>
	<path class="st11" d="M209.6,207.2v0.5l0.5-0.2v-0.3L209.6,207.2z"/>
	<path class="st11" d="M210.3,207.2v0.2l0.5-0.2l0,0L210.3,207.2z"/>
	<path class="st11" d="M204.1,207.8L204.1,207.8l0.5,0.1v-0.1L204.1,207.8z"/>
	<path class="st11" d="M204.8,207.8v0.2l0.5,0.1v-0.2L204.8,207.8z"/>
	<path class="st11" d="M205.5,207.8v0.2h0.5v-0.2L205.5,207.8z"/>
	<path class="st11" d="M206.2,207.8v0.2h0.5v-0.2H206.2z"/>
	<path class="st11" d="M206.9,207.8v0.2h0.5v-0.2L206.9,207.8z"/>
	<path class="st11" d="M207.6,207.8v0.2l0.5,0v-0.1L207.6,207.8z"/>
	<path class="st11" d="M208.2,207.8v0.2l0.5-0.1l0,0L208.2,207.8z"/>
	
		<linearGradient id="SVGID_10_" gradientUnits="userSpaceOnUse" x1="207.17" y1="107.14" x2="207.17" y2="138.17" gradientTransform="matrix(1 0 0 -1 0 402)">
		<stop  offset="0" style="stop-color:#F2F2F2"/>
		<stop  offset="1" style="stop-color:#CCCCCC"/>
	</linearGradient>
	<path class="st13" d="M161.6,263.8h91.1l0,0V287c0,4.3-3.5,7.9-7.9,7.9h-75.4c-4.3,0-7.9-3.5-7.9-7.9L161.6,263.8L161.6,263.8z"/>
	
		<linearGradient id="SVGID_11_" gradientUnits="userSpaceOnUse" x1="197.74" y1="115.859" x2="215.32" y2="115.859" gradientTransform="matrix(1 0 0 -1 0 402)">
		<stop  offset="0" style="stop-color:#5E5E5E"/>
		<stop  offset="1" style="stop-color:#2E2E2E"/>
	</linearGradient>
	<path class="st14" d="M212.2,288.7h-11.4c-1.7,0-3.1-1.4-3.1-3.1v-1.1c0-0.4,0.4-0.8,0.8-0.8c0.4,0,0.8,0.4,0.8,0.8v1.1
		c0,0.8,0.7,1.5,1.5,1.5l0,0h11.4c0.8,0,1.5-0.7,1.5-1.5l0,0v-1.1c0-0.4,0.4-0.8,0.8-0.8c0.4,0,0.8,0.4,0.8,0.8v1.1
		C215.3,287.3,213.9,288.7,212.2,288.7z"/>
	
		<linearGradient id="SVGID_12_" gradientUnits="userSpaceOnUse" x1="200.0096" y1="125.2252" x2="213.0496" y2="125.2252" gradientTransform="matrix(1 0 0 -1 0 402)">
		<stop  offset="0" style="stop-color:#5E5E5E"/>
		<stop  offset="1" style="stop-color:#2E2E2E"/>
	</linearGradient>
	<path class="st15" d="M212.8,277c-0.3-0.3-0.8-0.3-1.2,0c0,0,0,0,0,0l-4.3,4.2v-10.4c0-0.4-0.4-0.8-0.8-0.8c-0.4,0-0.8,0.4-0.8,0.8
		v10.4l-4.3-4.2c-0.3-0.3-0.8-0.3-1.2,0s-0.3,0.8,0,1.2l5.2,5c0.6,0.6,1.5,0.6,2.1,0l5.2-5C213.1,277.9,213.2,277.3,212.8,277
		C212.8,277,212.8,277,212.8,277z"/>
</g>
</svg>
