<?xml version="1.0" encoding="utf-8"?>
<!-- Generator: Adobe Illustrator 21.0.0, SVG Export Plug-In . SVG Version: 6.00 Build 0)  -->
<svg version="1.1" id="Layer_1" xmlns="http://www.w3.org/2000/svg" xmlns:xlink="http://www.w3.org/1999/xlink" x="0px" y="0px"
	 viewBox="0 0 400 400" style="enable-background:new 0 0 400 400;" xml:space="preserve">
<style type="text/css">
	.st0{opacity:0.3;}
	.st1{opacity:0.4;fill:url(#SVGID_1_);enable-background:new    ;}
	.st2{opacity:0.6;fill:url(#SVGID_2_);enable-background:new    ;}
	.st3{opacity:0.5;fill:url(#SVGID_3_);enable-background:new    ;}
	.st4{opacity:0.3;fill:url(#SVGID_4_);enable-background:new    ;}
	.st5{opacity:0.5;fill:url(#SVGID_5_);enable-background:new    ;}
	.st6{opacity:0.2;fill:url(#SVGID_6_);enable-background:new    ;}
	.st7{opacity:0.5;fill:url(#SVGID_7_);enable-background:new    ;}
	.st8{fill:url(#SVGID_8_);}
	.st9{fill:url(#SVGID_9_);}
	.st10{opacity:0.6;fill:url(#SVGID_10_);enable-background:new    ;}
	.st11{fill:url(#SVGID_11_);}
	.st12{fill:#C6C6C6;}
	.st13{fill:url(#SVGID_12_);}
	.st14{opacity:0.2;}
	.st15{opacity:0.2;enable-background:new    ;}
	.st16{fill:url(#SVGID_13_);}
	.st17{fill:#727272;}
	.st18{fill:#5E4524;}
	.st19{fill:url(#SVGID_14_);}
	.st20{fill:#4C371D;}
	.st21{fill:#FFFFFF;}
	.st22{fill:url(#SVGID_15_);}
	.st23{fill:url(#SVGID_16_);}
	.st24{fill:url(#SVGID_17_);}
	.st25{fill:url(#SVGID_18_);}
	.st26{fill:url(#SVGID_19_);}
	.st27{fill:#939393;}
	.st28{fill:url(#SVGID_20_);}
	.st29{fill:url(#SVGID_21_);}
	.st30{opacity:0.5;fill:url(#SVGID_22_);enable-background:new    ;}
	.st31{opacity:0.2;fill:url(#SVGID_23_);enable-background:new    ;}
	.st32{fill:url(#SVGID_24_);}
	.st33{opacity:0.8;}
	.st34{fill:url(#SVGID_25_);}
	.st35{fill:url(#SVGID_26_);}
	.st36{fill:none;stroke:#FFFFFF;stroke-width:0.6946;stroke-linecap:round;stroke-linejoin:round;}
	.st37{opacity:0.6;fill:url(#SVGID_27_);enable-background:new    ;}
	.st38{opacity:0.6;fill:url(#SVGID_28_);enable-background:new    ;}
	.st39{opacity:0.6;fill:url(#SVGID_29_);enable-background:new    ;}
	.st40{opacity:0.6;fill:url(#SVGID_30_);enable-background:new    ;}
	.st41{opacity:0.6;fill:url(#SVGID_31_);enable-background:new    ;}
	.st42{fill:url(#SVGID_32_);}
	.st43{fill:#63A56E;}
	.st44{fill:url(#SVGID_33_);}
	.st45{fill:url(#SVGID_34_);}
	.st46{fill:url(#SVGID_35_);}
	.st47{fill:url(#SVGID_36_);}
	.st48{fill:url(#SVGID_37_);}
	.st49{fill:url(#SVGID_38_);}
	.st50{fill:url(#SVGID_39_);}
	.st51{fill:#5E5E5E;}
	.st52{fill:#C1C1C1;}
	.st53{fill:#ADADAD;}
	.st54{fill:#AFAFAF;}
	.st55{fill:#D3D3D3;}
	.st56{fill:#9E9E9E;}
	.st57{fill:url(#SVGID_40_);}
	.st58{fill:url(#SVGID_41_);}
	.st59{fill:url(#SVGID_42_);}
	.st60{fill:#A9D3A9;}
	.st61{opacity:0.5;fill:#FFFFFF;enable-background:new    ;}
	.st62{fill:#E8D470;}
	.st63{fill:#F7F2DF;}
	.st64{fill:url(#SVGID_43_);}
	.st65{opacity:0.2;fill:#1D1D1B;enable-background:new    ;}
	.st66{opacity:0.2;fill:#0A0A0A;enable-background:new    ;}
	.st67{fill:#4D965C;}
	.st68{fill:url(#SVGID_44_);}
	.st69{fill:url(#SVGID_45_);}
	.st70{opacity:0.1;enable-background:new    ;}
	.st71{fill:url(#SVGID_46_);}
	.st72{fill:url(#SVGID_47_);}
	.st73{fill:url(#SVGID_48_);}
	.st74{fill:url(#SVGID_49_);}
	.st75{fill:url(#SVGID_50_);}
	.st76{fill:url(#SVGID_51_);}
	.st77{fill:url(#SVGID_52_);}
	.st78{fill:#F4F4F4;}
	.st79{fill:url(#SVGID_53_);}
	.st80{opacity:0.7;}
	.st81{fill:url(#SVGID_54_);}
	.st82{fill:url(#SVGID_55_);}
	.st83{opacity:0.26;fill:url(#SVGID_56_);enable-background:new    ;}
	.st84{opacity:0.28;fill:url(#SVGID_57_);enable-background:new    ;}
	.st85{fill:url(#SVGID_58_);}
	.st86{opacity:0.5;fill:url(#SVGID_59_);enable-background:new    ;}
	.st87{opacity:0.5;fill:url(#SVGID_60_);enable-background:new    ;}
	.st88{opacity:0.5;fill:url(#SVGID_61_);enable-background:new    ;}
	.st89{opacity:0.5;fill:url(#SVGID_62_);enable-background:new    ;}
	.st90{opacity:0.5;fill:url(#SVGID_63_);enable-background:new    ;}
	.st91{opacity:5.000000e-02;enable-background:new    ;}
	.st92{fill:url(#SVGID_64_);}
	.st93{fill:none;stroke:url(#SVGID_65_);stroke-width:1.042;stroke-linecap:round;stroke-linejoin:round;}
	.st94{opacity:0.15;enable-background:new    ;}
	.st95{fill:url(#SVGID_66_);stroke:url(#SVGID_67_);stroke-width:4.1678;stroke-miterlimit:10;}
	.st96{fill:url(#SVGID_68_);}
	.st97{fill:url(#SVGID_69_);}
	.st98{fill:url(#SVGID_70_);}
	.st99{fill:url(#SVGID_71_);}
	.st100{fill:url(#SVGID_72_);}
	.st101{fill:url(#SVGID_73_);}
	.st102{fill:url(#SVGID_74_);}
	.st103{fill:url(#SVGID_75_);}
	.st104{fill:url(#SVGID_76_);}
	.st105{fill:url(#SVGID_77_);}
	.st106{fill:url(#SVGID_78_);}
	.st107{fill:url(#SVGID_79_);}
	.st108{fill:none;stroke:#DFBD12;stroke-width:1.042;stroke-linecap:round;stroke-linejoin:round;}
	.st109{fill:none;stroke:url(#SVGID_80_);stroke-width:1.042;stroke-linecap:round;stroke-linejoin:round;}
</style>
<title>Il_reapply</title>
<g id="Pinjaman_Baru">
	<g class="st0">
		
			<linearGradient id="SVGID_1_" gradientUnits="userSpaceOnUse" x1="-9012.8105" y1="153.486" x2="-9012.8105" y2="200.3298" gradientTransform="matrix(-1 0 0 -1 -8814.9805 400)">
			<stop  offset="0" style="stop-color:#FFFFFF;stop-opacity:0"/>
			<stop  offset="0.88" style="stop-color:#000000"/>
		</linearGradient>
		<path class="st1" d="M25.8,246.5h344.1c0,0-68-15.3-106.5-28.9c-14.2-5-27.1-11-40-14.5c-29.3-8.1-73.4-0.7-114.2,11.6
			C93.1,219.6,25.8,246.5,25.8,246.5z"/>
		
			<linearGradient id="SVGID_2_" gradientUnits="userSpaceOnUse" x1="-9013.2588" y1="151.3639" x2="-9013.2588" y2="186.2609" gradientTransform="matrix(-1 0 0 -1 -8814.9805 400)">
			<stop  offset="0" style="stop-color:#FFFFFF;stop-opacity:0"/>
			<stop  offset="0.88" style="stop-color:#000000"/>
		</linearGradient>
		<path class="st2" d="M31.8,248l333,0.6c0,0-41-31.6-68.1-34.5c-21.2-2.3-53.8,6.8-69.1,11.9c-15.2,5-33.8,13.3-57.1,14.5
			c-37.9,1.9-45.5-23.1-69.8-19.2C74.5,225.3,31.8,248,31.8,248z"/>
		
			<linearGradient id="SVGID_3_" gradientUnits="userSpaceOnUse" x1="-8884.6318" y1="152.333" x2="-8884.6318" y2="176.3547" gradientTransform="matrix(-1 0 0 -1 -8814.9805 400)">
			<stop  offset="0" style="stop-color:#FFFFFF;stop-opacity:0"/>
			<stop  offset="0.12" style="stop-color:#777777;stop-opacity:0.53"/>
			<stop  offset="0.88" style="stop-color:#000000"/>
		</linearGradient>
		<path class="st3" d="M62,231.3c0-4.2,3.4-7.6,7.6-7.6c4.2,0,7.6,3.4,7.6,7.6c0,3.9-3,7.2-6.9,7.6v8c0,0.4-0.3,0.7-0.7,0.7
			c-0.4,0-0.7-0.3-0.7-0.7v-8C65,238.5,62,235.2,62,231.3z"/>
		
			<linearGradient id="SVGID_4_" gradientUnits="userSpaceOnUse" x1="-8931.1797" y1="207.3723" x2="-8931.1797" y2="216.1403" gradientTransform="matrix(-1 0 0 -1 -8814.9805 400)">
			<stop  offset="0" style="stop-color:#FFFFFF;stop-opacity:0"/>
			<stop  offset="0.12" style="stop-color:#777777;stop-opacity:0.53"/>
			<stop  offset="0.88" style="stop-color:#000000"/>
		</linearGradient>
		<path class="st4" d="M108.8,190.7c0-1,0.8-1.9,1.9-1.9c-0.4-2.2,1-4.4,3.3-4.8c1.9-0.4,3.8,0.6,4.5,2.4c1.6-1,3.7-0.4,4.7,1.2
			s0.4,3.7-1.2,4.7c-0.5,0.3-1.1,0.5-1.7,0.5h-9.6l0,0C109.6,192.6,108.8,191.7,108.8,190.7z"/>
		
			<linearGradient id="SVGID_5_" gradientUnits="userSpaceOnUse" x1="-8912.0078" y1="152.3364" x2="-8912.0078" y2="166.2951" gradientTransform="matrix(-1 0 0 -1 -8814.9805 400)">
			<stop  offset="0" style="stop-color:#FFFFFF;stop-opacity:0"/>
			<stop  offset="0.12" style="stop-color:#777777;stop-opacity:0.53"/>
			<stop  offset="0.88" style="stop-color:#000000"/>
		</linearGradient>
		<path class="st5" d="M92.6,238.1c0-2.5,2-4.4,4.4-4.4c2.5,0,4.4,2,4.4,4.4c0,2.3-1.7,4.2-4,4.4v4.7c0,0.2-0.2,0.4-0.4,0.5
			c-0.2,0-0.4-0.2-0.5-0.4c0,0,0-0.1,0-0.1v-4.7C94.3,242.3,92.6,240.4,92.6,238.1z"/>
		
			<linearGradient id="SVGID_6_" gradientUnits="userSpaceOnUse" x1="-9091.3535" y1="194.8376" x2="-9091.3535" y2="205.7295" gradientTransform="matrix(-1 0 0 -1 -8814.9805 400)">
			<stop  offset="0" style="stop-color:#FFFFFF;stop-opacity:0"/>
			<stop  offset="0.12" style="stop-color:#777777;stop-opacity:0.53"/>
			<stop  offset="0.88" style="stop-color:#000000"/>
		</linearGradient>
		<path class="st6" d="M267.2,202.8c0-1.3,1-2.4,2.4-2.4c-0.6-2.8,1.2-5.5,4-6c2.3-0.5,4.7,0.8,5.7,2.9c2-1.2,4.6-0.5,5.8,1.5
			c1.2,2,0.5,4.6-1.5,5.8c-0.7,0.4-1.4,0.6-2.1,0.6h-11.9l0,0C268.2,205.1,267.2,204,267.2,202.8z"/>
		
			<linearGradient id="SVGID_7_" gradientUnits="userSpaceOnUse" x1="-9155.3623" y1="151.364" x2="-9155.3623" y2="172.8581" gradientTransform="matrix(-1 0 0 -1 -8814.9805 400)">
			<stop  offset="0" style="stop-color:#FFFFFF;stop-opacity:0"/>
			<stop  offset="0.12" style="stop-color:#777777;stop-opacity:0.53"/>
			<stop  offset="0.88" style="stop-color:#000000"/>
		</linearGradient>
		<path class="st7" d="M333.5,234c0-3.8,3.1-6.8,6.8-6.8c3.8,0,6.8,3.1,6.8,6.8c0,3.5-2.7,6.5-6.2,6.8v7.2c0,0.4-0.3,0.7-0.7,0.7
			c-0.4,0-0.7-0.3-0.7-0.7v-7.2C336.2,240.4,333.5,237.5,333.5,234z"/>
	</g>
	
		<linearGradient id="SVGID_8_" gradientUnits="userSpaceOnUse" x1="293.4749" y1="243.8222" x2="293.4749" y2="224.1079" gradientTransform="matrix(1 -4.886902e-03 -4.886902e-03 -1 9.9282 394.5276)">
		<stop  offset="0" style="stop-color:#FFFFFF"/>
		<stop  offset="1" style="stop-color:#E5E5E5"/>
	</linearGradient>
	<path class="st8" d="M318.9,164.6c0-2.4-1.9-4.3-4.3-4.3c1-5-2.3-9.9-7.4-10.8c-4.2-0.8-8.5,1.4-10.2,5.3
		c-3.7-2.1-8.3-0.8-10.4,2.8c-2.1,3.7-0.8,8.3,2.8,10.4c1.2,0.7,2.5,1,3.8,1l21.6-0.1l0,0C317.1,168.8,318.9,166.9,318.9,164.6z"/>
	
		<linearGradient id="SVGID_9_" gradientUnits="userSpaceOnUse" x1="126.7745" y1="277.8858" x2="126.7745" y2="258.1716" gradientTransform="matrix(1 -4.886902e-03 -4.886902e-03 -1 9.9282 394.5276)">
		<stop  offset="0" style="stop-color:#FFFFFF"/>
		<stop  offset="1" style="stop-color:#E5E5E5"/>
	</linearGradient>
	<path class="st9" d="M152.1,131.3c0-2.4-1.9-4.3-4.3-4.3c1-5-2.3-9.9-7.4-10.8c-4.2-0.8-8.5,1.4-10.2,5.3
		c-3.7-2.1-8.3-0.8-10.4,2.8c-2.1,3.7-0.8,8.3,2.8,10.4c1.2,0.7,2.5,1,3.8,1l21.6-0.1l0,0C150.3,135.5,152.1,133.6,152.1,131.3z"/>
	
		<linearGradient id="SVGID_10_" gradientUnits="userSpaceOnUse" x1="124.6843" y1="129.2503" x2="124.6843" y2="136.7662" gradientTransform="matrix(1 0 0 -1 0 400)">
		<stop  offset="0" style="stop-color:#2B3154;stop-opacity:0"/>
		<stop  offset="0.3" style="stop-color:#2A3654;stop-opacity:0.23"/>
		<stop  offset="0.36" style="stop-color:#2A3754;stop-opacity:0.27"/>
		<stop  offset="0.7" style="stop-color:#293A53;stop-opacity:0.44"/>
		<stop  offset="1" style="stop-color:#293B53;stop-opacity:0.5"/>
	</linearGradient>
	<path class="st10" d="M72.8,263.2h103.8c1.7,0,3.1,1.4,3.1,3.1v1.3c0,1.7-1.4,3.1-3.1,3.1H72.8c-1.7,0-3.1-1.4-3.1-3.1v-1.3
		C69.7,264.6,71.1,263.2,72.8,263.2z"/>
	
		<linearGradient id="SVGID_11_" gradientUnits="userSpaceOnUse" x1="-5586.0015" y1="133.7306" x2="-5586.0015" y2="152.0516" gradientTransform="matrix(-1 0 0 -1 -5417.6602 400)">
		<stop  offset="0" style="stop-color:#1E8239"/>
		<stop  offset="1" style="stop-color:#2B9428"/>
	</linearGradient>
	<path class="st11" d="M166.1,248c5.1,0,9.2,4.1,9.2,9.2c0,0.1,0,0.2,0,0.2l0,0c2.4,0,4.4,2,4.4,4.4s-2,4.4-4.4,4.4v0.1h-9.2
		c-5.1,0-9.2-4.1-9.2-9.2C157,252,161.1,247.9,166.1,248L166.1,248z"/>
	<path class="st12" d="M113.4,189v17c0,1.6-1.3,2.9-2.9,2.9h0h-3.7c-1.6,0-2.9-1.3-2.9-2.9l0,0v-17c0-1.6,1.3-2.9,2.9-2.9h0h3.7
		C112.1,186.1,113.4,187.4,113.4,189L113.4,189z"/>
	
		<linearGradient id="SVGID_12_" gradientUnits="userSpaceOnUse" x1="128.9407" y1="137.3775" x2="128.9407" y2="208.4628" gradientTransform="matrix(1 0 0 -1 0 400)">
		<stop  offset="0" style="stop-color:#F3D286"/>
		<stop  offset="1" style="stop-color:#F3E4A8"/>
	</linearGradient>
	<polygon class="st13" points="164.1,215.5 164.1,262.6 93.8,262.6 93.8,215.5 130,191.5 	"/>
	<g class="st14">
		<path d="M162.3,257.5c-1,0-1.9-0.8-1.9-1.9v-29.5l-12.1-7.8l-12.1,7.8v29.5c0,1-0.9,1.8-2,1.8c-1,0-1.8-0.8-1.8-1.8v-30.5
			c0-0.6,0.3-1.2,0.9-1.6l14-9c0.6-0.4,1.4-0.4,2,0l14,9c0.5,0.3,0.9,0.9,0.9,1.6v30.5C164.2,256.7,163.3,257.5,162.3,257.5
			C162.3,257.5,162.3,257.5,162.3,257.5z"/>
	</g>
	<path class="st15" d="M104.8,253.4c0,6.7-5.1,12.2-11.7,12.9c-1.3-0.2-2.4-1.1-2.4-2.2v-6.2c0-1.2,1.4-2.2,3-2.2v-15.1
		C100.1,241.5,104.8,247,104.8,253.4z"/>
	
		<linearGradient id="SVGID_13_" gradientUnits="userSpaceOnUse" x1="148.3141" y1="188.6897" x2="148.3141" y2="142.6237" gradientTransform="matrix(1 0 0 -1 0 400)">
		<stop  offset="0" style="stop-color:#FFFFFF"/>
		<stop  offset="1" style="stop-color:#D9D9D9"/>
	</linearGradient>
	<path class="st16" d="M163.4,257.4c-0.9,0-1.7-0.8-1.7-1.7v-32l-13.3-8.6l-13.3,8.6v32c0,0.9-0.8,1.7-1.7,1.7s-1.7-0.8-1.7-1.7
		v-32.9c0-0.6,0.3-1.1,0.8-1.4l15.1-9.7c0.6-0.4,1.3-0.4,1.9,0l15.1,9.7c0.5,0.3,0.8,0.9,0.8,1.4v32.9
		C165.1,256.6,164.3,257.4,163.4,257.4C163.4,257.4,163.4,257.4,163.4,257.4z"/>
	<g class="st14">
		<path d="M95.8,219.1c-1,0-1.9-0.8-1.9-1.9c0-0.7,0.3-1.3,0.9-1.6l34.1-22.4c0.6-0.4,1.5-0.4,2.1,0l32.9,22
			c0.8,0.7,0.9,1.8,0.3,2.7c-0.6,0.7-1.6,0.9-2.4,0.5l-31.8-21.3l-33.1,21.7C96.5,219,96.2,219.1,95.8,219.1z"/>
	</g>
	<path class="st17" d="M169.2,257.9v6.2c0,1.2-1.4,2.2-3,2.2H93.8c-0.2,0-0.4,0-0.7-0.1c-1.3-0.2-2.4-1.1-2.4-2.2v-6.2
		c0-1.2,1.4-2.2,3-2.2h72.4C167.9,255.7,169.2,256.7,169.2,257.9z"/>
	<path class="st18" d="M157,226.3c0-1.7-1.3-3.2-2.9-3.2h-11.5c-1.6,0-2.9,1.4-2.9,3.2v28.4c0,1.7,1.3,3.2,2.9,3.2H154
		c1.6,0,2.9-1.4,2.9-3.2L157,226.3z"/>
	
		<linearGradient id="SVGID_14_" gradientUnits="userSpaceOnUse" x1="129.9055" y1="210.364" x2="129.9055" y2="179.816" gradientTransform="matrix(1 0 0 -1 0 400)">
		<stop  offset="0" style="stop-color:#FFFFFF"/>
		<stop  offset="1" style="stop-color:#D9D9D9"/>
	</linearGradient>
	<path class="st19" d="M89.2,220.2c-1,0-1.9-0.8-1.9-1.9c0-0.7,0.3-1.3,0.9-1.6l40.8-26.8c0.6-0.4,1.5-0.4,2.1,0l40.6,26.8
		c0.9,0.6,1.1,1.7,0.5,2.6s-1.7,1.1-2.6,0.5L130,193.8l-39.7,26.1C90,220.1,89.6,220.2,89.2,220.2z"/>
	<path class="st20" d="M147.8,238.6c0,2.7-1.2,4.9-2.7,4.9l0,0c-1.5,0-2.7-2.2-2.7-4.9v-7.6c0-2.7,1.2-4.9,2.7-4.9l0,0
		c1.5,0,2.7,2.2,2.7,4.9V238.6z"/>
	<path class="st20" d="M154.5,238.6c0,2.7-1.2,4.9-2.7,4.9l0,0c-1.5,0-2.7-2.2-2.7-4.9v-7.6c0-2.7,1.2-4.9,2.7-4.9l0,0
		c1.5,0,2.7,2.2,2.7,4.9V238.6z"/>
	<path class="st20" d="M147.8,252.2c0,1.5-1.2,2.7-2.7,2.7l0,0c-1.5,0-2.7-1.2-2.7-2.7v-4.1c0-1.5,1.2-2.7,2.7-2.7l0,0
		c1.5,0,2.7,1.2,2.7,2.7V252.2z"/>
	<path class="st20" d="M154.5,252.2c0,1.5-1.2,2.7-2.7,2.7l0,0c-1.5,0-2.7-1.2-2.7-2.7v-4.1c0-1.5,1.2-2.7,2.7-2.7l0,0
		c1.5,0,2.7,1.2,2.7,2.7V252.2z"/>
	<path class="st15" d="M124.5,245c0,1-0.8,1.7-1.7,1.7h-20.3c-1,0-1.7-0.8-1.7-1.7l0,0c0-1,0.8-1.7,1.7-1.7h20.3
		C123.7,243.2,124.5,244,124.5,245L124.5,245z"/>
	<path class="st21" d="M106.7,225.9h11.5c1.6,0,2.9,1.3,2.9,2.9v11.9c0,1.6-1.3,2.9-2.9,2.9h-11.5c-1.6,0-2.9-1.3-2.9-2.9v-11.9
		C103.8,227.3,105.1,225.9,106.7,225.9z"/>
	<path class="st12" d="M124.5,244.3c0,1-0.8,1.7-1.7,1.7h-20.3c-1,0-1.7-0.8-1.7-1.7l0,0c0-1,0.8-1.7,1.7-1.7h20.3
		C123.7,242.6,124.5,243.4,124.5,244.3L124.5,244.3z"/>
	
		<linearGradient id="SVGID_15_" gradientUnits="userSpaceOnUse" x1="116.2636" y1="172.1092" x2="116.2636" y2="166.0659" gradientTransform="matrix(1 0 0 -1 0 400)">
		<stop  offset="0" style="stop-color:#00AFCD"/>
		<stop  offset="1" style="stop-color:#3984D1"/>
	</linearGradient>
	<path class="st22" d="M113.3,233.9h5.9v-5.1c0-0.5-0.4-1-1-1h-4.9V233.9z"/>
	
		<linearGradient id="SVGID_16_" gradientUnits="userSpaceOnUse" x1="108.6678" y1="172.1092" x2="108.6678" y2="166.0659" gradientTransform="matrix(1 0 0 -1 0 400)">
		<stop  offset="0" style="stop-color:#00AFCD"/>
		<stop  offset="1" style="stop-color:#3984D1"/>
	</linearGradient>
	<path class="st23" d="M111.6,233.9v-6h-4.9c-0.5,0-1,0.4-1,1v5.1L111.6,233.9z"/>
	
		<linearGradient id="SVGID_17_" gradientUnits="userSpaceOnUse" x1="108.6695" y1="164.3536" x2="108.6695" y2="158.3138" gradientTransform="matrix(1 0 0 -1 0 400)">
		<stop  offset="0" style="stop-color:#00AFCD"/>
		<stop  offset="1" style="stop-color:#3984D1"/>
	</linearGradient>
	<path class="st24" d="M111.6,235.6h-5.9v5.1c0,0.5,0.4,1,1,1h4.9L111.6,235.6z"/>
	
		<linearGradient id="SVGID_18_" gradientUnits="userSpaceOnUse" x1="116.2654" y1="164.3536" x2="116.2654" y2="158.3138" gradientTransform="matrix(1 0 0 -1 0 400)">
		<stop  offset="0" style="stop-color:#00AFCD"/>
		<stop  offset="1" style="stop-color:#3984D1"/>
	</linearGradient>
	<path class="st25" d="M113.3,235.6v6h4.9c0.5,0,1-0.4,1-1v-5.1H113.3z"/>
	
		<linearGradient id="SVGID_19_" gradientUnits="userSpaceOnUse" x1="124.9448" y1="193.5247" x2="134.885" y2="193.5247" gradientTransform="matrix(1 0 0 -1 0 400)">
		<stop  offset="0" style="stop-color:#00AFCD"/>
		<stop  offset="1" style="stop-color:#3984D1"/>
	</linearGradient>
	<circle class="st26" cx="129.9" cy="206.5" r="5"/>
	<path class="st27" d="M163.4,258.7c0,1.2-1,2.2-2.2,2.2h0h-25.7c-1.2,0-2.2-1-2.2-2.2l0,0l0,0c0-1.2,1-2.2,2.2-2.2l0,0h25.7
		C162.4,256.5,163.4,257.5,163.4,258.7L163.4,258.7z"/>
	<path class="st12" d="M163.4,263.2c0,1.3-1,2.3-2.3,2.3h0h-25.6c-1.3,0-2.3-1-2.3-2.3l0,0c0-1.3,1-2.3,2.3-2.3h0h25.6
		C162.4,261,163.4,262,163.4,263.2C163.4,263.2,163.4,263.2,163.4,263.2L163.4,263.2z"/>
	<path class="st15" d="M113.4,189v1.4c-0.4,0.2-0.9,0.3-1.3,0.3h-6.8c-0.5,0-1-0.1-1.4-0.4V189c0-1.6,1.3-2.9,2.9-2.9h0h3.7
		C112.1,186.1,113.4,187.4,113.4,189C113.4,189,113.4,189,113.4,189z"/>
	
		<linearGradient id="SVGID_20_" gradientUnits="userSpaceOnUse" x1="85.695" y1="133.7098" x2="85.695" y2="159.5363" gradientTransform="matrix(1 0 0 -1 0 400)">
		<stop  offset="0" style="stop-color:#1E8239"/>
		<stop  offset="1" style="stop-color:#2B9428"/>
	</linearGradient>
	<path class="st28" d="M88.8,240.5c-7.1,0-12.9,5.8-12.9,12.9l0,0c0,0.1,0,0.2,0,0.3l0,0c-3.5,0-6.3,2.8-6.3,6.3
		c0,3.5,2.8,6.3,6.3,6.3v0.1h12.9c7.1,0,12.9-5.8,12.9-12.9C101.7,246.3,96,240.5,88.8,240.5C88.8,240.5,88.8,240.5,88.8,240.5
		L88.8,240.5z"/>
	<path class="st27" d="M105.3,182.8h6.8c1.6,0,2.9,1.3,2.9,2.9v0.9c0,1.6-1.3,2.9-2.9,2.9h-6.8c-1.6,0-2.9-1.3-2.9-2.9v-0.9
		C102.4,184.1,103.7,182.8,105.3,182.8z"/>
	
		<linearGradient id="SVGID_21_" gradientUnits="userSpaceOnUse" x1="108.7112" y1="231.3892" x2="108.7112" y2="220.1987" gradientTransform="matrix(1 0 0 -1 0 400)">
		<stop  offset="0" style="stop-color:#FFFFFF"/>
		<stop  offset="1" style="stop-color:#D9D9D9"/>
	</linearGradient>
	<circle class="st29" cx="108.7" cy="174.2" r="5.6"/>
	
		<linearGradient id="SVGID_22_" gradientUnits="userSpaceOnUse" x1="108.7112" y1="242.2429" x2="108.7112" y2="234.1296" gradientTransform="matrix(1 0 0 -1 0 400)">
		<stop  offset="0" style="stop-color:#FFFFFF"/>
		<stop  offset="1" style="stop-color:#D9D9D9"/>
	</linearGradient>
	<circle class="st30" cx="108.7" cy="161.8" r="4.1"/>
	
		<linearGradient id="SVGID_23_" gradientUnits="userSpaceOnUse" x1="108.7112" y1="252.4088" x2="108.7112" y2="246.2405" gradientTransform="matrix(1 0 0 -1 0 400)">
		<stop  offset="0" style="stop-color:#FFFFFF"/>
		<stop  offset="1" style="stop-color:#D9D9D9"/>
	</linearGradient>
	<circle class="st31" cx="108.7" cy="150.7" r="3.1"/>
	<path class="st21" d="M129.9,212c-3,0-5.5-2.5-5.5-5.5c0-3,2.5-5.5,5.5-5.5c3,0,5.5,2.5,5.5,5.5l0,0
		C135.4,209.5,132.9,212,129.9,212z M129.9,202c-2.5,0-4.5,2-4.5,4.5c0,2.5,2,4.5,4.5,4.5c2.5,0,4.5-2,4.5-4.5
		C134.4,204,132.4,202,129.9,202L129.9,202z"/>
	
		<linearGradient id="SVGID_24_" gradientUnits="userSpaceOnUse" x1="168.409" y1="193.4016" x2="168.409" y2="222.9552" gradientTransform="matrix(1 0 0 -1 0 400)">
		<stop  offset="0" style="stop-color:#93C593"/>
		<stop  offset="1" style="stop-color:#A9D3A9"/>
	</linearGradient>
	<path class="st32" d="M151,180.7L151,180.7l-0.7,0.2c-0.7,0.4-1.1,1.2-1,1.9c0.1,0.3,0.2,0.6,0.3,0.9c1.7,4.1,5.1,12.2,5.8,12.6
		l21.9,10.1c1,0.5,2.3,0,2.7-1l7.1-15.5c0.5-1,0-2.3-1-2.7l-21.9-10.1C163.6,176.7,155.2,179.4,151,180.7z M155.6,184.7
		c-0.5,1.1-1.8,1.6-2.9,1.1c-1.1-0.5-1.6-1.8-1.1-2.9c0.5-1.1,1.8-1.6,2.9-1.1c0,0,0,0,0,0C155.6,182.3,156.1,183.6,155.6,184.7
		C155.6,184.7,155.6,184.7,155.6,184.7L155.6,184.7z"/>
	<g class="st33">
		
			<linearGradient id="SVGID_25_" gradientUnits="userSpaceOnUse" x1="-4147.3325" y1="-1670.8533" x2="-4137.0952" y2="-1670.8533" gradientTransform="matrix(0.4175 -0.9087 -0.9087 -0.4175 377.703 -4273.1318)">
			<stop  offset="0" style="stop-color:#1E8239"/>
			<stop  offset="1" style="stop-color:#2B9428"/>
		</linearGradient>
		<path class="st34" d="M164.2,181.7l4.4,2c1.4,0.7,2.2,1.5,2.6,2.4c0.3,0.8,0.2,1.8-0.2,2.5v0c-0.5,1.3-1.8,2.1-3.2,2l0.7,4.3
			l-3-1.4l-0.6-3.7l-1.1-0.5l-1.3,2.8l-2.6-1.2L164.2,181.7z M166.4,188.2c0.9,0.4,1.6,0.2,1.9-0.5v0c0.3-0.7,0-1.4-0.9-1.8
			l-1.7-0.8l-1,2.2L166.4,188.2z"/>
		
			<linearGradient id="SVGID_26_" gradientUnits="userSpaceOnUse" x1="-4149.6733" y1="-1680.8385" x2="-4139.251" y2="-1680.8385" gradientTransform="matrix(0.4175 -0.9087 -0.9087 -0.4175 377.703 -4273.1318)">
			<stop  offset="0" style="stop-color:#1E8239"/>
			<stop  offset="1" style="stop-color:#2B9428"/>
		</linearGradient>
		<path class="st35" d="M172.6,188.2l2.5,1.2l-0.4,1c0.8-0.5,1.8-0.5,2.7-0.1c1.7,0.8,2.5,2.9,1.5,5.2v0c-1.1,2.3-3.2,3.1-4.9,2.3
			c-0.9-0.4-1.5-1.1-1.7-2l-1.4,3l-2.5-1.2L172.6,188.2z M176.4,194.3L176.4,194.3c0.4-1,0.1-2-0.7-2.3c-0.8-0.4-1.8,0-2.2,1v0
			c-0.4,1-0.1,1.9,0.7,2.3C175,195.6,176,195.2,176.4,194.3z"/>
	</g>
	<path class="st36" d="M151.7,182.9c0,0-5.2-2.9-7.1,2.4s-0.5,9.5-6.6,11.3"/>
	
		<linearGradient id="SVGID_27_" gradientUnits="userSpaceOnUse" x1="207.1947" y1="126.8329" x2="207.1947" y2="134.1231" gradientTransform="matrix(1 0 0 -1 0 400)">
		<stop  offset="0" style="stop-color:#2B3154;stop-opacity:0"/>
		<stop  offset="0.3" style="stop-color:#2A3654;stop-opacity:0.23"/>
		<stop  offset="0.36" style="stop-color:#2A3754;stop-opacity:0.27"/>
		<stop  offset="0.7" style="stop-color:#293A53;stop-opacity:0.44"/>
		<stop  offset="1" style="stop-color:#293B53;stop-opacity:0.5"/>
	</linearGradient>
	<path class="st37" d="M170.9,265.9h72.5c1.7,0,3.1,1.4,3.1,3.1v1c0,1.7-1.4,3.1-3.1,3.1h-72.5c-1.7,0-3.1-1.4-3.1-3.1v-1
		C167.8,267.3,169.2,265.9,170.9,265.9z"/>
	
		<linearGradient id="SVGID_28_" gradientUnits="userSpaceOnUse" x1="310.8583" y1="128.4445" x2="310.8583" y2="133.946" gradientTransform="matrix(1 0 0 -1 0 400)">
		<stop  offset="0" style="stop-color:#2B3154;stop-opacity:0"/>
		<stop  offset="0.3" style="stop-color:#2A3654;stop-opacity:0.23"/>
		<stop  offset="0.36" style="stop-color:#2A3754;stop-opacity:0.27"/>
		<stop  offset="0.7" style="stop-color:#293A53;stop-opacity:0.44"/>
		<stop  offset="1" style="stop-color:#293B53;stop-opacity:0.5"/>
	</linearGradient>
	<path class="st38" d="M285.3,268.8c0-1.5,1.2-2.8,2.8-2.8l0,0h45.5c1.5,0,2.8,1.2,2.8,2.8l0,0c0,1.5-1.2,2.8-2.8,2.8h-45.5
		C286.6,271.6,285.3,270.3,285.3,268.8L285.3,268.8z"/>
	
		<linearGradient id="SVGID_29_" gradientUnits="userSpaceOnUse" x1="313.2844" y1="125.3951" x2="313.2844" y2="128.0729" gradientTransform="matrix(1 0 0 -1 0 400)">
		<stop  offset="0" style="stop-color:#2B3154;stop-opacity:0"/>
		<stop  offset="0.3" style="stop-color:#2A3654;stop-opacity:0.23"/>
		<stop  offset="0.36" style="stop-color:#2A3754;stop-opacity:0.27"/>
		<stop  offset="0.7" style="stop-color:#293A53;stop-opacity:0.44"/>
		<stop  offset="1" style="stop-color:#293B53;stop-opacity:0.5"/>
	</linearGradient>
	<path class="st39" d="M299,273.3c0-0.7,0.6-1.3,1.3-1.3h25.8c0.7,0,1.3,0.6,1.3,1.3l0,0c0,0.7-0.6,1.3-1.3,1.3h-25.8
		C299.6,274.6,299,274,299,273.3z"/>
	
		<linearGradient id="SVGID_30_" gradientUnits="userSpaceOnUse" x1="217.9771" y1="123.4292" x2="217.9771" y2="125.5826" gradientTransform="matrix(1 0 0 -1 0 400)">
		<stop  offset="0" style="stop-color:#2B3154;stop-opacity:0"/>
		<stop  offset="0.3" style="stop-color:#2A3654;stop-opacity:0.23"/>
		<stop  offset="0.36" style="stop-color:#2A3754;stop-opacity:0.27"/>
		<stop  offset="0.7" style="stop-color:#293A53;stop-opacity:0.44"/>
		<stop  offset="1" style="stop-color:#293B53;stop-opacity:0.5"/>
	</linearGradient>
	<path class="st40" d="M234,275.5c0-0.6-0.5-1.1-1.1-1.1H203c-0.6,0-1.1,0.5-1.1,1.1l0,0c0,0.6,0.5,1.1,1.1,1.1h29.9
		C233.5,276.6,234,276.1,234,275.5z"/>
	
		<linearGradient id="SVGID_31_" gradientUnits="userSpaceOnUse" x1="263.8907" y1="118.025" x2="263.8907" y2="121.9566" gradientTransform="matrix(1 0 0 -1 0 400)">
		<stop  offset="0" style="stop-color:#2B3154;stop-opacity:0"/>
		<stop  offset="0.3" style="stop-color:#2A3654;stop-opacity:0.23"/>
		<stop  offset="0.36" style="stop-color:#2A3754;stop-opacity:0.27"/>
		<stop  offset="0.7" style="stop-color:#293A53;stop-opacity:0.44"/>
		<stop  offset="1" style="stop-color:#293B53;stop-opacity:0.5"/>
	</linearGradient>
	<path class="st41" d="M298.5,280c0-1.1-0.9-2-2-2h-65.3c-1.1,0-2,0.9-2,2l0,0c0,1.1,0.9,2,2,2h65.3
		C297.6,282,298.5,281.1,298.5,280L298.5,280z"/>
	
		<linearGradient id="SVGID_32_" gradientUnits="userSpaceOnUse" x1="336.3705" y1="161.1296" x2="336.3705" y2="180.8245" gradientTransform="matrix(1 0 0 -1 0 400)">
		<stop  offset="0" style="stop-color:#1E8239"/>
		<stop  offset="1" style="stop-color:#2B9428"/>
	</linearGradient>
	<path class="st42" d="M346.9,233.7c0.1-0.2,0.1-0.4-0.1-1c-0.3-1.9-1.6-5.9-7.1-5.9c-5.5,0-6.8-4.5-7.2-6.7
		c-0.1-0.6-0.2-0.8-0.3-0.8c-0.2-0.1-0.5,0.2-0.5,0.2l-5.2,4.4c-0.2,0.2-0.4,0.4-0.6,0.7c-0.1,0.3-0.1,0.6-0.1,0.9
		c0.2,2.1,1.5,7,7.3,7c5.4,0,6.8,3.9,7.1,5.8c0.1,0.5,0.2,0.7,0.3,0.7c0.3,0,0.8-0.4,0.8-0.4l5.1-4.3
		C346.6,234,346.8,233.9,346.9,233.7z"/>
	<path class="st43" d="M341,237.7c-0.4-2.1-2-6.2-7.9-6.2c-2.2,0-3.9-0.8-5-2.4c-0.8-1.2-1.3-2.5-1.4-3.9c0-0.2,0-0.3,0-0.5
		c0.1-0.1,0.2-0.2,0.3-0.3l4.7-4c0.7,3.3,2.7,7.2,8,7.2c4.8,0,6,3.3,6.3,5.2l0.1,0.3c0,0.1,0,0.2,0,0.2l-0.2,0.1L341,237.7z"/>
	
		<linearGradient id="SVGID_33_" gradientUnits="userSpaceOnUse" x1="336.1343" y1="169.084" x2="336.1343" y2="172.2863" gradientTransform="matrix(1 0 0 -1 0 400)">
		<stop  offset="0" style="stop-color:#1E8239"/>
		<stop  offset="1" style="stop-color:#2B9428"/>
	</linearGradient>
	<ellipse class="st44" cx="336.1" cy="229.3" rx="3" ry="1.6"/>
	
		<linearGradient id="SVGID_34_" gradientUnits="userSpaceOnUse" x1="275.5414" y1="195.6702" x2="275.5414" y2="215.3652" gradientTransform="matrix(1 0 0 -1 0 400)">
		<stop  offset="0" style="stop-color:#1E8239"/>
		<stop  offset="1" style="stop-color:#2B9428"/>
	</linearGradient>
	<path class="st45" d="M286.1,199.2c0.1-0.2,0.1-0.4-0.1-1c-0.3-1.9-1.6-5.9-7.1-5.9c-5.5,0-6.8-4.5-7.2-6.7
		c-0.1-0.6-0.2-0.8-0.3-0.8s-0.5,0.2-0.5,0.2l-5.2,4.4c-0.2,0.2-0.4,0.4-0.6,0.7c-0.1,0.3-0.1,0.6-0.1,0.9c0.2,2.1,1.5,7,7.3,7
		c5.4,0,6.8,3.9,7.1,5.8c0.1,0.5,0.2,0.7,0.3,0.7c0.3,0,0.8-0.4,0.8-0.4l5.1-4.3C285.8,199.5,285.9,199.3,286.1,199.2z"/>
	<path class="st43" d="M280.2,203.2c-0.4-2.1-2-6.2-7.9-6.2c-2.2,0-3.9-0.8-5-2.4c-0.8-1.2-1.3-2.5-1.4-3.9c0-0.2,0-0.3,0-0.5
		c0.1-0.1,0.2-0.2,0.3-0.3l4.7-4c0.7,3.3,2.7,7.2,8,7.2c4.8,0,6,3.3,6.3,5.2l0.1,0.3c0,0.1,0,0.2,0,0.2l-0.2,0.1L280.2,203.2z"/>
	
		<linearGradient id="SVGID_35_" gradientUnits="userSpaceOnUse" x1="275.3053" y1="203.6073" x2="275.3053" y2="206.8131" gradientTransform="matrix(1 0 0 -1 0 400)">
		<stop  offset="0" style="stop-color:#1E8239"/>
		<stop  offset="1" style="stop-color:#2B9428"/>
	</linearGradient>
	<ellipse class="st46" cx="275.3" cy="194.8" rx="3" ry="1.6"/>
	
		<linearGradient id="SVGID_36_" gradientUnits="userSpaceOnUse" x1="172.2888" y1="165.0539" x2="172.2888" y2="190.0231" gradientTransform="matrix(1 0 0 -1 0 400)">
		<stop  offset="0" style="stop-color:#1E8239"/>
		<stop  offset="1" style="stop-color:#2B9428"/>
	</linearGradient>
	<path class="st47" d="M185.6,228.4c0.1-0.3,0.1-0.5-0.1-1.3c-0.4-2.5-2.1-7.5-9.1-7.5c-7,0-8.6-5.7-9.2-8.5c-0.2-0.8-0.2-1-0.4-1.1
		c-0.2-0.1-0.6,0.2-0.6,0.2l-6.7,5.6c-0.3,0.2-0.5,0.5-0.7,0.8c-0.1,0.4-0.1,0.8-0.1,1.1c0.3,2.7,2,8.9,9.2,8.9c6.9,0,8.6,4.9,9,7.4
		c0.1,0.6,0.2,0.8,0.4,0.8c0.4,0,1-0.5,1-0.5l6.5-5.5C185.3,228.8,185.5,228.6,185.6,228.4z"/>
	<path class="st43" d="M178.1,233.5c-0.6-2.7-2.6-7.8-10-7.8c-2.8,0-4.9-1-6.4-3c-1-1.5-1.6-3.2-1.8-5c0-0.2,0-0.4,0-0.6
		c0.1-0.2,0.3-0.3,0.4-0.4l6-5.1c0.9,4.2,3.4,9.1,10.1,9.1c6.1,0,7.6,4.1,8,6.6c0,0.1,0,0.3,0.1,0.4c0,0.1,0,0.2,0.1,0.3
		c-0.1,0.1-0.1,0.1-0.2,0.2L178.1,233.5z"/>
	
		<linearGradient id="SVGID_37_" gradientUnits="userSpaceOnUse" x1="171.968" y1="175.1308" x2="171.968" y2="179.1944" gradientTransform="matrix(1 0 0 -1 0 400)">
		<stop  offset="0" style="stop-color:#1E8239"/>
		<stop  offset="1" style="stop-color:#2B9428"/>
	</linearGradient>
	<ellipse class="st48" cx="172" cy="222.8" rx="3.8" ry="2"/>
	
		<linearGradient id="SVGID_38_" gradientUnits="userSpaceOnUse" x1="311.8291" y1="176.4819" x2="311.8291" y2="130.6673" gradientTransform="matrix(1 0 0 -1 0 400)">
		<stop  offset="0" style="stop-color:#FFFFFF"/>
		<stop  offset="1" style="stop-color:#D9D9D9"/>
	</linearGradient>
	<path class="st49" d="M334,225.9v41c0,1.3-1.1,2.4-2.4,2.4c0,0,0,0,0,0H292c-1.3,0-2.4-1.1-2.4-2.4c0,0,0,0,0,0v-41
		c0-1.3,1-2.4,2.4-2.4c0,0,0,0,0,0h39.7C333,223.5,334,224.6,334,225.9C334,225.9,334,225.9,334,225.9z"/>
	
		<linearGradient id="SVGID_39_" gradientUnits="userSpaceOnUse" x1="311.8951" y1="166.3229" x2="311.8951" y2="176.8744" gradientTransform="matrix(1 0 0 -1 0 400)">
		<stop  offset="0" style="stop-color:#94273A"/>
		<stop  offset="1" style="stop-color:#C6514D"/>
	</linearGradient>
	<path class="st50" d="M334.5,225.5v8.1h-45.2v-8.1c0-1.3,1.1-2.4,2.4-2.4c0,0,0,0,0,0h40.3C333.4,223.1,334.5,224.2,334.5,225.5
		C334.5,225.5,334.5,225.5,334.5,225.5z"/>
	<path class="st51" d="M294.7,255.3l2.6-2.6c1,1.1,2.2,1.7,3.5,1.7c1.2,0,1.9-0.6,1.9-1.5v0c0-1-0.8-1.5-2.4-1.5h-1.7l-0.6-2.1
		l3.4-3.1h-5.6v-3.3h10.7v2.9l-3.5,3c2.1,0.5,3.8,1.6,3.8,4.2v0.1c0,3-2.4,4.9-5.7,4.9C298.1,257.9,296.1,256.9,294.7,255.3z"/>
	<path class="st51" d="M308.3,249.2h6.9v3.5h-6.9V249.2z"/>
	<path class="st51" d="M318.7,256.2c-1.1-1.1-1.8-2.8-1.8-5.6v0c0-4.6,2.2-8.1,6.9-8.1c1.8,0,3.5,0.5,4.9,1.6l-1.9,2.9
		c-0.9-0.7-1.8-1.1-2.9-1.1c-2.1,0-2.7,2-2.8,3.2c0.9-0.7,2-1.2,3.2-1.1c2.6,0,4.9,1.6,4.9,4.6v0c0,3.3-2.6,5.3-5.9,5.3
		C321.2,257.9,319.8,257.3,318.7,256.2z M325.2,252.8L325.2,252.8c0-1.1-0.8-1.9-2.1-1.9s-2.1,0.8-2.1,1.9v0c0,1.1,0.8,1.9,2.1,1.9
		C324.4,254.7,325.2,253.9,325.2,252.8L325.2,252.8z"/>
	<path class="st15" d="M302.1,269.3h-10.4c-1.3,0-2.4-1.1-2.4-2.4V229c1.2,1.5,2.3,3.1,3.5,4.7c2.2,2.9,4.3,6,6.2,9.1
		c0.6,1.1,1.2,2.2,1.8,3.3l0.2,0.3c1.7,3.4,2.8,7,3.2,10.7c0,0.3,0.1,0.7,0.1,1C304.6,263,303.8,266.6,302.1,269.3z"/>
	<path class="st52" d="M317.9,272.4c0-0.5-0.4-0.9-0.9-0.9h-15.1c-0.5,0-0.9,0.4-0.9,0.9l0,0c0,0.5,0.4,0.9,0.9,0.9H317
		C317.5,273.3,317.9,272.9,317.9,272.4L317.9,272.4z"/>
	<path class="st53" d="M310.3,272.4c0,0.5-0.4,0.9-0.9,0.9h-7.6c-0.5,0-0.9-0.4-0.9-0.9l0,0c0-0.5,0.4-0.9,0.9-0.9h7.6
		C310,271.6,310.3,271.9,310.3,272.4L310.3,272.4z"/>
	<path class="st54" d="M301.8,271.9h15.9c-0.2-0.2-0.4-0.3-0.7-0.3h-15.1c-0.3,0-0.7,0.2-0.8,0.5C301.3,272,301.6,271.9,301.8,271.9
		z"/>
	<path class="st55" d="M317.9,272.4c0,0.5-0.4,0.9-0.9,0.9h-2.3c-0.5,0-0.9-0.4-0.9-0.9l0,0c0-0.5,0.4-0.9,0.9-0.9h2.3
		C317.5,271.6,317.9,271.9,317.9,272.4z"/>
	<path class="st56" d="M310.1,271.9c-0.2-0.2-0.4-0.3-0.7-0.3h-7.6c-0.3,0-0.5,0.1-0.7,0.3H310.1z"/>
	<path class="st12" d="M317.7,271.9c-0.2-0.2-0.4-0.3-0.7-0.3h-2.3c-0.3,0-0.5,0.1-0.7,0.3H317.7z"/>
	<path class="st52" d="M317.9,270.7c0-0.5-0.4-0.9-0.9-0.9h-15.1c-0.5,0-0.9,0.4-0.9,0.9l0,0c0,0.5,0.4,0.9,0.9,0.9H317
		C317.5,271.6,317.9,271.2,317.9,270.7L317.9,270.7z"/>
	<path class="st53" d="M310.3,270.7c0,0.5-0.4,0.9-0.9,0.9h-7.6c-0.5,0-0.9-0.4-0.9-0.9l0,0c0-0.5,0.4-0.9,0.9-0.9h7.6
		C310,269.8,310.3,270.2,310.3,270.7L310.3,270.7z"/>
	<path class="st54" d="M301.8,270.2h15.9c-0.2-0.2-0.4-0.3-0.7-0.3h-15.1c-0.3,0-0.7,0.2-0.8,0.5
		C301.3,270.2,301.6,270.2,301.8,270.2z"/>
	<path class="st55" d="M317.9,270.7c0,0.5-0.4,0.9-0.9,0.9h-2.3c-0.5,0-0.9-0.4-0.9-0.9l0,0c0-0.5,0.4-0.9,0.9-0.9h2.3
		C317.5,269.8,317.9,270.2,317.9,270.7z"/>
	<path class="st56" d="M310.1,270.2c-0.2-0.2-0.4-0.3-0.7-0.3h-7.6c-0.3,0-0.5,0.1-0.7,0.3H310.1z"/>
	<path class="st12" d="M317.7,270.2c-0.2-0.2-0.4-0.3-0.7-0.3h-2.3c-0.3,0-0.5,0.1-0.7,0.3H317.7z"/>
	<path class="st52" d="M316.7,269c0-0.5-0.4-0.9-0.9-0.9h-15.1c-0.5,0-0.9,0.4-0.9,0.9l0,0c0,0.5,0.4,0.9,0.9,0.9h15.1
		C316.3,269.8,316.7,269.4,316.7,269z"/>
	<path class="st53" d="M309.1,269c0,0.5-0.4,0.9-0.9,0.9h-7.6c-0.5,0-0.9-0.4-0.9-0.9l0,0c0-0.5,0.4-0.9,0.9-0.9h7.6
		C308.8,268.1,309.1,268.5,309.1,269L309.1,269z"/>
	<path class="st54" d="M300.6,268.4h15.9c-0.2-0.2-0.4-0.3-0.7-0.3h-15.1c-0.3,0-0.7,0.2-0.8,0.5
		C300.1,268.5,300.4,268.4,300.6,268.4z"/>
	<path class="st55" d="M316.7,269c0,0.5-0.4,0.9-0.9,0.9h-2.3c-0.5,0-0.9-0.4-0.9-0.9l0,0c0-0.5,0.4-0.9,0.9-0.9h2.3
		C316.3,268.1,316.7,268.5,316.7,269z"/>
	<path class="st56" d="M308.9,268.4c-0.2-0.2-0.4-0.3-0.7-0.3h-7.6c-0.3,0-0.5,0.1-0.7,0.3H308.9z"/>
	<path class="st12" d="M316.5,268.4c-0.2-0.2-0.4-0.3-0.7-0.3h-2.3c-0.3,0-0.5,0.1-0.7,0.3H316.5z"/>
	<path class="st52" d="M319,267.2c0-0.5-0.4-0.9-0.9-0.9h-15.1c-0.5,0-0.9,0.4-0.9,0.9l0,0c0,0.5,0.4,0.9,0.9,0.9h15.1
		C318.7,268.1,319,267.7,319,267.2z"/>
	<path class="st53" d="M311.5,267.2c0,0.5-0.4,0.9-0.9,0.9h-7.6c-0.5,0-0.9-0.4-0.9-0.9l0,0c0-0.5,0.4-0.9,0.9-0.9h7.6
		C311.1,266.4,311.5,266.8,311.5,267.2L311.5,267.2z"/>
	<path class="st54" d="M303,266.7h15.9c-0.2-0.2-0.4-0.3-0.7-0.3h-15.1c-0.3,0-0.7,0.2-0.8,0.5C302.5,266.8,302.7,266.7,303,266.7z"
		/>
	<path class="st55" d="M319,267.2c0,0.5-0.4,0.9-0.9,0.9h-2.3c-0.5,0-0.9-0.4-0.9-0.9l0,0c0-0.5,0.4-0.9,0.9-0.9h2.3
		C318.7,266.4,319,266.8,319,267.2z"/>
	<path class="st56" d="M311.3,266.7c-0.2-0.2-0.4-0.3-0.7-0.3h-7.6c-0.3,0-0.5,0.1-0.7,0.3H311.3z"/>
	<path class="st12" d="M318.8,266.7c-0.2-0.2-0.4-0.3-0.7-0.3h-2.3c-0.3,0-0.5,0.1-0.7,0.3H318.8z"/>
	<path class="st52" d="M318.1,265.5c0-0.5-0.4-0.9-0.9-0.9h-15.1c-0.5,0-0.9,0.4-0.9,0.9l0,0c0,0.5,0.4,0.9,0.9,0.9h15.1
		C317.7,266.4,318.1,266,318.1,265.5L318.1,265.5z"/>
	<path class="st53" d="M310.5,265.5c0,0.5-0.4,0.9-0.9,0.9h-7.6c-0.5,0-0.9-0.4-0.9-0.9l0,0c0-0.5,0.4-0.9,0.9-0.9h7.6
		C310.2,264.7,310.5,265,310.5,265.5L310.5,265.5z"/>
	<path class="st54" d="M302,265h15.9c-0.2-0.2-0.4-0.3-0.7-0.3h-15.1c-0.3,0-0.7,0.2-0.8,0.5C301.5,265.1,301.8,265,302,265z"/>
	<path class="st55" d="M318.1,265.5c0,0.5-0.4,0.9-0.9,0.9h-2.3c-0.5,0-0.9-0.4-0.9-0.9l0,0c0-0.5,0.4-0.9,0.9-0.9h2.3
		C317.7,264.7,318.1,265,318.1,265.5z"/>
	<path class="st56" d="M310.3,265c-0.2-0.2-0.4-0.3-0.7-0.3h-7.6c-0.3,0-0.5,0.1-0.7,0.3H310.3z"/>
	<path class="st12" d="M317.9,265c-0.2-0.2-0.4-0.3-0.7-0.3h-2.3c-0.3,0-0.5,0.1-0.7,0.3H317.9z"/>
	<path class="st52" d="M317.3,263.8c0-0.5-0.4-0.9-0.9-0.9h-15.1c-0.5,0-0.9,0.4-0.9,0.9l0,0c0,0.5,0.4,0.9,0.9,0.9h15.1
		C316.9,264.7,317.3,264.3,317.3,263.8L317.3,263.8z"/>
	<path class="st53" d="M309.8,263.8c0,0.5-0.4,0.9-0.9,0.9h-7.6c-0.5,0-0.9-0.4-0.9-0.9l0,0c0-0.5,0.4-0.9,0.9-0.9h7.6
		C309.4,263,309.8,263.4,309.8,263.8z"/>
	<path class="st54" d="M301.3,263.3h15.9c-0.2-0.2-0.4-0.3-0.7-0.3h-15.1c-0.3,0-0.7,0.2-0.8,0.5C300.8,263.4,301,263.3,301.3,263.3
		z"/>
	<path class="st55" d="M317.3,263.8c0,0.5-0.4,0.9-0.9,0.9h-2.3c-0.5,0-0.9-0.4-0.9-0.9l0,0c0-0.5,0.4-0.9,0.9-0.9h2.3
		C316.9,263,317.3,263.4,317.3,263.8L317.3,263.8z"/>
	<path class="st56" d="M309.6,263.3c-0.2-0.2-0.4-0.3-0.7-0.3h-7.6c-0.3,0-0.5,0.1-0.7,0.3H309.6z"/>
	<path class="st12" d="M317.1,263.3c-0.2-0.2-0.4-0.3-0.7-0.3h-2.3c-0.3,0-0.5,0.1-0.7,0.3H317.1z"/>
	<path class="st52" d="M317.3,262.1c0-0.5-0.4-0.9-0.9-0.9h-15.1c-0.5,0-0.9,0.4-0.9,0.9l0,0c0,0.5,0.4,0.9,0.9,0.9h15.1
		C316.9,263,317.3,262.6,317.3,262.1L317.3,262.1z"/>
	<path class="st53" d="M309.8,262.1c0,0.5-0.4,0.9-0.9,0.9h-7.6c-0.5,0-0.9-0.4-0.9-0.9l0,0c0-0.5,0.4-0.9,0.9-0.9h7.6
		C309.4,261.2,309.8,261.6,309.8,262.1z"/>
	<path class="st54" d="M301.3,261.6h15.9c-0.2-0.2-0.4-0.3-0.7-0.3h-15.1c-0.3,0-0.7,0.2-0.8,0.5C300.8,261.6,301,261.6,301.3,261.6
		z"/>
	<path class="st55" d="M317.3,262.1c0,0.5-0.4,0.9-0.9,0.9h-2.3c-0.5,0-0.9-0.4-0.9-0.9l0,0c0-0.5,0.4-0.9,0.9-0.9h2.3
		C316.9,261.2,317.3,261.6,317.3,262.1L317.3,262.1z"/>
	<path class="st56" d="M309.6,261.6c-0.2-0.2-0.4-0.3-0.7-0.3h-7.6c-0.3,0-0.5,0.1-0.7,0.3H309.6z"/>
	<path class="st12" d="M317.1,261.6c-0.2-0.2-0.4-0.3-0.7-0.3h-2.3c-0.3,0-0.5,0.1-0.7,0.3H317.1z"/>
	<path class="st52" d="M316.1,260.4c0-0.5-0.4-0.9-0.9-0.9h-15.1c-0.5,0-0.9,0.4-0.9,0.9l0,0c0,0.5,0.4,0.9,0.9,0.9h15.1
		C315.7,261.2,316.1,260.9,316.1,260.4z"/>
	<path class="st53" d="M308.6,260.4c0,0.5-0.4,0.9-0.9,0.9h-7.6c-0.5,0-0.9-0.4-0.9-0.9l0,0c0-0.5,0.4-0.9,0.9-0.9h7.6
		C308.2,259.5,308.6,259.9,308.6,260.4L308.6,260.4z"/>
	<path class="st54" d="M300.1,259.8h15.9c-0.2-0.2-0.4-0.3-0.7-0.3h-15.1c-0.3,0-0.7,0.2-0.8,0.5
		C299.6,259.9,299.8,259.8,300.1,259.8z"/>
	<path class="st55" d="M316.1,260.4c0,0.5-0.4,0.9-0.9,0.9h-2.3c-0.5,0-0.9-0.4-0.9-0.9l0,0c0-0.5,0.4-0.9,0.9-0.9h2.3
		C315.7,259.5,316.1,259.9,316.1,260.4z"/>
	<path class="st56" d="M308.4,259.8c-0.2-0.2-0.4-0.3-0.7-0.3h-7.6c-0.3,0-0.5,0.1-0.7,0.3H308.4z"/>
	<path class="st12" d="M315.9,259.8c-0.2-0.2-0.4-0.3-0.7-0.3h-2.3c-0.3,0-0.5,0.1-0.7,0.3H315.9z"/>
	<path class="st52" d="M318.4,258.7c0-0.5-0.4-0.9-0.9-0.9h-15.1c-0.5,0-0.9,0.4-0.9,0.9l0,0c0,0.5,0.4,0.9,0.9,0.9h15.1
		C318.1,259.5,318.4,259.1,318.4,258.7z"/>
	<path class="st53" d="M310.9,258.7c0,0.5-0.4,0.9-0.9,0.9h-7.6c-0.5,0-0.9-0.4-0.9-0.9l0,0c0-0.5,0.4-0.9,0.9-0.9h7.6
		C310.5,257.8,310.9,258.2,310.9,258.7L310.9,258.7z"/>
	<path class="st54" d="M302.4,258.1h15.9c-0.2-0.2-0.4-0.3-0.7-0.3h-15.1c-0.3,0-0.7,0.2-0.8,0.5
		C301.9,258.2,302.1,258.1,302.4,258.1z"/>
	<path class="st55" d="M318.4,258.7c0,0.5-0.4,0.9-0.9,0.9h-2.3c-0.5,0-0.9-0.4-0.9-0.9l0,0c0-0.5,0.4-0.9,0.9-0.9h2.3
		C318.1,257.8,318.4,258.2,318.4,258.7z"/>
	<path class="st56" d="M310.7,258.1c-0.2-0.2-0.4-0.3-0.7-0.3h-7.6c-0.3,0-0.5,0.1-0.7,0.3H310.7z"/>
	<path class="st12" d="M318.3,258.1c-0.2-0.2-0.4-0.3-0.7-0.3h-2.3c-0.3,0-0.5,0.1-0.7,0.3H318.3z"/>
	<path class="st52" d="M317.5,256.9c0-0.5-0.4-0.9-0.9-0.9h-15.1c-0.5,0-0.9,0.4-0.9,0.9l0,0c0,0.5,0.4,0.9,0.9,0.9h15.1
		C317.1,257.8,317.5,257.4,317.5,256.9L317.5,256.9z"/>
	<path class="st53" d="M310,256.9c0,0.5-0.4,0.9-0.9,0.9h-7.6c-0.5,0-0.9-0.4-0.9-0.9l0,0c0-0.5,0.4-0.9,0.9-0.9h7.6
		C309.6,256.1,310,256.5,310,256.9L310,256.9z"/>
	<path class="st54" d="M301.5,256.4h15.9c-0.2-0.2-0.4-0.3-0.7-0.3h-15.1c-0.3,0-0.7,0.2-0.8,0.5C301,256.5,301.2,256.4,301.5,256.4
		z"/>
	<path class="st55" d="M317.5,256.9c0,0.5-0.4,0.9-0.9,0.9h-2.3c-0.5,0-0.9-0.4-0.9-0.9l0,0c0-0.5,0.4-0.9,0.9-0.9h2.3
		C317.1,256.1,317.5,256.5,317.5,256.9z"/>
	<path class="st56" d="M309.8,256.4c-0.2-0.2-0.4-0.3-0.7-0.3h-7.6c-0.3,0-0.5,0.1-0.7,0.3H309.8z"/>
	<path class="st12" d="M317.3,256.4c-0.2-0.2-0.4-0.3-0.7-0.3h-2.3c-0.3,0-0.5,0.1-0.7,0.3H317.3z"/>
	
		<linearGradient id="SVGID_40_" gradientUnits="userSpaceOnUse" x1="312.3903" y1="134.1281" x2="327.5543" y2="134.1281" gradientTransform="matrix(1 0 0 -1 -2.382792e-02 399.994)">
		<stop  offset="0" style="stop-color:#808080"/>
		<stop  offset="1" style="stop-color:#696969"/>
	</linearGradient>
	<circle class="st57" cx="319.9" cy="265.9" r="7.6"/>
	
		<linearGradient id="SVGID_41_" gradientUnits="userSpaceOnUse" x1="319.9477" y1="140.8477" x2="319.9477" y2="127.4024" gradientTransform="matrix(1 0 0 -1 0 400)">
		<stop  offset="0" style="stop-color:#ADADAD"/>
		<stop  offset="1" style="stop-color:#7D7D7D"/>
	</linearGradient>
	<path class="st58" d="M315.4,270.9c-2.8-2.5-3-6.7-0.5-9.5c2.5-2.8,6.7-3,9.5-0.5c2.8,2.5,3,6.7,0.5,9.5
		C322.4,273.1,318.2,273.3,315.4,270.9z"/>
	<path class="st55" d="M318.8,261.9l1.3,1.2c0.4,0.3,0.6,0.7,0.6,1.1c0,0.3-0.1,0.7-0.3,0.9l0,0c-0.3,0.4-0.9,0.5-1.4,0.3l-0.2,1.6
		l-0.9-0.8l0.2-1.4l-0.3-0.3l-0.8,0.9l-0.8-0.7L318.8,261.9z M318.8,264.4c0.3,0.2,0.5,0.3,0.7,0l0,0c0.2-0.2,0.1-0.5-0.1-0.7
		l-0.5-0.5l-0.6,0.7L318.8,264.4z"/>
	<path class="st55" d="M321,265.1l0.8,0.7l-0.3,0.3c0.3-0.1,0.7,0,1,0.3c0.5,0.5,0.6,1.3-0.1,2l0,0c-0.6,0.7-1.5,0.7-2,0.3
		c-0.3-0.2-0.4-0.6-0.4-0.9l-0.8,0.9l-0.8-0.7L321,265.1z M321.7,267.7L321.7,267.7c0.2-0.2,0.2-0.6,0-0.9c-0.2-0.2-0.6-0.2-0.9,0
		l0,0c-0.2,0.2-0.3,0.6,0,0.9C321,268,321.4,268,321.7,267.7C321.7,267.8,321.7,267.7,321.7,267.7L321.7,267.7z"/>
	
		<linearGradient id="SVGID_42_" gradientUnits="userSpaceOnUse" x1="171.3811" y1="144.4576" x2="233.1306" y2="144.4576" gradientTransform="matrix(1 0 0 -1 0 400)">
		<stop  offset="0" style="stop-color:#1E8239"/>
		<stop  offset="1" style="stop-color:#2B9428"/>
	</linearGradient>
	<path class="st59" d="M174.2,242.2h56.2c1.5,0,2.8,1.3,2.8,2.8v21.1c0,1.5-1.3,2.8-2.8,2.8h-56.2c-1.5,0-2.8-1.3-2.8-2.8V245
		C171.4,243.5,172.6,242.2,174.2,242.2z"/>
	<path class="st60" d="M230.3,247.5c-1.5,0-2.7-1.2-2.7-2.6c0-0.2,0-0.3,0-0.5h-41c0.2,1.5-0.8,2.8-2.2,3.1c-0.3,0.1-0.7,0-1,0v16
		c1.5-0.2,2.8,0.7,3.1,2.2c0.1,0.3,0,0.7,0,1h41.2c-0.5-1.4,0.3-2.9,1.7-3.4c0.5-0.1,0.9-0.2,1.4-0.1v-15.7
		C230.7,247.5,230.5,247.5,230.3,247.5z M206.9,265.1c-5.2,0-7.4-4.2-7.4-9.3c0-5.2,2.2-9.3,7.4-9.3s7.4,4.2,7.4,9.3
		C214.3,260.9,212.1,265.1,206.9,265.1L206.9,265.1z"/>
	<path class="st60" d="M202.4,252.2h2.5c0.9,0,1.5,0.3,1.8,0.7c0.3,0.4,0.5,1,0.5,1.5v0c0.1,0.8-0.3,1.5-1,2l1.2,2.2h-2l-1-1.8h-0.4
		v1.8h-1.7L202.4,252.2z M204.8,255.3c0.3,0,0.6-0.2,0.7-0.5c0,0,0-0.1,0-0.1v0c0-0.3-0.2-0.6-0.5-0.6c0,0-0.1,0-0.1,0h-0.7v1.3
		L204.8,255.3z"/>
	<path class="st60" d="M207.6,253.6h1.7v0.6c0.2-0.4,0.7-0.7,1.2-0.7c1,0,1.7,1,1.7,2.6v0c0,1.6-0.8,2.6-1.7,2.6
		c-0.5,0-1-0.3-1.2-0.7v2h-1.7L207.6,253.6z M210.5,256.1L210.5,256.1c0-0.5-0.3-0.9-0.7-0.9c-0.4,0-0.7,0.4-0.7,0.9l0,0
		c0,0.5,0.3,0.9,0.7,0.9C210.3,257,210.5,256.6,210.5,256.1L210.5,256.1z"/>
	<path class="st61" d="M172.3,266.1V245c0-1.5,1.3-2.8,2.8-2.8h-0.9c-1.5,0-2.8,1.3-2.8,2.8v21.1c0,1.5,1.3,2.8,2.8,2.8h0.9
		C173.5,268.9,172.3,267.6,172.3,266.1C172.3,266.1,172.3,266.1,172.3,266.1z"/>
	<path class="st61" d="M173.7,266.1V245c0-1.5,1.3-2.8,2.8-2.8h-0.9c-1.5,0-2.8,1.3-2.8,2.8v21.1c0,1.5,1.3,2.8,2.8,2.8h0.9
		C175,268.9,173.7,267.6,173.7,266.1z"/>
	<path class="st61" d="M175.1,266.1V245c0-1.5,1.3-2.8,2.8-2.8H177c-1.5,0-2.8,1.3-2.8,2.8v21.1c0,1.5,1.3,2.8,2.8,2.8h0.9
		C176.4,268.9,175.1,267.6,175.1,266.1z"/>
	<path class="st61" d="M176.6,266.1V245c0-1.5,1.3-2.8,2.8-2.8h-0.9c-1.5,0-2.8,1.3-2.8,2.8v21.1c0,1.5,1.3,2.8,2.8,2.8h0.9
		C177.8,268.9,176.6,267.6,176.6,266.1z"/>
	<path class="st61" d="M178,266.1V245c0-1.5,1.3-2.8,2.8-2.8h-0.9c-1.5,0-2.8,1.3-2.8,2.8v21.1c0,1.5,1.3,2.8,2.8,2.8h0.9
		C179.3,268.9,178,267.6,178,266.1z"/>
	<path class="st61" d="M179.4,266.1V245c0-1.5,1.3-2.8,2.8-2.8h-0.9c-1.5,0-2.8,1.3-2.8,2.8v21.1c0,1.5,1.3,2.8,2.8,2.8h0.9
		C180.7,268.9,179.4,267.6,179.4,266.1z"/>
	<path class="st62" d="M219,266.1V245c0-1.5-1.3-2.8-2.8-2.8h8.2c1.5,0,2.8,1.3,2.8,2.8v21.1c0,1.5-1.3,2.8-2.8,2.8h-8.2
		C217.7,268.9,219,267.6,219,266.1z"/>
	<path class="st63" d="M219.7,267.8c0.2-0.5,0.4-1.1,0.4-1.7V245c0-0.6-0.1-1.2-0.4-1.7h4.7c0.9,0,1.7,0.8,1.7,1.7v21.1
		c0,0.9-0.8,1.7-1.7,1.7L219.7,267.8z"/>
	
		<linearGradient id="SVGID_43_" gradientUnits="userSpaceOnUse" x1="235.3573" y1="129.9449" x2="235.3573" y2="142.7366" gradientTransform="matrix(1 0 0 -1 0 400)">
		<stop  offset="0" style="stop-color:#1E8239"/>
		<stop  offset="1" style="stop-color:#2B9428"/>
	</linearGradient>
	<path class="st64" d="M274.7,267.4c0,1.6,0.4,2.6-1.6,2.6h-75.4c-2,0-1.8-0.7-1.8-2.3v-8.1c0-1.6-0.1-2.3,1.8-2.3h75.4
		c2,0,1.6,1,1.6,2.6L274.7,267.4z"/>
	<path class="st61" d="M274.7,267.7c0,1.6,0.4,2.3-1.6,2.3h-22c-2,0-1.6-0.7-1.6-2.3v-8.1c0-1.6-0.4-2.3,1.6-2.3h22
		c2,0,1.6,0.7,1.6,2.3V267.7z"/>
	<rect x="195.9" y="267.4" class="st65" width="78.8" height="0.8"/>
	<rect x="196" y="265.8" class="st65" width="78.8" height="0.8"/>
	<rect x="196" y="264.1" class="st65" width="78.8" height="0.8"/>
	<rect x="196" y="262.4" class="st65" width="78.8" height="0.8"/>
	<rect x="196.1" y="260.7" class="st65" width="78.8" height="0.8"/>
	<rect x="196.1" y="259.1" class="st65" width="78.8" height="0.8"/>
	<path class="st66" d="M196,269.1c0,0.2,0.1,0.4,0.3,0.5h78.3c0.1-0.1,0.2-0.3,0.2-0.5H196z"/>
	<path class="st66" d="M196,258.1c0-0.2,0.1-0.4,0.3-0.5h78.3c0.1,0.2,0.2,0.3,0.2,0.5H196z"/>
	<path class="st66" d="M227.8,267.7v-8.1c0-1.6-0.1-2.3,1.8-2.3h-3.4c-2,0-1.8,0.7-1.8,2.3v8.1c0,1.6-0.1,2.3,1.8,2.3h3.4
		C227.7,270.1,227.8,269.3,227.8,267.7z"/>
	<path class="st62" d="M226.6,267.7v-8.1c0-1.6-0.1-2.3,1.8-2.3h-12c-2,0-1.8,0.7-1.8,2.3v8.1c0,1.6-0.1,2.3,1.8,2.3h12
		C226.5,270.1,226.6,269.3,226.6,267.7z"/>
	<path class="st63" d="M216.4,269.2h-0.2c0-0.2,0-0.3,0-0.5v-10.2c0-0.1,0-0.3,0-0.5h8.8c0,0.2,0,0.3,0,0.5v10.2c0,0.2,0,0.3,0,0.5
		L216.4,269.2z"/>
	<path class="st67" d="M217.4,261.3h1.6c0.4,0,0.8,0.1,1.1,0.4c0.2,0.3,0.3,0.6,0.3,0.9l0,0c0,0.5-0.2,1-0.7,1.2l0.8,1.4h-1.1
		l-0.7-1.2h-0.4v1.2h-0.9L217.4,261.3z M219,263.2c0.2,0,0.5-0.2,0.5-0.4c0,0,0-0.1,0-0.1l0,0c0-0.2-0.2-0.5-0.4-0.5
		c0,0-0.1,0-0.1,0h-0.6v1L219,263.2z"/>
	<path class="st67" d="M220.8,262.2h0.9v0.4c0.2-0.3,0.5-0.5,0.8-0.5c0.6,0,1.1,0.6,1.2,1.6l0,0c0,1-0.5,1.6-1.1,1.6
		c-0.3,0-0.6-0.2-0.8-0.4v1.3h-0.9L220.8,262.2z M222.8,263.7L222.8,263.7c0-0.4-0.2-0.7-0.5-0.7s-0.5,0.3-0.5,0.7l0,0
		c0,0.4,0.2,0.7,0.5,0.7C222.6,264.4,222.8,264.1,222.8,263.7L222.8,263.7z"/>
	<path class="st66" d="M274.7,259.8v-0.2c0-1.6,0.4-2.3-1.6-2.3h-75.4c-2,0-1.8,0.7-1.8,2.3v0.2L274.7,259.8z"/>
	
		<linearGradient id="SVGID_44_" gradientUnits="userSpaceOnUse" x1="229.6214" y1="142.2365" x2="229.6214" y2="155.0212" gradientTransform="matrix(1 0 0 -1 0 400)">
		<stop  offset="0" style="stop-color:#1E8239"/>
		<stop  offset="1" style="stop-color:#2B9428"/>
	</linearGradient>
	<path class="st68" d="M269,255.1c0,1.6,0.4,2.6-1.6,2.6h-75.4c-2,0-1.8-0.7-1.8-2.3v-8.1c0-1.6-0.1-2.3,1.8-2.3h75.4
		c2,0,1.6,1,1.6,2.6V255.1z"/>
	<path class="st61" d="M269,255.4c0,1.6,0.4,2.3-1.6,2.3h-22c-2,0-1.6-0.7-1.6-2.3v-8.1c0-1.6-0.4-2.3,1.6-2.3h22
		c2,0,1.6,0.7,1.6,2.3L269,255.4z"/>
	<rect x="190.2" y="255.1" class="st65" width="78.8" height="0.8"/>
	<rect x="190.2" y="253.5" class="st65" width="78.8" height="0.8"/>
	<rect x="190.3" y="251.8" class="st65" width="78.8" height="0.8"/>
	<rect x="190.3" y="250.1" class="st65" width="78.8" height="0.8"/>
	<rect x="190.3" y="248.4" class="st65" width="78.8" height="0.8"/>
	<rect x="190.3" y="246.8" class="st65" width="78.8" height="0.8"/>
	<path class="st66" d="M190.3,256.8c0,0.2,0.1,0.4,0.3,0.5h78.3c0.1-0.2,0.2-0.3,0.2-0.5H190.3z"/>
	<path class="st66" d="M190.3,245.9c0-0.2,0.1-0.4,0.3-0.5h78.3c0.1,0.1,0.2,0.3,0.2,0.5H190.3z"/>
	<path class="st66" d="M222.1,255.4v-8.1c0-1.6-0.1-2.3,1.8-2.3h-3.4c-2,0-1.8,0.7-1.8,2.3v8.1c0,1.6-0.1,2.3,1.8,2.3h3.4
		C222,257.8,222.1,257,222.1,255.4z"/>
	<path class="st62" d="M220.9,255.4v-8.1c0-1.6-0.1-2.3,1.8-2.3h-12.1c-2,0-1.8,0.7-1.8,2.3v8.1c0,1.6-0.1,2.3,1.8,2.3h12
		C220.7,257.8,220.9,257,220.9,255.4z"/>
	<path class="st63" d="M210.6,256.9h-0.2c0-0.2,0-0.3,0-0.5v-10.2c0-0.1,0-0.3,0-0.5h8.8c0,0.2,0,0.3,0,0.5v10.2c0,0.2,0,0.3,0,0.5
		L210.6,256.9z"/>
	<path class="st67" d="M211.7,249h1.6c0.4,0,0.8,0.1,1.1,0.4c0.2,0.3,0.3,0.6,0.3,0.9l0,0c0,0.5-0.2,1-0.7,1.2l0.8,1.4h-1.1
		l-0.7-1.2h-0.4v1.2h-0.9L211.7,249z M213.3,250.9c0.2,0,0.5-0.2,0.5-0.4c0,0,0-0.1,0-0.1l0,0c0-0.2-0.2-0.5-0.4-0.5
		c0,0-0.1,0-0.1,0h-0.6v1L213.3,250.9z"/>
	<path class="st67" d="M215.1,249.9h0.9v0.4c0.2-0.3,0.5-0.5,0.8-0.5c0.6,0,1.1,0.6,1.2,1.6l0,0c0,1-0.5,1.6-1.1,1.6
		c-0.3,0-0.6-0.2-0.8-0.4v1.3h-0.9L215.1,249.9z M217,251.4L217,251.4c0-0.4-0.2-0.7-0.5-0.7s-0.5,0.3-0.5,0.7l0,0
		c0,0.4,0.2,0.7,0.5,0.7S217,251.8,217,251.4L217,251.4z"/>
	<path class="st66" d="M269,247.5v-0.2c0-1.6,0.4-2.3-1.6-2.3h-75.4c-2,0-1.8,0.7-1.8,2.3v0.2H269z"/>
	
		<linearGradient id="SVGID_45_" gradientUnits="userSpaceOnUse" x1="192.8001" y1="168.0091" x2="254.5496" y2="168.0091" gradientTransform="matrix(1 0 0 -1 0 400)">
		<stop  offset="0" style="stop-color:#1E8239"/>
		<stop  offset="1" style="stop-color:#2B9428"/>
	</linearGradient>
	<path class="st69" d="M195.6,218.6h56.2c1.5,0,2.8,1.3,2.8,2.8v21.1c0,1.5-1.3,2.8-2.8,2.8h-56.2c-1.5,0-2.8-1.3-2.8-2.8v-21.1
		C192.8,219.9,194.1,218.6,195.6,218.6z"/>
	<path class="st60" d="M251.8,224c-1.5,0-2.7-1.2-2.7-2.6c0-0.2,0-0.3,0-0.5h-41c0.2,1.5-0.8,2.8-2.2,3.1c-0.3,0.1-0.7,0-1,0v16
		c1.5-0.2,2.8,0.7,3.1,2.2c0.1,0.3,0,0.7,0,1h41.2c-0.5-1.4,0.3-2.9,1.7-3.4c0.5-0.1,0.9-0.2,1.4-0.1v-15.7
		C252.1,224,251.9,224,251.8,224z M228.4,241.5c-5.2,0-7.4-4.2-7.4-9.3s2.2-9.3,7.4-9.3c5.2,0,7.4,4.2,7.4,9.3
		C235.7,237.3,233.5,241.5,228.4,241.5z"/>
	<path class="st60" d="M223.8,228.7h2.5c0.9,0,1.5,0.3,1.8,0.7c0.3,0.4,0.5,1,0.5,1.5v0c0.1,0.8-0.3,1.5-1,2l1.2,2.2h-2l-1-1.8h-0.4
		v1.8h-1.7V228.7z M226.3,231.7c0.3,0,0.6-0.2,0.7-0.5c0,0,0-0.1,0-0.1v0c0-0.3-0.2-0.6-0.5-0.6c0,0-0.1,0-0.1,0h-0.7v1.3
		L226.3,231.7z"/>
	<path class="st60" d="M229,230.1h1.7v0.6c0.2-0.4,0.7-0.7,1.2-0.7c1,0,1.7,1,1.7,2.6v0c0,1.6-0.8,2.6-1.7,2.6c-0.5,0-1-0.3-1.2-0.7
		v2H229L229,230.1z M232,232.6L232,232.6c0-0.5-0.3-0.9-0.7-0.9c-0.4,0-0.7,0.4-0.7,0.9v0c0,0.5,0.3,0.9,0.7,0.9
		C231.7,233.5,232,233.1,232,232.6L232,232.6z"/>
	<path class="st61" d="M193.7,242.5v-21.1c0-1.5,1.3-2.8,2.8-2.8h-0.9c-1.5,0-2.8,1.3-2.8,2.8v21.1c0,1.5,1.2,2.8,2.8,2.8
		c0,0,0,0,0,0h0.9C195,245.4,193.7,244.1,193.7,242.5C193.7,242.6,193.7,242.5,193.7,242.5z"/>
	<path class="st61" d="M195.1,242.5v-21.1c0-1.5,1.3-2.8,2.8-2.8H197c-1.5,0-2.8,1.3-2.8,2.8v21.1c0,1.5,1.3,2.8,2.8,2.8h0.9
		C196.4,245.3,195.1,244.1,195.1,242.5z"/>
	<path class="st61" d="M196.6,242.5v-21.1c0-1.5,1.3-2.8,2.8-2.8h-0.9c-1.5,0-2.8,1.3-2.8,2.8v21.1c0,1.5,1.3,2.8,2.8,2.8h0.9
		C197.8,245.3,196.6,244.1,196.6,242.5z"/>
	<path class="st61" d="M198,242.5v-21.1c0-1.5,1.3-2.8,2.8-2.8h-0.9c-1.5,0-2.8,1.3-2.8,2.8v21.1c0,1.5,1.3,2.8,2.8,2.8h0.9
		C199.2,245.3,198,244.1,198,242.5z"/>
	<path class="st61" d="M199.4,242.5v-21.1c0-1.5,1.3-2.8,2.8-2.8h-0.9c-1.5,0-2.8,1.3-2.8,2.8v21.1c0,1.5,1.3,2.8,2.8,2.8h0.9
		C200.7,245.3,199.4,244.1,199.4,242.5z"/>
	<path class="st61" d="M200.9,242.5v-21.1c0-1.5,1.3-2.8,2.8-2.8h-0.9c-1.5,0-2.8,1.3-2.8,2.8v21.1c0,1.5,1.3,2.8,2.8,2.8h0.9
		C202.1,245.3,200.9,244.1,200.9,242.5z"/>
	<path class="st62" d="M240.4,242.5v-21.1c0-1.5-1.3-2.8-2.8-2.8h8.2c1.5,0,2.8,1.3,2.8,2.8v21.1c0,1.5-1.3,2.8-2.8,2.8h-8.2
		C239.1,245.3,240.4,244.1,240.4,242.5z"/>
	<path class="st63" d="M241.1,244.2c0.2-0.5,0.4-1.1,0.4-1.7v-21.1c0-0.6-0.1-1.2-0.4-1.7h4.7c0.9,0,1.7,0.8,1.7,1.7v21.1
		c0,0.9-0.8,1.7-1.7,1.7L241.1,244.2z"/>
	<path class="st52" d="M232.3,274.1c0,0.6-0.5,1.1-1,1.1c0,0,0,0,0,0h-18.2c-0.6,0-1.1-0.5-1-1.1c0,0,0,0,0,0c0-0.1,0-0.3,0.1-0.4
		c0,0,0-0.1,0.1-0.1c0,0,0,0,0,0c0,0,0-0.1,0.1-0.1l0,0l0.1-0.1l0,0c0,0,0.1-0.1,0.1-0.1c0.1-0.1,0.2-0.1,0.3-0.2l0.1,0l0.1,0
		c0,0,0.1,0,0.1,0h0.1h0.1h18.2h0.1h0.1h0.1l0.1,0c0.1,0,0.2,0.1,0.3,0.2C232.1,273.4,232.3,273.7,232.3,274.1z"/>
	<path class="st53" d="M223.2,274.1c0,0.6-0.5,1.1-1,1.1c0,0,0,0,0,0h-9.1c-0.6,0-1.1-0.5-1-1.1c0,0,0,0,0,0c0-0.1,0-0.3,0.1-0.4
		c0,0,0-0.1,0.1-0.1c0,0,0,0,0,0c0,0,0-0.1,0.1-0.1l0,0l0.1-0.1l0,0c0,0,0.1-0.1,0.1-0.1c0.1-0.1,0.2-0.1,0.3-0.2l0.1,0l0.1,0
		c0,0,0.1,0,0.1,0h0.1h0.1h9.1h0.1h0.1h0.1l0.1,0c0.2,0.1,0.3,0.2,0.5,0.3C223.1,273.6,223.2,273.8,223.2,274.1z"/>
	<path class="st54" d="M232.1,273.4H213c-0.3,0-0.6,0.1-0.9,0.3c0,0,0-0.1,0.1-0.1c0,0,0,0,0,0c0,0,0-0.1,0.1-0.1l0,0
		c0,0,0-0.1,0.1-0.1c0,0,0.1-0.1,0.1-0.1c0.1-0.1,0.2-0.1,0.3-0.2l0.1,0l0.1,0c0,0,0.1,0,0.1,0h0.1h0.1h18.2h0.1h0.1h0.1l0.1,0
		c0.1,0,0.2,0.1,0.3,0.2C231.9,273.2,232,273.3,232.1,273.4z"/>
	<path class="st55" d="M232.3,274.1c0,0.6-0.4,1.1-1,1.1c0,0,0,0,0,0h-2.8c-0.6,0-1.1-0.5-1-1.1c0,0,0,0,0,0l0,0
		c0-0.6,0.4-1.1,1-1.1c0,0,0,0,0,0h2.8C231.8,273,232.3,273.5,232.3,274.1C232.3,274.1,232.3,274.1,232.3,274.1z"/>
	<path class="st56" d="M223,273.4h-10.7c0-0.1,0.1-0.1,0.2-0.2c0.1-0.1,0.2-0.1,0.3-0.2l0.1,0l0.1,0c0,0,0.1,0,0.1,0h0.1h0.1h9.1
		h0.1h0.1h0.1l0.1,0c0.1,0,0.2,0.1,0.3,0.2C222.9,273.2,222.9,273.3,223,273.4z"/>
	<path class="st12" d="M232.1,273.4c-0.2-0.3-0.5-0.4-0.8-0.4h-2.8c-0.3,0-0.6,0.2-0.8,0.4H232.1z"/>
	<path class="st52" d="M232.3,271.9c0,0.6-0.5,1.1-1,1.1c0,0,0,0,0,0h-18.2c-0.6,0-1.1-0.5-1-1.1c0,0,0,0,0,0c0-0.2,0-0.4,0.1-0.6
		c0,0,0.1-0.1,0.1-0.1l0,0l0.1-0.1l0,0c0,0,0.1-0.1,0.1-0.1c0.1-0.1,0.1-0.1,0.2-0.1h0h0h0l0.1,0l0.1,0c0,0,0.1,0,0.1,0h0.1h0.1
		h18.2h0.1h0.1h0.1l0.1,0l0.1,0c0.1,0,0.1,0.1,0.2,0.1C232.1,271.2,232.3,271.5,232.3,271.9z"/>
	<path class="st53" d="M223.2,271.9c0,0.6-0.5,1.1-1,1.1c0,0,0,0,0,0h-9.1c-0.6,0-1.1-0.5-1-1.1c0,0,0,0,0,0c0-0.2,0-0.4,0.1-0.6
		c0,0,0.1-0.1,0.1-0.1l0,0l0.1-0.1l0,0c0,0,0.1-0.1,0.1-0.1c0.1-0.1,0.1-0.1,0.2-0.1h0h0h0l0.1,0l0.1,0c0,0,0.1,0,0.1,0h0.1h0.1h9.1
		h0.1h0.1h0.1l0.1,0l0.1,0c0.1,0,0.1,0.1,0.2,0.1c0.1,0,0.1,0.1,0.2,0.2C223.1,271.4,223.2,271.6,223.2,271.9z"/>
	<path class="st54" d="M232.1,271.2H213c-0.3,0-0.6,0.1-0.9,0.3c0,0,0-0.1,0.1-0.1c0,0,0.1-0.1,0.1-0.1l0,0c0,0,0-0.1,0.1-0.1
		c0,0,0.1-0.1,0.1-0.1c0.1-0.1,0.1-0.1,0.2-0.1h0h0h0l0.1,0l0.1,0c0,0,0.1,0,0.1,0h0.1h0.1h18.2h0.1h0.1h0.1l0.1,0l0.1,0
		C231.8,271,232,271.1,232.1,271.2L232.1,271.2z"/>
	<path class="st55" d="M232.3,271.9c0,0.6-0.4,1.1-1,1.1c0,0,0,0,0,0h-2.8c-0.6,0-1.1-0.5-1-1.1c0,0,0,0,0,0l0,0
		c0-0.6,0.4-1.1,1-1.1c0,0,0,0,0,0h2.8C231.8,270.8,232.3,271.3,232.3,271.9C232.3,271.9,232.3,271.9,232.3,271.9z"/>
	<path class="st56" d="M223,271.2h-10.7c0,0,0-0.1,0.1-0.1c0,0,0.1-0.1,0.1-0.1c0.1,0,0.1-0.1,0.2-0.1h0h0h0l0.1,0l0.1,0
		c0,0,0.1,0,0.1,0h0.1h0.1h9.1h0.1h0.1h0.1l0.1,0l0.1,0c0.1,0,0.1,0.1,0.2,0.1C222.9,271.1,222.9,271.1,223,271.2z"/>
	<path class="st12" d="M232.1,271.2c-0.2-0.3-0.5-0.4-0.8-0.4h-2.8c-0.3,0-0.6,0.2-0.8,0.4H232.1z"/>
	<path class="st52" d="M230.9,269.7c0,0.6-0.4,1.1-1,1.1c0,0,0,0,0,0h-18.1c-0.6,0-1.1-0.5-1-1.1c0,0,0,0,0,0c0-0.1,0-0.3,0.1-0.4
		l0,0c0,0,0-0.1,0.1-0.1c0,0,0.1-0.1,0.1-0.1l0,0v0c0,0,0,0,0-0.1c0,0,0,0,0,0c0.1-0.1,0.2-0.1,0.3-0.2l0,0h0l0.1,0h0.1
		c0,0,0.1,0,0.1,0h0h0h0.1h18.2h0.1h0.1h0.1l0.1,0c0,0,0.1,0,0.1,0.1C230.6,268.9,230.8,269.3,230.9,269.7z"/>
	<path class="st53" d="M221.8,269.7c0,0.6-0.4,1.1-1,1.1c0,0,0,0,0,0h-9.1c-0.6,0-1.1-0.5-1-1.1c0,0,0,0,0,0c0-0.1,0-0.3,0.1-0.4
		l0,0c0,0,0-0.1,0.1-0.1c0,0,0.1-0.1,0.1-0.1l0,0v0c0,0,0,0,0-0.1c0,0,0,0,0,0c0.1-0.1,0.2-0.1,0.3-0.2l0,0h0l0.1,0h0.1
		c0,0,0.1,0,0.1,0h0h0h0.1h9.1h0.1h0.1h0.1l0.1,0c0.2,0.1,0.3,0.2,0.5,0.3C221.7,269.2,221.8,269.4,221.8,269.7z"/>
	<path class="st54" d="M230.6,269h-19.1c-0.3,0-0.6,0.1-0.9,0.3l0,0c0,0,0-0.1,0.1-0.1c0,0,0.1-0.1,0.1-0.1l0,0c0,0,0-0.1,0.1-0.1
		c0,0,0,0,0,0c0,0,0,0,0.1-0.1l0.1-0.1l0.1-0.1l0,0l0,0h0l0.1,0h0.1c0,0,0.1,0,0.1,0h0h0h0.1h18.2h0.1h0.1h0.1l0.1,0
		C230.3,268.7,230.5,268.8,230.6,269z"/>
	<path class="st55" d="M230.9,269.7c0,0.6-0.4,1.1-1,1.1c0,0,0,0,0,0H227c-0.6,0-1.1-0.5-1-1.1c0,0,0,0,0,0l0,0c0-0.6,0.4-1.1,1-1.1
		c0,0,0,0,0,0h2.8C230.4,268.6,230.9,269.1,230.9,269.7C230.9,269.7,230.9,269.7,230.9,269.7z"/>
	<path class="st56" d="M221.5,269h-10.7c0,0,0-0.1,0.1-0.1c0,0,0.1-0.1,0.1-0.1l0.1-0.1l0.1-0.1l0,0l0.1,0l0.1,0h0.1
		c0,0,0.1,0,0.1,0h0h0h0.1h9.1h0.1h0.1h0.1l0.1,0C221.3,268.7,221.4,268.8,221.5,269z"/>
	<path class="st12" d="M230.6,269c-0.2-0.3-0.5-0.4-0.8-0.4H227c-0.3,0-0.6,0.2-0.8,0.4H230.6z"/>
	<path class="st52" d="M233.7,267.5c0,0.6-0.4,1.1-1,1.1c0,0,0,0,0,0h-18.2c-0.6,0-1.1-0.5-1-1.1c0,0,0,0,0,0c0-0.1,0-0.3,0.1-0.4
		l0,0c0,0,0-0.1,0.1-0.1c0,0,0.1-0.1,0.1-0.1l0,0v0c0,0,0,0,0-0.1l0,0l0,0c0,0,0.1-0.1,0.1-0.1c0.1,0,0.1-0.1,0.2-0.1l0.1,0h0.1
		c0,0,0.1,0,0.1,0h0h0h0.1h18.2h0.1h0.1h0.1l0.1,0c0,0,0.1,0,0.1,0.1C233.4,266.7,233.7,267.1,233.7,267.5z"/>
	<path class="st53" d="M224.6,267.5c0,0.6-0.4,1.1-1,1.1c0,0,0,0,0,0h-9.1c-0.6,0-1.1-0.5-1-1.1c0,0,0,0,0,0c0-0.1,0-0.3,0.1-0.4
		l0,0c0,0,0-0.1,0.1-0.1c0,0,0.1-0.1,0.1-0.1l0,0v0c0,0,0,0,0-0.1l0,0l0,0c0,0,0.1-0.1,0.1-0.1c0.1,0,0.1-0.1,0.2-0.1l0.1,0h0.1
		c0,0,0.1,0,0.1,0h0h0h0.1h9.1h0.1h0.1h0.1l0.1,0c0.2,0.1,0.3,0.2,0.5,0.3C224.5,267,224.6,267.2,224.6,267.5z"/>
	<path class="st54" d="M233.4,266.8h-19.1c-0.3,0-0.6,0.1-0.9,0.3l0,0c0,0,0-0.1,0.1-0.1c0,0,0.1-0.1,0.1-0.1l0,0c0,0,0-0.1,0.1-0.1
		v0l0,0c0,0,0.1-0.1,0.1-0.1c0.1,0,0.1-0.1,0.2-0.1l0.1,0h0.1c0,0,0.1,0,0.1,0h0h0h0.1h18.2h0.1h0.1h0.1l0.1,0
		C233.1,266.5,233.3,266.6,233.4,266.8z"/>
	<path class="st55" d="M233.7,267.5c0,0.6-0.4,1.1-1,1.1c0,0,0,0,0,0h-2.8c-0.6,0-1.1-0.5-1-1.1c0,0,0,0,0,0l0,0
		c0-0.6,0.5-1.1,1-1.1c0,0,0,0,0,0h2.8C233.2,266.4,233.7,266.9,233.7,267.5C233.7,267.5,233.7,267.5,233.7,267.5z"/>
	<path class="st56" d="M224.4,266.8h-10.7c0,0,0-0.1,0.1-0.1c0.1-0.1,0.2-0.2,0.3-0.2l0.1,0h0.1c0,0,0.1,0,0.1,0h0h0h0.1h9.1h0.1
		h0.1h0.1l0.1,0C224.1,266.5,224.2,266.6,224.4,266.8z"/>
	<path class="st12" d="M233.4,266.8c-0.2-0.3-0.5-0.4-0.8-0.4h-2.8c-0.3,0-0.6,0.2-0.8,0.4H233.4z"/>
	<path class="st52" d="M232.5,265.3c0,0.6-0.4,1.1-1,1.1c0,0,0,0,0,0h-18.1c-0.6,0-1.1-0.5-1-1.1c0-0.1,0-0.3,0.1-0.4
		c0,0,0-0.1,0.1-0.1c0,0,0,0,0,0c0,0,0-0.1,0.1-0.1l0,0l0.1-0.1l0,0c0.1-0.1,0.2-0.2,0.3-0.2l0.1,0c0,0,0,0,0.1,0c0,0,0.1,0,0.1,0
		h0.1h0.1h18.2h0.1h0.1h0.1l0.1,0c0,0,0.1,0,0.1,0.1C232.3,264.5,232.5,264.9,232.5,265.3z"/>
	<path class="st53" d="M223.5,265.3c0,0.6-0.5,1.1-1,1.1h-9.1c-0.6,0-1.1-0.5-1-1.1c0-0.1,0-0.3,0.1-0.4c0,0,0-0.1,0.1-0.1
		c0,0,0,0,0,0c0,0,0-0.1,0.1-0.1l0,0l0.1-0.1l0,0c0.1-0.1,0.2-0.2,0.3-0.2l0.1,0c0,0,0,0,0.1,0c0,0,0.1,0,0.1,0h0.1h0.1h9.1h0.1
		c0,0,0,0,0.1,0h0.1l0.1,0c0.2,0.1,0.3,0.2,0.5,0.3C223.3,264.8,223.4,265,223.5,265.3z"/>
	<path class="st54" d="M232.3,264.6h-19.1c-0.3,0-0.6,0.1-0.9,0.3c0,0,0-0.1,0.1-0.1c0,0,0,0,0,0c0,0,0-0.1,0.1-0.1l0,0
		c0,0,0-0.1,0.1-0.1c0.1-0.1,0.2-0.2,0.3-0.2l0.1,0c0,0,0,0,0.1,0c0,0,0.1,0,0.1,0h0.1h0.1h18.2h0.1h0.1h0.1l0.1,0
		C232,264.3,232.2,264.4,232.3,264.6z"/>
	<path class="st55" d="M232.5,265.3c0,0.6-0.4,1.1-1,1.1c0,0,0,0,0,0h-2.8c-0.6,0-1.1-0.5-1-1.1c0,0,0,0,0,0l0,0
		c0-0.6,0.4-1.1,1-1.1c0,0,0,0,0,0h2.8C232.1,264.2,232.6,264.7,232.5,265.3C232.5,265.3,232.5,265.3,232.5,265.3z"/>
	<path class="st56" d="M223.2,264.6h-10.7c0,0,0-0.1,0.1-0.1c0.1-0.1,0.2-0.2,0.3-0.2l0.1,0c0,0,0,0,0.1,0c0,0,0.1,0,0.1,0h0.1h0.1
		h9.1h0.1c0,0,0,0,0.1,0h0.1l0.1,0C222.9,264.3,223.1,264.4,223.2,264.6z"/>
	<path class="st12" d="M232.3,264.6c-0.2-0.3-0.5-0.4-0.8-0.4h-2.8c-0.3,0-0.6,0.2-0.8,0.4H232.3z"/>
	<path class="st70" d="M219,268.6L219,268.6c0,0.1,0,0.3,0,0.4c0,0.6-0.1,1.2-0.3,1.8c0,0.1-0.1,0.3-0.1,0.4c-0.2,0.6-0.6,1.2-1,1.8
		c-0.1,0.1-0.2,0.3-0.3,0.4c-0.7,0.8-1.5,1.4-2.4,1.8h-1.7c-0.6,0-1.1-0.5-1-1.1c0,0,0,0,0,0c0-0.1,0-0.3,0.1-0.4c0,0,0-0.1,0.1-0.1
		c0,0,0,0,0,0c0,0,0-0.1,0.1-0.1l0,0l0.1-0.1l0,0c0,0,0.1-0.1,0.1-0.1c0.1-0.1,0.2-0.1,0.3-0.2l0.1,0l0.1,0c0,0,0.1,0,0.1,0h0.1h0.1
		c-0.6,0-1.1-0.5-1-1.1c0,0,0,0,0,0c0-0.2,0-0.4,0.1-0.6c0,0,0.1-0.1,0.1-0.1l0,0l0.1-0.1l0,0c0,0,0.1-0.1,0.1-0.1
		c0.1-0.1,0.1-0.1,0.2-0.1h0h0h0l0.1,0l0.1,0c0,0,0.1,0,0.1,0h0.1h0.1h-1.4c-0.6,0-1.1-0.5-1-1.1c0,0,0,0,0,0c0-0.1,0-0.3,0.1-0.4
		l0,0c0,0,0-0.1,0.1-0.1c0,0,0.1-0.1,0.1-0.1l0,0v0c0,0,0,0,0-0.1c0,0,0,0,0,0c0.1-0.1,0.2-0.1,0.3-0.2l0,0h0l0.1,0h0.1
		c0,0,0.1,0,0.1,0h0h0h0.1h2.8c-0.6,0-1.1-0.5-1-1.1c0,0,0,0,0,0c0-0.1,0-0.3,0.1-0.4l0,0c0,0,0-0.1,0.1-0.1c0,0,0.1-0.1,0.1-0.1
		l0,0v0c0,0,0,0,0-0.1l0,0l0,0c0,0,0.1-0.1,0.1-0.1c0.1,0,0.1-0.1,0.2-0.1l0.1,0h0.1c0,0,0.1,0,0.1,0h0h0h0.1h-1.1
		c-0.6,0-1.1-0.5-1-1.1c0-0.1,0-0.3,0.1-0.4c0,0,0-0.1,0.1-0.1c0,0,0,0,0,0c0,0,0-0.1,0.1-0.1l0,0l0.1-0.1l0,0
		c0.1-0.1,0.2-0.2,0.3-0.2l0.1,0c0,0,0,0,0.1,0c0,0,0.1,0,0.1,0h0.1h0.1h4.2c0.1,0.1,0.2,0.3,0.3,0.4c0.4,0.6,0.6,1.2,0.8,1.8
		c0,0.1,0.1,0.3,0.1,0.4C218.8,267.5,218.9,268,219,268.6z"/>
	
		<linearGradient id="SVGID_46_" gradientUnits="userSpaceOnUse" x1="203.0438" y1="132.5279" x2="219.0969" y2="132.5279" gradientTransform="matrix(0.9982 -7.341653e-04 -7.341653e-04 -0.9982 -1.8313 399.536)">
		<stop  offset="0" style="stop-color:#808080"/>
		<stop  offset="1" style="stop-color:#696969"/>
	</linearGradient>
	<circle class="st71" cx="208.8" cy="267.1" r="8"/>
	
		<linearGradient id="SVGID_47_" gradientUnits="userSpaceOnUse" x1="209.3837" y1="139.6205" x2="209.3837" y2="125.3917" gradientTransform="matrix(1 0 0 -1 0 400)">
		<stop  offset="0" style="stop-color:#ADADAD"/>
		<stop  offset="1" style="stop-color:#7D7D7D"/>
	</linearGradient>
	<path class="st72" d="M204.6,272.8c-2.9-2.6-3.1-7.1-0.5-10.1c2.6-2.9,7.1-3.1,10.1-0.5c2.9,2.6,3.1,7.1,0.5,10
		C212,275.2,207.5,275.4,204.6,272.8C204.6,272.8,204.6,272.8,204.6,272.8z"/>
	<path class="st55" d="M208.1,263.3l1.4,1.3c0.4,0.3,0.6,0.7,0.7,1.2c0,0.4-0.1,0.7-0.4,0.9l0,0c-0.4,0.4-0.9,0.6-1.5,0.4l-0.2,1.7
		l-1-0.9l0.2-1.5l-0.4-0.3l-0.8,0.9l-0.8-0.8L208.1,263.3z M208.2,266c0.3,0.3,0.6,0.3,0.8,0l0,0c0.2-0.2,0.1-0.5-0.1-0.8l-0.5-0.5
		l-0.7,0.7L208.2,266z"/>
	<path class="st55" d="M210.5,266.7l0.8,0.7l-0.3,0.3c0.4-0.1,0.8,0,1,0.3c0.6,0.5,0.6,1.4-0.1,2.1l0,0c-0.7,0.8-1.6,0.8-2.1,0.3
		c-0.3-0.2-0.4-0.6-0.4-1l-0.9,1l-0.8-0.7L210.5,266.7z M211.2,269.4L211.2,269.4c0.3-0.2,0.3-0.6,0.1-0.9c-0.2-0.3-0.6-0.3-0.9-0.1
		c0,0-0.1,0.1-0.1,0.1l0,0c-0.3,0.2-0.3,0.6-0.1,0.9c0.2,0.3,0.6,0.3,0.9,0.1C211.2,269.5,211.2,269.5,211.2,269.4z"/>
	
		<linearGradient id="SVGID_48_" gradientUnits="userSpaceOnUse" x1="250.4572" y1="201.4876" x2="265.7809" y2="201.4876" gradientTransform="matrix(1 0 0 -1 -2.135838e-02 399.9945)">
		<stop  offset="0" style="stop-color:#808080"/>
		<stop  offset="1" style="stop-color:#696969"/>
	</linearGradient>
	<circle class="st73" cx="258.1" cy="198.5" r="7.7"/>
	
		<linearGradient id="SVGID_49_" gradientUnits="userSpaceOnUse" x1="258.0992" y1="208.275" x2="258.0992" y2="194.6907" gradientTransform="matrix(1 0 0 -1 0 400)">
		<stop  offset="0" style="stop-color:#ADADAD"/>
		<stop  offset="1" style="stop-color:#7D7D7D"/>
	</linearGradient>
	<path class="st74" d="M253.5,203.6c-2.8-2.5-3-6.8-0.5-9.6c2.5-2.8,6.8-3,9.6-0.5c2.8,2.5,3,6.8,0.5,9.6
		C260.6,205.9,256.3,206.1,253.5,203.6z"/>
	<path class="st55" d="M256.9,194.5l1.4,1.2c0.4,0.3,0.6,0.7,0.7,1.1c0,0.3-0.1,0.7-0.3,0.9l0,0c-0.3,0.4-0.9,0.5-1.4,0.3l-0.2,1.6
		l-0.9-0.8l0.2-1.4l-0.3-0.3l-0.8,0.9l-0.8-0.7L256.9,194.5z M257,197.1c0.3,0.2,0.5,0.3,0.7,0l0,0c0.2-0.2,0.1-0.5-0.1-0.7
		l-0.5-0.5l-0.6,0.7L257,197.1z"/>
	<path class="st55" d="M259.2,197.8l0.8,0.7l-0.3,0.3c0.3-0.1,0.7,0,1,0.3c0.5,0.5,0.6,1.3-0.1,2l0,0c-0.7,0.7-1.5,0.7-2,0.3
		c-0.3-0.2-0.4-0.6-0.4-0.9l-0.8,0.9l-0.8-0.7L259.2,197.8z M259.9,200.4L259.9,200.4c0.3-0.2,0.3-0.6,0-0.9c-0.2-0.3-0.6-0.3-0.9,0
		c0,0-0.1,0.1-0.1,0.1l0,0c-0.3,0.2-0.3,0.6,0,0.9C259.2,200.7,259.5,200.7,259.9,200.4C259.8,200.4,259.8,200.4,259.9,200.4z"/>
	
		<linearGradient id="SVGID_50_" gradientUnits="userSpaceOnUse" x1="258.7397" y1="199.3363" x2="274.0634" y2="199.3363" gradientTransform="matrix(1 0 0 -1 -2.408244e-02 399.9921)">
		<stop  offset="0" style="stop-color:#808080"/>
		<stop  offset="1" style="stop-color:#696969"/>
	</linearGradient>
	<circle class="st75" cx="266.4" cy="200.7" r="7.7"/>
	
		<linearGradient id="SVGID_51_" gradientUnits="userSpaceOnUse" x1="266.383" y1="206.1217" x2="266.383" y2="192.5374" gradientTransform="matrix(1 0 0 -1 0 400)">
		<stop  offset="0" style="stop-color:#ADADAD"/>
		<stop  offset="1" style="stop-color:#7D7D7D"/>
	</linearGradient>
	<path class="st76" d="M261.8,205.7c-2.8-2.5-3-6.8-0.5-9.6s6.8-3,9.6-0.5c2.8,2.5,3,6.8,0.5,9.6C268.9,208,264.6,208.2,261.8,205.7
		z"/>
	<path class="st55" d="M265.2,196.6l1.4,1.2c0.4,0.3,0.6,0.7,0.7,1.1c0,0.3-0.1,0.7-0.3,0.9l0,0c-0.3,0.4-0.9,0.5-1.4,0.3l-0.2,1.6
		l-0.9-0.8l0.2-1.4l-0.3-0.3l-0.8,0.9l-0.8-0.7L265.2,196.6z M265.2,199.2c0.3,0.2,0.5,0.3,0.7,0l0,0c0.2-0.2,0.1-0.5-0.1-0.7
		l-0.5-0.5l-0.6,0.7L265.2,199.2z"/>
	<path class="st55" d="M267.5,199.9l0.8,0.7l-0.3,0.3c0.4-0.1,0.7,0,1,0.3c0.5,0.5,0.6,1.3-0.1,2l0,0c-0.7,0.7-1.5,0.7-2,0.3
		c-0.3-0.2-0.4-0.6-0.4-0.9l-0.8,0.9l-0.8-0.7L267.5,199.9z M268.1,202.5L268.1,202.5c0.3-0.2,0.3-0.6,0-0.9c-0.2-0.3-0.6-0.3-0.9,0
		c0,0-0.1,0.1-0.1,0.1l0,0c-0.3,0.2-0.3,0.6,0,0.9C267.4,202.8,267.8,202.8,268.1,202.5C268.1,202.6,268.1,202.6,268.1,202.5z"/>
	<path class="st15" d="M251.2,198.5c0.3-0.8,1.2-1.1,2-0.8c0.1,0,0.1,0.1,0.2,0.1c1.5,0.8,6.9,2.6,11.2,2.6c4.3,0,7.7-2.1,8.7-1.9
		s1.2,1.9,1.5,1.9c0.4,0.1-5.6,3-5.6,3l-7.3,1.1l-6.6-1.9l-4.1-2.6L251.2,198.5z"/>
	
		<linearGradient id="SVGID_52_" gradientUnits="userSpaceOnUse" x1="264.1583" y1="203.2501" x2="264.1583" y2="119.9387" gradientTransform="matrix(1 0 0 -1 0 400)">
		<stop  offset="0" style="stop-color:#FFFFFF"/>
		<stop  offset="1" style="stop-color:#D9D9D9"/>
	</linearGradient>
	<path class="st77" d="M299,261c-1.3-17-17.9-29.2-24.2-44c-2.8-6.7,1-15.7,3.7-19.5c2.2-3.1-8.3,4.5-14.9,4
		c-5.9-0.4-13.4-4.7-14.8-3.4c-4.4,4.1,5.5,13.9,4.3,18.9c-2.9,12.2-20.4,23.1-23.5,44c-2.8,19,15.4,19.1,34.6,19.1
		S300.4,280.1,299,261z"/>
	<path class="st78" d="M264.2,278c-12.4,0-25.3,0-30.4-5.8c-1.2-1.4,8.1,2.5,23.2,2.7c12.5,0.1,28.9,0,33.5-3.8
		c10.9-9-10.8-41.5-6.7-36.1c6.1,8.1,12.4,16.5,13.1,26.2c0.4,5-0.6,8.7-3,11.2c-5.2,5.6-17.1,5.6-29.6,5.6L264.2,278z"/>
	
		<linearGradient id="SVGID_53_" gradientUnits="userSpaceOnUse" x1="265.2484" y1="177.5343" x2="265.2484" y2="186.2693" gradientTransform="matrix(1 0 0 -1 0 400)">
		<stop  offset="0" style="stop-color:#C6A63D"/>
		<stop  offset="0.99" style="stop-color:#E5EB29"/>
	</linearGradient>
	<path class="st79" d="M276.1,219.1c-2.1-2.4-1.7-4.2-1.7-4.2c0-0.1,0-0.3-0.1-0.4c0-0.3-0.2-0.6-0.4-0.8c0,0-11.4,3.1-20.7,1.9
		c0,0-1.2,0.3-0.1,1.4c1.1,1.1,16-0.2,20.2-1.4c-0.1,1.5,0.7,2.7,2,4c0.4,0.4,1.5,1.6,2,2.1l0.6,0.7
		C277.8,222.5,278.3,221.5,276.1,219.1z"/>
	<g class="st80">
		
			<linearGradient id="SVGID_54_" gradientUnits="userSpaceOnUse" x1="257.7657" y1="137.9749" x2="257.7657" y2="153.5694" gradientTransform="matrix(1 0 0 -1 0 400)">
			<stop  offset="0" style="stop-color:#1E8239"/>
			<stop  offset="1" style="stop-color:#2B9428"/>
		</linearGradient>
		<path class="st81" d="M250.6,246.4h7.4c2.4,0,4,0.6,5.1,1.7c0.9,1,1.5,2.3,1.4,3.6v0c0,2.4-1.3,4-3.2,4.8l3.7,5.4h-5l-3.2-4.7
			h-1.9v4.7h-4.3V246.4z M257.8,253.9c1.4,0,2.3-0.7,2.3-1.9v0c0-1.3-0.9-1.9-2.3-1.9h-2.9v3.8L257.8,253.9z"/>
		
			<linearGradient id="SVGID_55_" gradientUnits="userSpaceOnUse" x1="273.0025" y1="134.3801" x2="273.0025" y2="150.2907" gradientTransform="matrix(1 0 0 -1 0 400)">
			<stop  offset="0" style="stop-color:#1E8239"/>
			<stop  offset="1" style="stop-color:#2B9428"/>
		</linearGradient>
		<path class="st82" d="M266.4,250h4.2v1.6c0.8-1,1.9-1.9,3.7-1.9c2.9,0,5.4,2.4,5.4,6.3v0c0,3.9-2.5,6.3-5.3,6.3
			c-1.4,0-2.8-0.6-3.7-1.7v5h-4.2V250z M275.5,256L275.5,256c0-1.6-1.1-2.8-2.5-2.8s-2.5,1.1-2.5,2.7v0c0,1.6,1.1,2.7,2.5,2.7
			C274.4,258.8,275.5,257.6,275.5,256z"/>
	</g>
	
		<linearGradient id="SVGID_56_" gradientUnits="userSpaceOnUse" x1="196.0805" y1="104.431" x2="196.0805" y2="115.1805" gradientTransform="matrix(1 0 0 -1 0 400)">
		<stop  offset="0" style="stop-color:#2B3154;stop-opacity:0"/>
		<stop  offset="0.3" style="stop-color:#2A3654;stop-opacity:0.23"/>
		<stop  offset="0.36" style="stop-color:#2A3754;stop-opacity:0.27"/>
		<stop  offset="0.7" style="stop-color:#293A53;stop-opacity:0.44"/>
		<stop  offset="1" style="stop-color:#293B53;stop-opacity:0.5"/>
	</linearGradient>
	<path class="st83" d="M137.4,284.8h117.4c2.3,0,4.2,1.9,4.2,4.2v2.4c0,2.3-1.9,4.2-4.2,4.2H137.4c-2.3,0-4.2-1.9-4.2-4.2V289
		C133.2,286.7,135.1,284.8,137.4,284.8z"/>
	
		<linearGradient id="SVGID_57_" gradientUnits="userSpaceOnUse" x1="234.9991" y1="99.4817" x2="234.9991" y2="109.3803" gradientTransform="matrix(1 0 0 -1 0 400)">
		<stop  offset="0" style="stop-color:#2B3154;stop-opacity:0"/>
		<stop  offset="0.3" style="stop-color:#2A3654;stop-opacity:0.23"/>
		<stop  offset="0.36" style="stop-color:#2A3754;stop-opacity:0.27"/>
		<stop  offset="0.7" style="stop-color:#293A53;stop-opacity:0.44"/>
		<stop  offset="1" style="stop-color:#293B53;stop-opacity:0.5"/>
	</linearGradient>
	<path class="st84" d="M206.4,290.6h57.2c2.3,0,4.2,1.9,4.2,4.2v1.6c0,2.3-1.9,4.2-4.2,4.2h-57.2c-2.3,0-4.2-1.9-4.2-4.2v-1.6
		C202.2,292.5,204.1,290.6,206.4,290.6z"/>
	<path class="st15" d="M247.4,191.1h6.4c2.3,0,4.2,1.9,4.2,4.2v81.2c0,2.3-1.9,4.2-4.2,4.2h-6.4c-2.3,0-4.2-1.9-4.2-4.2v-81.2
		C243.2,193,245.1,191.1,247.4,191.1z"/>
	
		<linearGradient id="SVGID_58_" gradientUnits="userSpaceOnUse" x1="197.831" y1="260.1505" x2="197.831" y2="110.4153" gradientTransform="matrix(1 0 0 -1 0 400)">
		<stop  offset="0" style="stop-color:#F2F2F2"/>
		<stop  offset="1" style="stop-color:#CCCCCC"/>
	</linearGradient>
	<path class="st85" d="M217.9,139.8h-61.3c-8.3,0-15.8,6.8-15.8,15.1v120c0,8.3,7.5,14.6,15.8,14.6h83.1c8.3,0,15.1-6.3,15.1-14.6
		v-99.4L217.9,139.8z"/>
	
		<linearGradient id="SVGID_59_" gradientUnits="userSpaceOnUse" x1="178.3135" y1="134.1266" x2="178.3135" y2="126.5308" gradientTransform="matrix(1 0 0 -1 0 400)">
		<stop  offset="0" style="stop-color:#ADADAD"/>
		<stop  offset="1" style="stop-color:#ADADAD"/>
	</linearGradient>
	<path class="st86" d="M160.5,265.9h35.5c1.9,0,3.4,1.5,3.4,3.4v0.8c0,1.9-1.5,3.4-3.4,3.4h-35.5c-1.9,0-3.4-1.5-3.4-3.4v-0.8
		C157.2,267.4,158.7,265.9,160.5,265.9z"/>
	
		<linearGradient id="SVGID_60_" gradientUnits="userSpaceOnUse" x1="178.3135" y1="235.1889" x2="178.3135" y2="227.5931" gradientTransform="matrix(1 0 0 -1 0 400)">
		<stop  offset="0" style="stop-color:#ADADAD"/>
		<stop  offset="1" style="stop-color:#ADADAD"/>
	</linearGradient>
	<path class="st87" d="M160.5,164.8h35.5c1.9,0,3.4,1.5,3.4,3.4v0.8c0,1.9-1.5,3.4-3.4,3.4h-35.5c-1.9,0-3.4-1.5-3.4-3.4v-0.8
		C157.2,166.3,158.7,164.8,160.5,164.8z"/>
	
		<linearGradient id="SVGID_61_" gradientUnits="userSpaceOnUse" x1="197.8293" y1="174.4327" x2="197.8293" y2="166.8369" gradientTransform="matrix(1 0 0 -1 0 400)">
		<stop  offset="0" style="stop-color:#ADADAD"/>
		<stop  offset="1" style="stop-color:#ADADAD"/>
	</linearGradient>
	<path class="st88" d="M160.5,225.6h74.6c1.9,0,3.4,1.5,3.4,3.4v0.8c0,1.9-1.5,3.4-3.4,3.4h-74.6c-1.9,0-3.4-1.5-3.4-3.4V229
		C157.1,227.1,158.7,225.6,160.5,225.6z"/>
	
		<linearGradient id="SVGID_62_" gradientUnits="userSpaceOnUse" x1="197.8293" y1="190.3607" x2="197.8293" y2="182.7649" gradientTransform="matrix(1 0 0 -1 0 400)">
		<stop  offset="0" style="stop-color:#ADADAD"/>
		<stop  offset="1" style="stop-color:#ADADAD"/>
	</linearGradient>
	<path class="st89" d="M160.5,209.6h74.6c1.9,0,3.4,1.5,3.4,3.4v0.8c0,1.9-1.5,3.4-3.4,3.4h-74.6c-1.9,0-3.4-1.5-3.4-3.4V213
		C157.1,211.2,158.7,209.6,160.5,209.6z"/>
	
		<linearGradient id="SVGID_63_" gradientUnits="userSpaceOnUse" x1="197.8293" y1="209.3068" x2="197.8293" y2="201.711" gradientTransform="matrix(1 0 0 -1 0 400)">
		<stop  offset="0" style="stop-color:#ADADAD"/>
		<stop  offset="1" style="stop-color:#ADADAD"/>
	</linearGradient>
	<path class="st90" d="M160.5,190.7h74.6c1.9,0,3.4,1.5,3.4,3.4v0.8c0,1.9-1.5,3.4-3.4,3.4h-74.6c-1.9,0-3.4-1.5-3.4-3.4v-0.8
		C157.1,192.2,158.7,190.7,160.5,190.7z"/>
	<path class="st91" d="M216.8,139.8v29.2c0,4.9,3.2,8.7,8,8.7h29.9v-2.2l-36.9-35.8H216.8z"/>
	
		<linearGradient id="SVGID_64_" gradientUnits="userSpaceOnUse" x1="236.3415" y1="260.1505" x2="236.3415" y2="224.3422" gradientTransform="matrix(1 0 0 -1 0 400)">
		<stop  offset="0" style="stop-color:#DEDEDE"/>
		<stop  offset="1" style="stop-color:#BFBFBF"/>
	</linearGradient>
	<path class="st92" d="M217.9,139.8v27.1c0,4.9,3.2,8.7,8,8.7h28.8L217.9,139.8z"/>
	
		<linearGradient id="SVGID_65_" gradientUnits="userSpaceOnUse" x1="163.5977" y1="148.2155" x2="194.7347" y2="148.2155" gradientTransform="matrix(1 0 0 -1 0 400)">
		<stop  offset="0" style="stop-color:#5E5E5E"/>
		<stop  offset="1" style="stop-color:#2E2E2E"/>
	</linearGradient>
	<path class="st93" d="M164.1,261.5c2.4-0.3,4.7-1,6.7-2.2c6.1-3.3,10.6-10.3,9.4-17.2c-2.8,4.5-5.4,9.1-7.6,14
		c-0.4,0.8-0.6,2.1,0.3,2.4c0.4,0.2,0.9-0.1,1.3-0.3c2.1-1.2,4-2.8,5.5-4.8l-1.5,3.8c1.5-0.5,2.9-1.3,4.1-2.3
		c-0.4,1.2-0.7,2.5-0.8,3.8l3.2-1.2c0.3-0.1,0.7-0.2,1-0.2c0.3,0.1,0.5,0.1,0.8,0.2c0.6,0.1,1.2,0,1.8-0.2c1.9-0.5,3.9-0.8,5.9-0.7"
		/>
	<path class="st94" d="M254.8,243.9v31.7c0,7.9-6.8,14-15.1,14h-29.5c-6.6-5.7-10.8-14-10.8-23.2c0-15.2,11.4-27.9,26.5-30.7
		c3.5-0.7,7.1-0.8,10.7-0.3C243.3,236.2,249.7,239.2,254.8,243.9z"/>
	
		<linearGradient id="SVGID_66_" gradientUnits="userSpaceOnUse" x1="234.9991" y1="162.9296" x2="234.9991" y2="104.4206" gradientTransform="matrix(1 0 0 -1 0 400)">
		<stop  offset="0" style="stop-color:#F2F2F2"/>
		<stop  offset="1" style="stop-color:#CCCCCC"/>
	</linearGradient>
	
		<linearGradient id="SVGID_67_" gradientUnits="userSpaceOnUse" x1="203.6607" y1="133.6751" x2="266.3375" y2="133.6751" gradientTransform="matrix(1 0 0 -1 0 400)">
		<stop  offset="0" style="stop-color:#00ACF0"/>
		<stop  offset="1" style="stop-color:#13637B"/>
	</linearGradient>
	<circle class="st95" cx="235" cy="266.3" r="29.3"/>
	
		<linearGradient id="SVGID_68_" gradientUnits="userSpaceOnUse" x1="234.9991" y1="152.8088" x2="234.9991" y2="114.5414" gradientTransform="matrix(1 0 0 -1 0 400)">
		<stop  offset="0" style="stop-color:#00ACF0"/>
		<stop  offset="0.15" style="stop-color:#03A0DC"/>
		<stop  offset="0.73" style="stop-color:#0F7496"/>
		<stop  offset="1" style="stop-color:#13637B"/>
	</linearGradient>
	<polygon class="st96" points="254.1,262.8 238.5,262.8 238.5,247.2 231.5,247.2 231.5,262.8 215.9,262.8 215.9,269.8 231.5,269.8 
		231.5,285.5 238.5,285.5 238.5,269.8 254.1,269.8 	"/>
	
		<linearGradient id="SVGID_69_" gradientUnits="userSpaceOnUse" x1="265.5144" y1="280.8263" x2="265.5144" y2="316.0443" gradientTransform="matrix(1 0 0 -1 0 400)">
		<stop  offset="0" style="stop-color:#ECC41C"/>
		<stop  offset="0.99" style="stop-color:#DDE93C"/>
	</linearGradient>
	<circle class="st97" cx="265.5" cy="101.6" r="17.6"/>
	
		<linearGradient id="SVGID_70_" gradientUnits="userSpaceOnUse" x1="284.4301" y1="301.7591" x2="284.4301" y2="277.2837" gradientTransform="matrix(1 0 0 -1 0 400)">
		<stop  offset="0" style="stop-color:#FFFFFF"/>
		<stop  offset="1" style="stop-color:#E5E5E5"/>
	</linearGradient>
	<path class="st98" d="M305.1,117.3c0-2.9-2.3-5.3-5.3-5.4c1.2-6.2-2.9-12.3-9.1-13.5c-5.2-1-10.4,1.7-12.6,6.5
		c-4.5-2.7-10.3-1.2-13,3.4c-2.7,4.5-1.2,10.3,3.4,13c1.5,0.9,3.1,1.3,4.8,1.3h26.8l0,0C302.9,122.5,305.1,120.2,305.1,117.3z"/>
	
		<linearGradient id="SVGID_71_" gradientUnits="userSpaceOnUse" x1="255.6215" y1="290.373" x2="255.6215" y2="271.2959" gradientTransform="matrix(1 0 0 -1 0 400)">
		<stop  offset="0" style="stop-color:#FFFFFF"/>
		<stop  offset="1" style="stop-color:#E5E5E5"/>
	</linearGradient>
	<path class="st99" d="M271.7,124.5c0-2.3-1.8-4.2-4.1-4.2c1-4.9-2.2-9.6-7.1-10.5c-4.1-0.8-8.2,1.3-9.9,5.1
		c-3.5-2.1-8.1-0.9-10.1,2.6c-2.1,3.5-0.9,8.1,2.6,10.1c1.1,0.7,2.4,1,3.7,1h20.9l0,0C270,128.6,271.7,126.7,271.7,124.5z"/>
	
		<linearGradient id="SVGID_72_" gradientUnits="userSpaceOnUse" x1="-1740.1688" y1="233.9778" x2="-1729.8931" y2="233.9778" gradientTransform="matrix(0.8615 0.5077 0.5077 -0.8615 1522.8324 1256.7457)">
		<stop  offset="0.26" style="stop-color:#94273A"/>
		<stop  offset="0.66" style="stop-color:#982A3B"/>
		<stop  offset="1" style="stop-color:#A2333F"/>
	</linearGradient>
	<path class="st100" d="M153.4,173.4c0,0-3.8,4.2-8.2,6.2c-0.3,0.1-0.5,0.2-0.6,0.1c-0.1-0.1,0.1-0.6,0.1-0.6l1.3-3.1
		c0-0.1,0-0.2,0-0.3c-0.1-0.1-0.4-0.2-0.4-0.2l-4.4-0.6c-0.2,0-0.4-0.1-0.6-0.1c-0.1-0.1,0.2-0.1,0.5-0.3c1.7-0.6,5.8-2.2,7.8-5.7
		L153.4,173.4z"/>
	
		<linearGradient id="SVGID_73_" gradientUnits="userSpaceOnUse" x1="-1738.6371" y1="234.1437" x2="-1730.4967" y2="234.1437" gradientTransform="matrix(0.8615 0.5077 0.5077 -0.8615 1522.8324 1256.7457)">
		<stop  offset="0" style="stop-color:#94273A"/>
		<stop  offset="1" style="stop-color:#C6514D"/>
	</linearGradient>
	<path class="st101" d="M146.5,176.2c0.1-0.2,0.1-0.5,0-0.8c-0.1-0.1-0.1-0.2-0.3-0.2c-0.2-0.1-0.3-0.1-0.5-0.2l-3.2-0.4
		c2-0.8,4.8-2.4,6.5-4.9l3.6,3.7c-1,1-4,3.9-7.4,5.6L146.5,176.2z"/>
	
		<linearGradient id="SVGID_74_" gradientUnits="userSpaceOnUse" x1="-7013.1143" y1="254.5285" x2="-7002.834" y2="254.5285" gradientTransform="matrix(-0.86 -0.51 0.51 -0.86 -6002.25 -3178.75)">
		<stop  offset="0.26" style="stop-color:#94273A"/>
		<stop  offset="0.66" style="stop-color:#982A3B"/>
		<stop  offset="1" style="stop-color:#A2333F"/>
	</linearGradient>
	<path class="st102" d="M152.9,170.8c0,0-1.8,5.3-1.4,10.2c0,0.3,0,0.6,0.2,0.6c0.1,0,0.5-0.4,0.5-0.4l2-2.7
		c0.1-0.1,0.2-0.1,0.3-0.2c0.1,0,0.3,0.3,0.3,0.3l2.7,3.5c0.1,0.2,0.2,0.3,0.4,0.5c0.1,0,0-0.2,0-0.6c-0.3-1.8-0.9-6.1,1.2-9.6
		L152.9,170.8z"/>
	
		<linearGradient id="SVGID_75_" gradientUnits="userSpaceOnUse" x1="-1731.0135" y1="236.1919" x2="-1722.8702" y2="236.1919" gradientTransform="matrix(0.8615 0.5077 0.5077 -0.8615 1522.8324 1256.7457)">
		<stop  offset="0" style="stop-color:#94273A"/>
		<stop  offset="1" style="stop-color:#C6514D"/>
	</linearGradient>
	<path class="st103" d="M151.9,180.5c-0.2-3.8,0.9-7.8,1.3-9.1l5,1.4c-1.4,2.7-1.4,5.9-1.1,8.1l-1.9-2.6c-0.1-0.1-0.3-0.3-0.4-0.4
		c-0.1-0.1-0.2-0.1-0.3-0.1c-0.3,0-0.5,0.1-0.7,0.3L151.9,180.5z"/>
	
		<linearGradient id="SVGID_76_" gradientUnits="userSpaceOnUse" x1="-1738.675" y1="245.2622" x2="-1721.0579" y2="255.4329" gradientTransform="matrix(0.8615 0.5077 0.5077 -0.8615 1522.8324 1256.7457)">
		<stop  offset="0" style="stop-color:#ECC41C"/>
		<stop  offset="0.47" style="stop-color:#FFFFCC"/>
		<stop  offset="0.99" style="stop-color:#FFE93C"/>
	</linearGradient>
	<path class="st104" d="M154.4,171.6c-4.8-2.9-6.5-9.1-3.6-13.9c2.9-4.8,9.1-6.5,13.9-3.6c4.8,2.9,6.5,9.1,3.6,13.9c0,0,0,0,0,0
		C165.5,172.8,159.3,174.4,154.4,171.6z"/>
	
		<linearGradient id="SVGID_77_" gradientUnits="userSpaceOnUse" x1="-1741.7594" y1="243.4743" x2="-1717.9629" y2="257.2137" gradientTransform="matrix(0.8615 0.5077 0.5077 -0.8615 1522.8324 1256.7457)">
		<stop  offset="0" style="stop-color:#ECC41C"/>
		<stop  offset="0.47" style="stop-color:#FFFFCC"/>
		<stop  offset="0.99" style="stop-color:#FFE93C"/>
	</linearGradient>
	<path class="st105" d="M170.5,169.3L170.5,169.3L170.5,169.3l1.3-0.5c0.2-0.1,0.4-0.3,0.3-0.6c0,0,0,0,0,0l-0.5-1.3l-0.1,0l0.1,0
		l1.2-0.7c0.2-0.1,0.3-0.4,0.2-0.6c0,0,0,0,0,0l-0.8-1.2l-0.1,0h0.1l1-1c0.2-0.2,0.2-0.5,0-0.6c0,0,0,0,0,0l-1-1h-0.1l0.1,0
		c0,0,0.5-0.8,0.8-1.2c0.1-0.2,0.1-0.5-0.1-0.6c0,0,0,0,0,0l-1.2-0.8l-0.1,0l0.1,0c0,0,0.3-0.8,0.5-1.3c0.1-0.2,0-0.5-0.2-0.6
		c0,0,0,0,0,0l-1.3-0.5l-0.1,0l0.1-0.1c0,0,0.2-0.9,0.2-1.4c0.1-0.2-0.1-0.5-0.3-0.5c0,0,0,0,0,0l-1.4-0.2l-0.1,0.1l0.1-0.1
		c0,0,0-0.9-0.1-1.4c0-0.2-0.2-0.5-0.4-0.5c0,0,0,0,0,0l-1.4,0.1l-0.1,0.1l0-0.1c0,0-0.2-0.9-0.3-1.3c0-0.2-0.3-0.4-0.5-0.4
		c0,0,0,0-0.1,0l-1.3,0.3l0,0.1l0-0.1c0,0-0.4-0.8-0.6-1.2c-0.1-0.2-0.4-0.3-0.6-0.2c0,0,0,0,0,0l-1.2,0.6l0,0.1v-0.1l-0.9-1.1
		c-0.1-0.2-0.4-0.2-0.6-0.1c0,0,0,0,0,0l-1.1,0.9v0.1v-0.1l-1.1-0.9c-0.2-0.2-0.5-0.2-0.6,0c0,0,0,0,0,0l-0.9,1.1v0.1l0-0.1
		l-1.2-0.6c-0.2-0.1-0.5-0.1-0.6,0.2c0,0,0,0,0,0l-0.6,1.2l0,0.1l0-0.1l-1.3-0.4c-0.2-0.1-0.5,0-0.6,0.3c0,0,0,0,0,0l-0.4,1.3l0,0.1
		l-0.1-0.1l-1.4-0.1c-0.2,0-0.5,0.2-0.5,0.4c0,0,0,0,0,0l-0.1,1.4l0.1,0.1l-0.1-0.1l-1.4,0.2c-0.2,0.1-0.4,0.3-0.3,0.5c0,0,0,0,0,0
		l0.2,1.4l0.1,0.1l-0.1,0l-1.3,0.5c-0.2,0.1-0.4,0.3-0.3,0.6c0,0,0,0,0,0l0.5,1.3l0.1,0l-0.1,0l-1.2,0.8c-0.2,0.1-0.3,0.4-0.2,0.6
		c0,0,0,0,0,0l0.8,1.2l0.1,0H147l-1,1c-0.2,0.2-0.2,0.5,0,0.6c0,0,0,0,0,0l1,1h0.1l-0.1,0c0,0-0.5,0.8-0.8,1.2
		c-0.1,0.2-0.1,0.5,0.1,0.6c0,0,0,0,0,0l1.2,0.8l0.1,0l-0.1,0c0,0-0.3,0.8-0.5,1.3c-0.1,0.2,0,0.5,0.2,0.6c0,0,0,0,0,0l1.3,0.5
		l0.1,0l-0.1,0.1c0,0-0.2,0.9-0.2,1.4c-0.1,0.2,0.1,0.5,0.3,0.5c0,0,0,0,0,0l1.4,0.2l0.1-0.1l-0.1,0.1c0,0,0,0.9,0.1,1.4
		c0,0.2,0.2,0.5,0.4,0.5c0,0,0,0,0,0l1.4-0.1l0.1-0.1l0,0.1c0,0,0.2,0.9,0.3,1.4c0,0.2,0.3,0.4,0.5,0.4c0,0,0,0,0,0l1.3-0.3l0-0.1
		l0,0.1c0,0,0.4,0.8,0.6,1.2c0.1,0.2,0.4,0.3,0.6,0.2c0,0,0,0,0,0l1.2-0.6l0-0.1v0.1c0,0,0.6,0.7,0.9,1.1c0.1,0.2,0.4,0.2,0.6,0.1
		c0,0,0,0,0,0l1.1-0.9v-0.1v0.1l1.1,0.9c0.2,0.2,0.5,0.2,0.6,0c0,0,0,0,0,0l0.9-1.1v-0.1l0,0.1l1.2,0.6c0.2,0.1,0.5,0.1,0.6-0.2
		c0,0,0,0,0,0l0.6-1.2l0-0.1l0,0.1l1.3,0.4c0.2,0.1,0.5,0,0.6-0.3c0,0,0,0,0,0l0.4-1.3l0-0.1l0.1,0.1l1.4,0.1c0.2,0,0.5-0.2,0.5-0.4
		c0,0,0,0,0,0l0.1-1.4l-0.1-0.1l0.1,0.1l1.4-0.2c0.2,0,0.4-0.2,0.4-0.5c0,0,0,0,0,0L170.5,169.3z"/>
	
		<linearGradient id="SVGID_78_" gradientUnits="userSpaceOnUse" x1="-1740.3297" y1="246.701" x2="-1719.5474" y2="254.2652" gradientTransform="matrix(0.8615 0.5077 0.5077 -0.8615 1522.8248 1256.9208)">
		<stop  offset="0" style="stop-color:#ECC41C"/>
		<stop  offset="0.47" style="stop-color:#FFFFCC"/>
		<stop  offset="0.99" style="stop-color:#FFE93C"/>
	</linearGradient>
	<circle class="st106" cx="159.6" cy="162.8" r="11.1"/>
	
		<ellipse transform="matrix(0.5077 -0.8615 0.8615 0.5077 -61.7381 217.6572)" class="st70" cx="159.6" cy="162.8" rx="11.1" ry="11.1"/>
	
		<linearGradient id="SVGID_79_" gradientUnits="userSpaceOnUse" x1="-1738.675" y1="245.2622" x2="-1721.0579" y2="255.4329" gradientTransform="matrix(0.8615 0.5077 0.5077 -0.8615 1522.8324 1256.7457)">
		<stop  offset="0" style="stop-color:#F7DE65"/>
		<stop  offset="0.47" style="stop-color:#FFFFCC"/>
		<stop  offset="0.99" style="stop-color:#FFF582"/>
	</linearGradient>
	<path class="st107" d="M154.4,171.6c-4.8-2.9-6.5-9.1-3.6-13.9c2.9-4.8,9.1-6.5,13.9-3.6c4.8,2.9,6.5,9.1,3.6,13.9c0,0,0,0,0,0
		C165.5,172.8,159.3,174.4,154.4,171.6z"/>
	<polyline class="st108" points="155.3,160.3 156.5,165.2 165.8,162.8 	"/>
	
		<linearGradient id="SVGID_80_" gradientUnits="userSpaceOnUse" x1="-1734.0975" y1="248.3278" x2="-1724.0333" y2="254.1344" gradientTransform="matrix(0.8615 0.5077 0.5077 -0.8615 1522.8324 1256.7457)">
		<stop  offset="0" style="stop-color:#E7CB4C"/>
		<stop  offset="0.1" style="stop-color:#E7CC4F"/>
		<stop  offset="0.18" style="stop-color:#E9CF5A"/>
		<stop  offset="0.25" style="stop-color:#EBD46C"/>
		<stop  offset="0.33" style="stop-color:#EEDB85"/>
		<stop  offset="0.4" style="stop-color:#F2E4A5"/>
		<stop  offset="0.47" style="stop-color:#F7EECC"/>
		<stop  offset="0.51" style="stop-color:#FAF5E3"/>
		<stop  offset="0.56" style="stop-color:#F8F2D6"/>
		<stop  offset="0.65" style="stop-color:#F4E8B4"/>
		<stop  offset="0.78" style="stop-color:#EDDA7D"/>
		<stop  offset="0.93" style="stop-color:#E3C532"/>
		<stop  offset="0.99" style="stop-color:#DFBD12"/>
	</linearGradient>
	<polyline class="st109" points="155.5,160 156.7,164.9 166,162.5 	"/>
</g>
</svg>
