<?xml version="1.0" encoding="utf-8"?>
<!-- Generator: Adobe Illustrator 21.0.0, SVG Export Plug-In . SVG Version: 6.00 Build 0)  -->
<svg version="1.1" id="Layer_1" xmlns="http://www.w3.org/2000/svg" xmlns:xlink="http://www.w3.org/1999/xlink" x="0px" y="0px"
	 viewBox="0 0 400 400" style="enable-background:new 0 0 400 400;" xml:space="preserve">
<style type="text/css">
	.st0{opacity:0.2;fill:url(#SVGID_1_);enable-background:new    ;}
	.st1{fill:url(#SVGID_2_);}
	.st2{opacity:0.5;fill:url(#SVGID_3_);enable-background:new    ;}
	.st3{opacity:0.5;fill:url(#SVGID_4_);enable-background:new    ;}
	.st4{opacity:0.5;fill:url(#SVGID_5_);enable-background:new    ;}
	.st5{opacity:0.5;fill:url(#SVGID_6_);enable-background:new    ;}
	.st6{opacity:0.5;fill:url(#SVGID_7_);enable-background:new    ;}
	.st7{opacity:0.5;fill:url(#SVGID_8_);enable-background:new    ;}
	.st8{opacity:5.000000e-02;enable-background:new    ;}
	.st9{fill:url(#SVGID_9_);}
	.st10{fill:none;stroke:url(#SVGID_10_);stroke-width:1.42;stroke-linecap:round;stroke-linejoin:round;}
	.st11{opacity:0.1;}
	.st12{fill:url(#SVGID_11_);}
	.st13{fill:url(#SVGID_12_);}
	.st14{fill:url(#SVGID_13_);}
	.st15{fill:url(#SVGID_14_);}
	.st16{fill:url(#SVGID_15_);}
	.st17{fill:url(#SVGID_16_);}
	.st18{fill:url(#SVGID_17_);}
	.st19{fill:#DD6868;}
	.st20{fill:url(#SVGID_18_);}
	.st21{fill:url(#SVGID_19_);}
	.st22{fill:url(#SVGID_20_);}
	.st23{fill:url(#SVGID_21_);}
	.st24{fill:url(#SVGID_22_);}
	.st25{fill:url(#SVGID_23_);}
	.st26{fill:url(#SVGID_24_);}
	.st27{fill:url(#SVGID_25_);}
	.st28{fill:url(#SVGID_26_);}
	.st29{opacity:0.2;fill:url(#SVGID_27_);enable-background:new    ;}
	.st30{fill:url(#SVGID_28_);}
	.st31{fill:url(#SVGID_29_);}
	.st32{fill:url(#SVGID_30_);}
	.st33{opacity:0.78;fill:url(#SVGID_31_);enable-background:new    ;}
	.st34{opacity:0.78;fill:url(#SVGID_32_);enable-background:new    ;}
	.st35{opacity:0.78;fill:url(#SVGID_33_);enable-background:new    ;}
	.st36{opacity:0.78;fill:url(#SVGID_34_);enable-background:new    ;}
	.st37{fill:url(#SVGID_35_);}
	.st38{fill:url(#SVGID_36_);}
	.st39{fill:url(#SVGID_37_);}
	.st40{fill:url(#SVGID_38_);}
	.st41{fill:url(#SVGID_39_);}
	.st42{fill:url(#SVGID_40_);}
	.st43{fill:url(#SVGID_41_);}
	.st44{fill:url(#SVGID_42_);}
	.st45{fill:url(#SVGID_43_);}
	.st46{fill:url(#SVGID_44_);}
	.st47{fill:url(#SVGID_45_);}
	.st48{fill:url(#SVGID_46_);}
	.st49{fill:url(#SVGID_47_);}
	.st50{fill:url(#SVGID_48_);}
</style>
<title>Il_rejected</title>
<g id="Rejection">
	
		<linearGradient id="SVGID_1_" gradientUnits="userSpaceOnUse" x1="94.82" y1="100.79" x2="282.23" y2="100.79" gradientTransform="matrix(1 0 0 -1 0 402.06)">
		<stop  offset="0" style="stop-color:#5E5E5E;stop-opacity:0.5"/>
		<stop  offset="1" style="stop-color:#2E2E2E"/>
	</linearGradient>
	<path class="st0" d="M100,296.1h177.1c2.8,0,5.2,2.3,5.2,5.2l0,0c0,2.8-2.3,5.2-5.2,5.2H100c-2.8,0-5.2-2.3-5.2-5.2l0,0
		C94.8,298.4,97.1,296.1,100,296.1z"/>
	
		<linearGradient id="SVGID_2_" gradientUnits="userSpaceOnUse" x1="187.86" y1="337.85" x2="187.86" y2="100.77" gradientTransform="matrix(1 0 0 -1 0 402.06)">
		<stop  offset="0" style="stop-color:#F2F2F2"/>
		<stop  offset="1" style="stop-color:#CCCCCC"/>
	</linearGradient>
	<path class="st1" d="M219.7,64.2h-97c-13.1,0-25,10.8-25,23.9v190c0,5.5,2.1,10.7,5.8,14.8c4.9,5.4,11.9,8.4,19.2,8.4h131.5
		c13.1,0,23.9-10,23.9-23.1V120.7L219.7,64.2z"/>
	
		<linearGradient id="SVGID_3_" gradientUnits="userSpaceOnUse" x1="156.97" y1="313.8" x2="156.97" y2="301.78" gradientTransform="matrix(1 0 0 -1 0 402.06)">
		<stop  offset="0" style="stop-color:#ADADAD"/>
		<stop  offset="1" style="stop-color:#ADADAD"/>
	</linearGradient>
	<path class="st2" d="M128.8,88.3h56.3c3,0,5.4,2.4,5.4,5.4v1.3c0,3-2.4,5.4-5.4,5.4h-56.3c-3,0-5.4-2.4-5.4-5.4v-1.3
		C123.5,90.7,125.9,88.3,128.8,88.3z"/>
	
		<linearGradient id="SVGID_4_" gradientUnits="userSpaceOnUse" x1="223.97" y1="138.33" x2="223.97" y2="126.31" gradientTransform="matrix(1 0 0 -1 0 402.06)">
		<stop  offset="0" style="stop-color:#ADADAD"/>
		<stop  offset="1" style="stop-color:#ADADAD"/>
	</linearGradient>
	<path class="st3" d="M195.8,263.7h56.3c3,0,5.4,2.4,5.4,5.4v1.3c0,3-2.4,5.4-5.4,5.4h-56.3c-3,0-5.4-2.4-5.4-5.4v-1.3
		C190.5,266.1,192.9,263.7,195.8,263.7z"/>
	
		<linearGradient id="SVGID_5_" gradientUnits="userSpaceOnUse" x1="187.89" y1="223.33" x2="187.89" y2="211.31" gradientTransform="matrix(1 0 0 -1 0 402.06)">
		<stop  offset="0" style="stop-color:#ADADAD"/>
		<stop  offset="1" style="stop-color:#ADADAD"/>
	</linearGradient>
	<path class="st4" d="M128.8,178.7h118.1c3,0,5.4,2.4,5.4,5.4v1.3c0,3-2.4,5.4-5.4,5.4H128.8c-3,0-5.4-2.4-5.4-5.4v-1.3
		C123.5,181.1,125.9,178.7,128.8,178.7z"/>
	
		<linearGradient id="SVGID_6_" gradientUnits="userSpaceOnUse" x1="187.89" y1="249.28" x2="187.89" y2="237.26" gradientTransform="matrix(1 0 0 -1 0 402.06)">
		<stop  offset="0" style="stop-color:#ADADAD"/>
		<stop  offset="1" style="stop-color:#ADADAD"/>
	</linearGradient>
	<path class="st5" d="M128.8,152.8h118.1c3,0,5.4,2.4,5.4,5.4v1.3c0,3-2.4,5.4-5.4,5.4H128.8c-3,0-5.4-2.4-5.4-5.4v-1.3
		C123.5,155.2,125.9,152.8,128.8,152.8z"/>
	
		<linearGradient id="SVGID_7_" gradientUnits="userSpaceOnUse" x1="187.89" y1="275.24" x2="187.89" y2="263.22" gradientTransform="matrix(1 0 0 -1 0 402.06)">
		<stop  offset="0" style="stop-color:#ADADAD"/>
		<stop  offset="1" style="stop-color:#ADADAD"/>
	</linearGradient>
	<path class="st6" d="M128.8,126.8h118.1c3,0,5.4,2.4,5.4,5.4v1.3c0,3-2.4,5.4-5.4,5.4H128.8c-3,0-5.4-2.4-5.4-5.4v-1.3
		C123.5,129.2,125.9,126.8,128.8,126.8z"/>
	
		<linearGradient id="SVGID_8_" gradientUnits="userSpaceOnUse" x1="187.89" y1="197.56" x2="187.89" y2="185.54" gradientTransform="matrix(1 0 0 -1 0 402.06)">
		<stop  offset="0" style="stop-color:#ADADAD"/>
		<stop  offset="1" style="stop-color:#ADADAD"/>
	</linearGradient>
	<path class="st7" d="M128.8,204.5h118.1c3,0,5.4,2.4,5.4,5.4v1.3c0,3-2.4,5.4-5.4,5.4H128.8c-3,0-5.4-2.4-5.4-5.4v-1.3
		C123.5,206.9,125.9,204.5,128.8,204.5z"/>
	<path class="st8" d="M218,64.2v46.3c0,7.8,5,13.8,12.7,13.8H278v-3.4l-58.4-56.7L218,64.2z"/>
	
		<linearGradient id="SVGID_9_" gradientUnits="userSpaceOnUse" x1="248.85" y1="337.85" x2="248.85" y2="281.19" gradientTransform="matrix(1 0 0 -1 0 402.06)">
		<stop  offset="0" style="stop-color:#DEDEDE"/>
		<stop  offset="1" style="stop-color:#BFBFBF"/>
	</linearGradient>
	<path class="st9" d="M219.7,64.2V107c0,7.8,5,13.8,12.7,13.8H278L219.7,64.2z"/>
	
		<linearGradient id="SVGID_10_" gradientUnits="userSpaceOnUse" x1="200.78" y1="160.63" x2="249.85" y2="160.63" gradientTransform="matrix(1 0 0 -1 0 402.06)">
		<stop  offset="0" style="stop-color:#5E5E5E"/>
		<stop  offset="1" style="stop-color:#2E2E2E"/>
	</linearGradient>
	<path class="st10" d="M201.5,256.7c3.7-0.4,7.4-1.6,10.7-3.5c9.7-5.2,16.8-16.2,14.9-27.1c-4.5,7.1-8.5,14.5-12,22.1
		c-0.6,1.3-0.9,3.3,0.4,3.8c0.7,0.2,1.5,0,2.1-0.5c3.4-1.9,6.3-4.5,8.7-7.6l-2.4,6c2.4-0.8,4.6-2,6.5-3.7c-0.6,1.9-1,4-1.2,6l5-1.9
		c0.5-0.2,1.1-0.3,1.6-0.3c0.4,0.1,0.9,0.2,1.3,0.4c1,0.1,1.9,0,2.9-0.3c3-0.9,6.1-1.3,9.3-1.2"/>
	<g class="st11">
		<path d="M126.9,139.6h-0.1l-2.3,15.4l-0.9,5.6l-20.1,132.2c-3.7-4-5.8-9.3-5.8-14.8v-26.8L115,137.8l4.9,0.8l-4.4-0.7l4.4-11.5
			l3.5,0.5l-3.4-0.5l3.9-10.2c0,0,0.2-0.4,0.5-0.4s0.3,0.6,0.3,0.6l1.1,10.9l0,0l0.1,0.5l1.1,10.7L126.9,139.6z"/>
	</g>
	
		<linearGradient id="SVGID_11_" gradientUnits="userSpaceOnUse" x1="1462.7505" y1="-1342.707" x2="1462.7505" y2="-1330.7058" gradientTransform="matrix(0.15 -0.99 -0.99 -0.15 -1454.0647 1550.2142)">
		<stop  offset="0" style="stop-color:#94273A"/>
		<stop  offset="1" style="stop-color:#C6514D"/>
	</linearGradient>
	<path class="st12" d="M93.1,306.5c-0.2,1.3-1.5,1.3-2.7,1.1l-6.9-1c-1.3-0.2-2.5-0.5-2.3-1.8l1-6.5c0.3-2,12.2-0.2,11.9,1.8
		L93.1,306.5z"/>
	
		<linearGradient id="SVGID_12_" gradientUnits="userSpaceOnUse" x1="1471.9207" y1="-1331.2136" x2="1471.9207" y2="-1343.2145" gradientTransform="matrix(0.1502 -0.9887 -0.9887 -0.1502 -1454.7085 1551.0187)">
		<stop  offset="0" style="stop-color:#E5E5E5"/>
		<stop  offset="1" style="stop-color:#999999"/>
	</linearGradient>
	<polygon class="st13" points="82.2,298.3 82.9,293.3 94.8,295.1 94.1,300.1 	"/>
	
		<linearGradient id="SVGID_13_" gradientUnits="userSpaceOnUse" x1="1650.3639" y1="-1333.957" x2="1650.3639" y2="-1339.7762" gradientTransform="matrix(0.15 -0.99 -0.99 -0.15 -1454.0647 1550.2142)">
		<stop  offset="0" style="stop-color:#5E5E5E"/>
		<stop  offset="1" style="stop-color:#2E2E2E"/>
	</linearGradient>
	<path class="st14" d="M116.7,111.2c-0.3,0-0.5,0.4-0.5,0.4l-3.9,10.2l5.8,0.9l-1.1-10.9C117,111.8,117,111.3,116.7,111.2z"/>
	
		<linearGradient id="SVGID_14_" gradientUnits="userSpaceOnUse" x1="1474.6362" y1="-1333.578" x2="1636.6362" y2="-1333.578" gradientTransform="matrix(0.1504 -0.9886 -0.9886 -0.1504 -1454.767 1551.0261)">
		<stop  offset="0" style="stop-color:#FFEE69"/>
		<stop  offset="1" style="stop-color:#FFDF4B"/>
	</linearGradient>
	<polygon class="st15" points="83,293.4 107.3,133.2 112.3,133.9 87.9,294.1 	"/>
	
		<linearGradient id="SVGID_15_" gradientUnits="userSpaceOnUse" x1="1555.6262" y1="-1336.218" x2="1555.6262" y2="-1339.228" gradientTransform="matrix(0.1504 -0.9886 -0.9886 -0.1504 -1454.781 1551.007)">
		<stop  offset="0" style="stop-color:#F1D353"/>
		<stop  offset="1" style="stop-color:#E8C44A"/>
	</linearGradient>
	<polygon class="st16" points="87.9,294.1 112.3,133.9 115.2,134.4 90.9,294.6 	"/>
	
		<linearGradient id="SVGID_16_" gradientUnits="userSpaceOnUse" x1="1555.6361" y1="-1339.218" x2="1555.6361" y2="-1343.228" gradientTransform="matrix(0.1504 -0.9886 -0.9886 -0.1504 -1454.7684 1551.0209)">
		<stop  offset="0" style="stop-color:#EDB346"/>
		<stop  offset="1" style="stop-color:#DEB75A"/>
	</linearGradient>
	<polygon class="st17" points="90.9,294.6 115.2,134.4 119.2,135 94.8,295.2 	"/>
	
		<linearGradient id="SVGID_17_" gradientUnits="userSpaceOnUse" x1="1638.8134" y1="-1342.827" x2="1638.8134" y2="-1331.297" gradientTransform="matrix(0.15 -0.99 -0.99 -0.15 -1454.0647 1550.2142)">
		<stop  offset="0" style="stop-color:#F3D286"/>
		<stop  offset="1" style="stop-color:#F3E4A8"/>
	</linearGradient>
	<polygon class="st18" points="112.3,121.8 107.9,133.3 119.3,135 118.1,122.7 	"/>
	<polygon class="st19" points="85.9,313.9 85.9,313.9 85.9,313.9 85.9,313.9 85.9,313.5 85.9,313.5 85.9,313.5 85.9,313.5 	"/>
	
		<linearGradient id="SVGID_18_" gradientUnits="userSpaceOnUse" x1="189.7763" y1="324.0447" x2="189.7763" y2="374.1447" gradientTransform="matrix(0.93 0.37 0.37 -0.93 -117.469 453.6868)">
		<stop  offset="0" style="stop-color:#AD465B"/>
		<stop  offset="1" style="stop-color:#DB4D3D"/>
	</linearGradient>
	<path class="st20" d="M224.2,241.6l-91.3-36.7c-5.8-2.4-8.7-9-6.3-14.9l10.2-25.3c2.4-5.8,9-8.7,14.8-6.3l91.3,36.7
		c5.8,2.4,8.7,9,6.3,14.8L239,235.3C236.7,241.1,230,243.9,224.2,241.6z M150.2,161.9c-3.9-1.6-8.3,0.3-9.9,4.2l-10.2,25.3
		c-1.6,3.9,0.3,8.3,4.2,9.9l91.3,36.7c3.9,1.6,8.3-0.3,9.9-4.2l10.2-25.3c1.6-3.9-0.3-8.3-4.2-9.9L150.2,161.9z"/>
	
		<linearGradient id="SVGID_19_" gradientUnits="userSpaceOnUse" x1="189.7717" y1="330.7047" x2="189.7717" y2="367.4847" gradientTransform="matrix(0.93 0.37 0.37 -0.93 -117.469 453.6868)">
		<stop  offset="0" style="stop-color:#AD465B"/>
		<stop  offset="1" style="stop-color:#DB4D3D"/>
	</linearGradient>
	<path class="st21" d="M226.7,235.4l-91.3-36.7c-2.4-1-3.6-3.8-2.6-6.2l10.2-25.3c1-2.4,3.7-3.6,6.2-2.6l91.3,36.7
		c2.4,1,3.6,3.8,2.6,6.2l-10.2,25.3C231.9,235.2,229.1,236.4,226.7,235.4z M148.4,166.3c-1.5-0.6-3.1,0.1-3.7,1.6l-10.2,25.3
		c-0.6,1.5,0.1,3.1,1.6,3.7l91.3,36.7c1.5,0.6,3.1-0.1,3.7-1.6l10.2-25.3c0.6-1.5-0.1-3.1-1.6-3.7L148.4,166.3z"/>
	
		<linearGradient id="SVGID_20_" gradientUnits="userSpaceOnUse" x1="152.2444" y1="340.5347" x2="152.2444" y2="356.5179" gradientTransform="matrix(0.93 0.37 0.37 -0.93 -117.469 453.6868)">
		<stop  offset="0" style="stop-color:#AD465B"/>
		<stop  offset="1" style="stop-color:#DB4D3D"/>
	</linearGradient>
	<path class="st22" d="M159.6,182.9c0.9,2,0.9,4.3,0,6.2c-0.7,2.1-2.3,3.8-4.3,4.6c-1.9,0.8-4.3,0.6-7.1-0.5l-5.1-2l6-14.8l5.2,2.1
		C157,179.5,158.7,181,159.6,182.9z M153.6,190.7c1.2-0.5,2.1-1.6,2.6-2.8c0.6-1.2,0.6-2.6,0.1-3.9c-0.7-1.3-1.9-2.2-3.3-2.7
		l-1.9-0.7l-3.6,9l2.1,0.8C150.9,191,152.3,191.1,153.6,190.7L153.6,190.7z"/>
	
		<linearGradient id="SVGID_21_" gradientUnits="userSpaceOnUse" x1="163.7614" y1="340.5347" x2="163.7614" y2="357.8447" gradientTransform="matrix(0.93 0.37 0.37 -0.93 -117.469 453.6868)">
		<stop  offset="0" style="stop-color:#AD465B"/>
		<stop  offset="1" style="stop-color:#DB4D3D"/>
	</linearGradient>
	<path class="st23" d="M164.4,184.8c-0.4-1,0-2.2,1-2.6c1-0.4,2.2,0,2.6,1c0.4,1,0,2.2-1,2.6c-0.5,0.2-1,0.2-1.5,0
		C165,185.7,164.6,185.3,164.4,184.8z M162.1,198.8l-3.2-1.3l4.6-11.4l3.2,1.3L162.1,198.8z"/>
	
		<linearGradient id="SVGID_22_" gradientUnits="userSpaceOnUse" x1="180.0804" y1="340.5347" x2="180.0804" y2="356.5147" gradientTransform="matrix(0.93 0.37 0.37 -0.93 -117.469 453.6868)">
		<stop  offset="0" style="stop-color:#AD465B"/>
		<stop  offset="1" style="stop-color:#DB4D3D"/>
	</linearGradient>
	<path class="st24" d="M182.1,193l-4.8,12l-3.3-1.4l4.8-12l-4.2-1.7l1.1-2.9l11.7,4.7l-1.1,2.9L182.1,193z"/>
	
		<linearGradient id="SVGID_23_" gradientUnits="userSpaceOnUse" x1="193.0152" y1="340.3547" x2="193.0152" y2="353.0463" gradientTransform="matrix(0.93 0.37 0.37 -0.93 -117.469 453.6868)">
		<stop  offset="0" style="stop-color:#AD465B"/>
		<stop  offset="1" style="stop-color:#DB4D3D"/>
	</linearGradient>
	<path class="st25" d="M196,205.9c-0.6,1.6-1.8,2.9-3.4,3.5c-3.3,1.3-7.1-0.2-8.6-3.5c-1.4-3.2,0.1-7,3.4-8.4
		c3.4-1.3,7.2,0.2,8.7,3.5C196.7,202.6,196.7,204.3,196,205.9z M187.2,202.3c-0.4,0.8-0.4,1.7-0.1,2.6c0.6,1.5,2.3,2.3,3.9,1.7
		c0.1,0,0.1-0.1,0.2-0.1c0.8-0.4,1.4-1.1,1.7-2c0.4-0.8,0.5-1.7,0.2-2.5c-0.6-1.5-2.3-2.3-3.9-1.7c-0.1,0-0.1,0.1-0.2,0.1
		C188.1,200.8,187.5,201.5,187.2,202.3L187.2,202.3z"/>
	
		<linearGradient id="SVGID_24_" gradientUnits="userSpaceOnUse" x1="203.803" y1="340.5347" x2="203.803" y2="357.4983" gradientTransform="matrix(0.93 0.37 0.37 -0.93 -117.469 453.6868)">
		<stop  offset="0" style="stop-color:#AD465B"/>
		<stop  offset="1" style="stop-color:#DB4D3D"/>
	</linearGradient>
	<path class="st26" d="M199.3,213.8l-3.2-1.3l6.3-15.7l3.2,1.3L199.3,213.8z"/>
	
		<linearGradient id="SVGID_25_" gradientUnits="userSpaceOnUse" x1="213.6607" y1="340.3547" x2="213.6607" y2="353.0347" gradientTransform="matrix(0.93 0.37 0.37 -0.93 -117.469 453.6868)">
		<stop  offset="0" style="stop-color:#AD465B"/>
		<stop  offset="1" style="stop-color:#DB4D3D"/>
	</linearGradient>
	<path class="st27" d="M212,218.9l-3-1.2l0.5-1.4c-1.1,0.7-2.5,0.8-3.7,0.3c-1.1-0.4-2.1-1.2-2.6-2.3c-0.5-1-0.6-2.2-0.1-3.3
		c0.4-1.1,1.2-1.9,2.3-2.1c1.3-0.2,2.6,0,3.8,0.5l2.4,1v-0.1c0.5-0.9,0.1-2-0.7-2.4c-0.1-0.1-0.3-0.1-0.5-0.2
		c-0.6-0.2-1.2-0.4-1.9-0.4c-0.6,0-1.3,0-1.9,0.2l-0.6-2.6c1.9-0.5,4-0.3,5.8,0.4c1.2,0.4,2.3,1.3,3,2.4c0.6,1.2,0.6,2.6,0,3.8
		L212,218.9z M210.6,213.3l0.2-0.5l-2-0.8c-1.3-0.5-2.1-0.4-2.4,0.4c-0.2,0.4-0.1,0.8,0.1,1.1c0.3,0.4,0.7,0.7,1.2,0.9
		c0.5,0.2,1.1,0.3,1.7,0.1C209.9,214.3,210.4,213.8,210.6,213.3L210.6,213.3z"/>
	
		<linearGradient id="SVGID_26_" gradientUnits="userSpaceOnUse" x1="228.16" y1="340.5347" x2="228.16" y2="357.4947" gradientTransform="matrix(0.93 0.37 0.37 -0.93 -117.469 453.6868)">
		<stop  offset="0" style="stop-color:#AD465B"/>
		<stop  offset="1" style="stop-color:#DB4D3D"/>
	</linearGradient>
	<path class="st28" d="M218.1,221.4l-3.2-1.3l6.3-15.7l3.2,1.3l-3.2,8.1l5.1-2.4l4,1.6l-6.2,2.9l1.8,8.6L222,223l-1.1-5.5l-1.5,0.7
		L218.1,221.4z"/>
	
		<linearGradient id="SVGID_27_" gradientUnits="userSpaceOnUse" x1="300.97" y1="95.06" x2="300.97" y2="213.47" gradientTransform="matrix(1 0 0 -1 0 402.06)">
		<stop  offset="0" style="stop-color:#5E5E5E;stop-opacity:0.5"/>
		<stop  offset="1" style="stop-color:#2E2E2E"/>
	</linearGradient>
	<path class="st29" d="M266.1,188.6h69.7c4.4,0,7.9,3.5,7.9,7.9v102.6c0,4.4-3.5,7.9-7.9,7.9h-69.7c-4.4,0-7.9-3.5-7.9-7.9V196.5
		C258.2,192.1,261.8,188.6,266.1,188.6z"/>
	
		<linearGradient id="SVGID_28_" gradientUnits="userSpaceOnUse" x1="308.4" y1="95.06" x2="308.4" y2="213.47" gradientTransform="matrix(1 0 0 -1 0 402.06)">
		<stop  offset="0" style="stop-color:#5E5E5E"/>
		<stop  offset="1" style="stop-color:#2E2E2E"/>
	</linearGradient>
	<path class="st30" d="M273.6,188.6h69.7c4.4,0,7.9,3.5,7.9,7.9v102.6c0,4.4-3.5,7.9-7.9,7.9h-69.7c-4.4,0-7.9-3.5-7.9-7.9V196.5
		C265.7,192.1,269.2,188.6,273.6,188.6z"/>
	
		<linearGradient id="SVGID_29_" gradientUnits="userSpaceOnUse" x1="313.85" y1="213.47" x2="313.85" y2="95.06" gradientTransform="matrix(1 0 0 -1 0 402.06)">
		<stop  offset="0" style="stop-color:#5E5E5E"/>
		<stop  offset="1" style="stop-color:#2E2E2E"/>
	</linearGradient>
	<path class="st31" d="M279,188.6h69.7c4.4,0,7.9,3.5,7.9,7.9v102.6c0,4.4-3.5,7.9-7.9,7.9H279c-4.4,0-7.9-3.5-7.9-7.9V196.5
		C271.1,192.1,274.6,188.6,279,188.6z"/>
	
		<linearGradient id="SVGID_30_" gradientUnits="userSpaceOnUse" x1="313.845" y1="201.49" x2="313.845" y2="181.78" gradientTransform="matrix(1 0 0 -1 0 402.06)">
		<stop  offset="0" style="stop-color:#F2F2F2"/>
		<stop  offset="1" style="stop-color:#CCCCCC"/>
	</linearGradient>
	<path class="st32" d="M346.3,208.5v3.9c0,4.4-3.5,7.9-7.9,7.9h-49.2c-4.4,0-7.9-3.5-7.9-7.9v-3.9c0-4.4,3.5-7.9,7.9-7.9h49.2
		C342.8,200.6,346.3,204.1,346.3,208.5z"/>
	
		<linearGradient id="SVGID_31_" gradientUnits="userSpaceOnUse" x1="295.17" y1="169.46" x2="295.17" y2="141.86" gradientTransform="matrix(1 0 0 -1 0 402.06)">
		<stop  offset="0" style="stop-color:#5E5E5E;stop-opacity:0.5"/>
		<stop  offset="1" style="stop-color:#2E2E2E"/>
	</linearGradient>
	<path class="st33" d="M309,240.5v11.8c0,4.4-3.5,7.9-7.9,7.9h-11.8c-4.4,0-7.9-3.5-7.9-7.9v-11.8c0-4.4,3.5-7.9,7.9-7.9h11.8
		C305.4,232.6,309,236.1,309,240.5z"/>
	
		<linearGradient id="SVGID_32_" gradientUnits="userSpaceOnUse" x1="332.21" y1="169.46" x2="332.21" y2="141.86" gradientTransform="matrix(1 0 0 -1 0 402.06)">
		<stop  offset="0" style="stop-color:#5E5E5E;stop-opacity:0.5"/>
		<stop  offset="1" style="stop-color:#2E2E2E"/>
	</linearGradient>
	<path class="st34" d="M346,240.5v11.8c0,4.4-3.5,7.9-7.9,7.9h-11.8c-4.4,0-7.9-3.5-7.9-7.9v-11.8c0-4.4,3.5-7.9,7.9-7.9h11.8
		C342.5,232.6,346,236.1,346,240.5z"/>
	
		<linearGradient id="SVGID_33_" gradientUnits="userSpaceOnUse" x1="332.21" y1="131.38" x2="332.21" y2="103.78" gradientTransform="matrix(1 0 0 -1 0 402.06)">
		<stop  offset="0" style="stop-color:#5E5E5E;stop-opacity:0.5"/>
		<stop  offset="1" style="stop-color:#2E2E2E"/>
	</linearGradient>
	<path class="st35" d="M346,278.6v11.8c0,4.4-3.5,7.9-7.9,7.9h-11.8c-4.4,0-7.9-3.5-7.9-7.9v-11.8c0-4.4,3.5-7.9,7.9-7.9h11.8
		C342.5,270.7,346,274.2,346,278.6z"/>
	
		<linearGradient id="SVGID_34_" gradientUnits="userSpaceOnUse" x1="295.17" y1="131.38" x2="295.17" y2="103.78" gradientTransform="matrix(1 0 0 -1 0 402.06)">
		<stop  offset="0" style="stop-color:#5E5E5E;stop-opacity:0.5"/>
		<stop  offset="1" style="stop-color:#2E2E2E"/>
	</linearGradient>
	<path class="st36" d="M309,278.6v11.8c0,4.4-3.5,7.9-7.9,7.9h-11.8c-4.4,0-7.9-3.5-7.9-7.9v-11.8c0-4.4,3.5-7.9,7.9-7.9h11.8
		C305.4,270.7,309,274.2,309,278.6z"/>
	
		<linearGradient id="SVGID_35_" gradientUnits="userSpaceOnUse" x1="295.17" y1="171.71" x2="295.17" y2="144.11" gradientTransform="matrix(1 0 0 -1 0 402.06)">
		<stop  offset="0" style="stop-color:#F2F2F2"/>
		<stop  offset="1" style="stop-color:#CCCCCC"/>
	</linearGradient>
	<path class="st37" d="M309,238.2v11.8c0,4.4-3.5,7.9-7.9,7.9h-11.8c-4.4,0-7.9-3.5-7.9-7.9v-11.8c0-4.4,3.5-7.9,7.9-7.9h11.8
		C305.4,230.3,309,233.9,309,238.2z"/>
	
		<linearGradient id="SVGID_36_" gradientUnits="userSpaceOnUse" x1="332.21" y1="171.71" x2="332.21" y2="144.11" gradientTransform="matrix(1 0 0 -1 0 402.06)">
		<stop  offset="0" style="stop-color:#F2F2F2"/>
		<stop  offset="1" style="stop-color:#CCCCCC"/>
	</linearGradient>
	<path class="st38" d="M346,238.2v11.8c0,4.4-3.5,7.9-7.9,7.9h-11.8c-4.4,0-7.9-3.5-7.9-7.9v-11.8c0-4.4,3.5-7.9,7.9-7.9h11.8
		C342.5,230.4,346,233.9,346,238.2z"/>
	
		<linearGradient id="SVGID_37_" gradientUnits="userSpaceOnUse" x1="295.16" y1="134.03" x2="295.16" y2="106.43" gradientTransform="matrix(1 0 0 -1 0 402.06)">
		<stop  offset="0" style="stop-color:#F2F2F2"/>
		<stop  offset="1" style="stop-color:#CCCCCC"/>
	</linearGradient>
	<path class="st39" d="M309,275.9v11.8c0,4.4-3.5,7.9-7.9,7.9h-11.8c-4.4,0-7.9-3.5-7.9-7.9v-11.8c0-4.4,3.5-7.9,7.9-7.9h11.8
		C305.4,268,309,271.6,309,275.9z"/>
	
		<linearGradient id="SVGID_38_" gradientUnits="userSpaceOnUse" x1="332.2" y1="134.03" x2="332.2" y2="106.43" gradientTransform="matrix(1 0 0 -1 0 402.06)">
		<stop  offset="0" style="stop-color:#F2F2F2"/>
		<stop  offset="1" style="stop-color:#CCCCCC"/>
	</linearGradient>
	<path class="st40" d="M346,275.9v11.8c0,4.4-3.5,7.9-7.9,7.9h-11.8c-4.4,0-7.9-3.5-7.9-7.9v-11.8c0-4.4,3.5-7.9,7.9-7.9h11.8
		C342.5,268,346,271.6,346,275.9z"/>
	
		<linearGradient id="SVGID_39_" gradientUnits="userSpaceOnUse" x1="288.71" y1="157.905" x2="301.61" y2="157.905" gradientTransform="matrix(1 0 0 -1 0 402.06)">
		<stop  offset="0" style="stop-color:#2CA7E0"/>
		<stop  offset="0.28" style="stop-color:#2BA4DC"/>
		<stop  offset="0.56" style="stop-color:#289CD0"/>
		<stop  offset="0.84" style="stop-color:#228FBC"/>
		<stop  offset="1" style="stop-color:#1E85AD"/>
	</linearGradient>
	<path class="st41" d="M293.3,250.5v-4.8h-4.6v-3.2h4.6v-4.8h3.7v4.8h4.6v3.2H297v4.8H293.3z"/>
	
		<linearGradient id="SVGID_40_" gradientUnits="userSpaceOnUse" x1="327.5" y1="157.91" x2="336.92" y2="157.91" gradientTransform="matrix(1 0 0 -1 0 402.06)">
		<stop  offset="0" style="stop-color:#94273A"/>
		<stop  offset="1" style="stop-color:#C6514D"/>
	</linearGradient>
	<path class="st42" d="M327.5,245.9v-3.5h9.4v3.5H327.5z"/>
	
		<linearGradient id="SVGID_41_" gradientUnits="userSpaceOnUse" x1="289.36" y1="120.255" x2="300.9699" y2="120.255" gradientTransform="matrix(1 0 0 -1 0 402.06)">
		<stop  offset="0" style="stop-color:#3495D2"/>
		<stop  offset="0.28" style="stop-color:#378FCD"/>
		<stop  offset="0.65" style="stop-color:#3F7FC1"/>
		<stop  offset="1" style="stop-color:#4969B0"/>
	</linearGradient>
	<path class="st43" d="M289.4,285l3.4-3.4l-3.3-3.3l2.3-2.3l3.3,3.3l3.4-3.4l2.6,2.6l-3.4,3.4l3.3,3.3l-2.3,2.3l-3.3-3.3l-3.4,3.4
		L289.4,285z"/>
	
		<linearGradient id="SVGID_42_" gradientUnits="userSpaceOnUse" x1="325.77" y1="120.235" x2="338.65" y2="120.235" gradientTransform="matrix(1 0 0 -1 0 402.06)">
		<stop  offset="0" style="stop-color:#4C64AD"/>
		<stop  offset="0.31" style="stop-color:#545CA4"/>
		<stop  offset="0.8" style="stop-color:#69488C"/>
		<stop  offset="1" style="stop-color:#733E81"/>
	</linearGradient>
	<path class="st44" d="M325.8,276.9h12.9v3.2h-12.9V276.9z M325.8,283.5h12.9v3.2h-12.9V283.5z"/>
	
		<linearGradient id="SVGID_43_" gradientUnits="userSpaceOnUse" x1="310.135" y1="196.2" x2="310.135" y2="187.63" gradientTransform="matrix(1 0 0 -1 0 402.06)">
		<stop  offset="0" style="stop-color:#5E5E5E"/>
		<stop  offset="1" style="stop-color:#2E2E2E"/>
	</linearGradient>
	<path class="st45" d="M308.4,205.9h3.5v8.6H310v-6.9h-1.6V205.9z"/>
	
		<linearGradient id="SVGID_44_" gradientUnits="userSpaceOnUse" x1="314.7254" y1="189.69" x2="314.7254" y2="187.53" gradientTransform="matrix(1 0 0 -1 0 402.06)">
		<stop  offset="0" style="stop-color:#5E5E5E"/>
		<stop  offset="1" style="stop-color:#2E2E2E"/>
	</linearGradient>
	<path class="st46" d="M314,214.2c-0.4-0.4-0.4-1.1,0-1.6c0.4-0.4,1.1-0.4,1.6,0c0.4,0.4,0.4,1.1,0,1.6c-0.2,0.2-0.5,0.3-0.8,0.3
		C314.4,214.5,314.2,214.4,314,214.2z"/>
	
		<linearGradient id="SVGID_45_" gradientUnits="userSpaceOnUse" x1="320.195" y1="196.4" x2="320.195" y2="187.63" gradientTransform="matrix(1 0 0 -1 0 402.06)">
		<stop  offset="0" style="stop-color:#5E5E5E"/>
		<stop  offset="1" style="stop-color:#2E2E2E"/>
	</linearGradient>
	<path class="st47" d="M320.8,209.2c0.2-0.3,0.3-0.6,0.3-0.9c0-0.3-0.1-0.5-0.3-0.7c-0.2-0.2-0.5-0.3-0.7-0.3
		c-0.5,0-1.1,0.4-1.5,1.1l-1.5-0.9c0.3-0.6,0.8-1,1.3-1.4c0.5-0.3,1.2-0.5,1.8-0.5c0.7,0,1.4,0.2,2,0.7c0.6,0.5,0.9,1.2,0.8,1.9
		c0,0.4-0.1,0.9-0.3,1.3c-0.3,0.6-0.8,1.1-1.2,1.5l-1.5,1.6h3.4v1.7h-6V213l2.5-2.6C320.2,210.1,320.5,209.6,320.8,209.2z"/>
	
		<linearGradient id="SVGID_46_" gradientUnits="userSpaceOnUse" x1="327.3665" y1="196.2" x2="327.3665" y2="187.5371" gradientTransform="matrix(1 0 0 -1 0 402.06)">
		<stop  offset="0" style="stop-color:#5E5E5E"/>
		<stop  offset="1" style="stop-color:#2E2E2E"/>
	</linearGradient>
	<path class="st48" d="M324.8,207.5v-1.6h5.2v1.3l-1.8,2c0.6,0.1,1.2,0.4,1.6,0.9c0.4,0.5,0.6,1,0.6,1.6c0,0.8-0.3,1.6-0.9,2.1
		c-0.7,0.5-1.5,0.8-2.3,0.8c-1,0-2-0.4-2.9-1l0.8-1.5c0.6,0.5,1.4,0.8,2.2,0.9c0.4,0,0.7-0.1,1-0.3c0.2-0.2,0.4-0.5,0.4-0.8
		c0-0.3-0.2-0.7-0.4-0.9c-0.4-0.2-0.8-0.3-1.2-0.3c-0.4,0-0.8,0.1-1.1,0.2v-1.4l1.6-1.9H324.8z"/>
	
		<linearGradient id="SVGID_47_" gradientUnits="userSpaceOnUse" x1="334.725" y1="196.2" x2="334.725" y2="187.63" gradientTransform="matrix(1 0 0 -1 0 402.06)">
		<stop  offset="0" style="stop-color:#5E5E5E"/>
		<stop  offset="1" style="stop-color:#2E2E2E"/>
	</linearGradient>
	<path class="st49" d="M335,210.7v-1.5h1.8v1.5h1v1.7h-1v2H335v-2h-3.5v-1.5l3-5.1h2.1l-2.9,4.9L335,210.7z"/>
	
		<linearGradient id="SVGID_48_" gradientUnits="userSpaceOnUse" x1="300.32" y1="191.645" x2="305.37" y2="191.645" gradientTransform="matrix(1 0 0 -1 0 402.06)">
		<stop  offset="0" style="stop-color:#5E5E5E"/>
		<stop  offset="1" style="stop-color:#2E2E2E"/>
	</linearGradient>
	<path class="st50" d="M300.3,211.4v-1.9h5v1.9H300.3z"/>
</g>
</svg>
