<?xml version="1.0" encoding="utf-8"?>
<!-- Generator: Adobe Illustrator 21.0.0, SVG Export Plug-In . SVG Version: 6.00 Build 0)  -->
<svg version="1.1" id="Layer_1" xmlns="http://www.w3.org/2000/svg" xmlns:xlink="http://www.w3.org/1999/xlink" x="0px" y="0px"
	 viewBox="0 0 400 400" style="enable-background:new 0 0 400 400;" xml:space="preserve">
<style type="text/css">
	.st0{opacity:0.25;}
	.st1{opacity:0.4;fill:url(#SVGID_1_);enable-background:new    ;}
	.st2{opacity:0.6;fill:url(#SVGID_2_);enable-background:new    ;}
	.st3{opacity:0.5;fill:url(#SVGID_3_);enable-background:new    ;}
	.st4{opacity:0.3;fill:url(#SVGID_4_);enable-background:new    ;}
	.st5{opacity:0.5;fill:url(#SVGID_5_);enable-background:new    ;}
	.st6{opacity:0.2;fill:url(#SVGID_6_);enable-background:new    ;}
	.st7{opacity:0.5;fill:url(#SVGID_7_);enable-background:new    ;}
	.st8{fill:url(#SVGID_8_);}
	.st9{opacity:0.4;}
	.st10{opacity:0.6;fill:url(#SVGID_9_);enable-background:new    ;}
	.st11{opacity:0.6;fill:url(#SVGID_10_);enable-background:new    ;}
	.st12{opacity:0.6;fill:url(#SVGID_11_);enable-background:new    ;}
	.st13{fill:url(#SVGID_12_);}
	.st14{fill:url(#SVGID_13_);}
	.st15{fill:url(#SVGID_14_);}
	.st16{opacity:0.28;fill:url(#SVGID_15_);enable-background:new    ;}
	.st17{fill:url(#SVGID_16_);}
	.st18{fill:#FFFFFF;}
	.st19{opacity:0.6;fill:url(#SVGID_17_);enable-background:new    ;}
	.st20{fill:#EAEAEA;}
	.st21{fill:#999999;}
	.st22{fill:none;stroke:#FFFFFF;stroke-width:0.339;stroke-miterlimit:10;}
	.st23{fill:url(#SVGID_18_);}
	.st24{fill:url(#SVGID_19_);}
	.st25{opacity:4.000000e-02;fill:url(#SVGID_20_);enable-background:new    ;}
	.st26{opacity:4.000000e-02;fill:url(#SVGID_21_);enable-background:new    ;}
	.st27{fill:url(#SVGID_22_);}
	.st28{opacity:4.000000e-02;fill:url(#SVGID_23_);enable-background:new    ;}
	.st29{fill:url(#SVGID_24_);}
	.st30{fill:url(#SVGID_25_);}
	.st31{opacity:0.3;fill:url(#SVGID_26_);enable-background:new    ;}
	.st32{fill:url(#SVGID_27_);}
	.st33{fill:url(#SVGID_28_);}
	.st34{opacity:0.29;enable-background:new    ;}
	.st35{fill:#00ACF0;}
</style>
<title>Il_Scrape</title>
<g id="Permission">
	<g class="st0">
		
			<linearGradient id="SVGID_1_" gradientUnits="userSpaceOnUse" x1="-5835.5474" y1="529.8234" x2="-5835.5474" y2="486.8687" gradientTransform="matrix(-1 0 0 1 -5637.0601 -244)">
			<stop  offset="0" style="stop-color:#FFFFFF;stop-opacity:0"/>
			<stop  offset="0.88" style="stop-color:#000000"/>
		</linearGradient>
		<path class="st1" d="M40.7,285.8h315.6c0,0-62.4-14.1-97.6-26.5c-13-4.6-24.9-10.1-36.7-13.3c-26.9-7.4-67.3-0.7-104.8,10.7
			C102.4,261.1,40.7,285.8,40.7,285.8z"/>
		
			<linearGradient id="SVGID_2_" gradientUnits="userSpaceOnUse" x1="-5835.9302" y1="531.7919" x2="-5835.9302" y2="499.7861" gradientTransform="matrix(-1 0 0 1 -5637.0601 -244)">
			<stop  offset="0" style="stop-color:#FFFFFF;stop-opacity:0"/>
			<stop  offset="0.88" style="stop-color:#000000"/>
		</linearGradient>
		<path class="st2" d="M46.1,287.2l305.5,0.6c0,0-37.7-29-62.4-31.7c-19.4-2.1-49.4,6.3-63.4,10.9c-14,4.6-31,12.2-52.4,13.3
			c-34.7,1.8-41.8-21.1-64-17.6C85.3,266.4,46.1,287.2,46.1,287.2z"/>
		
			<linearGradient id="SVGID_3_" gradientUnits="userSpaceOnUse" x1="-5717.9609" y1="530.8915" x2="-5717.9609" y2="508.8543" gradientTransform="matrix(-1 0 0 1 -5637.0601 -244)">
			<stop  offset="0" style="stop-color:#FFFFFF;stop-opacity:0"/>
			<stop  offset="0.12" style="stop-color:#777777;stop-opacity:0.53"/>
			<stop  offset="0.88" style="stop-color:#000000"/>
		</linearGradient>
		<path class="st3" d="M73.9,271.9c0-3.9,3.2-7,7-7s7,3.2,7,7c0,3.6-2.8,6.6-6.3,7v7.4c0,0.4-0.4,0.7-0.7,0.6
			c-0.3,0-0.6-0.3-0.6-0.6v-7.4C76.6,278.5,73.9,275.5,73.9,271.9z"/>
		
			<linearGradient id="SVGID_4_" gradientUnits="userSpaceOnUse" x1="-5760.645" y1="480.412" x2="-5760.645" y2="472.3736" gradientTransform="matrix(-1 0 0 1 -5637.0601 -244)">
			<stop  offset="0" style="stop-color:#FFFFFF;stop-opacity:0"/>
			<stop  offset="0.12" style="stop-color:#777777;stop-opacity:0.53"/>
			<stop  offset="0.88" style="stop-color:#000000"/>
		</linearGradient>
		<path class="st4" d="M116.8,234.6c0-0.9,0.8-1.7,1.7-1.7c-0.4-2,0.9-4,3-4.4c1.7-0.3,3.4,0.5,4.2,2.2c1.5-0.9,3.4-0.4,4.3,1.1
			c0.9,1.5,0.4,3.4-1.1,4.3c-0.5,0.3-1,0.4-1.6,0.4h-8.8C117.5,236.4,116.8,235.6,116.8,234.6z"/>
		
			<linearGradient id="SVGID_5_" gradientUnits="userSpaceOnUse" x1="-5743.0967" y1="530.8806" x2="-5743.0967" y2="518.0704" gradientTransform="matrix(-1 0 0 1 -5637.0601 -244)">
			<stop  offset="0" style="stop-color:#FFFFFF;stop-opacity:0"/>
			<stop  offset="0.12" style="stop-color:#777777;stop-opacity:0.53"/>
			<stop  offset="0.88" style="stop-color:#000000"/>
		</linearGradient>
		<path class="st5" d="M102,278.2c0-2.3,1.8-4.1,4.1-4.1c2.3,0,4.1,1.8,4.1,4.1c0,2.1-1.6,3.9-3.7,4v4.3c0,0.2-0.2,0.4-0.4,0.4
			s-0.4-0.2-0.4-0.4l0,0v-4.3C103.5,282,101.9,280.2,102,278.2z"/>
		
			<linearGradient id="SVGID_6_" gradientUnits="userSpaceOnUse" x1="-5907.5527" y1="491.9099" x2="-5907.5527" y2="481.9212" gradientTransform="matrix(-1 0 0 1 -5637.0601 -244)">
			<stop  offset="0" style="stop-color:#FFFFFF;stop-opacity:0"/>
			<stop  offset="0.12" style="stop-color:#777777;stop-opacity:0.53"/>
			<stop  offset="0.88" style="stop-color:#000000"/>
		</linearGradient>
		<path class="st6" d="M262.1,245.7c0-1.2,0.9-2.2,2.2-2.2c-0.5-2.6,1.1-5,3.7-5.5c2.2-0.4,4.3,0.7,5.2,2.7c1.9-1.1,4.2-0.5,5.3,1.4
			s0.5,4.2-1.4,5.3c-0.6,0.4-1.3,0.5-2,0.5h-10.9l0,0C263,247.8,262.1,246.9,262.1,245.7z"/>
		
			<linearGradient id="SVGID_7_" gradientUnits="userSpaceOnUse" x1="-5966.2754" y1="531.7919" x2="-5966.2754" y2="512.0696" gradientTransform="matrix(-1 0 0 1 -5637.0601 -244)">
			<stop  offset="0" style="stop-color:#FFFFFF;stop-opacity:0"/>
			<stop  offset="0.12" style="stop-color:#777777;stop-opacity:0.53"/>
			<stop  offset="0.88" style="stop-color:#000000"/>
		</linearGradient>
		<path class="st7" d="M322.9,274.3c0-3.5,2.8-6.3,6.3-6.3s6.3,2.8,6.3,6.3c0,3.2-2.4,5.9-5.7,6.2v6.6c0,0.3-0.3,0.6-0.6,0.6
			s-0.6-0.3-0.6-0.6v-6.6C325.4,280.3,322.9,277.6,322.9,274.3z"/>
	</g>
	
		<linearGradient id="SVGID_8_" gradientUnits="userSpaceOnUse" x1="68.7587" y1="404.4977" x2="68.7587" y2="422.4179" gradientTransform="matrix(1 -4.886902e-03 4.886902e-03 1 20.7696 -241.9095)">
		<stop  offset="0" style="stop-color:#FFFFFF"/>
		<stop  offset="1" style="stop-color:#E5E5E5"/>
	</linearGradient>
	<path class="st8" d="M106.7,176.2c0-2.2-1.7-3.9-3.9-3.9c0.9-4.6-2.1-9-6.7-9.8c-3.9-0.7-7.7,1.3-9.3,4.8c-3.3-1.9-7.6-0.8-9.5,2.5
		c-1.9,3.3-0.8,7.6,2.5,9.5c1.1,0.6,2.3,0.9,3.5,0.9l19.6-0.1l0,0C105.1,180,106.7,178.2,106.7,176.2z"/>
	<g class="st9">
		
			<linearGradient id="SVGID_9_" gradientUnits="userSpaceOnUse" x1="124.4648" y1="391.8768" x2="124.4648" y2="385.8654" gradientTransform="matrix(1 0 0 1 0 -244)">
			<stop  offset="0" style="stop-color:#2B3154;stop-opacity:0"/>
			<stop  offset="4.000000e-02" style="stop-color:#2B3254;stop-opacity:0.1"/>
			<stop  offset="0.18" style="stop-color:#2A3554;stop-opacity:0.42"/>
			<stop  offset="0.33" style="stop-color:#2A3853;stop-opacity:0.68"/>
			<stop  offset="0.5" style="stop-color:#293A53;stop-opacity:0.86"/>
			<stop  offset="0.7" style="stop-color:#293B53;stop-opacity:0.97"/>
			<stop  offset="1" style="stop-color:#293B53"/>
		</linearGradient>
		<path class="st10" d="M133.7,145.1l1.3-3.2h-1.5l-2.5,3.2h-5.1l1.2-1h-1.2l-2.6,1h-7.9c-0.8,0-1.4,0.6-1.4,1.4s0.6,1.4,1.4,1.4h18
			c0.8,0,1.4-0.6,1.4-1.4C134.7,145.8,134.3,145.3,133.7,145.1L133.7,145.1z"/>
		
			<linearGradient id="SVGID_10_" gradientUnits="userSpaceOnUse" x1="137.3153" y1="391.3774" x2="137.3153" y2="389.4197" gradientTransform="matrix(1 0 0 1 0 -244)">
			<stop  offset="0" style="stop-color:#2B3154;stop-opacity:0"/>
			<stop  offset="4.000000e-02" style="stop-color:#2B3254;stop-opacity:0.1"/>
			<stop  offset="0.18" style="stop-color:#2A3554;stop-opacity:0.42"/>
			<stop  offset="0.33" style="stop-color:#2A3853;stop-opacity:0.68"/>
			<stop  offset="0.5" style="stop-color:#293A53;stop-opacity:0.86"/>
			<stop  offset="0.7" style="stop-color:#293B53;stop-opacity:0.97"/>
			<stop  offset="1" style="stop-color:#293B53"/>
		</linearGradient>
		<circle class="st11" cx="137.3" cy="146.4" r="1"/>
		
			<linearGradient id="SVGID_11_" gradientUnits="userSpaceOnUse" x1="139.9765" y1="391.1805" x2="139.9765" y2="389.9811" gradientTransform="matrix(1 0 0 1 0 -244)">
			<stop  offset="0" style="stop-color:#2B3154;stop-opacity:0"/>
			<stop  offset="4.000000e-02" style="stop-color:#2B3254;stop-opacity:0.1"/>
			<stop  offset="0.18" style="stop-color:#2A3554;stop-opacity:0.42"/>
			<stop  offset="0.33" style="stop-color:#2A3853;stop-opacity:0.68"/>
			<stop  offset="0.5" style="stop-color:#293A53;stop-opacity:0.86"/>
			<stop  offset="0.7" style="stop-color:#293B53;stop-opacity:0.97"/>
			<stop  offset="1" style="stop-color:#293B53"/>
		</linearGradient>
		<circle class="st12" cx="140" cy="146.6" r="0.6"/>
	</g>
	
		<linearGradient id="SVGID_12_" gradientUnits="userSpaceOnUse" x1="305.7019" y1="366.7227" x2="305.7019" y2="329.7571" gradientTransform="matrix(1 0 0 1 0 -244)">
		<stop  offset="0" style="stop-color:#ECC41C"/>
		<stop  offset="0.99" style="stop-color:#DDE93C"/>
	</linearGradient>
	<circle class="st13" cx="305.7" cy="104.2" r="18.5"/>
	
		<linearGradient id="SVGID_13_" gradientUnits="userSpaceOnUse" x1="297.8858" y1="345.088" x2="297.8858" y2="368.5666" gradientTransform="matrix(1 -4.886902e-03 4.886902e-03 1 20.7696 -241.9095)">
		<stop  offset="0" style="stop-color:#FFFFFF"/>
		<stop  offset="1" style="stop-color:#E5E5E5"/>
	</linearGradient>
	<path class="st14" d="M340.3,120c0-2.8-2.3-5.1-5.1-5.1c1.2-6-2.8-11.8-8.7-12.9c-5-1-10.1,1.7-12.2,6.4c-4.3-2.6-9.9-1.1-12.5,3.3
		c-2.6,4.3-1.1,9.9,3.3,12.5c1.4,0.8,3,1.3,4.7,1.2l25.7-0.1l0,0C338.2,125,340.3,122.7,340.3,120z"/>
	
		<linearGradient id="SVGID_14_" gradientUnits="userSpaceOnUse" x1="274.7107" y1="355.4147" x2="274.7107" y2="373.3236" gradientTransform="matrix(1 -4.886902e-03 4.886902e-03 1 20.7696 -241.9095)">
		<stop  offset="0" style="stop-color:#FFFFFF"/>
		<stop  offset="1" style="stop-color:#E5E5E5"/>
	</linearGradient>
	<path class="st15" d="M312.4,126.1c0-2.2-1.7-3.9-3.9-3.9c0.9-4.6-2.1-9-6.7-9.8c-3.9-0.7-7.7,1.3-9.3,4.8
		c-3.3-1.9-7.6-0.8-9.5,2.5c-1.9,3.3-0.8,7.6,2.5,9.5c1.1,0.6,2.3,0.9,3.6,0.9l19.6-0.1l0,0C310.8,129.9,312.4,128.2,312.4,126.1z"
		/>
	
		<linearGradient id="SVGID_15_" gradientUnits="userSpaceOnUse" x1="197.4664" y1="552.2798" x2="197.4664" y2="543.7493" gradientTransform="matrix(1 0 0 1 0 -244)">
		<stop  offset="0" style="stop-color:#2B3154;stop-opacity:0"/>
		<stop  offset="0.3" style="stop-color:#2A3654;stop-opacity:0.23"/>
		<stop  offset="0.36" style="stop-color:#2A3754;stop-opacity:0.27"/>
		<stop  offset="0.7" style="stop-color:#293A53;stop-opacity:0.44"/>
		<stop  offset="1" style="stop-color:#293B53;stop-opacity:0.5"/>
	</linearGradient>
	<path class="st16" d="M144.5,299.7h105.9c2.3,0,4.2,1.9,4.2,4.2v0.1c0,2.3-1.9,4.2-4.2,4.2H144.5c-2.3,0-4.2-1.9-4.2-4.2v-0.1
		C140.3,301.6,142.2,299.7,144.5,299.7z"/>
	
		<linearGradient id="SVGID_16_" gradientUnits="userSpaceOnUse" x1="311.9713" y1="476.798" x2="376.3565" y2="476.798" gradientTransform="matrix(0.9521 0.3059 -0.3059 0.9521 79.1118 -378.2189)">
		<stop  offset="0" style="stop-color:#1E8239"/>
		<stop  offset="1" style="stop-color:#2B9428"/>
	</linearGradient>
	<path class="st17" d="M243.9,171c1.8,11.2,7.1,21.6,15.2,29.6l9.9-5.1c1.2-0.6,2.6-0.5,3.7,0.3c3.5,2.6,7.4,4.5,11.5,5.8
		c1.9,0.6,2.9,2.6,2.3,4.5v0l-3.9,11.9c-0.6,1.9-2.6,2.9-4.5,2.3h0c-32-10.2-49.5-44.5-39.3-76.4l0,0c0.6-1.9,2.6-2.9,4.5-2.3l0,0
		l12,3.8c1.9,0.6,2.9,2.6,2.3,4.5v0c-1.3,4.1-2,8.4-2,12.8c0,1.3-0.8,2.6-1.9,3.2L243.9,171z"/>
	<path class="st18" d="M199.5,240.5l20.9-45.7c0.9-2,3.3-2.9,5.4-2l80.4,36.7c2,0.9,2.9,3.3,2,5.4l-20.9,45.7c-0.9,2-3.3,2.9-5.4,2
		l-80.4-36.7C199.5,244.9,198.6,242.5,199.5,240.5z"/>
	
		<linearGradient id="SVGID_17_" gradientUnits="userSpaceOnUse" x1="403.8461" y1="613.6788" x2="403.8461" y2="672.0159" gradientTransform="matrix(0.9097 0.4153 -0.4153 0.9097 153.4225 -514.8692)">
		<stop  offset="0" style="stop-color:#2CA7E0"/>
		<stop  offset="0.28" style="stop-color:#2BA4DC"/>
		<stop  offset="0.56" style="stop-color:#289CD0"/>
		<stop  offset="0.84" style="stop-color:#228FBC"/>
		<stop  offset="1" style="stop-color:#1E85AD"/>
	</linearGradient>
	<path class="st19" d="M199.5,240.5l20.9-45.7c0.9-2,3.3-2.9,5.4-2l80.4,36.7c2,0.9,2.9,3.3,2,5.4l-20.9,45.7c-0.9,2-3.3,2.9-5.4,2
		l-80.4-36.7C199.5,244.9,198.6,242.5,199.5,240.5z"/>
	<path class="st20" d="M290.9,259.4c-0.9,2-3.3,2.9-5.3,2l-10.4-4.7c-2-0.9-2.9-3.3-2-5.4l6.9-15.1c0.9-2,3.3-2.9,5.4-2l10.4,4.7
		c2,0.9,2.9,3.3,2,5.4L290.9,259.4z"/>
	<path class="st21" d="M286.1,251.6c-0.4-0.5,0.1-1,0.5-1.1c0.5-0.2,1.4-1.2,1.4-1.2c0.5,0,1.1-0.3,1.3-0.7c0.7-0.8,0.1-1.3,0.1-1.3
		s1.3-1.3,1.4-2.8c0.1-1.9-2.2-3.7-3.4-2.4c-2.8-2.1-4.1,2.4-4.1,2.4s-0.8-0.2-0.9,0.9c-0.2,0.5-0.1,1.1,0.3,1.5
		c0,0-0.1,1.3,0.1,1.9c0.1,0.4,0.2,1.1-0.5,1.1c-1.4,0.1-4.8-1.3-6.1,1.3L289,257C290.2,254.4,286.9,252.7,286.1,251.6z"/>
	<path class="st20" d="M280.4,225.9c-0.4,1-1.6,1.4-2.6,0.9l-27.7-12.6c-1-0.4-1.4-1.6-1-2.6l0,0l0,0c0.4-1,1.6-1.4,2.6-0.9
		l27.7,12.6C280.4,223.7,280.9,224.9,280.4,225.9L280.4,225.9z"/>
	<path class="st20" d="M267.6,230c-0.4,0.9-1.5,1.3-2.4,0.9l0,0L221.7,211c-0.9-0.4-1.3-1.5-0.9-2.4l0,0l0,0
		c0.4-0.9,1.5-1.3,2.4-0.9l0,0l43.5,19.9C267.6,228,268,229.1,267.6,230L267.6,230L267.6,230z"/>
	<path class="st20" d="M252.5,232.2c-0.4,0.8-1.3,1.2-2.2,0.8l-32.1-14.7c-0.8-0.4-1.2-1.3-0.8-2.2l0,0c0.4-0.8,1.3-1.2,2.2-0.8
		l32.1,14.7C252.5,230.4,252.9,231.4,252.5,232.2z"/>
	<path class="st20" d="M248.8,240.4c-0.4,0.8-1.3,1.2-2.1,0.8l-32.2-14.7c-0.8-0.4-1.2-1.3-0.8-2.2l0,0c0.4-0.8,1.3-1.2,2.1-0.8
		l32.2,14.7C248.8,238.7,249.1,239.6,248.8,240.4L248.8,240.4z"/>
	<path class="st22" d="M266.9,266.6c3.8,1.3,10.2,1.1,12.4-2.7c-1.6-1.6-7.1-0.8-7,2.1c0.1,3.2,5.3,2.5,7.4,1.9
		c-1.4,0-2.6,0.6-1.9,1.8c0.5,0.9,2.5,0.4,3.3,1c1.3,1,0.2,2.8,2.4,3.5"/>
	
		<linearGradient id="SVGID_18_" gradientUnits="userSpaceOnUse" x1="-29.056" y1="330.6624" x2="41.4873" y2="330.6624" gradientTransform="matrix(0.9379 -0.3469 0.3469 0.9379 27.1503 -115.1642)">
		<stop  offset="0" style="stop-color:#4775B9"/>
		<stop  offset="0.45" style="stop-color:#4479BC"/>
		<stop  offset="0.87" style="stop-color:#3D84C5"/>
		<stop  offset="1" style="stop-color:#3989C9"/>
	</linearGradient>
	<path class="st23" d="M135.5,159.7c-18.3,6.7-27.6,27-20.9,45.3c6.7,18.3,27,27.6,45.3,20.9s27.6-27,20.9-45.3
		C174,162.3,153.7,153,135.5,159.7z M120.4,205.7l12.1-4.5c1.2,2.9,2.6,5.8,4.1,8.5l-10.8,4C123.7,211.3,121.8,208.6,120.4,205.7
		L120.4,205.7z M144.2,175.9l-4.2-11.4c3.2,0.7,7.1,3.8,10.9,9L144.2,175.9z M153.8,177.8c1.6,2.7,3,5.5,4.2,8.4l-8.7,3.2l-3.2-8.8
		L153.8,177.8z M135.1,166.2l4.2,11.4l-6.7,2.5C132.2,173.8,133.2,168.8,135.1,166.2z M141.1,182.5l3.2,8.8l-8.7,3.2
		c-1-3-1.8-6.1-2.3-9.2L141.1,182.5z M130.8,196.3l-12.1,4.5c-0.9-3.1-1.2-6.4-1-9.6l10.8-4C129,190.3,129.8,193.3,130.8,196.3z
		 M137.4,199.4l8.7-3.2l3.2,8.8l-7.8,2.9C140,205.1,138.6,202.3,137.4,199.4L137.4,199.4z M151.2,209.8l4.2,11.4
		c-3.2-0.7-7.1-3.8-10.9-9L151.2,209.8z M160.3,219.4l-4.2-11.4l6.7-2.5C163.2,211.9,162.3,216.9,160.3,219.4L160.3,219.4z
		 M154.3,203.1l-3.2-8.8l8.7-3.2c1,3,1.8,6.1,2.3,9.2L154.3,203.1z M164.6,189.3l12.1-4.5c0.9,3.1,1.2,6.4,1,9.6l-10.8,4
		C166.4,195.4,165.6,192.3,164.6,189.3z M162.8,184.5c-1.2-2.9-2.6-5.8-4.1-8.5l10.8-4c2.3,2.3,4.1,5,5.5,8L162.8,184.5z M165,168.2
		l-9.1,3.4c-1.4-2-3-4-4.7-5.8c-1.1-1.1-2.2-2.2-3.5-3.1C153.9,162.7,160,164.6,165,168.2L165,168.2z M128.1,169.9
		c-0.3,1.5-0.5,3-0.6,4.6c-0.1,2.5-0.1,5,0.2,7.5l-9.1,3.4C120.1,179.4,123.4,174,128.1,169.9L128.1,169.9z M130.4,217.5l9.1-3.4
		c1.4,2,3,4,4.7,5.8c1.1,1.1,2.2,2.2,3.5,3.1C141.5,222.9,135.5,221,130.4,217.5L130.4,217.5z M167.3,215.7c0.3-1.5,0.5-3,0.6-4.6
		c0.1-2.5,0.1-5-0.2-7.5l9.1-3.4C175.3,206.3,172,211.6,167.3,215.7L167.3,215.7z"/>
	
		<linearGradient id="SVGID_19_" gradientUnits="userSpaceOnUse" x1="72.6398" y1="-15.6217" x2="72.6398" y2="33.3101" gradientTransform="matrix(0.8472 -0.5313 0.5313 0.8472 67.2846 290.1841)">
		<stop  offset="0" style="stop-color:#F3D286"/>
		<stop  offset="1" style="stop-color:#F3E4A8"/>
	</linearGradient>
	<path class="st24" d="M151.2,220.8l24.5,39.1c0.4,0.7,0.2,1.5-0.4,1.9l0,0l-57.6,36.1c-0.7,0.4-1.5,0.2-1.9-0.4l0,0l-24.5-39.1
		c-0.4-0.7-0.2-1.5,0.4-1.9l0,0l57.6-36.1l0,0C150,219.9,150.8,220.1,151.2,220.8z"/>
	
		<linearGradient id="SVGID_20_" gradientUnits="userSpaceOnUse" x1="133.5239" y1="542.065" x2="133.5239" y2="464.1019" gradientTransform="matrix(1 0 0 1 0 -244)">
		<stop  offset="0" style="stop-color:#24252E"/>
		<stop  offset="1" style="stop-color:#000000"/>
	</linearGradient>
	<path class="st25" d="M151.2,220.8l24.5,39.1c0.4,0.7,0.2,1.5-0.4,1.9l0,0l-57.6,36.1c-0.7,0.4-1.5,0.2-1.9-0.4l0,0l-24.5-39.1
		c-0.4-0.7-0.2-1.5,0.4-1.9l0,0l57.6-36.1l0,0C150,219.9,150.8,220.1,151.2,220.8z"/>
	
		<linearGradient id="SVGID_21_" gradientUnits="userSpaceOnUse" x1="92.2154" y1="-8.4724" x2="92.2154" y2="22.3433" gradientTransform="matrix(0.88 -0.55 0.55 0.88 53.03 310.72)">
		<stop  offset="0" style="stop-color:#24252E"/>
		<stop  offset="1" style="stop-color:#000000"/>
	</linearGradient>
	<path class="st26" d="M173.6,262.9l-54.1,33.9c-0.6,0.4-1.5,0.2-1.9-0.4c-0.2-0.3-0.3-0.7-0.1-1.1l11.1-41.2
		c0.3-1.1,1.4-1.9,2.6-1.6l41.9,7.9c0.7,0.1,1.2,0.8,1.1,1.5C174.1,262.3,173.9,262.6,173.6,262.9z"/>
	
		<linearGradient id="SVGID_22_" gradientUnits="userSpaceOnUse" x1="72.6391" y1="2.4605" x2="72.6391" y2="33.3101" gradientTransform="matrix(0.8472 -0.5313 0.5313 0.8472 67.2846 290.1841)">
		<stop  offset="0" style="stop-color:#F3D286"/>
		<stop  offset="1" style="stop-color:#F3E4A8"/>
	</linearGradient>
	<path class="st27" d="M175.3,261.8l-57.6,36.1l11.5-42.9c0.3-1.1,1.3-1.8,2.5-1.5L175.3,261.8z"/>
	
		<linearGradient id="SVGID_23_" gradientUnits="userSpaceOnUse" x1="120.5267" y1="482.3572" x2="137.4407" y2="509.3372" gradientTransform="matrix(1 0 0 1 0 -244)">
		<stop  offset="0" style="stop-color:#24252E"/>
		<stop  offset="1" style="stop-color:#000000"/>
	</linearGradient>
	<path class="st28" d="M91.7,256.4l43.1,9.2c2.2,0.4,4.4-0.9,5-3.1l9.5-42.2L91.7,256.4z"/>
	
		<linearGradient id="SVGID_24_" gradientUnits="userSpaceOnUse" x1="120.5208" y1="482.366" x2="136.3986" y2="507.6946" gradientTransform="matrix(1 0 0 1 0 -244)">
		<stop  offset="0" style="stop-color:#F3D286"/>
		<stop  offset="1" style="stop-color:#F3E4A8"/>
	</linearGradient>
	<path class="st29" d="M91.7,256.4l41.9,7.8c2.1,0.4,4.2-0.9,4.7-3l11-40.9L91.7,256.4z"/>
	
		<linearGradient id="SVGID_25_" gradientUnits="userSpaceOnUse" x1="197.12" y1="348.8597" x2="197.12" y2="548.0145" gradientTransform="matrix(1 0 0 1 0 -244)">
		<stop  offset="0" style="stop-color:#5E5E5E"/>
		<stop  offset="1" style="stop-color:#2E2E2E"/>
	</linearGradient>
	<path class="st30" d="M241.7,115.3v178.2c0,5.8-4.7,10.5-10.5,10.5l0,0H163c-5.8,0-10.5-4.7-10.5-10.4l0,0V115.3
		c0-5.8,4.7-10.5,10.5-10.5l0,0h68.3C237.1,104.9,241.7,109.5,241.7,115.3z"/>
	<path class="st18" d="M163,294c-4.3,0-7.8-3.5-7.8-7.8V121.8c0-4.3,3.5-7.8,7.8-7.8h68.3c4.3,0,7.8,3.5,7.8,7.8v164.4
		c0,4.3-3.5,7.8-7.8,7.8H163z"/>
	
		<linearGradient id="SVGID_26_" gradientUnits="userSpaceOnUse" x1="196.9742" y1="481.6295" x2="196.9742" y2="475.7748" gradientTransform="matrix(1 0 0 1 0 -244)">
		<stop  offset="0" style="stop-color:#13637B"/>
		<stop  offset="1" style="stop-color:#0B80A9"/>
	</linearGradient>
	<path class="st31" d="M229,234.7c0,1.6-1.3,2.9-2.9,2.9h-58.3c-1.6,0-2.9-1.3-2.9-2.9l0,0c0-1.6,1.3-2.9,2.9-2.9h58.3
		C227.7,231.8,229,233.1,229,234.7L229,234.7z"/>
	<path class="st21" d="M215.7,245.6c0,1.2-0.9,2.1-2.1,2.1H167c-1.2,0-2.1-0.9-2.1-2.1l0,0c0-1.2,0.9-2.1,2.1-2.1h46.6
		C214.7,243.5,215.7,244.4,215.7,245.6L215.7,245.6z"/>
	<path class="st21" d="M215.7,253.4c0,1.2-0.9,2.1-2.1,2.1H167c-1.2,0-2.1-0.9-2.1-2.1l0,0c0-1.2,0.9-2.1,2.1-2.1h46.6
		C214.7,251.3,215.7,252.2,215.7,253.4L215.7,253.4z"/>
	
		<linearGradient id="SVGID_27_" gradientUnits="userSpaceOnUse" x1="166.9531" y1="-74.6465" x2="227.87" y2="-74.6465" gradientTransform="matrix(1 0 0 -1 0 122)">
		<stop  offset="0" style="stop-color:#00ACF0"/>
		<stop  offset="0.9947" style="stop-color:#13637B"/>
	</linearGradient>
	<path class="st32" d="M206.3,210.7c-2.7-1.4-1.3-4.1,0-5.4c1.6-1.6,3.5-7.2,3.5-7.2c2.2-0.9,3.7-3,3.9-5.4c1.3-4.6-2.2-5.4-2.2-5.4
		s2.8-7.7,0.5-13.6c-3.1-7.7-15.5-10.5-17.6-3.3c-14.7-3.1-11.6,17.1-11.6,17.1s-3.6,0.7-2.1,5.4c0.2,2.4,1.7,4.4,4,5.4
		c0,0,2,5.5,3.6,7.1c1.3,1.2,2.7,4,0,5.4c-5.4,2.9-21.5,3.7-21.4,16.3l60.9-0.3C227.8,214.2,211.7,213.5,206.3,210.7z"/>
</g>
<g>
	
		<linearGradient id="SVGID_28_" gradientUnits="userSpaceOnUse" x1="207.4952" y1="-158.3733" x2="240.9292" y2="-158.3733" gradientTransform="matrix(1 0 0 -1 0 122)">
		<stop  offset="0" style="stop-color:#94273A"/>
		<stop  offset="1" style="stop-color:#C6514D"/>
	</linearGradient>
	<path class="st33" d="M240.9,270.5c0,0.1,0,0.2,0,0.3c0,0,0,0.1,0,0.1c0,0.1,0,0.3,0,0.5c0,0.1,0,0.2,0,0.3c0,0,0,0.1,0,0.1
		c0,0.1,0,0.2,0,0.3c0,0,0,0,0,0.1c0,0.1,0,0.1,0,0.2c0,0.4-0.1,0.9-0.1,1.5c0,0.1,0,0.2,0,0.3c0,0,0,0.1,0,0.1c0,0.1,0,0.1,0,0.2
		c-0.1,0.8-0.2,1.7-0.4,2.6c0,0.1,0,0.2,0,0.3c-0.2,1-0.4,2.1-0.6,3.2c0,0.1-0.1,0.3-0.1,0.5c-0.1,0.6-0.3,1.2-0.5,1.8
		c0,0.1-0.1,0.3-0.1,0.5c-0.1,0.3-0.1,0.5-0.2,0.7c0,0.1-0.1,0.3-0.1,0.5c-0.1,0.4-0.3,0.8-0.4,1.2c0,0.1-0.1,0.3-0.1,0.4
		c-0.1,0.3-0.2,0.5-0.3,0.8c-0.1,0.2-0.1,0.4-0.2,0.5c-0.1,0.2-0.1,0.4-0.3,0.6c-0.1,0.2-0.1,0.3-0.2,0.5c0,0,0,0.1,0,0.1
		c-0.1,0.1-0.1,0.3-0.2,0.5c0,0,0,0,0,0.1c-0.1,0.2-0.1,0.3-0.2,0.5c0,0,0,0,0,0.1c-0.1,0.2-0.2,0.4-0.3,0.5
		c-0.5,1.1-1.1,2.1-1.7,3.1c-0.1,0.1-0.1,0.2-0.2,0.3c-0.4,0.6-0.9,1.2-1.3,1.7c-0.1,0.1-0.1,0.1-0.2,0.3c-0.1,0.1-0.1,0.1-0.2,0.2
		c0,0-0.1,0.1-0.1,0.1c-0.1,0.1-0.1,0.1-0.2,0.2c-0.1,0.1-0.3,0.3-0.4,0.4c-0.1,0.1-0.1,0.1-0.2,0.2c-0.1,0.1-0.1,0.1-0.2,0.2
		c-0.1,0.1-0.1,0.1-0.3,0.2c-0.1,0.1-0.1,0.1-0.2,0.2c-0.1,0.1-0.1,0.1-0.2,0.2c-0.1,0.1-0.1,0.1-0.2,0.2c-0.1,0.1-0.1,0.1-0.3,0.2
		c-0.2,0.1-0.4,0.3-0.7,0.5l0,0c-0.5,0.4-1.1,0.7-1.7,1c-0.4,0.2-0.7,0.4-1.1,0.5c-0.1,0-0.3,0.1-0.4,0.1c-0.1,0-0.3,0.1-0.4,0.1
		c0,0,0,0,0,0c-0.1,0-0.3,0.1-0.4,0.1c-0.1,0-0.3,0.1-0.4,0.1c-0.1,0-0.2,0-0.3,0.1c0,0-0.1,0-0.1,0c0,0-0.1,0-0.1,0l0,0
		c-0.1,0-0.2,0-0.3,0c-0.1,0-0.3,0-0.4,0c-13.7-3.1-15.9-24.7-16.3-30.2c0-0.8,0.4-1.5,1.1-1.9l14.7-8.2c0.3-0.2,0.7-0.3,1-0.3
		c0.3,0,0.7,0.1,1,0.3l14.7,8.2C240.6,269,241,269.7,240.9,270.5z"/>
	<path class="st34" d="M240.9,270.5c0,0.1,0,0.2,0,0.3c0,0,0,0.1,0,0.1c0,0.1,0,0.3,0,0.5c0,0.1,0,0.2,0,0.3c0,0,0,0.1,0,0.1
		c0,0.1,0,0.2,0,0.3c0,0,0,0,0,0.1c0,0.1,0,0.1,0,0.2c0,0.4-0.1,0.9-0.1,1.5c0,0.1,0,0.2,0,0.3c0,0,0,0.1,0,0.1c0,0.1,0,0.1,0,0.2
		c-0.1,0.8-0.2,1.7-0.4,2.6c0,0.1,0,0.2,0,0.3c-0.2,1-0.4,2.1-0.6,3.2c0,0.1-0.1,0.3-0.1,0.5c-0.1,0.6-0.3,1.2-0.5,1.8
		c0,0.1-0.1,0.3-0.1,0.5c-0.1,0.3-0.1,0.5-0.2,0.7c0,0.1-0.1,0.3-0.1,0.5c-0.1,0.4-0.3,0.8-0.4,1.2c0,0.1-0.1,0.3-0.1,0.4
		c-0.1,0.3-0.2,0.5-0.3,0.8c-0.1,0.2-0.1,0.4-0.2,0.5c-0.1,0.2-0.1,0.4-0.3,0.6c-0.1,0.2-0.1,0.3-0.2,0.5c0,0,0,0.1,0,0.1
		c-0.1,0.1-0.1,0.3-0.2,0.5c0,0,0,0,0,0.1c-0.1,0.2-0.1,0.3-0.2,0.5c0,0,0,0,0,0.1c-0.1,0.2-0.2,0.4-0.3,0.5
		c-0.5,1.1-1.1,2.1-1.7,3.1c-0.1,0.1-0.1,0.2-0.2,0.3c-0.4,0.6-0.9,1.2-1.3,1.7c-0.1,0.1-0.1,0.1-0.2,0.3c-0.1,0.1-0.1,0.1-0.2,0.2
		c0,0-0.1,0.1-0.1,0.1c-0.1,0.1-0.1,0.1-0.2,0.2c-0.1,0.1-0.3,0.3-0.4,0.4c-0.1,0.1-0.1,0.1-0.2,0.2c-0.1,0.1-0.1,0.1-0.2,0.2
		c-0.1,0.1-0.1,0.1-0.3,0.2c-0.1,0.1-0.1,0.1-0.2,0.2c-0.1,0.1-0.1,0.1-0.2,0.2c-0.1,0.1-0.1,0.1-0.2,0.2c-0.1,0.1-0.1,0.1-0.3,0.2
		c-0.2,0.1-0.4,0.3-0.7,0.5l0,0c-0.5,0.4-1.1,0.7-1.7,1c-0.4,0.2-0.7,0.4-1.1,0.5c-0.1,0-0.3,0.1-0.4,0.1c-0.1,0-0.3,0.1-0.4,0.1
		c0,0,0,0,0,0c-0.1,0-0.3,0.1-0.4,0.1c-0.1,0-0.3,0.1-0.4,0.1c-0.1,0-0.2,0-0.3,0.1c-0.1,0-0.1,0-0.2,0l0,0c-0.1,0-0.2,0-0.3,0.1
		v-40.5c0.3,0,0.7,0.1,1,0.3l14.7,8.2C240.6,268.9,241,269.7,240.9,270.5z"/>
	<path class="st34" d="M239.4,281c-1.4,6.2-4.1,13.2-9.2,17.1c-2.4-0.4-4.4-1.6-5.9-3.4c-1.6-1.8-2.5-4.1-2.5-6.7
		c0-2.6,0.9-4.9,2.5-6.7c1.9-2.2,4.6-3.5,7.7-3.5C234.9,277.8,237.5,279,239.4,281z"/>
	<circle class="st18" cx="233.2" cy="287.2" r="10.2"/>
	<path class="st35" d="M226.3,287L226.3,287c0.5-0.5,1.3-0.5,1.9,0l2.7,2.7c0.1,0.1,0.4,0.1,0.5,0l7-7c0.5-0.5,1.3-0.5,1.9,0l0,0
		c0.5,0.5,0.5,1.3,0,1.9l-7.9,7.9c-0.7,0.7-1.8,0.7-2.5,0l-3.5-3.5C225.8,288.4,225.8,287.5,226.3,287z"/>
</g>
</svg>
