<?xml version="1.0" encoding="utf-8"?>
<!-- Generator: Adobe Illustrator 21.0.0, SVG Export Plug-In . SVG Version: 6.00 Build 0)  -->
<svg version="1.1" id="Layer_1" xmlns="http://www.w3.org/2000/svg" xmlns:xlink="http://www.w3.org/1999/xlink" x="0px" y="0px"
	 viewBox="0 0 400 400" style="enable-background:new 0 0 400 400;" xml:space="preserve">
<style type="text/css">
	.st0{opacity:0.3;}
	.st1{opacity:0.4;fill:url(#SVGID_1_);enable-background:new    ;}
	.st2{opacity:0.6;fill:url(#SVGID_2_);enable-background:new    ;}
	.st3{opacity:0.5;fill:url(#SVGID_3_);enable-background:new    ;}
	.st4{opacity:0.3;fill:url(#SVGID_4_);enable-background:new    ;}
	.st5{opacity:0.5;fill:url(#SVGID_5_);enable-background:new    ;}
	.st6{opacity:0.2;fill:url(#SVGID_6_);enable-background:new    ;}
	.st7{opacity:0.5;fill:url(#SVGID_7_);enable-background:new    ;}
	.st8{opacity:0.4;fill:url(#SVGID_8_);enable-background:new    ;}
	.st9{opacity:0.1;fill:url(#SVGID_9_);enable-background:new    ;}
	.st10{opacity:0.1;fill:url(#SVGID_10_);enable-background:new    ;}
	.st11{opacity:0.1;fill:url(#SVGID_11_);enable-background:new    ;}
	.st12{opacity:0.1;fill:url(#SVGID_12_);enable-background:new    ;}
	.st13{fill:url(#SVGID_13_);}
	.st14{fill:url(#SVGID_14_);}
	.st15{fill:url(#SVGID_15_);}
	.st16{fill:url(#SVGID_16_);}
	.st17{fill:url(#SVGID_17_);}
	.st18{fill:url(#SVGID_18_);}
	.st19{fill:url(#SVGID_19_);}
	.st20{opacity:0.1;enable-background:new    ;}
	.st21{fill:url(#SVGID_20_);}
	.st22{fill:#DFBD12;}
	.st23{fill:url(#SVGID_21_);}
	.st24{fill:url(#SVGID_22_);}
	.st25{fill:url(#SVGID_23_);}
	.st26{fill:url(#SVGID_24_);}
	.st27{fill:url(#SVGID_25_);}
	.st28{fill:url(#SVGID_26_);}
	.st29{fill:url(#SVGID_27_);}
	.st30{fill:#A9D3A9;}
	.st31{opacity:0.4;}
	.st32{fill:url(#SVGID_28_);}
	.st33{opacity:0.2;}
	.st34{fill:url(#SVGID_29_);}
	.st35{opacity:0.5;}
	.st36{fill:url(#SVGID_30_);}
	.st37{opacity:0.4;fill:url(#SVGID_31_);enable-background:new    ;}
	.st38{opacity:0.5;fill:url(#SVGID_32_);enable-background:new    ;}
	.st39{opacity:0.5;fill:url(#SVGID_33_);enable-background:new    ;}
	.st40{opacity:0.6;fill:url(#SVGID_34_);enable-background:new    ;}
	.st41{opacity:0.4;fill:url(#SVGID_35_);enable-background:new    ;}
	.st42{opacity:0.6;fill:url(#SVGID_36_);enable-background:new    ;}
	.st43{fill:url(#SVGID_37_);}
	.st44{fill:url(#SVGID_38_);}
	.st45{opacity:0.6;}
	.st46{fill:url(#SVGID_39_);}
	.st47{opacity:0.5;fill:url(#SVGID_40_);enable-background:new    ;}
	.st48{opacity:0.5;fill:url(#SVGID_41_);enable-background:new    ;}
	.st49{opacity:0.6;fill:url(#SVGID_42_);enable-background:new    ;}
	.st50{opacity:0.4;fill:url(#SVGID_43_);enable-background:new    ;}
</style>
<title>il_Selamat</title>
<g>
	<g id="Splash">
		<g class="st0">
			
				<linearGradient id="SVGID_1_" gradientUnits="userSpaceOnUse" x1="-79.4399" y1="125.0639" x2="-79.4399" y2="164.1896" gradientTransform="matrix(-1 0 0 -1 120.5601 400)">
				<stop  offset="0" style="stop-color:#FFFFFF;stop-opacity:0"/>
				<stop  offset="0.88" style="stop-color:#000000"/>
			</linearGradient>
			<path class="st1" d="M56.3,274.9h287.5c0,0-56.8-12.8-88.9-24.2c-11.8-4.2-22.7-9.2-33.4-12.1c-24.5-6.7-61.3-0.6-95.4,9.7
				C112.5,252.4,56.3,274.9,56.3,274.9z"/>
			
				<linearGradient id="SVGID_2_" gradientUnits="userSpaceOnUse" x1="-79.8102" y1="123.3008" x2="-79.8102" y2="152.4514" gradientTransform="matrix(-1 0 0 -1 120.5601 400)">
				<stop  offset="0" style="stop-color:#FFFFFF;stop-opacity:0"/>
				<stop  offset="0.88" style="stop-color:#000000"/>
			</linearGradient>
			<path class="st2" d="M61.3,276.2l278.2,0.5c0,0-34.3-26.4-56.9-28.9c-17.7-1.9-44.9,5.7-57.7,9.9c-12.7,4.2-28.2,11.1-47.7,12.1
				c-31.7,1.6-38-19.3-58.3-16.1C96.9,257.2,61.3,276.2,61.3,276.2z"/>
			
				<linearGradient id="SVGID_3_" gradientUnits="userSpaceOnUse" x1="27.6321" y1="124.101" x2="27.6321" y2="144.1723" gradientTransform="matrix(-1 0 0 -1 120.5601 400)">
				<stop  offset="0" style="stop-color:#FFFFFF;stop-opacity:0"/>
				<stop  offset="0.12" style="stop-color:#777777;stop-opacity:0.53"/>
				<stop  offset="0.88" style="stop-color:#000000"/>
			</linearGradient>
			<path class="st3" d="M86.5,262.2c0-3.5,2.9-6.4,6.4-6.4c3.5,0,6.4,2.9,6.4,6.4c0,3.3-2.5,6-5.8,6.4v6.7c0,0.3-0.3,0.6-0.7,0.6
				c-0.3,0-0.6-0.3-0.6-0.6v-6.7C89,268.3,86.5,265.5,86.5,262.2z"/>
			
				<linearGradient id="SVGID_4_" gradientUnits="userSpaceOnUse" x1="-11.2419" y1="170.0774" x2="-11.2419" y2="177.3988" gradientTransform="matrix(-1 0 0 -1 120.5601 400)">
				<stop  offset="0" style="stop-color:#FFFFFF;stop-opacity:0"/>
				<stop  offset="0.12" style="stop-color:#777777;stop-opacity:0.53"/>
				<stop  offset="0.88" style="stop-color:#000000"/>
			</linearGradient>
			<path class="st4" d="M125.6,228.3c0-0.9,0.7-1.6,1.6-1.6c-0.4-1.9,0.9-3.7,2.7-4c1.6-0.3,3.1,0.5,3.8,2c1.4-0.8,3.1-0.3,3.9,1
				c0.8,1.4,0.3,3.1-1,3.9c-0.4,0.3-0.9,0.4-1.4,0.4h-8C126.3,229.9,125.6,229.2,125.6,228.3z"/>
			
				<linearGradient id="SVGID_5_" gradientUnits="userSpaceOnUse" x1="4.7684" y1="124.0967" x2="4.7684" y2="135.7658" gradientTransform="matrix(-1 0 0 -1 120.5601 400)">
				<stop  offset="0" style="stop-color:#FFFFFF;stop-opacity:0"/>
				<stop  offset="0.12" style="stop-color:#777777;stop-opacity:0.53"/>
				<stop  offset="0.88" style="stop-color:#000000"/>
			</linearGradient>
			<path class="st5" d="M112.1,267.9c0-2.1,1.7-3.7,3.7-3.7c2.1,0,3.7,1.7,3.7,3.7c0,1.9-1.5,3.5-3.4,3.7v3.9c0,0.2-0.2,0.4-0.4,0.4
				c-0.2,0-0.4-0.2-0.4-0.4c0,0,0,0,0,0v-3.9C113.5,271.4,112.1,269.9,112.1,267.9z"/>
			
				<linearGradient id="SVGID_6_" gradientUnits="userSpaceOnUse" x1="-145.0409" y1="159.5985" x2="-145.0409" y2="168.6962" gradientTransform="matrix(-1 0 0 -1 120.5601 400)">
				<stop  offset="0" style="stop-color:#FFFFFF;stop-opacity:0"/>
				<stop  offset="0.12" style="stop-color:#777777;stop-opacity:0.53"/>
				<stop  offset="0.88" style="stop-color:#000000"/>
			</linearGradient>
			<path class="st6" d="M257.9,238.4c0-1.1,0.9-2,2-2c-0.5-2.3,1-4.6,3.3-5c2-0.4,3.9,0.6,4.7,2.5c1.7-1,3.8-0.4,4.8,1.3
				c1,1.7,0.4,3.8-1.3,4.8c-0.5,0.3-1.2,0.5-1.8,0.5h-10l0,0C258.7,240.3,257.9,239.5,257.9,238.4z"/>
			
				<linearGradient id="SVGID_7_" gradientUnits="userSpaceOnUse" x1="-198.5183" y1="123.2925" x2="-198.5183" y2="141.25" gradientTransform="matrix(-1 0 0 -1 120.5601 400)">
				<stop  offset="0" style="stop-color:#FFFFFF;stop-opacity:0"/>
				<stop  offset="0.12" style="stop-color:#777777;stop-opacity:0.53"/>
				<stop  offset="0.88" style="stop-color:#000000"/>
			</linearGradient>
			<path class="st7" d="M313.4,264.5c0-3.2,2.6-5.7,5.7-5.7c3.2,0,5.7,2.6,5.7,5.7c0,2.9-2.2,5.4-5.2,5.7v6c0,0.3-0.3,0.6-0.6,0.6
				c-0.3,0-0.6-0.2-0.6-0.6v-6C315.6,269.9,313.4,267.4,313.4,264.5z"/>
		</g>
	</g>
	<g id="Selamat">
		<g id="Reg_Suc">
			
				<linearGradient id="SVGID_8_" gradientUnits="userSpaceOnUse" x1="203.3967" y1="105.8724" x2="203.3967" y2="101.6755" gradientTransform="matrix(1 0 0 -1 0 400)">
				<stop  offset="0" style="stop-color:#000000"/>
				<stop  offset="1" style="stop-color:#7CA7BF;stop-opacity:0"/>
			</linearGradient>
			<path class="st8" d="M259.5,296.2c0,1.2-0.6,2.1-1.3,2.1H148.6c-0.7,0-1.3-0.9-1.3-2.1l0,0c0-1.2,0.6-2.1,1.3-2.1h109.6
				C258.9,294.1,259.5,295.1,259.5,296.2L259.5,296.2z"/>
			
				<linearGradient id="SVGID_9_" gradientUnits="userSpaceOnUse" x1="203.4615" y1="314.6045" x2="203.4615" y2="85.3955" gradientTransform="matrix(1 0 0 -1 0 400)">
				<stop  offset="0" style="stop-color:#2171A2"/>
				<stop  offset="0.14" style="stop-color:#357DA8;stop-opacity:0.78"/>
				<stop  offset="0.34" style="stop-color:#4E8CB0;stop-opacity:0.5"/>
				<stop  offset="0.53" style="stop-color:#6298B7;stop-opacity:0.29"/>
				<stop  offset="0.71" style="stop-color:#70A0BB;stop-opacity:0.13"/>
				<stop  offset="0.87" style="stop-color:#79A5BE;stop-opacity:3.000000e-02"/>
				<stop  offset="1" style="stop-color:#7CA7BF;stop-opacity:0"/>
			</linearGradient>
			<path class="st9" d="M203.5,314.6c-63.3,0-114.6-51.3-114.6-114.6S140.2,85.4,203.5,85.4c63.3,0,114.6,51.3,114.6,114.6
				c0,30.4-12.1,59.5-33.6,81C263.1,302.6,233.9,314.7,203.5,314.6z"/>
			
				<linearGradient id="SVGID_10_" gradientUnits="userSpaceOnUse" x1="203.4594" y1="290.313" x2="203.4594" y2="109.6871" gradientTransform="matrix(1 0 0 -1 0 400)">
				<stop  offset="0" style="stop-color:#2171A2"/>
				<stop  offset="0.14" style="stop-color:#357DA8;stop-opacity:0.78"/>
				<stop  offset="0.34" style="stop-color:#4E8CB0;stop-opacity:0.5"/>
				<stop  offset="0.53" style="stop-color:#6298B7;stop-opacity:0.29"/>
				<stop  offset="0.71" style="stop-color:#70A0BB;stop-opacity:0.13"/>
				<stop  offset="0.87" style="stop-color:#79A5BE;stop-opacity:3.000000e-02"/>
				<stop  offset="1" style="stop-color:#7CA7BF;stop-opacity:0"/>
			</linearGradient>
			<path class="st10" d="M203.5,290.3c-49.9,0-90.3-40.4-90.3-90.3c0-49.9,40.4-90.3,90.3-90.3c49.9,0,90.3,40.4,90.3,90.3
				c0,24-9.5,46.9-26.5,63.9C250.4,280.9,227.4,290.4,203.5,290.3z"/>
			
				<linearGradient id="SVGID_11_" gradientUnits="userSpaceOnUse" x1="203.4588" y1="266.0182" x2="203.4588" y2="133.982" gradientTransform="matrix(1 0 0 -1 0 400)">
				<stop  offset="0" style="stop-color:#2171A2"/>
				<stop  offset="0.14" style="stop-color:#357DA8;stop-opacity:0.78"/>
				<stop  offset="0.34" style="stop-color:#4E8CB0;stop-opacity:0.5"/>
				<stop  offset="0.53" style="stop-color:#6298B7;stop-opacity:0.29"/>
				<stop  offset="0.71" style="stop-color:#70A0BB;stop-opacity:0.13"/>
				<stop  offset="0.87" style="stop-color:#79A5BE;stop-opacity:3.000000e-02"/>
				<stop  offset="1" style="stop-color:#7CA7BF;stop-opacity:0"/>
			</linearGradient>
			<path class="st11" d="M203.5,266c-36.5,0-66-29.6-66-66c0-36.5,29.6-66,66-66c36.5,0,66,29.6,66,66c0,17.5-7,34.3-19.3,46.7
				C237.8,259.1,221,266.1,203.5,266z"/>
			
				<linearGradient id="SVGID_12_" gradientUnits="userSpaceOnUse" x1="203.4614" y1="249.8217" x2="203.4614" y2="150.1788" gradientTransform="matrix(1 0 0 -1 0 400)">
				<stop  offset="0" style="stop-color:#2171A2"/>
				<stop  offset="0.14" style="stop-color:#357DA8;stop-opacity:0.78"/>
				<stop  offset="0.34" style="stop-color:#4E8CB0;stop-opacity:0.5"/>
				<stop  offset="0.53" style="stop-color:#6298B7;stop-opacity:0.29"/>
				<stop  offset="0.71" style="stop-color:#70A0BB;stop-opacity:0.13"/>
				<stop  offset="0.87" style="stop-color:#79A5BE;stop-opacity:3.000000e-02"/>
				<stop  offset="1" style="stop-color:#7CA7BF;stop-opacity:0"/>
			</linearGradient>
			<circle class="st12" cx="203.5" cy="200" r="49.8"/>
			
				<linearGradient id="SVGID_13_" gradientUnits="userSpaceOnUse" x1="165.0212" y1="138.7092" x2="203.4614" y2="138.7092" gradientTransform="matrix(1 0 0 -1 0 400)">
				<stop  offset="0.26" style="stop-color:#94273A"/>
				<stop  offset="0.66" style="stop-color:#982A3B"/>
				<stop  offset="1" style="stop-color:#A2333F"/>
			</linearGradient>
			<path class="st13" d="M203.5,245.9c0,0-4.2,20.7-14.7,35.5c-0.7,0.9-1.2,1.7-1.8,1.6c-0.5-0.2-0.7-2.2-0.7-2.2l-1.5-12.5
				c0,0-0.1-0.8-0.6-1c-0.5-0.3-1.7,0.2-1.7,0.2l-15.3,6.4c0,0-1.9,0.9-2.1,0.8c-0.3-0.1,0.3-0.8,1.3-1.8
				c4.5-5.1,14.4-18.1,14.3-33.2L203.5,245.9z"/>
			
				<linearGradient id="SVGID_14_" gradientUnits="userSpaceOnUse" x1="170.7629" y1="139.3993" x2="201.2401" y2="139.3993" gradientTransform="matrix(1 0 0 -1 0 400)">
				<stop  offset="0" style="stop-color:#94273A"/>
				<stop  offset="1" style="stop-color:#C6514D"/>
			</linearGradient>
			<path class="st14" d="M186.7,268.1c-0.1-1-0.7-2-1.6-2.5c-0.4-0.2-0.8-0.3-1.3-0.3c-0.7,0-1.4,0.2-2,0.4l-11.1,4.6
				c5-6.6,11-16.7,11.7-28.3l18.8,5.2c-1.2,5-5.3,20.2-13.2,31.9L186.7,268.1z"/>
			
				<linearGradient id="SVGID_15_" gradientUnits="userSpaceOnUse" x1="-34.2936" y1="146.346" x2="4.1467" y2="146.346" gradientTransform="matrix(-1 0 0 -1 201.2 400)">
				<stop  offset="0.26" style="stop-color:#94273A"/>
				<stop  offset="0.66" style="stop-color:#982A3B"/>
				<stop  offset="1" style="stop-color:#A2333F"/>
			</linearGradient>
			<path class="st15" d="M197.1,238.2c0,0,4.2,20.7,14.7,35.5c0.7,0.9,1.2,1.7,1.8,1.6c0.5-0.2,0.7-2.2,0.7-2.2l1.5-12.5
				c0,0,0.1-0.8,0.6-1s1.7,0.2,1.7,0.2l15.3,6.4c0,0,1.9,0.9,2.1,0.8c0.3-0.1-0.3-0.8-1.3-1.8c-4.5-5.1-14.4-18.1-14.3-33.2
				L197.1,238.2z"/>
			
				<linearGradient id="SVGID_16_" gradientUnits="userSpaceOnUse" x1="199.2845" y1="147.0294" x2="229.7484" y2="147.0294" gradientTransform="matrix(1 0 0 -1 0 400)">
				<stop  offset="0" style="stop-color:#94273A"/>
				<stop  offset="1" style="stop-color:#C6514D"/>
			</linearGradient>
			<path class="st16" d="M212.5,271.5c-7.9-11.7-12-26.9-13.2-31.9l18.8-5.2c0.7,11.5,6.7,21.7,11.7,28.3l-11-4.6
				c-0.6-0.3-1.3-0.4-2-0.4c-0.4,0-0.9,0.1-1.3,0.3c-0.9,0.5-1.5,1.4-1.6,2.5L212.5,271.5z"/>
			
				<linearGradient id="SVGID_17_" gradientUnits="userSpaceOnUse" x1="170.4878" y1="180.9713" x2="236.4272" y2="219.0429" gradientTransform="matrix(1 0 0 -1 0 400)">
				<stop  offset="0" style="stop-color:#ECC41C"/>
				<stop  offset="0.47" style="stop-color:#FFFFCC"/>
				<stop  offset="0.99" style="stop-color:#FFE93C"/>
			</linearGradient>
			<path class="st17" d="M203.5,238.1c-21,0-38.1-17-38.1-38.1s17-38.1,38.1-38.1c21,0,38.1,17,38.1,38.1
				C241.5,221,224.5,238,203.5,238.1z"/>
			
				<linearGradient id="SVGID_18_" gradientUnits="userSpaceOnUse" x1="158.9377" y1="174.2933" x2="248.007" y2="225.718" gradientTransform="matrix(1 0 0 -1 0 400)">
				<stop  offset="0" style="stop-color:#ECC41C"/>
				<stop  offset="0.47" style="stop-color:#FFFFCC"/>
				<stop  offset="0.99" style="stop-color:#FFE93C"/>
			</linearGradient>
			<path class="st18" d="M250.9,200l-0.3,0L250.9,200c0-0.1,2.1-2.7,3.3-4.1s-0.3-2.5-0.3-2.5l-4.1-3.3l-0.3,0l0.3-0.1
				c0,0,1.6-3,2.4-4.6c0.8-1.7-0.8-2.4-0.8-2.4l-4.6-2.3l-0.3,0.1l0.3-0.2c0,0,0.9-3.3,1.4-5s-1.3-2.2-1.3-2.2l-5-1.3l-0.3,0.2
				l0.2-0.2c0,0,0.2-3.4,0.3-5.2c0.1-1.8-1.7-1.9-1.7-1.9l-5.2-0.2L235,165l0.2-0.3c0,0-0.5-3.3-0.8-5.1c-0.3-1.8-2-1.5-2-1.5
				l-5.1,0.8l-0.2,0.3l0.1-0.3c0,0-1.2-3.2-1.8-4.9c-0.7-1.7-2.3-1-2.3-1l-4.9,1.9l-0.1,0.3l0.1-0.3c0,0-1.8-2.8-2.8-4.4
				c-1-1.5-2.4-0.5-2.4-0.5l-4.4,2.8l-0.1,0.3v-0.3c0,0-2.4-2.4-3.7-3.7s-2.5,0-2.5,0l-3.7,3.7v0.3l-0.1-0.3c0,0-2.8-1.9-4.4-2.9
				s-2.4,0.5-2.4,0.5l-2.8,4.4l0.1,0.3l-0.1-0.3c0,0-3.1-1.2-4.9-1.9c-1.7-0.7-2.3,1-2.3,1l-1.8,4.9l0.1,0.3l-0.2-0.3
				c0,0-3.3-0.6-5.1-0.8c-1.8-0.3-2,1.5-2,1.5l-0.8,5.1l0.2,0.3l-0.3-0.2c0,0-3.4,0.2-5.2,0.2c-1.8,0.1-1.7,1.9-1.7,1.9l0.3,5.2
				l0.3,0.2l-0.3-0.2c0,0-3.3,0.9-5,1.3c-1.8,0.5-1.3,2.2-1.3,2.2l1.4,5l0.3,0.2l-0.3-0.1c0,0-3,1.5-4.6,2.3s-0.8,2.4-0.8,2.4
				l2.4,4.6l0.3,0.1l-0.3,0c0,0-2.7,2.1-4.1,3.3c-1.4,1.2-0.3,2.5-0.3,2.5l3.3,4l0.3,0l-0.3,0c0,0-2.1,2.6-3.3,4
				c-1.2,1.4,0.3,2.5,0.3,2.5l4.1,3.3l0.3,0l-0.3,0.1c0,0-1.6,3-2.4,4.6c-0.8,1.6,0.8,2.4,0.8,2.4l4.6,2.3l0.3-0.1l-0.3,0.2
				c0,0-0.9,3.3-1.4,5c-0.5,1.8,1.3,2.2,1.3,2.2l5,1.3l0.3-0.2l-0.3,0.2c0,0-0.2,3.4-0.3,5.2c-0.1,1.8,1.7,1.9,1.7,1.9l5.2,0.2
				l0.3-0.2l-0.2,0.3c0,0,0.5,3.3,0.8,5.1c0.3,1.8,2,1.5,2,1.5l5.1-0.8l0.2-0.3l-0.1,0.3c0,0,1.2,3.2,1.8,4.9c0.7,1.7,2.3,1,2.3,1
				l4.9-1.9l0.1-0.3l-0.1,0.3c0,0,1.8,2.8,2.8,4.4c1,1.5,2.4,0.5,2.4,0.5l4.4-2.9l0.1-0.3v0.3c0,0,2.4,2.4,3.7,3.7
				c1.3,1.3,2.5,0,2.5,0l3.7-3.7v-0.3l0.1,0.3c0,0,2.8,1.9,4.4,2.9s2.4-0.5,2.4-0.5l2.8-4.4l-0.1-0.3l0.1,0.3c0,0,3.1,1.2,4.9,1.9
				c1.7,0.7,2.3-1,2.3-1l1.8-4.9l-0.1-0.3l0.2,0.3c0,0,3.3,0.6,5.1,0.8s2-1.5,2-1.5l0.8-5.1l-0.2-0.3l0.3,0.2c0,0,3.4-0.2,5.2-0.2
				s1.7-1.9,1.7-1.9l-0.3-5.2l-0.3-0.2l0.3,0.2c0,0,3.3-0.9,5-1.3c1.8-0.5,1.3-2.2,1.3-2.2l-1.4-5l-0.3-0.2l0.3,0.1
				c0,0,3-1.5,4.6-2.3c1.6-0.8,0.8-2.4,0.8-2.4l-2.4-4.6l-0.3-0.1l0.3,0c0,0,2.7-2.1,4.1-3.3s0.3-2.5,0.3-2.5L250.9,200z"/>
			
				<linearGradient id="SVGID_19_" gradientUnits="userSpaceOnUse" x1="164.5622" y1="185.8418" x2="242.3606" y2="214.1587" gradientTransform="matrix(1 0 0 -1 0 400)">
				<stop  offset="0" style="stop-color:#ECC41C"/>
				<stop  offset="0.47" style="stop-color:#FFFFCC"/>
				<stop  offset="0.99" style="stop-color:#FFE93C"/>
			</linearGradient>
			<circle class="st19" cx="203.5" cy="200" r="41.4"/>
			<circle class="st20" cx="203.5" cy="200" r="41.4"/>
			
				<linearGradient id="SVGID_20_" gradientUnits="userSpaceOnUse" x1="170.4878" y1="180.9713" x2="236.4272" y2="219.0429" gradientTransform="matrix(1 0 0 -1 0 400)">
				<stop  offset="0" style="stop-color:#F7DE65"/>
				<stop  offset="0.47" style="stop-color:#FFFFCC"/>
				<stop  offset="0.99" style="stop-color:#FFF582"/>
			</linearGradient>
			<path class="st21" d="M203.5,238.1c-21,0-38.1-17-38.1-38.1s17-38.1,38.1-38.1c21,0,38.1,17,38.1,38.1
				C241.5,221,224.5,238,203.5,238.1z"/>
			<path class="st22" d="M198.1,216.7c-0.9,0-1.7-0.4-2.3-1l-13.3-13.3c-1.3-1.3-1.4-3.4-0.1-4.7s3.4-1.4,4.7-0.1
				c0,0,0.1,0.1,0.1,0.1l11,11l23.1-23.1c1.3-1.3,3.4-1.2,4.7,0.1c1.2,1.3,1.2,3.3,0,4.6l-25.4,25.4
				C199.9,216.4,199,216.7,198.1,216.7z"/>
			
				<linearGradient id="SVGID_21_" gradientUnits="userSpaceOnUse" x1="186.4645" y1="191.8078" x2="226.4677" y2="214.9046" gradientTransform="matrix(1 0 0 -1 0 400)">
				<stop  offset="0" style="stop-color:#E7CB4C"/>
				<stop  offset="0.1" style="stop-color:#E7CC4F"/>
				<stop  offset="0.18" style="stop-color:#E9CF5A"/>
				<stop  offset="0.25" style="stop-color:#EBD46C"/>
				<stop  offset="0.33" style="stop-color:#EEDB85"/>
				<stop  offset="0.4" style="stop-color:#F2E4A5"/>
				<stop  offset="0.47" style="stop-color:#F7EECC"/>
				<stop  offset="0.51" style="stop-color:#FAF5E3"/>
				<stop  offset="0.56" style="stop-color:#F8F2D6"/>
				<stop  offset="0.65" style="stop-color:#F4E8B4"/>
				<stop  offset="0.78" style="stop-color:#EDDA7D"/>
				<stop  offset="0.93" style="stop-color:#E3C532"/>
				<stop  offset="0.99" style="stop-color:#DFBD12"/>
			</linearGradient>
			<path class="st23" d="M198.1,215.3c-0.9,0-1.7-0.4-2.3-1L182.5,201c-1.3-1.3-1.4-3.4-0.1-4.7c1.3-1.3,3.4-1.4,4.7-0.1
				c0,0,0.1,0.1,0.1,0.1l11,11l23.1-23.1c1.3-1.3,3.4-1.2,4.7,0.1c1.2,1.3,1.2,3.3,0,4.6l-25.4,25.4
				C199.9,215,199,215.3,198.1,215.3z"/>
			
				<linearGradient id="SVGID_22_" gradientUnits="userSpaceOnUse" x1="203.7918" y1="105.4042" x2="203.7918" y2="110.3117" gradientTransform="matrix(1 0 0 -1 0 400)">
				<stop  offset="0" style="stop-color:#4A4A4A"/>
				<stop  offset="1" style="stop-color:#737373"/>
			</linearGradient>
			<path class="st24" d="M151.2,289.7h105.3c0.8,0,1.5,0.7,1.5,1.5v2c0,0.8-0.7,1.5-1.5,1.5H151.2c-0.8,0-1.5-0.7-1.5-1.5v-2
				C149.7,290.3,150.4,289.7,151.2,289.7z"/>
			
				<linearGradient id="SVGID_23_" gradientUnits="userSpaceOnUse" x1="203.7935" y1="105.8924" x2="203.7935" y2="109.8236" gradientTransform="matrix(1 0 0 -1 0 400)">
				<stop  offset="0" style="stop-color:#696969"/>
				<stop  offset="1" style="stop-color:#9E9E9E"/>
			</linearGradient>
			<path class="st25" d="M150.6,290.2h106.3c0.5,0,1,0.4,1,1v2c0,0.5-0.4,1-1,1H150.6c-0.5,0-1-0.4-1-1v-2
				C149.7,290.6,150.1,290.2,150.6,290.2z"/>
			
				<linearGradient id="SVGID_24_" gradientUnits="userSpaceOnUse" x1="169.3285" y1="106.7324" x2="169.3285" y2="108.542" gradientTransform="matrix(1 0 0 -1 0 400)">
				<stop  offset="0" style="stop-color:#4A4A4A"/>
				<stop  offset="1" style="stop-color:#737373"/>
			</linearGradient>
			<path class="st26" d="M174.1,292.4c0,0.5-0.4,0.9-0.9,0.9h-7.8c-0.5,0-0.9-0.4-0.9-0.9l0,0c0-0.5,0.4-0.9,0.9-0.9h7.8
				C173.7,291.5,174.1,291.9,174.1,292.4z"/>
			
				<linearGradient id="SVGID_25_" gradientUnits="userSpaceOnUse" x1="169.3285" y1="106.9781" x2="169.3285" y2="108.2963" gradientTransform="matrix(1 0 0 -1 0 400)">
				<stop  offset="0" style="stop-color:#696969"/>
				<stop  offset="1" style="stop-color:#9E9E9E"/>
			</linearGradient>
			<path class="st27" d="M165.4,293c-0.4,0-0.7-0.3-0.7-0.7c0-0.4,0.3-0.7,0.7-0.7h7.8c0.4,0,0.7,0.3,0.7,0.7c0,0.4-0.3,0.7-0.7,0.7
				H165.4z"/>
			
				<linearGradient id="SVGID_26_" gradientUnits="userSpaceOnUse" x1="180.1744" y1="106.7324" x2="180.1744" y2="108.542" gradientTransform="matrix(1 0 0 -1 0 400)">
				<stop  offset="0" style="stop-color:#4A4A4A"/>
				<stop  offset="1" style="stop-color:#737373"/>
			</linearGradient>
			<path class="st28" d="M185,292.4c0,0.5-0.4,0.9-0.9,0.9h-7.8c-0.5,0-0.9-0.4-0.9-0.9l0,0c0-0.5,0.4-0.9,0.9-0.9h7.8
				C184.6,291.5,185,291.9,185,292.4L185,292.4z"/>
			
				<linearGradient id="SVGID_27_" gradientUnits="userSpaceOnUse" x1="180.1727" y1="106.9781" x2="180.1727" y2="108.2963" gradientTransform="matrix(1 0 0 -1 0 400)">
				<stop  offset="0" style="stop-color:#696969"/>
				<stop  offset="1" style="stop-color:#9E9E9E"/>
			</linearGradient>
			<path class="st29" d="M176.3,293c-0.4,0-0.7-0.3-0.7-0.7c0-0.4,0.3-0.7,0.7-0.7h7.8c0.4,0,0.7,0.3,0.7,0.7c0,0.4-0.3,0.7-0.7,0.7
				H176.3z"/>
			
				<rect x="149.6" y="265.7" transform="matrix(0.7071 -0.7071 0.7071 0.7071 -146.8483 185.3482)" class="st30" width="1.3" height="8.5"/>
			<g class="st31">
				
					<linearGradient id="SVGID_28_" gradientUnits="userSpaceOnUse" x1="234.94" y1="117.4576" x2="238.7254" y2="117.4576" gradientTransform="matrix(1 0 0 -1 4.739705e-03 400.0007)">
					<stop  offset="0" style="stop-color:#2CA7E0"/>
					<stop  offset="0.28" style="stop-color:#2BA4DC"/>
					<stop  offset="0.56" style="stop-color:#289CD0"/>
					<stop  offset="0.84" style="stop-color:#228FBC"/>
					<stop  offset="1" style="stop-color:#1E85AD"/>
				</linearGradient>
				<polygon class="st32" points="234.9,284.9 237.9,279.7 238.7,280.2 235.8,285.4 				"/>
			</g>
			<g class="st33">
				
					<linearGradient id="SVGID_29_" gradientUnits="userSpaceOnUse" x1="177.7723" y1="119.3921" x2="180.0961" y2="119.3921" gradientTransform="matrix(1 0 0 -1 4.738787e-03 400.0107)">
					<stop  offset="0" style="stop-color:#2CA7E0"/>
					<stop  offset="0.28" style="stop-color:#2BA4DC"/>
					<stop  offset="0.56" style="stop-color:#289CD0"/>
					<stop  offset="0.84" style="stop-color:#228FBC"/>
					<stop  offset="1" style="stop-color:#1E85AD"/>
				</linearGradient>
				<polygon class="st34" points="177.8,276.5 178.7,276.4 180.1,284.7 179.1,284.9 				"/>
			</g>
			<g class="st35">
				
					<linearGradient id="SVGID_30_" gradientUnits="userSpaceOnUse" x1="240.6956" y1="147.0309" x2="243.063" y2="147.0309" gradientTransform="matrix(1 0 0 -1 -1.505651e-02 400.0003)">
					<stop  offset="0" style="stop-color:#94273A"/>
					<stop  offset="1" style="stop-color:#C6514D"/>
				</linearGradient>
				<polygon class="st36" points="240.7,257.1 242.1,248.7 243,248.9 241.7,257.2 				"/>
			</g>
			
				<linearGradient id="SVGID_31_" gradientUnits="userSpaceOnUse" x1="235.5025" y1="149.0233" x2="235.5025" y2="151.3343" gradientTransform="matrix(1 0 0 -1 0 400)">
				<stop  offset="0" style="stop-color:#2CA7E0"/>
				<stop  offset="0.28" style="stop-color:#2BA4DC"/>
				<stop  offset="0.56" style="stop-color:#289CD0"/>
				<stop  offset="0.84" style="stop-color:#228FBC"/>
				<stop  offset="1" style="stop-color:#1E85AD"/>
			</linearGradient>
			<polygon class="st37" points="234.2,251 235.5,248.7 236.8,251 			"/>
			
				<linearGradient id="SVGID_32_" gradientUnits="userSpaceOnUse" x1="199.2214" y1="124.4745" x2="201.6319" y2="124.4745" gradientTransform="matrix(1 0 0 -1 0 400)">
				<stop  offset="0" style="stop-color:#94273A"/>
				<stop  offset="1" style="stop-color:#C6514D"/>
			</linearGradient>
			<polygon class="st38" points="199.2,275.3 201.6,274.2 201.4,276.9 			"/>
			
				<linearGradient id="SVGID_33_" gradientUnits="userSpaceOnUse" x1="-138.4848" y1="102.3274" x2="-138.4848" y2="104.635" gradientTransform="matrix(0.82 0.57 0.57 -0.82 314.88 413.37)">
				<stop  offset="0" style="stop-color:#1E8239"/>
				<stop  offset="1" style="stop-color:#2B9428"/>
			</linearGradient>
			<polygon class="st39" points="258.6,249.6 261.1,248.5 260.8,251.1 			"/>
			
				<linearGradient id="SVGID_34_" gradientUnits="userSpaceOnUse" x1="249.9808" y1="156.4077" x2="249.9808" y2="160.8271" gradientTransform="matrix(1 0 0 -1 0 400)">
				<stop  offset="0" style="stop-color:#ECC41C"/>
				<stop  offset="0.99" style="stop-color:#FFE93C"/>
			</linearGradient>
			<polygon class="st40" points="250.4,243.6 249.4,242.4 247.8,242.6 248.6,241.3 248,239.9 249.5,240.2 250.6,239.2 250.8,240.7 
				252.1,241.5 250.7,242.1 			"/>
			
				<linearGradient id="SVGID_35_" gradientUnits="userSpaceOnUse" x1="165.4886" y1="140.3473" x2="165.4886" y2="146.5895" gradientTransform="matrix(1 0 0 -1 0 400)">
				<stop  offset="0" style="stop-color:#2CA7E0"/>
				<stop  offset="0.28" style="stop-color:#2BA4DC"/>
				<stop  offset="0.56" style="stop-color:#289CD0"/>
				<stop  offset="0.84" style="stop-color:#228FBC"/>
				<stop  offset="1" style="stop-color:#1E85AD"/>
			</linearGradient>
			<polygon class="st41" points="168.7,257.1 166.5,257.6 165.6,259.7 164.5,257.7 162.3,257.5 163.8,255.8 163.3,253.6 
				165.4,254.6 167.3,253.4 167,255.7 			"/>
			
				<linearGradient id="SVGID_36_" gradientUnits="userSpaceOnUse" x1="216.2779" y1="115.4781" x2="216.2779" y2="119.4359" gradientTransform="matrix(1 0 0 -1 0 400)">
				<stop  offset="0" style="stop-color:#ECC41C"/>
				<stop  offset="0.99" style="stop-color:#FFE93C"/>
			</linearGradient>
			<polygon class="st42" points="217.3,284.5 216.1,283.7 214.8,284.3 215.2,282.9 214.3,281.8 215.7,281.8 216.4,280.6 
				216.9,281.9 218.3,282.2 217.2,283.1 			"/>
			<g class="st35">
				
					<linearGradient id="SVGID_37_" gradientUnits="userSpaceOnUse" x1="164.9884" y1="154.3076" x2="171.5631" y2="154.3076" gradientTransform="matrix(1 0 0 -1 0 400)">
					<stop  offset="0" style="stop-color:#94273A"/>
					<stop  offset="1" style="stop-color:#C6514D"/>
				</linearGradient>
				<path class="st43" d="M171.6,248.8h-1c0-0.4-0.1-2.4-2.6-2.4c-0.8,0-1.7-0.3-2.2-0.9c-1-1.1-0.8-2.8-0.8-2.9l1,0.1l-0.5-0.1
					l0.5,0.1c0,0-0.2,1.4,0.5,2.1c0.4,0.4,0.9,0.6,1.5,0.6C170.8,245.4,171.6,247.5,171.6,248.8z"/>
			</g>
			<g class="st31">
				
					<linearGradient id="SVGID_38_" gradientUnits="userSpaceOnUse" x1="160.0159" y1="117.5633" x2="163.8557" y2="117.5633" gradientTransform="matrix(1 0 0 -1 0 400)">
					<stop  offset="0" style="stop-color:#2CA7E0"/>
					<stop  offset="0.28" style="stop-color:#2BA4DC"/>
					<stop  offset="0.56" style="stop-color:#289CD0"/>
					<stop  offset="0.84" style="stop-color:#228FBC"/>
					<stop  offset="1" style="stop-color:#1E85AD"/>
				</linearGradient>
				<path class="st44" d="M160.4,286.2c-0.5-1-0.8-3,1.5-4.2c0.4-0.2,0.8-0.5,0.9-1c0.2-0.9-0.4-1.9-0.4-1.9l0.8-0.6
					c0,0.1,0.9,1.4,0.6,2.7c-0.2,0.7-0.7,1.3-1.4,1.6c-1.9,0.9-1.3,2.4-1.1,2.8L160.4,286.2z"/>
			</g>
			<g class="st45">
				
					<linearGradient id="SVGID_39_" gradientUnits="userSpaceOnUse" x1="257.4775" y1="132.8766" x2="259.8116" y2="132.8766" gradientTransform="matrix(1 0 0 -1 0 400)">
					<stop  offset="0" style="stop-color:#ECC41C"/>
					<stop  offset="0.99" style="stop-color:#FFE93C"/>
				</linearGradient>
				<path class="st46" d="M257.7,269.4c-0.3-0.6-0.5-1.8,0.9-2.5c0.2-0.1,0.4-0.3,0.5-0.6c0-0.4,0-0.8-0.2-1.1l0.6-0.4
					c0.3,0.5,0.4,1,0.3,1.6c-0.1,0.4-0.4,0.8-0.9,1c-1.1,0.5-0.7,1.4-0.6,1.6L257.7,269.4z"/>
			</g>
			<rect x="156.8" y="267.1" class="st30" width="1" height="1"/>
			
				<linearGradient id="SVGID_40_" gradientUnits="userSpaceOnUse" x1="241.5256" y1="130.9691" x2="243.3286" y2="130.9691" gradientTransform="matrix(1 0 0 -1 0 400)">
				<stop  offset="0" style="stop-color:#1E8239"/>
				<stop  offset="1" style="stop-color:#2B9428"/>
			</linearGradient>
			<rect x="241.5" y="268.1" class="st47" width="1.8" height="1.8"/>
			<rect x="254" y="278.5" class="st30" width="1.3" height="1.3"/>
			
				<linearGradient id="SVGID_41_" gradientUnits="userSpaceOnUse" x1="140.3222" y1="147.74" x2="142.1284" y2="147.74" gradientTransform="matrix(1 0 0 -1 0 400)">
				<stop  offset="0" style="stop-color:#94273A"/>
				<stop  offset="1" style="stop-color:#C6514D"/>
			</linearGradient>
			<rect x="140.3" y="251.4" class="st48" width="1.8" height="1.8"/>
			
				<linearGradient id="SVGID_42_" gradientUnits="userSpaceOnUse" x1="152.7402" y1="161.9377" x2="154.5431" y2="161.9377" gradientTransform="matrix(1 0 0 -1 0 400)">
				<stop  offset="0" style="stop-color:#ECC41C"/>
				<stop  offset="0.99" style="stop-color:#FFE93C"/>
			</linearGradient>
			<rect x="152.7" y="237.2" class="st49" width="1.8" height="1.8"/>
			<circle class="st30" cx="156.8" cy="253.7" r="1.4"/>
			<circle class="st30" cx="193" cy="284.5" r="0.8"/>
			
				<linearGradient id="SVGID_43_" gradientUnits="userSpaceOnUse" x1="222.0718" y1="123.5797" x2="223.8615" y2="123.5797" gradientTransform="matrix(1 0 0 -1 0 400)">
				<stop  offset="0" style="stop-color:#2CA7E0"/>
				<stop  offset="0.28" style="stop-color:#2BA4DC"/>
				<stop  offset="0.56" style="stop-color:#289CD0"/>
				<stop  offset="0.84" style="stop-color:#228FBC"/>
				<stop  offset="1" style="stop-color:#1E85AD"/>
			</linearGradient>
			<circle class="st50" cx="223" cy="276.4" r="0.9"/>
		</g>
	</g>
</g>
</svg>
