<svg id="Layer_1" data-name="Layer 1" xmlns="http://www.w3.org/2000/svg" xmlns:xlink="http://www.w3.org/1999/xlink" viewBox="0 0 400 358.11"><defs><style>.cls-1,.cls-14,.cls-23{opacity:0.2;}.cls-1,.cls-14,.cls-23,.cls-27,.cls-28,.cls-29,.cls-30,.cls-44,.cls-49,.cls-50,.cls-7,.cls-8{isolation:isolate;}.cls-1{fill:url(#linear-gradient);}.cls-2{fill:#c6c6c6;}.cls-3{fill:url(#linear-gradient-2);}.cls-4{fill:url(#linear-gradient-3);}.cls-5{fill:url(#linear-gradient-4);}.cls-6{fill:url(#linear-gradient-5);}.cls-7{opacity:0.3;}.cls-8{opacity:0.1;}.cls-9{fill:url(#linear-gradient-6);}.cls-10{fill:url(#linear-gradient-7);}.cls-11{fill:#fff;}.cls-12{fill:url(#linear-gradient-8);}.cls-13{fill:url(#linear-gradient-9);}.cls-15{fill:#999;}.cls-16{opacity:0.5;}.cls-17{fill:url(#linear-gradient-10);}.cls-18{fill:url(#linear-gradient-11);}.cls-19{fill:url(#linear-gradient-12);}.cls-20{fill:url(#linear-gradient-13);}.cls-21{fill:url(#linear-gradient-14);}.cls-22{fill:url(#linear-gradient-15);}.cls-23{fill:url(#linear-gradient-16);}.cls-24{fill:url(#linear-gradient-17);}.cls-25{fill:url(#linear-gradient-18);}.cls-26{fill:url(#linear-gradient-19);}.cls-27,.cls-28,.cls-29,.cls-30{opacity:0.78;}.cls-27{fill:url(#linear-gradient-20);}.cls-28{fill:url(#linear-gradient-21);}.cls-29{fill:url(#linear-gradient-22);}.cls-30{fill:url(#linear-gradient-23);}.cls-31{fill:url(#linear-gradient-24);}.cls-32{fill:url(#linear-gradient-25);}.cls-33{fill:url(#linear-gradient-26);}.cls-34{fill:url(#linear-gradient-27);}.cls-35{fill:url(#linear-gradient-28);}.cls-36{fill:url(#linear-gradient-29);}.cls-37{fill:url(#linear-gradient-30);}.cls-38{fill:url(#linear-gradient-31);}.cls-39{fill:url(#linear-gradient-32);}.cls-40{fill:url(#linear-gradient-33);}.cls-41{fill:url(#linear-gradient-34);}.cls-42{fill:url(#linear-gradient-35);}.cls-43{fill:url(#linear-gradient-36);}.cls-44{opacity:0.6;fill:url(#linear-gradient-37);}.cls-45{fill:#eaeaea;}.cls-46{fill:none;stroke:#fff;stroke-miterlimit:10;stroke-width:0.4px;}.cls-47{fill:url(#linear-gradient-38);}.cls-48{fill:url(#linear-gradient-39);}.cls-49,.cls-50{opacity:0.38;}.cls-49{fill:url(#linear-gradient-40);}.cls-50{fill:url(#linear-gradient-41);}.cls-51{fill:url(#linear-gradient-42);}</style><linearGradient id="linear-gradient" y1="669.47" x2="400" y2="669.47" gradientTransform="translate(0 -317.9)" gradientUnits="userSpaceOnUse"><stop offset="0" stop-color="#5e5e5e" stop-opacity="0.5"/><stop offset="1" stop-color="#2e2e2e"/></linearGradient><linearGradient id="linear-gradient-2" x1="334.76" y1="655.56" x2="334.76" y2="669.56" gradientTransform="translate(0 -317.9)" gradientUnits="userSpaceOnUse"><stop offset="0" stop-color="#5e5e5e"/><stop offset="1" stop-color="#2e2e2e"/></linearGradient><linearGradient id="linear-gradient-3" x1="293.14" y1="664.95" x2="293.14" y2="660.17" gradientTransform="translate(0 -317.9)" gradientUnits="userSpaceOnUse"><stop offset="0" stop-color="#999"/><stop offset="1" stop-color="#e5e5e5"/></linearGradient><linearGradient id="linear-gradient-4" x1="325.01" y1="670.01" x2="325.01" y2="655.35" gradientTransform="translate(0 -317.9)" gradientUnits="userSpaceOnUse"><stop offset="0" stop-color="#ecc41c"/><stop offset="0.47" stop-color="#ffc"/><stop offset="0.99" stop-color="#ffe93c"/></linearGradient><linearGradient id="linear-gradient-5" x1="199.35" y1="670.12" x2="199.35" y2="592.83" gradientTransform="translate(0 -317.9)" gradientUnits="userSpaceOnUse"><stop offset="0" stop-color="#999"/><stop offset="1" stop-color="#5e5e5e"/></linearGradient><linearGradient id="linear-gradient-6" x1="191.49" y1="317.9" x2="191.49" y2="602.14" xlink:href="#linear-gradient-5"/><linearGradient id="linear-gradient-7" x1="201.59" y1="317.9" x2="201.59" y2="549.04" xlink:href="#linear-gradient-2"/><linearGradient id="linear-gradient-8" x1="201.4" y1="549.2" x2="201.4" y2="602.2" xlink:href="#linear-gradient-5"/><linearGradient id="linear-gradient-9" x1="201.31" y1="657.05" x2="201.31" y2="670.14" xlink:href="#linear-gradient-5"/><linearGradient id="linear-gradient-10" x1="237.78" y1="365.73" x2="301.28" y2="365.73" gradientTransform="translate(0 -317.9)" gradientUnits="userSpaceOnUse"><stop offset="0" stop-color="#1b4698"/><stop offset="0.36" stop-color="#1c4a99"/><stop offset="0.7" stop-color="#1f559e"/><stop offset="1" stop-color="#2366a5"/></linearGradient><linearGradient id="linear-gradient-11" x1="237.78" y1="363.86" x2="301.28" y2="363.86" gradientTransform="translate(0 -317.9)" gradientUnits="userSpaceOnUse"><stop offset="0" stop-color="#4775b9"/><stop offset="0.45" stop-color="#4479bc"/><stop offset="0.87" stop-color="#3d84c5"/><stop offset="1" stop-color="#3989c9"/></linearGradient><linearGradient id="linear-gradient-12" x1="235.29" y1="415.28" x2="298.79" y2="415.28" xlink:href="#linear-gradient-10"/><linearGradient id="linear-gradient-13" x1="235.29" y1="413.41" x2="298.79" y2="413.41" xlink:href="#linear-gradient-11"/><linearGradient id="linear-gradient-14" x1="235.29" y1="460.72" x2="298.79" y2="460.72" xlink:href="#linear-gradient-10"/><linearGradient id="linear-gradient-15" x1="235.29" y1="458.67" x2="298.79" y2="458.67" xlink:href="#linear-gradient-11"/><linearGradient id="linear-gradient-16" x1="82.19" y1="496.89" x2="82.19" y2="698.73" xlink:href="#linear-gradient"/><linearGradient id="linear-gradient-17" x1="89.86" y1="670.59" x2="89.86" y2="527.34" xlink:href="#linear-gradient-2"/><linearGradient id="linear-gradient-18" x1="96.4" y1="527.34" x2="96.4" y2="670.59" xlink:href="#linear-gradient-2"/><linearGradient id="linear-gradient-19" x1="96.49" y1="541.98" x2="96.49" y2="565.82" gradientTransform="translate(0 -317.9)" gradientUnits="userSpaceOnUse"><stop offset="0" stop-color="#f2f2f2"/><stop offset="1" stop-color="#ccc"/></linearGradient><linearGradient id="linear-gradient-20" x1="73.87" y1="580.73" x2="73.87" y2="614.11" xlink:href="#linear-gradient"/><linearGradient id="linear-gradient-21" x1="118.56" y1="580.73" x2="118.56" y2="614.11" xlink:href="#linear-gradient"/><linearGradient id="linear-gradient-22" x1="118.56" y1="626.76" x2="118.56" y2="660.13" xlink:href="#linear-gradient"/><linearGradient id="linear-gradient-23" x1="73.87" y1="626.76" x2="73.87" y2="660.13" xlink:href="#linear-gradient"/><linearGradient id="linear-gradient-24" x1="73.87" y1="578.02" x2="73.87" y2="611.4" xlink:href="#linear-gradient-19"/><linearGradient id="linear-gradient-25" x1="118.56" y1="578.02" x2="118.56" y2="611.4" xlink:href="#linear-gradient-19"/><linearGradient id="linear-gradient-26" x1="73.87" y1="623.56" x2="73.87" y2="656.93" xlink:href="#linear-gradient-19"/><linearGradient id="linear-gradient-27" x1="118.56" y1="623.56" x2="118.56" y2="656.93" xlink:href="#linear-gradient-19"/><linearGradient id="linear-gradient-28" x1="66.13" y1="594.57" x2="81.74" y2="594.57" gradientTransform="translate(0 -317.9)" gradientUnits="userSpaceOnUse"><stop offset="0" stop-color="#2ca7e0"/><stop offset="0.28" stop-color="#2ba4dc"/><stop offset="0.56" stop-color="#289cd0"/><stop offset="0.84" stop-color="#228fbc"/><stop offset="1" stop-color="#1e85ad"/></linearGradient><linearGradient id="linear-gradient-29" x1="113.03" y1="594.57" x2="124.42" y2="594.57" gradientTransform="translate(0 -317.9)" gradientUnits="userSpaceOnUse"><stop offset="0" stop-color="#94273a"/><stop offset="1" stop-color="#c6514d"/></linearGradient><linearGradient id="linear-gradient-30" x1="66.92" y1="640.11" x2="80.96" y2="640.11" gradientTransform="translate(0 -317.9)" gradientUnits="userSpaceOnUse"><stop offset="0" stop-color="#3495d2"/><stop offset="0.28" stop-color="#378fcd"/><stop offset="0.65" stop-color="#3f7fc1"/><stop offset="1" stop-color="#4969b0"/></linearGradient><linearGradient id="linear-gradient-31" x1="110.94" y1="640.11" x2="126.51" y2="640.11" gradientTransform="translate(0 -317.9)" gradientUnits="userSpaceOnUse"><stop offset="0" stop-color="#4c64ad"/><stop offset="0.31" stop-color="#545ca4"/><stop offset="0.8" stop-color="#69488c"/><stop offset="1" stop-color="#733e81"/></linearGradient><linearGradient id="linear-gradient-32" x1="89.93" y1="553.62" x2="94.13" y2="553.62" xlink:href="#linear-gradient-2"/><linearGradient id="linear-gradient-33" x1="96.28" y1="557.45" x2="98.89" y2="557.45" xlink:href="#linear-gradient-2"/><linearGradient id="linear-gradient-34" x1="100.4" y1="553.15" x2="107.89" y2="553.15" xlink:href="#linear-gradient-2"/><linearGradient id="linear-gradient-35" x1="109.22" y1="553.62" x2="116.63" y2="553.62" xlink:href="#linear-gradient-2"/><linearGradient id="linear-gradient-36" x1="117.98" y1="553.43" x2="125.54" y2="553.43" xlink:href="#linear-gradient-2"/><linearGradient id="linear-gradient-37" x1="190.09" y1="616.64" x2="190.09" y2="670.31" xlink:href="#linear-gradient-28"/><linearGradient id="linear-gradient-38" x1="-88.66" y1="852.76" x2="-80.3" y2="852.76" gradientTransform="matrix(0.77, -0.64, 0.64, 0.77, -271.86, -564.49)" gradientUnits="userSpaceOnUse"><stop offset="0" stop-color="#bebebe"/><stop offset="0.47" stop-color="#f9f9f9"/><stop offset="0.99" stop-color="#ddd"/></linearGradient><linearGradient id="linear-gradient-39" x1="-134.75" y1="799.1" x2="-34.33" y2="799.1" gradientTransform="matrix(0.77, -0.64, 0.64, 0.77, -271.86, -564.49)" xlink:href="#linear-gradient-2"/><linearGradient id="linear-gradient-40" x1="-124.78" y1="798.97" x2="-44.54" y2="798.97" gradientTransform="matrix(0.77, -0.64, 0.64, 0.77, -271.86, -564.49)" gradientUnits="userSpaceOnUse"><stop offset="0" stop-color="#5db8c6"/><stop offset="1" stop-color="#6a90bf"/></linearGradient><linearGradient id="linear-gradient-41" x1="-124.79" y1="779.06" x2="-44.55" y2="779.06" xlink:href="#linear-gradient-40"/><linearGradient id="linear-gradient-42" x1="-94.49" y1="895.8" x2="-74.44" y2="895.8" gradientTransform="matrix(0.77, -0.64, 0.64, 0.77, -271.86, -564.49)" xlink:href="#linear-gradient-2"/></defs><title>Il_verification</title><g id="Web_Etc" data-name="Web Etc"><path class="cls-1" d="M393.45,345H6.55A6.63,6.63,0,0,0,0,351.57H0a6.62,6.62,0,0,0,6.55,6.54h386.9a6.62,6.62,0,0,0,6.55-6.54h0A6.4,6.4,0,0,0,393.45,345Z"/></g><g id="Verification_web"><polygon class="cls-2" points="400 344.09 400 343.71 397.57 342.96 397.57 345.02 400 344.09"/><path class="cls-3" d="M284.62,350.44c-.38,0-7.67-.74-10.29-1.12-3.36-.37-3-9.16,0-9.91,3-.56,9.91-.93,10.29-1.12,38-3.37,113,3.93,113,3.93V345C397.57,345.21,319.4,354.93,284.62,350.44Z"/><path class="cls-4" d="M320.71,345V343.9l-46.56-1.5s-6-.56-7.67,0c-1.31.38-1.12,3.93,0,4.3,1.87.57,7.67,0,7.67,0Z"/><polygon class="cls-5" points="326.13 352.13 326.32 337.35 323.89 337.35 323.7 352.13 326.13 352.13"/><path class="cls-6" d="M245.54,340.35c0,6.54-4.68,11.78-10.66,11.78H163.81c-5.79,0-10.65-5.24-10.65-11.78V286.49c0-6.55,4.67-11.78,10.65-11.78h71.07c5.79,0,10.66,5.23,10.66,11.78Z"/><path class="cls-7" d="M245.54,339.78c0,6.55-4.68,11.79-10.66,11.79H163.81c-5.79,0-10.65-5.24-10.65-11.79V285.93c0-6.55,4.67-11.78,10.65-11.78h71.07c5.79,0,10.66,5.23,10.66,11.78Z"/><path class="cls-8" d="M383,10.66V273.59a9.87,9.87,0,0,1-3.18,7.48,10.57,10.57,0,0,1-7.48,3.17H10.66A10.65,10.65,0,0,1,0,273.59V10.66A10.66,10.66,0,0,1,10.66,0H372.14A10.94,10.94,0,0,1,383,10.66Z"/><path class="cls-9" d="M383,10.66V273.59a9.87,9.87,0,0,1-3.18,7.48,10.57,10.57,0,0,1-7.48,3.17H10.66A10.65,10.65,0,0,1,0,273.59V10.66A10.66,10.66,0,0,1,10.66,0H372.14A10.94,10.94,0,0,1,383,10.66Z"/><path class="cls-10" d="M383,10.66V231.14H20.2V10.66A10.65,10.65,0,0,1,30.86,0H372.14A10.94,10.94,0,0,1,383,10.66Z"/><rect class="cls-11" x="30.48" y="10.66" width="341.65" height="210"/><path class="cls-12" d="M383,231.14v42.45a9.87,9.87,0,0,1-3.18,7.48,10.57,10.57,0,0,1-7.48,3.17H30.11a10.7,10.7,0,0,1-10.29-10.65V231.14Z"/><path class="cls-13" d="M265.54,345.58a6.62,6.62,0,0,1-6.54,6.55H143.62a6.63,6.63,0,0,1-6.55-6.55h0a6.63,6.63,0,0,1,6.55-6.54H259a6.62,6.62,0,0,1,6.54,6.54Z"/><path class="cls-14" d="M265.54,345.58a6.62,6.62,0,0,1-6.54,6.55H143.62a6.63,6.63,0,0,1-6.55-6.55h0a6.63,6.63,0,0,1,6.55-6.54H259a6.62,6.62,0,0,1,6.54,6.54Z"/><path class="cls-15" d="M219.54,43.38a3.75,3.75,0,0,1-3.74,3.74H53.67a3.75,3.75,0,0,1-3.74-3.74h0a3.75,3.75,0,0,1,3.74-3.74H215.8a3.75,3.75,0,0,1,3.74,3.74Z"/><path class="cls-15" d="M139.88,57a3.75,3.75,0,0,1-3.74,3.74H53.86A3.75,3.75,0,0,1,50.12,57h0a3.75,3.75,0,0,1,3.74-3.74h82.28A3.88,3.88,0,0,1,139.88,57Z"/><path class="cls-15" d="M139.88,71.06a3.75,3.75,0,0,1-3.74,3.74H53.86a3.75,3.75,0,0,1-3.74-3.74h0a3.75,3.75,0,0,1,3.74-3.74h82.28a3.88,3.88,0,0,1,3.74,3.74Z"/><path class="cls-15" d="M219.54,92.94a3.75,3.75,0,0,1-3.74,3.74H53.67a3.75,3.75,0,0,1-3.74-3.74h0a3.75,3.75,0,0,1,3.74-3.74H215.8a3.75,3.75,0,0,1,3.74,3.74Z"/><path class="cls-15" d="M139.88,106.59a3.75,3.75,0,0,1-3.74,3.74H53.86a3.75,3.75,0,0,1-3.74-3.74h0a3.75,3.75,0,0,1,3.74-3.74h82.28a3.88,3.88,0,0,1,3.74,3.74Z"/><path class="cls-15" d="M139.88,120.62a3.75,3.75,0,0,1-3.74,3.74H53.86a3.75,3.75,0,0,1-3.74-3.74h0a3.75,3.75,0,0,1,3.74-3.74h82.28a3.88,3.88,0,0,1,3.74,3.74Z"/><path class="cls-15" d="M219.54,141.94a3.75,3.75,0,0,1-3.74,3.74H53.67a3.75,3.75,0,0,1-3.74-3.74h0a3.75,3.75,0,0,1,3.74-3.74H215.8a3.75,3.75,0,0,1,3.74,3.74Z"/><path class="cls-15" d="M139.88,155.77a3.75,3.75,0,0,1-3.74,3.74H53.86a3.75,3.75,0,0,1-3.74-3.74h0A3.75,3.75,0,0,1,53.86,152h82.28a3.75,3.75,0,0,1,3.74,3.74Z"/><path class="cls-15" d="M139.88,169.61a3.75,3.75,0,0,1-3.74,3.74H53.86a3.75,3.75,0,0,1-3.74-3.74h0a3.75,3.75,0,0,1,3.74-3.74h82.28a3.88,3.88,0,0,1,3.74,3.74Z"/><path class="cls-15" d="M266.67,76.48H251A12.53,12.53,0,0,1,238.43,64v-14A12.53,12.53,0,0,1,251,37.4h15.71A12.53,12.53,0,0,1,279.2,49.93V64A12.41,12.41,0,0,1,266.67,76.48ZM251,41.33a8.78,8.78,0,0,0-8.79,8.79v14A8.78,8.78,0,0,0,251,72.93h15.71a8.78,8.78,0,0,0,8.79-8.79v-14a8.78,8.78,0,0,0-8.79-8.79Z"/><path class="cls-15" d="M266.67,126H251a12.53,12.53,0,0,1-12.53-12.53v-14A12.53,12.53,0,0,1,251,87h15.71A12.53,12.53,0,0,1,279.2,99.49v14A12.53,12.53,0,0,1,266.67,126ZM251,90.7a8.78,8.78,0,0,0-8.79,8.79v14A8.78,8.78,0,0,0,251,122.3h15.71a8.78,8.78,0,0,0,8.79-8.79v-14a8.78,8.78,0,0,0-8.79-8.79Z"/><path class="cls-15" d="M266.67,175H251a12.54,12.54,0,0,1-12.53-12.53V148.67A12.53,12.53,0,0,1,251,136.14h15.71a12.53,12.53,0,0,1,12.53,12.53v14A12.5,12.5,0,0,1,266.67,175ZM251,139.88a8.78,8.78,0,0,0-8.79,8.79v14a8.78,8.78,0,0,0,8.79,8.79h15.71a8.78,8.78,0,0,0,8.79-8.79v-14a8.78,8.78,0,0,0-8.79-8.79Z"/><g class="cls-16"><path class="cls-17" d="M261.06,70.31A4.78,4.78,0,0,1,257.69,69L239,50.3a4.63,4.63,0,1,1,6.55-6.54l15.33,15.33,32.35-32.35a4.63,4.63,0,0,1,6.55,6.55L264.24,68.82A4,4,0,0,1,261.06,70.31Z"/></g><path class="cls-18" d="M261.06,68.44a4.78,4.78,0,0,1-3.37-1.31L239,48.43a4.63,4.63,0,1,1,6.55-6.54l15.33,15.33,32.35-32.35a4.63,4.63,0,0,1,6.55,6.55L264.24,67A4.64,4.64,0,0,1,261.06,68.44Z"/><g class="cls-16"><path class="cls-19" d="M258.44,119.87a4.8,4.8,0,0,1-3.37-1.31l-18.7-18.7a4.63,4.63,0,1,1,6.55-6.55l15.33,15.34L290.6,76.3a4.63,4.63,0,1,1,6.55,6.54l-35.53,35.53A3.5,3.5,0,0,1,258.44,119.87Z"/></g><path class="cls-20" d="M258.44,118a4.8,4.8,0,0,1-3.37-1.31L236.37,98a4.63,4.63,0,1,1,6.55-6.55l15.33,15.34L290.6,74.43A4.63,4.63,0,0,1,297.15,81L261.62,116.5A4,4,0,0,1,258.44,118Z"/><g class="cls-16"><path class="cls-21" d="M258.44,165.31a4.8,4.8,0,0,1-3.37-1.31l-18.7-18.7a4.63,4.63,0,1,1,6.55-6.54l15.33,15.33,32.35-32.35a4.63,4.63,0,1,1,6.55,6.54l-35.53,35.53A4,4,0,0,1,258.44,165.31Z"/></g><path class="cls-22" d="M258.44,163.25a4.8,4.8,0,0,1-3.37-1.31l-18.7-18.7a4.63,4.63,0,1,1,6.55-6.54L258.25,152l32.35-32.35a4.63,4.63,0,0,1,6.55,6.55l-35.53,35.53A3.52,3.52,0,0,1,258.44,163.25Z"/><path class="cls-23" d="M124.36,209.44H40A9.58,9.58,0,0,0,30.48,219v63a9.66,9.66,0,0,0,6,2.06h97.42V219A9.58,9.58,0,0,0,124.36,209.44Z"/><path class="cls-24" d="M132,352.69H47.69a9.58,9.58,0,0,1-9.54-9.54V219a9.58,9.58,0,0,1,9.54-9.54H132a9.58,9.58,0,0,1,9.54,9.54V343.15A9.46,9.46,0,0,1,132,352.69Z"/><path class="cls-25" d="M138.57,352.69H54.23a9.58,9.58,0,0,1-9.54-9.54V219a9.58,9.58,0,0,1,9.54-9.54h84.34a9.58,9.58,0,0,1,9.54,9.54V343.15A9.58,9.58,0,0,1,138.57,352.69Z"/><path class="cls-26" d="M57.22,238.24v-4.67A9.58,9.58,0,0,1,66.76,224h59.47a9.58,9.58,0,0,1,9.53,9.54v4.67a9.58,9.58,0,0,1-9.53,9.54H66.76A9.35,9.35,0,0,1,57.22,238.24Z"/><path class="cls-27" d="M57.22,286.68V272.46a9.58,9.58,0,0,1,9.54-9.53H81a9.58,9.58,0,0,1,9.54,9.53v14.22A9.58,9.58,0,0,1,81,296.21H66.76A9.57,9.57,0,0,1,57.22,286.68Z"/><path class="cls-28" d="M101.92,286.68V272.46a9.57,9.57,0,0,1,9.53-9.53h14.22a9.57,9.57,0,0,1,9.53,9.53v14.22a9.57,9.57,0,0,1-9.53,9.53H111.45A9.69,9.69,0,0,1,101.92,286.68Z"/><path class="cls-29" d="M101.92,332.68V318.47a9.58,9.58,0,0,1,9.53-9.54h14.22a9.58,9.58,0,0,1,9.53,9.54v14.21a9.58,9.58,0,0,1-9.53,9.54H111.45A9.58,9.58,0,0,1,101.92,332.68Z"/><path class="cls-30" d="M57.22,332.68V318.47a9.58,9.58,0,0,1,9.54-9.54H81a9.58,9.58,0,0,1,9.54,9.54v14.21A9.58,9.58,0,0,1,81,342.22H66.76A9.47,9.47,0,0,1,57.22,332.68Z"/><path class="cls-31" d="M57.22,283.87V269.66a9.58,9.58,0,0,1,9.54-9.54H81a9.58,9.58,0,0,1,9.54,9.54v14.21A9.58,9.58,0,0,1,81,293.41H66.76A9.46,9.46,0,0,1,57.22,283.87Z"/><path class="cls-32" d="M101.92,283.87V269.66a9.58,9.58,0,0,1,9.53-9.54h14.22a9.58,9.58,0,0,1,9.53,9.54v14.21a9.58,9.58,0,0,1-9.53,9.54H111.45A9.58,9.58,0,0,1,101.92,283.87Z"/><path class="cls-33" d="M57.22,329.31V315.1a9.58,9.58,0,0,1,9.54-9.54H81a9.58,9.58,0,0,1,9.54,9.54v14.21A9.58,9.58,0,0,1,81,338.85H66.76A9.24,9.24,0,0,1,57.22,329.31Z"/><path class="cls-34" d="M101.92,329.31V315.1a9.58,9.58,0,0,1,9.53-9.54h14.22a9.58,9.58,0,0,1,9.53,9.54v14.21a9.58,9.58,0,0,1-9.53,9.54H111.45A9.34,9.34,0,0,1,101.92,329.31Z"/><path class="cls-35" d="M71.62,284.43v-5.8H66v-3.92h5.61v-5.8h4.49v5.8h5.61v3.92H76.11v5.8Z"/><path class="cls-36" d="M113,278.82v-4.3h11.41v4.3Z"/><path class="cls-37" d="M66.76,326.13,70.87,322,67,318.09l2.8-2.8,3.93,3.92,4.11-4.11L81,318.28l-4.11,4.11,3.93,3.93L78,329.13l-3.93-3.93-4.11,4.11Z"/><path class="cls-38" d="M110.89,316.22h15.52v3.93H110.89Zm0,8h15.52v3.93H110.89Z"/><path class="cls-39" d="M89.76,230.58h4.12v10.28H91.63v-8.41H89.76Z"/><path class="cls-40" d="M96.49,240.49a1.47,1.47,0,0,1-.37-.94,1.44,1.44,0,0,1,.37-.93,1.42,1.42,0,0,1,.94-.38,1.3,1.3,0,0,1,1.31,1.31,1.42,1.42,0,0,1-.38.94,1.44,1.44,0,0,1-.93.37C97.05,240.86,96.87,240.67,96.49,240.49Z"/><path class="cls-41" d="M104.91,234.5a2.6,2.6,0,0,0,.37-1.12c0-.37-.18-.56-.37-.93a1.42,1.42,0,0,0-.94-.38,2.36,2.36,0,0,0-1.87,1.31l-1.87-1.12a4.76,4.76,0,0,1,1.69-1.68,4,4,0,0,1,4.67.37,2.51,2.51,0,0,1,.94,2.24,3.49,3.49,0,0,1-.38,1.5,5.88,5.88,0,0,1-1.49,1.87l-1.87,1.87h4.11v2.06h-7.29V238.8l3-3.18A8,8,0,0,0,104.91,234.5Z"/><path class="cls-42" d="M109.77,232.45v-2.06h6.36v1.68l-2.06,2.43a3.18,3.18,0,0,1,1.87,1.12,3.33,3.33,0,0,1,.75,1.87,3.38,3.38,0,0,1-1.12,2.62,4.63,4.63,0,0,1-2.81.94,7.2,7.2,0,0,1-3.55-1.12l.93-1.87a4.52,4.52,0,0,0,2.62,1.12,1.94,1.94,0,0,0,1.12-.38c.38-.18.38-.56.38-.93a1,1,0,0,0-.56-.94,3,3,0,0,0-1.5-.37,5,5,0,0,0-1.31.37v-2.24l2.06-2.43-3.18.19Z"/><path class="cls-43" d="M122.11,236.19v-1.87h2.25v1.87h1.12v2.05h-1.12v2.43h-2.25v-2.43h-4.3v-1.68l3.74-6.17H124l-3.55,5.8Z"/><path class="cls-14" d="M226.46,298.64H145.11a3.76,3.76,0,0,0-3.74,3.74v46.38a3.75,3.75,0,0,0,3.74,3.74h81.35a3.75,3.75,0,0,0,3.74-3.74V302.57A3.8,3.8,0,0,0,226.46,298.64Z"/><path class="cls-11" d="M234.5,348.57a3.75,3.75,0,0,1-3.74,3.74H149.42a3.75,3.75,0,0,1-3.74-3.74V302.38a3.75,3.75,0,0,1,3.74-3.74h81.34a3.75,3.75,0,0,1,3.74,3.74Z"/><path class="cls-44" d="M234.5,348.57a3.75,3.75,0,0,1-3.74,3.74H149.42a3.75,3.75,0,0,1-3.74-3.74V302.38a3.75,3.75,0,0,1,3.74-3.74h81.34a3.75,3.75,0,0,1,3.74,3.74Z"/><path class="cls-45" d="M229.64,329.69a3.75,3.75,0,0,1-3.74,3.74H215.43a3.75,3.75,0,0,1-3.74-3.74V314.35a3.75,3.75,0,0,1,3.74-3.74H225.9a3.75,3.75,0,0,1,3.74,3.74Z"/><path class="cls-15" d="M222.35,324.82c-.56-.37-.19-.93,0-1.12a5.29,5.29,0,0,0,.74-1.49c.75-.38.75-.75.75-1.13.38-.93-.37-1.12-.37-1.12a5.5,5.5,0,0,0,.19-2.8c-.57-1.69-3.18-2.25-3.74-.75-3.18-.75-2.44,3.55-2.44,3.55s-.74.19-.37,1.12a1.37,1.37,0,0,0,.75,1.13,5.12,5.12,0,0,0,.75,1.49c.18.19.56.75,0,1.12-1.13.57-4.49.75-4.49,3.37H227C227,325.57,223.47,325.39,222.35,324.82Z"/><path class="cls-45" d="M207.76,305.38a1.88,1.88,0,0,1-1.87,1.87h-28a1.88,1.88,0,0,1-1.87-1.87h0a1.87,1.87,0,0,1,1.87-1.87h28c1.31.18,1.87.93,1.87,1.87Z"/><path class="cls-45" d="M198.6,313.79a1.67,1.67,0,0,1-1.69,1.68H153a1.66,1.66,0,0,1-1.68-1.68h0a1.67,1.67,0,0,1,1.68-1.68h43.94a1.57,1.57,0,0,1,1.69,1.68Z"/><path class="cls-45" d="M187,321.46a1.47,1.47,0,0,1-1.49,1.49H153a1.47,1.47,0,0,1-1.5-1.49h0A1.48,1.48,0,0,1,153,320h32.54a1.47,1.47,0,0,1,1.49,1.5Z"/><path class="cls-45" d="M187,329.69a1.6,1.6,0,0,1-1.49,1.49H153a1.61,1.61,0,0,1-1.5-1.49h0a1.61,1.61,0,0,1,1.5-1.5h32.54a1.6,1.6,0,0,1,1.49,1.5Z"/><path class="cls-46" d="M212.06,344.65c3.74-.38,9-3,9.35-6.92-1.87-.75-6.36,2-5,4.49,1.31,2.61,5.43,0,6.92-1.13-1.12.56-1.87,1.5-.93,2.25.74.56,2.24-.56,3.18-.38,1.49.38,1.3,2.25,3.36,2.06"/><polygon class="cls-47" points="212.25 148.29 205.7 153.53 199.16 145.68 205.7 140.44 212.25 148.29"/><path class="cls-48" d="M139.5,67a50.21,50.21,0,1,0,70.69,6.73C192.43,52.36,160.82,49.18,139.5,67Zm57.41,69.56A40.12,40.12,0,1,1,202.34,80,40.24,40.24,0,0,1,196.91,136.51Z"/><path class="cls-49" d="M196.91,136.51A40.12,40.12,0,1,1,202.34,80,40.24,40.24,0,0,1,196.91,136.51Z"/><path class="cls-50" d="M148.85,78.35c17-14,39.46-15.33,53.49,1.87a40.12,40.12,0,0,0-61.9,51.06C126.23,114.07,131.65,92.38,148.85,78.35Z"/><path class="cls-51" d="M260.5,208.13l-5.24,4.31a6.57,6.57,0,0,1-9.35-.94l-41.14-49.93a6.58,6.58,0,0,1,.93-9.35l5.24-4.3a6.58,6.58,0,0,1,9.35.93l41.14,49.93A6.75,6.75,0,0,1,260.5,208.13Z"/></g></svg>