<?xml version="1.0" encoding="utf-8"?>
<!-- Generator: Adobe Illustrator 21.0.0, SVG Export Plug-In . SVG Version: 6.00 Build 0)  -->
<svg version="1.1" id="Layer_1" xmlns="http://www.w3.org/2000/svg" xmlns:xlink="http://www.w3.org/1999/xlink" x="0px" y="0px"
	 viewBox="0 0 400 400" style="enable-background:new 0 0 400 400;" xml:space="preserve">
<style type="text/css">
	.st0{opacity:0.2;fill:url(#SVGID_1_);enable-background:new    ;}
	.st1{fill:#C6C6C6;}
	.st2{fill:url(#SVGID_2_);}
	.st3{fill:url(#SVGID_3_);}
	.st4{fill:url(#SVGID_4_);}
	.st5{fill:url(#SVGID_5_);}
	.st6{opacity:0.3;enable-background:new    ;}
	.st7{opacity:0.1;enable-background:new    ;}
	.st8{fill:url(#SVGID_6_);}
	.st9{fill:url(#SVGID_7_);}
	.st10{fill:#FFFFFF;}
	.st11{fill:url(#SVGID_8_);}
	.st12{fill:url(#SVGID_9_);}
	.st13{opacity:0.2;enable-background:new    ;}
	.st14{fill:#999999;}
	.st15{opacity:0.5;}
	.st16{fill:url(#SVGID_10_);}
	.st17{fill:url(#SVGID_11_);}
	.st18{fill:url(#SVGID_12_);}
	.st19{fill:url(#SVGID_13_);}
	.st20{fill:url(#SVGID_14_);}
	.st21{fill:url(#SVGID_15_);}
	.st22{opacity:0.2;fill:url(#SVGID_16_);enable-background:new    ;}
	.st23{fill:url(#SVGID_17_);}
	.st24{fill:url(#SVGID_18_);}
	.st25{fill:url(#SVGID_19_);}
	.st26{opacity:0.78;fill:url(#SVGID_20_);enable-background:new    ;}
	.st27{opacity:0.78;fill:url(#SVGID_21_);enable-background:new    ;}
	.st28{opacity:0.78;fill:url(#SVGID_22_);enable-background:new    ;}
	.st29{opacity:0.78;fill:url(#SVGID_23_);enable-background:new    ;}
	.st30{fill:url(#SVGID_24_);}
	.st31{fill:url(#SVGID_25_);}
	.st32{fill:url(#SVGID_26_);}
	.st33{fill:url(#SVGID_27_);}
	.st34{fill:url(#SVGID_28_);}
	.st35{fill:url(#SVGID_29_);}
	.st36{fill:url(#SVGID_30_);}
	.st37{fill:url(#SVGID_31_);}
	.st38{fill:url(#SVGID_32_);}
	.st39{fill:url(#SVGID_33_);}
	.st40{fill:url(#SVGID_34_);}
	.st41{fill:url(#SVGID_35_);}
	.st42{fill:url(#SVGID_36_);}
	.st43{opacity:0.6;fill:url(#SVGID_37_);enable-background:new    ;}
	.st44{fill:#EAEAEA;}
	.st45{fill:none;stroke:#FFFFFF;stroke-width:0.4044;stroke-miterlimit:10;}
	.st46{fill:url(#SVGID_38_);}
	.st47{fill:url(#SVGID_39_);}
	.st48{opacity:0.38;fill:url(#SVGID_40_);enable-background:new    ;}
	.st49{opacity:0.38;fill:url(#SVGID_41_);enable-background:new    ;}
	.st50{fill:url(#SVGID_42_);}
</style>
<g id="Backup">
</g>
<g id="Splash">
</g>
<g id="Home">
</g>
<g id="Doku">
</g>
<g id="Product">
</g>
<g id="Selamat">
	<g id="Reg_Suc">
	</g>
</g>
<g id="How_to">
</g>
<g id="Syarat">
</g>
<g id="Web_Etc">
	
		<linearGradient id="SVGID_1_" gradientUnits="userSpaceOnUse" x1="82.05" y1="120.55" x2="295.95" y2="120.55" gradientTransform="matrix(1 0 0 -1 0 402.1)">
		<stop  offset="0" style="stop-color:#5E5E5E;stop-opacity:0.5"/>
		<stop  offset="1" style="stop-color:#2E2E2E"/>
	</linearGradient>
	<path class="st0" d="M292.4,278H85.5c-1.9,0-3.5,1.6-3.5,3.5l0,0c0,1.9,1.6,3.5,3.5,3.5h206.9c1.9,0,3.5-1.6,3.5-3.5l0,0
		C295.9,279.5,294.4,278,292.4,278z"/>
</g>
<g id="Pop_Up">
</g>
<g id="Up_Load_Dokumen">
</g>
<g id="Up_load_BFI">
</g>
<g id="Pilihan_pinjaman">
</g>
<g id="SPHP">
</g>
<g id="Aktivitas_Pinjaman">
</g>
<g id="No_internet">
</g>
<g id="Pinjaman_Baru">
</g>
<g id="Fraud">
</g>
<g id="Waktu_habis">
</g>
<g id="Gagal_Scrap">
</g>
<g id="Permission">
</g>
<g id="Main_Illustration">
</g>
<g id="Voice_Rec">
</g>
<g id="Set_PIN">
</g>
<g id="Yes_No">
</g>
<g id="Layer_24">
</g>
<g id="Update">
</g>
<g id="Ratings">
</g>
<g id="Verification_x5F_web">
	<g>
		<polygon class="st1" points="295.9,277.5 295.9,277.3 294.6,276.9 294.6,278 		"/>
		
			<linearGradient id="SVGID_2_" gradientUnits="userSpaceOnUse" x1="261.062" y1="128.0346" x2="261.062" y2="120.5496" gradientTransform="matrix(1 0 0 -1 0 402.1)">
			<stop  offset="0" style="stop-color:#5E5E5E"/>
			<stop  offset="1" style="stop-color:#2E2E2E"/>
		</linearGradient>
		<path class="st2" d="M234.2,280.9c-0.2,0-4.1-0.4-5.5-0.6c-1.8-0.2-1.6-4.9,0-5.3c1.6-0.3,5.3-0.5,5.5-0.6
			c20.3-1.8,60.4,2.1,60.4,2.1v1.5C294.6,278.1,252.8,283.3,234.2,280.9z"/>
		
			<linearGradient id="SVGID_3_" gradientUnits="userSpaceOnUse" x1="238.8059" y1="123.0167" x2="238.8059" y2="125.5699" gradientTransform="matrix(1 0 0 -1 0 402.1)">
			<stop  offset="0" style="stop-color:#999999"/>
			<stop  offset="1" style="stop-color:#E5E5E5"/>
		</linearGradient>
		<path class="st3" d="M253.5,278v-0.6l-24.9-0.8c0,0-3.2-0.3-4.1,0c-0.7,0.2-0.6,2.1,0,2.3c1,0.3,4.1,0,4.1,0L253.5,278z"/>
		
			<linearGradient id="SVGID_4_" gradientUnits="userSpaceOnUse" x1="255.85" y1="120.3098" x2="255.85" y2="128.1501" gradientTransform="matrix(1 0 0 -1 0 402.1)">
			<stop  offset="0" style="stop-color:#ECC41C"/>
			<stop  offset="0.4737" style="stop-color:#FFFFCC"/>
			<stop  offset="0.9921" style="stop-color:#FFE93C"/>
		</linearGradient>
		<polygon class="st4" points="256.4,281.8 256.5,273.9 255.2,273.9 255.1,281.8 		"/>
	</g>
	<g>
		
			<linearGradient id="SVGID_5_" gradientUnits="userSpaceOnUse" x1="188.65" y1="120.25" x2="188.65" y2="161.5835" gradientTransform="matrix(1 0 0 -1 0 402.1)">
			<stop  offset="0" style="stop-color:#999999"/>
			<stop  offset="1" style="stop-color:#5E5E5E"/>
		</linearGradient>
		<path class="st5" d="M213.3,275.5c0,3.5-2.5,6.3-5.7,6.3h-38c-3.1,0-5.7-2.8-5.7-6.3v-28.8c0-3.5,2.5-6.3,5.7-6.3h38
			c3.1,0,5.7,2.8,5.7,6.3V275.5z"/>
		<path class="st6" d="M213.3,275.2c0,3.5-2.5,6.3-5.7,6.3h-38c-3.1,0-5.7-2.8-5.7-6.3v-28.8c0-3.5,2.5-6.3,5.7-6.3h38
			c3.1,0,5.7,2.8,5.7,6.3V275.2z"/>
		<path class="st7" d="M286.8,99.2v140.6c0,1.6-0.6,3-1.7,4c-1,1-2.4,1.7-4,1.7H87.7c-3.1,0-5.7-2.5-5.7-5.7V99.2
			c0-3.1,2.5-5.7,5.7-5.7H281C284.1,93.5,286.8,96.1,286.8,99.2z"/>
		
			<linearGradient id="SVGID_6_" gradientUnits="userSpaceOnUse" x1="184.4" y1="308.55" x2="184.4" y2="156.55" gradientTransform="matrix(1 0 0 -1 0 402.1)">
			<stop  offset="0" style="stop-color:#999999"/>
			<stop  offset="1" style="stop-color:#5E5E5E"/>
		</linearGradient>
		<path class="st8" d="M286.8,99.2v140.6c0,1.6-0.6,3-1.7,4c-1,1-2.4,1.7-4,1.7H87.7c-3.1,0-5.7-2.5-5.7-5.7V99.2
			c0-3.1,2.5-5.7,5.7-5.7H281C284.1,93.5,286.8,96.1,286.8,99.2z"/>
		
			<linearGradient id="SVGID_7_" gradientUnits="userSpaceOnUse" x1="189.75" y1="308.55" x2="189.75" y2="184.95" gradientTransform="matrix(1 0 0 -1 0 402.1)">
			<stop  offset="0" style="stop-color:#5E5E5E"/>
			<stop  offset="1" style="stop-color:#2E2E2E"/>
		</linearGradient>
		<path class="st9" d="M286.8,99.2v117.9h-194V99.2c0-3.1,2.5-5.7,5.7-5.7H281C284.1,93.5,286.8,96.1,286.8,99.2z"/>
		<rect x="98.3" y="99.2" class="st10" width="182.7" height="112.3"/>
		
			<linearGradient id="SVGID_8_" gradientUnits="userSpaceOnUse" x1="189.7" y1="184.9101" x2="189.7" y2="156.5698" gradientTransform="matrix(1 0 0 -1 0 402.1)">
			<stop  offset="0" style="stop-color:#999999"/>
			<stop  offset="1" style="stop-color:#5E5E5E"/>
		</linearGradient>
		<path class="st11" d="M286.8,217.1v22.7c0,1.6-0.6,3-1.7,4c-1,1-2.4,1.7-4,1.7H98.3c-0.1,0-0.1,0-0.2,0c-3-0.1-5.5-2.6-5.5-5.7
			v-22.7H286.8z"/>
		
			<linearGradient id="SVGID_9_" gradientUnits="userSpaceOnUse" x1="189.7" y1="127.2417" x2="189.7" y2="120.2417" gradientTransform="matrix(1 0 0 -1 0 402.1)">
			<stop  offset="0" style="stop-color:#999999"/>
			<stop  offset="1" style="stop-color:#5E5E5E"/>
		</linearGradient>
		<path class="st12" d="M224,278.3c0,1.9-1.6,3.5-3.5,3.5h-61.7c-1.9,0-3.5-1.6-3.5-3.5l0,0c0-1.9,1.6-3.5,3.5-3.5h61.7
			C222.4,274.8,224,276.4,224,278.3L224,278.3z"/>
		<path class="st13" d="M224,278.3c0,1.9-1.6,3.5-3.5,3.5h-61.7c-1.9,0-3.5-1.6-3.5-3.5l0,0c0-1.9,1.6-3.5,3.5-3.5h61.7
			C222.4,274.8,224,276.4,224,278.3L224,278.3z"/>
		<g>
			<path class="st14" d="M199.4,116.7c0,1.1-0.9,2-2,2h-86.7c-1.1,0-2-0.9-2-2l0,0c0-1.1,0.9-2,2-2h86.7
				C198.5,114.7,199.4,115.6,199.4,116.7L199.4,116.7z"/>
			<path class="st14" d="M156.8,124c0,1.1-0.9,2-2,2h-44c-1.1,0-2-0.9-2-2l0,0c0-1.1,0.9-2,2-2h44C155.8,122,156.8,122.9,156.8,124
				L156.8,124z"/>
			<path class="st14" d="M156.8,131.5c0,1.1-0.9,2-2,2h-44c-1.1,0-2-0.9-2-2l0,0c0-1.1,0.9-2,2-2h44
				C155.8,129.5,156.8,130.4,156.8,131.5L156.8,131.5z"/>
			<path class="st14" d="M199.4,143.2c0,1.1-0.9,2-2,2h-86.7c-1.1,0-2-0.9-2-2l0,0c0-1.1,0.9-2,2-2h86.7
				C198.5,141.2,199.4,142.1,199.4,143.2L199.4,143.2z"/>
			<path class="st14" d="M156.8,150.5c0,1.1-0.9,2-2,2h-44c-1.1,0-2-0.9-2-2l0,0c0-1.1,0.9-2,2-2h44
				C155.8,148.5,156.8,149.4,156.8,150.5L156.8,150.5z"/>
			<path class="st14" d="M156.8,158c0,1.1-0.9,2-2,2h-44c-1.1,0-2-0.9-2-2l0,0c0-1.1,0.9-2,2-2h44C155.8,156,156.8,156.9,156.8,158
				L156.8,158z"/>
			<path class="st14" d="M199.4,169.4c0,1.1-0.9,2-2,2h-86.7c-1.1,0-2-0.9-2-2l0,0c0-1.1,0.9-2,2-2h86.7
				C198.5,167.4,199.4,168.3,199.4,169.4L199.4,169.4z"/>
			<path class="st14" d="M156.8,176.8c0,1.1-0.9,2-2,2h-44c-1.1,0-2-0.9-2-2l0,0c0-1.1,0.9-2,2-2h44
				C155.8,174.8,156.8,175.6,156.8,176.8L156.8,176.8z"/>
			<path class="st14" d="M156.8,184.2c0,1.1-0.9,2-2,2h-44c-1.1,0-2-0.9-2-2l0,0c0-1.1,0.9-2,2-2h44
				C155.8,182.2,156.8,183.1,156.8,184.2L156.8,184.2z"/>
		</g>
		<g>
			<path class="st14" d="M224.6,134.4h-8.4c-3.7,0-6.7-3-6.7-6.7v-7.5c0-3.7,3-6.7,6.7-6.7h8.4c3.7,0,6.7,3,6.7,6.7v7.5
				C231.3,131.5,228.3,134.4,224.6,134.4z M216.2,115.6c-2.6,0-4.7,2.1-4.7,4.7v7.5c0,2.6,2.1,4.7,4.7,4.7h8.4
				c2.6,0,4.7-2.1,4.7-4.7v-7.5c0-2.6-2.1-4.7-4.7-4.7H216.2z"/>
		</g>
		<g>
			<path class="st14" d="M224.6,160.9h-8.4c-3.7,0-6.7-3-6.7-6.7v-7.5c0-3.7,3-6.7,6.7-6.7h8.4c3.7,0,6.7,3,6.7,6.7v7.5
				C231.3,157.9,228.3,160.9,224.6,160.9z M216.2,142c-2.6,0-4.7,2.1-4.7,4.7v7.5c0,2.6,2.1,4.7,4.7,4.7h8.4c2.6,0,4.7-2.1,4.7-4.7
				v-7.5c0-2.6-2.1-4.7-4.7-4.7H216.2z"/>
		</g>
		<g>
			<path class="st14" d="M224.6,187.1h-8.4c-3.7,0-6.7-3-6.7-6.7V173c0-3.7,3-6.7,6.7-6.7h8.4c3.7,0,6.7,3,6.7,6.7v7.5
				C231.3,184.1,228.3,187.1,224.6,187.1z M216.2,168.3c-2.6,0-4.7,2.1-4.7,4.7v7.5c0,2.6,2.1,4.7,4.7,4.7h8.4
				c2.6,0,4.7-2.1,4.7-4.7V173c0-2.6-2.1-4.7-4.7-4.7H216.2z"/>
		</g>
		<g>
			<g class="st15">
				
					<linearGradient id="SVGID_10_" gradientUnits="userSpaceOnUse" x1="209.1537" y1="282.975" x2="243.1081" y2="282.975" gradientTransform="matrix(1 0 0 -1 0 402.1)">
					<stop  offset="0" style="stop-color:#1B4698"/>
					<stop  offset="0.3636" style="stop-color:#1C4A99"/>
					<stop  offset="0.6972" style="stop-color:#1F559E"/>
					<stop  offset="1" style="stop-color:#2366A5"/>
				</linearGradient>
				<path class="st16" d="M221.6,131.1c-0.6,0-1.3-0.2-1.8-0.7l-10-10c-1-1-1-2.5,0-3.5s2.5-1,3.5,0l8.2,8.2l17.3-17.3
					c1-1,2.5-1,3.5,0s1,2.5,0,3.5l-19,19C222.8,130.9,222.2,131.1,221.6,131.1z"/>
			</g>
			<g>
				
					<linearGradient id="SVGID_11_" gradientUnits="userSpaceOnUse" x1="209.1537" y1="283.975" x2="243.1081" y2="283.975" gradientTransform="matrix(1 0 0 -1 0 402.1)">
					<stop  offset="0" style="stop-color:#4775B9"/>
					<stop  offset="0.4526" style="stop-color:#4479BC"/>
					<stop  offset="0.8679" style="stop-color:#3D84C5"/>
					<stop  offset="1" style="stop-color:#3989C9"/>
				</linearGradient>
				<path class="st17" d="M221.6,130.1c-0.6,0-1.3-0.2-1.8-0.7l-10-10c-1-1-1-2.5,0-3.5s2.5-1,3.5,0l8.2,8.2l17.3-17.3
					c1-1,2.5-1,3.5,0s1,2.5,0,3.5l-19,19C222.8,129.8,222.2,130.1,221.6,130.1z"/>
			</g>
		</g>
		<g>
			<g class="st15">
				
					<linearGradient id="SVGID_12_" gradientUnits="userSpaceOnUse" x1="207.8207" y1="256.475" x2="241.7757" y2="256.475" gradientTransform="matrix(1 0 0 -1 0 402.1)">
					<stop  offset="0" style="stop-color:#1B4698"/>
					<stop  offset="0.3636" style="stop-color:#1C4A99"/>
					<stop  offset="0.6972" style="stop-color:#1F559E"/>
					<stop  offset="1" style="stop-color:#2366A5"/>
				</linearGradient>
				<path class="st18" d="M220.2,157.6c-0.6,0-1.3-0.2-1.8-0.7l-10-10c-1-1-1-2.5,0-3.5s2.5-1,3.5,0l8.2,8.2l17.3-17.3
					c1-1,2.5-1,3.5,0s1,2.5,0,3.5l-19,19C221.5,157.4,220.9,157.6,220.2,157.6z"/>
			</g>
			<g>
				
					<linearGradient id="SVGID_13_" gradientUnits="userSpaceOnUse" x1="207.8207" y1="257.475" x2="241.7757" y2="257.475" gradientTransform="matrix(1 0 0 -1 0 402.1)">
					<stop  offset="0" style="stop-color:#4775B9"/>
					<stop  offset="0.4526" style="stop-color:#4479BC"/>
					<stop  offset="0.8679" style="stop-color:#3D84C5"/>
					<stop  offset="1" style="stop-color:#3989C9"/>
				</linearGradient>
				<path class="st19" d="M220.2,156.6c-0.6,0-1.3-0.2-1.8-0.7l-10-10c-1-1-1-2.5,0-3.5s2.5-1,3.5,0l8.2,8.2l17.3-17.3
					c1-1,2.5-1,3.5,0s1,2.5,0,3.5l-19,19C221.5,156.3,220.9,156.6,220.2,156.6z"/>
			</g>
		</g>
		<g>
			<g class="st15">
				
					<linearGradient id="SVGID_14_" gradientUnits="userSpaceOnUse" x1="207.8217" y1="232.175" x2="241.7767" y2="232.175" gradientTransform="matrix(1 0 0 -1 0 402.1)">
					<stop  offset="0" style="stop-color:#1B4698"/>
					<stop  offset="0.3636" style="stop-color:#1C4A99"/>
					<stop  offset="0.6972" style="stop-color:#1F559E"/>
					<stop  offset="1" style="stop-color:#2366A5"/>
				</linearGradient>
				<path class="st20" d="M220.2,181.9c-0.6,0-1.3-0.2-1.8-0.7l-10-10c-1-1-1-2.5,0-3.5s2.5-1,3.5,0l8.2,8.2l17.3-17.3
					c1-1,2.5-1,3.5,0s1,2.5,0,3.5l-19,19C221.5,181.6,220.9,181.9,220.2,181.9z"/>
			</g>
			<g>
				
					<linearGradient id="SVGID_15_" gradientUnits="userSpaceOnUse" x1="207.8217" y1="233.275" x2="241.7767" y2="233.275" gradientTransform="matrix(1 0 0 -1 0 402.1)">
					<stop  offset="0" style="stop-color:#4775B9"/>
					<stop  offset="0.4526" style="stop-color:#4479BC"/>
					<stop  offset="0.8679" style="stop-color:#3D84C5"/>
					<stop  offset="1" style="stop-color:#3989C9"/>
				</linearGradient>
				<path class="st21" d="M220.2,180.8c-0.6,0-1.3-0.2-1.8-0.7l-10-10c-1-1-1-2.5,0-3.5s2.5-1,3.5,0l8.2,8.2l17.3-17.3
					c1-1,2.5-1,3.5,0s1,2.5,0,3.5l-19,19C221.5,180.6,220.9,180.8,220.2,180.8z"/>
			</g>
		</g>
	</g>
	
		<linearGradient id="SVGID_16_" gradientUnits="userSpaceOnUse" x1="126" y1="212.8845" x2="126" y2="104.9511" gradientTransform="matrix(1 0 0 -1 0 402.1)">
		<stop  offset="0" style="stop-color:#5E5E5E;stop-opacity:0.5"/>
		<stop  offset="1" style="stop-color:#2E2E2E"/>
	</linearGradient>
	<path class="st22" d="M148.5,205.5h-45.1c-2.8,0-5.1,2.3-5.1,5.1v6.5v27.2c0.9,0.7,2,1.1,3.2,1.1c0.1,0,0.1,0,0.2,0h51.9v-28.3
		v-6.5C153.6,207.8,151.3,205.5,148.5,205.5z"/>
	<g>
		
			<linearGradient id="SVGID_17_" gradientUnits="userSpaceOnUse" x1="130.1" y1="119.95" x2="130.1" y2="196.55" gradientTransform="matrix(1 0 0 -1 0 402.1)">
			<stop  offset="0" style="stop-color:#5E5E5E"/>
			<stop  offset="1" style="stop-color:#2E2E2E"/>
		</linearGradient>
		<path class="st23" d="M152.6,282.1h-45.1c-2.8,0-5.1-2.3-5.1-5.1v-66.4c0-2.8,2.3-5.1,5.1-5.1h45.1c2.8,0,5.1,2.3,5.1,5.1V277
			C157.8,279.8,155.4,282.1,152.6,282.1z"/>
		
			<linearGradient id="SVGID_18_" gradientUnits="userSpaceOnUse" x1="133.6" y1="196.55" x2="133.6" y2="119.95" gradientTransform="matrix(1 0 0 -1 0 402.1)">
			<stop  offset="0" style="stop-color:#5E5E5E"/>
			<stop  offset="1" style="stop-color:#2E2E2E"/>
		</linearGradient>
		<path class="st24" d="M156.1,282.1H111c-2.8,0-5.1-2.3-5.1-5.1v-66.4c0-2.8,2.3-5.1,5.1-5.1h45.1c2.8,0,5.1,2.3,5.1,5.1V277
			C161.2,279.8,158.9,282.1,156.1,282.1z"/>
		
			<linearGradient id="SVGID_19_" gradientUnits="userSpaceOnUse" x1="133.65" y1="188.7739" x2="133.65" y2="176.0263" gradientTransform="matrix(1 0 0 -1 0 402.1)">
			<stop  offset="0" style="stop-color:#F2F2F2"/>
			<stop  offset="1" style="stop-color:#CCCCCC"/>
		</linearGradient>
		<path class="st25" d="M112.6,220.9v-2.5c0-2.8,2.3-5.1,5.1-5.1h31.8c2.8,0,5.1,2.3,5.1,5.1v2.5c0,2.8-2.3,5.1-5.1,5.1h-31.8
			C114.8,226,112.6,223.8,112.6,220.9z"/>
		
			<linearGradient id="SVGID_20_" gradientUnits="userSpaceOnUse" x1="121.55" y1="168.05" x2="121.55" y2="150.2035" gradientTransform="matrix(1 0 0 -1 0 402.1)">
			<stop  offset="0" style="stop-color:#5E5E5E;stop-opacity:0.5"/>
			<stop  offset="1" style="stop-color:#2E2E2E"/>
		</linearGradient>
		<path class="st26" d="M112.6,246.8v-7.6c0-2.8,2.3-5.1,5.1-5.1h7.6c2.8,0,5.1,2.3,5.1,5.1v7.6c0,2.8-2.3,5.1-5.1,5.1h-7.6
			C114.8,251.8,112.6,249.6,112.6,246.8z"/>
		
			<linearGradient id="SVGID_21_" gradientUnits="userSpaceOnUse" x1="145.45" y1="168.05" x2="145.45" y2="150.2035" gradientTransform="matrix(1 0 0 -1 0 402.1)">
			<stop  offset="0" style="stop-color:#5E5E5E;stop-opacity:0.5"/>
			<stop  offset="1" style="stop-color:#2E2E2E"/>
		</linearGradient>
		<path class="st27" d="M136.5,246.8v-7.6c0-2.8,2.3-5.1,5.1-5.1h7.6c2.8,0,5.1,2.3,5.1,5.1v7.6c0,2.8-2.3,5.1-5.1,5.1h-7.6
			C138.8,251.8,136.5,249.6,136.5,246.8z"/>
		
			<linearGradient id="SVGID_22_" gradientUnits="userSpaceOnUse" x1="145.45" y1="143.4368" x2="145.45" y2="125.5902" gradientTransform="matrix(1 0 0 -1 0 402.1)">
			<stop  offset="0" style="stop-color:#5E5E5E;stop-opacity:0.5"/>
			<stop  offset="1" style="stop-color:#2E2E2E"/>
		</linearGradient>
		<path class="st28" d="M136.5,271.4v-7.6c0-2.8,2.3-5.1,5.1-5.1h7.6c2.8,0,5.1,2.3,5.1,5.1v7.6c0,2.8-2.3,5.1-5.1,5.1h-7.6
			C138.8,276.5,136.5,274.2,136.5,271.4z"/>
		
			<linearGradient id="SVGID_23_" gradientUnits="userSpaceOnUse" x1="121.55" y1="143.4368" x2="121.55" y2="125.5902" gradientTransform="matrix(1 0 0 -1 0 402.1)">
			<stop  offset="0" style="stop-color:#5E5E5E;stop-opacity:0.5"/>
			<stop  offset="1" style="stop-color:#2E2E2E"/>
		</linearGradient>
		<path class="st29" d="M112.6,271.4v-7.6c0-2.8,2.3-5.1,5.1-5.1h7.6c2.8,0,5.1,2.3,5.1,5.1v7.6c0,2.8-2.3,5.1-5.1,5.1h-7.6
			C114.8,276.5,112.6,274.2,112.6,271.4z"/>
		
			<linearGradient id="SVGID_24_" gradientUnits="userSpaceOnUse" x1="121.55" y1="169.5124" x2="121.55" y2="151.6658" gradientTransform="matrix(1 0 0 -1 0 402.1)">
			<stop  offset="0" style="stop-color:#F2F2F2"/>
			<stop  offset="1" style="stop-color:#CCCCCC"/>
		</linearGradient>
		<path class="st30" d="M112.6,245.3v-7.6c0-2.8,2.3-5.1,5.1-5.1h7.6c2.8,0,5.1,2.3,5.1,5.1v7.6c0,2.8-2.3,5.1-5.1,5.1h-7.6
			C114.8,250.4,112.6,248.1,112.6,245.3z"/>
		
			<linearGradient id="SVGID_25_" gradientUnits="userSpaceOnUse" x1="145.45" y1="169.5124" x2="145.45" y2="151.6658" gradientTransform="matrix(1 0 0 -1 0 402.1)">
			<stop  offset="0" style="stop-color:#F2F2F2"/>
			<stop  offset="1" style="stop-color:#CCCCCC"/>
		</linearGradient>
		<path class="st31" d="M136.5,245.3v-7.6c0-2.8,2.3-5.1,5.1-5.1h7.6c2.8,0,5.1,2.3,5.1,5.1v7.6c0,2.8-2.3,5.1-5.1,5.1h-7.6
			C138.8,250.4,136.5,248.1,136.5,245.3z"/>
		
			<linearGradient id="SVGID_26_" gradientUnits="userSpaceOnUse" x1="121.55" y1="145.15" x2="121.55" y2="127.3034" gradientTransform="matrix(1 0 0 -1 0 402.1)">
			<stop  offset="0" style="stop-color:#F2F2F2"/>
			<stop  offset="1" style="stop-color:#CCCCCC"/>
		</linearGradient>
		<path class="st32" d="M112.6,269.6V262c0-2.8,2.3-5.1,5.1-5.1h7.6c2.8,0,5.1,2.3,5.1,5.1v7.6c0,2.8-2.3,5.1-5.1,5.1h-7.6
			C114.8,274.8,112.6,272.5,112.6,269.6z"/>
		
			<linearGradient id="SVGID_27_" gradientUnits="userSpaceOnUse" x1="145.45" y1="145.15" x2="145.45" y2="127.3034" gradientTransform="matrix(1 0 0 -1 0 402.1)">
			<stop  offset="0" style="stop-color:#F2F2F2"/>
			<stop  offset="1" style="stop-color:#CCCCCC"/>
		</linearGradient>
		<path class="st33" d="M136.5,269.6V262c0-2.8,2.3-5.1,5.1-5.1h7.6c2.8,0,5.1,2.3,5.1,5.1v7.6c0,2.8-2.3,5.1-5.1,5.1h-7.6
			C138.8,274.8,136.5,272.5,136.5,269.6z"/>
		<g>
			
				<linearGradient id="SVGID_28_" gradientUnits="userSpaceOnUse" x1="117.3656" y1="160.6" x2="125.7087" y2="160.6" gradientTransform="matrix(1 0 0 -1 0 402.1)">
				<stop  offset="0" style="stop-color:#2CA7E0"/>
				<stop  offset="0.2798" style="stop-color:#2BA4DC"/>
				<stop  offset="0.5605" style="stop-color:#289CD0"/>
				<stop  offset="0.8408" style="stop-color:#228FBC"/>
				<stop  offset="1" style="stop-color:#1E85AD"/>
			</linearGradient>
			<path class="st34" d="M120.3,245.6v-3.1h-3v-2.1h3v-3.1h2.4v3.1h3v2.1h-3v3.1H120.3z"/>
		</g>
		<g>
			
				<linearGradient id="SVGID_29_" gradientUnits="userSpaceOnUse" x1="142.4438" y1="160.6" x2="148.5314" y2="160.6" gradientTransform="matrix(1 0 0 -1 0 402.1)">
				<stop  offset="0" style="stop-color:#94273A"/>
				<stop  offset="1" style="stop-color:#C6514D"/>
			</linearGradient>
			<path class="st35" d="M142.4,242.6v-2.3h6.1v2.3H142.4z"/>
		</g>
		<g>
			
				<linearGradient id="SVGID_30_" gradientUnits="userSpaceOnUse" x1="117.7831" y1="136.25" x2="125.2912" y2="136.25" gradientTransform="matrix(1 0 0 -1 0 402.1)">
				<stop  offset="0" style="stop-color:#3495D2"/>
				<stop  offset="0.2831" style="stop-color:#378FCD"/>
				<stop  offset="0.6545" style="stop-color:#3F7FC1"/>
				<stop  offset="1" style="stop-color:#4969B0"/>
			</linearGradient>
			<path class="st36" d="M117.7,267.9l2.2-2.2l-2.1-2.1l1.5-1.5l2.1,2.1l2.2-2.2l1.7,1.7l-2.2,2.2l2.1,2.1l-1.5,1.5l-2.1-2.1
				l-2.2,2.2L117.7,267.9z"/>
		</g>
		<g>
			
				<linearGradient id="SVGID_31_" gradientUnits="userSpaceOnUse" x1="141.3237" y1="136.25" x2="149.6515" y2="136.25" gradientTransform="matrix(1 0 0 -1 0 402.1)">
				<stop  offset="0" style="stop-color:#4C64AD"/>
				<stop  offset="0.3073" style="stop-color:#545CA4"/>
				<stop  offset="0.8033" style="stop-color:#69488C"/>
				<stop  offset="1" style="stop-color:#733E81"/>
			</linearGradient>
			<path class="st37" d="M141.3,262.6h8.3v2.1h-8.3V262.6z M141.3,266.9h8.3v2.1h-8.3V266.9z"/>
		</g>
		<g>
			
				<linearGradient id="SVGID_32_" gradientUnits="userSpaceOnUse" x1="130.0922" y1="182.6" x2="132.3355" y2="182.6" gradientTransform="matrix(1 0 0 -1 0 402.1)">
				<stop  offset="0" style="stop-color:#5E5E5E"/>
				<stop  offset="1" style="stop-color:#2E2E2E"/>
			</linearGradient>
			<path class="st38" d="M130,216.8h2.2v5.5H131v-4.5h-1V216.8z"/>
			
				<linearGradient id="SVGID_33_" gradientUnits="userSpaceOnUse" x1="133.4852" y1="180.45" x2="134.8808" y2="180.45" gradientTransform="matrix(1 0 0 -1 0 402.1)">
				<stop  offset="0" style="stop-color:#5E5E5E"/>
				<stop  offset="1" style="stop-color:#2E2E2E"/>
			</linearGradient>
			<path class="st39" d="M133.6,222.1c-0.1-0.1-0.2-0.3-0.2-0.5s0.1-0.4,0.2-0.5c0.1-0.1,0.3-0.2,0.5-0.2s0.4,0.1,0.5,0.2
				s0.2,0.3,0.2,0.5s-0.1,0.4-0.2,0.5c-0.1,0.1-0.3,0.2-0.5,0.2S133.8,222.2,133.6,222.1z"/>
			
				<linearGradient id="SVGID_34_" gradientUnits="userSpaceOnUse" x1="135.6889" y1="182.75" x2="139.6926" y2="182.75" gradientTransform="matrix(1 0 0 -1 0 402.1)">
				<stop  offset="0" style="stop-color:#5E5E5E"/>
				<stop  offset="1" style="stop-color:#2E2E2E"/>
			</linearGradient>
			<path class="st40" d="M138.1,218.9c0.1-0.2,0.2-0.4,0.2-0.6s-0.1-0.3-0.2-0.5c-0.1-0.1-0.3-0.2-0.5-0.2c-0.3,0-0.7,0.2-1,0.7
				l-1-0.6c0.3-0.4,0.5-0.7,0.9-0.9c0.3-0.2,0.7-0.3,1.2-0.3s0.9,0.2,1.3,0.5c0.4,0.3,0.5,0.7,0.5,1.2c0,0.3-0.1,0.6-0.2,0.8
				c-0.1,0.3-0.4,0.6-0.8,1l-1,1h2.2v1.1h-3.9v-0.9l1.6-1.7C137.7,219.3,137.9,219.1,138.1,218.9z"/>
			
				<linearGradient id="SVGID_35_" gradientUnits="userSpaceOnUse" x1="140.4059" y1="182.5" x2="144.3699" y2="182.5" gradientTransform="matrix(1 0 0 -1 0 402.1)">
				<stop  offset="0" style="stop-color:#5E5E5E"/>
				<stop  offset="1" style="stop-color:#2E2E2E"/>
			</linearGradient>
			<path class="st41" d="M140.7,217.8v-1.1h3.4v0.9l-1.1,1.3c0.4,0.1,0.8,0.3,1,0.6s0.4,0.6,0.4,1c0,0.6-0.2,1-0.6,1.4
				c-0.4,0.3-0.9,0.5-1.5,0.5s-1.2-0.2-1.9-0.6l0.5-1c0.5,0.4,1,0.6,1.4,0.6c0.2,0,0.5-0.1,0.6-0.2c0.2-0.1,0.2-0.3,0.2-0.5
				s-0.1-0.4-0.3-0.5s-0.4-0.2-0.8-0.2c-0.2,0-0.4,0.1-0.7,0.2V219l1.1-1.3L140.7,217.8L140.7,217.8z"/>
			
				<linearGradient id="SVGID_36_" gradientUnits="userSpaceOnUse" x1="145.091" y1="182.6" x2="149.1344" y2="182.6" gradientTransform="matrix(1 0 0 -1 0 402.1)">
				<stop  offset="0" style="stop-color:#5E5E5E"/>
				<stop  offset="1" style="stop-color:#2E2E2E"/>
			</linearGradient>
			<path class="st42" d="M147.3,219.8v-1h1.2v1h0.6v1.1h-0.6v1.3h-1.2v-1.3H145V220l2-3.3h1.3l-1.9,3.1L147.3,219.8L147.3,219.8z"/>
		</g>
	</g>
	<path class="st13" d="M203.1,253.2h-43.5c-1.1,0-2,0.9-2,2V280c0,1.1,0.9,2,2,2h43.5c1.1,0,2-0.9,2-2v-24.7
		C205.1,254.1,204.2,253.2,203.1,253.2z"/>
	<g>
		<g>
			<path class="st10" d="M207.4,279.9c0,1.1-0.9,2-2,2h-43.5c-1.1,0-2-0.9-2-2v-24.7c0-1.1,0.9-2,2-2h43.5c1.1,0,2,0.9,2,2V279.9z"
				/>
			
				<linearGradient id="SVGID_37_" gradientUnits="userSpaceOnUse" x1="183.7" y1="148.85" x2="183.7" y2="120.15" gradientTransform="matrix(1 0 0 -1 0 402.1)">
				<stop  offset="0" style="stop-color:#2CA7E0"/>
				<stop  offset="0.2798" style="stop-color:#2BA4DC"/>
				<stop  offset="0.5605" style="stop-color:#289CD0"/>
				<stop  offset="0.8408" style="stop-color:#228FBC"/>
				<stop  offset="1" style="stop-color:#1E85AD"/>
			</linearGradient>
			<path class="st43" d="M207.4,279.9c0,1.1-0.9,2-2,2h-43.5c-1.1,0-2-0.9-2-2v-24.7c0-1.1,0.9-2,2-2h43.5c1.1,0,2,0.9,2,2V279.9z"
				/>
		</g>
		<path class="st44" d="M204.8,269.8c0,1.1-0.9,2-2,2h-5.6c-1.1,0-2-0.9-2-2v-8.2c0-1.1,0.9-2,2-2h5.6c1.1,0,2,0.9,2,2V269.8z"/>
		<path class="st14" d="M200.9,267.2c-0.3-0.2-0.1-0.5,0-0.6c0.2-0.2,0.4-0.8,0.4-0.8c0.4-0.2,0.4-0.4,0.4-0.6
			c0.2-0.5-0.2-0.6-0.2-0.6s0.3-0.9,0.1-1.5c-0.3-0.9-1.7-1.2-2-0.4c-1.7-0.4-1.3,1.9-1.3,1.9s-0.4,0.1-0.2,0.6
			c0,0.2,0.1,0.4,0.4,0.6c0,0,0.2,0.6,0.4,0.8c0.1,0.1,0.3,0.4,0,0.6c-0.6,0.3-2.4,0.4-2.4,1.8h6.9
			C203.4,267.6,201.5,267.5,200.9,267.2z"/>
		<path class="st44" d="M193.1,256.8c0,0.5-0.4,1-1,1h-15c-0.5,0-1-0.4-1-1l0,0c0-0.5,0.4-1,1-1h15
			C192.8,255.9,193.1,256.3,193.1,256.8L193.1,256.8z"/>
		<path class="st44" d="M188.2,261.3c0,0.5-0.4,0.9-0.9,0.9h-23.5c-0.5,0-0.9-0.4-0.9-0.9l0,0c0-0.5,0.4-0.9,0.9-0.9h23.5
			C187.9,260.4,188.2,260.8,188.2,261.3L188.2,261.3z"/>
		<path class="st44" d="M182,265.4c0,0.5-0.4,0.8-0.8,0.8h-17.4c-0.5,0-0.8-0.4-0.8-0.8l0,0c0-0.5,0.4-0.8,0.8-0.8h17.4
			C181.6,264.6,182,264.9,182,265.4L182,265.4z"/>
		<path class="st44" d="M182,269.8c0,0.4-0.4,0.8-0.8,0.8h-17.4c-0.4,0-0.8-0.4-0.8-0.8l0,0c0-0.4,0.4-0.8,0.8-0.8h17.4
			C181.6,269,182,269.4,182,269.8L182,269.8z"/>
		<path class="st45" d="M195.4,277.8c2-0.2,4.8-1.6,5-3.7c-1-0.4-3.4,1.1-2.7,2.4c0.7,1.4,2.9,0,3.7-0.6c-0.6,0.3-1,0.8-0.5,1.2
			c0.4,0.3,1.2-0.3,1.7-0.2c0.8,0.2,0.7,1.2,1.8,1.1"/>
	</g>
	<g>
		
			<linearGradient id="SVGID_38_" gradientUnits="userSpaceOnUse" x1="101.6423" y1="94.7833" x2="106.1102" y2="94.7833" gradientTransform="matrix(0.7713 -0.6364 -0.6364 -0.7713 172.2294 311.3805)">
			<stop  offset="0" style="stop-color:#BEBEBE"/>
			<stop  offset="0.4732" style="stop-color:#F9F9F9"/>
			<stop  offset="0.9921" style="stop-color:#DDDDDD"/>
		</linearGradient>
		<polygon class="st46" points="195.5,172.8 192,175.6 188.5,171.4 192,168.6 		"/>
		
			<linearGradient id="SVGID_39_" gradientUnits="userSpaceOnUse" x1="77.0022" y1="123.478" x2="130.7038" y2="123.478" gradientTransform="matrix(0.7713 -0.6364 -0.6364 -0.7713 172.2294 311.3805)">
			<stop  offset="0" style="stop-color:#5E5E5E"/>
			<stop  offset="1" style="stop-color:#2E2E2E"/>
		</linearGradient>
		<path class="st47" d="M156.6,129.3c-11.4,9.4-13.1,26.3-3.6,37.8c9.4,11.4,26.3,13.1,37.8,3.6c11.4-9.4,13.1-26.3,3.6-37.8
			C184.9,121.5,168,119.8,156.6,129.3z M187.3,166.5c-9.1,7.5-22.7,6.2-30.2-2.9s-6.2-22.7,2.9-30.2c9.1-7.5,22.7-6.2,30.2,2.9
			C197.8,145.4,196.4,159,187.3,166.5z"/>
		
			<linearGradient id="SVGID_40_" gradientUnits="userSpaceOnUse" x1="82.3279" y1="123.5482" x2="125.2356" y2="123.5482" gradientTransform="matrix(0.7713 -0.6364 -0.6364 -0.7713 172.2294 311.3805)">
			<stop  offset="4.618200e-04" style="stop-color:#5DB8C6"/>
			<stop  offset="1" style="stop-color:#6A90BF"/>
		</linearGradient>
		<path class="st48" d="M187.3,166.5c-9.1,7.5-22.7,6.2-30.2-2.9s-6.2-22.7,2.9-30.2c9.1-7.5,22.7-6.2,30.2,2.9
			C197.8,145.4,196.4,159,187.3,166.5z"/>
		
			<linearGradient id="SVGID_41_" gradientUnits="userSpaceOnUse" x1="82.3288" y1="134.1959" x2="125.2368" y2="134.1959" gradientTransform="matrix(0.7713 -0.6364 -0.6364 -0.7713 172.2294 311.3805)">
			<stop  offset="4.618200e-04" style="stop-color:#5DB8C6"/>
			<stop  offset="1" style="stop-color:#6A90BF"/>
		</linearGradient>
		<path class="st49" d="M161.6,135.4c9.1-7.5,21.1-8.2,28.6,1c-7.5-9.1-21.1-10.4-30.2-2.9s-10.4,21.1-2.9,30.2
			C149.5,154.5,152.4,142.9,161.6,135.4z"/>
		
			<linearGradient id="SVGID_42_" gradientUnits="userSpaceOnUse" x1="98.5148" y1="71.7674" x2="109.2377" y2="71.7674" gradientTransform="matrix(0.7713 -0.6364 -0.6364 -0.7713 172.2294 311.3805)">
			<stop  offset="0" style="stop-color:#5E5E5E"/>
			<stop  offset="1" style="stop-color:#2E2E2E"/>
		</linearGradient>
		<path class="st50" d="M221.3,204.8l-2.8,2.3c-1.5,1.3-3.8,1-5-0.5l-22-26.7c-1.3-1.5-1-3.8,0.5-5l2.8-2.3c1.5-1.3,3.8-1,5,0.5
			l22,26.7C223,201.3,222.8,203.6,221.3,204.8z"/>
	</g>
</g>
<g id="Rejection">
</g>
<g id="Approve">
</g>
<g id="Download_App">
</g>
<g id="Open_Website">
</g>
<g id="Paid">
</g>
<g id="Loading_Predictive">
</g>
<g id="Cashback">
</g>
<g id="Payment">
</g>
</svg>
