<?xml version="1.0" encoding="utf-8"?>
<!-- Generator: Adobe Illustrator 21.0.0, SVG Export Plug-In . SVG Version: 6.00 Build 0)  -->
<svg version="1.1" id="Layer_1" xmlns="http://www.w3.org/2000/svg" xmlns:xlink="http://www.w3.org/1999/xlink" x="0px" y="0px"
	 viewBox="0 0 330 125" style="enable-background:new 0 0 330 125;" xml:space="preserve">
<style type="text/css">
	.st0{fill:url(#SVGID_1_);}
	.st1{fill:url(#SVGID_2_);}
	.st2{fill:url(#SVGID_3_);}
	.st3{fill:url(#SVGID_4_);}
	.st4{fill:url(#SVGID_5_);}
	.st5{fill:url(#SVGID_6_);}
	.st6{fill:url(#SVGID_7_);}
	.st7{fill:url(#SVGID_8_);}
	.st8{fill:url(#SVGID_9_);}
	.st9{fill:url(#SVGID_10_);}
	.st10{fill:url(#SVGID_11_);}
	.st11{fill:url(#SVGID_12_);}
	.st12{fill:#5E5E5E;}
</style>
<title>il_julopulsa</title>
<linearGradient id="SVGID_1_" gradientUnits="userSpaceOnUse" x1="40.3488" y1="103.9919" x2="59.8099" y2="92.754" gradientTransform="matrix(1 0 0 -1 0 126)">
	<stop  offset="0" style="stop-color:#00ACF0"/>
	<stop  offset="1" style="stop-color:#1F88D1"/>
</linearGradient>
<path class="st0" d="M57.5,20.6H42.6c-1.4,0-2.5,1.1-2.5,2.5v9c0,1.4,1.1,2.5,2.5,2.5c0,0,0,0,0,0h14.9c1.4,0,2.5-1.1,2.5-2.5
	c0,0,0,0,0,0v-9C60.1,21.8,59,20.6,57.5,20.6C57.6,20.6,57.5,20.6,57.5,20.6z M42.6,22h14.9c0.7,0,1.2,0.5,1.2,1.2l0,0v1H41.4v-1
	C41.4,22.5,41.9,22,42.6,22z M57.5,33.3H42.6c-0.7,0-1.2-0.5-1.2-1.2c0,0,0,0,0,0v-5.7h17.3v5.7C58.7,32.8,58.2,33.3,57.5,33.3z"/>
<linearGradient id="SVGID_2_" gradientUnits="userSpaceOnUse" x1="51.31" y1="94.58" x2="57.31" y2="94.58" gradientTransform="matrix(1 0 0 -1 0 126)">
	<stop  offset="0" style="stop-color:#00ACF0"/>
	<stop  offset="1" style="stop-color:#1F88D1"/>
</linearGradient>
<path class="st1" d="M56.6,30.9H52c-0.4,0-0.7,0.2-0.7,0.5s0.3,0.5,0.7,0.5h4.7c0.4,0,0.7-0.2,0.7-0.5S57,30.9,56.6,30.9z"/>
<linearGradient id="SVGID_3_" gradientUnits="userSpaceOnUse" x1="100.194" y1="97.8205" x2="114.2683" y2="97.8205" gradientTransform="matrix(1 0 0 -1 0 126)">
	<stop  offset="0" style="stop-color:#00ACF0"/>
	<stop  offset="1" style="stop-color:#13637B"/>
</linearGradient>
<path class="st2" d="M113.9,27.1l-6.1-6.3c-0.3-0.2-0.6-0.2-0.8,0.1c-0.2,0.2-0.2,0.5,0,0.8l5.7,5.8h-11.8c-0.3,0-0.6,0.4-0.5,0.7
	c0,0.3,0.2,0.5,0.5,0.5h11.8l-5.7,5.8c-0.3,0.2-0.3,0.6-0.1,0.9c0.2,0.3,0.6,0.3,0.8,0.1c0,0,0.1-0.1,0.1-0.1l6.1-6.3
	C114.4,28.6,114.4,27.7,113.9,27.1C113.8,27.1,113.8,27.1,113.9,27.1L113.9,27.1z"/>
<linearGradient id="SVGID_4_" gradientUnits="userSpaceOnUse" x1="214.6936" y1="97.875" x2="228.768" y2="97.875" gradientTransform="matrix(1 0 0 -1 0 126)">
	<stop  offset="0" style="stop-color:#00ACF0"/>
	<stop  offset="1" style="stop-color:#13637B"/>
</linearGradient>
<path class="st3" d="M228.4,27.1l-6.1-6.2c-0.2-0.3-0.6-0.3-0.8-0.1s-0.3,0.6-0.1,0.9c0,0,0.1,0.1,0.1,0.1l5.7,5.8h-11.8
	c-0.3,0-0.6,0.3-0.5,0.7c0,0.3,0.2,0.5,0.5,0.5h11.8l-5.7,5.8c-0.3,0.2-0.3,0.6-0.1,0.9c0.2,0.3,0.6,0.3,0.8,0.1
	c0,0,0.1-0.1,0.1-0.1l6.1-6.2C228.9,28.6,228.9,27.7,228.4,27.1C228.3,27.1,228.3,27.1,228.4,27.1L228.4,27.1z"/>
<linearGradient id="SVGID_5_" gradientUnits="userSpaceOnUse" x1="156.3671" y1="102.6005" x2="174.2276" y2="92.287" gradientTransform="matrix(1 0 0 -1 0 126)">
	<stop  offset="0" style="stop-color:#1F88D1"/>
	<stop  offset="1" style="stop-color:#3E63B1"/>
</linearGradient>
<path class="st4" d="M173.8,24.6h-0.7l-4.2-3.3c-0.5-0.4-1.1-0.6-1.7-0.6H163c-0.8,0-1.6,0.4-2.1,1l-1.9,2.5l-0.4-0.4
	c-0.2-0.2-0.6-0.3-0.9-0.1l-2.1,1.4c-0.7,0.5-1.2,1.3-1.2,2.2v2.8c0,1.4,1.2,2.6,2.6,2.6c0,0,0,0,0,0h1.3c0.6,0,1.1-0.2,1.6-0.5
	l3.4-2.5c0.2-0.1,0.3-0.3,0.3-0.5c0-0.1,0-0.2-0.1-0.3h0.6v2.2c0,0.9,0.7,1.6,1.7,1.7h7.8c0.9,0,1.7-0.7,1.7-1.7l0,0v-4.8
	C175.5,25.4,174.8,24.6,173.8,24.6C173.8,24.6,173.8,24.6,173.8,24.6z M162.1,22.6c0.2-0.3,0.6-0.5,1-0.5h4.2c0.3,0,0.6,0.1,0.8,0.3
	l2.8,2.2H165c-0.4,0-0.7,0.3-0.7,0.7s0.3,0.7,0.7,0.7l0,0h4.2v0.3c0,0.7-0.6,1.2-1.3,1.2h-5.6l-2.3-2.3L162.1,22.6z M159.3,31.1
	c-0.2,0.2-0.5,0.2-0.8,0.3h-1.3c-0.7,0-1.3-0.6-1.3-1.2v-2.8c0-0.4,0.2-0.8,0.6-1l1.6-1l3.9,3.9L159.3,31.1z M167.9,28.9
	c1.5,0,2.7-1.2,2.7-2.6c0,0,0,0,0,0V26h3.2c0.2,0,0.3,0.1,0.3,0.3v3.2h-8.4v-0.6H167.9z M173.8,31.4H166c-0.2,0-0.3-0.1-0.3-0.3v0
	v-0.3h8.4v0.3C174.1,31.3,174,31.4,173.8,31.4L173.8,31.4z"/>
<linearGradient id="SVGID_6_" gradientUnits="userSpaceOnUse" x1="267.6349" y1="103.9661" x2="283.085" y2="95.0403" gradientTransform="matrix(1 0 0 -1 0 126)">
	<stop  offset="0" style="stop-color:#3E63B1"/>
	<stop  offset="1" style="stop-color:#5F3B8E"/>
</linearGradient>
<path class="st5" d="M276.7,35.5h-4.8c-0.3,0-0.5-0.2-0.5-0.5c0,0,0,0,0,0V18.4c0-0.3,0.2-0.5,0.5-0.5l0,0h7.8
	c-0.1,0.1-0.2,0.3-0.2,0.5v2.4c0,1,0.9,1.9,1.9,1.9h2.4c0.2,0,0.4-0.1,0.5-0.2v3.7c0,0.4,0.3,0.7,0.7,0.7c0.4,0,0.7-0.3,0.7-0.7
	v-3.8c0-0.5-0.2-1-0.6-1.3l-4-4c-0.4-0.4-0.8-0.6-1.3-0.6h-7.8c-1,0-1.9,0.9-1.9,1.9v16.6c0,1,0.9,1.9,1.9,1.9h4.8
	c0.4,0,0.7-0.3,0.7-0.7C277.4,35.9,277.1,35.6,276.7,35.5L276.7,35.5z M283.2,21.3h-1.9c-0.3,0-0.5-0.2-0.5-0.5c0,0,0,0,0,0V19
	L283.2,21.3z"/>
<linearGradient id="SVGID_7_" gradientUnits="userSpaceOnUse" x1="273.5942" y1="96.9705" x2="277.8258" y2="94.5295" gradientTransform="matrix(1 0 0 -1 0 126)">
	<stop  offset="0" style="stop-color:#3E63B1"/>
	<stop  offset="1" style="stop-color:#5F3B8E"/>
</linearGradient>
<path class="st6" d="M278.4,30.2c0-0.4-0.3-0.7-0.7-0.7h-4c-0.4,0-0.7,0.3-0.7,0.7c0,0.4,0.3,0.7,0.7,0.7h4
	C278.1,31,278.4,30.6,278.4,30.2z"/>
<linearGradient id="SVGID_8_" gradientUnits="userSpaceOnUse" x1="273.4633" y1="94.2985" x2="276.9436" y2="92.2884" gradientTransform="matrix(1 0 0 -1 0 126)">
	<stop  offset="0" style="stop-color:#3E63B1"/>
	<stop  offset="1" style="stop-color:#5F3B8E"/>
</linearGradient>
<path class="st7" d="M276.7,32h-3c-0.4,0-0.7,0.3-0.7,0.7s0.3,0.7,0.7,0.7c0,0,0,0,0,0h3c0.4,0,0.7-0.3,0.7-0.7
	C277.4,32.3,277.1,32,276.7,32z"/>
<linearGradient id="SVGID_9_" gradientUnits="userSpaceOnUse" x1="271.5343" y1="103.7101" x2="276.2643" y2="100.9801" gradientTransform="matrix(1 0 0 -1 0 126)">
	<stop  offset="0" style="stop-color:#3E63B1"/>
	<stop  offset="1" style="stop-color:#5F3B8E"/>
</linearGradient>
<path class="st8" d="M275.8,22.6c0-1-0.8-1.8-1.8-1.8c0,0,0,0,0,0h-1.3c-0.3,0-0.5,0.2-0.5,0.5v4.4c0,0.3,0.2,0.5,0.5,0.5
	s0.5-0.2,0.5-0.5v-1.3h0.9l0.7,1.5c0.1,0.2,0.4,0.3,0.7,0.2c0.2-0.1,0.3-0.4,0.2-0.6l-0.7-1.4C275.5,23.7,275.8,23.1,275.8,22.6z
	 M273.6,23.4h-0.4v-1.6h0.8c0.5,0,0.8,0.4,0.8,0.8c0,0.5-0.4,0.8-0.8,0.8H273.6z"/>
<linearGradient id="SVGID_10_" gradientUnits="userSpaceOnUse" x1="275.9095" y1="101.969" x2="279.4695" y2="99.909" gradientTransform="matrix(1 0 0 -1 0 126)">
	<stop  offset="0" style="stop-color:#3E63B1"/>
	<stop  offset="1" style="stop-color:#5F3B8E"/>
</linearGradient>
<path class="st9" d="M278.4,22.5h-1.3c-0.3,0-0.5,0.2-0.5,0.5v4.4c0,0.3,0.2,0.5,0.5,0.5s0.5-0.2,0.5-0.5v-1.3h0.8
	c1,0,1.8-0.8,1.8-1.8C280.2,23.3,279.4,22.5,278.4,22.5L278.4,22.5L278.4,22.5z M278.4,25.1h-0.8v-1.6h0.8c0.5,0,0.8,0.4,0.8,0.8
	C279.2,24.8,278.9,25.1,278.4,25.1z"/>
<linearGradient id="SVGID_11_" gradientUnits="userSpaceOnUse" x1="279.1659" y1="96.3855" x2="288.2659" y2="91.1355" gradientTransform="matrix(1 0 0 -1 0 126)">
	<stop  offset="0" style="stop-color:#3E63B1"/>
	<stop  offset="1" style="stop-color:#5F3B8E"/>
</linearGradient>
<path class="st10" d="M285.2,27.5c-1,0-2,0.3-2.7,1h-0.3c-2.3,0-4.2,1.9-4.2,4.2c0,2.3,1.9,4.2,4.2,4.2c1,0,2-0.4,2.8-1
	c0.1,0,0.2,0,0.2,0c2.3,0,4.2-1.9,4.2-4.2S287.6,27.5,285.2,27.5L285.2,27.5z M282.2,35.5c-1.5,0-2.8-1.2-2.8-2.8
	c0-1.5,1.2-2.8,2.8-2.8c1.5,0,2.8,1.2,2.8,2.8C285,34.3,283.8,35.5,282.2,35.5L282.2,35.5z M286.1,34.4c0.8-2,0.1-4.2-1.8-5.3
	c1.4-0.6,3,0.1,3.6,1.6c0.6,1.4-0.1,3-1.6,3.6C286.3,34.3,286.2,34.4,286.1,34.4z"/>
<linearGradient id="SVGID_12_" gradientUnits="userSpaceOnUse" x1="73.4311" y1="86.7331" x2="253.8707" y2="-17.4398" gradientTransform="matrix(1 0 0 -1 0 126)">
	<stop  offset="0" style="stop-color:#00ACF0"/>
	<stop  offset="1" style="stop-color:#13637B"/>
</linearGradient>
<path class="st11" d="M280,85.2c-0.4,0-0.7,0.3-0.7,0.7v9c0,3.5-2.8,6.3-6.3,6.3H58c-3.5,0-6.3-2.8-6.3-6.3v-7.7l6.8,6.8
	c0.3,0.3,0.7,0.3,1,0.1s0.3-0.7,0.1-1c0,0-0.1-0.1-0.1-0.1l-7.3-7.3c-0.3-0.3-0.6-0.4-1-0.5c-0.1,0-0.2,0-0.3,0
	c-0.4,0-0.7,0.2-1,0.5L42.5,93c-0.3,0.3-0.3,0.7-0.1,1s0.7,0.3,1,0.1c0,0,0.1-0.1,0.1-0.1l6.8-6.8v7.7c0,4.3,3.5,7.7,7.7,7.7
	c0,0,0,0,0,0h215c4.3,0,7.7-3.5,7.7-7.7v-9C280.7,85.5,280.4,85.2,280,85.2z"/>
<path class="st12" d="M18.4,44h3c0.7,0,1.4,0.1,2,0.4c0.6,0.3,1,0.7,1.3,1.2c0.6,1.1,0.6,2.5,0,3.7c-0.3,0.5-0.8,1-1.3,1.2
	c-0.6,0.3-1.3,0.5-2,0.4h-3V44z M21.3,50.1c0.5,0,1-0.1,1.5-0.3c0.4-0.2,0.8-0.5,1-0.9c0.5-0.9,0.5-1.9,0-2.8
	c-0.2-0.4-0.6-0.7-1-0.9c-0.5-0.2-1-0.3-1.5-0.3h-1.9v5.3L21.3,50.1z"/>
<path class="st12" d="M30.2,46.2c0.4,0.4,0.6,1,0.6,1.6V51h-0.9v-0.7c-0.2,0.3-0.4,0.5-0.7,0.6c-0.3,0.1-0.7,0.2-1.1,0.2
	c-0.5,0-1-0.1-1.4-0.4c-0.4-0.3-0.6-0.7-0.5-1.1c0-0.4,0.2-0.8,0.5-1.1c0.5-0.3,1.1-0.4,1.6-0.4h1.5v-0.2c0-0.4-0.1-0.7-0.4-1
	c-0.3-0.2-0.7-0.4-1.1-0.3c-0.3,0-0.6,0-0.9,0.2c-0.3,0.1-0.5,0.2-0.8,0.4l-0.4-0.7c0.3-0.2,0.6-0.4,1-0.5c0.4-0.1,0.8-0.2,1.2-0.2
	C29.1,45.6,29.7,45.8,30.2,46.2z M29.2,50.1c0.3-0.2,0.5-0.4,0.6-0.7v-0.7h-1.4c-0.8,0-1.2,0.3-1.2,0.8c0,0.2,0.1,0.5,0.3,0.6
	c0.3,0.2,0.6,0.2,0.9,0.2C28.6,50.4,28.9,50.3,29.2,50.1L29.2,50.1z"/>
<path class="st12" d="M36.7,46c0.4,0.2,0.8,0.6,1,1c0.5,0.9,0.5,1.9,0,2.8c-0.2,0.4-0.6,0.8-1,1c-0.4,0.2-0.9,0.3-1.4,0.3
	c-0.3,0-0.7-0.1-1-0.2c-0.3-0.1-0.6-0.4-0.8-0.6V53h-1v-7.3h0.9v0.8c0.2-0.3,0.5-0.5,0.8-0.7c0.3-0.2,0.7-0.2,1.1-0.2
	C35.8,45.7,36.3,45.8,36.7,46z M36.2,50c0.3-0.2,0.5-0.4,0.6-0.7c0.3-0.6,0.3-1.4,0-2c-0.1-0.3-0.4-0.5-0.6-0.7
	c-0.3-0.2-0.6-0.2-0.9-0.2c-0.3,0-0.6,0.1-0.9,0.2c-0.3,0.2-0.5,0.4-0.6,0.7c-0.2,0.3-0.2,0.7-0.2,1c0,0.3,0.1,0.7,0.2,1
	c0.1,0.3,0.4,0.5,0.6,0.7C34.9,50.3,35.6,50.3,36.2,50L36.2,50z"/>
<path class="st12" d="M42.9,46.2c0.4,0.4,0.6,1,0.6,1.6V51h-0.9v-0.7c-0.2,0.3-0.4,0.5-0.7,0.6c-0.3,0.1-0.7,0.2-1.1,0.2
	c-0.5,0-1-0.1-1.4-0.4c-0.4-0.3-0.6-0.7-0.5-1.1c0-0.4,0.2-0.8,0.5-1.1c0.5-0.3,1.1-0.4,1.6-0.4h1.5v-0.2c0-0.4-0.1-0.7-0.4-1
	c-0.3-0.2-0.7-0.4-1.1-0.3c-0.3,0-0.6,0-0.9,0.2c-0.3,0.1-0.5,0.2-0.8,0.4L39,46.3c0.3-0.2,0.6-0.4,1-0.5c0.4-0.1,0.8-0.2,1.2-0.2
	C41.8,45.6,42.4,45.8,42.9,46.2z M41.9,50.1c0.3-0.2,0.5-0.4,0.6-0.7v-0.7H41c-0.8,0-1.2,0.3-1.2,0.8c0,0.2,0.1,0.5,0.3,0.6
	c0.3,0.2,0.6,0.2,0.9,0.2C41.3,50.4,41.7,50.3,41.9,50.1L41.9,50.1z"/>
<path class="st12" d="M48.2,50.7c-0.2,0.1-0.3,0.2-0.5,0.3c-0.2,0.1-0.4,0.1-0.6,0.1c-0.5,0-0.9-0.1-1.2-0.4
	c-0.3-0.3-0.5-0.8-0.4-1.2v-2.9h-0.9v-0.8h0.9v-1.2h1v1.2h1.5v0.8h-1.6v2.9c0,0.2,0.1,0.5,0.2,0.7c0.2,0.2,0.4,0.2,0.6,0.2
	c0.3,0,0.6-0.1,0.8-0.3L48.2,50.7z"/>
<path class="st12" d="M54.5,47.9l-1.3,1.3V51h-1v-7h1v3.9L57,44h1.1l-3,3.2l3.2,3.8h-1.2L54.5,47.9z"/>
<path class="st12" d="M60.8,45.9c0.4-0.2,0.8-0.2,1.2-0.2v0.9h-0.2c-0.5,0-0.9,0.1-1.2,0.5c-0.3,0.4-0.5,0.8-0.4,1.3V51h-1v-5.3H60
	v0.9C60.2,46.3,60.5,46,60.8,45.9z"/>
<path class="st12" d="M67.9,48.7h-4.3c0,0.4,0.3,0.9,0.6,1.1c0.4,0.3,0.8,0.4,1.3,0.4c0.6,0,1.1-0.2,1.5-0.6l0.5,0.6
	c-0.2,0.3-0.6,0.5-0.9,0.6c-0.9,0.3-1.9,0.3-2.7-0.1c-0.4-0.2-0.8-0.6-1-1c-0.2-0.4-0.4-0.9-0.3-1.4c0-0.5,0.1-0.9,0.3-1.3
	c0.2-0.4,0.6-0.8,1-1c0.4-0.2,0.9-0.4,1.4-0.3c0.5,0,0.9,0.1,1.3,0.3c0.4,0.2,0.7,0.6,0.9,1c0.2,0.4,0.4,0.9,0.3,1.4
	C68,48.5,68,48.6,67.9,48.7z M64.2,46.9c-0.3,0.3-0.5,0.7-0.5,1.1H67c0-0.4-0.2-0.8-0.5-1.1C65.8,46.3,64.8,46.3,64.2,46.9
	L64.2,46.9z"/>
<path class="st12" d="M74.3,43.6V51h-0.9v-0.8c-0.2,0.3-0.5,0.5-0.8,0.7c-0.3,0.2-0.7,0.2-1.1,0.2c-0.5,0-1-0.1-1.4-0.3
	c-0.4-0.2-0.8-0.6-1-1c-0.5-0.9-0.5-1.9,0-2.8c0.2-0.4,0.6-0.8,1-1c0.4-0.2,0.9-0.3,1.4-0.3c0.3,0,0.7,0.1,1,0.2
	c0.3,0.1,0.6,0.4,0.8,0.6v-2.8H74.3z M72.5,50c0.3-0.2,0.5-0.4,0.6-0.7c0.3-0.6,0.3-1.4,0-2c-0.1-0.3-0.4-0.5-0.6-0.7
	c-0.6-0.3-1.3-0.3-1.8,0c-0.3,0.2-0.5,0.4-0.6,0.7c-0.3,0.6-0.3,1.4,0,2c0.1,0.3,0.4,0.5,0.6,0.7C71.2,50.3,71.9,50.3,72.5,50z"/>
<path class="st12" d="M76.1,44.5c-0.1-0.1-0.2-0.3-0.2-0.4c0-0.2,0.1-0.3,0.2-0.4c0.1-0.1,0.3-0.2,0.5-0.2c0.2,0,0.3,0.1,0.5,0.2
	c0.1,0.1,0.2,0.3,0.2,0.4c0,0.2-0.1,0.3-0.2,0.5c-0.1,0.1-0.3,0.2-0.5,0.2C76.4,44.7,76.3,44.7,76.1,44.5z M76.1,45.7h1V51h-1V45.7z
	"/>
<path class="st12" d="M81.9,50.7c-0.2,0.1-0.3,0.2-0.5,0.3c-0.2,0.1-0.4,0.1-0.6,0.1c-0.5,0-0.9-0.1-1.2-0.4
	c-0.3-0.3-0.5-0.8-0.5-1.2v-2.9h-0.9v-0.8H79v-1.2h1v1.2h1.5v0.8H80v2.9c0,0.2,0.1,0.5,0.2,0.7c0.2,0.2,0.4,0.2,0.6,0.2
	c0.3,0,0.5-0.1,0.8-0.2L81.9,50.7z"/>
<path class="st12" d="M18.7,62.9c-0.2-0.8-0.3-1.7-0.3-2.6c0-0.9,0.1-1.7,0.3-2.6c0.2-0.7,0.5-1.5,0.9-2.1h0.9
	c-0.4,0.7-0.7,1.4-0.9,2.2c-0.4,1.6-0.4,3.4,0,5c0.2,0.8,0.5,1.5,0.9,2.2h-0.9C19.2,64.3,18.9,63.6,18.7,62.9z"/>
<path class="st12" d="M26.5,63L25,60.9h-0.4h-1.7V63h-1v-7h2.7c0.8,0,1.5,0.2,2.1,0.7c0.5,0.4,0.8,1.1,0.8,1.8c0,0.5-0.1,1-0.4,1.4
	c-0.3,0.4-0.7,0.7-1.1,0.8l1.7,2.3H26.5z M26,59.6c0.3-0.3,0.5-0.7,0.5-1.2c0-0.4-0.2-0.9-0.5-1.2c-0.4-0.3-0.9-0.4-1.5-0.4h-1.7V60
	h1.7C25.1,60,25.6,59.9,26,59.6z"/>
<path class="st12" d="M33.2,58c0.4,0.2,0.8,0.6,1,1c0.5,0.9,0.5,1.9,0,2.8c-0.2,0.4-0.6,0.8-1,1c-0.4,0.2-0.9,0.3-1.4,0.3
	c-0.3,0-0.7-0.1-1-0.2c-0.3-0.1-0.6-0.4-0.8-0.6V65h-1v-7.3h0.9v0.8c0.2-0.3,0.5-0.5,0.8-0.7c0.3-0.2,0.7-0.2,1.1-0.2
	C32.3,57.7,32.8,57.8,33.2,58z M32.6,62c0.3-0.2,0.5-0.4,0.6-0.7c0.3-0.6,0.3-1.4,0-2c-0.1-0.3-0.4-0.5-0.6-0.7
	c-0.3-0.2-0.6-0.2-0.9-0.2c-0.3,0-0.6,0.1-0.9,0.2c-0.3,0.2-0.5,0.4-0.6,0.7c-0.2,0.3-0.2,0.7-0.2,1c0,0.3,0.1,0.7,0.2,1
	c0.1,0.3,0.4,0.5,0.6,0.7C31.4,62.3,32.1,62.3,32.6,62L32.6,62z"/>
<path class="st12" d="M42.3,59.6c0.4,0.4,0.6,0.9,0.5,1.4c0,0.4-0.1,0.8-0.3,1.1c-0.2,0.3-0.5,0.6-0.9,0.8c-0.5,0.2-1,0.3-1.5,0.3
	c-0.5,0-1-0.1-1.4-0.2c-0.4-0.1-0.8-0.3-1.1-0.6l0.5-0.8c0.3,0.2,0.6,0.4,0.9,0.5c0.4,0.1,0.8,0.2,1.2,0.2c0.4,0,0.9-0.1,1.2-0.3
	c0.3-0.2,0.5-0.6,0.4-0.9c0-0.4-0.1-0.7-0.4-0.9c-0.4-0.2-0.8-0.4-1.3-0.3h-0.6V59l1.8-2.2H38V56h4.6v0.7L40.8,59
	C41.3,59,41.9,59.2,42.3,59.6z"/>
<path class="st12" d="M45.2,62.7c-0.4-0.3-0.8-0.7-1-1.2c-0.5-1.2-0.5-2.6,0-3.8c0.2-0.5,0.6-0.9,1-1.2c0.9-0.6,2-0.6,2.9,0
	c0.4,0.3,0.8,0.7,1,1.2c0.5,1.2,0.5,2.6,0,3.8c-0.2,0.5-0.6,0.9-1,1.2C47.2,63.3,46.1,63.3,45.2,62.7z M48,61.5c0.7-1.2,0.7-2.8,0-4
	c-0.5-0.7-1.6-0.9-2.3-0.4c-0.1,0.1-0.3,0.2-0.4,0.4c-0.7,1.2-0.7,2.8,0,4c0.5,0.7,1.6,0.9,2.3,0.4C47.8,61.8,47.9,61.7,48,61.5z"/>
<path class="st12" d="M51.8,62.7c-0.4-0.3-0.8-0.7-1-1.2c-0.5-1.2-0.5-2.6,0-3.8c0.2-0.5,0.6-0.9,1-1.2c0.9-0.6,2-0.6,2.9,0
	c0.4,0.3,0.8,0.7,1,1.2c0.5,1.2,0.5,2.6,0,3.8c-0.2,0.5-0.6,0.9-1,1.2C53.9,63.3,52.7,63.3,51.8,62.7z M54.7,61.5
	c0.7-1.2,0.7-2.8,0-4c-0.5-0.7-1.6-0.9-2.3-0.4c-0.1,0.1-0.3,0.2-0.4,0.4c-0.7,1.2-0.7,2.8,0,4c0.5,0.7,1.6,0.9,2.3,0.4
	C54.4,61.8,54.6,61.7,54.7,61.5z"/>
<path class="st12" d="M57.2,62.9c-0.1-0.1-0.2-0.3-0.2-0.5c0-0.2,0.1-0.4,0.2-0.5c0.1-0.1,0.3-0.2,0.5-0.2c0.2,0,0.3,0.1,0.5,0.2
	c0.3,0.3,0.3,0.7,0,1c-0.1,0.1-0.3,0.2-0.5,0.2C57.5,63.1,57.3,63,57.2,62.9z"/>
<path class="st12" d="M60.5,62.7c-0.4-0.3-0.8-0.7-1-1.2c-0.5-1.2-0.5-2.6,0-3.8c0.2-0.5,0.6-0.9,1-1.2c0.9-0.6,2-0.6,2.9,0
	c0.4,0.3,0.8,0.7,1,1.2c0.5,1.2,0.5,2.6,0,3.8c-0.2,0.5-0.6,0.9-1,1.2C62.6,63.3,61.4,63.3,60.5,62.7z M63.4,61.5
	c0.7-1.2,0.7-2.8,0-4c-0.5-0.7-1.6-0.9-2.3-0.4c-0.1,0.1-0.3,0.2-0.4,0.4c-0.7,1.2-0.7,2.8,0,4c0.5,0.7,1.6,0.9,2.3,0.4
	C63.1,61.8,63.3,61.7,63.4,61.5z"/>
<path class="st12" d="M67.2,62.7c-0.4-0.3-0.8-0.7-1-1.2c-0.5-1.2-0.5-2.6,0-3.8c0.2-0.5,0.6-0.9,1-1.2c0.9-0.6,2-0.6,2.9,0
	c0.4,0.3,0.8,0.7,1,1.2c0.5,1.2,0.5,2.6,0,3.8c-0.2,0.5-0.6,0.9-1,1.2C69.3,63.3,68.1,63.3,67.2,62.7z M70,61.5c0.7-1.2,0.7-2.8,0-4
	c-0.5-0.7-1.6-0.9-2.3-0.4c-0.1,0.1-0.3,0.2-0.4,0.4c-0.7,1.2-0.7,2.8,0,4c0.5,0.7,1.6,0.9,2.3,0.4C69.8,61.8,69.9,61.7,70,61.5z"/>
<path class="st12" d="M73.9,62.7c-0.4-0.3-0.8-0.7-1-1.2c-0.5-1.2-0.5-2.6,0-3.8c0.2-0.5,0.6-0.9,1-1.2c0.9-0.6,2-0.6,2.9,0
	c0.4,0.3,0.8,0.7,1,1.2c0.5,1.2,0.5,2.6,0,3.8c-0.2,0.5-0.6,0.9-1,1.2C75.9,63.3,74.8,63.3,73.9,62.7z M76.7,61.5
	c0.7-1.2,0.7-2.8,0-4c-0.5-0.7-1.6-0.9-2.3-0.4c-0.1,0.1-0.3,0.2-0.4,0.4c-0.7,1.2-0.7,2.8,0,4c0.5,0.7,1.6,0.9,2.3,0.4
	C76.5,61.8,76.6,61.7,76.7,61.5z"/>
<path class="st12" d="M79,65c0.4-0.7,0.7-1.4,0.9-2.2c0.4-1.6,0.4-3.4,0-5c-0.2-0.8-0.5-1.5-0.9-2.2h0.9c0.4,0.6,0.7,1.4,0.9,2.1
	c0.4,1.7,0.4,3.5,0,5.2c-0.2,0.8-0.5,1.5-0.9,2.2H79z"/>
<path class="st12" d="M130.1,48c0.2,0.3,0.4,0.7,0.4,1.1c0,0.6-0.2,1.1-0.7,1.4c-0.6,0.4-1.3,0.5-2,0.5h-3.3v-7h3.1
	c0.7,0,1.3,0.1,1.9,0.5c0.4,0.3,0.7,0.8,0.7,1.3c0,0.4-0.1,0.7-0.3,1c-0.2,0.3-0.4,0.5-0.7,0.6C129.5,47.5,129.9,47.7,130.1,48z
	 M125.4,44.8v2.2h2.1c0.4,0,0.8-0.1,1.2-0.3c0.5-0.3,0.6-0.9,0.3-1.4c-0.1-0.1-0.2-0.2-0.3-0.3c-0.4-0.2-0.8-0.3-1.2-0.3L125.4,44.8
	z M129,49.9c0.3-0.2,0.4-0.5,0.4-0.9c0-0.8-0.6-1.2-1.7-1.2h-2.3v2.3h2.3C128.2,50.2,128.6,50.1,129,49.9L129,49.9z"/>
<path class="st12" d="M136.6,48.7h-4.3c0,0.4,0.3,0.9,0.6,1.1c0.4,0.3,0.8,0.4,1.3,0.4c0.6,0,1.1-0.2,1.5-0.6l0.5,0.6
	c-0.2,0.3-0.6,0.5-0.9,0.6c-0.9,0.3-1.8,0.3-2.7-0.1c-0.4-0.2-0.8-0.6-1-1c-0.2-0.4-0.4-0.9-0.4-1.4c0-0.5,0.1-1,0.4-1.4
	c0.2-0.4,0.5-0.8,0.9-1c0.4-0.2,0.9-0.4,1.4-0.3c0.5,0,0.9,0.1,1.4,0.3c0.4,0.2,0.7,0.6,0.9,1c0.2,0.4,0.3,0.9,0.3,1.4
	C136.7,48.5,136.7,48.6,136.6,48.7z M132.9,46.9c-0.3,0.3-0.5,0.7-0.5,1.1h3.4c0-0.4-0.2-0.8-0.5-1.1
	C134.5,46.3,133.6,46.3,132.9,46.9L132.9,46.9z"/>
<path class="st12" d="M138,43.6h1V51h-1V43.6z"/>
<path class="st12" d="M140.8,44.5c-0.1-0.1-0.2-0.3-0.2-0.4c0-0.2,0.1-0.3,0.2-0.4c0.1-0.1,0.3-0.2,0.5-0.2c0.2,0,0.3,0.1,0.5,0.2
	c0.1,0.1,0.2,0.3,0.2,0.4c0,0.2-0.1,0.3-0.2,0.5c-0.1,0.1-0.3,0.2-0.5,0.2C141.1,44.7,140.9,44.7,140.8,44.5z M140.8,45.7h1V51h-1
	V45.7z"/>
<path class="st12" d="M150.5,46c0.4,0.2,0.8,0.6,1,1c0.5,0.9,0.5,1.9,0,2.8c-0.2,0.4-0.6,0.8-1,1c-0.4,0.2-0.9,0.3-1.4,0.3
	c-0.3,0-0.7-0.1-1-0.2c-0.3-0.1-0.6-0.4-0.8-0.6V53h-1v-7.3h0.9v0.8c0.2-0.3,0.5-0.5,0.8-0.7c0.3-0.2,0.7-0.2,1.1-0.2
	C149.6,45.7,150,45.8,150.5,46z M149.9,50c0.3-0.2,0.5-0.4,0.6-0.7c0.3-0.6,0.3-1.4,0-2c-0.1-0.3-0.4-0.5-0.6-0.7
	c-0.3-0.2-0.6-0.2-0.9-0.2c-0.3,0-0.6,0.1-0.9,0.2c-0.3,0.2-0.5,0.4-0.6,0.7c-0.2,0.3-0.2,0.7-0.2,1c0,0.3,0.1,0.7,0.2,1
	c0.1,0.3,0.4,0.5,0.6,0.7C148.6,50.3,149.3,50.3,149.9,50L149.9,50z"/>
<path class="st12" d="M158,45.7V51h-0.9v-0.8c-0.2,0.3-0.5,0.5-0.8,0.6c-0.3,0.1-0.7,0.2-1,0.2c-0.6,0-1.2-0.2-1.7-0.6
	c-0.4-0.5-0.7-1.1-0.6-1.7v-3h1v2.9c0,0.4,0.1,0.8,0.4,1.2c0.3,0.3,0.7,0.4,1.1,0.4c0.4,0,0.9-0.1,1.2-0.5c0.3-0.4,0.5-0.8,0.4-1.3
	v-2.8H158z"/>
<path class="st12" d="M159.9,43.6h1V51h-1V43.6z"/>
<path class="st12" d="M162.9,50.9c-0.3-0.1-0.7-0.2-0.9-0.4l0.4-0.8c0.3,0.2,0.5,0.3,0.9,0.4c0.3,0.1,0.7,0.1,1,0.2
	c0.8,0,1.3-0.2,1.3-0.7c0-0.1-0.1-0.3-0.2-0.4c-0.1-0.1-0.3-0.2-0.4-0.2l-0.7-0.1c-0.3-0.1-0.7-0.1-1-0.2c-0.3-0.1-0.5-0.2-0.7-0.4
	c-0.2-0.2-0.3-0.6-0.3-0.9c0-0.5,0.2-0.9,0.6-1.2c0.5-0.3,1-0.5,1.6-0.4c0.4,0,0.7,0,1.1,0.1c0.3,0.1,0.6,0.2,0.9,0.3l-0.4,0.8
	c-0.5-0.3-1-0.4-1.5-0.4c-0.3,0-0.6,0-0.9,0.2c-0.2,0.1-0.3,0.3-0.3,0.5c0,0.2,0.1,0.3,0.2,0.4c0.1,0.1,0.3,0.2,0.4,0.2l0.8,0.2
	c0.3,0.1,0.7,0.1,1,0.2c0.3,0.1,0.5,0.2,0.7,0.4c0.2,0.2,0.3,0.5,0.3,0.8c0,0.5-0.2,0.9-0.6,1.1c-0.5,0.3-1.1,0.5-1.7,0.4
	C163.8,51.1,163.3,51,162.9,50.9z"/>
<path class="st12" d="M171.3,46.2c0.4,0.4,0.6,1,0.6,1.6V51H171v-0.7c-0.2,0.3-0.4,0.5-0.7,0.6c-0.3,0.1-0.7,0.2-1.1,0.2
	c-0.5,0-1-0.1-1.4-0.4c-0.6-0.5-0.7-1.5-0.2-2.1c0.1-0.1,0.1-0.1,0.2-0.2c0.5-0.3,1-0.5,1.6-0.4h1.5v-0.2c0-0.4-0.1-0.7-0.4-1
	c-0.3-0.2-0.7-0.4-1.1-0.3c-0.3,0-0.6,0-0.9,0.2c-0.3,0.1-0.5,0.2-0.8,0.4l-0.4-0.7c0.3-0.2,0.6-0.4,1-0.5c0.4-0.1,0.8-0.2,1.2-0.2
	C170.3,45.6,170.8,45.8,171.3,46.2z M170.3,50.1c0.3-0.2,0.5-0.4,0.6-0.7v-0.7h-1.5c-0.8,0-1.2,0.3-1.2,0.8c0,0.2,0.1,0.5,0.3,0.6
	c0.3,0.2,0.6,0.2,0.9,0.2C169.7,50.4,170,50.3,170.3,50.1L170.3,50.1z"/>
<path class="st12" d="M174.4,49.9c0.1,0.1,0.2,0.3,0.2,0.5c0,0.1,0,0.2,0,0.3c0,0.1-0.1,0.2-0.1,0.4l-0.5,1.4h-0.6l0.4-1.5
	c-0.1,0-0.2-0.1-0.3-0.2c-0.1-0.1-0.1-0.2-0.1-0.4c0-0.2,0.1-0.4,0.2-0.5c0.1-0.1,0.3-0.2,0.5-0.2C174.1,49.7,174.2,49.8,174.4,49.9
	z"/>
<path class="st12" d="M182.8,46c0.4,0.2,0.8,0.6,1,1c0.5,0.9,0.5,1.9,0,2.8c-0.2,0.4-0.6,0.8-1,1c-0.4,0.2-0.9,0.3-1.4,0.3
	c-0.3,0-0.7-0.1-1-0.2c-0.3-0.1-0.6-0.4-0.8-0.6V53h-1v-7.3h0.9v0.8c0.2-0.3,0.5-0.5,0.8-0.7c0.3-0.2,0.7-0.2,1.1-0.2
	C181.9,45.7,182.4,45.8,182.8,46z M182.2,50c0.3-0.2,0.5-0.4,0.6-0.7c0.3-0.6,0.3-1.4,0-2c-0.1-0.3-0.4-0.5-0.6-0.7
	c-0.3-0.2-0.6-0.2-0.9-0.2c-0.3,0-0.6,0.1-0.9,0.2c-0.3,0.2-0.5,0.4-0.6,0.7c-0.2,0.3-0.2,0.7-0.2,1c0,0.3,0.1,0.7,0.2,1
	c0.1,0.3,0.4,0.5,0.6,0.7C181,50.3,181.7,50.3,182.2,50L182.2,50z"/>
<path class="st12" d="M189,46.2c0.4,0.4,0.6,1,0.6,1.6V51h-0.9v-0.7c-0.2,0.3-0.4,0.5-0.7,0.6c-0.3,0.1-0.7,0.2-1.1,0.2
	c-0.5,0-1-0.1-1.4-0.4c-0.4-0.3-0.6-0.7-0.5-1.1c0-0.4,0.2-0.8,0.5-1.1c0.5-0.3,1-0.5,1.6-0.4h1.5v-0.2c0-0.4-0.1-0.7-0.4-1
	c-0.3-0.2-0.7-0.4-1.1-0.3c-0.3,0-0.6,0-0.9,0.2c-0.3,0.1-0.5,0.2-0.8,0.4l-0.4-0.7c0.3-0.2,0.6-0.4,1-0.5c0.4-0.1,0.8-0.2,1.2-0.2
	C187.9,45.6,188.5,45.8,189,46.2z M188,50.1c0.3-0.2,0.5-0.4,0.6-0.7v-0.7h-1.5c-0.8,0-1.2,0.3-1.2,0.8c0,0.2,0.1,0.5,0.3,0.6
	c0.3,0.2,0.6,0.2,0.9,0.2C187.4,50.4,187.7,50.3,188,50.1L188,50.1z"/>
<path class="st12" d="M193.4,48.6l-1.1,1V51h-1v-7.4h1v4.8l2.9-2.6h1.2l-2.2,2.2l2.4,3.1h-1.2L193.4,48.6z"/>
<path class="st12" d="M202.1,48.7h-4.3c0,0.4,0.3,0.9,0.6,1.1c0.4,0.3,0.8,0.4,1.3,0.4c0.6,0,1.1-0.2,1.5-0.6l0.5,0.6
	c-0.2,0.3-0.6,0.5-0.9,0.6c-0.9,0.3-1.8,0.3-2.7-0.1c-0.4-0.2-0.8-0.6-1-1c-0.2-0.4-0.4-0.9-0.4-1.4c0-0.5,0.1-1,0.4-1.4
	c0.2-0.4,0.5-0.8,0.9-1c0.4-0.2,0.9-0.3,1.4-0.3c0.5,0,0.9,0.1,1.4,0.3c0.4,0.2,0.7,0.6,0.9,1c0.2,0.4,0.3,0.9,0.3,1.4
	C202.1,48.5,202.1,48.6,202.1,48.7z M198.3,46.9c-0.3,0.3-0.5,0.7-0.5,1.1h3.4c0-0.4-0.2-0.8-0.5-1.1C200,46.3,199,46.3,198.3,46.9
	L198.3,46.9z"/>
<path class="st12" d="M206.4,50.7c-0.2,0.1-0.3,0.2-0.5,0.3c-0.2,0.1-0.4,0.1-0.6,0.1c-0.5,0-0.9-0.1-1.2-0.4
	c-0.3-0.3-0.5-0.8-0.4-1.2v-2.9h-0.9v-0.8h0.9v-1.2h1v1.2h1.5v0.8h-1.5v2.9c0,0.2,0.1,0.5,0.2,0.7c0.2,0.2,0.4,0.2,0.6,0.2
	c0.3,0,0.5-0.1,0.8-0.2L206.4,50.7z"/>
<path class="st12" d="M129.6,55.6V63h-0.9v-0.8c-0.2,0.3-0.5,0.5-0.8,0.7c-0.3,0.2-0.7,0.2-1.1,0.2c-0.5,0-1-0.1-1.4-0.3
	c-0.4-0.2-0.8-0.6-1-1c-0.5-0.9-0.5-1.9,0-2.8c0.2-0.4,0.6-0.8,1-1c0.4-0.2,0.9-0.3,1.4-0.3c0.3,0,0.7,0.1,1,0.2
	c0.3,0.1,0.6,0.4,0.8,0.6v-2.8H129.6z M127.8,62c0.3-0.2,0.5-0.4,0.6-0.7c0.3-0.6,0.3-1.4,0-2c-0.1-0.3-0.4-0.5-0.6-0.7
	c-0.6-0.3-1.3-0.3-1.8,0c-0.3,0.2-0.5,0.4-0.6,0.7c-0.3,0.6-0.3,1.4,0,2c0.2,0.3,0.4,0.5,0.7,0.7C126.6,62.3,127.3,62.3,127.8,62
	L127.8,62z"/>
<path class="st12" d="M135.1,58.2c0.4,0.4,0.6,1,0.6,1.6V63h-0.9v-0.7c-0.2,0.3-0.4,0.5-0.7,0.6c-0.3,0.1-0.7,0.2-1.1,0.2
	c-0.5,0-1-0.1-1.4-0.4c-0.4-0.3-0.6-0.7-0.5-1.1c0-0.4,0.2-0.8,0.5-1.1c0.5-0.3,1-0.5,1.6-0.4h1.5v-0.2c0-0.4-0.1-0.7-0.4-1
	c-0.3-0.2-0.7-0.4-1.1-0.3c-0.3,0-0.6,0-0.9,0.2c-0.3,0.1-0.5,0.2-0.8,0.4l-0.4-0.7c0.3-0.2,0.6-0.4,1-0.5c0.4-0.1,0.8-0.2,1.2-0.2
	C134,57.6,134.6,57.8,135.1,58.2z M134.1,62.1c0.3-0.2,0.5-0.4,0.6-0.7v-0.7h-1.4c-0.8,0-1.2,0.3-1.2,0.8c0,0.2,0.1,0.5,0.3,0.6
	c0.3,0.2,0.6,0.2,0.9,0.2C133.5,62.4,133.8,62.3,134.1,62.1L134.1,62.1z"/>
<path class="st12" d="M140.4,62.7c-0.2,0.1-0.3,0.2-0.5,0.3c-0.2,0.1-0.4,0.1-0.6,0.1c-0.5,0-0.9-0.1-1.2-0.4
	c-0.3-0.3-0.5-0.8-0.4-1.2v-2.9h-0.9v-0.8h0.9v-1.2h1v1.2h1.4v0.8h-1.5v2.9c0,0.2,0.1,0.5,0.2,0.7c0.2,0.2,0.4,0.2,0.6,0.2
	c0.3,0,0.5-0.1,0.8-0.2L140.4,62.7z"/>
<path class="st12" d="M145.2,58.2c0.4,0.4,0.6,1,0.6,1.6V63h-0.9v-0.7c-0.2,0.3-0.4,0.5-0.7,0.6c-0.3,0.1-0.7,0.2-1.1,0.2
	c-0.5,0-1-0.1-1.4-0.4c-0.4-0.3-0.6-0.7-0.5-1.1c0-0.4,0.2-0.8,0.5-1.1c0.5-0.3,1-0.5,1.6-0.4h1.5v-0.2c0-0.4-0.1-0.7-0.4-1
	c-0.3-0.2-0.7-0.4-1.1-0.3c-0.3,0-0.6,0-0.9,0.2c-0.3,0.1-0.5,0.2-0.8,0.4l-0.4-0.7c0.3-0.2,0.6-0.4,1-0.5c0.4-0.1,0.8-0.2,1.2-0.2
	C144.1,57.6,144.7,57.8,145.2,58.2z M144.2,62.1c0.3-0.2,0.5-0.4,0.6-0.7v-0.7h-1.5c-0.8,0-1.2,0.3-1.2,0.8c0,0.2,0.1,0.5,0.3,0.6
	c0.3,0.2,0.6,0.2,0.9,0.2C143.6,62.4,143.9,62.3,144.2,62.1L144.2,62.1z"/>
<path class="st12" d="M148.2,61.9c0.1,0.1,0.2,0.3,0.2,0.5c0,0.1,0,0.2,0,0.3c0,0.1-0.1,0.2-0.1,0.4l-0.5,1.4h-0.6l0.4-1.5
	c-0.1,0-0.2-0.1-0.3-0.2c-0.1-0.1-0.1-0.2-0.1-0.4c0-0.2,0.1-0.4,0.2-0.5c0.1-0.1,0.3-0.2,0.5-0.2C148,61.7,148.1,61.8,148.2,61.9z"
	/>
<path class="st12" d="M156.1,58.2c0.4,0.4,0.6,1,0.6,1.6V63h-0.9v-0.7c-0.2,0.3-0.4,0.5-0.7,0.6c-0.3,0.1-0.7,0.2-1.1,0.2
	c-0.5,0-1-0.1-1.4-0.4c-0.4-0.3-0.6-0.7-0.5-1.1c0-0.4,0.2-0.8,0.5-1.1c0.5-0.3,1-0.5,1.6-0.4h1.5v-0.2c0-0.4-0.1-0.7-0.4-1
	c-0.3-0.2-0.7-0.4-1.1-0.3c-0.3,0-0.6,0-0.9,0.2c-0.3,0.1-0.5,0.2-0.8,0.4l-0.4-0.7c0.3-0.2,0.6-0.4,1-0.5c0.4-0.1,0.8-0.2,1.2-0.2
	C155.1,57.6,155.7,57.8,156.1,58.2z M155.1,62.1c0.3-0.2,0.5-0.4,0.6-0.7v-0.7h-1.5c-0.8,0-1.2,0.3-1.2,0.8c0,0.2,0.1,0.5,0.3,0.6
	c0.3,0.2,0.6,0.2,0.9,0.2C154.5,62.4,154.9,62.3,155.1,62.1L155.1,62.1z"/>
<path class="st12" d="M161.5,62.7c-0.2,0.1-0.3,0.2-0.5,0.3c-0.2,0.1-0.4,0.1-0.6,0.1c-0.5,0-0.9-0.1-1.2-0.4
	c-0.3-0.3-0.5-0.8-0.4-1.2v-2.9h-0.9v-0.8h0.9v-1.2h1v1.2h1.5v0.8h-1.5v2.9c0,0.2,0.1,0.5,0.2,0.7c0.2,0.2,0.4,0.2,0.6,0.2
	c0.3,0,0.5-0.1,0.8-0.2L161.5,62.7z"/>
<path class="st12" d="M166.2,58.2c0.4,0.4,0.6,1,0.6,1.6V63h-0.9v-0.7c-0.2,0.3-0.4,0.5-0.7,0.6c-0.3,0.1-0.7,0.2-1.1,0.2
	c-0.5,0-1-0.1-1.4-0.4c-0.4-0.3-0.6-0.7-0.5-1.1c0-0.4,0.2-0.8,0.5-1.1c0.5-0.3,1-0.5,1.6-0.4h1.5v-0.2c0-0.4-0.1-0.7-0.4-1
	c-0.3-0.2-0.7-0.4-1.1-0.3c-0.3,0-0.6,0-0.9,0.2c-0.3,0.1-0.5,0.2-0.8,0.4l-0.4-0.7c0.3-0.2,0.6-0.4,1-0.5c0.4-0.1,0.8-0.2,1.2-0.2
	C165.2,57.6,165.8,57.8,166.2,58.2z M165.2,62.1c0.3-0.2,0.5-0.4,0.6-0.7v-0.7h-1.5c-0.8,0-1.2,0.3-1.2,0.8c0,0.2,0.1,0.5,0.3,0.6
	c0.3,0.2,0.6,0.2,0.9,0.2C164.6,62.4,165,62.3,165.2,62.1L165.2,62.1z"/>
<path class="st12" d="M173.5,57.7V63h-0.9v-0.8c-0.2,0.3-0.5,0.5-0.8,0.6c-0.3,0.1-0.7,0.2-1,0.2c-0.6,0-1.2-0.2-1.7-0.6
	c-0.4-0.5-0.7-1.1-0.6-1.7v-3h1v2.9c0,0.4,0.1,0.8,0.4,1.2c0.3,0.3,0.7,0.4,1.1,0.4c0.4,0,0.9-0.1,1.2-0.5c0.3-0.4,0.5-0.8,0.4-1.3
	v-2.8H173.5z"/>
<path class="st12" d="M181,62.7c-0.2,0.1-0.3,0.2-0.5,0.3c-0.2,0.1-0.4,0.1-0.6,0.1c-0.5,0-0.9-0.1-1.2-0.4
	c-0.3-0.3-0.5-0.8-0.4-1.2v-2.9h-0.9v-0.8h0.9v-1.2h1v1.2h1.5v0.8h-1.5v2.9c0,0.2,0.1,0.5,0.2,0.7c0.2,0.2,0.4,0.2,0.6,0.2
	c0.3,0,0.5-0.1,0.8-0.2L181,62.7z"/>
<path class="st12" d="M182.9,62.7c-0.4-0.2-0.8-0.6-1-1c-0.5-0.9-0.5-1.9,0-2.8c0.2-0.4,0.6-0.8,1-1c0.4-0.2,0.9-0.3,1.4-0.3
	c0.5,0,1,0.1,1.4,0.3c0.4,0.2,0.8,0.6,1,1c0.5,0.9,0.5,1.9,0,2.8c-0.2,0.4-0.6,0.8-1,1c-0.4,0.2-0.9,0.4-1.4,0.3
	C183.8,63.1,183.3,63,182.9,62.7z M185.2,62c0.3-0.2,0.5-0.4,0.6-0.7c0.3-0.6,0.3-1.4,0-2c-0.1-0.3-0.4-0.5-0.6-0.7
	c-0.6-0.3-1.3-0.3-1.8,0c-0.3,0.2-0.5,0.4-0.6,0.7c-0.3,0.6-0.3,1.4,0,2c0.1,0.3,0.4,0.5,0.6,0.7C183.9,62.3,184.6,62.3,185.2,62z"
	/>
<path class="st12" d="M190.4,60.6l-1.1,1V63h-1v-7.4h1v4.8l2.9-2.6h1.2l-2.2,2.2l2.5,3.1h-1.2L190.4,60.6z"/>
<path class="st12" d="M199.1,60.7h-4.3c0,0.4,0.3,0.9,0.6,1.1c0.4,0.3,0.8,0.4,1.3,0.4c0.6,0,1.1-0.2,1.5-0.6l0.5,0.6
	c-0.2,0.3-0.5,0.5-0.9,0.6c-0.9,0.3-1.8,0.3-2.7-0.1c-0.4-0.2-0.8-0.6-1-1c-0.2-0.4-0.4-0.9-0.4-1.4c0-0.5,0.1-1,0.4-1.4
	c0.2-0.4,0.5-0.8,0.9-1c0.4-0.2,0.9-0.4,1.4-0.3c0.5,0,0.9,0.1,1.4,0.3c0.4,0.2,0.7,0.6,0.9,1c0.2,0.4,0.3,0.9,0.3,1.4
	C199.1,60.5,199.1,60.6,199.1,60.7z M195.3,58.9c-0.3,0.3-0.5,0.7-0.5,1.1h3.4c0-0.4-0.2-0.8-0.5-1.1C197,58.3,196,58.3,195.3,58.9
	L195.3,58.9z"/>
<path class="st12" d="M204.9,58.3c0.4,0.5,0.6,1.1,0.6,1.7v3h-1v-2.9c0-0.4-0.1-0.8-0.4-1.2c-0.3-0.3-0.7-0.4-1.1-0.4
	c-0.5,0-0.9,0.1-1.2,0.5c-0.3,0.4-0.5,0.8-0.4,1.3V63h-1v-5.3h0.9v0.8c0.2-0.3,0.5-0.5,0.8-0.6c0.4-0.2,0.7-0.2,1.1-0.2
	C203.8,57.6,204.4,57.8,204.9,58.3z"/>
<path class="st12" d="M152.1,67.6h1V75h-1V67.6z"/>
<path class="st12" d="M154.9,68.5c-0.1-0.1-0.2-0.3-0.2-0.4c0-0.2,0.1-0.3,0.2-0.4c0.1-0.1,0.3-0.2,0.5-0.2c0.2,0,0.3,0.1,0.5,0.2
	c0.1,0.1,0.2,0.3,0.2,0.4c0,0.2-0.1,0.3-0.2,0.5c-0.1,0.1-0.3,0.2-0.5,0.2C155.2,68.7,155,68.7,154.9,68.5z M154.9,69.7h1V75h-1
	V69.7z"/>
<path class="st12" d="M157.9,74.9c-0.3-0.1-0.7-0.2-0.9-0.4l0.4-0.8c0.3,0.2,0.5,0.3,0.9,0.4c0.3,0.1,0.7,0.1,1,0.2
	c0.8,0,1.3-0.2,1.3-0.7c0-0.1-0.1-0.3-0.2-0.4c-0.1-0.1-0.3-0.2-0.4-0.2l-0.7-0.1c-0.3-0.1-0.7-0.1-1-0.2c-0.3-0.1-0.5-0.2-0.7-0.4
	c-0.2-0.2-0.3-0.6-0.3-0.9c0-0.5,0.2-0.9,0.6-1.2c0.5-0.3,1-0.5,1.6-0.4c0.4,0,0.7,0,1.1,0.1c0.3,0.1,0.6,0.2,0.9,0.3l-0.4,0.8
	c-0.5-0.3-1-0.4-1.5-0.4c-0.3,0-0.6,0-0.9,0.2c-0.2,0.1-0.3,0.3-0.3,0.5c0,0.2,0.1,0.3,0.2,0.4c0.1,0.1,0.3,0.2,0.4,0.2l0.8,0.2
	c0.3,0.1,0.7,0.1,1,0.2c0.3,0.1,0.5,0.2,0.7,0.4c0.2,0.2,0.3,0.5,0.3,0.8c0,0.5-0.2,0.9-0.6,1.1c-0.5,0.3-1.1,0.5-1.7,0.4
	C158.8,75.1,158.3,75,157.9,74.9z"/>
<path class="st12" d="M165.6,74.7c-0.2,0.1-0.3,0.2-0.5,0.3c-0.2,0.1-0.4,0.1-0.6,0.1c-0.5,0-0.9-0.1-1.2-0.4
	c-0.3-0.3-0.5-0.8-0.4-1.2v-2.9h-0.9v-0.8h0.9v-1.2h1v1.2h1.5v0.8h-1.5v2.9c0,0.2,0.1,0.4,0.2,0.6c0.2,0.2,0.4,0.2,0.6,0.2
	c0.3,0,0.5-0.1,0.8-0.2L165.6,74.7z"/>
<path class="st12" d="M168.5,69.9c0.4-0.2,0.8-0.3,1.2-0.2v0.9h-0.2c-0.5,0-0.9,0.1-1.2,0.5c-0.3,0.4-0.5,0.8-0.4,1.3V75h-1v-5.3
	h0.9v0.9C167.9,70.3,168.1,70.1,168.5,69.9z"/>
<path class="st12" d="M170.9,68.5c-0.1-0.1-0.2-0.3-0.2-0.4c0-0.2,0.1-0.3,0.2-0.4c0.1-0.1,0.3-0.2,0.5-0.2c0.2,0,0.3,0.1,0.5,0.2
	c0.1,0.1,0.2,0.3,0.2,0.4c0,0.2-0.1,0.3-0.2,0.5c-0.1,0.1-0.3,0.2-0.5,0.2C171.1,68.7,171,68.7,170.9,68.5z M170.9,69.7h1V75h-1
	V69.7z"/>
<path class="st12" d="M175.7,72.6l-1.1,1V75h-1v-7.4h1v4.8l2.9-2.6h1.2l-2.2,2.2l2.4,3.1h-1.2L175.7,72.6z"/>
<path class="st12" d="M251.4,48c0.2,0.3,0.4,0.7,0.4,1.1c0,0.6-0.2,1.1-0.7,1.4c-0.6,0.4-1.3,0.5-2,0.5h-3.3v-7h3.1
	c0.7,0,1.3,0.1,1.9,0.5c0.4,0.3,0.7,0.8,0.7,1.3c0,0.4-0.1,0.7-0.3,1c-0.2,0.3-0.4,0.5-0.7,0.6C250.8,47.5,251.1,47.7,251.4,48z
	 M246.7,44.8v2.2h2c0.4,0,0.8-0.1,1.2-0.3c0.5-0.3,0.6-0.9,0.3-1.4c-0.1-0.1-0.2-0.2-0.3-0.3c-0.4-0.2-0.8-0.3-1.2-0.3L246.7,44.8z
	 M250.3,49.9c0.3-0.2,0.4-0.5,0.4-0.9c0-0.8-0.6-1.2-1.7-1.2h-2.3v2.3h2.3C249.4,50.2,249.9,50.1,250.3,49.9L250.3,49.9z"/>
<path class="st12" d="M256.8,46.2c0.4,0.4,0.6,1,0.6,1.6V51h-0.9v-0.7c-0.2,0.3-0.4,0.5-0.7,0.6c-0.3,0.1-0.7,0.2-1.1,0.2
	c-0.5,0-1-0.1-1.4-0.4c-0.6-0.5-0.7-1.5-0.2-2.1c0.1-0.1,0.1-0.1,0.2-0.2c0.5-0.3,1-0.5,1.6-0.4h1.5v-0.2c0-0.4-0.1-0.7-0.4-1
	c-0.3-0.2-0.7-0.4-1.1-0.3c-0.3,0-0.6,0-0.9,0.2c-0.3,0.1-0.5,0.2-0.8,0.4l-0.4-0.7c0.3-0.2,0.6-0.4,1-0.5c0.4-0.1,0.8-0.2,1.2-0.2
	C255.7,45.6,256.3,45.8,256.8,46.2z M255.8,50.1c0.3-0.2,0.5-0.4,0.6-0.7v-0.7h-1.5c-0.8,0-1.2,0.3-1.2,0.8c0,0.2,0.1,0.5,0.3,0.6
	c0.3,0.2,0.6,0.2,0.9,0.2C255.2,50.4,255.5,50.3,255.8,50.1L255.8,50.1z"/>
<path class="st12" d="M263.7,45.7l-2.6,5.8c-0.2,0.4-0.4,0.8-0.8,1.1c-0.3,0.2-0.7,0.3-1.1,0.3c-0.3,0-0.5,0-0.8-0.1
	c-0.2-0.1-0.4-0.2-0.6-0.4l0.4-0.7c0.3,0.3,0.6,0.4,1,0.4c0.2,0,0.4-0.1,0.6-0.2c0.2-0.2,0.3-0.4,0.4-0.6l0.2-0.4l-2.3-5.3h1L261,50
	l1.8-4.2L263.7,45.7z"/>
<path class="st12" d="M268.1,46.2c0.4,0.4,0.6,1,0.6,1.6V51h-0.9v-0.7c-0.2,0.3-0.4,0.5-0.7,0.6c-0.3,0.1-0.7,0.2-1.1,0.2
	c-0.5,0-1-0.1-1.4-0.4c-0.6-0.5-0.7-1.5-0.2-2.1c0.1-0.1,0.1-0.1,0.2-0.2c0.5-0.3,1-0.5,1.6-0.4h1.5v-0.2c0-0.4-0.1-0.7-0.4-1
	c-0.3-0.2-0.7-0.4-1.1-0.3c-0.3,0-0.6,0-0.9,0.2c-0.3,0.1-0.5,0.2-0.8,0.4l-0.4-0.7c0.3-0.2,0.6-0.4,1-0.5c0.4-0.1,0.8-0.2,1.2-0.2
	C267,45.6,267.6,45.8,268.1,46.2z M267.1,50.1c0.3-0.2,0.5-0.4,0.6-0.7v-0.7h-1.5c-0.8,0-1.2,0.3-1.2,0.8c0,0.2,0.1,0.5,0.3,0.6
	c0.3,0.2,0.6,0.2,0.9,0.2C266.5,50.4,266.8,50.3,267.1,50.1L267.1,50.1z"/>
<path class="st12" d="M272.1,45.9c0.4-0.2,0.8-0.3,1.2-0.2v0.9h-0.2c-0.5,0-0.9,0.1-1.2,0.5c-0.3,0.4-0.5,0.8-0.4,1.3V51h-1v-5.3
	h0.9v0.9C271.5,46.3,271.8,46.1,272.1,45.9z"/>
<path class="st12" d="M280.2,50.7c-0.2,0.1-0.3,0.2-0.5,0.3c-0.2,0.1-0.4,0.1-0.6,0.1c-0.5,0-0.9-0.1-1.2-0.4
	c-0.3-0.3-0.5-0.8-0.4-1.2v-2.9h-0.9v-0.8h0.9v-1.2h1v1.2h1.5v0.8h-1.5v2.9c0,0.2,0.1,0.5,0.2,0.7c0.2,0.2,0.4,0.2,0.6,0.2
	c0.3,0,0.5-0.1,0.8-0.2L280.2,50.7z"/>
<path class="st12" d="M285,46.2c0.4,0.4,0.6,1,0.6,1.6V51h-0.9v-0.7c-0.2,0.3-0.4,0.5-0.7,0.6c-0.3,0.1-0.7,0.2-1,0.2
	c-0.5,0-1-0.1-1.4-0.4c-0.4-0.3-0.6-0.7-0.5-1.1c0-0.4,0.2-0.8,0.5-1.1c0.5-0.3,1-0.5,1.6-0.4h1.5v-0.2c0-0.4-0.1-0.7-0.4-1
	c-0.3-0.2-0.7-0.4-1.1-0.3c-0.3,0-0.6,0-0.9,0.2c-0.3,0.1-0.5,0.2-0.8,0.4l-0.4-0.7c0.3-0.2,0.6-0.4,1-0.5c0.4-0.1,0.8-0.2,1.2-0.2
	C283.9,45.6,284.5,45.8,285,46.2z M284,50.1c0.3-0.2,0.5-0.4,0.6-0.7v-0.7h-1.5c-0.8,0-1.2,0.3-1.2,0.8c0,0.2,0.1,0.5,0.3,0.6
	c0.3,0.2,0.6,0.2,0.9,0.2C283.4,50.4,283.7,50.3,284,50.1L284,50.1z"/>
<path class="st12" d="M292.4,45.7v4.6c0.1,0.7-0.2,1.5-0.7,2c-0.6,0.5-1.3,0.7-2.1,0.7c-0.5,0-1-0.1-1.4-0.2
	c-0.4-0.1-0.8-0.3-1.1-0.6l0.5-0.7c0.3,0.2,0.6,0.4,0.9,0.5c0.4,0.1,0.7,0.2,1.1,0.2c0.5,0,1-0.1,1.4-0.4c0.3-0.4,0.5-0.9,0.4-1.3
	V50c-0.2,0.3-0.5,0.5-0.8,0.6c-0.3,0.1-0.7,0.2-1.1,0.2c-0.5,0-0.9-0.1-1.4-0.3c-0.4-0.2-0.8-0.5-1-0.9c-0.5-0.8-0.5-1.8,0-2.7
	c0.2-0.4,0.6-0.7,1-0.9c0.4-0.2,0.9-0.3,1.4-0.3c0.4,0,0.8,0.1,1.1,0.2c0.3,0.1,0.6,0.4,0.8,0.7v-0.8L292.4,45.7z M290.6,49.7
	c0.3-0.1,0.5-0.3,0.6-0.6c0.2-0.3,0.2-0.6,0.2-0.9c0-0.5-0.2-0.9-0.5-1.2c-0.8-0.6-1.9-0.6-2.6,0c-0.3,0.3-0.5,0.8-0.5,1.2
	c0,0.3,0.1,0.6,0.2,0.9c0.2,0.3,0.4,0.5,0.6,0.6c0.3,0.2,0.6,0.2,1,0.2C290,50,290.3,49.9,290.6,49.7L290.6,49.7z"/>
<path class="st12" d="M294.3,44.5c-0.1-0.1-0.2-0.3-0.2-0.4c0-0.2,0.1-0.3,0.2-0.4c0.1-0.1,0.3-0.2,0.5-0.2c0.2,0,0.3,0.1,0.5,0.2
	c0.1,0.1,0.2,0.3,0.2,0.4c0,0.2-0.1,0.3-0.2,0.5c-0.1,0.1-0.3,0.2-0.5,0.2C294.6,44.7,294.4,44.7,294.3,44.5z M294.3,45.7h1V51h-1
	V45.7z"/>
<path class="st12" d="M301.5,46.3c0.4,0.5,0.6,1.1,0.6,1.7v3h-1v-2.9c0-0.4-0.1-0.8-0.4-1.2c-0.3-0.3-0.7-0.4-1.1-0.4
	c-0.5,0-0.9,0.1-1.2,0.5c-0.3,0.4-0.5,0.8-0.5,1.3V51h-1v-7.4h1v2.9c0.2-0.3,0.5-0.5,0.8-0.6c0.3-0.1,0.7-0.2,1.1-0.2
	C300.4,45.6,301,45.9,301.5,46.3z"/>
<path class="st12" d="M307.5,46.2c0.4,0.4,0.6,1,0.6,1.6V51h-0.9v-0.7c-0.2,0.3-0.4,0.5-0.7,0.6c-0.3,0.1-0.7,0.2-1,0.2
	c-0.5,0-1-0.1-1.4-0.4c-0.4-0.3-0.6-0.7-0.5-1.1c0-0.4,0.2-0.8,0.5-1.1c0.5-0.3,1-0.5,1.6-0.4h1.5v-0.2c0-0.4-0.1-0.7-0.4-1
	c-0.3-0.2-0.7-0.4-1.1-0.3c-0.3,0-0.6,0-0.9,0.2c-0.3,0.1-0.5,0.2-0.8,0.4l-0.4-0.7c0.3-0.2,0.6-0.4,1-0.5c0.4-0.1,0.8-0.2,1.2-0.2
	C306.4,45.6,307,45.8,307.5,46.2z M306.5,50.1c0.3-0.2,0.5-0.4,0.6-0.7v-0.7h-1.5c-0.8,0-1.2,0.3-1.2,0.8c0,0.2,0.1,0.5,0.3,0.6
	c0.3,0.2,0.6,0.2,0.9,0.2C305.9,50.4,306.2,50.3,306.5,50.1L306.5,50.1z"/>
<path class="st12" d="M314.3,46.3c0.4,0.5,0.6,1.1,0.6,1.7v3h-1v-2.9c0-0.4-0.1-0.8-0.4-1.2c-0.3-0.3-0.7-0.4-1.1-0.4
	c-0.5,0-0.9,0.1-1.2,0.5c-0.3,0.4-0.5,0.8-0.5,1.3V51h-1v-5.3h0.9v0.8c0.2-0.3,0.5-0.5,0.8-0.6c0.4-0.2,0.7-0.2,1.1-0.2
	C313.2,45.6,313.8,45.8,314.3,46.3z"/>
</svg>
