<?xml version="1.0" encoding="utf-8"?>
<!-- Generator: Adobe Illustrator 21.0.0, SVG Export Plug-In . SVG Version: 6.00 Build 0)  -->
<svg version="1.1" id="Layer_1" xmlns="http://www.w3.org/2000/svg" xmlns:xlink="http://www.w3.org/1999/xlink" x="0px" y="0px"
	 viewBox="0 0 80 50" style="enable-background:new 0 0 80 50;" xml:space="preserve">
<style type="text/css">
	.st0{fill:#FFFFFF;}
	.st1{fill:url(#SVGID_1_);}
	.st2{fill:url(#SVGID_2_);}
	.st3{opacity:0.5;fill:#313132;enable-background:new    ;}
	.st4{fill:none;}
	.st5{fill:url(#SVGID_3_);}
	.st6{fill:url(#SVGID_4_);}
	.st7{fill:#8C0000;}
	.st8{fill:#646464;}
	.st9{fill:#5E5E5E;}
</style>
<path class="st0" d="M76,50H4c-2.2,0-4-1.8-4-4V4c0-2.2,1.8-4,4-4h72c2.2,0,4,1.8,4,4v42C80,48.2,78.2,50,76,50z"/>
<title>OJK_signup</title>
<radialGradient id="SVGID_1_" cx="-16.6248" cy="761.618" r="13.9035" gradientTransform="matrix(1.0606 0 0 0.9912 41.5642 -722.5117)" gradientUnits="userSpaceOnUse">
	<stop  offset="0" style="stop-color:#D60015"/>
	<stop  offset="1.000000e-02" style="stop-color:#D50015"/>
	<stop  offset="0.27" style="stop-color:#B60917"/>
	<stop  offset="0.53" style="stop-color:#A01019"/>
	<stop  offset="0.78" style="stop-color:#93141A"/>
	<stop  offset="1" style="stop-color:#8E151A"/>
</radialGradient>
<path class="st1" d="M22.4,24.8v11.8c-0.1,1-0.3,2.1-1.5,2.1c-0.5,0-0.7-0.1-0.9-0.3c1-1.5,1.5-3.2,1.5-5c0-1.1-0.2-2.1-0.6-3.1
	c-0.1-0.2-0.1-0.3-0.2-0.5c-1.1-2.9-3.9-4.8-7-4.9c-4.3,0-7.8,3.8-7.8,8.5s3.5,8.5,7.8,8.5c1.3,0,2.6-0.3,3.7-1c0.9,0.7,2,1,3.2,1
	c2.6,0,4.8-1.9,5.4-4.4l0,0V24.8H22.4z M15.7,38.5c-0.6,0.3-1.2,0.5-1.9,0.5c-2.6,0-4.7-2.5-4.7-5.7s2.1-5.7,4.7-5.7
	c2,0.1,3.7,1.4,4.3,3.4c0.3,0.7,0.4,1.5,0.4,2.3C18.6,35.4,17.5,37.4,15.7,38.5z"/>
<radialGradient id="SVGID_2_" cx="24.2839" cy="758.4258" r="13.4323" gradientTransform="matrix(1 0 0 1 0 -726)" gradientUnits="userSpaceOnUse">
	<stop  offset="0" style="stop-color:#D60015"/>
	<stop  offset="1.000000e-02" style="stop-color:#D50015"/>
	<stop  offset="0.27" style="stop-color:#B60917"/>
	<stop  offset="0.53" style="stop-color:#A01019"/>
	<stop  offset="0.78" style="stop-color:#93141A"/>
	<stop  offset="1" style="stop-color:#8E151A"/>
</radialGradient>
<polygon class="st2" points="27.4,31.3 27.4,36.3 29.6,34.3 34.5,41.6 39.4,41.6 32.4,31.1 38.4,24.8 33,24.8 "/>
<path class="st3" d="M38.8,24.6c-1.2,0.1-2.3,0.1-3.5,0c-0.1,0-0.2,0-0.2,0c-5.6-1.6-7.1-4.4-10.9-6.7c-3.6-2.2-12-4.2-20.5,1.4
	c1.6,1.2,2.9,2.8,3.8,4.5c1.8,3.2,0.9,5.3,0.9,5.3s4.9-5.2,10.7-5.4c4.9-0.2,10.5,1.7,14.9,2.2c0.8,0.1,1.6,0.1,2.3,0.1
	c4.7-0.2,6.5-2.9,6.5-2.9C41.7,24.1,40.3,24.6,38.8,24.6z"/>
<path class="st4" d="M7.4,23.5c0.2-0.3,0.5-0.5,0.7-0.7C7.8,23,7.6,23.2,7.4,23.5z"/>
<linearGradient id="SVGID_3_" gradientUnits="userSpaceOnUse" x1="29.3051" y1="743.7742" x2="4.2252" y2="752.9042" gradientTransform="matrix(1 0 0 1 0 -726)">
	<stop  offset="0" style="stop-color:#E78B62"/>
	<stop  offset="2.000000e-02" style="stop-color:#DC684E"/>
	<stop  offset="5.000000e-02" style="stop-color:#D24C3D"/>
	<stop  offset="8.000000e-02" style="stop-color:#CB3630"/>
	<stop  offset="0.11" style="stop-color:#C62627"/>
	<stop  offset="0.14" style="stop-color:#C31D22"/>
	<stop  offset="0.19" style="stop-color:#C21A20"/>
	<stop  offset="0.25" style="stop-color:#D04239"/>
	<stop  offset="0.33" style="stop-color:#E17157"/>
	<stop  offset="0.37" style="stop-color:#E78362"/>
	<stop  offset="0.39" style="stop-color:#E57A5C"/>
	<stop  offset="0.5" style="stop-color:#DD5A46"/>
	<stop  offset="0.61" style="stop-color:#D64235"/>
	<stop  offset="0.73" style="stop-color:#D23029"/>
	<stop  offset="0.85" style="stop-color:#CF2522"/>
	<stop  offset="1" style="stop-color:#CE2220"/>
</linearGradient>
<path class="st5" d="M20.8,20.1c6.9,1.8,8.4,4.5,14,4.4c-0.4-0.2-0.7-0.4-1.1-0.5c-2.6-0.5-4.3-3.1-9.4-6.1
	c-6.5-3.7-14.5-3.2-20.5,1.3v0.1l0,0c1.5,1.1,2.7,2.5,3.6,4.1c0.2-0.3,0.5-0.5,0.7-0.7C12.5,18.1,16.8,19,20.8,20.1z"/>
<linearGradient id="SVGID_4_" gradientUnits="userSpaceOnUse" x1="-3.9177" y1="759.2639" x2="34.4123" y2="745.3138" gradientTransform="matrix(1 0 0 1 0 -726)">
	<stop  offset="0" style="stop-color:#878787"/>
	<stop  offset="9.000000e-02" style="stop-color:#959595"/>
	<stop  offset="0.27" style="stop-color:#BABABA"/>
	<stop  offset="0.51" style="stop-color:#F6F6F6"/>
	<stop  offset="0.55" style="stop-color:#FFFFFF"/>
	<stop  offset="0.57" style="stop-color:#F5F5F5"/>
	<stop  offset="0.64" style="stop-color:#D9D9D9"/>
	<stop  offset="0.69" style="stop-color:#C8C8C8"/>
	<stop  offset="0.74" style="stop-color:#C2C2C2"/>
	<stop  offset="0.79" style="stop-color:#CFCFCF"/>
	<stop  offset="0.9" style="stop-color:#F2F2F2"/>
	<stop  offset="0.93" style="stop-color:#FFFFFF"/>
	<stop  offset="0.97" style="stop-color:#F3F3F3"/>
	<stop  offset="1" style="stop-color:#E0E0E0"/>
</linearGradient>
<path class="st6" d="M39.4,24.1c-1.2,0.3-2.3,0.3-3.5,0.2c-5.6-0.4-9.4-3-14.6-4.7c-4-1.3-8.7-1.4-13.2,3.2
	c-0.2,0.2-0.5,0.5-0.7,0.7l0.1,0.1c0.9,1.4,1.3,3.1,1.2,4.8c0,0,4.9-4.9,10.6-5.1c4.8-0.2,10.4,1.6,14.9,2.1
	c0.8,0.1,1.6,0.1,2.3,0.1C41.1,25.4,43,23,43,23S42.4,23.6,39.4,24.1z"/>
<rect x="43.2" y="24.5" class="st7" width="0.5" height="17.2"/>
<path class="st8" d="M50.6,27.3c0.1,1.1-0.7,2.1-1.8,2.1c-0.1,0-0.1,0-0.2,0c-1.1,0-2-0.8-2-1.9c0-0.1,0-0.1,0-0.2
	c-0.1-1.1,0.7-2.1,1.8-2.1c0.1,0,0.1,0,0.2,0c1.1-0.1,2,0.8,2,1.8C50.6,27.1,50.6,27.2,50.6,27.3z M47.2,27.4
	c-0.1,0.8,0.5,1.5,1.4,1.6l0,0c0.9,0,1.4-0.8,1.4-1.7c0.1-0.8-0.5-1.6-1.3-1.7c0,0,0,0-0.1,0C47.7,25.7,47.2,26.5,47.2,27.4
	L47.2,27.4z"/>
<path class="st8" d="M51.9,25.8h-1.3v-0.4h3.2v0.4h-1.3v3.6h-0.6C51.9,29.4,51.9,25.8,51.9,25.8z"/>
<path class="st8" d="M57.7,27.3c0.1,1.1-0.7,2.1-1.8,2.1c-0.1,0-0.1,0-0.2,0c-1.1,0-2-0.8-2-1.9c0-0.1,0-0.1,0-0.2
	c-0.1-1.1,0.7-2.1,1.8-2.1c0.1,0,0.1,0,0.2,0c1.1-0.1,2,0.8,2,1.8C57.7,27.1,57.7,27.2,57.7,27.3z M54.3,27.4
	c-0.1,0.8,0.5,1.5,1.4,1.6l0,0c0.9,0,1.4-0.8,1.4-1.7c0.1-0.8-0.5-1.6-1.3-1.7c0,0,0,0-0.1,0C54.8,25.7,54.3,26.5,54.3,27.4
	L54.3,27.4z"/>
<path class="st8" d="M58.3,25.4c0.4-0.1,0.7-0.1,1.1-0.1c0.4,0,0.9,0.1,1.3,0.3c0.2,0.2,0.3,0.5,0.3,0.8c0,0.5-0.4,0.9-0.8,1l0,0
	c0.3,0.1,0.6,0.4,0.6,0.8c0.1,0.4,0.2,0.8,0.3,1.1h-0.6c-0.1-0.3-0.2-0.7-0.3-1c-0.1-0.6-0.4-0.8-0.9-0.8h-0.5v1.9h-0.6v-4H58.3z
	 M58.9,27.2h0.6c0.6,0,1-0.3,1-0.8s-0.4-0.8-1-0.8c-0.2,0-0.4,0-0.6,0V27.2z"/>
<path class="st8" d="M62.2,25.3v4.1h-0.6v-4.1C61.6,25.3,62.2,25.3,62.2,25.3z"/>
<path class="st8" d="M63.9,25.8h-1.3v-0.4h3.2v0.4h-1.3v3.6h-0.6V25.8z"/>
<path class="st8" d="M66.4,28.1L66,29.4h-0.6l1.5-4.1h0.7l1.5,4.1h-0.6L68,28.1H66.4z M67.8,27.7l-0.4-1.2c-0.1-0.3-0.2-0.5-0.2-0.8
	l0,0c-0.1,0.2-0.1,0.5-0.2,0.7l-0.4,1.2L67.8,27.7z"/>
<path class="st8" d="M69.4,28.8c0.3,0.2,0.6,0.3,1,0.3c0.6,0,0.9-0.3,0.9-0.7s-0.2-0.6-0.8-0.8s-1.2-0.6-1.2-1.2s0.6-1.1,1.4-1.1
	c0.3,0,0.7,0.1,1,0.2l-0.2,0.4c-0.3-0.1-0.5-0.2-0.8-0.2c-0.6,0-0.8,0.3-0.8,0.6s0.3,0.6,0.9,0.8s1.1,0.6,1.1,1.2s-0.5,1.2-1.5,1.2
	c-0.4,0-0.8-0.1-1.1-0.3L69.4,28.8z"/>
<path class="st8" d="M47.8,31.1h0.6v2.7c0,1.1-0.6,1.4-1.3,1.4c-0.2,0-0.4,0-0.6-0.1l0.1-0.4c0.2,0.1,0.3,0.1,0.5,0.1
	c0.5,0,0.8-0.2,0.8-1L47.8,31.1z"/>
<path class="st8" d="M49.9,33.9l-0.5,1.3h-0.6l1.5-4.1H51l1.5,4.1h-0.6l-0.5-1.3H49.9z M51.3,33.5l-0.4-1.2
	c-0.1-0.3-0.2-0.5-0.2-0.8l0,0c-0.1,0.2-0.1,0.5-0.2,0.7L50,33.5H51.3z"/>
<path class="st8" d="M52.9,34.5c0.3,0.2,0.6,0.3,1,0.3c0.6,0,0.9-0.3,0.9-0.7s-0.2-0.6-0.8-0.8s-1.2-0.6-1.2-1.2
	c0-0.6,0.6-1.1,1.4-1.1c0.3,0,0.7,0.1,1,0.2L55,31.6c-0.3-0.1-0.5-0.2-0.8-0.2c-0.6,0-0.8,0.3-0.8,0.6s0.3,0.6,0.9,0.8
	c0.6,0.2,1.1,0.6,1.1,1.2c0,0.6-0.5,1.2-1.5,1.2c-0.4,0-0.8-0.1-1.1-0.3L52.9,34.5z"/>
<path class="st8" d="M56.8,33.9l-0.5,1.3h-0.6l1.5-4.1h0.7l1.5,4.1h-0.6l-0.5-1.3H56.8z M58.2,33.5l-0.4-1.2
	c-0.1-0.3-0.2-0.5-0.2-0.8l0,0c-0.1,0.2-0.1,0.5-0.2,0.7L57,33.4L58.2,33.5z"/>
<path class="st8" d="M46.9,36.8h0.6v2l0,0l0.3-0.4l1.3-1.5h0.7l-1.6,1.7l1.7,2.3h-0.7l-1.4-2l-0.4,0.5V41h-0.6L46.9,36.8z"/>
<path class="st8" d="M52.5,39h-1.7v1.5h1.9v0.4h-2.5v-4.1h2.4v0.4h-1.8v1.3h1.7L52.5,39z"/>
<path class="st8" d="M53.9,36.8v2.4c0,0.9,0.4,1.3,1,1.3s1.1-0.4,1.1-1.3v-2.4h0.6v2.4c0.2,0.8-0.4,1.6-1.3,1.8c-0.1,0-0.3,0-0.4,0
	c-0.9,0-1.6-0.5-1.6-1.8v-2.5h0.6V36.8z"/>
<path class="st8" d="M57.9,39.6l-0.5,1.3h-0.6l1.5-4.1H59l1.5,4.1h-0.6l-0.5-1.3H57.9z M59.3,39.2L58.9,38c-0.1-0.3-0.2-0.5-0.2-0.8
	l0,0c-0.1,0.2-0.1,0.5-0.2,0.7L58,39.2H59.3z"/>
<path class="st8" d="M61,40.9v-4.1h0.6l1.4,2.1c0.3,0.4,0.6,0.9,0.8,1.3l0,0c0-0.5-0.1-1-0.1-1.7v-1.7h0.5v4.1h-0.6l-1.4-2.1
	c-0.3-0.4-0.6-0.9-0.8-1.4l0,0c0,0.5,0,1,0,1.7v1.8L61,40.9z"/>
<path class="st8" d="M68.4,40.7c-0.4,0.1-0.9,0.2-1.3,0.2c-0.6,0-1.2-0.2-1.6-0.5c-0.4-0.4-0.6-0.9-0.6-1.5c0-1.2,1-2.1,2.1-2.1
	c0.1,0,0.2,0,0.2,0c0.4,0,0.7,0.1,1.1,0.2l-0.1,0.4c-0.3-0.1-0.7-0.2-1-0.2c-0.9-0.1-1.7,0.5-1.8,1.4c0,0.1,0,0.2,0,0.2
	c-0.1,0.9,0.6,1.6,1.4,1.7c0.1,0,0.2,0,0.3,0c0.3,0,0.5,0,0.8-0.1v-1.2H67v-0.4h1.4V40.7z"/>
<path class="st8" d="M69.9,39.6l-0.4,1.3h-0.6l1.5-4.1H71l1.5,4.1h-0.6l-0.5-1.3H69.9z M71.3,39.2L70.9,38c-0.1-0.3-0.2-0.5-0.2-0.8
	l0,0c-0.1,0.2-0.1,0.5-0.2,0.7L70,39.2H71.3z"/>
<path class="st8" d="M73,40.9v-4.1h0.6l1.4,2.1c0.3,0.4,0.6,0.9,0.8,1.3l0,0c-0.1-0.5-0.1-1-0.1-1.7v-1.7h0.5v4.1h-0.6l-1.4-2.1
	c-0.3-0.4-0.6-0.9-0.8-1.4l0,0c0,0.5,0,1,0,1.7v1.8L73,40.9z"/>
<g>
	<path class="st9" d="M6,7.8V11H5.4V7.8H4.2V7.2h2.9v0.6H6z"/>
	<path class="st9" d="M10.4,9.8H8.2c0,0.2,0.1,0.4,0.3,0.5c0.2,0.1,0.4,0.2,0.6,0.2c0.4,0,0.6-0.1,0.8-0.3l0.3,0.4
		C9.9,10.8,9.5,11,9,11c-0.4,0-0.7-0.1-1-0.4C7.7,10.3,7.6,10,7.6,9.5c0-0.5,0.1-0.8,0.4-1.1C8.3,8.2,8.6,8,9,8c0.4,0,0.7,0.1,1,0.4
		c0.3,0.2,0.4,0.6,0.4,1V9.8z M8.2,9.3h1.6c0-0.2-0.1-0.4-0.2-0.6C9.4,8.6,9.2,8.6,9,8.6c-0.2,0-0.4,0.1-0.6,0.2
		C8.3,8.9,8.2,9.1,8.2,9.3z"/>
	<path class="st9" d="M12.6,8.7c-0.3,0-0.5,0.1-0.7,0.3c-0.2,0.2-0.2,0.5-0.2,0.8V11h-0.6V8.1h0.6v0.6c0.1-0.2,0.2-0.3,0.4-0.4
		C12.2,8.1,12.4,8,12.6,8L12.6,8.7C12.6,8.7,12.6,8.7,12.6,8.7z"/>
	<path class="st9" d="M13.4,10.6C13.2,10.3,13,10,13,9.5c0-0.4,0.1-0.8,0.4-1.1c0.3-0.3,0.6-0.4,1-0.4c0.4,0,0.7,0.2,0.9,0.5V7H16v4
		h-0.6v-0.4c-0.2,0.3-0.5,0.5-1,0.5C14,11,13.7,10.9,13.4,10.6z M13.6,9.5c0,0.3,0.1,0.5,0.3,0.7c0.2,0.2,0.4,0.3,0.6,0.3
		c0.2,0,0.4-0.1,0.6-0.3c0.2-0.2,0.2-0.4,0.2-0.7S15.3,9,15.1,8.8c-0.2-0.2-0.4-0.3-0.6-0.3c-0.2,0-0.4,0.1-0.6,0.3
		C13.7,9,13.6,9.3,13.6,9.5z"/>
	<path class="st9" d="M19.2,11h-0.6v-0.4c-0.2,0.3-0.6,0.4-1,0.4c-0.3,0-0.5-0.1-0.7-0.3s-0.3-0.4-0.3-0.7c0-0.3,0.1-0.5,0.3-0.6
		c0.2-0.1,0.5-0.2,0.8-0.2h0.8V9.1c0-0.4-0.2-0.6-0.6-0.6c-0.3,0-0.5,0.1-0.8,0.3l-0.3-0.4C17.2,8.2,17.6,8,18,8
		c0.3,0,0.6,0.1,0.8,0.3c0.2,0.2,0.3,0.4,0.3,0.8V11z M18.6,9.9V9.6h-0.7c-0.4,0-0.7,0.1-0.7,0.4c0,0.1,0.1,0.2,0.2,0.3
		s0.3,0.1,0.5,0.1s0.4-0.1,0.5-0.2C18.5,10.2,18.6,10.1,18.6,9.9z"/>
	<path class="st9" d="M20.7,7.9v0.2h0.8v0.5h-0.8V11h-0.6V8.6h-0.4V8.1h0.4V7.9c0-0.3,0.1-0.5,0.3-0.7c0.2-0.2,0.4-0.3,0.7-0.3
		c0.3,0,0.5,0.1,0.7,0.3l-0.2,0.4c-0.1-0.1-0.2-0.2-0.4-0.2s-0.2,0-0.3,0.1C20.8,7.6,20.7,7.7,20.7,7.9z"/>
	<path class="st9" d="M22.8,8.6V10c0,0.1,0,0.2,0.1,0.3c0.1,0.1,0.2,0.1,0.3,0.1c0.1,0,0.3-0.1,0.4-0.2l0.2,0.4
		c-0.2,0.2-0.4,0.3-0.7,0.3s-0.5-0.1-0.7-0.3c-0.2-0.2-0.3-0.4-0.3-0.7V8.6h-0.4V8.1h0.4V7.2h0.6v0.9h0.8v0.5H22.8z"/>
	<path class="st9" d="M26.6,11h-0.6v-0.4c-0.2,0.3-0.6,0.4-1,0.4c-0.3,0-0.5-0.1-0.7-0.3s-0.3-0.4-0.3-0.7c0-0.3,0.1-0.5,0.3-0.6
		c0.2-0.1,0.5-0.2,0.8-0.2H26V9.1c0-0.4-0.2-0.6-0.6-0.6c-0.3,0-0.5,0.1-0.8,0.3l-0.3-0.4C24.7,8.2,25,8,25.5,8
		c0.3,0,0.6,0.1,0.8,0.3c0.2,0.2,0.3,0.4,0.3,0.8V11z M26,9.9V9.6h-0.7c-0.4,0-0.7,0.1-0.7,0.4c0,0.1,0.1,0.2,0.2,0.3
		c0.1,0.1,0.3,0.1,0.5,0.1s0.4-0.1,0.5-0.2C26,10.2,26,10.1,26,9.9z"/>
	<path class="st9" d="M29,8.7c-0.3,0-0.5,0.1-0.7,0.3c-0.2,0.2-0.2,0.5-0.2,0.8V11h-0.6V8.1h0.6v0.6c0.1-0.2,0.2-0.3,0.4-0.4
		C28.6,8.1,28.8,8,29,8L29,8.7C29,8.7,29,8.7,29,8.7z"/>
	<path class="st9" d="M31.3,10.6c-0.3-0.3-0.4-0.6-0.4-1.1c0-0.4,0.1-0.8,0.4-1.1c0.3-0.3,0.6-0.4,1-0.4c0.4,0,0.7,0.2,0.9,0.5V7
		h0.6v4h-0.6v-0.4c-0.2,0.3-0.5,0.5-1,0.5C31.9,11,31.6,10.9,31.3,10.6z M31.5,9.5c0,0.3,0.1,0.5,0.3,0.7c0.2,0.2,0.4,0.3,0.6,0.3
		c0.2,0,0.4-0.1,0.6-0.3c0.2-0.2,0.2-0.4,0.2-0.7S33.2,9,33,8.8c-0.2-0.2-0.4-0.3-0.6-0.3c-0.2,0-0.4,0.1-0.6,0.3
		C31.6,9,31.5,9.3,31.5,9.5z"/>
	<path class="st9" d="M37,11h-0.6v-0.4c-0.2,0.3-0.6,0.4-1,0.4c-0.3,0-0.5-0.1-0.7-0.3s-0.3-0.4-0.3-0.7c0-0.3,0.1-0.5,0.3-0.6
		c0.2-0.1,0.5-0.2,0.8-0.2h0.8V9.1c0-0.4-0.2-0.6-0.6-0.6c-0.3,0-0.5,0.1-0.8,0.3l-0.3-0.4C35.1,8.2,35.5,8,35.9,8
		c0.3,0,0.6,0.1,0.8,0.3C36.9,8.5,37,8.7,37,9.1V11z M36.4,9.9V9.6h-0.7c-0.4,0-0.7,0.1-0.7,0.4c0,0.1,0.1,0.2,0.2,0.3
		c0.1,0.1,0.3,0.1,0.5,0.1s0.4-0.1,0.5-0.2C36.4,10.2,36.4,10.1,36.4,9.9z"/>
	<path class="st9" d="M38.5,9.4V11h-0.6V8.1h0.6v0.5c0.1-0.2,0.2-0.3,0.4-0.4C39.1,8.1,39.2,8,39.4,8c0.3,0,0.6,0.1,0.8,0.3
		c0.2,0.2,0.3,0.5,0.3,0.9V11h-0.6V9.4c0-0.5-0.2-0.8-0.7-0.8c-0.2,0-0.4,0.1-0.5,0.2C38.6,8.9,38.5,9.1,38.5,9.4z"/>
	<path class="st9" d="M43.1,10.6c-0.3-0.3-0.4-0.6-0.4-1.1c0-0.4,0.1-0.8,0.4-1.1c0.3-0.3,0.6-0.4,1-0.4c0.4,0,0.7,0.2,0.9,0.5V7
		h0.6v4H45v-0.4c-0.2,0.3-0.5,0.5-1,0.5C43.7,11,43.3,10.9,43.1,10.6z M43.3,9.5c0,0.3,0.1,0.5,0.3,0.7c0.2,0.2,0.4,0.3,0.6,0.3
		c0.2,0,0.4-0.1,0.6-0.3C44.9,10,45,9.8,45,9.5S44.9,9,44.8,8.8c-0.2-0.2-0.4-0.3-0.6-0.3c-0.2,0-0.4,0.1-0.6,0.3
		C43.4,9,43.3,9.3,43.3,9.5z"/>
	<path class="st9" d="M46.5,7.5c-0.1-0.1-0.1-0.2-0.1-0.3c0-0.1,0-0.2,0.1-0.3c0.1-0.1,0.2-0.1,0.3-0.1c0.1,0,0.2,0,0.3,0.1
		c0.1,0.1,0.1,0.2,0.1,0.3c0,0.1,0,0.2-0.1,0.3c-0.1,0.1-0.2,0.1-0.3,0.1C46.7,7.6,46.6,7.6,46.5,7.5z M47.1,11h-0.6V8.1h0.6V11z"/>
	<path class="st9" d="M50.3,11h-0.5v-0.4c-0.2,0.3-0.6,0.4-1,0.4c-0.3,0-0.5-0.1-0.7-0.3s-0.3-0.4-0.3-0.7c0-0.3,0.1-0.5,0.3-0.6
		c0.2-0.1,0.5-0.2,0.8-0.2h0.8V9.1c0-0.4-0.2-0.6-0.6-0.6c-0.3,0-0.5,0.1-0.8,0.3l-0.3-0.4C48.3,8.2,48.7,8,49.1,8
		c0.3,0,0.6,0.1,0.8,0.3s0.3,0.4,0.3,0.8V11z M49.7,9.9V9.6H49c-0.4,0-0.7,0.1-0.7,0.4c0,0.1,0.1,0.2,0.2,0.3s0.3,0.1,0.4,0.1
		c0.2,0,0.4-0.1,0.5-0.2C49.6,10.2,49.7,10.1,49.7,9.9z"/>
	<path class="st9" d="M52.4,11h-0.7l-1-2.9h0.6l0.7,2.2l0.7-2.2h0.6l0.7,2.2l0.7-2.2h0.6l-1,2.9h-0.7l-0.7-2L52.4,11z"/>
	<path class="st9" d="M58.3,11h-0.5v-0.4c-0.2,0.3-0.6,0.4-1,0.4c-0.3,0-0.5-0.1-0.7-0.3s-0.3-0.4-0.3-0.7c0-0.3,0.1-0.5,0.3-0.6
		c0.2-0.1,0.5-0.2,0.8-0.2h0.8V9.1c0-0.4-0.2-0.6-0.6-0.6c-0.3,0-0.5,0.1-0.8,0.3L56,8.5C56.3,8.2,56.7,8,57.1,8
		c0.3,0,0.6,0.1,0.8,0.3c0.2,0.2,0.3,0.4,0.3,0.8V11z M57.7,9.9V9.6H57c-0.4,0-0.7,0.1-0.7,0.4c0,0.1,0.1,0.2,0.2,0.3
		c0.1,0.1,0.3,0.1,0.4,0.1c0.2,0,0.4-0.1,0.5-0.2C57.6,10.2,57.7,10.1,57.7,9.9z"/>
	<path class="st9" d="M61.2,10.1c0,0.3-0.1,0.5-0.3,0.7c-0.2,0.2-0.5,0.2-0.8,0.2c-0.2,0-0.4,0-0.6-0.1c-0.2-0.1-0.4-0.2-0.6-0.3
		l0.3-0.5c0.3,0.3,0.7,0.4,1,0.4c0.1,0,0.2,0,0.3-0.1c0.1-0.1,0.1-0.1,0.1-0.2c0-0.1-0.2-0.3-0.6-0.4c0,0-0.1,0-0.1,0
		C59.3,9.6,59,9.3,59,8.9c0-0.3,0.1-0.5,0.3-0.6C59.6,8.1,59.8,8,60.2,8c0.3,0,0.6,0.1,0.9,0.3l-0.2,0.4c-0.2-0.2-0.5-0.2-0.8-0.2
		c-0.1,0-0.3,0-0.4,0.1c-0.1,0.1-0.1,0.1-0.1,0.2c0,0.1,0,0.2,0.1,0.2c0.1,0,0.2,0.1,0.3,0.1c0.1,0,0.2,0.1,0.3,0.1
		c0.1,0,0.2,0.1,0.3,0.1c0.1,0,0.2,0.1,0.3,0.2C61.1,9.6,61.2,9.8,61.2,10.1z"/>
	<path class="st9" d="M61.9,7.5c-0.1-0.1-0.1-0.2-0.1-0.3c0-0.1,0-0.2,0.1-0.3c0.1-0.1,0.2-0.1,0.3-0.1s0.2,0,0.3,0.1
		c0.1,0.1,0.1,0.2,0.1,0.3c0,0.1,0,0.2-0.1,0.3c-0.1,0.1-0.2,0.1-0.3,0.1S62,7.6,61.9,7.5z M62.5,11h-0.6V8.1h0.6V11z"/>
	<path class="st9" d="M67.2,10.6c-0.3,0.3-0.6,0.4-1.1,0.4c-0.4,0-0.8-0.1-1.1-0.4c-0.3-0.3-0.4-0.6-0.4-1s0.1-0.8,0.4-1
		C65.3,8.2,65.7,8,66.1,8c0.4,0,0.8,0.1,1.1,0.4c0.3,0.3,0.4,0.6,0.4,1S67.5,10.3,67.2,10.6z M65.5,10.2c0.2,0.2,0.4,0.3,0.6,0.3
		c0.3,0,0.5-0.1,0.6-0.3S67,9.8,67,9.5C67,9.2,67,9,66.8,8.8c-0.2-0.2-0.4-0.3-0.6-0.3c-0.3,0-0.5,0.1-0.6,0.3
		c-0.2,0.2-0.3,0.4-0.3,0.7C65.2,9.8,65.3,10,65.5,10.2z"/>
	<path class="st9" d="M68.9,11h-0.6V7h0.6V11z"/>
	<path class="st9" d="M72.5,9.8h-2.2c0,0.2,0.1,0.4,0.3,0.5c0.2,0.1,0.4,0.2,0.6,0.2c0.4,0,0.6-0.1,0.8-0.3l0.3,0.4
		C72,10.8,71.6,11,71.1,11c-0.4,0-0.7-0.1-1-0.4c-0.3-0.3-0.4-0.6-0.4-1.1c0-0.5,0.1-0.8,0.4-1.1c0.3-0.3,0.6-0.4,1-0.4
		c0.4,0,0.7,0.1,1,0.4c0.3,0.2,0.4,0.6,0.4,1V9.8z M70.2,9.3h1.6c0-0.2-0.1-0.4-0.2-0.6c-0.2-0.1-0.3-0.2-0.6-0.2s-0.4,0.1-0.6,0.2
		C70.3,8.9,70.2,9.1,70.2,9.3z"/>
	<path class="st9" d="M73.7,9.4V11h-0.6V7h0.6v1.6c0.1-0.2,0.2-0.3,0.4-0.4C74.3,8.1,74.5,8,74.7,8c0.3,0,0.6,0.1,0.8,0.3
		c0.2,0.2,0.3,0.5,0.3,0.9V11h-0.6V9.4c0-0.5-0.2-0.8-0.7-0.8c-0.2,0-0.4,0.1-0.5,0.2C73.8,8.9,73.7,9.1,73.7,9.4z"/>
</g>
</svg>
