<svg width="130" height="140" viewBox="0 0 130 140" fill="none" xmlns="http://www.w3.org/2000/svg">
<g clip-path="url(#clip0_648_103286)">
<path d="M89.05 139.341H34.83C15.67 139.341 0 123.671 0 104.511V50.2909C0 31.1409 15.67 15.4609 34.83 15.4609H89.05C108.2 15.4609 123.88 31.1309 123.88 50.2909V104.511C123.88 123.671 108.2 139.341 89.05 139.341Z" fill="#C0F9FC"/>
<path d="M90.7299 132.53H33.7999C20.1199 132.53 8.92993 121.34 8.92993 107.66V99.4796C8.92993 85.7996 20.1199 74.5996 33.7999 74.5996H90.7299C104.41 74.5996 115.6 85.7896 115.6 99.4696V107.65C115.6 121.34 104.41 132.53 90.7299 132.53Z" fill="#8CE6F4"/>
<path d="M6.37012 124.51C12.6901 133.46 23.1001 139.33 34.8201 139.33H68.2001L80.2701 128.62L15.5701 102.77L6.37012 124.51Z" fill="#FFBC9D"/>
<path d="M30.3701 39.1797C30.3701 39.2297 30.3801 39.2797 30.3801 39.3397L31.0801 114.26C31.0401 118.38 27.9001 121.8 24.0901 121.88L22.1401 121.92C18.4801 121.99 15.4901 118.95 15.2901 115.06L15.3201 111.97L14.5901 40.1397C14.6301 36.0197 17.7701 32.5997 21.5801 32.5197L23.5301 32.4797C27.1401 32.4097 30.1001 35.3697 30.3701 39.1797Z" fill="#FFBC9D"/>
<path d="M110.86 13.0606L99.9802 29.0206L89.3002 44.6806C88.6502 45.4706 87.9002 45.7406 87.0802 45.6606C84.5202 45.4206 81.3502 41.7206 78.8702 39.6706L78.6202 39.4606C75.3602 36.7606 74.9002 31.8906 77.6002 28.6306L93.9202 8.91062L98.7602 3.06062C101.46 -0.199381 106.33 -0.659381 109.59 2.04062L109.84 2.25062C113.1 4.93062 113.56 9.80062 110.86 13.0606Z" fill="#FFBC9D"/>
<path d="M90.7102 128.59H38.4102C34.0102 128.59 30.4102 124.99 30.4102 120.59V8C30.4102 3.6 34.0102 0 38.4102 0H90.7102C95.1102 0 98.7102 3.6 98.7102 8V120.58C98.7102 124.98 95.1102 128.59 90.7102 128.59Z" fill="#11748E"/>
<path d="M95.33 9.84945V117.879C95.33 121.539 92.35 124.539 88.72 124.539H40.4C36.76 124.539 33.79 121.539 33.79 117.879V9.84945C33.79 6.18945 36.77 3.18945 40.4 3.18945H88.71C92.35 3.18945 95.33 6.18945 95.33 9.84945Z" fill="#2FAAE1"/>
<path opacity="0.15" d="M88.71 3.18945L41 124.539H40.4C36.76 124.539 33.79 121.539 33.79 117.879V9.84945C33.79 6.18945 36.77 3.18945 40.4 3.18945H88.71Z" fill="white"/>
<path d="M74.4202 7.20023H54.7002C52.9302 7.20023 51.4702 5.75023 51.4702 3.97023C51.4702 2.19023 52.9202 0.740234 54.7002 0.740234H74.4202C76.1902 0.740234 77.6502 2.19023 77.6502 3.97023C77.6502 5.75023 76.1902 7.20023 74.4202 7.20023Z" fill="#11748E"/>
<path d="M107.17 44.7203C107.12 44.7403 107.07 44.7503 107.02 44.7703L97.95 47.1003C93.96 48.1203 89.84 45.9703 88.79 42.3103L88.25 40.4303C87.24 36.9203 89.41 33.2403 93.12 32.0503L96.11 31.2803L102.18 29.7203C106.17 28.7003 110.29 30.8503 111.34 34.5103L111.88 36.3903C112.88 39.8503 110.78 43.4803 107.17 44.7203Z" fill="#FFBC9D"/>
<path d="M107.17 60.8199C107.12 60.8399 107.07 60.8499 107.02 60.8699L97.95 63.1999C93.96 64.2199 89.84 62.0699 88.79 58.4099L88.25 56.5299C87.24 53.0199 89.41 49.3399 93.12 48.1499L96.11 47.3799L102.18 45.8199C106.17 44.7999 110.29 46.9499 111.34 50.6099L111.88 52.4899C112.88 55.9599 110.78 59.5799 107.17 60.8199Z" fill="#FFBC9D"/>
<path d="M107.17 77.0602C107.12 77.0802 107.07 77.0902 107.02 77.1102L97.95 79.4402C93.96 80.4602 89.84 78.3102 88.79 74.6502L88.25 72.7702C87.24 69.2602 89.41 65.5802 93.12 64.3902L96.11 63.6202L102.18 62.0602C106.17 61.0402 110.29 63.1902 111.34 66.8502L111.88 68.7302C112.88 72.2002 110.78 75.8202 107.17 77.0602Z" fill="#FFBC9D"/>
<path d="M107.17 93.2809C107.12 93.3009 107.07 93.3109 107.02 93.3309L97.95 95.6609C93.96 96.6809 89.84 94.5309 88.79 90.8709L88.25 88.9909C87.24 85.4809 89.41 81.8009 93.12 80.6109L96.11 79.8409L102.18 78.2809C106.17 77.2609 110.29 79.4109 111.34 83.0709L111.88 84.9409C112.88 88.4209 110.78 92.0409 107.17 93.2809Z" fill="#FFBC9D"/>
<path d="M44.8499 23.1602H43.95V24.0802H44.8499V23.1602Z" fill="white"/>
<path d="M48.3399 24.3398H47.4399V25.2598H48.3399V24.3398Z" fill="white"/>
<path d="M51.9601 25.7793H51.0601V26.6993H51.9601V25.7793Z" fill="white"/>
<path d="M55.5799 27.0898H54.6799V27.9998H55.5799V27.0898Z" fill="white"/>
<path d="M59.2001 28.5293H58.3V29.4493H59.2001V28.5293Z" fill="white"/>
<path d="M62.69 29.6992H61.79V30.6192H62.69V29.6992Z" fill="white"/>
<path d="M66.0499 31.0098H65.1499V31.9298H66.0499V31.0098Z" fill="white"/>
<path d="M69.2799 32.0605H68.3799V32.9805H69.2799V32.0605Z" fill="white"/>
<path d="M72.2499 33.1094H71.3499V34.0294H72.2499V33.1094Z" fill="white"/>
<path d="M48.5999 26.5605H47.7V27.4805H48.5999V26.5605Z" fill="white"/>
<path d="M51.7001 27.6094H50.8V28.5294H51.7001V27.6094Z" fill="white"/>
<path d="M54.93 28.6602H54.03V29.5802H54.93V28.6602Z" fill="white"/>
<path d="M58.16 29.8301H57.26V30.7501H58.16V29.8301Z" fill="white"/>
<path d="M61.39 31.0098H60.49V31.9298H61.39V31.0098Z" fill="white"/>
<path d="M64.63 32.0605H63.73V32.9805H64.63V32.0605Z" fill="white"/>
<path d="M67.7298 33.1094H66.8298V34.0294H67.7298V33.1094Z" fill="white"/>
<path d="M70.5699 34.1504H69.6699V35.0704H70.5699V34.1504Z" fill="white"/>
<path d="M73.41 34.9395H72.51V35.8595H73.41V34.9395Z" fill="white"/>
<path d="M52.0899 29.6992H51.1899V30.6192H52.0899V29.6992Z" fill="white"/>
<path d="M54.7999 30.6211H53.8999V31.5411H54.7999V30.6211Z" fill="white"/>
<path d="M57.65 31.541H56.75V32.461H57.65V31.541Z" fill="white"/>
<path d="M60.62 32.4492H59.72V33.3692H60.62V32.4492Z" fill="white"/>
<path d="M63.4601 33.3711H62.5601V34.2911H63.4601V33.3711Z" fill="white"/>
<path d="M66.43 34.4102H65.53V35.3302H66.43V34.4102Z" fill="white"/>
<path d="M69.15 35.1992H68.25V36.1192H69.15V35.1992Z" fill="white"/>
<path d="M71.86 36.1211H70.96V37.0411H71.86V36.1211Z" fill="white"/>
<path d="M74.45 36.9004H73.55V37.8204H74.45V36.9004Z" fill="white"/>
<path d="M55.0599 32.7109H54.1599V33.6309H55.0599V32.7109Z" fill="white"/>
<path d="M57.5199 33.3711H56.6199V34.2911H57.5199V33.3711Z" fill="white"/>
<path d="M60.0999 34.1504H59.2V35.0704H60.0999V34.1504Z" fill="white"/>
<path d="M62.8199 34.9395H61.9199V35.8595H62.8199V34.9395Z" fill="white"/>
<path d="M65.4 35.7207H64.5V36.6407H65.4V35.7207Z" fill="white"/>
<path d="M67.9898 36.5098H67.0898V37.4298H67.9898V36.5098Z" fill="white"/>
<path d="M70.5699 37.291H69.6699V38.211H70.5699V37.291Z" fill="white"/>
<path d="M73.16 37.9492H72.26V38.8692H73.16V37.9492Z" fill="white"/>
<path d="M75.4798 38.5996H74.5798V39.5196H75.4798V38.5996Z" fill="white"/>
<path d="M57.7799 35.4609H56.8799V36.3809H57.7799V35.4609Z" fill="white"/>
<path d="M59.9701 35.9805H59.0701V36.9005H59.9701V35.9805Z" fill="white"/>
<path d="M62.2999 36.6406H61.3999V37.5606H62.2999V36.6406Z" fill="white"/>
<path d="M64.7499 37.291H63.8499V38.211H64.7499V37.291Z" fill="white"/>
<path d="M67.0799 37.9492H66.1799V38.8692H67.0799V37.9492Z" fill="white"/>
<path d="M69.5399 38.5996H68.6399V39.5196H69.5399V38.5996Z" fill="white"/>
<path d="M71.86 39.2598H70.96V40.1798H71.86V39.2598Z" fill="white"/>
<path d="M74.19 39.7793H73.29V40.6993H74.19V39.7793Z" fill="white"/>
<path d="M76.39 40.4297H75.49V41.3497H76.39V40.4297Z" fill="white"/>
<path d="M60.0999 38.0801H59.2V39.0001H60.0999V38.0801Z" fill="white"/>
<path d="M62.17 38.4707H61.27V39.3907H62.17V38.4707Z" fill="white"/>
<path d="M64.2398 39H63.3398V39.92H64.2398V39Z" fill="white"/>
<path d="M66.43 39.5195H65.53V40.4395H66.43V39.5195Z" fill="white"/>
<path d="M68.63 40.041H67.73V40.961H68.63V40.041Z" fill="white"/>
<path d="M70.8299 40.5605H69.9299V41.4805H70.8299V40.5605Z" fill="white"/>
<path d="M73.0299 41.0898H72.1299V42.0098H73.0299V41.0898Z" fill="white"/>
<path d="M75.0899 41.6094H74.1899V42.5294H75.0899V41.6094Z" fill="white"/>
<path d="M77.16 42.1406H76.26V43.0606H77.16V42.1406Z" fill="white"/>
<path d="M62.0399 40.4297H61.1399V41.3497H62.0399V40.4297Z" fill="white"/>
<path d="M63.9798 40.8301H63.0798V41.7501H63.9798V40.8301Z" fill="white"/>
<path d="M65.92 41.2207H65.02V42.1407H65.92V41.2207Z" fill="white"/>
<path d="M67.9898 41.6094H67.0898V42.5294H67.9898V41.6094Z" fill="white"/>
<path d="M70.0499 42.1406H69.1499V43.0606H70.0499V42.1406Z" fill="white"/>
<path d="M71.9898 42.5293H71.0898V43.4493H71.9898V42.5293Z" fill="white"/>
<path d="M74.0599 42.9199H73.1599V43.8399H74.0599V42.9199Z" fill="white"/>
<path d="M75.9999 43.3105H75.0999V44.2305H75.9999V43.3105Z" fill="white"/>
<path d="M77.94 43.7109H77.04V44.6309H77.94V43.7109Z" fill="white"/>
<path d="M63.7201 42.6602H62.8201V43.5802H63.7201V42.6602Z" fill="white"/>
<path d="M65.5299 42.9199H64.6299V43.8399H65.5299V42.9199Z" fill="white"/>
<path d="M67.4701 43.3105H66.5701V44.2305H67.4701V43.3105Z" fill="white"/>
<path d="M69.2799 43.5703H68.3799V44.4903H69.2799V43.5703Z" fill="white"/>
<path d="M71.2201 43.9707H70.3201V44.8907H71.2201V43.9707Z" fill="white"/>
<path d="M73.0299 44.3594H72.1299V45.2794H73.0299V44.3594Z" fill="white"/>
<path d="M74.9601 44.6211H74.0601V45.5411H74.9601V44.6211Z" fill="white"/>
<path d="M76.7699 45.0098H75.8699V45.9298H76.7699V45.0098Z" fill="white"/>
<path d="M78.5799 45.2793H77.6799V46.1993H78.5799V45.2793Z" fill="white"/>
<path d="M65.2699 44.75H64.3699V45.67H65.2699V44.75Z" fill="white"/>
<path d="M66.95 44.8809H66.05V45.8009H66.95V44.8809Z" fill="white"/>
<path d="M68.63 45.2793H67.73V46.1993H68.63V45.2793Z" fill="white"/>
<path d="M70.44 45.541H69.54V46.461H70.44V45.541Z" fill="white"/>
<path d="M72.12 45.8008H71.22V46.7208H72.12V45.8008Z" fill="white"/>
<path d="M73.93 46.0605H73.03V46.9805H73.93V46.0605Z" fill="white"/>
<path d="M75.7398 46.3203H74.8398V47.2403H75.7398V46.3203Z" fill="white"/>
<path d="M77.42 46.5801H76.52V47.5001H77.42V46.5801Z" fill="white"/>
<path d="M79.1 46.8496H78.2V47.7696H79.1V46.8496Z" fill="white"/>
<path d="M66.43 46.5801H65.53V47.5001H66.43V46.5801Z" fill="white"/>
<path d="M68.11 46.8496H67.21V47.7696H68.11V46.8496Z" fill="white"/>
<path d="M69.67 46.9805H68.77V47.9005H69.67V46.9805Z" fill="white"/>
<path d="M71.35 47.2402H70.45V48.1602H71.35V47.2402Z" fill="white"/>
<path d="M73.0299 47.5H72.1299V48.42H73.0299V47.5Z" fill="white"/>
<path d="M74.7101 47.7598H73.8101V48.6798H74.7101V47.7598Z" fill="white"/>
<path d="M76.39 47.8906H75.49V48.8106H76.39V47.8906Z" fill="white"/>
<path d="M77.94 48.1504H77.04V49.0704H77.94V48.1504Z" fill="white"/>
<path d="M79.4898 48.291H78.5898V49.211H79.4898V48.291Z" fill="white"/>
<path d="M67.4701 48.4199H66.5701V49.3399H67.4701V48.4199Z" fill="white"/>
<path d="M69.0199 48.5508H68.1199V49.4708H69.0199V48.5508Z" fill="white"/>
<path d="M70.5699 48.8105H69.6699V49.7305H70.5699V48.8105Z" fill="white"/>
<path d="M72.12 48.9395H71.22V49.8595H72.12V48.9395Z" fill="white"/>
<path d="M73.67 49.0703H72.77V49.9903H73.67V49.0703Z" fill="white"/>
<path d="M75.35 49.3301H74.45V50.2501H75.35V49.3301Z" fill="white"/>
<path d="M76.9 49.4609H76V50.3809H76.9V49.4609Z" fill="white"/>
<path d="M78.45 49.5898H77.55V50.5098H78.45V49.5898Z" fill="white"/>
<path d="M79.88 49.7305H78.98V50.6505H79.88V49.7305Z" fill="white"/>
<path d="M68.37 50.1211H67.47V51.0411H68.37V50.1211Z" fill="white"/>
<path d="M69.7899 50.25H68.8899V51.17H69.7899V50.25Z" fill="white"/>
<path d="M71.2201 50.3809H70.3201V51.3009H71.2201V50.3809Z" fill="white"/>
<path d="M72.7699 50.5098H71.8699V51.4298H72.7699V50.5098Z" fill="white"/>
<path d="M74.3199 50.6406H73.4199V51.5606H74.3199V50.6406Z" fill="white"/>
<path d="M75.7398 50.7695H74.8398V51.6895H75.7398V50.7695Z" fill="white"/>
<path d="M77.2899 50.9004H76.3899V51.8204H77.2899V50.9004Z" fill="white"/>
<path d="M78.7101 51.0293H77.8101V51.9493H78.7101V51.0293Z" fill="white"/>
<path d="M80.2599 51.1602H79.3599V52.0802H80.2599V51.1602Z" fill="white"/>
<path d="M69.0199 51.8203H68.1199V52.7403H69.0199V51.8203Z" fill="white"/>
<path d="M70.44 51.8203H69.54V52.7403H70.44V51.8203Z" fill="white"/>
<path d="M71.86 51.9492H70.96V52.8692H71.86V51.9492Z" fill="white"/>
<path d="M73.2799 52.0801H72.3799V53.0001H73.2799V52.0801Z" fill="white"/>
<path d="M74.7101 52.0801H73.8101V53.0001H74.7101V52.0801Z" fill="white"/>
<path d="M76.13 52.2109H75.23V53.1309H76.13V52.2109Z" fill="white"/>
<path d="M77.68 52.3398H76.78V53.2598H77.68V52.3398Z" fill="white"/>
<path d="M79.1 52.4707H78.2V53.3907H79.1V52.4707Z" fill="white"/>
<path d="M80.39 52.4707H79.49V53.3907H80.39V52.4707Z" fill="white"/>
<path d="M69.5399 53.2598H68.6399V54.1798H69.5399V53.2598Z" fill="white"/>
<path d="M70.8299 53.3906H69.9299V54.3106H70.8299V53.3906Z" fill="white"/>
<path d="M72.2499 53.3906H71.3499V54.3106H72.2499V53.3906Z" fill="white"/>
<path d="M73.67 53.5195H72.77V54.4395H73.67V53.5195Z" fill="white"/>
<path d="M75.0899 53.5195H74.1899V54.4395H75.0899V53.5195Z" fill="white"/>
<path d="M76.5199 53.6504H75.6199V54.5704H76.5199V53.6504Z" fill="white"/>
<path d="M77.94 53.6504H77.04V54.5704H77.94V53.6504Z" fill="white"/>
<path d="M79.2298 53.7793H78.3298V54.6993H79.2298V53.7793Z" fill="white"/>
<path d="M80.65 53.7793H79.75V54.6993H80.65V53.7793Z" fill="white"/>
<path d="M69.92 54.6992H69.02V55.6192H69.92V54.6992Z" fill="white"/>
<path d="M71.2201 54.8301H70.3201V55.7501H71.2201V54.8301Z" fill="white"/>
<path d="M72.64 54.8301H71.74V55.7501H72.64V54.8301Z" fill="white"/>
<path d="M73.93 54.8301H73.03V55.7501H73.93V54.8301Z" fill="white"/>
<path d="M75.35 54.9609H74.45V55.8809H75.35V54.9609Z" fill="white"/>
<path d="M76.7699 54.9609H75.8699V55.8809H76.7699V54.9609Z" fill="white"/>
<path d="M78.0699 55.0898H77.1699V56.0098H78.0699V55.0898Z" fill="white"/>
<path d="M79.36 55.0898H78.46V56.0098H79.36V55.0898Z" fill="white"/>
<path d="M80.7799 55.0898H79.8799V56.0098H80.7799V55.0898Z" fill="white"/>
<path d="M70.18 56.1406H69.28V57.0606H70.18V56.1406Z" fill="white"/>
<path d="M71.4701 56.1406H70.5701V57.0606H71.4701V56.1406Z" fill="white"/>
<path d="M72.9 56.2695H72V57.1895H72.9V56.2695Z" fill="white"/>
<path d="M74.19 56.2695H73.29V57.1895H74.19V56.2695Z" fill="white"/>
<path d="M75.61 56.2695H74.71V57.1895H75.61V56.2695Z" fill="white"/>
<path d="M76.9 56.2695H76V57.1895H76.9V56.2695Z" fill="white"/>
<path d="M78.2 56.4004H77.3V57.3204H78.2V56.4004Z" fill="white"/>
<path d="M79.4898 56.4004H78.5898V57.3204H79.4898V56.4004Z" fill="white"/>
<path d="M80.91 56.4004H80V57.3204H80.9V56.4004H80.91Z" fill="white"/>
<path d="M70.44 57.4395H69.54V58.3595H70.44V57.4395Z" fill="white"/>
<path d="M71.7298 57.4395H70.8298V58.3595H71.7298V57.4395Z" fill="white"/>
<path d="M73.0299 57.5801H72.1299V58.5001H73.0299V57.5801Z" fill="white"/>
<path d="M74.3199 57.5801H73.4199V58.5001H74.3199V57.5801Z" fill="white"/>
<path d="M75.7398 57.5801H74.8398V58.5001H75.7398V57.5801Z" fill="white"/>
<path d="M77.0299 57.5801H76.1299V58.5001H77.0299V57.5801Z" fill="white"/>
<path d="M78.3199 57.5801H77.4199V58.5001H78.3199V57.5801Z" fill="white"/>
<path d="M79.62 57.7109H78.72V58.6309H79.62V57.7109Z" fill="white"/>
<path d="M80.91 57.7109H80V58.6309H80.9V57.7109H80.91Z" fill="white"/>
<path d="M70.5699 58.75H69.6699V59.67H70.5699V58.75Z" fill="white"/>
<path d="M71.86 58.75H70.96V59.67H71.86V58.75Z" fill="white"/>
<path d="M73.16 58.8906H72.26V59.8106H73.16V58.8906Z" fill="white"/>
<path d="M74.45 58.8906H73.55V59.8106H74.45V58.8906Z" fill="white"/>
<path d="M75.7398 58.8906H74.8398V59.8106H75.7398V58.8906Z" fill="white"/>
<path d="M77.0299 58.8906H76.1299V59.8106H77.0299V58.8906Z" fill="white"/>
<path d="M78.3199 58.8906H77.4199V59.8106H78.3199V58.8906Z" fill="white"/>
<path d="M79.62 58.8906H78.72V59.8106H79.62V58.8906Z" fill="white"/>
<path d="M80.91 58.8906H80V59.8106H80.9V58.8906H80.91Z" fill="white"/>
<path d="M70.7 60.0605H69.8V60.9805H70.7V60.0605Z" fill="white"/>
<path d="M71.9898 60.0605H71.0898V60.9805H71.9898V60.0605Z" fill="white"/>
<path d="M73.2799 60.0605H72.3799V60.9805H73.2799V60.0605Z" fill="white"/>
<path d="M74.5799 60.0605H73.6799V60.9805H74.5799V60.0605Z" fill="white"/>
<path d="M75.87 60.0605H74.97V60.9805H75.87V60.0605Z" fill="white"/>
<path d="M77.16 60.0605H76.26V60.9805H77.16V60.0605Z" fill="white"/>
<path d="M78.45 60.0605H77.55V60.9805H78.45V60.0605Z" fill="white"/>
<path d="M79.7499 60.1895H78.8499V61.1095H79.7499V60.1895Z" fill="white"/>
<path d="M81.0399 60.1895H80.1399V61.1095H81.0399V60.1895Z" fill="white"/>
<path d="M70.7 61.3711H69.8V62.2911H70.7V61.3711Z" fill="white"/>
<path d="M71.9898 61.3711H71.0898V62.2911H71.9898V61.3711Z" fill="white"/>
<path d="M73.2799 61.3711H72.3799V62.2911H73.2799V61.3711Z" fill="white"/>
<path d="M74.5799 61.3711H73.6799V62.2911H74.5799V61.3711Z" fill="white"/>
<path d="M75.87 61.3711H74.97V62.2911H75.87V61.3711Z" fill="white"/>
<path d="M77.16 61.3711H76.26V62.2911H77.16V61.3711Z" fill="white"/>
<path d="M78.45 61.3711H77.55V62.2911H78.45V61.3711Z" fill="white"/>
<path d="M79.7499 61.3711H78.8499V62.2911H79.7499V61.3711Z" fill="white"/>
<path d="M81.0399 61.3711H80.1399V62.2911H81.0399V61.3711Z" fill="white"/>
<path d="M70.8299 62.5508H69.9299V63.4708H70.8299V62.5508Z" fill="white"/>
<path d="M72.12 62.5508H71.22V63.4708H72.12V62.5508Z" fill="white"/>
<path d="M73.2799 62.5508H72.3799V63.4708H73.2799V62.5508Z" fill="white"/>
<path d="M74.5799 62.5508H73.6799V63.4708H74.5799V62.5508Z" fill="white"/>
<path d="M75.87 62.5508H74.97V63.4708H75.87V62.5508Z" fill="white"/>
<path d="M77.16 62.5508H76.26V63.4708H77.16V62.5508Z" fill="white"/>
<path d="M78.45 62.5508H77.55V63.4708H78.45V62.5508Z" fill="white"/>
<path d="M79.7499 62.5508H78.8499V63.4708H79.7499V62.5508Z" fill="white"/>
<path d="M81.0399 62.5508H80.1399V63.4708H81.0399V62.5508Z" fill="white"/>
<path d="M70.8299 63.8594H69.9299V64.7794H70.8299V63.8594Z" fill="white"/>
<path d="M72.12 63.8594H71.22V64.7794H72.12V63.8594Z" fill="white"/>
<path d="M73.41 63.8594H72.51V64.7794H73.41V63.8594Z" fill="white"/>
<path d="M74.5799 63.8594H73.6799V64.7794H74.5799V63.8594Z" fill="white"/>
<path d="M75.87 63.8594H74.97V64.7794H75.87V63.8594Z" fill="white"/>
<path d="M77.16 63.8594H76.26V64.7794H77.16V63.8594Z" fill="white"/>
<path d="M78.45 63.8594H77.55V64.7794H78.45V63.8594Z" fill="white"/>
<path d="M79.7499 63.8594H78.8499V64.7794H79.7499V63.8594Z" fill="white"/>
<path d="M81.0399 63.8594H80.1399V64.7794H81.0399V63.8594Z" fill="white"/>
<path d="M70.8299 65.041H69.9299V65.961H70.8299V65.041Z" fill="white"/>
<path d="M72.12 65.041H71.22V65.961H72.12V65.041Z" fill="white"/>
<path d="M73.41 65.041H72.51V65.961H73.41V65.041Z" fill="white"/>
<path d="M74.5799 65.041H73.6799V65.961H74.5799V65.041Z" fill="white"/>
<path d="M75.87 65.041H74.97V65.961H75.87V65.041Z" fill="white"/>
<path d="M77.16 65.041H76.26V65.961H77.16V65.041Z" fill="white"/>
<path d="M78.45 65.041H77.55V65.961H78.45V65.041Z" fill="white"/>
<path d="M79.7499 65.041H78.8499V65.961H79.7499V65.041Z" fill="white"/>
<path d="M81.0399 65.041H80.1399V65.961H81.0399V65.041Z" fill="white"/>
<path d="M56.8699 67L56.3499 67.26H56.8699V67Z" fill="white"/>
<path d="M58.1599 67.2594V66.6094L57.1299 66.9994V67.2594H58.1599Z" fill="white"/>
<path d="M59.3299 67.2598C59.3299 66.8698 59.1999 66.3398 59.1999 66.3398C58.9399 66.3398 58.6799 66.4698 58.4199 66.4698V67.1199H59.3199V67.2598H59.3299Z" fill="white"/>
<path d="M70.8299 66.2109H69.9299V67.1309H70.8299V66.2109Z" fill="white"/>
<path d="M72.12 66.2109H71.22V67.1309H72.12V66.2109Z" fill="white"/>
<path d="M73.41 66.2109H72.51V67.1309H73.41V66.2109Z" fill="white"/>
<path d="M74.5799 66.2109H73.6799V67.1309H74.5799V66.2109Z" fill="white"/>
<path d="M75.87 66.2109H74.97V67.1309H75.87V66.2109Z" fill="white"/>
<path d="M77.16 66.2109H76.26V67.1309H77.16V66.2109Z" fill="white"/>
<path d="M78.45 66.2109H77.55V67.1309H78.45V66.2109Z" fill="white"/>
<path d="M79.7499 66.2109H78.8499V67.1309H79.7499V66.2109Z" fill="white"/>
<path d="M81.0399 66.2109H80.1399V67.1309H81.0399V66.2109Z" fill="white"/>
<path d="M52.99 68.3105L52.73 68.4406H52.99V68.3105Z" fill="white"/>
<path d="M54.2899 68.4399V67.9199L53.3899 68.1799V68.4399H54.2899Z" fill="white"/>
<path d="M55.5799 68.4395V67.5195L54.6799 67.7795V68.4295H55.5799V68.4395Z" fill="white"/>
<path d="M56.87 67.5195H55.97V68.4395H56.87V67.5195Z" fill="white"/>
<path d="M58.0299 67.5195H57.1299V68.4395H58.0299V67.5195Z" fill="white"/>
<path d="M59.3299 67.5195H58.4299V68.4395H59.3299V67.5195Z" fill="white"/>
<path d="M59.84 68.4397C59.84 68.3097 59.84 68.3097 59.71 68.1797L59.84 68.4397Z" fill="white"/>
<path d="M69.5399 67.9102C69.5399 68.0402 69.5399 68.3002 69.4099 68.4302H69.5399V67.9102Z" fill="white"/>
<path d="M70.8299 67.5195H69.9299V68.4395H70.8299V67.5195Z" fill="white"/>
<path d="M72.12 67.5195H71.22V68.4395H72.12V67.5195Z" fill="white"/>
<path d="M73.41 67.5195H72.51V68.4395H73.41V67.5195Z" fill="white"/>
<path d="M74.5799 67.5195H73.6799V68.4395H74.5799V67.5195Z" fill="white"/>
<path d="M75.87 67.5195H74.97V68.4395H75.87V67.5195Z" fill="white"/>
<path d="M77.16 67.5195H76.26V68.4395H77.16V67.5195Z" fill="white"/>
<path d="M78.45 67.5195H77.55V68.4395H78.45V67.5195Z" fill="white"/>
<path d="M79.7499 67.5195H78.8499V68.4395H79.7499V67.5195Z" fill="white"/>
<path d="M81.0399 67.5195H80.1399V68.4395H81.0399V67.5195Z" fill="white"/>
<path d="M50.54 69.6107V69.2207L49.51 69.4807V69.6107H50.54Z" fill="white"/>
<path d="M51.7001 69.6192V68.6992L50.8 69.0892V69.6092H51.7001V69.6192Z" fill="white"/>
<path d="M52.9898 68.6992H52.0898V69.6192H52.9898V68.6992Z" fill="white"/>
<path d="M54.2899 68.6992H53.3899V69.6192H54.2899V68.6992Z" fill="white"/>
<path d="M55.5799 68.6992H54.6799V69.6192H55.5799V68.6992Z" fill="white"/>
<path d="M56.87 68.6992H55.97V69.6192H56.87V68.6992Z" fill="white"/>
<path d="M58.0299 68.6992H57.1299V69.6192H58.0299V68.6992Z" fill="white"/>
<path d="M59.3299 68.6992H58.4299V69.6192H59.3299V68.6992Z" fill="white"/>
<path d="M59.71 69.6192H60.36C60.23 69.3592 60.1 68.9692 59.97 68.6992H59.71V69.6192Z" fill="white"/>
<path d="M69.5399 68.6992C69.4099 68.9592 69.2799 69.3492 69.1499 69.6192H69.5399V68.6992Z" fill="white"/>
<path d="M70.8299 68.6992H69.9299V69.6192H70.8299V68.6992Z" fill="white"/>
<path d="M72.12 68.6992H71.22V69.6192H72.12V68.6992Z" fill="white"/>
<path d="M73.41 68.6992H72.51V69.6192H73.41V68.6992Z" fill="white"/>
<path d="M74.5799 68.6992H73.6799V69.6192H74.5799V68.6992Z" fill="white"/>
<path d="M75.87 68.6992H74.97V69.6192H75.87V68.6992Z" fill="white"/>
<path d="M77.16 68.6992H76.26V69.6192H77.16V68.6992Z" fill="white"/>
<path d="M78.45 68.6992H77.55V69.6192H78.45V68.6992Z" fill="white"/>
<path d="M79.7499 68.6992H78.8499V69.6192H79.7499V68.6992Z" fill="white"/>
<path d="M80.1299 68.6992V69.6192H81.0299C81.0299 69.3592 81.1599 68.9692 81.1599 68.6992H80.1299Z" fill="white"/>
<path d="M49.25 69.8809H48.6C48.47 69.8809 48.47 70.0109 48.47 70.0109C48.47 70.2709 48.6 70.5309 48.6 70.8009H49.38L49.25 69.8809Z" fill="white"/>
<path d="M50.41 69.8809H49.51V70.8009H50.41V69.8809Z" fill="white"/>
<path d="M51.7001 69.8809H50.8V70.8009H51.7001V69.8809Z" fill="white"/>
<path d="M52.9898 69.8809H52.0898V70.8009H52.9898V69.8809Z" fill="white"/>
<path d="M54.2899 69.8809H53.3899V70.8009H54.2899V69.8809Z" fill="white"/>
<path d="M55.5799 69.8809H54.6799V70.8009H55.5799V69.8809Z" fill="white"/>
<path d="M56.87 69.8809H55.97V70.8009H56.87V69.8809Z" fill="white"/>
<path d="M58.0299 69.8809H57.1299V70.8009H58.0299V69.8809Z" fill="white"/>
<path d="M59.3299 69.8809H58.4299V70.8009H59.3299V69.8809Z" fill="white"/>
<path d="M59.7099 70.9211H60.61V70.1311C60.61 70.0011 60.4799 70.0011 60.4799 69.8711H59.7V70.9211H59.7099Z" fill="white"/>
<path d="M61.27 70.9202C61.14 70.7902 61.14 70.7902 61.01 70.6602V70.9202H61.27Z" fill="white"/>
<path d="M69.54 70.92V70H69.02C68.89 70.26 68.76 70.65 68.5 70.92H69.54Z" fill="white"/>
<path d="M70.8299 69.8809H69.9299V70.8009H70.8299V69.8809Z" fill="white"/>
<path d="M72.12 69.8809H71.22V70.8009H72.12V69.8809Z" fill="white"/>
<path d="M73.41 69.8809H72.51V70.8009H73.41V69.8809Z" fill="white"/>
<path d="M74.5799 69.8809H73.6799V70.8009H74.5799V69.8809Z" fill="white"/>
<path d="M75.87 69.8809H74.97V70.8009H75.87V69.8809Z" fill="white"/>
<path d="M77.16 69.8809H76.26V70.8009H77.16V69.8809Z" fill="white"/>
<path d="M78.45 69.8809H77.55V70.8009H78.45V69.8809Z" fill="white"/>
<path d="M79.7499 69.8809H78.8499V70.8009H79.7499V69.8809Z" fill="white"/>
<path d="M80.1299 70.92H80.7799C80.9099 70.66 80.9099 70.27 80.9099 70H80.1299V70.92Z" fill="white"/>
<path d="M49.2499 71.1895H48.5999C48.7299 71.4495 48.7299 71.8395 48.8599 72.1095H49.3799L49.2499 71.1895Z" fill="white"/>
<path d="M50.41 71.1895H49.51V72.1095H50.41V71.1895Z" fill="white"/>
<path d="M51.7001 71.1895H50.8V72.1095H51.7001V71.1895Z" fill="white"/>
<path d="M52.9898 71.1895H52.0898V72.1095H52.9898V71.1895Z" fill="white"/>
<path d="M54.2899 71.1895H53.3899V72.1095H54.2899V71.1895Z" fill="white"/>
<path d="M55.5799 71.1895H54.6799V72.1095H55.5799V71.1895Z" fill="white"/>
<path d="M56.87 71.1895H55.97V72.1095H56.87V71.1895Z" fill="white"/>
<path d="M58.0299 71.1895H57.1299V72.1095H58.0299V71.1895Z" fill="white"/>
<path d="M59.3299 71.1895H58.4299V72.1095H59.3299V71.1895Z" fill="white"/>
<path d="M60.62 71.1895H59.72V72.1095H60.62V71.1895Z" fill="white"/>
<path d="M61.01 72.1005H61.91V71.4505C61.78 71.3205 61.65 71.1905 61.52 71.0605H61V72.1005H61.01Z" fill="white"/>
<path d="M63.07 72.1009C62.81 71.9709 62.55 71.8409 62.29 71.7109V72.1009H63.07Z" fill="white"/>
<path d="M68.2398 72.0997V71.1797C67.9798 71.4397 67.5898 71.6997 67.3398 71.8297V72.0897H68.2398V72.0997Z" fill="white"/>
<path d="M69.5399 71.1895H68.6399V72.1095H69.5399V71.1895Z" fill="white"/>
<path d="M70.8299 71.1895H69.9299V72.1095H70.8299V71.1895Z" fill="white"/>
<path d="M72.12 71.1895H71.22V72.1095H72.12V71.1895Z" fill="white"/>
<path d="M73.41 71.1895H72.51V72.1095H73.41V71.1895Z" fill="white"/>
<path d="M74.5799 71.1895H73.6799V72.1095H74.5799V71.1895Z" fill="white"/>
<path d="M75.87 71.1895H74.97V72.1095H75.87V71.1895Z" fill="white"/>
<path d="M77.16 71.1895H76.26V72.1095H77.16V71.1895Z" fill="white"/>
<path d="M78.45 71.1895H77.55V72.1095H78.45V71.1895Z" fill="white"/>
<path d="M79.7499 71.1895H78.8499V72.1095H79.7499V71.1895Z" fill="white"/>
<path d="M80.1299 72.0997H80.5199C80.6499 71.8397 80.6499 71.4497 80.7799 71.1797H80.1299V72.0997Z" fill="white"/>
<path d="M49.2499 72.3594H48.8599C48.9899 72.6194 48.9899 73.0094 49.1199 73.2794H49.2499V72.3594Z" fill="white"/>
<path d="M50.41 72.3594H49.51V73.2794H50.41V72.3594Z" fill="white"/>
<path d="M51.7001 72.3594H50.8V73.2794H51.7001V72.3594Z" fill="white"/>
<path d="M52.9898 72.3594H52.0898V73.2794H52.9898V72.3594Z" fill="white"/>
<path d="M54.2899 72.3594H53.3899V73.2794H54.2899V72.3594Z" fill="white"/>
<path d="M55.5799 72.3594H54.6799V73.2794H55.5799V72.3594Z" fill="white"/>
<path d="M56.87 72.3594H55.97V73.2794H56.87V72.3594Z" fill="white"/>
<path d="M58.0299 72.3594H57.1299V73.2794H58.0299V72.3594Z" fill="white"/>
<path d="M59.3299 72.3594H58.4299V73.2794H59.3299V72.3594Z" fill="white"/>
<path d="M60.62 72.3594H59.72V73.2794H60.62V72.3594Z" fill="white"/>
<path d="M61.91 72.3594H61.01V73.2794H61.91V72.3594Z" fill="white"/>
<path d="M63.2001 72.3594H62.3V73.2794H63.2001V72.3594Z" fill="white"/>
<path d="M63.5898 73.2794H64.4898V72.3594H63.5898V73.2794Z" fill="white"/>
<path d="M65.79 73.2794V72.3594H65.27C65.14 72.3594 65.01 72.3594 64.75 72.3594V73.2794H65.79Z" fill="white"/>
<path d="M66.95 72.3594H66.05V73.2794H66.95V72.3594Z" fill="white"/>
<path d="M68.2398 72.3594H67.3398V73.2794H68.2398V72.3594Z" fill="white"/>
<path d="M69.5399 72.3594H68.6399V73.2794H69.5399V72.3594Z" fill="white"/>
<path d="M70.8299 72.3594H69.9299V73.2794H70.8299V72.3594Z" fill="white"/>
<path d="M72.12 72.3594H71.22V73.2794H72.12V72.3594Z" fill="white"/>
<path d="M73.41 72.3594H72.51V73.2794H73.41V72.3594Z" fill="white"/>
<path d="M74.5799 72.3594H73.6799V73.2794H74.5799V72.3594Z" fill="white"/>
<path d="M75.87 72.3594H74.97V73.2794H75.87V72.3594Z" fill="white"/>
<path d="M77.16 72.3594H76.26V73.2794H77.16V72.3594Z" fill="white"/>
<path d="M78.45 72.3594H77.55V73.2794H78.45V72.3594Z" fill="white"/>
<path d="M79.7499 72.3594H78.8499V73.2794H79.7499V72.3594Z" fill="white"/>
<path d="M80.1299 73.2794C80.2599 73.0194 80.3899 72.6294 80.3899 72.3594H80.1299V73.2794Z" fill="white"/>
<path d="M50.41 73.541H49.51V74.461H50.41V73.541Z" fill="white"/>
<path d="M51.7001 73.541H50.8V74.461H51.7001V73.541Z" fill="white"/>
<path d="M52.9898 73.541H52.0898V74.461H52.9898V73.541Z" fill="white"/>
<path d="M54.2899 73.541H53.3899V74.461H54.2899V73.541Z" fill="white"/>
<path d="M55.5799 73.541H54.6799V74.461H55.5799V73.541Z" fill="white"/>
<path d="M56.87 73.541H55.97V74.461H56.87V73.541Z" fill="white"/>
<path d="M58.0299 73.541H57.1299V74.461H58.0299V73.541Z" fill="white"/>
<path d="M59.3299 73.541H58.4299V74.461H59.3299V73.541Z" fill="white"/>
<path d="M60.62 73.541H59.72V74.461H60.62V73.541Z" fill="white"/>
<path d="M61.91 73.541H61.01V74.461H61.91V73.541Z" fill="white"/>
<path d="M63.2001 73.541H62.3V74.461H63.2001V73.541Z" fill="white"/>
<path d="M64.4999 73.541H63.5999V74.461H64.4999V73.541Z" fill="white"/>
<path d="M65.66 73.541H64.76V74.461H65.66V73.541Z" fill="white"/>
<path d="M66.95 73.541H66.05V74.461H66.95V73.541Z" fill="white"/>
<path d="M68.2398 73.541H67.3398V74.461H68.2398V73.541Z" fill="white"/>
<path d="M69.5399 73.541H68.6399V74.461H69.5399V73.541Z" fill="white"/>
<path d="M70.8299 73.541H69.9299V74.461H70.8299V73.541Z" fill="white"/>
<path d="M72.12 73.541H71.22V74.461H72.12V73.541Z" fill="white"/>
<path d="M73.41 73.541H72.51V74.461H73.41V73.541Z" fill="white"/>
<path d="M74.5799 73.541H73.6799V74.461H74.5799V73.541Z" fill="white"/>
<path d="M75.87 73.541H74.97V74.461H75.87V73.541Z" fill="white"/>
<path d="M77.16 73.541H76.26V74.461H77.16V73.541Z" fill="white"/>
<path d="M78.45 73.541H77.55V74.461H78.45V73.541Z" fill="white"/>
<path d="M78.8398 73.541V74.461H79.6199C79.6199 74.331 79.7498 74.201 79.7498 74.071V73.551H78.8398V73.541Z" fill="white"/>
<path d="M50.5399 74.8496H49.6399C49.7699 75.1096 49.8999 75.4996 50.0299 75.7696H50.5499V74.8496H50.5399Z" fill="white"/>
<path d="M51.7001 74.8496H50.8V75.7696H51.7001V74.8496Z" fill="white"/>
<path d="M52.9898 74.8496H52.0898V75.7696H52.9898V74.8496Z" fill="white"/>
<path d="M54.2899 74.8496H53.3899V75.7696H54.2899V74.8496Z" fill="white"/>
<path d="M55.5799 74.8496H54.6799V75.7696H55.5799V74.8496Z" fill="white"/>
<path d="M56.87 74.8496H55.97V75.7696H56.87V74.8496Z" fill="white"/>
<path d="M58.0299 74.8496H57.1299V75.7696H58.0299V74.8496Z" fill="white"/>
<path d="M59.3299 74.8496H58.4299V75.7696H59.3299V74.8496Z" fill="white"/>
<path d="M60.62 74.8496H59.72V75.7696H60.62V74.8496Z" fill="white"/>
<path d="M61.91 74.8496H61.01V75.7696H61.91V74.8496Z" fill="white"/>
<path d="M63.2001 74.8496H62.3V75.7696H63.2001V74.8496Z" fill="white"/>
<path d="M64.4999 74.8496H63.5999V75.7696H64.4999V74.8496Z" fill="white"/>
<path d="M65.66 74.8496H64.76V75.7696H65.66V74.8496Z" fill="white"/>
<path d="M66.95 74.8496H66.05V75.7696H66.95V74.8496Z" fill="white"/>
<path d="M68.2398 74.8496H67.3398V75.7696H68.2398V74.8496Z" fill="white"/>
<path d="M69.5399 74.8496H68.6399V75.7696H69.5399V74.8496Z" fill="white"/>
<path d="M70.8299 74.8496H69.9299V75.7696H70.8299V74.8496Z" fill="white"/>
<path d="M72.12 74.8496H71.22V75.7696H72.12V74.8496Z" fill="white"/>
<path d="M73.41 74.8496H72.51V75.7696H73.41V74.8496Z" fill="white"/>
<path d="M74.5799 74.8496H73.6799V75.7696H74.5799V74.8496Z" fill="white"/>
<path d="M75.87 74.8496H74.97V75.7696H75.87V74.8496Z" fill="white"/>
<path d="M77.16 74.8496H76.26V75.7696H77.16V74.8496Z" fill="white"/>
<path d="M78.45 74.8496H77.55V75.7696H78.45V74.8496Z" fill="white"/>
<path d="M78.8398 75.7696C79.0998 75.5096 79.3598 75.1196 79.4898 74.8496H78.8398V75.7696Z" fill="white"/>
<path d="M50.1499 76.0293C50.2799 76.2893 50.4099 76.4193 50.5399 76.6793V76.0293H50.1499Z" fill="white"/>
<path d="M51.7001 76.0293H50.8V76.9493H51.7001V76.0293Z" fill="white"/>
<path d="M52.9898 76.0293H52.0898V76.9493H52.9898V76.0293Z" fill="white"/>
<path d="M54.2899 76.0293H53.3899V76.9493H54.2899V76.0293Z" fill="white"/>
<path d="M55.5799 76.0293H54.6799V76.9493H55.5799V76.0293Z" fill="white"/>
<path d="M56.87 76.0293H55.97V76.9493H56.87V76.0293Z" fill="white"/>
<path d="M58.0299 76.0293H57.1299V76.9493H58.0299V76.0293Z" fill="white"/>
<path d="M59.3299 76.0293H58.4299V76.9493H59.3299V76.0293Z" fill="white"/>
<path d="M60.62 76.0293H59.72V76.9493H60.62V76.0293Z" fill="white"/>
<path d="M61.91 76.0293H61.01V76.9493H61.91V76.0293Z" fill="white"/>
<path d="M63.2001 76.0293H62.3V76.9493H63.2001V76.0293Z" fill="white"/>
<path d="M64.4999 76.0293H63.5999V76.9493H64.4999V76.0293Z" fill="white"/>
<path d="M65.66 76.0293H64.76V76.9493H65.66V76.0293Z" fill="white"/>
<path d="M66.95 76.0293H66.05V76.9493H66.95V76.0293Z" fill="white"/>
<path d="M68.2398 76.0293H67.3398V76.9493H68.2398V76.0293Z" fill="white"/>
<path d="M69.5399 76.0293H68.6399V76.9493H69.5399V76.0293Z" fill="white"/>
<path d="M70.8299 76.0293H69.9299V76.9493H70.8299V76.0293Z" fill="white"/>
<path d="M72.12 76.0293H71.22V76.9493H72.12V76.0293Z" fill="white"/>
<path d="M73.41 76.0293H72.51V76.9493H73.41V76.0293Z" fill="white"/>
<path d="M74.5799 76.0293H73.6799V76.9493H74.5799V76.0293Z" fill="white"/>
<path d="M75.87 76.0293H74.97V76.9493H75.87V76.0293Z" fill="white"/>
<path d="M77.16 76.0293H76.26V76.9493H77.16V76.0293Z" fill="white"/>
<path d="M77.55 76.0293V76.9493H78.33C78.46 76.8193 78.46 76.6893 78.59 76.6893V76.0393H77.55V76.0293Z" fill="white"/>
<path d="M51.7001 77.1992H50.8C51.06 77.4592 51.1901 77.8492 51.4501 78.1192H51.71V77.1992H51.7001Z" fill="white"/>
<path d="M52.9898 77.1992H52.0898V78.1192H52.9898V77.1992Z" fill="white"/>
<path d="M54.2899 77.1992H53.3899V78.1192H54.2899V77.1992Z" fill="white"/>
<path d="M55.5799 77.1992H54.6799V78.1192H55.5799V77.1992Z" fill="white"/>
<path d="M56.87 77.1992H55.97V78.1192H56.87V77.1992Z" fill="white"/>
<path d="M58.0299 77.1992H57.1299V78.1192H58.0299V77.1992Z" fill="white"/>
<path d="M59.3299 77.1992H58.4299V78.1192H59.3299V77.1992Z" fill="white"/>
<path d="M60.62 77.1992H59.72V78.1192H60.62V77.1992Z" fill="white"/>
<path d="M61.91 77.1992H61.01V78.1192H61.91V77.1992Z" fill="white"/>
<path d="M63.2001 77.1992H62.3V78.1192H63.2001V77.1992Z" fill="white"/>
<path d="M64.4999 77.1992H63.5999V78.1192H64.4999V77.1992Z" fill="white"/>
<path d="M65.66 77.1992H64.76V78.1192H65.66V77.1992Z" fill="white"/>
<path d="M66.95 77.1992H66.05V78.1192H66.95V77.1992Z" fill="white"/>
<path d="M68.2398 77.1992H67.3398V78.1192H68.2398V77.1992Z" fill="white"/>
<path d="M69.5399 77.1992H68.6399V78.1192H69.5399V77.1992Z" fill="white"/>
<path d="M70.8299 77.1992H69.9299V78.1192H70.8299V77.1992Z" fill="white"/>
<path d="M72.12 77.1992H71.22V78.1192H72.12V77.1992Z" fill="white"/>
<path d="M73.41 77.1992H72.51V78.1192H73.41V77.1992Z" fill="white"/>
<path d="M74.5799 77.1992H73.6799V78.1192H74.5799V77.1992Z" fill="white"/>
<path d="M75.87 77.1992H74.97V78.1192H75.87V77.1992Z" fill="white"/>
<path d="M77.16 77.1992H76.26V78.1192H77.16V77.1992Z" fill="white"/>
<path d="M77.55 77.9898C77.68 77.7298 77.94 77.4698 78.07 77.3398H77.55V77.9898Z" fill="white"/>
<path d="M52.9898 78.3809H52.0898V78.9009C52.2198 79.0309 52.3498 79.1609 52.4798 79.2909H52.9998V78.3809H52.9898Z" fill="white"/>
<path d="M54.2899 78.3809H53.3899V79.3009H54.2899V78.3809Z" fill="white"/>
<path d="M55.5799 78.3809H54.6799V79.3009H55.5799V78.3809Z" fill="white"/>
<path d="M56.87 78.3809H55.97V79.3009H56.87V78.3809Z" fill="white"/>
<path d="M58.0299 78.3809H57.1299V79.3009H58.0299V78.3809Z" fill="white"/>
<path d="M59.3299 78.3809H58.4299V79.3009H59.3299V78.3809Z" fill="white"/>
<path d="M60.62 78.3809H59.72V79.3009H60.62V78.3809Z" fill="white"/>
<path d="M61.91 78.3809H61.01V79.3009H61.91V78.3809Z" fill="white"/>
<path d="M63.2001 78.3809H62.3V79.3009H63.2001V78.3809Z" fill="white"/>
<path d="M64.4999 78.3809H63.5999V79.3009H64.4999V78.3809Z" fill="white"/>
<path d="M65.66 78.3809H64.76V79.3009H65.66V78.3809Z" fill="white"/>
<path d="M66.95 78.3809H66.05V79.3009H66.95V78.3809Z" fill="white"/>
<path d="M68.2398 78.3809H67.3398V79.3009H68.2398V78.3809Z" fill="white"/>
<path d="M69.5399 78.3809H68.6399V79.3009H69.5399V78.3809Z" fill="white"/>
<path d="M70.8299 78.3809H69.9299V79.3009H70.8299V78.3809Z" fill="white"/>
<path d="M72.12 78.3809H71.22V79.3009H72.12V78.3809Z" fill="white"/>
<path d="M73.41 78.3809H72.51V79.3009H73.41V78.3809Z" fill="white"/>
<path d="M74.5799 78.3809H73.6799V79.3009H74.5799V78.3809Z" fill="white"/>
<path d="M75.87 78.3809H74.97V79.3009H75.87V78.3809Z" fill="white"/>
<path d="M76.26 79.3009C76.52 79.0409 76.91 78.6509 77.16 78.3809H76.26V79.3009Z" fill="white"/>
<path d="M52.74 79.6895C52.87 79.8195 52.87 79.8194 53 79.9494V79.6895H52.74Z" fill="white"/>
<path d="M54.2899 79.6895H53.3899V80.3394C53.5199 80.4694 53.6499 80.5995 53.7799 80.7295H54.2999V79.6895H54.2899Z" fill="white"/>
<path d="M55.5799 79.6895H54.6799V80.6095H55.5799V79.6895Z" fill="white"/>
<path d="M56.87 79.6895H55.97V80.6095H56.87V79.6895Z" fill="white"/>
<path d="M58.0299 79.6895H57.1299V80.6095H58.0299V79.6895Z" fill="white"/>
<path d="M59.3299 79.6895H58.4299V80.6095H59.3299V79.6895Z" fill="white"/>
<path d="M60.62 79.6895H59.72V80.6095H60.62V79.6895Z" fill="white"/>
<path d="M61.91 79.6895H61.01V80.6095H61.91V79.6895Z" fill="white"/>
<path d="M63.2001 79.6895H62.3V80.6095H63.2001V79.6895Z" fill="white"/>
<path d="M64.4999 79.6895H63.5999V80.6095H64.4999V79.6895Z" fill="white"/>
<path d="M65.66 79.6895H64.76V80.6095H65.66V79.6895Z" fill="white"/>
<path d="M66.95 79.6895H66.05V80.6095H66.95V79.6895Z" fill="white"/>
<path d="M68.2398 79.6895H67.3398V80.6095H68.2398V79.6895Z" fill="white"/>
<path d="M69.5399 79.6895H68.6399V80.6095H69.5399V79.6895Z" fill="white"/>
<path d="M70.8299 79.6895H69.9299V80.6095H70.8299V79.6895Z" fill="white"/>
<path d="M72.12 79.6895H71.22V80.6095H72.12V79.6895Z" fill="white"/>
<path d="M73.41 79.6895H72.51V80.6095H73.41V79.6895Z" fill="white"/>
<path d="M74.5799 79.6895H73.6799V80.6095H74.5799V79.6895Z" fill="white"/>
<path d="M74.96 80.4795C75.35 80.2195 75.61 79.9595 75.86 79.6895H74.96V80.4795Z" fill="white"/>
<path d="M54.1599 80.8711L54.2799 81.0011V80.8711H54.1599Z" fill="white"/>
<path d="M54.6699 80.8694V81.2594C54.9299 81.5194 55.3199 81.6494 55.5699 81.7794V80.8594H54.6699V80.8694Z" fill="white"/>
<path d="M56.87 80.8711H55.97V81.7911H56.87V80.8711Z" fill="white"/>
<path d="M58.0299 80.8711H57.1299V81.7911H58.0299V80.8711Z" fill="white"/>
<path d="M59.3299 80.8711H58.4299V81.7911H59.3299V80.8711Z" fill="white"/>
<path d="M60.62 80.8711H59.72V81.7911H60.62V80.8711Z" fill="white"/>
<path d="M61.91 80.8711H61.01V81.7911H61.91V80.8711Z" fill="white"/>
<path d="M63.2001 80.8711H62.3V81.7911H63.2001V80.8711Z" fill="white"/>
<path d="M64.4999 80.8711H63.5999V81.7911H64.4999V80.8711Z" fill="white"/>
<path d="M65.66 80.8711H64.76V81.7911H65.66V80.8711Z" fill="white"/>
<path d="M66.95 80.8711H66.05V81.7911H66.95V80.8711Z" fill="white"/>
<path d="M68.2398 80.8711H67.3398V81.7911H68.2398V80.8711Z" fill="white"/>
<path d="M69.5399 80.8711H68.6399V81.7911H69.5399V80.8711Z" fill="white"/>
<path d="M70.8299 80.8711H69.9299V81.7911H70.8299V80.8711Z" fill="white"/>
<path d="M72.12 80.8711H71.22V81.7911H72.12V80.8711Z" fill="white"/>
<path d="M72.51 80.8711V81.7911H72.9C73.16 81.6611 73.29 81.5311 73.55 81.5311V80.8811H72.51V80.8711Z" fill="white"/>
<path d="M73.6699 81.2611C73.9299 81.1311 74.0599 81.0011 74.3199 80.8711H73.6699V81.2611Z" fill="white"/>
<path d="M56.0999 82.0508C56.3599 82.1808 56.6199 82.3108 56.8799 82.4408V82.0508H56.0999Z" fill="white"/>
<path d="M57.1299 82.0508V82.5708C57.3899 82.7008 57.7799 82.8308 58.0299 82.9608V82.1708L57.1299 82.0508Z" fill="white"/>
<path d="M59.3299 82.0508H58.4299V82.9708H59.3299V82.0508Z" fill="white"/>
<path d="M60.62 82.0508H59.72V82.9708H60.62V82.0508Z" fill="white"/>
<path d="M61.91 82.0508H61.01V82.9708H61.91V82.0508Z" fill="white"/>
<path d="M63.2001 82.0508H62.3V82.9708H63.2001V82.0508Z" fill="white"/>
<path d="M64.4999 82.0508H63.5999V82.9708H64.4999V82.0508Z" fill="white"/>
<path d="M65.66 82.0508H64.76V82.9708H65.66V82.0508Z" fill="white"/>
<path d="M66.95 82.0508H66.05V82.9708H66.95V82.0508Z" fill="white"/>
<path d="M68.2398 82.0508H67.3398V82.9708H68.2398V82.0508Z" fill="white"/>
<path d="M69.5399 82.0508H68.6399V82.9708H69.5399V82.0508Z" fill="white"/>
<path d="M69.9199 82.0508V82.9708C70.1799 82.8408 70.5699 82.7108 70.8199 82.7108V82.1908L69.9199 82.0508Z" fill="white"/>
<path d="M71.22 82.0508V82.4408C71.48 82.3108 71.87 82.1808 72.12 82.0508H71.22Z" fill="white"/>
<path d="M59.71 83.3594C59.97 83.4894 60.36 83.4894 60.61 83.6194V83.3594H59.71Z" fill="white"/>
<path d="M61.01 83.3594V83.6194C61.27 83.6194 61.66 83.7494 61.91 83.7494V83.3594H61.01Z" fill="white"/>
<path d="M62.3 83.3594V83.7494C62.56 83.7494 62.9501 83.7494 63.2001 83.7494V83.3594H62.3Z" fill="white"/>
<path d="M63.5898 83.3594V83.8794C63.7198 83.8794 63.8498 83.8794 63.9798 83.8794C64.1098 83.8794 64.3698 83.8794 64.4998 83.8794V83.3594H63.5898Z" fill="white"/>
<path d="M64.75 83.3594V83.7494C65.01 83.7494 65.4 83.7494 65.65 83.7494V83.3594H64.75Z" fill="white"/>
<path d="M66.05 83.3594V83.7494C66.31 83.7494 66.7 83.7494 66.95 83.6194V83.3594H66.05Z" fill="white"/>
<path d="M67.3398 83.3594V83.6194C67.5998 83.6194 67.9898 83.4894 68.2398 83.4894H67.3398V83.3594Z" fill="white"/>
<path d="M70.4001 96.5212L93.3701 119.481L129.3 83.5612L127.86 79.7812L93.3701 101.011L69.0901 92.6813L70.4001 96.5212Z" fill="#7EAC54"/>
<path d="M69 92.7703L91.97 115.74L127.9 79.8103L118.66 70.5703L91.97 97.2603L78.24 83.5403L69 92.7703Z" fill="#B8DD82"/>
<path d="M91.97 115.741L93.37 119.481L129.3 83.5605L127.9 79.8105L91.97 115.741Z" fill="#98CB72"/>
<path d="M107.86 83.5804L101.52 103.65L108.54 96.8604L114.96 76.1504L107.86 83.5804Z" fill="#EFFFB7"/>
<path d="M103.19 88.2407L96.95 107.661L100.1 104.741L106.24 84.9707L103.19 88.2407Z" fill="#EFFFB7"/>
<path d="M78.24 83.5403L91.97 97.2603L118.66 70.5703L92.09 98.1203L78.24 83.5403Z" fill="#EFFFB7"/>
</g>
<defs>
<clipPath id="clip0_648_103286">
<rect width="129.3" height="139.34" fill="white"/>
</clipPath>
</defs>
</svg>
