<svg width="60" height="57" viewBox="0 0 60 57" fill="none" xmlns="http://www.w3.org/2000/svg">
<g clip-path="url(#clip0_1111_124903)">
<path d="M40.538 57H15.8544C7.12025 57 0 49.7071 0 40.9747V16.0253C0 7.19697 7.12025 0 15.8544 0H40.538C49.2721 0 56.3924 7.19697 56.3924 16.0253V40.9747C56.3924 49.7071 49.1772 57 40.538 57Z" fill="#C0F9FC"/>
<path d="M41.2025 54.2175H15.2848C9.01895 54.2175 3.9873 49.0357 3.9873 42.7983V39.0559C3.9873 32.7226 9.11389 27.6367 15.2848 27.6367H41.2025C47.4683 27.6367 52.5 32.8185 52.5 39.0559V42.7983C52.5 49.0357 47.3734 54.2175 41.2025 54.2175Z" fill="#8CE6F4"/>
<path d="M9.2089 12.5709C9.2089 11.8992 9.39877 11.5153 9.96839 11.2275C15.9494 8.63656 21.8355 5.94969 27.8165 3.35878C28.2912 3.16686 28.9557 3.16686 29.4304 3.35878C35.4114 5.94969 41.3924 8.63656 47.2785 11.3234C47.6583 11.5153 48.038 11.8992 48.038 12.283C48.038 17.4648 48.133 22.7426 47.9431 27.9244C47.7532 34.9295 44.5254 40.4951 39.4937 45.1012C36.7405 47.5962 33.5127 49.5153 29.9051 50.4749C29.0507 50.6669 28.0064 50.7628 27.2469 50.4749C17.6583 47.3083 11.4874 40.6871 9.49371 30.5153C8.92409 27.4446 9.2089 15.4497 9.2089 12.5709ZM43.7659 15.2578C43.7659 14.8739 43.4811 14.3941 43.1013 14.2022C38.4494 12.0911 33.7975 9.97999 29.0507 7.86888C28.6709 7.67696 28.1962 7.77292 27.8165 7.86888C23.2595 9.88404 18.7026 11.8992 14.1456 14.0103C13.4811 14.2982 13.1962 14.682 13.1962 15.3537C13.1962 18.2325 13.1962 21.1113 13.1962 24.0861C13.1962 25.7174 13.1013 27.4446 13.3861 29.076C14.8102 37.7123 19.9367 43.278 27.9114 46.3487C28.1962 46.4446 28.6709 46.4446 28.9557 46.3487C36.3608 43.5659 41.3924 38.576 43.1962 30.7073C43.9557 27.9244 43.8608 17.4648 43.7659 15.2578Z" fill="#2891B5"/>
<path d="M44.0505 15.0664C44.0505 14.6825 43.7657 14.1068 43.3859 14.0108C38.6391 11.8037 33.8923 9.69262 29.1454 7.58151C28.7657 7.38959 28.291 7.48555 27.9113 7.58151C23.2594 9.59666 18.7024 11.7078 14.0505 13.8189C13.3859 14.1068 13.1011 14.4906 13.1011 15.2583C13.1011 18.233 13.1011 21.1118 13.1011 24.0866C13.1011 25.8138 13.0062 27.5411 13.291 29.1724C14.7151 38.0007 19.9366 43.6623 28.1011 46.733C28.3859 46.829 28.8606 46.829 29.1454 46.733C36.6454 43.9502 41.867 38.7684 43.5758 30.8037C44.2404 27.9249 44.1454 17.2734 44.0505 15.0664Z" fill="#3EAFCE"/>
<path d="M44.0509 16.2179C44.0509 15.8341 43.7661 15.3543 43.3863 15.1624C38.8294 13.0513 34.2724 11.0361 29.6205 9.02096C29.3357 8.82904 28.7661 8.925 28.4813 9.02096C24.0193 11.0361 19.5572 13.0513 15.0952 14.9705C14.4306 15.2583 14.2408 15.6422 14.2408 16.3139C14.2408 19.1927 14.2408 21.9755 14.2408 24.8543C14.2408 26.4856 14.1458 28.1169 14.4306 29.7482C15.8547 38.2886 20.8863 43.6624 28.6712 46.7331C28.956 46.829 29.3357 46.829 29.6205 46.7331C36.8357 44.0462 41.8674 39.0563 43.5762 31.3795C44.2408 28.5967 44.1458 18.329 44.0509 16.2179Z" fill="#5DCEE8"/>
<path d="M16.6138 27.0606L26.6771 37.2323L43.0062 20.7273L42.3416 19L26.6771 28.7879L15.9492 25.3333L16.6138 27.0606Z" fill="#7EAC54"/>
<path d="M15.9492 25.3329L26.0125 35.5046L42.3416 18.9996L38.1644 14.7773L26.0125 27.0602L20.1264 21.1107L15.9492 25.3329Z" fill="#B8DD82"/>
<path d="M26.0127 35.505L26.6773 37.2323L43.0064 20.7273L42.3418 19L26.0127 35.505Z" fill="#98CB72"/>
<path d="M33.2275 20.7277L30.3794 29.9398L33.5123 26.8691L36.4553 17.3691L33.2275 20.7277Z" fill="#EFFFB7"/>
<path d="M31.1391 22.9338L28.291 31.858L29.7151 30.5146L32.4682 21.3984L31.1391 22.9338Z" fill="#EFFFB7"/>
<path d="M20.1265 21.1107L26.0125 27.0602L38.1644 14.7773L26.0125 27.444L20.1265 21.1107Z" fill="#EFFFB7"/>
<path d="M35.5063 6.62109L34.6519 9.59584L37.3101 10.8433L38.2594 7.77261L35.5063 6.62109Z" fill="#3EAFCE"/>
<path d="M33.9874 11.4199L31.519 20.2482L37.6899 14.5866L38.1646 13.1472L33.9874 11.4199Z" fill="#8CE6F4"/>
<path d="M28.8606 36.4642L26.9619 44.7168C26.9619 44.7168 28.1012 45.5804 29.0505 45.7723C29.0505 45.7723 31.8986 44.9087 33.8923 43.0854L37.405 27.9238L28.8606 36.4642Z" fill="#8CE6F4"/>
<path d="M56.1075 52.0098H26.772C24.5885 52.0098 22.7847 50.1866 22.7847 47.9795V38.4795C22.7847 36.2724 24.5885 34.4492 26.772 34.4492H56.1075C58.291 34.4492 60.0948 36.2724 60.0948 38.4795V47.9795C59.9999 50.1866 58.291 52.0098 56.1075 52.0098Z" fill="#F09537"/>
<path d="M55.7278 51.4337H26.2974C24.1139 51.4337 22.3101 49.6104 22.3101 47.4034V37.9034C22.3101 35.6963 24.1139 33.873 26.2974 33.873H55.6328C57.8164 33.873 59.6202 35.6963 59.6202 37.9034V47.4034C59.6202 49.7064 57.9113 51.4337 55.7278 51.4337Z" fill="#F6C957"/>
<path d="M38.9241 46.4428L36.8355 43.3721L35.8861 44.2357V42.1246L38.2595 39.3418H40.538L37.9747 42.0287L40.9177 46.4428H38.9241V46.4428ZM33.3228 46.4428C32.8481 46.4428 32.3734 46.2509 31.9937 46.059C31.519 46.3468 31.0443 46.4428 30.4747 46.4428C28.7658 46.4428 27.3418 44.9075 27.3418 42.9883C27.3418 41.0691 28.7658 39.5337 30.4747 39.5337C31.1393 39.5337 31.7089 39.7256 32.1836 40.1095C32.6583 40.4933 33.1329 40.9731 33.3228 41.5489C33.3228 41.6448 33.4177 41.6448 33.4177 41.7408C33.6076 42.1246 33.6076 42.6044 33.6076 42.9883C33.6076 43.7559 33.4177 44.4277 33.038 45.0034C33.1329 45.0994 33.2279 45.0994 33.4177 45.0994C33.7975 45.0994 33.9874 44.8115 33.9874 44.2357V39.3418H35.5064V44.5236C35.4114 45.0034 35.1266 45.4832 34.7469 45.7711C34.3671 46.2509 33.7975 46.4428 33.3228 46.4428ZM28.576 42.8923C28.576 44.1398 29.4304 45.1953 30.4747 45.1953C30.7595 45.1953 31.0443 45.0994 31.2342 45.0034C31.614 44.8115 31.8988 44.4277 32.0886 44.1398C32.2785 43.7559 32.3734 43.3721 32.3734 42.8923C32.3734 42.6044 32.2785 42.2206 32.1836 41.9327C32.0886 41.5489 31.8038 41.261 31.519 40.9731C31.2342 40.6852 30.8545 40.5893 30.4747 40.5893C29.4304 40.5893 28.576 41.6448 28.576 42.8923Z" fill="url(#paint0_radial_1111_124903)"/>
<path d="M42.0571 40.7812H42.247V47.7863H42.0571V40.7812Z" fill="#8C0000"/>
<path opacity="0.5" d="M40.1582 40.0149C39.6835 40.1109 39.2088 40.1109 38.7341 40.0149H38.6392C36.3607 39.3432 35.7911 38.1917 34.1772 37.2321C32.6582 36.3685 29.2405 35.5048 25.8228 37.8079C26.4873 38.2877 26.962 38.9594 27.3417 39.6311C28.1012 40.9745 27.7215 41.7422 27.7215 41.7422C27.7215 41.7422 29.7152 39.6311 32.0886 39.5351C34.0822 39.4392 36.3607 40.2069 38.1645 40.3988C38.4493 40.3988 38.8291 40.4947 39.1139 40.3988C41.0126 40.3028 41.7721 39.2473 41.7721 39.2473C41.3924 39.823 40.8228 40.0149 40.1582 40.0149Z" fill="#313132"/>
<path d="M32.7529 38.2864C35.601 39.054 36.1706 40.1096 38.4491 40.1096C38.3541 40.0136 38.1642 39.9177 37.9744 39.9177C36.9301 39.7257 36.2655 38.6702 34.082 37.4227C32.7529 36.655 31.3288 36.3672 29.8098 36.4631C28.2908 36.5591 26.8668 37.1348 25.7275 37.9985C26.2972 38.4783 26.8668 39.054 27.1516 39.7257C27.2465 39.6298 27.3415 39.5338 27.4364 39.4379C29.4301 37.4227 31.1389 37.8066 32.7529 38.2864Z" fill="url(#paint1_linear_1111_124903)"/>
<path d="M40.3478 40.0146C39.8732 40.1105 39.3985 40.1105 38.9238 40.1105C36.6453 39.9186 35.0314 38.863 32.9428 38.1913C31.3289 37.7115 29.4301 37.6156 27.5314 39.5348C27.4365 39.6307 27.3415 39.7267 27.2466 39.8226V39.9186C27.6263 40.4944 27.8162 41.1661 27.7213 41.8378C27.7213 41.8378 29.7149 39.8226 32.0884 39.7267C34.082 39.6307 36.3605 40.3984 38.1643 40.5903C38.4491 40.5903 38.8289 40.6863 39.1137 40.5903C41.0124 40.4944 41.7719 39.5348 41.7719 39.5348C41.7719 39.5348 41.582 39.8226 40.3478 40.0146Z" fill="url(#paint2_linear_1111_124903)"/>
<path d="M46.9936 47.2105C46.8987 47.2105 46.8037 47.2105 46.7088 47.2105C46.6139 47.2105 46.5189 47.1146 46.5189 47.0186C46.424 46.9227 46.424 46.8267 46.424 46.7307C46.424 46.6348 46.424 46.5388 46.424 46.4429V45.4833H46.7088V46.4429C46.7088 46.8267 46.8987 47.0186 47.0886 47.0186C47.3734 47.0186 47.5632 46.8267 47.5632 46.4429V45.4833H47.7531V46.4429C47.7531 46.5388 47.7531 46.6348 47.7531 46.7307C47.7531 46.8267 47.6582 46.9227 47.6582 47.0186C47.5632 47.1146 47.5632 47.1146 47.4683 47.2105C47.1835 47.2105 47.0886 47.2105 46.9936 47.2105ZM43.6708 47.2105V45.5792H43.8607V46.3469C43.9556 46.2509 43.9556 46.2509 43.9556 46.155L44.5253 45.4833H44.8101L44.1455 46.155L44.8101 47.1146H44.6202L44.0506 46.2509L43.8607 46.4429V47.1146L43.6708 47.2105ZM51.2658 47.0186C51.1708 46.9227 51.0759 46.8267 51.0759 46.7307C51.0759 46.6348 50.981 46.5388 50.981 46.3469C50.981 46.2509 50.981 46.059 51.0759 45.9631C51.1708 45.8671 51.1708 45.7711 51.2658 45.6752C51.3607 45.5792 51.4556 45.5792 51.5506 45.4833C51.6455 45.4833 51.8354 45.4833 51.9303 45.4833C52.1202 45.4833 52.2151 45.4833 52.405 45.5792L52.3101 45.7712C52.2151 45.6752 52.0253 45.6752 51.9303 45.6752C51.8354 45.6752 51.7405 45.6752 51.6455 45.6752C51.5506 45.6752 51.4556 45.7712 51.3607 45.7712C51.2658 45.8671 51.2658 45.8671 51.1708 45.9631C51.1708 46.059 51.0759 46.155 51.0759 46.2509C51.0759 46.3469 51.0759 46.4429 51.0759 46.5388C51.0759 46.6348 51.1708 46.7307 51.2658 46.7307C51.3607 46.8267 51.4556 46.8267 51.4556 46.8267C51.5506 46.8267 51.6455 46.8267 51.7405 46.8267C51.8354 46.8267 51.9303 46.8267 52.0253 46.8267V46.3469H51.6455V46.155H52.2151V46.9227C52.0253 47.0186 51.8354 47.0186 51.6455 47.0186C51.6455 47.2105 51.4556 47.1146 51.2658 47.0186ZM55.443 47.2105L54.8734 46.3469C54.7784 46.155 54.6835 45.9631 54.5886 45.7712C54.5886 45.9631 54.5886 46.155 54.5886 46.4429V47.1146H54.3987V45.4833H54.6835L55.2531 46.3469C55.348 46.5388 55.443 46.7307 55.5379 46.9227C55.5379 46.7307 55.5379 46.5388 55.5379 46.2509V45.5792H55.7278V47.2105H55.443ZM50.6012 47.2105L50.0316 46.3469C49.9367 46.155 49.8417 45.9631 49.7468 45.7712C49.7468 45.9631 49.7468 46.155 49.7468 46.4429V47.1146H49.462V45.4833H49.7468L50.3164 46.3469C50.4113 46.5388 50.5063 46.7307 50.6012 46.9227C50.6012 46.7307 50.6012 46.5388 50.6012 46.2509V45.5792H50.7911V47.2105H50.6012ZM45.0949 47.2105V45.5792H46.0442V45.7712H45.2848V46.2509H45.9493V46.4429H45.2848V47.0186H46.0442V47.2105H45.0949ZM53.7341 46.6348H53.0696L52.8797 47.1146H52.6898L53.2594 45.4833H53.5443L54.1139 47.1146H53.8291L53.7341 46.6348ZM53.2594 46.059L53.1645 46.5388H53.7341L53.4493 46.059C53.4493 45.9631 53.3544 45.8671 53.3544 45.7712C53.3544 45.8671 53.3544 45.9631 53.2594 46.059ZM48.7974 46.6348H48.1329L47.943 47.1146H47.6582L48.2278 45.4833H48.5126L49.0822 47.1146H48.7974V46.6348ZM48.4177 46.059L48.2278 46.5388H48.7974L48.6075 46.059C48.6075 45.9631 48.5126 45.8671 48.5126 45.7712C48.4177 45.8671 48.4177 45.9631 48.4177 46.059ZM46.1392 44.8116V44.6196C46.2341 44.7156 46.424 44.7156 46.5189 44.7156C46.7088 44.7156 46.8987 44.6196 46.8987 44.4277C46.8987 44.2358 46.8037 44.1398 46.6139 44.1398C46.3291 44.0439 46.1392 43.852 46.1392 43.66C46.1392 43.5641 46.2341 43.3722 46.3291 43.2762C46.424 43.1802 46.5189 43.1802 46.7088 43.1802C46.8037 43.1802 46.9936 43.1802 47.0886 43.2762L46.9936 43.4681C46.8987 43.3722 46.8037 43.3722 46.7088 43.3722C46.424 43.3722 46.424 43.4681 46.424 43.66C46.424 43.756 46.5189 43.852 46.8037 43.9479C47.0886 44.0439 47.2784 44.2358 47.2784 44.4277C47.2784 44.7156 47.0886 44.9075 46.6139 44.9075C46.424 44.9075 46.2341 44.8116 46.1392 44.8116ZM43.481 44.8116V44.6196C43.5759 44.6196 43.5759 44.6196 43.6708 44.6196C43.8607 44.6196 43.9556 44.5237 43.9556 44.2358V43.1802H44.1455V44.3318C44.1455 44.8116 43.9556 44.9075 43.5759 44.9075C43.6708 44.9075 43.5759 44.9075 43.481 44.8116ZM47.5632 44.8116H47.2784L47.848 43.1802H48.1329L48.7025 44.8116H48.4177L48.2278 44.3318H47.5632V44.8116ZM47.943 43.66L47.7531 44.1398H48.3227L48.1329 43.66C48.1329 43.5641 48.0379 43.4681 48.0379 43.3722C48.0379 43.4681 47.943 43.5641 47.943 43.66ZM44.4303 44.8116L44.9999 43.1802H45.2848L45.8544 44.8116H45.5696V44.3318H44.905L44.7151 44.8116H44.4303ZM45.0949 43.66L44.905 44.1398H45.4746L45.2848 43.66C45.2848 43.5641 45.1898 43.4681 45.1898 43.3722C45.1898 43.4681 45.1898 43.5641 45.0949 43.66ZM47.2784 42.5085C47.1835 42.5085 47.0886 42.5085 46.9936 42.4126C46.8987 42.4126 46.8037 42.3166 46.7088 42.2206C46.6139 42.2206 46.5189 42.1247 46.5189 42.0287C46.5189 41.9328 46.424 41.8368 46.5189 41.7408C46.5189 41.6449 46.5189 41.5489 46.5189 41.453C46.5189 41.357 46.6139 41.261 46.7088 41.1651C46.8037 41.0691 46.8987 40.9732 46.9936 40.9732C47.0886 40.9732 47.1835 40.8772 47.2784 40.8772C47.3734 40.8772 47.4683 40.8772 47.5632 40.9732C47.6582 40.9732 47.7531 41.0691 47.848 41.1651C47.943 41.261 47.943 41.357 48.0379 41.453C48.0379 41.5489 48.1329 41.6449 48.0379 41.7408C48.0379 41.8368 48.0379 41.9328 48.0379 42.0287C48.0379 42.1247 47.943 42.2206 47.848 42.3166C47.7531 42.4126 47.6582 42.4126 47.5632 42.5085C47.5632 42.5085 47.3734 42.5085 47.2784 42.5085ZM46.8987 42.1247C46.9936 42.2206 46.9936 42.2206 47.0886 42.3166C47.1835 42.3166 47.2784 42.4126 47.2784 42.4126C47.3734 42.4126 47.4683 42.4126 47.5632 42.3166C47.6582 42.3166 47.6582 42.2206 47.7531 42.1247C47.848 42.0287 47.848 42.0287 47.848 41.9328C47.848 41.8368 47.848 41.7408 47.848 41.6449C47.848 41.5489 47.848 41.453 47.848 41.357C47.848 41.261 47.7531 41.1651 47.7531 41.1651C47.6582 41.0691 47.6582 41.0691 47.5632 40.9732C47.4683 40.9732 47.3734 40.8772 47.3734 40.8772C46.9936 40.8772 46.8037 41.261 46.8037 41.5489C46.8037 41.6449 46.8037 41.7408 46.8037 41.8368C46.8037 42.0287 46.8037 42.1247 46.8987 42.1247ZM44.4303 42.5085C44.3354 42.5085 44.2405 42.5085 44.1455 42.4126C44.0506 42.4126 43.9556 42.3166 43.8607 42.2206C43.7658 42.2206 43.6708 42.1247 43.6708 42.0287C43.6708 41.9328 43.5759 41.8368 43.6708 41.7408C43.6708 41.6449 43.6708 41.5489 43.6708 41.453C43.6708 41.357 43.7658 41.261 43.8607 41.1651C43.9556 41.0691 44.0506 40.9732 44.1455 40.9732C44.2405 40.9732 44.3354 40.8772 44.4303 40.8772C44.5253 40.8772 44.6202 40.8772 44.7151 40.9732C44.8101 40.9732 44.905 41.0691 44.9999 41.1651C45.0949 41.261 45.0949 41.357 45.1898 41.453C45.1898 41.5489 45.2848 41.6449 45.1898 41.7408C45.1898 41.8368 45.1898 41.9328 45.1898 42.0287C45.1898 42.1247 45.0949 42.2206 44.9999 42.3166C44.905 42.4126 44.8101 42.4126 44.7151 42.5085C44.6202 42.5085 44.5253 42.5085 44.4303 42.5085ZM44.4303 40.9732C44.3354 40.9732 44.2405 40.9732 44.2405 41.0691C44.1455 41.0691 44.1455 41.1651 44.0506 41.261C43.9556 41.357 43.8607 41.5489 43.8607 41.7408C43.8607 41.8368 43.8607 41.9328 43.8607 42.0287C43.8607 42.1247 43.9556 42.2206 43.9556 42.2206C44.0506 42.3166 44.0506 42.3166 44.1455 42.4126C44.2405 42.5085 44.3354 42.5085 44.3354 42.5085C44.4303 42.5085 44.5253 42.5085 44.6202 42.4126C44.7151 42.4126 44.7151 42.3166 44.8101 42.2206C44.905 42.1247 44.905 42.1247 44.905 42.0287C44.905 41.9328 44.905 41.8368 44.905 41.7408C44.905 41.6449 44.905 41.5489 44.905 41.453C44.905 41.357 44.8101 41.261 44.8101 41.261C44.7151 41.1651 44.7151 41.1651 44.6202 41.0691C44.5253 41.0691 44.4303 40.9732 44.4303 40.9732ZM52.7848 42.4126L52.8797 42.2206C52.9746 42.3166 53.1645 42.3166 53.2594 42.3166C53.4493 42.3166 53.6392 42.2206 53.6392 42.0287C53.6392 41.8368 53.5443 41.7408 53.3544 41.7408C53.0696 41.6449 52.8797 41.5489 52.8797 41.261C52.8797 41.0691 53.0696 40.7812 53.4493 40.7812C53.5442 40.7812 53.7341 40.7812 53.8291 40.8772L53.7341 41.0691C53.6392 40.9732 53.5442 40.9732 53.4493 40.9732C53.1645 40.9732 53.1645 41.1651 53.1645 41.261C53.1645 41.357 53.2594 41.453 53.5443 41.5489C53.8291 41.6449 54.0189 41.8368 54.0189 42.0287C54.0189 42.3166 53.7341 42.5085 53.3544 42.5085C53.0696 42.5085 52.9746 42.5085 52.7848 42.4126ZM50.6012 42.5085V41.0691H50.0316V40.8772H51.3607V41.0691H50.7911V42.5085H50.6012ZM49.7468 42.5085V40.8772H49.9367V42.5085H49.7468ZM45.7594 42.5085V41.0691H45.1898V40.8772H46.5189V41.0691H45.9493V42.5085H45.7594ZM51.4556 42.5085H51.1708L51.7405 40.8772H52.0253L52.5949 42.5085H52.3101L52.1202 42.0287H51.4556V42.5085ZM51.8354 41.357L51.6455 41.8368H52.2151L52.0253 41.357C52.0253 41.261 51.9303 41.1651 51.9303 41.0691C51.9303 41.1651 51.9303 41.261 51.8354 41.357ZM49.5569 42.5085H49.2721C49.1772 42.4126 49.1772 42.2206 49.1772 42.1247C49.0822 41.9328 48.9873 41.8368 48.7974 41.8368H48.6075V42.6045H48.4177V40.9732C48.6075 40.9732 48.7025 40.9732 48.8924 40.9732H48.9873C49.1772 40.9732 49.2721 41.0691 49.462 41.0691C49.462 41.0691 49.5569 41.1651 49.5569 41.261C49.5569 41.357 49.5569 41.357 49.5569 41.453C49.5569 41.5489 49.5569 41.6449 49.462 41.7408C49.367 41.8368 49.367 41.8368 49.2721 41.9328C49.367 41.9328 49.367 42.0287 49.462 42.0287C49.462 42.1247 49.5569 42.1247 49.5569 42.2206C49.367 42.2206 49.462 42.3166 49.5569 42.5085ZM48.6075 40.9732V41.6449H48.7974C49.0822 41.6449 49.1772 41.5489 49.1772 41.357C49.1772 41.1651 48.9873 41.0691 48.7974 41.0691C48.7025 40.9732 48.6075 40.9732 48.6075 40.9732Z" fill="#5B5B5B"/>
</g>
<defs>
<radialGradient id="paint0_radial_1111_124903" cx="0" cy="0" r="1" gradientUnits="userSpaceOnUse" gradientTransform="translate(39.366 42.4447) scale(10.09 5.24481)">
<stop stop-color="#D60015"/>
<stop offset="0.01" stop-color="#D50015"/>
<stop offset="0.27" stop-color="#B60917"/>
<stop offset="0.53" stop-color="#A01019"/>
<stop offset="0.78" stop-color="#93141A"/>
<stop offset="1" stop-color="#8E151A"/>
</radialGradient>
<linearGradient id="paint1_linear_1111_124903" x1="32.7549" y1="36.4763" x2="31.3663" y2="42.3087" gradientUnits="userSpaceOnUse">
<stop stop-color="#E78B62"/>
<stop offset="0.02" stop-color="#DC684E"/>
<stop offset="0.05" stop-color="#D24C3D"/>
<stop offset="0.08" stop-color="#CB3630"/>
<stop offset="0.11" stop-color="#C62627"/>
<stop offset="0.14" stop-color="#C31D22"/>
<stop offset="0.19" stop-color="#C21A20"/>
<stop offset="0.25" stop-color="#D04239"/>
<stop offset="0.33" stop-color="#E17157"/>
<stop offset="0.37" stop-color="#E78362"/>
<stop offset="0.39" stop-color="#E57A5C"/>
<stop offset="0.5" stop-color="#DD5A46"/>
<stop offset="0.61" stop-color="#D64235"/>
<stop offset="0.73" stop-color="#D23029"/>
<stop offset="0.85" stop-color="#CF2522"/>
<stop offset="1" stop-color="#CE2220"/>
</linearGradient>
<linearGradient id="paint2_linear_1111_124903" x1="33.3484" y1="45.8885" x2="35.0719" y2="37.3736" gradientUnits="userSpaceOnUse">
<stop stop-color="#878787"/>
<stop offset="0.09" stop-color="#959595"/>
<stop offset="0.27" stop-color="#BABABA"/>
<stop offset="0.51" stop-color="#F6F6F6"/>
<stop offset="0.55" stop-color="white"/>
<stop offset="0.57" stop-color="#F5F5F5"/>
<stop offset="0.64" stop-color="#D9D9D9"/>
<stop offset="0.69" stop-color="#C8C8C8"/>
<stop offset="0.74" stop-color="#C2C2C2"/>
<stop offset="0.79" stop-color="#CFCFCF"/>
<stop offset="0.9" stop-color="#F2F2F2"/>
<stop offset="0.93" stop-color="white"/>
<stop offset="0.97" stop-color="#F3F3F3"/>
<stop offset="1" stop-color="#E0E0E0"/>
</linearGradient>
<clipPath id="clip0_1111_124903">
<rect width="60" height="57" fill="white"/>
</clipPath>
</defs>
</svg>
