<svg width="210" height="203" viewBox="0 0 210 203" fill="none" xmlns="http://www.w3.org/2000/svg">
<path d="M143.438 199.458H56.086C25.3031 199.458 0 174.184 0 143.275V56.0222C0 25.2744 25.3031 0 56.086 0H143.438C174.382 0 199.524 25.2744 199.524 56.0222V143.275C199.685 174.184 174.382 199.458 143.438 199.458Z" fill="#C0F9FC"/>
<path d="M146.178 188.511H54.4742C32.3944 188.511 14.3438 170.481 14.3438 148.426V135.225C14.3438 113.171 32.3944 95.1406 54.4742 95.1406H146.178C168.258 95.1406 186.308 113.171 186.308 135.225V148.426C186.308 170.481 168.258 188.511 146.178 188.511Z" fill="#8CE6F4"/>
<path d="M152.625 21.8945H50.7674C42.2256 21.8945 35.1343 28.8168 35.1343 37.5099V195.274C41.5809 197.849 48.6723 199.298 56.0859 199.298H143.438C152.302 199.298 160.683 197.205 168.097 193.503V37.3489C168.097 28.9778 161.166 21.8945 152.625 21.8945Z" fill="#11748E"/>
<path d="M148.596 28.1719H54.6355C47.5442 28.1719 41.7422 33.9673 41.7422 41.0505V197.526C46.2549 198.814 51.0898 199.458 56.086 199.458H143.438C149.724 199.458 155.848 198.331 161.489 196.399V41.0505C161.489 33.9673 155.687 28.1719 148.596 28.1719Z" fill="#2FAAE1"/>
<path d="M121.359 176.275H62.5327L70.4299 84.0312H124.904L121.359 176.275Z" fill="#F09537"/>
<path d="M133.768 163.557L121.358 176.275L124.904 84.0312H138.603L144.889 174.826L133.768 163.557Z" fill="#F6C957"/>
<path d="M133.768 163.559L144.889 174.827L121.358 176.276L133.768 163.559Z" fill="#F09537"/>
<path d="M107.659 84.0318V78.0754C107.659 76.3046 108.304 74.6948 109.593 73.5679C110.722 72.441 112.333 71.6361 114.106 71.6361H120.069C121.842 71.6361 123.454 72.28 124.582 73.5679C125.71 74.6948 126.516 76.3046 126.516 78.0754V84.0318H132.479V78.0754C132.479 74.6948 131.029 71.4751 128.772 69.3823C126.516 67.1285 123.454 65.6797 120.069 65.6797H114.106C110.722 65.6797 107.498 67.1285 105.242 69.3823C102.986 71.6361 101.535 74.6948 101.535 78.0754V84.0318H107.659Z" fill="#F6C957"/>
<path d="M89.1253 84.0322V77.5929C89.1253 75.6611 89.9312 73.8903 91.2205 72.6024C92.5098 71.3146 94.2827 70.5096 96.2167 70.5096H102.663C104.597 70.5096 106.37 71.3146 107.659 72.6024C108.949 73.8903 109.755 75.6611 109.755 77.5929V84.0322H116.362V77.5929C116.362 73.8903 114.912 70.5096 112.333 68.0949C109.916 65.6801 106.531 64.0703 102.824 64.0703H96.3778C92.671 64.0703 89.2865 65.5192 86.869 68.0949C84.4515 70.5096 82.8398 73.8903 82.8398 77.5929V84.0322H89.1253Z" fill="#F09537"/>
<path opacity="0.15" d="M54.6355 28.1719C47.5442 28.1719 41.7422 33.9673 41.7422 41.0505V197.526C46.2548 198.814 51.0898 199.458 56.086 199.458H81.228L148.596 28.1719H54.6355Z" fill="white"/>
<path d="M120.875 35.9004H82.5174C79.1329 35.9004 76.2319 33.0027 76.2319 29.6221C76.2319 26.2414 79.1329 23.3438 82.5174 23.3438H120.875C124.26 23.3438 127.161 26.2414 127.161 29.6221C127.161 33.0027 124.26 35.9004 120.875 35.9004Z" fill="#11748E"/>
<path d="M142.955 137.157H63.1772C56.8917 137.157 51.7344 132.005 51.7344 125.727C51.7344 119.448 56.8917 114.297 63.1772 114.297H142.955C149.24 114.297 154.397 119.448 154.397 125.727C154.397 132.005 149.24 137.157 142.955 137.157Z" fill="#EE7988"/>
<path d="M64.6277 130.232C63.8218 130.232 63.4995 129.91 63.4995 129.105V122.666C63.4995 121.861 63.8218 121.539 64.6277 121.539H67.0452C68.4957 121.539 69.785 121.861 70.5908 122.666C71.3967 123.471 71.8802 124.437 71.8802 125.886C71.8802 127.334 71.3967 128.3 70.5908 129.105C69.785 129.91 68.6568 130.232 67.0452 130.232H64.6277ZM65.7558 128.3H66.884C67.6898 128.3 68.3345 128.139 68.818 127.656C69.3015 127.173 69.4627 126.53 69.4627 125.725C69.4627 124.92 69.3015 124.276 68.818 123.793C68.3345 123.31 67.6898 123.149 66.884 123.149H65.7558V128.3Z" fill="white"/>
<path d="M74.4587 130.233C74.1364 130.233 73.8141 130.072 73.6529 129.911C73.4917 129.75 73.3306 129.428 73.3306 129.106V122.506C73.3306 122.184 73.4917 121.862 73.6529 121.701C73.8141 121.54 74.1364 121.379 74.4587 121.379C74.7811 121.379 75.1034 121.54 75.2646 121.701C75.4257 121.862 75.5869 122.184 75.5869 122.506V129.106C75.5869 129.428 75.4257 129.75 75.2646 129.911C75.1034 130.233 74.7811 130.233 74.4587 130.233Z" fill="white"/>
<path d="M78.3269 130.232C77.5211 130.232 77.1987 129.91 77.1987 129.105V122.666C77.1987 121.861 77.5211 121.539 78.3269 121.539H81.3891C82.3561 121.539 83.0007 121.7 83.6454 122.183C84.2901 122.666 84.4512 123.149 84.4512 123.793C84.4512 124.276 84.2901 124.598 84.1289 124.92C83.9677 125.242 83.6454 125.564 83.1619 125.725C83.6454 125.886 83.9677 126.047 84.2901 126.53C84.6124 127.012 84.6124 127.334 84.6124 127.817C84.6124 128.622 84.2901 129.266 83.8066 129.588C83.3231 129.91 82.5172 130.232 81.5502 130.232H78.3269ZM79.2939 124.92H80.9056C81.3891 124.92 81.5502 124.92 81.8726 124.759C82.0337 124.598 82.1949 124.437 82.1949 124.115C82.1949 123.793 82.0337 123.632 81.8726 123.471C81.7114 123.31 81.3891 123.31 80.9056 123.31H79.2939V124.92ZM79.2939 128.461H81.0667C81.5502 128.461 81.8726 128.461 82.0337 128.139C82.1949 127.978 82.3561 127.817 82.3561 127.495C82.3561 127.173 82.1949 127.013 82.0337 126.852C81.8726 126.691 81.5502 126.691 81.0667 126.691H79.2939V128.461Z" fill="white"/>
<path d="M86.2241 130.232C85.9017 130.232 85.5794 130.071 85.4182 129.91C85.2571 129.588 85.2571 129.266 85.4182 128.944L88.4804 122.344C88.6416 122.022 88.8027 121.861 88.9639 121.7C89.1251 121.539 89.4474 121.539 89.7697 121.539C90.0921 121.539 90.2532 121.539 90.5756 121.7C90.7367 121.861 90.8979 122.022 91.0591 122.344L94.1212 128.944C94.2824 129.427 94.2824 129.749 94.1212 129.91C93.9601 130.071 93.6377 130.232 93.3154 130.232C92.9931 130.232 92.6707 130.232 92.5096 130.071C92.3484 129.91 92.1872 129.749 92.0261 129.427L91.7037 128.461H87.8357L87.5134 129.427C87.3522 129.749 87.1911 130.071 87.0299 130.071C86.7076 130.232 86.5464 130.232 86.2241 130.232ZM89.7697 123.793L88.6416 126.691H91.0591L89.7697 123.793Z" fill="white"/>
<path d="M97.5057 130.233C97.1834 130.233 96.8611 130.072 96.6999 129.911C96.5387 129.75 96.3776 129.428 96.3776 129.106V123.311H94.4436C93.7989 123.311 93.4766 122.989 93.4766 122.345C93.4766 121.701 93.7989 121.379 94.4436 121.379H100.568C101.213 121.379 101.535 121.701 101.535 122.345C101.535 122.989 101.213 123.311 100.568 123.311H98.6339V129.106C98.6339 129.428 98.4727 129.75 98.3116 129.911C98.1504 130.233 97.8281 130.233 97.5057 130.233Z" fill="white"/>
<path d="M101.696 130.232C101.373 130.232 101.051 130.071 100.89 129.91C100.729 129.588 100.729 129.266 100.89 128.944L103.952 122.344C104.113 122.022 104.274 121.861 104.436 121.7C104.597 121.539 104.919 121.539 105.241 121.539C105.564 121.539 105.725 121.539 106.047 121.7C106.208 121.861 106.37 122.022 106.531 122.344L109.593 128.944C109.754 129.427 109.754 129.749 109.593 129.91C109.432 130.071 109.109 130.232 108.787 130.232C108.465 130.232 108.142 130.232 107.981 130.071C107.82 129.91 107.659 129.749 107.498 129.427L107.175 128.461H103.307L102.985 129.427C102.824 129.749 102.663 130.071 102.502 130.071C102.179 130.232 102.018 130.232 101.696 130.232ZM105.241 123.793L104.113 126.691H106.37L105.241 123.793Z" fill="white"/>
<path d="M111.849 130.232C111.527 130.232 111.205 130.071 111.044 129.91C110.882 129.749 110.721 129.427 110.721 129.105V122.666C110.721 122.344 110.882 122.022 111.044 121.861C111.205 121.7 111.527 121.539 111.849 121.539C112.172 121.539 112.494 121.7 112.655 121.861C112.816 122.022 112.978 122.344 112.978 122.666V128.3H116.04C116.362 128.3 116.523 128.461 116.846 128.622C117.007 128.783 117.168 128.944 117.168 129.266C117.168 129.588 117.007 129.749 116.846 129.91C116.684 130.071 116.362 130.232 116.04 130.232H111.849Z" fill="white"/>
<path d="M119.102 130.233C118.779 130.233 118.457 130.072 118.296 129.911C118.135 129.75 117.974 129.428 117.974 129.106V122.506C117.974 122.184 118.135 121.862 118.296 121.701C118.457 121.54 118.779 121.379 119.102 121.379C119.424 121.379 119.746 121.54 119.908 121.701C120.069 121.862 120.23 122.184 120.23 122.506V125.243L123.292 121.862C123.453 121.701 123.614 121.54 123.776 121.54C123.937 121.379 124.098 121.379 124.42 121.379C124.743 121.379 125.065 121.54 125.226 121.701C125.387 121.862 125.387 122.023 125.387 122.345C125.387 122.506 125.226 122.828 125.065 122.989L122.486 125.564L125.226 128.623C125.387 128.784 125.548 129.106 125.548 129.428C125.548 129.75 125.387 129.911 125.226 130.072C125.065 130.233 124.743 130.394 124.42 130.394C124.098 130.394 123.937 130.394 123.776 130.233C123.614 130.072 123.453 129.911 123.292 129.75L120.23 126.369V129.267C120.23 129.589 120.069 129.911 119.908 130.072C119.746 130.233 119.424 130.233 119.102 130.233Z" fill="white"/>
<path d="M126.838 130.232C126.516 130.232 126.193 130.071 126.032 129.91C125.871 129.588 125.871 129.266 126.032 128.944L129.094 122.344C129.255 122.022 129.417 121.861 129.578 121.7C129.739 121.539 130.061 121.539 130.384 121.539C130.706 121.539 130.867 121.539 131.189 121.7C131.351 121.861 131.512 122.022 131.673 122.344L134.735 128.944C134.896 129.427 134.896 129.749 134.735 129.91C134.574 130.071 134.251 130.232 133.929 130.232C133.607 130.232 133.284 130.232 133.123 130.071C132.962 129.91 132.801 129.749 132.64 129.427L132.318 128.461H128.45L128.127 129.427C127.966 129.749 127.805 130.071 127.644 130.071C127.483 130.232 127.16 130.232 126.838 130.232ZM130.384 123.793L129.255 126.691H131.673L130.384 123.793Z" fill="white"/>
<path d="M136.991 130.234C136.347 130.234 135.863 129.912 135.863 129.107V122.346C135.863 122.024 136.024 121.702 136.186 121.541C136.347 121.38 136.669 121.219 136.83 121.219C137.153 121.219 137.314 121.219 137.475 121.38C137.636 121.541 137.797 121.702 137.958 121.863L141.504 126.37V122.346C141.504 121.702 141.826 121.219 142.632 121.219C142.955 121.219 143.277 121.38 143.438 121.541C143.599 121.702 143.76 122.024 143.76 122.346V129.268C143.76 129.59 143.599 129.751 143.438 130.073C143.277 130.395 143.116 130.395 142.793 130.395C142.471 130.395 142.31 130.395 142.149 130.234C141.988 130.073 141.826 129.912 141.665 129.751L138.12 125.243V129.268C138.12 129.912 137.636 130.234 136.991 130.234Z" fill="white"/>
</svg>
