<svg width="64" height="57" viewBox="0 0 64 57" fill="none" xmlns="http://www.w3.org/2000/svg">
<path d="M41.0947 57H16.0722C7.21805 57 0 49.7071 0 40.9747V16.0253C0 7.19697 7.21805 0 16.0722 0H41.0947C49.9489 0 57.1669 7.19697 57.1669 16.0253V40.9747C57.1669 49.7071 49.8526 57 41.0947 57Z" fill="#C0F9FC"/>
<path d="M41.7683 54.2175H15.4946C9.14275 54.2175 4.04199 49.0357 4.04199 42.7983V39.0559C4.04199 32.7226 9.23899 27.6367 15.4946 27.6367H41.7683C48.1202 27.6367 53.2209 32.8185 53.2209 39.0559V42.7983C53.2209 49.0357 48.024 54.2175 41.7683 54.2175Z" fill="#8CE6F4"/>
<path d="M37.245 30.3243L47.4465 40.496L63.9999 23.9909L63.3262 22.2637L47.4465 32.0516L36.5713 28.597L37.245 30.3243Z" fill="#7EAC54"/>
<path d="M36.5713 28.5966L46.7728 38.7683L63.3262 22.2632L59.0916 18.041L46.7728 30.3238L40.8059 24.3743L36.5713 28.5966Z" fill="#B8DD82"/>
<path d="M46.7729 38.7687L47.4466 40.496L64 23.9909L63.3263 22.2637L46.7729 38.7687Z" fill="#98CB72"/>
<path d="M54.0869 23.9914L51.1997 33.2035L54.4719 30.1328L57.3591 20.6328L54.0869 23.9914Z" fill="#EFFFB7"/>
<path d="M51.9697 26.1015L49.0825 35.1217L50.5261 33.7783L53.4133 24.6621L51.9697 26.1015Z" fill="#EFFFB7"/>
<path d="M40.8057 24.3743L46.7726 30.3238L59.0914 18.041L46.8688 30.7077L40.8057 24.3743Z" fill="#EFFFB7"/>
<path d="M34.5504 49.9938C33.7805 49.9938 33.3955 49.61 33.3955 48.8423V42.5089C33.3955 41.7413 33.7805 41.3574 34.5504 41.3574H37.5339C38.4963 41.3574 39.1699 41.5493 39.7474 41.9332C40.2286 42.317 40.5173 42.8928 40.5173 43.5645C40.5173 44.0443 40.4211 44.4281 40.1324 44.716C39.9399 45.0998 39.5549 45.2918 39.1699 45.4837C39.6511 45.6756 40.0361 45.8675 40.3248 46.2514C40.6136 46.6352 40.7098 47.019 40.7098 47.5948C40.7098 48.3625 40.4211 48.9382 39.8436 49.418C39.2662 49.8978 38.4963 50.0897 37.6301 50.0897H34.5504V49.9938ZM35.5128 44.716H37.1489C37.5339 44.716 37.8226 44.6201 38.0151 44.5241C38.2075 44.3322 38.3038 44.1403 38.3038 43.8524C38.3038 43.5645 38.2075 43.2766 38.0151 43.1807C37.8226 42.9887 37.5339 42.9887 37.1489 42.9887H35.5128V44.716ZM35.5128 48.2665H37.3414C37.7263 48.2665 38.1113 48.1706 38.3038 47.9786C38.4963 47.7867 38.5925 47.5948 38.5925 47.211C38.5925 46.9231 38.4963 46.6352 38.3038 46.5392C38.1113 46.3473 37.8226 46.3473 37.3414 46.3473H35.5128V48.2665Z" fill="#F09537"/>
<path d="M44.2707 50.0905C43.5008 50.0905 42.9233 49.8986 42.5384 49.4188C42.1534 49.035 41.9609 48.3632 41.9609 47.4996V42.2218C41.9609 41.4542 42.3459 41.0703 43.0196 41.0703C43.4045 41.0703 43.6933 41.1663 43.8857 41.3582C44.0782 41.5501 44.1745 41.838 44.1745 42.2218V47.4036C44.1745 47.6915 44.2707 47.9794 44.367 48.0754C44.4632 48.1713 44.6557 48.2673 44.8482 48.2673C44.9444 48.2673 44.9444 48.2673 45.0406 48.2673C45.1369 48.2673 45.1369 48.2673 45.2331 48.2673C45.4256 48.2673 45.5218 48.3632 45.5218 48.4592C45.6181 48.5552 45.6181 48.7471 45.6181 49.1309C45.6181 49.4188 45.5218 49.6107 45.4256 49.8026C45.3294 49.9946 45.1369 49.9946 44.8482 50.0905C44.7519 50.0905 44.6557 50.0905 44.5594 50.0905C44.4632 50.0905 44.367 50.0905 44.2707 50.0905Z" fill="#F09537"/>
<path d="M47.3502 50.0914C46.9652 50.0914 46.6765 49.9954 46.5802 49.8035C46.484 49.6116 46.2915 49.3237 46.2915 48.9399V44.8136C46.2915 44.0459 46.6765 43.7581 47.3502 43.7581C48.0238 43.7581 48.4088 44.0459 48.4088 44.7177C48.6013 44.4298 48.89 44.1419 49.275 43.95C49.6599 43.7581 50.0449 43.6621 50.4299 43.6621C51.1998 43.6621 51.681 43.854 52.0659 44.3338C52.4509 44.7177 52.5471 45.3894 52.5471 46.349V48.9399C52.5471 49.3237 52.4509 49.6116 52.2584 49.8035C52.0659 49.9954 51.7772 50.0914 51.3923 50.0914C51.0073 50.0914 50.7186 49.9954 50.5261 49.8035C50.3336 49.6116 50.2374 49.3237 50.2374 48.9399V46.4449C50.2374 46.0611 50.1411 45.7732 50.0449 45.6773C49.9486 45.4853 49.7562 45.4853 49.4674 45.4853C49.1787 45.4853 48.89 45.5813 48.6975 45.7732C48.505 45.9651 48.4088 46.253 48.4088 46.6369V48.9399C48.505 49.7076 48.1201 50.0914 47.3502 50.0914Z" fill="#F09537"/>
<path d="M18.0929 48.3631C16.553 48.3631 15.0132 48.1711 13.4733 47.7873C11.9335 47.4035 10.3936 46.8277 9.04625 46.156C8.18008 45.6762 7.5064 45.1004 7.21768 44.3328C6.83272 43.5651 6.73648 42.7974 6.83272 41.9338C6.92896 41.0701 7.21768 40.3984 7.69888 39.7267C8.18008 39.055 8.85377 38.5752 9.62369 38.3833C10.3936 38.1913 11.2598 38.2873 12.3184 38.6711C13.4733 39.1509 14.4357 39.5348 15.3981 39.7267C16.3605 39.9186 17.3229 40.0146 18.1891 40.0146C23.7711 40.0146 26.4658 36.56 26.4658 29.7469V29.3631C25.6959 30.9944 24.541 32.1459 23.0011 33.1055C21.4613 33.9691 19.729 34.4489 17.8041 34.4489C15.6869 34.4489 13.762 33.8732 12.0297 32.8176C10.2974 31.7621 8.95001 30.2267 7.9876 28.3075C7.0252 26.3883 6.44775 24.1812 6.44775 21.7823C6.44775 19.0954 7.0252 16.7924 8.18008 14.7772C9.33497 12.7621 10.8748 11.1307 12.8959 9.97923C14.9169 8.82771 17.2267 8.25195 19.9214 8.25195C25.0222 8.25195 28.9681 9.97923 31.759 13.4338C34.55 16.8883 35.8974 21.6863 35.8974 28.0196C35.8974 32.3378 35.2237 35.9843 33.7801 39.055C32.3365 42.1257 30.3154 44.4287 27.6207 46.06C25.0222 47.5954 21.8463 48.3631 18.0929 48.3631ZM20.4989 26.6762C21.9425 26.6762 23.0974 26.1964 23.9635 25.2368C24.8297 24.2772 25.3109 22.9338 25.3109 21.3025C25.3109 19.6711 24.8297 18.4237 23.9635 17.3681C23.0974 16.4085 21.9425 15.9287 20.4989 15.9287C19.0553 15.9287 17.9004 16.4085 17.0342 17.3681C16.1681 18.3277 15.6869 19.6711 15.6869 21.3025C15.6869 22.9338 16.1681 24.1812 17.0342 25.2368C17.9004 26.1964 19.0553 26.6762 20.4989 26.6762Z" fill="#F09537"/>
<path d="M16.7457 47.3084C15.2058 47.3084 13.666 47.1165 12.1261 46.7326C10.5863 46.4447 9.04645 45.869 7.69908 45.1013C6.83292 44.6215 6.15923 44.0457 5.87051 43.2781C5.48555 42.5104 5.38931 41.7427 5.48555 40.8791C5.58179 40.0154 5.87051 39.3437 6.35171 38.672C6.83292 38.0003 7.5066 37.5205 8.27653 37.3286C9.04645 37.1367 9.91261 37.2326 10.9713 37.6165C12.1261 38.0963 13.0886 38.4801 14.051 38.672C15.0134 38.8639 15.9758 38.9599 16.8419 38.9599C22.4239 38.9599 25.1186 35.5053 25.1186 28.6922V28.3084C24.3487 29.9397 23.1938 31.0912 21.654 32.0508C20.1141 32.9144 18.3818 33.3942 16.457 33.3942C14.3397 33.3942 12.4149 32.8185 10.6825 31.7629C8.95021 30.7074 7.60284 29.172 6.64044 27.2528C5.67803 25.3336 5.10059 23.1266 5.10059 20.7276C5.10059 18.0407 5.67803 15.7377 6.83292 13.7225C7.9878 11.7074 9.52765 10.0761 11.5487 8.92454C13.5698 7.77302 15.8795 7.19727 18.5743 7.19727C23.675 7.19727 27.6209 8.92454 30.4119 12.3791C33.2991 15.7377 34.6464 20.6316 34.6464 26.869C34.6464 31.1872 33.9728 34.8336 32.5292 37.9043C31.0855 40.975 29.0645 43.2781 26.3698 44.9094C23.675 46.5407 20.4991 47.3084 16.7457 47.3084ZM19.1517 25.6215C20.5953 25.6215 21.7502 25.1417 22.6164 24.1821C23.4825 23.2225 23.9637 21.8791 23.9637 20.2478C23.9637 18.6165 23.4825 17.369 22.6164 16.3134C21.7502 15.3538 20.5953 14.874 19.1517 14.874C17.7081 14.874 16.5532 15.3538 15.6871 16.3134C14.8209 17.273 14.3397 18.6165 14.3397 20.2478C14.3397 21.8791 14.8209 23.1266 15.6871 24.1821C16.5532 25.1417 17.7081 25.6215 19.1517 25.6215Z" fill="#F6C957"/>
<path d="M12.126 31.8589L14.7245 23.9902C14.7245 23.9902 16.553 26.6771 19.729 26.1973L17.7079 32.6266C17.7079 32.7226 14.2433 33.2983 12.126 31.8589Z" fill="#FAE78D"/>
<path d="M18.0931 14.2018C17.9006 14.2018 20.4029 7.77255 20.4029 7.77255C20.4029 7.77255 23.5788 7.67659 25.6961 9.3079L23.5788 15.7372C23.4826 15.8332 21.4615 13.5301 18.0931 14.2018Z" fill="#FAE78D"/>
<path d="M11.0676 38.5762L8.66162 44.6216C8.66162 44.6216 11.4526 46.2529 14.1473 46.3489L16.6496 39.7277C16.7458 39.6317 13.8586 40.1115 11.0676 38.5762Z" fill="#FAE78D"/>
<path d="M26.7548 9.78906L24.0601 16.5062C24.0601 16.5062 24.7337 17.8497 24.9262 19.2891L27.7172 10.7487C27.8134 10.7487 27.236 10.1729 26.7548 9.78906Z" fill="#FAE78D"/>
<path d="M20.8839 26.0049L18.6704 32.5301C18.6704 32.5301 19.5366 32.722 20.7877 31.7624L23.4824 24.1816C23.4824 24.1816 22.1351 25.717 20.8839 26.0049Z" fill="#FAE78D"/>
<path d="M17.8046 39.6321L15.2061 46.2534C15.2061 46.2534 16.2647 46.6372 17.7083 46.4453L20.2106 39.1523C20.2106 39.1523 18.767 39.6321 17.8046 39.6321Z" fill="#FAE78D"/>
<path d="M34.0689 49.4176C33.299 49.4176 32.9141 49.0338 32.9141 48.2661V41.9328C32.9141 41.1651 33.299 40.7812 34.0689 40.7812H37.0524C38.0148 40.7812 38.6885 40.9732 39.2659 41.357C39.7471 41.7408 40.0359 42.3166 40.0359 42.9883C40.0359 43.4681 39.9396 43.852 39.6509 44.1398C39.4584 44.5237 39.0735 44.7156 38.6885 44.9075C39.1697 45.0994 39.5547 45.2913 39.8434 45.6752C40.1321 46.059 40.2283 46.4429 40.2283 47.0186C40.2283 47.7863 39.9396 48.3621 39.3622 48.8419C38.7847 49.3217 38.0148 49.5136 37.1486 49.5136H34.0689V49.4176ZM35.0314 44.1398H36.6674C37.0524 44.1398 37.3411 44.0439 37.5336 43.9479C37.7261 43.756 37.8223 43.5641 37.8223 43.2762C37.8223 42.9883 37.7261 42.7004 37.5336 42.6045C37.3411 42.4126 37.0524 42.4126 36.6674 42.4126H35.0314V44.1398ZM35.0314 47.6903H36.8599C37.2449 47.6903 37.6298 47.5944 37.8223 47.4025C38.0148 47.2105 38.1111 47.0186 38.1111 46.6348C38.1111 46.3469 38.0148 46.059 37.8223 45.9631C37.6298 45.7712 37.3411 45.7712 36.8599 45.7712H35.0314V47.6903Z" fill="#F6C957"/>
<path d="M43.7893 49.5143C43.0193 49.5143 42.4419 49.3224 42.0569 48.8426C41.672 48.4588 41.4795 47.7871 41.4795 46.9234V41.6457C41.4795 40.878 41.8645 40.4941 42.5381 40.4941C42.9231 40.4941 43.2118 40.5901 43.4043 40.782C43.5968 40.9739 43.693 41.2618 43.693 41.6457V46.8275C43.693 47.1154 43.7893 47.4032 43.8855 47.4992C43.9817 47.5951 44.1742 47.6911 44.3667 47.6911C44.463 47.6911 44.463 47.6911 44.5592 47.6911C44.6554 47.6911 44.6554 47.6911 44.7517 47.6911C44.9442 47.6911 45.0404 47.7871 45.0404 47.883C45.1366 47.979 45.1366 48.1709 45.1366 48.5547C45.1366 48.8426 45.0404 49.0345 44.9442 49.2265C44.8479 49.4184 44.6554 49.4184 44.3667 49.5143C44.2705 49.5143 44.1742 49.5143 44.078 49.5143C43.9817 49.5143 43.8855 49.5143 43.7893 49.5143Z" fill="#F6C957"/>
<path d="M46.8687 49.5152C46.4837 49.5152 46.195 49.4193 46.0988 49.2274C46.0025 49.0354 45.8101 48.7476 45.8101 48.3637V44.2374C45.8101 43.4698 46.195 43.1819 46.8687 43.1819C47.5424 43.1819 47.9274 43.4698 47.9274 44.1415C48.1198 43.8536 48.4086 43.5657 48.7935 43.3738C49.1785 43.1819 49.5634 43.0859 49.9484 43.0859C50.7183 43.0859 51.1995 43.2779 51.5845 43.7577C51.9695 44.1415 52.0657 44.8132 52.0657 45.7728V48.3637C52.0657 48.7476 51.9695 49.0354 51.777 49.2274C51.5845 49.4193 51.2958 49.5152 50.9108 49.5152C50.5259 49.5152 50.2371 49.4193 50.0446 49.2274C49.8522 49.0354 49.7559 48.7476 49.7559 48.3637V45.8688C49.7559 45.4849 49.6597 45.197 49.5634 45.1011C49.4672 44.9092 49.2747 44.9092 48.986 44.9092C48.6973 44.9092 48.4086 45.0051 48.2161 45.197C48.0236 45.389 47.9274 45.6768 47.9274 46.0607V48.4597C48.0236 49.1314 47.6386 49.5152 46.8687 49.5152Z" fill="#F6C957"/>
</svg>
