<svg width="178" height="185" viewBox="0 0 178 185" fill="none" xmlns="http://www.w3.org/2000/svg">
<g clip-path="url(#clip0_771_99793)">
<path d="M127.861 178H49.9952C22.5553 178 0 155.445 0 127.861V49.9952C0 22.5553 22.5553 0 49.9952 0H127.861C155.445 0 177.856 22.5553 177.856 49.9952V127.861C178 155.445 155.445 178 127.861 178Z" fill="#FAE78D"/>
<path d="M130.303 168.232H48.5585C28.8765 168.232 12.7861 152.141 12.7861 132.459V120.679C12.7861 100.997 28.8765 84.9062 48.5585 84.9062H130.303C149.985 84.9062 166.076 100.997 166.076 120.679V132.459C166.076 152.141 149.985 168.232 130.303 168.232Z" fill="#F9DD60"/>
<path d="M136.05 19.5391H45.2543C37.6401 19.5391 31.3188 25.7166 31.3188 33.4745V174.265C37.0654 176.564 43.3866 177.857 49.9952 177.857H127.861C135.763 177.857 143.233 175.989 149.842 172.685V33.3308C149.842 25.8603 143.664 19.5391 136.05 19.5391Z" fill="#11748E"/>
<path d="M132.458 25.1406H48.7021C42.3809 25.1406 37.209 30.3125 37.209 36.6338V176.275C41.2316 177.425 45.5415 177.999 49.9951 177.999H127.861C133.464 177.999 138.923 176.994 143.952 175.27V36.6338C143.952 30.3125 138.78 25.1406 132.458 25.1406Z" fill="#2FAAE1"/>
<path opacity="0.15" d="M48.7021 25.1406C42.3809 25.1406 37.209 30.3125 37.209 36.6338V176.275C41.2316 177.425 45.5415 177.999 49.9951 177.999H72.4067L132.458 25.1406H48.7021Z" fill="white"/>
<path d="M107.748 32.0378H73.556C70.5391 32.0378 67.9531 29.4519 67.9531 26.4349C67.9531 23.418 70.5391 20.832 73.556 20.832H107.748C110.765 20.832 113.351 23.418 113.351 26.4349C113.351 29.4519 110.765 32.0378 107.748 32.0378Z" fill="#11748E"/>
<path d="M94.8185 84.905C106.403 84.905 115.793 75.5142 115.793 63.9301C115.793 52.3459 106.403 42.9551 94.8185 42.9551C83.2343 42.9551 73.8435 52.3459 73.8435 63.9301C73.8435 75.5142 83.2343 84.905 94.8185 84.905Z" fill="#F09537"/>
<path d="M93.5255 83.0378C105.11 83.0378 114.5 73.647 114.5 62.0629C114.5 50.4787 105.11 41.0879 93.5255 41.0879C81.9414 41.0879 72.5505 50.4787 72.5505 62.0629C72.5505 73.647 81.9414 83.0378 93.5255 83.0378Z" fill="#F6C957"/>
<path d="M87.7788 46.9778C91.9451 45.3975 96.3987 45.6848 100.134 47.2651C103.869 48.9891 107.03 52.006 108.61 56.1723C108.754 56.6033 109.328 56.8906 109.759 56.7469C110.19 56.6033 110.478 56.0286 110.334 55.5976C106.743 46.2594 96.3987 41.6622 87.0605 45.2538C86.6295 45.3975 86.3422 45.9721 86.4859 46.4031C86.7732 46.9778 87.2042 47.2651 87.7788 46.9778Z" fill="#F9ED4F"/>
<path d="M86.7734 71.114C85.9114 71.4013 85.3368 71.114 85.0494 70.3957L80.7395 59.3335C80.4522 58.4715 80.7395 57.8969 81.4578 57.6096L86.0551 55.8856C87.4917 55.3109 88.7847 55.1673 89.7903 55.5983C90.796 56.0292 91.658 56.8912 92.089 58.0405C92.52 59.0462 92.52 59.9082 92.2326 60.7702C91.9453 61.6322 91.3707 62.3505 90.5087 62.9251C91.227 62.9251 91.9453 63.2125 92.6636 63.7871L95.1059 65.9421C95.5369 66.2294 95.6806 66.6604 95.6806 66.9477C95.6806 67.3787 95.3932 67.666 94.9623 67.8097C94.6749 67.9534 94.2439 67.9534 94.1003 67.9534L93.382 67.5224L90.0777 64.7928C89.6467 64.5054 89.3594 64.2181 88.9284 64.2181C88.4974 64.2181 88.0664 64.2181 87.6354 64.5054L85.7677 65.2238L87.3481 69.5337C87.9227 70.252 87.6354 70.8267 86.7734 71.114ZM85.1931 63.3561L88.21 62.2068C89.934 61.4885 90.6523 60.4828 90.0777 59.0462C89.503 57.6096 88.3537 57.1786 86.6297 57.8969L83.6128 59.0462L85.1931 63.3561Z" fill="white"/>
<path d="M100.852 69.678C100.134 69.9653 99.5594 69.678 99.2721 68.9597L95.2495 58.3285C94.9621 57.4665 95.1058 57.0355 95.9678 56.7482C96.6861 56.4609 97.2608 56.7482 97.5481 57.4665L97.6918 57.8975C97.8354 57.3229 97.9791 56.7482 98.4101 56.3172C98.8411 55.8862 99.4157 55.4552 100.134 55.1679C100.996 54.8806 101.714 54.7369 102.433 54.8806C103.151 55.0242 103.869 55.4552 104.444 56.0299C105.019 56.6045 105.593 57.4665 105.881 58.4722C106.312 59.4778 106.455 60.3398 106.312 61.2018C106.312 62.0638 106.024 62.7821 105.593 63.3568C105.162 63.9314 104.444 64.5061 103.726 64.7934C103.007 65.0807 102.433 65.0807 101.858 65.0807C101.283 64.9371 100.709 64.7934 100.278 64.3624L101.714 68.0977C102.002 68.816 101.714 69.3907 100.852 69.678ZM102.433 63.0694C103.151 62.7821 103.582 62.3511 103.869 61.6328C104.157 60.9145 104.013 60.0525 103.582 59.1905C103.151 58.1849 102.72 57.4665 102.002 57.1792C101.427 56.8919 100.709 56.7482 99.9904 57.0355C99.2721 57.3229 98.8411 57.7539 98.5537 58.4722C98.2664 59.1905 98.4101 59.9088 98.8411 61.0581C99.2721 62.0638 99.7031 62.7821 100.421 63.0694C100.996 63.3568 101.714 63.3568 102.433 63.0694Z" fill="white"/>
<path d="M138.923 163.202L53.2993 163.346C49.7077 163.346 46.6908 160.473 46.6908 156.738L46.5471 86.3421C46.5471 82.7505 49.4204 79.7335 53.1557 79.7335L138.78 79.5898C149.698 79.5898 158.749 88.497 158.749 99.5592V143.089C158.893 154.295 149.985 163.202 138.923 163.202Z" fill="#2891B5"/>
<path d="M143.808 159.036L55.167 159.18C52.2937 159.18 50.1388 156.881 50.1388 154.152L49.9951 80.8828C49.9951 78.0096 52.2937 75.8546 55.0234 75.8546L143.664 75.7109C153.864 75.7109 162.197 84.0435 162.197 94.1V140.647C162.197 150.704 154.008 159.036 143.808 159.036Z" fill="#5DCEE8"/>
<path d="M167.081 130.302H146.25C138.636 130.302 132.315 123.981 132.315 116.367C132.315 108.753 138.636 102.432 146.25 102.432H166.794L167.656 103.294V129.728L167.081 130.302Z" fill="#3EAFCE"/>
<path d="M59.6208 84.7628H62.4941L63.2124 84.0445L62.4941 83.3262H59.6208L58.7588 84.0445L59.6208 84.7628Z" fill="white"/>
<path d="M128.58 84.6183H134.613L135.332 83.9L134.613 83.1816H128.58L127.861 83.9L128.58 84.6183ZM116.512 84.7619H122.546L123.264 84.0436L122.546 83.3253H116.512L115.793 84.0436L116.512 84.7619ZM104.588 84.7619H110.622L111.34 84.0436L110.622 83.3253H104.588L103.869 84.0436L104.588 84.7619ZM92.5198 84.7619H98.5537L99.272 84.0436L98.5537 83.3253H92.5198L91.8015 84.0436L92.5198 84.7619ZM80.5957 84.7619H86.6296L87.3479 84.0436L86.6296 83.3253H80.5957L79.8774 84.0436L80.5957 84.7619ZM68.5279 84.7619H74.5618L75.2801 84.0436L74.5618 83.3253H68.5279L67.8096 84.0436L68.5279 84.7619Z" fill="white"/>
<path d="M140.504 84.6183H143.521L144.239 83.9L143.521 83.1816H140.504L139.785 83.9L140.504 84.6183Z" fill="white"/>
<path d="M59.6207 150.561H62.6376L63.3559 149.699L62.6376 148.98H59.6207L58.9023 149.699L59.6207 150.561Z" fill="white"/>
<path d="M128.579 150.417H134.613L135.332 149.699L134.613 148.98H128.579L127.861 149.699L128.579 150.417ZM116.655 150.417H122.689L123.408 149.699L122.689 148.98H116.655L115.937 149.699L116.655 150.417ZM104.588 150.417H110.621L111.34 149.699L110.621 148.98H104.588L103.869 149.699L104.588 150.417ZM92.6634 150.417H98.6973L99.4156 149.699L98.6973 148.98H92.6634L91.9451 149.699L92.6634 150.417ZM80.5956 150.417H86.6295L87.3478 149.699L86.6295 148.98H80.5956L79.8773 149.699L80.5956 150.417ZM68.6714 150.417H74.7053L75.4237 149.699L74.7053 148.98H68.6714L67.9531 149.699L68.6714 150.417Z" fill="white"/>
<path d="M140.647 150.416H143.521L144.383 149.698L143.521 148.836L140.647 148.98L139.785 149.698L140.647 150.416Z" fill="white"/>
<path d="M147.112 121.972C150.365 121.972 153.002 119.335 153.002 116.082C153.002 112.829 150.365 110.191 147.112 110.191C143.859 110.191 141.222 112.829 141.222 116.082C141.222 119.335 143.859 121.972 147.112 121.972Z" fill="white"/>
<path d="M146.394 184.609C161.707 184.609 174.121 172.195 174.121 156.881C174.121 141.568 161.707 129.154 146.394 129.154C131.081 129.154 118.667 141.568 118.667 156.881C118.667 172.195 131.081 184.609 146.394 184.609Z" fill="#D52E57"/>
<path d="M143.664 182.023C158.978 182.023 171.391 169.609 171.391 154.296C171.391 138.982 158.978 126.568 143.664 126.568C128.351 126.568 115.937 138.982 115.937 154.296C115.937 169.609 128.351 182.023 143.664 182.023Z" fill="#EE7988"/>
<path d="M138.78 155.874C138.636 155.874 138.636 155.731 138.636 155.731C135.763 152.857 133.033 150.128 130.16 147.254C129.585 146.68 129.441 145.961 129.729 145.387C129.872 145.243 129.872 145.099 130.016 144.956C131.165 143.806 132.315 142.657 133.464 141.508C134.182 140.789 135.188 140.789 135.763 141.508C137.056 142.801 138.205 143.95 139.498 145.243C141.078 146.823 142.659 148.404 144.239 149.984C144.239 149.984 144.239 149.984 144.383 149.984L144.526 149.84C147.4 146.967 150.129 144.237 153.002 141.364C153.577 140.789 154.295 140.646 154.87 141.077C155.014 141.077 155.157 141.22 155.301 141.364C156.45 142.513 157.6 143.663 158.749 144.812C159.467 145.53 159.467 146.536 158.749 147.254C155.876 150.128 153.146 152.857 150.273 155.731C150.273 155.731 150.129 155.731 150.129 155.874C150.416 156.162 150.704 156.449 150.991 156.736C153.577 159.322 156.163 161.908 158.749 164.494C159.324 165.069 159.467 165.643 159.18 166.218C159.18 166.362 159.036 166.649 158.893 166.793C157.743 167.942 156.594 169.091 155.301 170.384C154.726 170.959 153.721 170.959 153.146 170.384C152.428 169.81 151.853 169.091 151.135 168.373C148.98 166.218 146.681 163.919 144.526 161.764C144.526 161.764 144.526 161.764 144.383 161.621L144.239 161.764C141.366 164.638 138.636 167.367 135.763 170.241C135.475 170.528 135.188 170.672 134.757 170.815C134.326 170.815 133.895 170.815 133.464 170.384C132.315 169.235 131.165 168.086 130.016 166.936C129.298 166.218 129.441 165.212 130.016 164.638C132.889 161.764 135.619 159.035 138.492 156.162C138.636 156.018 138.78 155.874 138.78 155.874Z" fill="#D52E57"/>
<path d="M137.774 154.726C137.63 154.726 137.63 154.582 137.63 154.582C134.757 151.709 132.027 148.979 129.154 146.106C128.58 145.531 128.436 144.813 128.723 144.238C128.867 144.095 128.867 143.951 129.011 143.807C130.16 142.658 131.309 141.509 132.458 140.359C133.177 139.641 134.182 139.641 134.757 140.359C136.05 141.652 137.199 142.802 138.492 144.095C140.073 145.675 141.653 147.255 143.233 148.836C143.233 148.836 143.233 148.836 143.377 148.836L143.521 148.692C146.394 145.819 149.124 143.089 151.997 140.216C152.571 139.641 153.29 139.497 153.864 139.928C154.008 139.928 154.152 140.072 154.295 140.216C155.445 141.365 156.594 142.514 157.743 143.664C158.462 144.382 158.462 145.388 157.743 146.106C154.87 148.979 152.14 151.709 149.267 154.582C149.267 154.582 149.124 154.582 149.124 154.726C149.411 155.013 149.698 155.3 149.986 155.588C152.571 158.174 155.157 160.76 157.743 163.346C158.318 163.92 158.462 164.495 158.174 165.07C158.174 165.213 158.031 165.501 157.887 165.644C156.738 166.794 155.588 167.943 154.295 169.236C153.721 169.81 152.715 169.81 152.14 169.236C151.422 168.661 150.847 167.943 150.129 167.225C147.974 165.07 145.676 162.771 143.521 160.616C143.521 160.616 143.521 160.616 143.377 160.472L143.233 160.616C140.36 163.489 137.63 166.219 134.757 169.092C134.47 169.379 134.182 169.523 133.751 169.667C133.32 169.667 132.889 169.667 132.458 169.236C131.309 168.087 130.16 166.937 129.011 165.788C128.292 165.07 128.436 164.064 129.011 163.489C131.884 160.616 134.613 157.886 137.487 155.013C137.63 154.869 137.63 154.869 137.774 154.726Z" fill="white"/>
</g>
<defs>
<clipPath id="clip0_771_99793">
<rect width="178" height="184.609" fill="white"/>
</clipPath>
</defs>
</svg>
