<svg width="120" height="53" viewBox="0 0 120 53" fill="none" xmlns="http://www.w3.org/2000/svg">
<path d="M0.776337 0H0V0.786547H0.776337V0Z" fill="#00ACF0"/>
<path d="M3.77194 1.01172H2.99561V1.79827H3.77194V1.01172Z" fill="#00ACF0"/>
<path d="M6.8779 2.24609H6.10156V3.03264H6.8779V2.24609Z" fill="#00ACF0"/>
<path d="M9.98093 3.36914H9.20459V4.15569H9.98093V3.36914Z" fill="#00ACF0"/>
<path d="M13.0864 4.60547H12.3101V5.39202H13.0864V4.60547Z" fill="#00ACF0"/>
<path d="M16.082 5.61523H15.3057V6.40178H16.082V5.61523Z" fill="#00ACF0"/>
<path d="M18.9653 6.73828H18.189V7.52483H18.9653V6.73828Z" fill="#00ACF0"/>
<path d="M21.7368 7.63672H20.9604V8.42327H21.7368V7.63672Z" fill="#00ACF0"/>
<path d="M24.2881 8.53516H23.5117V9.3217H24.2881V8.53516Z" fill="#00ACF0"/>
<path d="M3.99411 2.91992H3.21777V3.70647H3.99411V2.91992Z" fill="#00ACF0"/>
<path d="M6.65524 3.81641H5.87891V4.60295H6.65524V3.81641Z" fill="#00ACF0"/>
<path d="M9.42673 4.7168H8.65039V5.50334H9.42673V4.7168Z" fill="#00ACF0"/>
<path d="M12.2002 5.72656H11.4238V6.51311H12.2002V5.72656Z" fill="#00ACF0"/>
<path d="M14.9712 6.73828H14.1948V7.52483H14.9712V6.73828Z" fill="#00ACF0"/>
<path d="M17.7446 7.63672H16.9683V8.42327H17.7446V7.63672Z" fill="#00ACF0"/>
<path d="M20.4062 8.53516H19.6299V9.3217H20.4062V8.53516Z" fill="#00ACF0"/>
<path d="M22.8476 9.43359H22.0713V10.2201H22.8476V9.43359Z" fill="#00ACF0"/>
<path d="M25.2866 10.1055H24.5103V10.892H25.2866V10.1055Z" fill="#00ACF0"/>
<path d="M6.98727 5.61523H6.21094V6.40178H6.98727V5.61523Z" fill="#00ACF0"/>
<path d="M9.31686 6.40039H8.54053V7.18694H9.31686V6.40039Z" fill="#00ACF0"/>
<path d="M11.7558 7.1875H10.9795V7.97405H11.7558V7.1875Z" fill="#00ACF0"/>
<path d="M14.3095 7.97266H13.5332V8.7592H14.3095V7.97266Z" fill="#00ACF0"/>
<path d="M16.7485 8.75781H15.9722V9.54436H16.7485V8.75781Z" fill="#00ACF0"/>
<path d="M19.2978 9.65625H18.5215V10.4428H19.2978V9.65625Z" fill="#00ACF0"/>
<path d="M21.6269 10.332H20.8506V11.1186H21.6269V10.332Z" fill="#00ACF0"/>
<path d="M23.956 11.1172H23.1797V11.9037H23.956V11.1172Z" fill="#00ACF0"/>
<path d="M26.1753 11.793H25.3989V12.5795H26.1753V11.793Z" fill="#00ACF0"/>
<path d="M9.53903 8.19727H8.7627V8.98381H9.53903V8.19727Z" fill="#00ACF0"/>
<path d="M11.6435 8.75781H10.8672V9.54436H11.6435V8.75781Z" fill="#00ACF0"/>
<path d="M13.8652 9.43359H13.0889V10.2201H13.8652V9.43359Z" fill="#00ACF0"/>
<path d="M16.1919 10.1055H15.4155V10.892H16.1919V10.1055Z" fill="#00ACF0"/>
<path d="M18.4116 10.7812H17.6353V11.5678H18.4116V10.7812Z" fill="#00ACF0"/>
<path d="M20.6284 11.4531H19.8521V12.2397H20.6284V11.4531Z" fill="#00ACF0"/>
<path d="M22.8476 12.127H22.0713V12.9135H22.8476V12.127Z" fill="#00ACF0"/>
<path d="M25.0644 12.6875H24.2881V13.474H25.0644V12.6875Z" fill="#00ACF0"/>
<path d="M27.0615 13.252H26.2852V14.0385H27.0615V13.252Z" fill="#00ACF0"/>
<path d="M11.8657 10.5566H11.0894V11.3432H11.8657V10.5566Z" fill="#00ACF0"/>
<path d="M13.7529 11.0039H12.9766V11.7905H13.7529V11.0039Z" fill="#00ACF0"/>
<path d="M15.7475 11.5664H14.9712V12.353H15.7475V11.5664Z" fill="#00ACF0"/>
<path d="M17.855 12.127H17.0786V12.9135H17.855V12.127Z" fill="#00ACF0"/>
<path d="M19.854 12.6875H19.0776V13.474H19.854V12.6875Z" fill="#00ACF0"/>
<path d="M21.959 13.252H21.1826V14.0385H21.959V13.252Z" fill="#00ACF0"/>
<path d="M23.956 13.8125H23.1797V14.599H23.956V13.8125Z" fill="#00ACF0"/>
<path d="M25.9531 14.2617H25.1768V15.0483H25.9531V14.2617Z" fill="#00ACF0"/>
<path d="M27.8379 14.8223H27.0615V15.6088H27.8379V14.8223Z" fill="#00ACF0"/>
<path d="M13.8652 12.8008H13.0889V13.5873H13.8652V12.8008Z" fill="#00ACF0"/>
<path d="M15.6377 13.1387H14.8613V13.9252H15.6377V13.1387Z" fill="#00ACF0"/>
<path d="M17.4106 13.5879H16.6343V14.3744H17.4106V13.5879Z" fill="#00ACF0"/>
<path d="M19.2978 14.0352H18.5215V14.8217H19.2978V14.0352Z" fill="#00ACF0"/>
<path d="M21.1826 14.4863H20.4062V15.2729H21.1826V14.4863Z" fill="#00ACF0"/>
<path d="M23.0698 14.9355H22.2935V15.7221H23.0698V14.9355Z" fill="#00ACF0"/>
<path d="M24.9546 15.3848H24.1782V16.1713H24.9546V15.3848Z" fill="#00ACF0"/>
<path d="M26.727 15.834H25.9507V16.6205H26.727V15.834Z" fill="#00ACF0"/>
<path d="M28.5044 16.2832H27.728V17.0698H28.5044V16.2832Z" fill="#00ACF0"/>
<path d="M15.5278 14.8223H14.7515V15.6088H15.5278V14.8223Z" fill="#00ACF0"/>
<path d="M17.1928 15.1602H16.4165V15.9467H17.1928V15.1602Z" fill="#00ACF0"/>
<path d="M18.8535 15.498H18.0771V16.2846H18.8535V15.498Z" fill="#00ACF0"/>
<path d="M20.6284 15.834H19.8521V16.6205H20.6284V15.834Z" fill="#00ACF0"/>
<path d="M22.4033 16.2832H21.627V17.0698H22.4033V16.2832Z" fill="#00ACF0"/>
<path d="M24.0659 16.6172H23.2896V17.4037H24.0659V16.6172Z" fill="#00ACF0"/>
<path d="M25.8432 16.957H25.0669V17.7436H25.8432V16.957Z" fill="#00ACF0"/>
<path d="M27.5034 17.293H26.7271V18.0795H27.5034V17.293Z" fill="#00ACF0"/>
<path d="M29.1684 17.6309H28.3921V18.4174H29.1684V17.6309Z" fill="#00ACF0"/>
<path d="M16.9707 16.7324H16.1943V17.519H16.9707V16.7324Z" fill="#00ACF0"/>
<path d="M18.521 16.957H17.7446V17.7436H18.521V16.957Z" fill="#00ACF0"/>
<path d="M20.1865 17.293H19.4102V18.0795H20.1865V17.293Z" fill="#00ACF0"/>
<path d="M21.7368 17.5176H20.9604V18.3041H21.7368V17.5176Z" fill="#00ACF0"/>
<path d="M23.3994 17.8535H22.623V18.6401H23.3994V17.8535Z" fill="#00ACF0"/>
<path d="M24.9546 18.1914H24.1782V18.978H24.9546V18.1914Z" fill="#00ACF0"/>
<path d="M26.6172 18.418H25.8408V19.2045H26.6172V18.418Z" fill="#00ACF0"/>
<path d="M28.1699 18.7539H27.3936V19.5405H28.1699V18.7539Z" fill="#00ACF0"/>
<path d="M29.7226 18.9766H28.9463V19.7631H29.7226V18.9766Z" fill="#00ACF0"/>
<path d="M18.2993 18.5293H17.5229V19.3158H18.2993V18.5293Z" fill="#00ACF0"/>
<path d="M19.7422 18.6406H18.9658V19.4272H19.7422V18.6406Z" fill="#00ACF0"/>
<path d="M21.1826 18.9766H20.4062V19.7631H21.1826V18.9766Z" fill="#00ACF0"/>
<path d="M22.7378 19.2012H21.9614V19.9877H22.7378V19.2012Z" fill="#00ACF0"/>
<path d="M24.1782 19.4277H23.4019V20.2143H24.1782V19.4277Z" fill="#00ACF0"/>
<path d="M25.7309 19.6523H24.9546V20.4389H25.7309V19.6523Z" fill="#00ACF0"/>
<path d="M27.2812 19.875H26.5049V20.6615H27.2812V19.875Z" fill="#00ACF0"/>
<path d="M28.7265 20.0996H27.9502V20.8862H28.7265V20.0996Z" fill="#00ACF0"/>
<path d="M30.1645 20.3262H29.3882V21.1127H30.1645V20.3262Z" fill="#00ACF0"/>
<path d="M19.2978 20.0996H18.5215V20.8862H19.2978V20.0996Z" fill="#00ACF0"/>
<path d="M20.7383 20.3262H19.9619V21.1127H20.7383V20.3262Z" fill="#00ACF0"/>
<path d="M22.0713 20.4375H21.2949V21.224H22.0713V20.4375Z" fill="#00ACF0"/>
<path d="M23.5117 20.6621H22.7354V21.4487H23.5117V20.6621Z" fill="#00ACF0"/>
<path d="M24.9546 20.8887H24.1782V21.6752H24.9546V20.8887Z" fill="#00ACF0"/>
<path d="M26.395 21.1113H25.6187V21.8979H26.395V21.1113Z" fill="#00ACF0"/>
<path d="M27.8379 21.2227H27.0615V22.0092H27.8379V21.2227Z" fill="#00ACF0"/>
<path d="M29.1684 21.4492H28.3921V22.2358H29.1684V21.4492Z" fill="#00ACF0"/>
<path d="M30.499 21.5605H29.7227V22.3471H30.499V21.5605Z" fill="#00ACF0"/>
<path d="M20.1865 21.6738H19.4102V22.4604H20.1865V21.6738Z" fill="#00ACF0"/>
<path d="M21.5146 21.7852H20.7383V22.5717H21.5146V21.7852Z" fill="#00ACF0"/>
<path d="M22.8476 22.0098H22.0713V22.7963H22.8476V22.0098Z" fill="#00ACF0"/>
<path d="M24.1782 22.123H23.4019V22.9096H24.1782V22.123Z" fill="#00ACF0"/>
<path d="M25.5088 22.2344H24.7324V23.0209H25.5088V22.2344Z" fill="#00ACF0"/>
<path d="M26.9492 22.459H26.1729V23.2455H26.9492V22.459Z" fill="#00ACF0"/>
<path d="M28.2822 22.5703H27.5059V23.3569H28.2822V22.5703Z" fill="#00ACF0"/>
<path d="M29.6103 22.6836H28.834V23.4701H29.6103V22.6836Z" fill="#00ACF0"/>
<path d="M30.8315 22.7969H30.0552V23.5834H30.8315V22.7969Z" fill="#00ACF0"/>
<path d="M20.9604 23.1309H20.1841V23.9174H20.9604V23.1309Z" fill="#00ACF0"/>
<path d="M22.1811 23.2441H21.4048V24.0307H22.1811V23.2441Z" fill="#00ACF0"/>
<path d="M23.3994 23.3574H22.623V24.144H23.3994V23.3574Z" fill="#00ACF0"/>
<path d="M24.7324 23.4707H23.9561V24.2572H24.7324V23.4707Z" fill="#00ACF0"/>
<path d="M26.0654 23.582H25.2891V24.3686H26.0654V23.582Z" fill="#00ACF0"/>
<path d="M27.2812 23.6934H26.5049V24.4799H27.2812V23.6934Z" fill="#00ACF0"/>
<path d="M28.6142 23.8047H27.8379V24.5912H28.6142V23.8047Z" fill="#00ACF0"/>
<path d="M29.833 23.9199H29.0566V24.7065H29.833V23.9199Z" fill="#00ACF0"/>
<path d="M31.166 24.0312H30.3896V24.8178H31.166V24.0312Z" fill="#00ACF0"/>
<path d="M21.5146 24.5938H20.7383V25.3803H21.5146V24.5938Z" fill="#00ACF0"/>
<path d="M22.7378 24.5938H21.9614V25.3803H22.7378V24.5938Z" fill="#00ACF0"/>
<path d="M23.956 24.7051H23.1797V25.4916H23.956V24.7051Z" fill="#00ACF0"/>
<path d="M25.1767 24.8184H24.4004V25.6049H25.1767V24.8184Z" fill="#00ACF0"/>
<path d="M26.395 24.8184H25.6187V25.6049H26.395V24.8184Z" fill="#00ACF0"/>
<path d="M27.6157 24.9297H26.8394V25.7162H27.6157V24.9297Z" fill="#00ACF0"/>
<path d="M28.9487 25.041H28.1724V25.8276H28.9487V25.041Z" fill="#00ACF0"/>
<path d="M30.1645 25.1543H29.3882V25.9408H30.1645V25.1543Z" fill="#00ACF0"/>
<path d="M31.2758 25.1543H30.4995V25.9408H31.2758V25.1543Z" fill="#00ACF0"/>
<path d="M21.959 25.8281H21.1826V26.6147H21.959V25.8281Z" fill="#00ACF0"/>
<path d="M23.0698 25.9395H22.2935V26.726H23.0698V25.9395Z" fill="#00ACF0"/>
<path d="M24.2881 25.9395H23.5117V26.726H24.2881V25.9395Z" fill="#00ACF0"/>
<path d="M25.5088 26.0527H24.7324V26.8393H25.5088V26.0527Z" fill="#00ACF0"/>
<path d="M26.727 26.0527H25.9507V26.8393H26.727V26.0527Z" fill="#00ACF0"/>
<path d="M27.9477 26.1641H27.1714V26.9506H27.9477V26.1641Z" fill="#00ACF0"/>
<path d="M29.1684 26.1641H28.3921V26.9506H29.1684V26.1641Z" fill="#00ACF0"/>
<path d="M30.2773 26.2773H29.501V27.0639H30.2773V26.2773Z" fill="#00ACF0"/>
<path d="M31.4975 26.2773H30.7212V27.0639H31.4975V26.2773Z" fill="#00ACF0"/>
<path d="M22.2934 27.0625H21.5171V27.849H22.2934V27.0625Z" fill="#00ACF0"/>
<path d="M23.3994 27.1758H22.623V27.9623H23.3994V27.1758Z" fill="#00ACF0"/>
<path d="M24.6201 27.1758H23.8438V27.9623H24.6201V27.1758Z" fill="#00ACF0"/>
<path d="M25.7309 27.1758H24.9546V27.9623H25.7309V27.1758Z" fill="#00ACF0"/>
<path d="M26.9492 27.2871H26.1729V28.0737H26.9492V27.2871Z" fill="#00ACF0"/>
<path d="M28.1699 27.2871H27.3936V28.0737H28.1699V27.2871Z" fill="#00ACF0"/>
<path d="M29.2783 27.4004H28.502V28.1869H29.2783V27.4004Z" fill="#00ACF0"/>
<path d="M30.3872 27.4004H29.6108V28.1869H30.3872V27.4004Z" fill="#00ACF0"/>
<path d="M31.6103 27.4004H30.834V28.1869H31.6103V27.4004Z" fill="#00ACF0"/>
<path d="M22.5156 28.2969H21.7393V29.0834H22.5156V28.2969Z" fill="#00ACF0"/>
<path d="M23.6216 28.2969H22.8452V29.0834H23.6216V28.2969Z" fill="#00ACF0"/>
<path d="M24.8423 28.4102H24.0659V29.1967H24.8423V28.4102Z" fill="#00ACF0"/>
<path d="M25.9531 28.4102H25.1768V29.1967H25.9531V28.4102Z" fill="#00ACF0"/>
<path d="M27.1714 28.4102H26.395V29.1967H27.1714V28.4102Z" fill="#00ACF0"/>
<path d="M28.2822 28.4102H27.5059V29.1967H28.2822V28.4102Z" fill="#00ACF0"/>
<path d="M29.3886 28.5234H28.6123V29.31H29.3886V28.5234Z" fill="#00ACF0"/>
<path d="M30.499 28.5234H29.7227V29.31H30.499V28.5234Z" fill="#00ACF0"/>
<path d="M31.7202 28.5234H30.9438V29.31H31.7202V28.5234Z" fill="#00ACF0"/>
<path d="M22.7378 29.4219H21.9614V30.2084H22.7378V29.4219Z" fill="#00ACF0"/>
<path d="M23.8437 29.4219H23.0674V30.2084H23.8437V29.4219Z" fill="#00ACF0"/>
<path d="M24.9546 29.5332H24.1782V30.3197H24.9546V29.5332Z" fill="#00ACF0"/>
<path d="M26.0654 29.5332H25.2891V30.3197H26.0654V29.5332Z" fill="#00ACF0"/>
<path d="M27.2812 29.5332H26.5049V30.3197H27.2812V29.5332Z" fill="#00ACF0"/>
<path d="M28.3921 29.5332H27.6157V30.3197H28.3921V29.5332Z" fill="#00ACF0"/>
<path d="M29.5005 29.5332H28.7241V30.3197H29.5005V29.5332Z" fill="#00ACF0"/>
<path d="M30.6089 29.6445H29.8325V30.4311H30.6089V29.6445Z" fill="#00ACF0"/>
<path d="M31.7202 29.6445H30.9438V30.4311H31.7202V29.6445Z" fill="#00ACF0"/>
<path d="M22.8476 30.5449H22.0713V31.3315H22.8476V30.5449Z" fill="#00ACF0"/>
<path d="M23.956 30.5449H23.1797V31.3315H23.956V30.5449Z" fill="#00ACF0"/>
<path d="M25.0644 30.6562H24.2881V31.4428H25.0644V30.6562Z" fill="#00ACF0"/>
<path d="M26.1753 30.6562H25.3989V31.4428H26.1753V30.6562Z" fill="#00ACF0"/>
<path d="M27.2812 30.6562H26.5049V31.4428H27.2812V30.6562Z" fill="#00ACF0"/>
<path d="M28.3921 30.6562H27.6157V31.4428H28.3921V30.6562Z" fill="#00ACF0"/>
<path d="M29.5005 30.6562H28.7241V31.4428H29.5005V30.6562Z" fill="#00ACF0"/>
<path d="M30.6089 30.6562H29.8325V31.4428H30.6089V30.6562Z" fill="#00ACF0"/>
<path d="M31.7202 30.6562H30.9438V31.4428H31.7202V30.6562Z" fill="#00ACF0"/>
<path d="M22.9599 31.666H22.1836V32.4526H22.9599V31.666Z" fill="#00ACF0"/>
<path d="M24.0659 31.666H23.2896V32.4526H24.0659V31.666Z" fill="#00ACF0"/>
<path d="M25.1767 31.666H24.4004V32.4526H25.1767V31.666Z" fill="#00ACF0"/>
<path d="M26.2827 31.666H25.5063V32.4526H26.2827V31.666Z" fill="#00ACF0"/>
<path d="M27.3935 31.666H26.6172V32.4526H27.3935V31.666Z" fill="#00ACF0"/>
<path d="M28.5044 31.666H27.728V32.4526H28.5044V31.666Z" fill="#00ACF0"/>
<path d="M29.6103 31.666H28.834V32.4526H29.6103V31.666Z" fill="#00ACF0"/>
<path d="M30.7217 31.7793H29.9453V32.5658H30.7217V31.7793Z" fill="#00ACF0"/>
<path d="M31.832 31.7793H31.0557V32.5658H31.832V31.7793Z" fill="#00ACF0"/>
<path d="M22.9599 32.7891H22.1836V33.5756H22.9599V32.7891Z" fill="#00ACF0"/>
<path d="M24.0659 32.7891H23.2896V33.5756H24.0659V32.7891Z" fill="#00ACF0"/>
<path d="M25.1767 32.7891H24.4004V33.5756H25.1767V32.7891Z" fill="#00ACF0"/>
<path d="M26.2827 32.7891H25.5063V33.5756H26.2827V32.7891Z" fill="#00ACF0"/>
<path d="M27.3935 32.7891H26.6172V33.5756H27.3935V32.7891Z" fill="#00ACF0"/>
<path d="M28.5044 32.7891H27.728V33.5756H28.5044V32.7891Z" fill="#00ACF0"/>
<path d="M29.6103 32.7891H28.834V33.5756H29.6103V32.7891Z" fill="#00ACF0"/>
<path d="M30.7217 32.7891H29.9453V33.5756H30.7217V32.7891Z" fill="#00ACF0"/>
<path d="M31.832 32.7891H31.0557V33.5756H31.832V32.7891Z" fill="#00ACF0"/>
<path d="M23.0698 33.8008H22.2935V34.5873H23.0698V33.8008Z" fill="#00ACF0"/>
<path d="M24.1782 33.8008H23.4019V34.5873H24.1782V33.8008Z" fill="#00ACF0"/>
<path d="M25.1767 33.8008H24.4004V34.5873H25.1767V33.8008Z" fill="#00ACF0"/>
<path d="M26.2827 33.8008H25.5063V34.5873H26.2827V33.8008Z" fill="#00ACF0"/>
<path d="M27.3935 33.8008H26.6172V34.5873H27.3935V33.8008Z" fill="#00ACF0"/>
<path d="M28.5044 33.8008H27.728V34.5873H28.5044V33.8008Z" fill="#00ACF0"/>
<path d="M29.6103 33.8008H28.834V34.5873H29.6103V33.8008Z" fill="#00ACF0"/>
<path d="M30.7217 33.8008H29.9453V34.5873H30.7217V33.8008Z" fill="#00ACF0"/>
<path d="M31.832 33.8008H31.0557V34.5873H31.832V33.8008Z" fill="#00ACF0"/>
<path d="M23.0698 34.9238H22.2935V35.7104H23.0698V34.9238Z" fill="#00ACF0"/>
<path d="M24.1782 34.9238H23.4019V35.7104H24.1782V34.9238Z" fill="#00ACF0"/>
<path d="M25.2866 34.9238H24.5103V35.7104H25.2866V34.9238Z" fill="#00ACF0"/>
<path d="M26.2827 34.9238H25.5063V35.7104H26.2827V34.9238Z" fill="#00ACF0"/>
<path d="M27.3935 34.9238H26.6172V35.7104H27.3935V34.9238Z" fill="#00ACF0"/>
<path d="M28.5044 34.9238H27.728V35.7104H28.5044V34.9238Z" fill="#00ACF0"/>
<path d="M29.6103 34.9238H28.834V35.7104H29.6103V34.9238Z" fill="#00ACF0"/>
<path d="M30.7217 34.9238H29.9453V35.7104H30.7217V34.9238Z" fill="#00ACF0"/>
<path d="M31.832 34.9238H31.0557V35.7104H31.832V34.9238Z" fill="#00ACF0"/>
<path d="M23.0698 35.9355H22.2935V36.7221H23.0698V35.9355Z" fill="#00ACF0"/>
<path d="M24.1782 35.9355H23.4019V36.7221H24.1782V35.9355Z" fill="#00ACF0"/>
<path d="M25.2866 35.9355H24.5103V36.7221H25.2866V35.9355Z" fill="#00ACF0"/>
<path d="M26.2827 35.9355H25.5063V36.7221H26.2827V35.9355Z" fill="#00ACF0"/>
<path d="M27.3935 35.9355H26.6172V36.7221H27.3935V35.9355Z" fill="#00ACF0"/>
<path d="M28.5044 35.9355H27.728V36.7221H28.5044V35.9355Z" fill="#00ACF0"/>
<path d="M29.6103 35.9355H28.834V36.7221H29.6103V35.9355Z" fill="#00ACF0"/>
<path d="M30.7217 35.9355H29.9453V36.7221H30.7217V35.9355Z" fill="#00ACF0"/>
<path d="M31.832 35.9355H31.0557V36.7221H31.832V35.9355Z" fill="#00ACF0"/>
<path d="M11.0886 37.6191L10.645 37.8439H11.0886V37.6191Z" fill="#00ACF0"/>
<path d="M12.1988 37.8431V37.2812L11.3115 37.6183V37.8431H12.1988Z" fill="#00ACF0"/>
<path d="M13.1987 37.8432C13.1987 37.5061 13.0878 37.0566 13.0878 37.0566C12.866 37.0566 12.6442 37.169 12.4224 37.169V37.7308H13.1987V37.8432Z" fill="#00ACF0"/>
<path d="M23.0698 36.9453H22.2935V37.7319H23.0698V36.9453Z" fill="#00ACF0"/>
<path d="M24.1782 36.9453H23.4019V37.7319H24.1782V36.9453Z" fill="#00ACF0"/>
<path d="M25.2866 36.9453H24.5103V37.7319H25.2866V36.9453Z" fill="#00ACF0"/>
<path d="M26.2827 36.9453H25.5063V37.7319H26.2827V36.9453Z" fill="#00ACF0"/>
<path d="M27.3935 36.9453H26.6172V37.7319H27.3935V36.9453Z" fill="#00ACF0"/>
<path d="M28.5044 36.9453H27.728V37.7319H28.5044V36.9453Z" fill="#00ACF0"/>
<path d="M29.6103 36.9453H28.834V37.7319H29.6103V36.9453Z" fill="#00ACF0"/>
<path d="M30.7217 36.9453H29.9453V37.7319H30.7217V36.9453Z" fill="#00ACF0"/>
<path d="M31.832 36.9453H31.0557V37.7319H31.832V36.9453Z" fill="#00ACF0"/>
<path d="M7.76136 38.7422L7.53955 38.8531H7.76136V38.7422Z" fill="#00ACF0"/>
<path d="M8.87253 38.8538V38.4043L8.09619 38.629V38.8538H8.87253Z" fill="#00ACF0"/>
<path d="M9.98093 38.853V38.0664L9.20459 38.2911V38.853H9.98093Z" fill="#00ACF0"/>
<path d="M11.0918 38.0664H10.3154V38.853H11.0918V38.0664Z" fill="#00ACF0"/>
<path d="M12.0879 38.0664H11.3115V38.853H12.0879V38.0664Z" fill="#00ACF0"/>
<path d="M13.1987 38.0664H12.4224V38.853H13.1987V38.0664Z" fill="#00ACF0"/>
<path d="M13.6441 38.8536C13.6441 38.7413 13.6441 38.7413 13.5332 38.6289L13.6441 38.8536Z" fill="#00ACF0"/>
<path d="M21.96 38.4043C21.96 38.5167 21.96 38.7414 21.8491 38.8538H21.96V38.4043Z" fill="#00ACF0"/>
<path d="M23.0698 38.0664H22.2935V38.853H23.0698V38.0664Z" fill="#00ACF0"/>
<path d="M24.1782 38.0664H23.4019V38.853H24.1782V38.0664Z" fill="#00ACF0"/>
<path d="M25.2866 38.0664H24.5103V38.853H25.2866V38.0664Z" fill="#00ACF0"/>
<path d="M26.2827 38.0664H25.5063V38.853H26.2827V38.0664Z" fill="#00ACF0"/>
<path d="M27.3935 38.0664H26.6172V38.853H27.3935V38.0664Z" fill="#00ACF0"/>
<path d="M28.5044 38.0664H27.728V38.853H28.5044V38.0664Z" fill="#00ACF0"/>
<path d="M29.6103 38.0664H28.834V38.853H29.6103V38.0664Z" fill="#00ACF0"/>
<path d="M30.7217 38.0664H29.9453V38.853H30.7217V38.0664Z" fill="#00ACF0"/>
<path d="M31.832 38.0664H31.0557V38.853H31.832V38.0664Z" fill="#00ACF0"/>
<path d="M5.6558 39.8644V39.5273L4.76855 39.7521V39.8644H5.6558Z" fill="#00ACF0"/>
<path d="M6.65524 39.8666V39.0801L5.87891 39.4172V39.8666H6.65524Z" fill="#00ACF0"/>
<path d="M7.76413 39.0801H6.98779V39.8666H7.76413V39.0801Z" fill="#00ACF0"/>
<path d="M8.87253 39.0801H8.09619V39.8666H8.87253V39.0801Z" fill="#00ACF0"/>
<path d="M9.98093 39.0801H9.20459V39.8666H9.98093V39.0801Z" fill="#00ACF0"/>
<path d="M11.0918 39.0801H10.3154V39.8666H11.0918V39.0801Z" fill="#00ACF0"/>
<path d="M12.0879 39.0801H11.3115V39.8666H12.0879V39.0801Z" fill="#00ACF0"/>
<path d="M13.1987 39.0801H12.4224V39.8666H13.1987V39.0801Z" fill="#00ACF0"/>
<path d="M13.5332 39.8666H14.0877C13.9768 39.6419 13.8659 39.3048 13.755 39.0801H13.5332V39.8666Z" fill="#00ACF0"/>
<path d="M21.9597 39.0801C21.8488 39.3048 21.7379 39.6419 21.627 39.8666H21.9597V39.0801Z" fill="#00ACF0"/>
<path d="M23.0698 39.0801H22.2935V39.8666H23.0698V39.0801Z" fill="#00ACF0"/>
<path d="M24.1782 39.0801H23.4019V39.8666H24.1782V39.0801Z" fill="#00ACF0"/>
<path d="M25.2866 39.0801H24.5103V39.8666H25.2866V39.0801Z" fill="#00ACF0"/>
<path d="M26.2827 39.0801H25.5063V39.8666H26.2827V39.0801Z" fill="#00ACF0"/>
<path d="M27.3935 39.0801H26.6172V39.8666H27.3935V39.0801Z" fill="#00ACF0"/>
<path d="M28.5044 39.0801H27.728V39.8666H28.5044V39.0801Z" fill="#00ACF0"/>
<path d="M29.6103 39.0801H28.834V39.8666H29.6103V39.0801Z" fill="#00ACF0"/>
<path d="M30.7217 39.0801H29.9453V39.8666H30.7217V39.0801Z" fill="#00ACF0"/>
<path d="M31.0557 39.0801V39.8666H31.832C31.832 39.6419 31.9429 39.3048 31.9429 39.0801H31.0557Z" fill="#00ACF0"/>
<path d="M4.54727 40.0879H3.99274C3.88184 40.0879 3.88184 40.2003 3.88184 40.2003C3.88184 40.425 3.99274 40.6497 3.99274 40.8744H4.65817L4.54727 40.0879Z" fill="#00ACF0"/>
<path d="M5.54489 40.0879H4.76855V40.8744H5.54489V40.0879Z" fill="#00ACF0"/>
<path d="M6.65524 40.0879H5.87891V40.8744H6.65524V40.0879Z" fill="#00ACF0"/>
<path d="M7.76413 40.0879H6.98779V40.8744H7.76413V40.0879Z" fill="#00ACF0"/>
<path d="M8.87253 40.0879H8.09619V40.8744H8.87253V40.0879Z" fill="#00ACF0"/>
<path d="M9.98093 40.0879H9.20459V40.8744H9.98093V40.0879Z" fill="#00ACF0"/>
<path d="M11.0918 40.0879H10.3154V40.8744H11.0918V40.0879Z" fill="#00ACF0"/>
<path d="M12.0879 40.0879H11.3115V40.8744H12.0879V40.0879Z" fill="#00ACF0"/>
<path d="M13.1987 40.0879H12.4224V40.8744H13.1987V40.0879Z" fill="#00ACF0"/>
<path d="M13.5332 40.9868H14.3095V40.3126C14.3095 40.2003 14.1986 40.2003 14.1986 40.0879H13.5332V40.9868Z" fill="#00ACF0"/>
<path d="M14.861 40.9864C14.7501 40.8741 14.7501 40.8741 14.6392 40.7617V40.9864H14.861Z" fill="#00ACF0"/>
<path d="M21.96 40.9897V40.2031H21.5164C21.4055 40.4279 21.2946 40.7649 21.0728 40.9897H21.96Z" fill="#00ACF0"/>
<path d="M23.0698 40.0879H22.2935V40.8744H23.0698V40.0879Z" fill="#00ACF0"/>
<path d="M24.1782 40.0879H23.4019V40.8744H24.1782V40.0879Z" fill="#00ACF0"/>
<path d="M25.2866 40.0879H24.5103V40.8744H25.2866V40.0879Z" fill="#00ACF0"/>
<path d="M26.2827 40.0879H25.5063V40.8744H26.2827V40.0879Z" fill="#00ACF0"/>
<path d="M27.3935 40.0879H26.6172V40.8744H27.3935V40.0879Z" fill="#00ACF0"/>
<path d="M28.5044 40.0879H27.728V40.8744H28.5044V40.0879Z" fill="#00ACF0"/>
<path d="M29.6103 40.0879H28.834V40.8744H29.6103V40.0879Z" fill="#00ACF0"/>
<path d="M30.7217 40.0879H29.9453V40.8744H30.7217V40.0879Z" fill="#00ACF0"/>
<path d="M31.0557 40.9897H31.6102C31.7211 40.7649 31.7211 40.4279 31.7211 40.2031H31.0557V40.9897Z" fill="#00ACF0"/>
<path d="M4.54867 41.2109H3.99414C4.10505 41.4357 4.10505 41.7728 4.21595 41.9975H4.65957L4.54867 41.2109Z" fill="#00ACF0"/>
<path d="M5.54489 41.2109H4.76855V41.9975H5.54489V41.2109Z" fill="#00ACF0"/>
<path d="M6.65524 41.2109H5.87891V41.9975H6.65524V41.2109Z" fill="#00ACF0"/>
<path d="M7.76413 41.2109H6.98779V41.9975H7.76413V41.2109Z" fill="#00ACF0"/>
<path d="M8.87253 41.2109H8.09619V41.9975H8.87253V41.2109Z" fill="#00ACF0"/>
<path d="M9.98093 41.2109H9.20459V41.9975H9.98093V41.2109Z" fill="#00ACF0"/>
<path d="M11.0918 41.2109H10.3154V41.9975H11.0918V41.2109Z" fill="#00ACF0"/>
<path d="M12.0879 41.2109H11.3115V41.9975H12.0879V41.2109Z" fill="#00ACF0"/>
<path d="M13.1987 41.2109H12.4224V41.9975H13.1987V41.2109Z" fill="#00ACF0"/>
<path d="M14.3095 41.2109H13.5332V41.9975H14.3095V41.2109Z" fill="#00ACF0"/>
<path d="M14.6392 41.9985H15.4155V41.4367C15.3046 41.3243 15.1937 41.212 15.0828 41.0996H14.6392V41.9985V41.9985Z" fill="#00ACF0"/>
<path d="M16.4154 41.9992C16.1936 41.8868 15.9718 41.7745 15.75 41.6621V41.9992H16.4154Z" fill="#00ACF0"/>
<path d="M20.8506 41.9975V41.2109C20.6287 41.4357 20.296 41.6604 20.0742 41.7728V41.9975H20.8506Z" fill="#00ACF0"/>
<path d="M21.959 41.2109H21.1826V41.9975H21.959V41.2109Z" fill="#00ACF0"/>
<path d="M23.0698 41.2109H22.2935V41.9975H23.0698V41.2109Z" fill="#00ACF0"/>
<path d="M24.1782 41.2109H23.4019V41.9975H24.1782V41.2109Z" fill="#00ACF0"/>
<path d="M25.2866 41.2109H24.5103V41.9975H25.2866V41.2109Z" fill="#00ACF0"/>
<path d="M26.2827 41.2109H25.5063V41.9975H26.2827V41.2109Z" fill="#00ACF0"/>
<path d="M27.3935 41.2109H26.6172V41.9975H27.3935V41.2109Z" fill="#00ACF0"/>
<path d="M28.5044 41.2109H27.728V41.9975H28.5044V41.2109Z" fill="#00ACF0"/>
<path d="M29.6103 41.2109H28.834V41.9975H29.6103V41.2109Z" fill="#00ACF0"/>
<path d="M30.7217 41.2109H29.9453V41.9975H30.7217V41.2109Z" fill="#00ACF0"/>
<path d="M31.0557 41.9975H31.3884C31.4993 41.7728 31.4993 41.4357 31.6102 41.2109H31.0557V41.9975Z" fill="#00ACF0"/>
<path d="M4.54902 42.2227H4.21631C4.32721 42.4474 4.32721 42.7845 4.43812 43.0092H4.54902V42.2227Z" fill="#00ACF0"/>
<path d="M5.54489 42.2227H4.76855V43.0092H5.54489V42.2227Z" fill="#00ACF0"/>
<path d="M6.65524 42.2227H5.87891V43.0092H6.65524V42.2227Z" fill="#00ACF0"/>
<path d="M7.76413 42.2227H6.98779V43.0092H7.76413V42.2227Z" fill="#00ACF0"/>
<path d="M8.87253 42.2227H8.09619V43.0092H8.87253V42.2227Z" fill="#00ACF0"/>
<path d="M9.98093 42.2227H9.20459V43.0092H9.98093V42.2227Z" fill="#00ACF0"/>
<path d="M11.0918 42.2227H10.3154V43.0092H11.0918V42.2227Z" fill="#00ACF0"/>
<path d="M12.0879 42.2227H11.3115V43.0092H12.0879V42.2227Z" fill="#00ACF0"/>
<path d="M13.1987 42.2227H12.4224V43.0092H13.1987V42.2227Z" fill="#00ACF0"/>
<path d="M14.3095 42.2227H13.5332V43.0092H14.3095V42.2227Z" fill="#00ACF0"/>
<path d="M15.4155 42.2227H14.6392V43.0092H15.4155V42.2227Z" fill="#00ACF0"/>
<path d="M16.5263 42.2227H15.75V43.0092H16.5263V42.2227Z" fill="#00ACF0"/>
<path d="M16.856 43.0092H17.6323V42.2227H16.856V43.0092Z" fill="#00ACF0"/>
<path d="M18.7417 43.0092V42.2227H18.2981C18.1872 42.2227 18.0763 42.2227 17.8545 42.2227V43.0092H18.7417Z" fill="#00ACF0"/>
<path d="M19.7422 42.2227H18.9658V43.0092H19.7422V42.2227Z" fill="#00ACF0"/>
<path d="M20.8506 42.2227H20.0742V43.0092H20.8506V42.2227Z" fill="#00ACF0"/>
<path d="M21.959 42.2227H21.1826V43.0092H21.959V42.2227Z" fill="#00ACF0"/>
<path d="M23.0698 42.2227H22.2935V43.0092H23.0698V42.2227Z" fill="#00ACF0"/>
<path d="M24.1782 42.2227H23.4019V43.0092H24.1782V42.2227Z" fill="#00ACF0"/>
<path d="M25.2866 42.2227H24.5103V43.0092H25.2866V42.2227Z" fill="#00ACF0"/>
<path d="M26.2827 42.2227H25.5063V43.0092H26.2827V42.2227Z" fill="#00ACF0"/>
<path d="M27.3935 42.2227H26.6172V43.0092H27.3935V42.2227Z" fill="#00ACF0"/>
<path d="M28.5044 42.2227H27.728V43.0092H28.5044V42.2227Z" fill="#00ACF0"/>
<path d="M29.6103 42.2227H28.834V43.0092H29.6103V42.2227Z" fill="#00ACF0"/>
<path d="M30.7217 42.2227H29.9453V43.0092H30.7217V42.2227Z" fill="#00ACF0"/>
<path d="M31.0557 43.0092C31.1666 42.7845 31.2775 42.4474 31.2775 42.2227H31.0557V43.0092Z" fill="#00ACF0"/>
<path d="M5.54489 43.2324H4.76855V44.019H5.54489V43.2324Z" fill="#00ACF0"/>
<path d="M6.65524 43.2324H5.87891V44.019H6.65524V43.2324Z" fill="#00ACF0"/>
<path d="M7.76413 43.2324H6.98779V44.019H7.76413V43.2324Z" fill="#00ACF0"/>
<path d="M8.87253 43.2324H8.09619V44.019H8.87253V43.2324Z" fill="#00ACF0"/>
<path d="M9.98093 43.2324H9.20459V44.019H9.98093V43.2324Z" fill="#00ACF0"/>
<path d="M11.0918 43.2324H10.3154V44.019H11.0918V43.2324Z" fill="#00ACF0"/>
<path d="M12.0879 43.2324H11.3115V44.019H12.0879V43.2324Z" fill="#00ACF0"/>
<path d="M13.1987 43.2324H12.4224V44.019H13.1987V43.2324Z" fill="#00ACF0"/>
<path d="M14.3095 43.2324H13.5332V44.019H14.3095V43.2324Z" fill="#00ACF0"/>
<path d="M15.4155 43.2324H14.6392V44.019H15.4155V43.2324Z" fill="#00ACF0"/>
<path d="M16.5263 43.2324H15.75V44.019H16.5263V43.2324Z" fill="#00ACF0"/>
<path d="M17.6323 43.2324H16.856V44.019H17.6323V43.2324Z" fill="#00ACF0"/>
<path d="M18.6308 43.2324H17.8545V44.019H18.6308V43.2324Z" fill="#00ACF0"/>
<path d="M19.7422 43.2324H18.9658V44.019H19.7422V43.2324Z" fill="#00ACF0"/>
<path d="M20.8506 43.2324H20.0742V44.019H20.8506V43.2324Z" fill="#00ACF0"/>
<path d="M21.959 43.2324H21.1826V44.019H21.959V43.2324Z" fill="#00ACF0"/>
<path d="M23.0698 43.2324H22.2935V44.019H23.0698V43.2324Z" fill="#00ACF0"/>
<path d="M24.1782 43.2324H23.4019V44.019H24.1782V43.2324Z" fill="#00ACF0"/>
<path d="M25.2866 43.2324H24.5103V44.019H25.2866V43.2324Z" fill="#00ACF0"/>
<path d="M26.2827 43.2324H25.5063V44.019H26.2827V43.2324Z" fill="#00ACF0"/>
<path d="M27.3935 43.2324H26.6172V44.019H27.3935V43.2324Z" fill="#00ACF0"/>
<path d="M28.5044 43.2324H27.728V44.019H28.5044V43.2324Z" fill="#00ACF0"/>
<path d="M29.6103 43.2324H28.834V44.019H29.6103V43.2324Z" fill="#00ACF0"/>
<path d="M29.9453 43.2324V44.019H30.6107C30.6107 43.9066 30.7217 43.7942 30.7217 43.6819V43.2324H29.9453V43.2324Z" fill="#00ACF0"/>
<path d="M5.65427 44.3574H4.87793C4.98883 44.5821 5.09974 44.9192 5.21065 45.144H5.65427V44.3574Z" fill="#00ACF0"/>
<path d="M6.65524 44.3574H5.87891V45.144H6.65524V44.3574Z" fill="#00ACF0"/>
<path d="M7.76413 44.3574H6.98779V45.144H7.76413V44.3574Z" fill="#00ACF0"/>
<path d="M8.87253 44.3574H8.09619V45.144H8.87253V44.3574Z" fill="#00ACF0"/>
<path d="M9.98093 44.3574H9.20459V45.144H9.98093V44.3574Z" fill="#00ACF0"/>
<path d="M11.0918 44.3574H10.3154V45.144H11.0918V44.3574Z" fill="#00ACF0"/>
<path d="M12.0879 44.3574H11.3115V45.144H12.0879V44.3574Z" fill="#00ACF0"/>
<path d="M13.1987 44.3574H12.4224V45.144H13.1987V44.3574Z" fill="#00ACF0"/>
<path d="M14.3095 44.3574H13.5332V45.144H14.3095V44.3574Z" fill="#00ACF0"/>
<path d="M15.4155 44.3574H14.6392V45.144H15.4155V44.3574Z" fill="#00ACF0"/>
<path d="M16.5263 44.3574H15.75V45.144H16.5263V44.3574Z" fill="#00ACF0"/>
<path d="M17.6323 44.3574H16.856V45.144H17.6323V44.3574Z" fill="#00ACF0"/>
<path d="M18.6308 44.3574H17.8545V45.144H18.6308V44.3574Z" fill="#00ACF0"/>
<path d="M19.7422 44.3574H18.9658V45.144H19.7422V44.3574Z" fill="#00ACF0"/>
<path d="M20.8506 44.3574H20.0742V45.144H20.8506V44.3574Z" fill="#00ACF0"/>
<path d="M21.959 44.3574H21.1826V45.144H21.959V44.3574Z" fill="#00ACF0"/>
<path d="M23.0698 44.3574H22.2935V45.144H23.0698V44.3574Z" fill="#00ACF0"/>
<path d="M24.1782 44.3574H23.4019V45.144H24.1782V44.3574Z" fill="#00ACF0"/>
<path d="M25.2866 44.3574H24.5103V45.144H25.2866V44.3574Z" fill="#00ACF0"/>
<path d="M26.2827 44.3574H25.5063V45.144H26.2827V44.3574Z" fill="#00ACF0"/>
<path d="M27.3935 44.3574H26.6172V45.144H27.3935V44.3574Z" fill="#00ACF0"/>
<path d="M28.5044 44.3574H27.728V45.144H28.5044V44.3574Z" fill="#00ACF0"/>
<path d="M29.6103 44.3574H28.834V45.144H29.6103V44.3574Z" fill="#00ACF0"/>
<path d="M29.9453 45.144C30.1671 44.9192 30.3889 44.5821 30.4998 44.3574H29.9453V45.144Z" fill="#00ACF0"/>
<path d="M5.32227 45.3672C5.43317 45.5919 5.54408 45.7043 5.65498 45.929V45.3672H5.32227Z" fill="#00ACF0"/>
<path d="M6.65524 45.3672H5.87891V46.1537H6.65524V45.3672Z" fill="#00ACF0"/>
<path d="M7.76413 45.3672H6.98779V46.1537H7.76413V45.3672Z" fill="#00ACF0"/>
<path d="M8.87253 45.3672H8.09619V46.1537H8.87253V45.3672Z" fill="#00ACF0"/>
<path d="M9.98093 45.3672H9.20459V46.1537H9.98093V45.3672Z" fill="#00ACF0"/>
<path d="M11.0918 45.3672H10.3154V46.1537H11.0918V45.3672Z" fill="#00ACF0"/>
<path d="M12.0879 45.3672H11.3115V46.1537H12.0879V45.3672Z" fill="#00ACF0"/>
<path d="M13.1987 45.3672H12.4224V46.1537H13.1987V45.3672Z" fill="#00ACF0"/>
<path d="M14.3095 45.3672H13.5332V46.1537H14.3095V45.3672Z" fill="#00ACF0"/>
<path d="M15.4155 45.3672H14.6392V46.1537H15.4155V45.3672Z" fill="#00ACF0"/>
<path d="M16.5263 45.3672H15.75V46.1537H16.5263V45.3672Z" fill="#00ACF0"/>
<path d="M17.6323 45.3672H16.856V46.1537H17.6323V45.3672Z" fill="#00ACF0"/>
<path d="M18.6308 45.3672H17.8545V46.1537H18.6308V45.3672Z" fill="#00ACF0"/>
<path d="M19.7422 45.3672H18.9658V46.1537H19.7422V45.3672Z" fill="#00ACF0"/>
<path d="M20.8506 45.3672H20.0742V46.1537H20.8506V45.3672Z" fill="#00ACF0"/>
<path d="M21.959 45.3672H21.1826V46.1537H21.959V45.3672Z" fill="#00ACF0"/>
<path d="M23.0698 45.3672H22.2935V46.1537H23.0698V45.3672Z" fill="#00ACF0"/>
<path d="M24.1782 45.3672H23.4019V46.1537H24.1782V45.3672Z" fill="#00ACF0"/>
<path d="M25.2866 45.3672H24.5103V46.1537H25.2866V45.3672Z" fill="#00ACF0"/>
<path d="M26.2827 45.3672H25.5063V46.1537H26.2827V45.3672Z" fill="#00ACF0"/>
<path d="M27.3935 45.3672H26.6172V46.1537H27.3935V45.3672Z" fill="#00ACF0"/>
<path d="M28.5044 45.3672H27.728V46.1537H28.5044V45.3672Z" fill="#00ACF0"/>
<path d="M28.834 45.3672V46.1537H29.4994C29.6103 46.0414 29.6103 45.929 29.7212 45.929V45.3672H28.834Z" fill="#00ACF0"/>
<path d="M6.65524 46.377H5.87891C6.10072 46.6017 6.21162 46.9388 6.43343 47.1635H6.65524V46.377Z" fill="#00ACF0"/>
<path d="M7.76413 46.377H6.98779V47.1635H7.76413V46.377Z" fill="#00ACF0"/>
<path d="M8.87253 46.377H8.09619V47.1635H8.87253V46.377Z" fill="#00ACF0"/>
<path d="M9.98093 46.377H9.20459V47.1635H9.98093V46.377Z" fill="#00ACF0"/>
<path d="M11.0918 46.377H10.3154V47.1635H11.0918V46.377Z" fill="#00ACF0"/>
<path d="M12.0879 46.377H11.3115V47.1635H12.0879V46.377Z" fill="#00ACF0"/>
<path d="M13.1987 46.377H12.4224V47.1635H13.1987V46.377Z" fill="#00ACF0"/>
<path d="M14.3095 46.377H13.5332V47.1635H14.3095V46.377Z" fill="#00ACF0"/>
<path d="M15.4155 46.377H14.6392V47.1635H15.4155V46.377Z" fill="#00ACF0"/>
<path d="M16.5263 46.377H15.75V47.1635H16.5263V46.377Z" fill="#00ACF0"/>
<path d="M17.6323 46.377H16.856V47.1635H17.6323V46.377Z" fill="#00ACF0"/>
<path d="M18.6308 46.377H17.8545V47.1635H18.6308V46.377Z" fill="#00ACF0"/>
<path d="M19.7422 46.377H18.9658V47.1635H19.7422V46.377Z" fill="#00ACF0"/>
<path d="M20.8506 46.377H20.0742V47.1635H20.8506V46.377Z" fill="#00ACF0"/>
<path d="M21.959 46.377H21.1826V47.1635H21.959V46.377Z" fill="#00ACF0"/>
<path d="M23.0698 46.377H22.2935V47.1635H23.0698V46.377Z" fill="#00ACF0"/>
<path d="M24.1782 46.377H23.4019V47.1635H24.1782V46.377Z" fill="#00ACF0"/>
<path d="M25.2866 46.377H24.5103V47.1635H25.2866V46.377Z" fill="#00ACF0"/>
<path d="M26.2827 46.377H25.5063V47.1635H26.2827V46.377Z" fill="#00ACF0"/>
<path d="M27.3935 46.377H26.6172V47.1635H27.3935V46.377Z" fill="#00ACF0"/>
<path d="M28.5044 46.377H27.728V47.1635H28.5044V46.377Z" fill="#00ACF0"/>
<path d="M28.834 47.0521C28.9449 46.8273 29.1667 46.6026 29.2776 46.4902H28.834V47.0521Z" fill="#00ACF0"/>
<path d="M7.76413 47.3867H6.98779V47.8362C7.0987 47.9485 7.2096 48.0609 7.32051 48.1733H7.76413V47.3867Z" fill="#00ACF0"/>
<path d="M8.87253 47.3867H8.09619V48.1733H8.87253V47.3867Z" fill="#00ACF0"/>
<path d="M9.98093 47.3867H9.20459V48.1733H9.98093V47.3867Z" fill="#00ACF0"/>
<path d="M11.0918 47.3867H10.3154V48.1733H11.0918V47.3867Z" fill="#00ACF0"/>
<path d="M12.0879 47.3867H11.3115V48.1733H12.0879V47.3867Z" fill="#00ACF0"/>
<path d="M13.1987 47.3867H12.4224V48.1733H13.1987V47.3867Z" fill="#00ACF0"/>
<path d="M14.3095 47.3867H13.5332V48.1733H14.3095V47.3867Z" fill="#00ACF0"/>
<path d="M15.4155 47.3867H14.6392V48.1733H15.4155V47.3867Z" fill="#00ACF0"/>
<path d="M16.5263 47.3867H15.75V48.1733H16.5263V47.3867Z" fill="#00ACF0"/>
<path d="M17.6323 47.3867H16.856V48.1733H17.6323V47.3867Z" fill="#00ACF0"/>
<path d="M18.6308 47.3867H17.8545V48.1733H18.6308V47.3867Z" fill="#00ACF0"/>
<path d="M19.7422 47.3867H18.9658V48.1733H19.7422V47.3867Z" fill="#00ACF0"/>
<path d="M20.8506 47.3867H20.0742V48.1733H20.8506V47.3867Z" fill="#00ACF0"/>
<path d="M21.959 47.3867H21.1826V48.1733H21.959V47.3867Z" fill="#00ACF0"/>
<path d="M23.0698 47.3867H22.2935V48.1733H23.0698V47.3867Z" fill="#00ACF0"/>
<path d="M24.1782 47.3867H23.4019V48.1733H24.1782V47.3867Z" fill="#00ACF0"/>
<path d="M25.2866 47.3867H24.5103V48.1733H25.2866V47.3867Z" fill="#00ACF0"/>
<path d="M26.2827 47.3867H25.5063V48.1733H26.2827V47.3867Z" fill="#00ACF0"/>
<path d="M27.3935 47.3867H26.6172V48.1733H27.3935V47.3867Z" fill="#00ACF0"/>
<path d="M27.728 48.1733C27.9498 47.9485 28.2826 47.6114 28.5044 47.3867H27.728V48.1733Z" fill="#00ACF0"/>
<path d="M7.53955 48.5098C7.65046 48.6221 7.65046 48.6221 7.76136 48.7345V48.5098H7.53955Z" fill="#00ACF0"/>
<path d="M8.87253 48.5098H8.09619V49.0716C8.2071 49.1839 8.318 49.2963 8.42891 49.4087H8.87253V48.5098Z" fill="#00ACF0"/>
<path d="M9.98093 48.5098H9.20459V49.2963H9.98093V48.5098Z" fill="#00ACF0"/>
<path d="M11.0918 48.5098H10.3154V49.2963H11.0918V48.5098Z" fill="#00ACF0"/>
<path d="M12.0879 48.5098H11.3115V49.2963H12.0879V48.5098Z" fill="#00ACF0"/>
<path d="M13.1987 48.5098H12.4224V49.2963H13.1987V48.5098Z" fill="#00ACF0"/>
<path d="M14.3095 48.5098H13.5332V49.2963H14.3095V48.5098Z" fill="#00ACF0"/>
<path d="M15.4155 48.5098H14.6392V49.2963H15.4155V48.5098Z" fill="#00ACF0"/>
<path d="M16.5263 48.5098H15.75V49.2963H16.5263V48.5098Z" fill="#00ACF0"/>
<path d="M17.6323 48.5098H16.856V49.2963H17.6323V48.5098Z" fill="#00ACF0"/>
<path d="M18.6308 48.5098H17.8545V49.2963H18.6308V48.5098Z" fill="#00ACF0"/>
<path d="M19.7422 48.5098H18.9658V49.2963H19.7422V48.5098Z" fill="#00ACF0"/>
<path d="M20.8506 48.5098H20.0742V49.2963H20.8506V48.5098Z" fill="#00ACF0"/>
<path d="M21.959 48.5098H21.1826V49.2963H21.959V48.5098Z" fill="#00ACF0"/>
<path d="M23.0698 48.5098H22.2935V49.2963H23.0698V48.5098Z" fill="#00ACF0"/>
<path d="M24.1782 48.5098H23.4019V49.2963H24.1782V48.5098Z" fill="#00ACF0"/>
<path d="M25.2866 48.5098H24.5103V49.2963H25.2866V48.5098Z" fill="#00ACF0"/>
<path d="M26.2827 48.5098H25.5063V49.2963H26.2827V48.5098Z" fill="#00ACF0"/>
<path d="M26.6172 49.1839C26.9499 48.9592 27.1717 48.7345 27.3935 48.5098H26.6172V49.1839Z" fill="#00ACF0"/>
<path d="M8.7627 49.5215L8.87214 49.6309V49.5215H8.7627Z" fill="#00ACF0"/>
<path d="M9.20459 49.5215V49.8586C9.4264 50.0833 9.75912 50.1957 9.98093 50.308V49.5215H9.20459V49.5215Z" fill="#00ACF0"/>
<path d="M11.0918 49.5215H10.3154V50.308H11.0918V49.5215Z" fill="#00ACF0"/>
<path d="M12.0879 49.5215H11.3115V50.308H12.0879V49.5215Z" fill="#00ACF0"/>
<path d="M13.1987 49.5215H12.4224V50.308H13.1987V49.5215Z" fill="#00ACF0"/>
<path d="M14.3095 49.5215H13.5332V50.308H14.3095V49.5215Z" fill="#00ACF0"/>
<path d="M15.4155 49.5215H14.6392V50.308H15.4155V49.5215Z" fill="#00ACF0"/>
<path d="M16.5263 49.5215H15.75V50.308H16.5263V49.5215Z" fill="#00ACF0"/>
<path d="M17.6323 49.5215H16.856V50.308H17.6323V49.5215Z" fill="#00ACF0"/>
<path d="M18.6308 49.5215H17.8545V50.308H18.6308V49.5215Z" fill="#00ACF0"/>
<path d="M19.7422 49.5215H18.9658V50.308H19.7422V49.5215Z" fill="#00ACF0"/>
<path d="M20.8506 49.5215H20.0742V50.308H20.8506V49.5215Z" fill="#00ACF0"/>
<path d="M21.959 49.5215H21.1826V50.308H21.959V49.5215Z" fill="#00ACF0"/>
<path d="M23.0698 49.5215H22.2935V50.308H23.0698V49.5215Z" fill="#00ACF0"/>
<path d="M24.1782 49.5215H23.4019V50.308H24.1782V49.5215Z" fill="#00ACF0"/>
<path d="M24.5103 49.5215V50.308H24.843C25.0648 50.1957 25.1757 50.0833 25.3975 50.0833V49.5215H24.5103Z" fill="#00ACF0"/>
<path d="M25.5063 49.8586C25.7282 49.7462 25.8391 49.6338 26.0609 49.5215H25.5063V49.8586Z" fill="#00ACF0"/>
<path d="M10.4277 50.5332C10.6495 50.6456 10.8714 50.7579 11.0932 50.8703V50.5332H10.4277Z" fill="#00ACF0"/>
<path d="M11.3115 50.5332V50.9827C11.5333 51.095 11.866 51.2074 12.0879 51.3198V50.6456L11.3115 50.5332Z" fill="#00ACF0"/>
<path d="M13.1987 50.5332H12.4224V51.3198H13.1987V50.5332Z" fill="#00ACF0"/>
<path d="M14.3095 50.5332H13.5332V51.3198H14.3095V50.5332Z" fill="#00ACF0"/>
<path d="M15.4155 50.5332H14.6392V51.3198H15.4155V50.5332Z" fill="#00ACF0"/>
<path d="M16.5263 50.5332H15.75V51.3198H16.5263V50.5332Z" fill="#00ACF0"/>
<path d="M17.6323 50.5332H16.856V51.3198H17.6323V50.5332Z" fill="#00ACF0"/>
<path d="M18.6308 50.5332H17.8545V51.3198H18.6308V50.5332Z" fill="#00ACF0"/>
<path d="M19.7422 50.5332H18.9658V51.3198H19.7422V50.5332Z" fill="#00ACF0"/>
<path d="M20.8506 50.5332H20.0742V51.3198H20.8506V50.5332Z" fill="#00ACF0"/>
<path d="M21.959 50.5332H21.1826V51.3198H21.959V50.5332Z" fill="#00ACF0"/>
<path d="M22.2935 50.5332V51.3198C22.5153 51.2074 22.848 51.095 23.0698 51.095V50.6456L22.2935 50.5332Z" fill="#00ACF0"/>
<path d="M23.4019 50.5332V50.8703C23.6237 50.7579 23.9564 50.6456 24.1782 50.5332H23.4019Z" fill="#00ACF0"/>
<path d="M13.5332 51.6562C13.755 51.7686 14.0877 51.7686 14.3095 51.881V51.6562H13.5332Z" fill="#00ACF0"/>
<path d="M14.6392 51.6562V51.881C14.861 51.881 15.1937 51.9933 15.4155 51.9933V51.6562H14.6392V51.6562Z" fill="#00ACF0"/>
<path d="M15.75 51.6562V51.9933C15.9718 51.9933 16.3045 51.9933 16.5263 51.9933V51.6562H15.75Z" fill="#00ACF0"/>
<path d="M16.856 51.6562V52.1057C16.9669 52.1057 17.0778 52.1057 17.1887 52.1057C17.2996 52.1057 17.5214 52.1057 17.6323 52.1057V51.6562H16.856Z" fill="#00ACF0"/>
<path d="M17.8545 51.6562V51.9933C18.0763 51.9933 18.409 51.9933 18.6308 51.9933V51.6562H17.8545Z" fill="#00ACF0"/>
<path d="M18.9658 51.6562V51.9933C19.1876 51.9933 19.5203 51.9933 19.7422 51.881V51.6562H18.9658V51.6562Z" fill="#00ACF0"/>
<path d="M20.0742 51.6562V51.881C20.296 51.881 20.6287 51.7686 20.8506 51.7686H20.0742V51.6562Z" fill="#00ACF0"/>
<path d="M59.2209 38.1803C59.2209 42.7844 56.6701 46.4902 51.1248 46.4902C45.5795 46.4902 43.1396 43.009 43.1396 38.1803V23.582H40.6997V38.2926C40.6997 44.3566 44.1378 48.8483 51.1248 48.8483C58.2227 48.8483 61.7717 44.0197 61.7717 38.4049V23.6943H59.3318L59.2209 38.1803Z" fill="#00ACF0"/>
<path d="M74.9718 23.4707H72.421L72.3101 48.4001L89.944 48.5124V46.2665L74.8609 46.1542L74.9718 23.4707Z" fill="#00ACF0"/>
<path d="M107.024 22.9082C99.7044 22.9082 94.1592 28.4106 94.1592 35.9344C94.1592 43.3458 99.5935 48.9606 107.024 48.9606C114.455 48.9606 120 43.4581 120 35.9344C120 28.5229 114.455 22.9082 107.024 22.9082ZM106.913 46.6024C100.924 46.6024 96.4882 41.9983 96.5991 35.9344C96.5991 29.7582 101.035 25.2664 107.024 25.2664C113.124 25.2664 117.449 29.8705 117.449 35.9344C117.449 42.1106 113.013 46.7147 106.913 46.6024Z" fill="#00ACF0"/>
</svg>
