<svg width="57" height="60" viewBox="0 0 57 60" fill="none" xmlns="http://www.w3.org/2000/svg">
<path d="M40.9747 59.9997H16.0253C7.19697 59.9997 0 52.9019 0 44.1952V19.5896C0 10.9776 7.19697 3.78516 16.0253 3.78516H40.9747C49.803 3.78516 57 10.8829 57 19.5896V44.1952C57 52.9019 49.7071 59.9997 40.9747 59.9997Z" fill="#C0F9FC"/>
<path d="M41.6464 57.2555H15.4495C9.11613 57.2555 4.03027 52.1451 4.03027 45.9937V42.3028C4.03027 36.0568 9.21209 31.041 15.4495 31.041H41.6464C47.9798 31.041 53.0656 36.1514 53.0656 42.3028V45.9937C53.0656 52.2398 47.8838 57.2555 41.6464 57.2555Z" fill="#8CE6F4"/>
<path d="M53.9291 41.4508H49.5149C48.3634 41.4508 47.4038 40.5044 47.4038 39.3688V38.9902C47.4038 37.8546 48.3634 36.9082 49.5149 36.9082H53.9291C55.0806 36.9082 56.0402 37.8546 56.0402 38.9902V39.3688C56.1361 40.5044 55.1765 41.4508 53.9291 41.4508Z" fill="#2891B5"/>
<path d="M46.8282 50.8193L32.7221 54.1316C30.2271 54.6994 27.6362 54.6994 25.1413 54.1316L9.78776 50.5354C7.96453 50.0622 6.62109 48.4533 6.62109 46.6552V28.2956L23.7979 24.4155C26.9645 23.6584 30.3231 23.6584 33.4898 24.4155L50.7625 28.3902V45.9928C50.7625 48.2641 49.1312 50.2514 46.8282 50.8193Z" fill="#2891B5"/>
<path d="M37.7121 43.3438H19.7677C18.2323 43.3438 16.9849 42.1136 16.9849 40.5994V2.74448C16.9849 1.23028 18.2323 0 19.7677 0H37.6162C39.1515 0 40.399 1.23028 40.399 2.74448V40.694C40.399 42.1136 39.1515 43.3438 37.7121 43.3438Z" fill="#11748E"/>
<path d="M39.2476 3.31231V39.7476C39.2476 40.9779 38.192 42.0189 36.9445 42.0189H20.4395C19.192 42.0189 18.2324 40.9779 18.2324 39.7476V3.31231C18.2324 2.08203 19.288 1.04102 20.5355 1.04102H37.0405C38.192 1.04102 39.2476 2.08203 39.2476 3.31231Z" fill="#2FAAE1"/>
<path opacity="0.15" d="M37.0405 1.04102L20.7274 42.0189H20.5355C19.192 42.0189 18.2324 40.9779 18.2324 39.7476V3.31231C18.2324 2.08203 19.288 1.04102 20.5355 1.04102H37.0405Z" fill="white"/>
<path d="M32.1463 2.46092H25.4291C24.8533 2.46092 24.3735 1.98774 24.3735 1.41992C24.3735 0.852092 24.8533 0.378906 25.4291 0.378906H32.1463C32.722 0.378906 33.2018 0.852092 33.2018 1.41992C33.2018 1.98774 32.722 2.46092 32.1463 2.46092Z" fill="#11748E"/>
<path d="M22.7425 5.77344H22.4546V6.05735H22.7425V5.77344Z" fill="white"/>
<path d="M23.99 6.24609H23.7021V6.53001H23.99V6.24609Z" fill="white"/>
<path d="M25.2376 6.7207H24.9497V7.00461H25.2376V6.7207Z" fill="white"/>
<path d="M26.4847 7.09766H26.1968V7.38157H26.4847V7.09766Z" fill="white"/>
<path d="M27.7322 7.66602H27.4443V7.94993H27.7322V7.66602Z" fill="white"/>
<path d="M28.8841 8.04492H28.5962V8.32883H28.8841V8.04492Z" fill="white"/>
<path d="M30.0354 8.51758H29.7476V8.80149H30.0354V8.51758Z" fill="white"/>
<path d="M31.1868 8.80273H30.8989V9.08665H31.1868V8.80273Z" fill="white"/>
<path d="M32.2425 9.17969H31.9546V9.4636H32.2425V9.17969Z" fill="white"/>
<path d="M24.0857 7.00391H23.7979V7.28782H24.0857V7.00391Z" fill="white"/>
<path d="M25.1414 7.28711H24.8535V7.57102H25.1414V7.28711Z" fill="white"/>
<path d="M26.1971 7.66602H25.9092V7.94993H26.1971V7.66602Z" fill="white"/>
<path d="M27.3484 8.04492H27.0605V8.32883H27.3484V8.04492Z" fill="white"/>
<path d="M28.5003 8.51758H28.2124V8.80149H28.5003V8.51758Z" fill="white"/>
<path d="M29.5555 8.80273H29.2676V9.08665H29.5555V8.80273Z" fill="white"/>
<path d="M30.6111 9.17969H30.3232V9.4636H30.6111V9.17969Z" fill="white"/>
<path d="M31.6668 9.55859H31.3789V9.8425H31.6668V9.55859Z" fill="white"/>
<path d="M32.6263 9.84375H32.3384V10.1277H32.6263V9.84375Z" fill="white"/>
<path d="M25.2376 8.04492H24.9497V8.32883H25.2376V8.04492Z" fill="white"/>
<path d="M26.1971 8.32812H25.9092V8.61204H26.1971V8.32812Z" fill="white"/>
<path d="M27.1565 8.61328H26.8687V8.89719H27.1565V8.61328Z" fill="white"/>
<path d="M28.212 8.99023H27.8281V9.27415H28.116V8.99023H28.212Z" fill="white"/>
<path d="M29.1717 9.27539H28.8838V9.5593H29.1717V9.27539Z" fill="white"/>
<path d="M30.2273 9.6543H29.9395V9.93821H30.2273V9.6543Z" fill="white"/>
<path d="M31.0911 9.9375H30.8032V10.2214H31.0911V9.9375Z" fill="white"/>
<path d="M32.0506 10.2207H31.7627V10.5046H32.0506V10.2207Z" fill="white"/>
<path d="M32.9143 10.5059H32.6265V10.7898H32.9143V10.5059Z" fill="white"/>
<path d="M26.2928 9.08594H26.0049V9.36985H26.2928V9.08594Z" fill="white"/>
<path d="M27.1565 9.27539H26.8687V9.5593H27.1565V9.27539Z" fill="white"/>
<path d="M28.0203 9.55859H27.7324V9.8425H28.0203V9.55859Z" fill="white"/>
<path d="M28.9798 9.84375H28.6919V10.1277H28.9798V9.84375Z" fill="white"/>
<path d="M29.8435 10.0312H29.5557V10.4098H29.8435V10.0312Z" fill="white"/>
<path d="M30.7073 10.3164H30.4194V10.6003H30.7073V10.3164Z" fill="white"/>
<path d="M31.6668 10.5996H31.3789V10.8835H31.6668V10.5996Z" fill="white"/>
<path d="M32.5306 10.7891H32.2427V11.073H32.5306V10.7891Z" fill="white"/>
<path d="M33.2981 11.0723H33.0103V11.3562H33.2981V11.0723Z" fill="white"/>
<path d="M27.2525 10.0312H26.8687V10.3152H27.1565V10.0312H27.2525Z" fill="white"/>
<path d="M27.9241 10.127H27.6362V10.4109H27.9241V10.127Z" fill="white"/>
<path d="M28.7879 10.4102H28.5V10.6941H28.7879V10.4102Z" fill="white"/>
<path d="M29.6516 10.5996H29.3638V10.8835H29.6516V10.5996Z" fill="white"/>
<path d="M30.4192 10.7891H30.1313V11.073H30.4192V10.7891Z" fill="white"/>
<path d="M31.283 11.0723H30.9951V11.3562H31.283V11.0723Z" fill="white"/>
<path d="M32.0506 11.2617H31.7627V11.5456H32.0506V11.2617Z" fill="white"/>
<path d="M32.9143 11.4512H32.6265V11.7351H32.9143V11.4512Z" fill="white"/>
<path d="M33.5857 11.6406H33.2979V11.9245H33.5857V11.6406Z" fill="white"/>
<path d="M28.0203 10.8848H27.7324V11.1687H28.0203V10.8848Z" fill="white"/>
<path d="M28.6922 10.9785H28.4043V11.3571H28.6922V10.9785Z" fill="white"/>
<path d="M29.4598 11.168H29.1719V11.4519H29.4598V11.168Z" fill="white"/>
<path d="M30.2273 11.3574H29.9395V11.6413H30.2273V11.3574Z" fill="white"/>
<path d="M30.9949 11.5469H30.707V11.8308H30.9949V11.5469Z" fill="white"/>
<path d="M31.6668 11.7363H31.3789V12.0202H31.6668V11.7363Z" fill="white"/>
<path d="M32.4344 11.9258H32.1465V12.2097H32.4344V11.9258Z" fill="white"/>
<path d="M33.2019 12.1133H32.9141V12.3972H33.2019V12.1133Z" fill="white"/>
<path d="M33.8738 12.3027H33.5859V12.5866H33.8738V12.3027Z" fill="white"/>
<path d="M28.6922 11.6406H28.4043V11.9245H28.6922V11.6406Z" fill="white"/>
<path d="M29.3636 11.8301H29.0757V12.114H29.3636V11.8301Z" fill="white"/>
<path d="M30.0354 11.9258H29.7476V12.3043H30.0354V11.9258Z" fill="white"/>
<path d="M30.7073 12.1133H30.4194V12.3972H30.7073V12.1133Z" fill="white"/>
<path d="M31.4749 12.3027H31.187V12.5866H31.4749V12.3027Z" fill="white"/>
<path d="M32.1463 12.3984H31.8584V12.6823H32.1463V12.3984Z" fill="white"/>
<path d="M32.8182 12.4922H32.5303V12.7761H32.8182V12.4922Z" fill="white"/>
<path d="M33.49 12.6816H33.2021V12.9656H33.49V12.6816Z" fill="white"/>
<path d="M34.1619 12.7773H33.874V13.0613H34.1619V12.7773Z" fill="white"/>
<path d="M29.2679 12.3984H28.98V12.6823H29.2679V12.3984Z" fill="white"/>
<path d="M29.8435 12.4922H29.5557V12.7761H29.8435V12.4922Z" fill="white"/>
<path d="M30.5154 12.6816H30.2275V12.9656H30.5154V12.6816Z" fill="white"/>
<path d="M31.1868 12.7773H30.8989V13.0613H31.1868V12.7773Z" fill="white"/>
<path d="M31.8587 12.8711H31.5708V13.155H31.8587V12.8711Z" fill="white"/>
<path d="M32.4344 13.0605H32.1465V13.3445H32.4344V13.0605Z" fill="white"/>
<path d="M33.1062 13.0605H32.8184V13.3445H33.1062V13.0605Z" fill="white"/>
<path d="M33.7776 13.25H33.4897V13.5339H33.7776V13.25Z" fill="white"/>
<path d="M34.3538 13.3438H34.0659V13.6277H34.3538V13.3438Z" fill="white"/>
<path d="M29.7474 13.1543H29.4595V13.4382H29.7474V13.1543Z" fill="white"/>
<path d="M30.323 13.1543H30.0352V13.4382H30.323V13.1543Z" fill="white"/>
<path d="M30.9949 13.3438H30.707V13.6277H30.9949V13.3438Z" fill="white"/>
<path d="M31.5706 13.4395H31.2827V13.7234H31.5706V13.4395Z" fill="white"/>
<path d="M32.1463 13.5332H31.8584V13.8171H32.1463V13.5332Z" fill="white"/>
<path d="M32.8182 13.6289H32.5303V13.9128H32.8182V13.6289Z" fill="white"/>
<path d="M33.3938 13.7227H33.106V14.0066H33.3938V13.7227Z" fill="white"/>
<path d="M33.9695 13.7227H33.6816V14.0066H33.9695V13.7227Z" fill="white"/>
<path d="M34.5457 13.8184H34.2578V14.1969H34.5457V13.8184Z" fill="white"/>
<path d="M30.2273 13.7227H29.9395V14.0066H30.2273V13.7227Z" fill="white"/>
<path d="M30.803 13.8184H30.5151V14.1969H30.803V13.8184Z" fill="white"/>
<path d="M31.283 13.9121H30.9951V14.196H31.283V13.9121Z" fill="white"/>
<path d="M31.8587 14.0078H31.5708V14.2917H31.8587V14.0078Z" fill="white"/>
<path d="M32.4344 14.1016H32.1465V14.3855H32.4344V14.1016Z" fill="white"/>
<path d="M33.01 14.1953H32.7222V14.4792H33.01V14.1953Z" fill="white"/>
<path d="M33.5857 14.1953H33.2979V14.4792H33.5857V14.1953Z" fill="white"/>
<path d="M34.1619 14.291H33.874V14.5749H34.1619V14.291Z" fill="white"/>
<path d="M34.7376 14.3848H34.4497V14.6687H34.7376V14.3848Z" fill="white"/>
<path d="M30.5154 14.3848H30.2275V14.6687H30.5154V14.3848Z" fill="white"/>
<path d="M31.0911 14.4805H30.8032V14.7644H31.0911V14.4805Z" fill="white"/>
<path d="M31.6668 14.4805H31.3789V14.7644H31.6668V14.4805Z" fill="white"/>
<path d="M32.1463 14.5742H31.8584V14.8581H32.1463V14.5742Z" fill="white"/>
<path d="M32.7225 14.5742H32.4346V14.8581H32.7225V14.5742Z" fill="white"/>
<path d="M33.2981 14.6699H33.0103V14.9538H33.2981V14.6699Z" fill="white"/>
<path d="M33.7776 14.7637H33.4897V15.0476H33.7776V14.7637Z" fill="white"/>
<path d="M34.3538 14.7637H34.0659V15.1422H34.3538V14.7637Z" fill="white"/>
<path d="M34.8333 14.8594H34.5454V15.1433H34.8333V14.8594Z" fill="white"/>
<path d="M30.8992 14.9531H30.6113V15.237H30.8992V14.9531Z" fill="white"/>
<path d="M31.3787 15.0488H31.0908V15.3327H31.3787V15.0488Z" fill="white"/>
<path d="M31.8587 15.0488H31.5708V15.3327H31.8587V15.0488Z" fill="white"/>
<path d="M32.3387 15.1426H32.0508V15.4265H32.3387V15.1426Z" fill="white"/>
<path d="M32.9143 15.1426H32.6265V15.4265H32.9143V15.1426Z" fill="white"/>
<path d="M33.3938 15.2363H33.106V15.5202H33.3938V15.2363Z" fill="white"/>
<path d="M33.9698 15.2363H33.5859V15.5202H33.8738V15.2363H33.9698Z" fill="white"/>
<path d="M34.4495 15.2363H34.1616V15.5202H34.4495V15.2363Z" fill="white"/>
<path d="M34.9295 15.332H34.6416V15.6159H34.9295V15.332Z" fill="white"/>
<path d="M31.0911 15.5215H30.8032V15.8054H31.0911V15.5215Z" fill="white"/>
<path d="M31.5706 15.5215H31.2827V15.8054H31.5706V15.5215Z" fill="white"/>
<path d="M32.0506 15.6152H31.7627V15.8991H32.0506V15.6152Z" fill="white"/>
<path d="M32.5306 15.6152H32.2427V15.8991H32.5306V15.6152Z" fill="white"/>
<path d="M33.01 15.6152H32.7222V15.8991H33.01V15.6152Z" fill="white"/>
<path d="M33.49 15.7109H33.2021V15.9948H33.49V15.7109Z" fill="white"/>
<path d="M34.0657 15.7109H33.7778V15.9948H34.0657V15.7109Z" fill="white"/>
<path d="M34.5457 15.8047H34.2578V16.0886H34.5457V15.8047Z" fill="white"/>
<path d="M35.0252 15.8047H34.7373V16.0886H35.0252V15.8047Z" fill="white"/>
<path d="M31.283 15.9941H30.9951V16.2781H31.283V15.9941Z" fill="white"/>
<path d="M31.6668 16.0898H31.3789V16.3738H31.6668V16.0898Z" fill="white"/>
<path d="M32.2425 16.0898H31.9546V16.3738H32.2425V16.0898Z" fill="white"/>
<path d="M32.7225 16.0898H32.4346V16.3738H32.7225V16.0898Z" fill="white"/>
<path d="M33.2019 16.0898H32.9141V16.3738H33.2019V16.0898Z" fill="white"/>
<path d="M33.6819 16.1836H33.394V16.4675H33.6819V16.1836Z" fill="white"/>
<path d="M34.1619 16.1836H33.874V16.4675H34.1619V16.1836Z" fill="white"/>
<path d="M34.6414 16.1836H34.3535V16.4675H34.6414V16.1836Z" fill="white"/>
<path d="M35.1214 16.1836H34.8335V16.4675H35.1214V16.1836Z" fill="white"/>
<path d="M31.3787 16.5625H31.0908V16.8464H31.3787V16.5625Z" fill="white"/>
<path d="M31.8587 16.5625H31.5708V16.8464H31.8587V16.5625Z" fill="white"/>
<path d="M32.3387 16.5625H32.0508V16.8464H32.3387V16.5625Z" fill="white"/>
<path d="M32.8182 16.5625H32.5303V16.8464H32.8182V16.5625Z" fill="white"/>
<path d="M33.2981 16.6562H33.0103V16.9402H33.2981V16.6562Z" fill="white"/>
<path d="M33.7776 16.6562H33.4897V16.9402H33.7776V16.6562Z" fill="white"/>
<path d="M34.1619 16.6562H33.874V16.9402H34.1619V16.6562Z" fill="white"/>
<path d="M34.6414 16.6562H34.3535V16.9402H34.6414V16.6562Z" fill="white"/>
<path d="M35.1214 16.6562H34.8335V16.9402H35.1214V16.6562Z" fill="white"/>
<path d="M31.4749 17.0352H31.187V17.3191H31.4749V17.0352Z" fill="white"/>
<path d="M31.9544 17.0352H31.6665V17.3191H31.9544V17.0352Z" fill="white"/>
<path d="M32.4344 17.0352H32.1465V17.3191H32.4344V17.0352Z" fill="white"/>
<path d="M32.9143 17.0352H32.6265V17.3191H32.9143V17.0352Z" fill="white"/>
<path d="M33.3938 17.0352H33.106V17.3191H33.3938V17.0352Z" fill="white"/>
<path d="M33.7776 17.0352H33.4897V17.3191H33.7776V17.0352Z" fill="white"/>
<path d="M34.2576 17.1309H33.9697V17.4148H34.2576V17.1309Z" fill="white"/>
<path d="M34.7376 17.1309H34.4497V17.4148H34.7376V17.1309Z" fill="white"/>
<path d="M35.2171 17.1309H34.9292V17.4148H35.2171V17.1309Z" fill="white"/>
<path d="M31.5706 17.5078H31.2827V17.7917H31.5706V17.5078Z" fill="white"/>
<path d="M32.0503 17.5078H31.6665V17.7917H31.9544V17.5078H32.0503Z" fill="white"/>
<path d="M32.4344 17.5078H32.1465V17.7917H32.4344V17.5078Z" fill="white"/>
<path d="M32.9143 17.5078H32.6265V17.7917H32.9143V17.5078Z" fill="white"/>
<path d="M33.3938 17.5078H33.106V17.7917H33.3938V17.5078Z" fill="white"/>
<path d="M33.8738 17.5078H33.5859V17.7917H33.8738V17.5078Z" fill="white"/>
<path d="M34.2576 17.5078H33.9697V17.7917H34.2576V17.5078Z" fill="white"/>
<path d="M34.7376 17.5078H34.4497V17.7917H34.7376V17.5078Z" fill="white"/>
<path d="M35.2171 17.5078H34.9292V17.7917H35.2171V17.5078Z" fill="white"/>
<path d="M31.6668 17.8867H31.3789V18.1706H31.6668V17.8867Z" fill="white"/>
<path d="M32.0506 17.8867H31.7627V18.1706H32.0506V17.8867Z" fill="white"/>
<path d="M32.5306 17.9824H32.2427V18.2663H32.5306V17.9824Z" fill="white"/>
<path d="M32.9143 17.9824H32.6265V18.2663H32.9143V17.9824Z" fill="white"/>
<path d="M33.3938 17.9824H33.106V18.2663H33.3938V17.9824Z" fill="white"/>
<path d="M33.8738 17.9824H33.5859V18.2663H33.8738V17.9824Z" fill="white"/>
<path d="M34.2576 17.9824H33.9697V18.2663H34.2576V17.9824Z" fill="white"/>
<path d="M34.7376 17.9824H34.4497V18.2663H34.7376V17.9824Z" fill="white"/>
<path d="M35.2171 17.9824H34.9292V18.2663H35.2171V17.9824Z" fill="white"/>
<path d="M31.6668 18.3594H31.3789V18.6433H31.6668V18.3594Z" fill="white"/>
<path d="M32.1463 18.3594H31.8584V18.6433H32.1463V18.3594Z" fill="white"/>
<path d="M32.5306 18.3594H32.2427V18.6433H32.5306V18.3594Z" fill="white"/>
<path d="M33.01 18.3594H32.7222V18.6433H33.01V18.3594Z" fill="white"/>
<path d="M33.49 18.3594H33.2021V18.6433H33.49V18.3594Z" fill="white"/>
<path d="M33.8738 18.3594H33.5859V18.6433H33.8738V18.3594Z" fill="white"/>
<path d="M34.3538 18.3594H34.0659V18.6433H34.3538V18.3594Z" fill="white"/>
<path d="M34.7376 18.3594H34.4497V18.6433H34.7376V18.3594Z" fill="white"/>
<path d="M35.2171 18.3594H34.9292V18.6433H35.2171V18.3594Z" fill="white"/>
<path d="M31.6668 18.834H31.3789V19.1179H31.6668V18.834Z" fill="white"/>
<path d="M32.1463 18.834H31.8584V19.1179H32.1463V18.834Z" fill="white"/>
<path d="M32.5306 18.834H32.2427V19.1179H32.5306V18.834Z" fill="white"/>
<path d="M33.01 18.834H32.7222V19.1179H33.01V18.834Z" fill="white"/>
<path d="M33.49 18.834H33.2021V19.1179H33.49V18.834Z" fill="white"/>
<path d="M33.8738 18.834H33.5859V19.1179H33.8738V18.834Z" fill="white"/>
<path d="M34.3538 18.834H34.0659V19.1179H34.3538V18.834Z" fill="white"/>
<path d="M34.7376 18.834H34.4497V19.1179H34.7376V18.834Z" fill="white"/>
<path d="M35.2171 18.834H34.9292V19.1179H35.2171V18.834Z" fill="white"/>
<path d="M31.6668 19.2129H31.3789V19.4968H31.6668V19.2129Z" fill="white"/>
<path d="M32.1463 19.2129H31.8584V19.4968H32.1463V19.2129Z" fill="white"/>
<path d="M32.5306 19.2129H32.2427V19.4968H32.5306V19.2129Z" fill="white"/>
<path d="M33.01 19.2129H32.7222V19.4968H33.01V19.2129Z" fill="white"/>
<path d="M33.49 19.2129H33.2021V19.4968H33.49V19.2129Z" fill="white"/>
<path d="M33.8738 19.2129H33.5859V19.4968H33.8738V19.2129Z" fill="white"/>
<path d="M34.3538 19.2129H34.0659V19.4968H34.3538V19.2129Z" fill="white"/>
<path d="M34.7376 19.2129H34.4497V19.4968H34.7376V19.2129Z" fill="white"/>
<path d="M35.2171 19.2129H34.9292V19.4968H35.2171V19.2129Z" fill="white"/>
<path d="M31.6668 19.6855H31.3789V19.9695H31.6668V19.6855Z" fill="white"/>
<path d="M32.1463 19.6855H31.8584V19.9695H32.1463V19.6855Z" fill="white"/>
<path d="M32.6263 19.6855H32.3384V19.9695H32.6263V19.6855Z" fill="white"/>
<path d="M33.01 19.6855H32.7222V19.9695H33.01V19.6855Z" fill="white"/>
<path d="M33.49 19.6855H33.2021V19.9695H33.49V19.6855Z" fill="white"/>
<path d="M33.8738 19.6855H33.5859V19.9695H33.8738V19.6855Z" fill="white"/>
<path d="M34.3538 19.6855H34.0659V19.9695H34.3538V19.6855Z" fill="white"/>
<path d="M34.7376 19.6855H34.4497V19.9695H34.7376V19.6855Z" fill="white"/>
<path d="M35.2171 19.6855H34.9292V19.9695H35.2171V19.6855Z" fill="white"/>
<path d="M31.6668 20.0645H31.3789V20.3484H31.6668V20.0645Z" fill="white"/>
<path d="M32.1463 20.0645H31.8584V20.3484H32.1463V20.0645Z" fill="white"/>
<path d="M32.6263 20.0645H32.3384V20.3484H32.6263V20.0645Z" fill="white"/>
<path d="M33.01 20.0645H32.7222V20.3484H33.01V20.0645Z" fill="white"/>
<path d="M33.49 20.0645H33.2021V20.3484H33.49V20.0645Z" fill="white"/>
<path d="M33.8738 20.0645H33.5859V20.3484H33.8738V20.0645Z" fill="white"/>
<path d="M34.3538 20.0645H34.0659V20.3484H34.3538V20.0645Z" fill="white"/>
<path d="M34.7376 20.0645H34.4497V20.3484H34.7376V20.0645Z" fill="white"/>
<path d="M35.2171 20.0645H34.9292V20.3484H35.2171V20.0645Z" fill="white"/>
<path d="M26.8687 20.7266L26.6768 20.8212L26.8687 20.7266Z" fill="white"/>
<path d="M27.3487 20.8201V20.6309L26.9648 20.7255V20.8201H27.3487Z" fill="white"/>
<path d="M27.7322 20.821C27.7322 20.7264 27.7322 20.5371 27.7322 20.5371C27.6363 20.5371 27.5403 20.5371 27.4443 20.5371V20.7264L27.7322 20.821Z" fill="white"/>
<path d="M31.6668 20.4414H31.3789V20.7253H31.6668V20.4414Z" fill="white"/>
<path d="M32.1463 20.4414H31.8584V20.7253H32.1463V20.4414Z" fill="white"/>
<path d="M32.6263 20.4414H32.3384V20.7253H32.6263V20.4414Z" fill="white"/>
<path d="M33.01 20.4414H32.7222V20.7253H33.01V20.4414Z" fill="white"/>
<path d="M33.49 20.4414H33.2021V20.7253H33.49V20.4414Z" fill="white"/>
<path d="M33.8738 20.4414H33.5859V20.7253H33.8738V20.4414Z" fill="white"/>
<path d="M34.3538 20.4414H34.0659V20.7253H34.3538V20.4414Z" fill="white"/>
<path d="M34.7376 20.4414H34.4497V20.7253H34.7376V20.4414Z" fill="white"/>
<path d="M35.2171 20.4414H34.9292V20.7253H35.2171V20.4414Z" fill="white"/>
<path d="M26.0052 21.199V21.0098L25.7173 21.1044V21.199H26.0052Z" fill="white"/>
<path d="M26.4847 21.1999V20.916L26.1968 21.0107V21.1999H26.4847Z" fill="white"/>
<path d="M26.8689 20.916H26.5811V21.1999H26.8689V20.916Z" fill="white"/>
<path d="M27.2527 20.916H26.9648V21.1999H27.2527V20.916Z" fill="white"/>
<path d="M27.7322 20.916H27.4443V21.1999H27.7322V20.916Z" fill="white"/>
<path d="M31.6668 20.916H31.3789V21.1999H31.6668V20.916Z" fill="white"/>
<path d="M32.1463 20.916H31.8584V21.1999H32.1463V20.916Z" fill="white"/>
<path d="M32.6263 20.916H32.3384V21.1999H32.6263V20.916Z" fill="white"/>
<path d="M33.01 20.916H32.7222V21.1999H33.01V20.916Z" fill="white"/>
<path d="M33.49 20.916H33.2021V21.1999H33.49V20.916Z" fill="white"/>
<path d="M33.8738 20.916H33.5859V21.1999H33.8738V20.916Z" fill="white"/>
<path d="M34.3538 20.916H34.0659V21.1999H34.3538V20.916Z" fill="white"/>
<path d="M34.7376 20.916H34.4497V21.1999H34.7376V20.916Z" fill="white"/>
<path d="M35.2171 20.916H34.9292V21.1999H35.2171V20.916Z" fill="white"/>
<path d="M24.7579 21.5771V21.4824L24.374 21.5771H24.7579Z" fill="white"/>
<path d="M25.1414 21.5769V21.293L24.8535 21.3876V21.5769H25.1414Z" fill="white"/>
<path d="M25.5252 21.293H25.2373V21.5769H25.5252V21.293Z" fill="white"/>
<path d="M26.0052 21.293H25.7173V21.5769H26.0052V21.293Z" fill="white"/>
<path d="M26.4847 21.293H26.1968V21.5769H26.4847V21.293Z" fill="white"/>
<path d="M26.8689 21.293H26.5811V21.5769H26.8689V21.293Z" fill="white"/>
<path d="M27.2527 21.293H26.9648V21.5769H27.2527V21.293Z" fill="white"/>
<path d="M27.7322 21.293H27.4443V21.5769H27.7322V21.293Z" fill="white"/>
<path d="M27.8281 21.5769H28.02C28.02 21.4822 27.9241 21.3876 27.9241 21.293H27.8281V21.5769Z" fill="white"/>
<path d="M31.283 21.293C31.283 21.3876 31.187 21.4822 31.187 21.5769H31.283V21.293Z" fill="white"/>
<path d="M31.6668 21.293H31.3789V21.5769H31.6668V21.293Z" fill="white"/>
<path d="M32.1463 21.293H31.8584V21.5769H32.1463V21.293Z" fill="white"/>
<path d="M32.6263 21.293H32.3384V21.5769H32.6263V21.293Z" fill="white"/>
<path d="M33.01 21.293H32.7222V21.5769H33.01V21.293Z" fill="white"/>
<path d="M33.49 21.293H33.2021V21.5769H33.49V21.293Z" fill="white"/>
<path d="M33.8738 21.293H33.5859V21.5769H33.8738V21.293Z" fill="white"/>
<path d="M34.3538 21.293H34.0659V21.5769H34.3538V21.293Z" fill="white"/>
<path d="M34.7376 21.293H34.4497V21.5769H34.7376V21.293Z" fill="white"/>
<path d="M34.9292 21.293V21.5769H35.2171C35.2171 21.4822 35.2171 21.3876 35.2171 21.293H34.9292Z" fill="white"/>
<path d="M24.2779 21.6719H24.0859C24.0859 21.7665 24.0859 21.8612 24.0859 21.9558H24.3738L24.2779 21.6719Z" fill="white"/>
<path d="M24.6619 21.6719H24.374V21.9558H24.6619V21.6719Z" fill="white"/>
<path d="M25.1414 21.6719H24.8535V21.9558H25.1414V21.6719Z" fill="white"/>
<path d="M25.5252 21.6719H25.2373V21.9558H25.5252V21.6719Z" fill="white"/>
<path d="M26.0052 21.6719H25.7173V21.9558H26.0052V21.6719Z" fill="white"/>
<path d="M26.4847 21.6719H26.1968V21.9558H26.4847V21.6719Z" fill="white"/>
<path d="M26.8689 21.6719H26.5811V21.9558H26.8689V21.6719Z" fill="white"/>
<path d="M27.2527 21.6719H26.9648V21.9558H27.2527V21.6719Z" fill="white"/>
<path d="M27.7322 21.6719H27.4443V21.9558H27.7322V21.6719Z" fill="white"/>
<path d="M27.8281 22.0504H28.116V21.7665C28.116 21.7665 28.116 21.7665 28.116 21.6719H27.8281V22.0504Z" fill="white"/>
<path d="M31.2828 22.0515V21.7676H31.0908C31.0908 21.8622 30.9949 21.9569 30.8989 22.0515H31.2828Z" fill="white"/>
<path d="M31.6668 21.6719H31.3789V21.9558H31.6668V21.6719Z" fill="white"/>
<path d="M32.1463 21.6719H31.8584V21.9558H32.1463V21.6719Z" fill="white"/>
<path d="M32.6263 21.6719H32.3384V21.9558H32.6263V21.6719Z" fill="white"/>
<path d="M33.01 21.6719H32.7222V21.9558H33.01V21.6719Z" fill="white"/>
<path d="M33.49 21.6719H33.2021V21.9558H33.49V21.6719Z" fill="white"/>
<path d="M33.8738 21.6719H33.5859V21.9558H33.8738V21.6719Z" fill="white"/>
<path d="M34.3538 21.6719H34.0659V21.9558H34.3538V21.6719Z" fill="white"/>
<path d="M34.7376 21.6719H34.4497V21.9558H34.7376V21.6719Z" fill="white"/>
<path d="M34.9295 22.0515H35.1214C35.1214 21.9569 35.1214 21.8622 35.1214 21.7676H34.8335V22.0515H34.9295Z" fill="white"/>
<path d="M24.2779 22.1465H24.0859C24.0859 22.2411 24.0859 22.3358 24.1819 22.4304H24.3738L24.2779 22.1465Z" fill="white"/>
<path d="M24.6619 22.1465H24.374V22.4304H24.6619V22.1465Z" fill="white"/>
<path d="M25.1414 22.1465H24.8535V22.4304H25.1414V22.1465Z" fill="white"/>
<path d="M25.5252 22.1465H25.2373V22.4304H25.5252V22.1465Z" fill="white"/>
<path d="M26.0052 22.1465H25.7173V22.4304H26.0052V22.1465Z" fill="white"/>
<path d="M26.4847 22.1465H26.1968V22.4304H26.4847V22.1465Z" fill="white"/>
<path d="M26.8689 22.1465H26.5811V22.4304H26.8689V22.1465Z" fill="white"/>
<path d="M27.2527 22.1465H26.9648V22.4304H27.2527V22.1465Z" fill="white"/>
<path d="M27.7322 22.1465H27.4443V22.4304H27.7322V22.1465Z" fill="white"/>
<path d="M28.212 22.1465H27.8281V22.4304H28.116V22.1465H28.212Z" fill="white"/>
<path d="M28.3081 22.4304H28.596V22.2411L28.5 22.1465H28.3081V22.4304Z" fill="white"/>
<path d="M29.076 22.4286C28.98 22.4286 28.884 22.334 28.7881 22.334V22.4286H29.076Z" fill="white"/>
<path d="M30.803 22.4304V22.1465C30.7071 22.2411 30.6111 22.3358 30.5151 22.3358V22.4304H30.803Z" fill="white"/>
<path d="M31.283 22.1465H30.9951V22.4304H31.283V22.1465Z" fill="white"/>
<path d="M31.6668 22.1465H31.3789V22.4304H31.6668V22.1465Z" fill="white"/>
<path d="M32.1463 22.1465H31.8584V22.4304H32.1463V22.1465Z" fill="white"/>
<path d="M32.6263 22.1465H32.3384V22.4304H32.6263V22.1465Z" fill="white"/>
<path d="M33.01 22.1465H32.7222V22.4304H33.01V22.1465Z" fill="white"/>
<path d="M33.49 22.1465H33.2021V22.4304H33.49V22.1465Z" fill="white"/>
<path d="M33.8738 22.1465H33.5859V22.4304H33.8738V22.1465Z" fill="white"/>
<path d="M34.3538 22.1465H34.0659V22.4304H34.3538V22.1465Z" fill="white"/>
<path d="M34.7376 22.1465H34.4497V22.4304H34.7376V22.1465Z" fill="white"/>
<path d="M34.9292 22.4304H35.0252C35.0252 22.3358 35.0252 22.2411 35.1211 22.1465H34.9292V22.4304Z" fill="white"/>
<path d="M24.2776 22.5234H24.1816C24.1816 22.6181 24.1816 22.7127 24.2776 22.8074V22.5234Z" fill="white"/>
<path d="M24.6619 22.5234H24.374V22.8074H24.6619V22.5234Z" fill="white"/>
<path d="M25.1414 22.5234H24.8535V22.8074H25.1414V22.5234Z" fill="white"/>
<path d="M25.5252 22.5234H25.2373V22.8074H25.5252V22.5234Z" fill="white"/>
<path d="M26.0052 22.5234H25.7173V22.8074H26.0052V22.5234Z" fill="white"/>
<path d="M26.4847 22.5234H26.1968V22.8074H26.4847V22.5234Z" fill="white"/>
<path d="M26.8689 22.5234H26.5811V22.8074H26.8689V22.5234Z" fill="white"/>
<path d="M27.2527 22.5234H26.9648V22.8074H27.2527V22.5234Z" fill="white"/>
<path d="M27.7322 22.5234H27.4443V22.8074H27.7322V22.5234Z" fill="white"/>
<path d="M28.212 22.5234H27.8281V22.8074H28.116V22.5234H28.212Z" fill="white"/>
<path d="M28.596 22.5234H28.3081V22.8074H28.596V22.5234Z" fill="white"/>
<path d="M29.076 22.5234H28.7881V22.8074H29.076V22.5234Z" fill="white"/>
<path d="M29.1719 22.8074H29.4598V22.5234H29.1719V22.8074Z" fill="white"/>
<path d="M29.9395 22.8074V22.5234H29.7476C29.7476 22.5234 29.6516 22.5234 29.5557 22.5234V22.8074H29.9395Z" fill="white"/>
<path d="M30.323 22.5234H30.0352V22.8074H30.323V22.5234Z" fill="white"/>
<path d="M30.803 22.5234H30.5151V22.8074H30.803V22.5234Z" fill="white"/>
<path d="M31.283 22.5234H30.9951V22.8074H31.283V22.5234Z" fill="white"/>
<path d="M31.6668 22.5234H31.3789V22.8074H31.6668V22.5234Z" fill="white"/>
<path d="M32.1463 22.5234H31.8584V22.8074H32.1463V22.5234Z" fill="white"/>
<path d="M32.6263 22.5234H32.3384V22.8074H32.6263V22.5234Z" fill="white"/>
<path d="M33.01 22.5234H32.7222V22.8074H33.01V22.5234Z" fill="white"/>
<path d="M33.49 22.5234H33.2021V22.8074H33.49V22.5234Z" fill="white"/>
<path d="M33.8738 22.5234H33.5859V22.8074H33.8738V22.5234Z" fill="white"/>
<path d="M34.3538 22.5234H34.0659V22.8074H34.3538V22.5234Z" fill="white"/>
<path d="M34.7376 22.5234H34.4497V22.8074H34.7376V22.5234Z" fill="white"/>
<path d="M34.9292 22.8074C34.9292 22.7127 35.0252 22.6181 35.0252 22.5234H34.9292V22.8074Z" fill="white"/>
<path d="M24.6619 22.9023H24.374V23.1863H24.6619V22.9023Z" fill="white"/>
<path d="M25.1414 22.9023H24.8535V23.1863H25.1414V22.9023Z" fill="white"/>
<path d="M25.5252 22.9023H25.2373V23.1863H25.5252V22.9023Z" fill="white"/>
<path d="M26.0052 22.9023H25.7173V23.1863H26.0052V22.9023Z" fill="white"/>
<path d="M26.4847 22.9023H26.1968V23.1863H26.4847V22.9023Z" fill="white"/>
<path d="M26.8689 22.9023H26.5811V23.1863H26.8689V22.9023Z" fill="white"/>
<path d="M27.2527 22.9023H26.9648V23.1863H27.2527V22.9023Z" fill="white"/>
<path d="M27.7322 22.9023H27.4443V23.1863H27.7322V22.9023Z" fill="white"/>
<path d="M28.212 22.9023H27.8281V23.1863H28.116V22.9023H28.212Z" fill="white"/>
<path d="M28.596 22.9023H28.3081V23.1863H28.596V22.9023Z" fill="white"/>
<path d="M29.076 22.9023H28.7881V23.1863H29.076V22.9023Z" fill="white"/>
<path d="M29.5555 22.9023H29.2676V23.1863H29.5555V22.9023Z" fill="white"/>
<path d="M29.9392 22.9023H29.6514V23.1863H29.9392V22.9023Z" fill="white"/>
<path d="M30.323 22.9023H30.0352V23.1863H30.323V22.9023Z" fill="white"/>
<path d="M30.803 22.9023H30.5151V23.1863H30.803V22.9023Z" fill="white"/>
<path d="M31.283 22.9023H30.9951V23.1863H31.283V22.9023Z" fill="white"/>
<path d="M31.6668 22.9023H31.3789V23.1863H31.6668V22.9023Z" fill="white"/>
<path d="M32.1463 22.9023H31.8584V23.1863H32.1463V22.9023Z" fill="white"/>
<path d="M32.6263 22.9023H32.3384V23.1863H32.6263V22.9023Z" fill="white"/>
<path d="M33.01 22.9023H32.7222V23.1863H33.01V22.9023Z" fill="white"/>
<path d="M33.49 22.9023H33.2021V23.1863H33.49V22.9023Z" fill="white"/>
<path d="M33.8738 22.9023H33.5859V23.1863H33.8738V22.9023Z" fill="white"/>
<path d="M34.3538 22.9023H34.0659V23.1863H34.3538V22.9023Z" fill="white"/>
<path d="M34.4497 22.9023V23.1863H34.7376V23.0916V22.9023H34.4497Z" fill="white"/>
<path d="M24.7576 23.375H24.4697C24.4697 23.4696 24.5657 23.5643 24.5657 23.6589H24.7576V23.375Z" fill="white"/>
<path d="M25.1414 23.375H24.8535V23.6589H25.1414V23.375Z" fill="white"/>
<path d="M25.5252 23.375H25.2373V23.6589H25.5252V23.375Z" fill="white"/>
<path d="M26.0052 23.375H25.7173V23.6589H26.0052V23.375Z" fill="white"/>
<path d="M26.4847 23.375H26.1968V23.6589H26.4847V23.375Z" fill="white"/>
<path d="M26.8689 23.375H26.5811V23.6589H26.8689V23.375Z" fill="white"/>
<path d="M27.2527 23.375H26.9648V23.6589H27.2527V23.375Z" fill="white"/>
<path d="M27.7322 23.375H27.4443V23.6589H27.7322V23.375Z" fill="white"/>
<path d="M28.212 23.375H27.8281V23.6589H28.116V23.375H28.212Z" fill="white"/>
<path d="M28.596 23.375H28.3081V23.6589H28.596V23.375Z" fill="white"/>
<path d="M29.076 23.375H28.7881V23.6589H29.076V23.375Z" fill="white"/>
<path d="M29.5555 23.375H29.2676V23.6589H29.5555V23.375Z" fill="white"/>
<path d="M29.9392 23.375H29.6514V23.6589H29.9392V23.375Z" fill="white"/>
<path d="M30.323 23.375H30.0352V23.6589H30.323V23.375Z" fill="white"/>
<path d="M30.803 23.375H30.5151V23.6589H30.803V23.375Z" fill="white"/>
<path d="M31.283 23.375H30.9951V23.6589H31.283V23.375Z" fill="white"/>
<path d="M31.6668 23.375H31.3789V23.6589H31.6668V23.375Z" fill="white"/>
<path d="M32.1463 23.375H31.8584V23.6589H32.1463V23.375Z" fill="white"/>
<path d="M32.6263 23.375H32.3384V23.6589H32.6263V23.375Z" fill="white"/>
<path d="M33.01 23.375H32.7222V23.6589H33.01V23.375Z" fill="white"/>
<path d="M33.49 23.375H33.2021V23.6589H33.49V23.375Z" fill="white"/>
<path d="M33.8738 23.375H33.5859V23.6589H33.8738V23.375Z" fill="white"/>
<path d="M34.3538 23.375H34.0659V23.6589H34.3538V23.375Z" fill="white"/>
<path d="M34.4497 23.6589C34.5457 23.5643 34.6416 23.4696 34.6416 23.375H34.4497V23.6589Z" fill="white"/>
<path d="M24.5659 23.7539C24.5659 23.8485 24.6619 23.8485 24.6619 23.9432V23.7539H24.5659Z" fill="white"/>
<path d="M25.1414 23.7539H24.8535V24.0378H25.1414V23.7539Z" fill="white"/>
<path d="M25.5252 23.7539H25.2373V24.0378H25.5252V23.7539Z" fill="white"/>
<path d="M26.0052 23.7539H25.7173V24.0378H26.0052V23.7539Z" fill="white"/>
<path d="M26.4847 23.7539H26.1968V24.0378H26.4847V23.7539Z" fill="white"/>
<path d="M26.8689 23.7539H26.5811V24.0378H26.8689V23.7539Z" fill="white"/>
<path d="M27.2527 23.7539H26.9648V24.0378H27.2527V23.7539Z" fill="white"/>
<path d="M27.7322 23.7539H27.4443V24.0378H27.7322V23.7539Z" fill="white"/>
<path d="M28.212 23.7539H27.8281V24.0378H28.116V23.7539H28.212Z" fill="white"/>
<path d="M28.596 23.7539H28.3081V24.0378H28.596V23.7539Z" fill="white"/>
<path d="M29.076 23.7539H28.7881V24.0378H29.076V23.7539Z" fill="white"/>
<path d="M29.5555 23.7539H29.2676V24.0378H29.5555V23.7539Z" fill="white"/>
<path d="M29.9392 23.7539H29.6514V24.0378H29.9392V23.7539Z" fill="white"/>
<path d="M30.323 23.7539H30.0352V24.0378H30.323V23.7539Z" fill="white"/>
<path d="M30.803 23.7539H30.5151V24.0378H30.803V23.7539Z" fill="white"/>
<path d="M31.283 23.7539H30.9951V24.0378H31.283V23.7539Z" fill="white"/>
<path d="M31.6668 23.7539H31.3789V24.0378H31.6668V23.7539Z" fill="white"/>
<path d="M32.1463 23.7539H31.8584V24.0378H32.1463V23.7539Z" fill="white"/>
<path d="M32.6263 23.7539H32.3384V24.0378H32.6263V23.7539Z" fill="white"/>
<path d="M33.01 23.7539H32.7222V24.0378H33.01V23.7539Z" fill="white"/>
<path d="M33.49 23.7539H33.2021V24.0378H33.49V23.7539Z" fill="white"/>
<path d="M33.8738 23.7539H33.5859V24.0378H33.8738V23.7539Z" fill="white"/>
<path d="M34.0659 23.7539V24.0378H34.3538C34.3538 24.0378 34.3538 23.9432 34.4498 23.9432V23.7539H34.0659Z" fill="white"/>
<path d="M25.1414 24.2285H24.8535C24.9495 24.3232 24.9495 24.4178 25.0454 24.5124H25.1414V24.2285Z" fill="white"/>
<path d="M25.5252 24.2285H25.2373V24.5124H25.5252V24.2285Z" fill="white"/>
<path d="M26.0052 24.2285H25.7173V24.5124H26.0052V24.2285Z" fill="white"/>
<path d="M26.4847 24.2285H26.1968V24.5124H26.4847V24.2285Z" fill="white"/>
<path d="M26.8689 24.2285H26.5811V24.5124H26.8689V24.2285Z" fill="white"/>
<path d="M27.2527 24.2285H26.9648V24.5124H27.2527V24.2285Z" fill="white"/>
<path d="M27.7322 24.2285H27.4443V24.5124H27.7322V24.2285Z" fill="white"/>
<path d="M28.212 24.2285H27.8281V24.5124H28.116V24.2285H28.212Z" fill="white"/>
<path d="M28.596 24.2285H28.3081V24.5124H28.596V24.2285Z" fill="white"/>
<path d="M29.076 24.2285H28.7881V24.5124H29.076V24.2285Z" fill="white"/>
<path d="M29.5555 24.2285H29.2676V24.5124H29.5555V24.2285Z" fill="white"/>
<path d="M29.9392 24.2285H29.6514V24.5124H29.9392V24.2285Z" fill="white"/>
<path d="M30.323 24.2285H30.0352V24.5124H30.323V24.2285Z" fill="white"/>
<path d="M30.803 24.2285H30.5151V24.5124H30.803V24.2285Z" fill="white"/>
<path d="M31.283 24.2285H30.9951V24.5124H31.283V24.2285Z" fill="white"/>
<path d="M31.6668 24.2285H31.3789V24.5124H31.6668V24.2285Z" fill="white"/>
<path d="M32.1463 24.2285H31.8584V24.5124H32.1463V24.2285Z" fill="white"/>
<path d="M32.6263 24.2285H32.3384V24.5124H32.6263V24.2285Z" fill="white"/>
<path d="M33.01 24.2285H32.7222V24.5124H33.01V24.2285Z" fill="white"/>
<path d="M33.49 24.2285H33.2021V24.5124H33.49V24.2285Z" fill="white"/>
<path d="M33.8738 24.2285H33.5859V24.5124H33.8738V24.2285Z" fill="white"/>
<path d="M34.0659 24.4178C34.0659 24.3232 34.1619 24.2285 34.2578 24.2285H34.0659V24.4178Z" fill="white"/>
<path d="M25.5252 24.6055H25.2373V24.7947L25.3333 24.8894H25.5252V24.6055Z" fill="white"/>
<path d="M26.0052 24.6055H25.7173V24.8894H26.0052V24.6055Z" fill="white"/>
<path d="M26.4847 24.6055H26.1968V24.8894H26.4847V24.6055Z" fill="white"/>
<path d="M26.8689 24.6055H26.5811V24.8894H26.8689V24.6055Z" fill="white"/>
<path d="M27.2527 24.6055H26.9648V24.8894H27.2527V24.6055Z" fill="white"/>
<path d="M27.7322 24.6055H27.4443V24.8894H27.7322V24.6055Z" fill="white"/>
<path d="M28.212 24.6055H27.8281V24.8894H28.116V24.6055H28.212Z" fill="white"/>
<path d="M28.596 24.6055H28.3081V24.8894H28.596V24.6055Z" fill="white"/>
<path d="M29.076 24.6055H28.7881V24.8894H29.076V24.6055Z" fill="white"/>
<path d="M29.5555 24.6055H29.2676V24.8894H29.5555V24.6055Z" fill="white"/>
<path d="M29.9392 24.6055H29.6514V24.8894H29.9392V24.6055Z" fill="white"/>
<path d="M30.323 24.6055H30.0352V24.8894H30.323V24.6055Z" fill="white"/>
<path d="M30.803 24.6055H30.5151V24.8894H30.803V24.6055Z" fill="white"/>
<path d="M31.283 24.6055H30.9951V24.8894H31.283V24.6055Z" fill="white"/>
<path d="M31.6668 24.6055H31.3789V24.8894H31.6668V24.6055Z" fill="white"/>
<path d="M32.1463 24.6055H31.8584V24.8894H32.1463V24.6055Z" fill="white"/>
<path d="M32.6263 24.6055H32.3384V24.8894H32.6263V24.6055Z" fill="white"/>
<path d="M33.01 24.6055H32.7222V24.8894H33.01V24.6055Z" fill="white"/>
<path d="M33.49 24.6055H33.2021V24.8894H33.49V24.6055Z" fill="white"/>
<path d="M33.5859 24.8894C33.6819 24.7947 33.7779 24.7001 33.8738 24.6055H33.5859V24.8894Z" fill="white"/>
<path d="M25.4292 24.9844C25.5252 25.079 25.5252 25.079 25.4292 24.9844V24.9844Z" fill="white"/>
<path d="M26.0052 24.9844H25.7173V25.1737L25.8132 25.2683H26.0052V24.9844Z" fill="white"/>
<path d="M26.4847 24.9844H26.1968V25.2683H26.4847V24.9844Z" fill="white"/>
<path d="M26.8689 24.9844H26.5811V25.2683H26.8689V24.9844Z" fill="white"/>
<path d="M27.2527 24.9844H26.9648V25.2683H27.2527V24.9844Z" fill="white"/>
<path d="M27.7322 24.9844H27.4443V25.2683H27.7322V24.9844Z" fill="white"/>
<path d="M28.212 24.9844H27.8281V25.2683H28.116V24.9844H28.212Z" fill="white"/>
<path d="M28.596 24.9844H28.3081V25.2683H28.596V24.9844Z" fill="white"/>
<path d="M29.076 24.9844H28.7881V25.2683H29.076V24.9844Z" fill="white"/>
<path d="M29.5555 24.9844H29.2676V25.2683H29.5555V24.9844Z" fill="white"/>
<path d="M29.9392 24.9844H29.6514V25.2683H29.9392V24.9844Z" fill="white"/>
<path d="M30.323 24.9844H30.0352V25.2683H30.323V24.9844Z" fill="white"/>
<path d="M30.803 24.9844H30.5151V25.2683H30.803V24.9844Z" fill="white"/>
<path d="M31.283 24.9844H30.9951V25.2683H31.283V24.9844Z" fill="white"/>
<path d="M31.6668 24.9844H31.3789V25.2683H31.6668V24.9844Z" fill="white"/>
<path d="M32.1463 24.9844H31.8584V25.2683H32.1463V24.9844Z" fill="white"/>
<path d="M32.6263 24.9844H32.3384V25.2683H32.6263V24.9844Z" fill="white"/>
<path d="M33.01 24.9844H32.7222V25.2683H33.01V24.9844Z" fill="white"/>
<path d="M33.106 25.2683C33.2019 25.1737 33.2979 25.079 33.3938 24.9844H33.106V25.2683Z" fill="white"/>
<path d="M26.1011 25.457V25.5517C26.197 25.6463 26.293 25.6463 26.389 25.7409V25.457H26.1011Z" fill="white"/>
<path d="M26.8689 25.457H26.5811V25.7409H26.8689V25.457Z" fill="white"/>
<path d="M27.2527 25.457H26.9648V25.7409H27.2527V25.457Z" fill="white"/>
<path d="M27.7322 25.457H27.4443V25.7409H27.7322V25.457Z" fill="white"/>
<path d="M28.212 25.457H27.8281V25.7409H28.116V25.457H28.212Z" fill="white"/>
<path d="M28.596 25.457H28.3081V25.7409H28.596V25.457Z" fill="white"/>
<path d="M29.076 25.457H28.7881V25.7409H29.076V25.457Z" fill="white"/>
<path d="M29.5555 25.457H29.2676V25.7409H29.5555V25.457Z" fill="white"/>
<path d="M29.9392 25.457H29.6514V25.7409H29.9392V25.457Z" fill="white"/>
<path d="M30.323 25.457H30.0352V25.7409H30.323V25.457Z" fill="white"/>
<path d="M30.803 25.457H30.5151V25.7409H30.803V25.457Z" fill="white"/>
<path d="M31.283 25.457H30.9951V25.7409H31.283V25.457Z" fill="white"/>
<path d="M31.6668 25.457H31.3789V25.7409H31.6668V25.457Z" fill="white"/>
<path d="M32.1463 25.457H31.8584V25.7409H32.1463V25.457Z" fill="white"/>
<path d="M32.2427 25.457V25.7409H32.3386C32.4346 25.7409 32.4346 25.6463 32.5306 25.6463V25.457H32.2427Z" fill="white"/>
<path d="M32.7222 25.5517C32.8181 25.5517 32.8181 25.457 32.9141 25.457H32.7222V25.5517Z" fill="white"/>
<path d="M26.5811 25.8359C26.677 25.8359 26.773 25.9306 26.8689 25.9306V25.8359H26.5811Z" fill="white"/>
<path d="M26.9648 25.8359V26.0252C27.0608 26.0252 27.1568 26.1199 27.2527 26.1199V25.8359H26.9648Z" fill="white"/>
<path d="M27.7322 25.8359H27.4443V26.1199H27.7322V25.8359Z" fill="white"/>
<path d="M28.212 25.8359H27.8281V26.1199H28.116V25.8359H28.212Z" fill="white"/>
<path d="M28.596 25.8359H28.3081V26.1199H28.596V25.8359Z" fill="white"/>
<path d="M29.076 25.8359H28.7881V26.1199H29.076V25.8359Z" fill="white"/>
<path d="M29.5555 25.8359H29.2676V26.1199H29.5555V25.8359Z" fill="white"/>
<path d="M29.9392 25.8359H29.6514V26.1199H29.9392V25.8359Z" fill="white"/>
<path d="M30.323 25.8359H30.0352V26.1199H30.323V25.8359Z" fill="white"/>
<path d="M30.803 25.8359H30.5151V26.1199H30.803V25.8359Z" fill="white"/>
<path d="M31.283 25.8359H30.9951V26.1199H31.283V25.8359Z" fill="white"/>
<path d="M31.3789 25.8359V26.1199C31.4749 26.1199 31.5708 26.0252 31.6668 26.0252V25.8359H31.3789Z" fill="white"/>
<path d="M31.8584 25.8359V25.9306C31.9544 25.9306 32.0503 25.8359 32.1463 25.8359H31.8584Z" fill="white"/>
<path d="M27.8281 26.3105C27.9241 26.3105 28.02 26.3105 28.116 26.4052V26.3105H27.8281Z" fill="white"/>
<path d="M28.3081 26.3105C28.4041 26.4052 28.5 26.4052 28.596 26.4052V26.3105H28.3081Z" fill="white"/>
<path d="M28.7881 26.3105V26.4052C28.884 26.4052 28.98 26.4052 29.076 26.4052V26.3105H28.7881Z" fill="white"/>
<path d="M29.1719 26.3105V26.4998H29.2678C29.2678 26.4998 29.3638 26.4998 29.4598 26.4998V26.3105H29.1719Z" fill="white"/>
<path d="M29.6514 26.3105V26.4052C29.7473 26.4052 29.8433 26.4052 29.9392 26.4052V26.3105H29.6514Z" fill="white"/>
<path d="M30.0352 26.3105V26.4052C30.1311 26.4052 30.2271 26.4052 30.323 26.4052V26.3105H30.0352Z" fill="white"/>
<path d="M30.5151 26.3105C30.6111 26.4052 30.7071 26.3105 30.803 26.3105H30.5151Z" fill="white"/>
<path d="M41.6464 32.1761C44.4552 32.1761 46.7323 29.9304 46.7323 27.1603C46.7323 24.3902 44.4552 22.1445 41.6464 22.1445C38.8376 22.1445 36.5605 24.3902 36.5605 27.1603C36.5605 29.9304 38.8376 32.1761 41.6464 32.1761Z" fill="#F09537"/>
<path d="M41.8383 31.7034C44.6471 31.7034 46.9242 29.4578 46.9242 26.6876C46.9242 23.9175 44.6471 21.6719 41.8383 21.6719C39.0295 21.6719 36.7524 23.9175 36.7524 26.6876C36.7524 29.4578 39.0295 31.7034 41.8383 31.7034Z" fill="#F6C957"/>
<path d="M43.7573 23.281C44.7169 23.8489 45.2926 24.606 45.5805 25.647C45.8684 26.5933 45.7724 27.6343 45.1967 28.5807C45.1007 28.6754 45.1967 28.8646 45.2926 28.8646C45.3886 28.9593 45.5805 28.8646 45.5805 28.77C46.732 26.688 46.0603 24.1328 43.9492 22.9025C43.8532 22.8078 43.6613 22.9025 43.6613 22.9971C43.5654 23.0918 43.6613 23.281 43.7573 23.281Z" fill="#F9ED4F"/>
<path d="M39.1517 26.782C38.9597 26.6873 38.9597 26.498 39.0557 26.3088L40.4951 23.8482C40.5911 23.6589 40.783 23.6589 40.9749 23.7536L42.0305 24.3214C42.3183 24.5107 42.6062 24.6999 42.7022 24.9839C42.7981 25.2678 42.7981 25.5517 42.6062 25.741C42.5103 25.9302 42.3183 26.1195 42.1264 26.2141C41.9345 26.3088 41.7426 26.3088 41.4547 26.2141C41.5507 26.3088 41.6466 26.498 41.6466 26.782V27.5391C41.6466 27.6337 41.6466 27.7283 41.5507 27.823C41.4547 27.9176 41.3587 27.9176 41.2628 27.823C41.1668 27.823 41.1668 27.7283 41.0709 27.6337V27.4444V26.4034C41.0709 26.3088 41.0709 26.2141 40.9749 26.1195C40.8789 26.0249 40.8789 26.0249 40.783 25.9302L40.3991 25.741L39.8234 26.6873C39.4395 26.8766 39.2476 26.8766 39.1517 26.782ZM40.3032 25.3624L40.9749 25.741C41.3587 25.9302 41.6466 25.9302 41.8385 25.5517C42.0305 25.2678 41.9345 24.9839 41.5507 24.6999L40.8789 24.3214L40.3032 25.3624Z" fill="white"/>
<path d="M41.5506 29.1474C41.3587 29.0527 41.3587 28.9581 41.4546 28.7688L42.7981 26.4029C42.894 26.2136 42.99 26.2136 43.1819 26.3083C43.3738 26.4029 43.3738 26.4975 43.2779 26.6868L43.1819 26.7814C43.2779 26.6868 43.4698 26.6868 43.5657 26.6868C43.7577 26.6868 43.8536 26.6868 44.0455 26.7814C44.2375 26.8761 44.3334 26.9707 44.4294 27.16C44.5253 27.3493 44.5253 27.5385 44.5253 27.7278C44.5253 27.9171 44.4294 28.1064 44.3334 28.3903C44.2375 28.5796 44.0455 28.7688 43.8536 28.8635C43.6617 28.9581 43.4698 29.0527 43.2779 29.0527C43.0859 29.0527 42.894 29.0527 42.7021 28.9581C42.5102 28.8635 42.4142 28.7688 42.3183 28.6742C42.2223 28.5796 42.2223 28.3903 42.2223 28.2956L41.7425 29.1474C41.8385 29.242 41.7425 29.242 41.5506 29.1474ZM42.99 28.4849C43.1819 28.5796 43.2779 28.5796 43.4698 28.4849C43.6617 28.3903 43.7577 28.2956 43.9496 28.1064C44.0455 27.9171 44.1415 27.7278 44.1415 27.5385C44.1415 27.3493 44.0455 27.2546 43.8536 27.16C43.6617 27.0654 43.5657 27.0654 43.3738 27.0654C43.1819 27.16 43.0859 27.2546 42.894 27.4439C42.7981 27.6332 42.7021 27.8225 42.7021 28.0117C42.7021 28.201 42.7981 28.3903 42.99 28.4849Z" fill="white"/>
<path d="M47.308 50.7259L33.1059 54.2275C30.1312 54.8899 28.0201 54.8899 25.1413 54.2275L9.40392 50.5366C7.77261 50.1581 6.62109 48.7385 6.62109 47.035V28.2969L24.7575 32.5556C27.3484 33.1234 29.9393 33.1234 32.5302 32.5556L50.7625 28.2969V46.3726C50.7625 48.4546 49.3231 50.2527 47.308 50.7259Z" fill="#5DCEE8"/>
<path d="M24.9492 37.9499L9.5957 34.4483V33.502L24.9492 37.0035V37.9499Z" fill="#2891B5"/>
<path d="M24.9492 41.6413L9.5957 38.1397V37.1934L24.9492 40.6949V41.6413Z" fill="#2891B5"/>
<path d="M24.9492 45.3308L9.5957 41.8292V40.8828L24.9492 44.3844V45.3308Z" fill="#2891B5"/>
<path d="M24.9492 49.0222L9.5957 45.5206V44.5742L24.9492 48.0758V49.0222Z" fill="#2891B5"/>
<path d="M46.8283 46.1833L34.8334 49.0224C33.4899 49.3063 32.1465 48.3599 32.1465 46.9404V38.8016C32.1465 37.7606 32.8182 36.9088 33.8738 36.7196L45.8687 33.8804C47.2121 33.5965 48.5556 34.5429 48.5556 35.9625V44.1013C48.5556 45.1423 47.8839 45.994 46.8283 46.1833Z" fill="#2891B5"/>
<path d="M53.7372 40.316C54.4262 40.316 54.9847 39.7652 54.9847 39.0858C54.9847 38.4063 54.4262 37.8555 53.7372 37.8555C53.0483 37.8555 52.4897 38.4063 52.4897 39.0858C52.4897 39.7652 53.0483 40.316 53.7372 40.316Z" fill="#F1F2F2"/>
<path d="M17.8486 27.6351C20.6574 27.6351 22.9344 25.3894 22.9344 22.6193C22.9344 19.8492 20.6574 17.6035 17.8486 17.6035C15.0397 17.6035 12.7627 19.8492 12.7627 22.6193C12.7627 25.3894 15.0397 27.6351 17.8486 27.6351Z" fill="#F09537"/>
<path d="M17.5605 27.2562C20.3693 27.2562 22.6463 25.0105 22.6463 22.2404C22.6463 19.4702 20.3693 17.2246 17.5605 17.2246C14.7516 17.2246 12.4746 19.4702 12.4746 22.2404C12.4746 25.0105 14.7516 27.2562 17.5605 27.2562Z" fill="#F6C957"/>
<path d="M16.2173 18.6449C17.1769 18.2663 18.3284 18.3609 19.192 18.7395C20.0557 19.118 20.8233 19.8751 21.2072 20.9161C21.2072 21.0108 21.3991 21.1054 21.4951 21.0108C21.591 21.0108 21.687 20.8215 21.591 20.7269C20.7274 18.5502 18.2324 17.4146 16.0254 18.2663C15.9294 18.2663 15.8334 18.4556 15.9294 18.5502C15.9294 18.6449 16.0254 18.7395 16.2173 18.6449Z" fill="#F9ED4F"/>
<path d="M15.9292 24.4176C15.7373 24.5122 15.6413 24.4176 15.5453 24.2283L14.4898 21.5784C14.3938 21.3892 14.4898 21.2945 14.6817 21.1999L15.7373 20.8213C16.1211 20.7267 16.409 20.6321 16.6969 20.7267C16.9847 20.8213 17.1767 21.0106 17.2726 21.2945C17.3686 21.5784 17.3686 21.7677 17.2726 21.957C17.1767 22.1463 17.0807 22.3355 16.8888 22.4302C17.0807 22.4302 17.2726 22.5248 17.3686 22.6194L17.9443 23.0926C18.0403 23.1873 18.0403 23.2819 18.0403 23.3765C18.0403 23.4712 17.9443 23.5658 17.8484 23.5658C17.7524 23.5658 17.6565 23.5658 17.6565 23.5658L17.4645 23.4712L16.6969 22.8087C16.6009 22.7141 16.5049 22.7141 16.409 22.7141C16.313 22.7141 16.2171 22.7141 16.1211 22.8087L15.6413 22.998L16.0251 24.039C16.2171 24.1336 16.1211 24.3229 15.9292 24.4176ZM15.5453 22.5248L16.2171 22.2409C16.6009 22.0516 16.7928 21.8623 16.6969 21.4838C16.6009 21.1053 16.313 21.0106 15.8332 21.1999L15.1615 21.4838L15.5453 22.5248Z" fill="white"/>
<path d="M19.3835 24.0376C19.1916 24.1323 19.0956 24.0376 18.9997 23.8483L18.0401 21.2931C17.9441 21.1039 18.0401 21.0092 18.232 20.9146C18.4239 20.82 18.5199 20.9146 18.6158 21.1039V21.1985C18.6158 21.1039 18.7118 20.9146 18.8078 20.82C18.9037 20.7253 18.9997 20.6307 19.1916 20.536C19.3835 20.4414 19.5754 20.4414 19.7674 20.4414C19.9593 20.4414 20.1512 20.536 20.2472 20.7253C20.4391 20.82 20.535 21.0092 20.631 21.2931C20.727 21.4824 20.727 21.7663 20.727 21.9556C20.727 22.1449 20.631 22.3341 20.535 22.5234C20.4391 22.7127 20.2472 22.8073 20.0552 22.902C19.8633 22.9966 19.7674 22.9966 19.5754 22.9966C19.3835 22.9966 19.2876 22.902 19.1916 22.8073L19.5754 23.6591C19.5754 23.8483 19.5754 23.943 19.3835 24.0376ZM19.6714 22.5234C19.8633 22.4288 19.9593 22.3341 20.0552 22.1449C20.1512 21.9556 20.0552 21.7663 19.9593 21.5771C19.8633 21.2931 19.7674 21.1985 19.5754 21.1039C19.3835 21.0092 19.2876 21.0092 19.0956 21.1039C18.9037 21.1985 18.8078 21.2931 18.7118 21.4824C18.6158 21.6717 18.7118 21.861 18.8078 22.0502C18.9037 22.3341 18.9997 22.4288 19.1916 22.5234C19.3835 22.5234 19.5754 22.5234 19.6714 22.5234Z" fill="white"/>
</svg>
