<svg width="137" height="135" viewBox="0 0 137 135" fill="none" xmlns="http://www.w3.org/2000/svg">
<g clip-path="url(#clip0_651_107992)">
<path d="M89 134.201H34.8C15.7 134.201 0 118.501 0 99.4008V45.2008C0 26.0008 15.7 10.3008 34.8 10.3008H89C108.2 10.3008 123.8 26.0008 123.8 45.1008V99.3008C123.9 118.501 108.2 134.201 89 134.201Z" fill="#FAE78D"/>
<path d="M90.6999 127.4H33.7999C20.0999 127.4 8.8999 116.2 8.8999 102.5V94.3004C8.8999 80.6004 20.0999 69.4004 33.7999 69.4004H90.6999C104.4 69.4004 115.6 80.6004 115.6 94.3004V102.5C115.6 116.2 104.4 127.4 90.6999 127.4Z" fill="#FAEFC3"/>
<path d="M88.1001 127.8H36.1001C31.7001 127.8 28.1001 124.2 28.1001 119.8V8C28.1001 3.6 31.7001 0 36.1001 0H88.1001C92.5001 0 96.1001 3.6 96.1001 8V119.9C96.0001 124.3 92.5001 127.8 88.1001 127.8Z" fill="#11748E"/>
<path d="M92.7 9.79922V117.199C92.7 120.799 89.7 123.799 86.1 123.799H38.1C34.5 123.799 31.5 120.799 31.5 117.199V9.79922C31.5 6.19922 34.5 3.19922 38.1 3.19922H86.1C89.7 3.19922 92.7 6.09922 92.7 9.79922Z" fill="#2FAAE1"/>
<path opacity="0.15" d="M86.1 3.19922L38.7 123.799H38.1C34.5 123.799 31.5 120.799 31.5 117.199V9.79922C31.5 6.19922 34.5 3.19922 38.1 3.19922H86.1Z" fill="white"/>
<path d="M71.9001 7.20078H52.3001C50.5001 7.20078 49.1001 5.80078 49.1001 4.00078C49.1001 2.20078 50.5001 0.800781 52.3001 0.800781H71.9001C73.7001 0.800781 75.1001 2.20078 75.1001 4.00078C75.1001 5.80078 73.7001 7.20078 71.9001 7.20078Z" fill="#11748E"/>
<path d="M85.4 47.5996H39.5V55.3996H85.4V47.5996Z" fill="#F1F2F2"/>
<path d="M60.8 54.3008H41V48.8008H63.1L60.8 54.3008Z" fill="#B8DD82"/>
<path d="M118.3 114.999H73.5L79.4 44.6992H121L118.3 114.999Z" fill="#F09537"/>
<path d="M127.7 105.299L118.3 114.999L121 44.6992H131.4L136.2 113.899L127.7 105.299Z" fill="#F6C957"/>
<path d="M127.7 105.299L136.2 113.899L118.3 114.999L127.7 105.299Z" fill="#F09537"/>
<path d="M107.8 44.6992V40.1992C107.8 38.8992 108.3 37.5992 109.2 36.6992C110.1 35.7992 111.3 35.2992 112.7 35.2992H117.2C118.5 35.2992 119.8 35.7992 120.7 36.6992C121.6 37.5992 122.1 38.7992 122.1 40.1992V44.6992H126.7V40.1992C126.7 37.5992 125.6 35.1992 123.9 33.4992C122.2 31.7992 119.8 30.6992 117.2 30.6992H112.7C110.1 30.6992 107.7 31.7992 106 33.4992C104.3 35.1992 103.2 37.5992 103.2 40.1992V44.6992H107.8Z" fill="#F6C957"/>
<path d="M93.8 44.7V39.8C93.8 38.3 94.4 37 95.4 36C96.4 35 97.7 34.4 99.2 34.4H104.1C105.6 34.4 106.9 35 107.9 36C108.9 37 109.5 38.3 109.5 39.8V44.7H114.5V39.8C114.5 37 113.3 34.4 111.5 32.5C109.6 30.6 107.1 29.5 104.2 29.5H99.3C96.5 29.5 93.9 30.7 92 32.5C90.1 34.4 89 36.9 89 39.8V44.7H93.8Z" fill="#F09537"/>
<path d="M31.5 76.7008L62.7 76.8008L79.5 69.8008L78.9 75.1008H84.8V103.001H70.7C69 103.001 67.6 101.601 67.6 100.001H31.5V76.7008Z" fill="#FFBC9D"/>
<path d="M102.5 95.8012H85.1999C83.3999 95.8012 81.8999 94.3012 81.8999 92.5012C81.8999 90.7012 83.3999 89.2012 85.1999 89.2012H102.5C104.3 89.2012 105.8 90.7012 105.8 92.5012C105.8 94.3012 104.3 95.8012 102.5 95.8012Z" fill="#FFBC9D"/>
<path d="M103.6 81.6H83.6999C81.8999 81.6 80.3999 80.1 80.3999 78.3C80.3999 76.5 81.8999 75 83.6999 75H103.6C105.4 75 106.9 76.5 106.9 78.3C106.9 80.2 105.4 81.6 103.6 81.6Z" fill="#FFBC9D"/>
<path d="M88.8001 72.8008L74.0001 79.4008C72.6001 80.0008 70.9001 79.4008 70.3001 78.0008L69.9001 77.2008C69.3001 75.8008 69.9001 74.1008 71.3001 73.5008L89.0001 65.5008C89.9001 65.1008 90.9001 65.5008 91.3001 66.4008C92.3001 68.8008 91.2001 71.7008 88.8001 72.8008Z" fill="#FFBC9D"/>
<path d="M98.9999 102.901H81.6999C79.8999 102.901 78.3999 101.401 78.3999 99.6008C78.3999 97.8008 79.8999 96.3008 81.6999 96.3008H98.9999C100.8 96.3008 102.3 97.8008 102.3 99.6008C102.2 101.401 100.8 102.901 98.9999 102.901Z" fill="#FFBC9D"/>
<path d="M106.7 88.7016H85.1999C83.3999 88.7016 81.8999 87.2016 81.8999 85.4016C81.8999 83.6016 83.3999 82.1016 85.1999 82.1016H106.6C108.4 82.1016 109.9 83.6016 109.9 85.4016C109.9 87.2016 108.5 88.7016 106.7 88.7016Z" fill="#FFBC9D"/>
<path d="M87.2998 81.6004C87.2998 81.6004 85.2998 81.5004 84.7998 82.1004C84.2998 82.8004 84.2998 80.4004 84.2998 80.4004L87.2998 81.6004Z" fill="#FFBC9D"/>
<path d="M87.2998 88.8016C87.2998 88.8016 85.2998 88.7016 84.7998 89.3016C84.2998 90.0016 84.2998 87.6016 84.2998 87.6016L87.2998 88.8016Z" fill="#FFBC9D"/>
<path d="M87.2998 95.8016C87.2998 95.8016 85.2998 95.7016 84.7998 96.3016C84.2998 97.0016 84.2998 94.6016 84.2998 94.6016L87.2998 95.8016Z" fill="#FFBC9D"/>
<path d="M50.5 26.0984C50.3 26.0984 50.2 26.0984 50.1 25.9984C50 25.8984 50 25.6984 50 25.5984V21.8984C50 21.6984 50 21.5984 50.1 21.4984C50.2 21.3984 50.3 21.3984 50.5 21.3984H52.1C52.6 21.3984 53 21.4984 53.3 21.7984C53.6 22.0984 53.7 22.3984 53.7 22.8984C53.7 23.3984 53.6 23.6984 53.3 23.9984C53 24.2984 52.6 24.3984 52.1 24.3984H51V25.5984C51 25.7984 51 25.8984 50.9 25.9984C50.8 26.0984 50.7 26.0984 50.5 26.0984ZM51 23.5984H52C52.3 23.5984 52.5 23.4984 52.6 23.3984C52.7 23.2984 52.8 23.0984 52.8 22.8984C52.8 22.6984 52.7 22.4984 52.6 22.3984C52.5 22.2984 52.3 22.1984 52 22.1984H51V23.5984Z" fill="white"/>
<path d="M54.9004 26.0984C54.7004 26.0984 54.6004 26.0984 54.5004 25.9984C54.4004 25.8984 54.4004 25.7984 54.4004 25.5984V21.8984C54.4004 21.6984 54.4004 21.5984 54.5004 21.4984C54.6004 21.3984 54.7004 21.3984 54.9004 21.3984H56.5004C57.0004 21.3984 57.4004 21.4984 57.7004 21.7984C58.0004 21.9984 58.1004 22.3984 58.1004 22.7984C58.1004 23.0984 58.0004 23.2984 57.9004 23.5984C57.8004 23.7984 57.6004 23.9984 57.4004 24.0984C57.2004 24.1984 56.9004 24.2984 56.5004 24.2984L56.6004 24.1984H56.9004C57.1004 24.1984 57.2004 24.1984 57.4004 24.2984C57.5004 24.3984 57.7004 24.4984 57.8004 24.6984L58.2004 25.4984C58.3004 25.5984 58.3004 25.6984 58.3004 25.7984C58.3004 25.8984 58.3004 25.9984 58.2004 26.0984C58.1004 26.1984 58.0004 26.1984 57.9004 26.1984C57.8004 26.1984 57.6004 26.1984 57.5004 26.0984C57.4004 25.9984 57.3004 25.8984 57.3004 25.7984L56.7004 24.5984C56.6004 24.4984 56.6004 24.3984 56.5004 24.3984C56.4004 24.3984 56.3004 24.2984 56.2004 24.2984H55.7004V25.5984C55.7004 25.7984 55.7004 25.8984 55.6004 25.9984C55.2004 26.0984 55.1004 26.0984 54.9004 26.0984ZM55.4004 23.4984H56.3004C56.6004 23.4984 56.8004 23.3984 56.9004 23.2984C57.0004 23.1984 57.1004 22.9984 57.1004 22.7984C57.1004 22.5984 57.0004 22.3984 56.9004 22.2984C56.8004 22.1984 56.6004 22.0984 56.3004 22.0984H55.4004V23.4984Z" fill="white"/>
<path d="M61.1003 26.0992C60.6003 26.0992 60.2003 25.9992 59.9003 25.7992C59.6003 25.5992 59.3003 25.2992 59.1003 24.9992C58.9003 24.5992 58.8003 24.1992 58.8003 23.6992C58.8003 23.2992 58.9003 22.9992 59.0003 22.6992C59.1003 22.3992 59.3003 22.1992 59.5003 21.8992C59.7003 21.6992 59.9003 21.4992 60.2003 21.3992C60.5003 21.2992 60.8003 21.1992 61.1003 21.1992C61.6003 21.1992 62.0003 21.2992 62.3003 21.4992C62.6003 21.6992 62.9003 21.9992 63.1003 22.2992C63.3003 22.6992 63.4003 23.0992 63.4003 23.5992C63.4003 23.9992 63.3003 24.2992 63.2003 24.5992C63.1003 24.8992 62.9003 25.0992 62.7003 25.3992C62.5003 25.5992 62.3003 25.7992 62.0003 25.8992C61.8003 26.0992 61.5003 26.0992 61.1003 26.0992ZM61.1003 25.1992C61.4003 25.1992 61.6003 25.0992 61.8003 24.9992C62.0003 24.8992 62.1003 24.6992 62.2003 24.4992C62.3003 24.2992 62.3003 23.9992 62.3003 23.6992C62.3003 23.1992 62.2003 22.7992 62.0003 22.5992C61.8003 22.2992 61.5003 22.1992 61.1003 22.1992C60.8003 22.1992 60.6003 22.2992 60.4003 22.3992C60.2003 22.4992 60.1003 22.6992 60.0003 22.8992C59.9003 23.0992 59.9003 23.3992 59.9003 23.6992C59.9003 24.1992 60.0003 24.5992 60.2003 24.7992C60.4003 24.9992 60.7003 25.1992 61.1003 25.1992Z" fill="white"/>
<path d="M65.9001 26.0988C65.7001 26.0988 65.5001 26.0988 65.3001 26.0988C65.1001 26.0988 64.9001 25.9988 64.8001 25.9988C64.6001 25.8988 64.5001 25.8988 64.3001 25.7988C64.2001 25.6988 64.1001 25.6988 64.1001 25.5988C64.1001 25.4988 64.0001 25.3988 64.1001 25.2988C64.1001 25.1988 64.1001 25.0988 64.2001 25.0988C64.3001 24.9988 64.3001 24.9988 64.4001 24.9988C64.5001 24.9988 64.6001 24.9988 64.7001 24.9988C64.9001 25.0988 65.1001 25.1988 65.3001 25.1988C65.5001 25.1988 65.7001 25.2988 65.9001 25.2988C66.2001 25.2988 66.4001 25.2988 66.6001 25.1988C66.7001 25.0988 66.8001 24.9988 66.8001 24.7988C66.8001 24.6988 66.8001 24.5988 66.7001 24.4988C66.6001 24.3988 66.4001 24.3988 66.2001 24.2988L65.5001 24.0988C65.1001 23.9988 64.8001 23.8988 64.6001 23.5988C64.4001 23.3988 64.3001 23.0988 64.3001 22.7988C64.3001 22.5988 64.3001 22.3988 64.4001 22.1988C64.5001 21.9988 64.6001 21.8988 64.8001 21.6988C65.0001 21.5988 65.2001 21.4988 65.4001 21.3988C65.6001 21.2988 65.9001 21.2988 66.2001 21.2988C66.4001 21.2988 66.7001 21.2988 66.9001 21.3988C67.1001 21.4988 67.3001 21.4988 67.5001 21.6988C67.6001 21.7988 67.6001 21.7988 67.7001 21.8988C67.7001 21.9988 67.7001 22.0988 67.7001 22.0988C67.7001 22.1988 67.7001 22.2988 67.6001 22.2988C67.5001 22.3988 67.5001 22.3988 67.4001 22.3988C67.3001 22.3988 67.2001 22.3988 67.1001 22.2988C67.0001 22.1988 66.8001 22.1988 66.6001 22.0988C66.4001 21.9988 66.3001 21.9988 66.1001 21.9988C65.9001 21.9988 65.8001 21.9988 65.6001 22.0988C65.5001 22.0988 65.4001 22.1988 65.3001 22.2988C65.2001 22.3988 65.2001 22.4988 65.2001 22.5988C65.2001 22.6988 65.2001 22.7988 65.3001 22.8988C65.4001 22.9988 65.6001 22.9988 65.8001 23.0988L66.5001 23.2988C66.9001 23.3988 67.3001 23.4988 67.5001 23.6988C67.7001 23.8988 67.8001 24.1988 67.8001 24.4988C67.8001 24.6988 67.8001 24.8988 67.7001 25.0988C67.6001 25.2988 67.5001 25.3988 67.3001 25.5988C67.1001 25.6988 66.9001 25.7988 66.7001 25.8988C66.4001 26.0988 66.1001 26.0988 65.9001 26.0988Z" fill="white"/>
<path d="M68.9004 25.9984C68.7004 25.9984 68.6004 25.9984 68.5004 25.8984C68.4004 25.7984 68.4004 25.6984 68.4004 25.4984V21.8984C68.4004 21.6984 68.4004 21.5984 68.5004 21.4984C68.6004 21.3984 68.7004 21.3984 68.9004 21.3984H71.2004C71.3004 21.3984 71.4004 21.3984 71.5004 21.4984C71.6004 21.5984 71.6004 21.6984 71.6004 21.7984C71.6004 21.8984 71.6004 21.9984 71.5004 22.0984C71.4004 22.1984 71.3004 22.1984 71.2004 22.1984H69.3004V23.2984H71.0004C71.1004 23.2984 71.2004 23.2984 71.3004 23.3984C71.4004 23.4984 71.4004 23.5984 71.4004 23.6984C71.4004 23.7984 71.4004 23.8984 71.3004 23.9984C71.2004 24.0984 71.1004 24.0984 71.0004 24.0984H69.3004V25.2984H71.2004C71.3004 25.2984 71.4004 25.2984 71.5004 25.3984C71.6004 25.4984 71.6004 25.5984 71.6004 25.6984C71.6004 25.7984 71.6004 25.8984 71.5004 25.9984C71.5004 25.9984 71.4004 25.9984 71.2004 25.9984H68.9004Z" fill="white"/>
<path d="M74.0002 26.0988C73.8002 26.0988 73.6002 26.0988 73.4002 26.0988C73.2002 26.0988 73.0002 25.9988 72.9002 25.9988C72.7002 25.8988 72.6002 25.8988 72.4002 25.7988C72.3002 25.6988 72.2002 25.6988 72.2002 25.5988C72.2002 25.4988 72.1002 25.3988 72.2002 25.2988C72.2002 25.1988 72.2002 25.0988 72.3002 25.0988C72.4002 24.9988 72.4002 24.9988 72.5002 24.9988C72.6002 24.9988 72.7002 24.9988 72.8002 24.9988C73.0002 25.0988 73.2002 25.1988 73.4002 25.1988C73.6002 25.1988 73.8002 25.2988 74.0002 25.2988C74.3002 25.2988 74.5002 25.2988 74.7002 25.1988C74.8002 25.0988 74.9002 24.9988 74.9002 24.7988C74.9002 24.6988 74.9002 24.5988 74.8002 24.4988C74.7002 24.3988 74.5002 24.3988 74.3002 24.2988L73.6002 24.0988C73.2002 23.9988 72.9002 23.8988 72.7002 23.5988C72.5002 23.3988 72.4002 23.0988 72.4002 22.7988C72.4002 22.5988 72.4002 22.3988 72.5002 22.1988C72.6002 21.9988 72.7002 21.8988 72.9002 21.6988C73.1002 21.5988 73.3002 21.4988 73.5002 21.3988C73.7002 21.2988 74.0002 21.2988 74.3002 21.2988C74.5002 21.2988 74.8002 21.2988 75.0002 21.3988C75.2002 21.4988 75.4002 21.4988 75.6002 21.6988C75.7002 21.7988 75.7002 21.7988 75.8002 21.8988C75.8002 21.9988 75.8002 22.0988 75.8002 22.0988C75.8002 22.1988 75.8002 22.2988 75.7002 22.2988C75.6002 22.3988 75.6002 22.3988 75.5002 22.3988C75.4002 22.3988 75.3002 22.3988 75.2002 22.2988C75.1002 22.1988 74.9002 22.1988 74.7002 22.0988C74.5002 21.9988 74.4002 21.9988 74.2002 21.9988C74.0002 21.9988 73.9002 21.9988 73.7002 22.0988C73.6002 22.0988 73.5002 22.1988 73.4002 22.2988C73.3002 22.3988 73.3002 22.4988 73.3002 22.5988C73.3002 22.6988 73.3002 22.7988 73.4002 22.8988C73.5002 22.9988 73.7002 22.9988 73.9002 23.0988L74.6002 23.2988C75.0002 23.3988 75.4002 23.4988 75.6002 23.6988C75.8002 23.8988 75.9002 24.1988 75.9002 24.4988C75.9002 24.6988 75.9002 24.8988 75.8002 25.0988C75.7002 25.2988 75.6002 25.3988 75.4002 25.5988C75.2002 25.6988 75.0002 25.7988 74.8002 25.8988C74.6002 26.0988 74.3002 26.0988 74.0002 26.0988Z" fill="white"/>
<path d="M40.2002 33.9988C40.0002 33.9988 39.9002 33.9988 39.8002 33.8988C39.7002 33.7988 39.7002 33.6988 39.7002 33.4988V29.7988C39.7002 29.5988 39.7002 29.4988 39.8002 29.3988C39.9002 29.2988 40.0002 29.2988 40.2002 29.2988H41.8002C42.3002 29.2988 42.7002 29.3988 43.0002 29.6988C43.3002 29.9988 43.4002 30.2988 43.4002 30.7988C43.4002 31.2988 43.3002 31.5988 43.0002 31.8988C42.7002 32.1988 42.3002 32.2988 41.8002 32.2988H40.7002V33.4988C40.7002 33.6988 40.7002 33.7988 40.6002 33.8988C40.5002 33.8988 40.4002 33.9988 40.2002 33.9988ZM40.7002 31.4988H41.6002C41.9002 31.4988 42.1002 31.3988 42.2002 31.2988C42.3002 31.1988 42.4002 30.9988 42.4002 30.7988C42.4002 30.5988 42.3002 30.3988 42.2002 30.2988C42.1002 30.1988 41.9002 30.0988 41.6002 30.0988H40.7002V31.4988Z" fill="white"/>
<path d="M44.6001 33.8988C44.4001 33.8988 44.3001 33.8988 44.2001 33.7988C44.1001 33.6988 44.1001 33.5988 44.1001 33.3988V29.7988C44.1001 29.5988 44.1001 29.4988 44.2001 29.3988C44.3001 29.2988 44.4001 29.2988 44.6001 29.2988H46.9001C47.0001 29.2988 47.1001 29.2988 47.2001 29.3988C47.3001 29.4988 47.3001 29.5988 47.3001 29.6988C47.3001 29.7988 47.3001 29.8988 47.2001 29.9988C47.1001 30.0988 47.0001 30.0988 46.9001 30.0988H45.0001V31.1988H46.7001C46.8001 31.1988 46.9001 31.1988 47.0001 31.2988C47.1001 31.3988 47.1001 31.4988 47.1001 31.5988C47.1001 31.6988 47.1001 31.7988 47.0001 31.8988C47.0001 31.8988 46.9001 31.9988 46.7001 31.9988H45.0001V33.1988H46.9001C47.0001 33.1988 47.1001 33.1988 47.2001 33.2988C47.3001 33.3988 47.3001 33.4988 47.3001 33.5988C47.3001 33.6988 47.3001 33.7988 47.2001 33.8988C47.1001 33.9988 47.0001 33.9988 46.9001 33.9988H44.6001V33.8988Z" fill="white"/>
<path d="M48.5001 33.9984C48.4001 33.9984 48.2001 33.9984 48.2001 33.8984C48.1001 33.7984 48.1001 33.6984 48.1001 33.5984V29.7984C48.1001 29.6984 48.1001 29.4984 48.2001 29.4984C48.3001 29.3984 48.4001 29.3984 48.6001 29.3984C48.7001 29.3984 48.8001 29.3984 48.9001 29.4984C49.0001 29.5984 49.0001 29.5984 49.1001 29.7984L50.6001 32.5984H50.4001L51.9001 29.7984C52.0001 29.6984 52.0001 29.5984 52.1001 29.4984C52.2001 29.3984 52.3001 29.3984 52.4001 29.3984C52.5001 29.3984 52.7001 29.3984 52.7001 29.4984C52.8001 29.5984 52.8001 29.6984 52.8001 29.7984V33.5984C52.8001 33.6984 52.8001 33.8984 52.7001 33.8984C52.7001 33.9984 52.6001 33.9984 52.4001 33.9984C52.2001 33.9984 52.1001 33.9984 52.1001 33.8984C52.0001 33.7984 52.0001 33.6984 52.0001 33.5984V30.8984H52.1001L50.9001 32.9984C50.8001 33.0984 50.8001 33.0984 50.7001 33.1984C50.6001 33.1984 50.6001 33.2984 50.5001 33.2984C50.4001 33.2984 50.3001 33.2984 50.3001 33.1984C50.2001 33.1984 50.2001 33.0984 50.1001 32.9984L48.9001 30.7984H49.0001V33.4984C49.0001 33.5984 49.0001 33.7984 48.9001 33.7984C48.8001 33.9984 48.7001 33.9984 48.5001 33.9984Z" fill="white"/>
<path d="M54.3003 33.8988C54.1003 33.8988 54.0003 33.8988 53.9003 33.7988C53.8003 33.6988 53.8003 33.5988 53.8003 33.3988V29.7988C53.8003 29.5988 53.8003 29.4988 53.9003 29.3988C54.0003 29.2988 54.1003 29.2988 54.3003 29.2988H55.9003C56.2003 29.2988 56.5003 29.2988 56.7003 29.3988C56.9003 29.4988 57.1003 29.5988 57.2003 29.7988C57.3003 29.9988 57.4003 30.1988 57.4003 30.3988C57.4003 30.6988 57.3003 30.8988 57.2003 31.0988C57.0003 31.2988 56.8003 31.3988 56.5003 31.4988V31.3988C56.8003 31.4988 57.1003 31.5988 57.2003 31.7988C57.4003 31.9988 57.5003 32.1988 57.5003 32.5988C57.5003 32.9988 57.4003 33.2988 57.1003 33.5988C56.8003 33.7988 56.4003 33.8988 55.9003 33.8988H54.3003ZM54.8003 31.1988H55.8003C56.1003 31.1988 56.2003 31.1988 56.4003 31.0988C56.5003 30.9988 56.6003 30.8988 56.6003 30.6988C56.6003 30.4988 56.5003 30.3988 56.4003 30.2988C56.3003 30.1988 56.1003 30.1988 55.8003 30.1988H54.8003V31.1988ZM54.8003 33.1988H55.9003C56.2003 33.1988 56.4003 33.0988 56.5003 32.9988C56.6003 32.8988 56.7003 32.6988 56.7003 32.4988C56.7003 32.2988 56.6003 32.0988 56.5003 31.9988C56.3003 31.9988 56.1003 31.9988 55.9003 31.9988H54.8003V33.1988Z" fill="white"/>
<path d="M58.5001 33.9988C58.4001 33.9988 58.3001 33.9988 58.2001 33.8988C58.1001 33.7988 58.1001 33.7988 58.1001 33.6988C58.1001 33.5988 58.1001 33.4988 58.2001 33.3988L59.9001 29.6988C60.0001 29.5988 60.1001 29.3988 60.1001 29.3988C60.2001 29.2988 60.3001 29.2988 60.4001 29.2988C60.5001 29.2988 60.6001 29.2988 60.7001 29.3988C60.8001 29.4988 60.9001 29.5988 60.9001 29.6988L62.6001 33.3988C62.7001 33.4988 62.7001 33.5988 62.7001 33.6988C62.7001 33.7988 62.6001 33.8988 62.6001 33.8988C62.5001 33.9988 62.4001 33.9988 62.3001 33.9988C62.2001 33.9988 62.0001 33.9988 62.0001 33.8988C62.0001 33.7988 61.8001 33.6988 61.8001 33.5988L61.4001 32.6988L61.8001 32.9988H59.0001L59.4001 32.6988L59.0001 33.5988C58.9001 33.7988 58.9001 33.8988 58.8001 33.8988C58.8001 33.9988 58.7001 33.9988 58.5001 33.9988ZM60.4001 30.3988L59.6001 32.3988L59.4001 32.0988H61.5001L61.3001 32.3988L60.4001 30.3988Z" fill="white"/>
<path d="M64.9 33.9996C64.7 33.9996 64.6 33.9996 64.5 33.8996C64.4 33.7996 64.4 33.6996 64.4 33.4996V31.5996L64.6 32.1996L63 29.9996C63 29.7996 63 29.6996 63 29.5996C63 29.4996 63.1 29.3996 63.1 29.2996C63.1 29.1996 63.3 29.1996 63.4 29.1996C63.5 29.1996 63.6 29.1996 63.7 29.2996C63.8 29.3996 63.9 29.3996 63.9 29.4996L65 30.9996H64.8L65.9 29.4996C66 29.3996 66.1 29.2996 66.1 29.1996C66.1 29.0996 66.3 29.0996 66.4 29.0996C66.5 29.0996 66.6 29.0996 66.7 29.1996C66.8 29.2996 66.8 29.3996 66.8 29.4996C66.8 29.5996 66.8 29.6996 66.7 29.7996L65.2 31.9996L65.4 31.3996V33.2996C65.5 33.7996 65.3 33.9996 64.9 33.9996Z" fill="white"/>
<path d="M67.6002 33.9988C67.5002 33.9988 67.4002 33.9988 67.3002 33.8988C67.2002 33.7988 67.2002 33.7988 67.2002 33.6988C67.2002 33.5988 67.2002 33.4988 67.3002 33.3988L69.0002 29.6988C69.1002 29.5988 69.2002 29.3988 69.2002 29.3988C69.3002 29.2988 69.4002 29.2988 69.5002 29.2988C69.6002 29.2988 69.7002 29.2988 69.8002 29.3988C69.9002 29.4988 70.0002 29.5988 70.0002 29.6988L71.7002 33.3988C71.8002 33.4988 71.8002 33.5988 71.8002 33.6988C71.8002 33.7988 71.7002 33.8988 71.7002 33.8988C71.6002 33.9988 71.5002 33.9988 71.4002 33.9988C71.3002 33.9988 71.1002 33.9988 71.1002 33.8988C71.1002 33.7988 70.9002 33.6988 70.9002 33.5988L70.5002 32.6988L70.9002 32.9988H68.2002L68.6002 32.6988L68.2002 33.5988C68.1002 33.7988 68.1002 33.8988 68.0002 33.8988C67.9002 33.9988 67.8002 33.9988 67.6002 33.9988ZM69.5002 30.3988L68.7002 32.3988L68.5002 32.0988H70.6002L70.4002 32.3988L69.5002 30.3988Z" fill="white"/>
<path d="M72.9004 33.9988C72.7004 33.9988 72.6004 33.9988 72.5004 33.8988C72.4004 33.7988 72.4004 33.6988 72.4004 33.4988V29.7988C72.4004 29.5988 72.4004 29.4988 72.5004 29.3988C72.6004 29.2988 72.7004 29.2988 72.9004 29.2988H74.5004C75.0004 29.2988 75.4004 29.3988 75.7004 29.6988C76.0004 29.8988 76.1004 30.2988 76.1004 30.6988C76.1004 30.9988 76.0004 31.1988 75.9004 31.4988C75.8004 31.6988 75.6004 31.8988 75.4004 31.9988C75.2004 32.0988 74.9004 32.1988 74.5004 32.1988L74.6004 32.0988H74.9004C75.1004 32.0988 75.2004 32.0988 75.4004 32.1988C75.5004 32.2988 75.7004 32.3988 75.8004 32.5988L76.2004 33.3988C76.3004 33.4988 76.3004 33.5988 76.3004 33.6988C76.3004 33.7988 76.3004 33.8988 76.2004 33.9988C76.0004 33.9988 75.9004 33.9988 75.8004 33.9988C75.7004 33.9988 75.5004 33.9988 75.4004 33.8988C75.3004 33.7988 75.2004 33.6988 75.2004 33.5988L74.6004 32.3988C74.5004 32.2988 74.5004 32.1988 74.4004 32.1988C74.3004 32.1988 74.2004 32.0988 74.1004 32.0988H73.6004V33.3988C73.6004 33.5988 73.6004 33.6988 73.5004 33.7988C73.2004 33.8988 73.1004 33.9988 72.9004 33.9988ZM73.5004 31.3988H74.4004C74.7004 31.3988 74.9004 31.2988 75.0004 31.1988C75.1004 31.0988 75.2004 30.8988 75.2004 30.6988C75.2004 30.4988 75.1004 30.2988 75.0004 30.1988C74.9004 30.0988 74.7004 29.9988 74.4004 29.9988H73.5004V31.3988Z" fill="white"/>
<path d="M77.1002 33.9988C77.0002 33.9988 76.9002 33.9988 76.8002 33.8988C76.7002 33.7988 76.7002 33.7988 76.7002 33.6988C76.7002 33.5988 76.7002 33.4988 76.8002 33.3988L78.5002 29.6988C78.6002 29.5988 78.7002 29.3988 78.7002 29.3988C78.8002 29.2988 78.9002 29.2988 79.0002 29.2988C79.1002 29.2988 79.2002 29.2988 79.3002 29.3988C79.4002 29.4988 79.5002 29.5988 79.5002 29.6988L81.2002 33.3988C81.3002 33.4988 81.3002 33.5988 81.3002 33.6988C81.3002 33.7988 81.2002 33.8988 81.2002 33.8988C81.2002 33.9988 81.1002 33.9988 80.9002 33.9988C80.8002 33.9988 80.6002 33.9988 80.6002 33.8988C80.6002 33.7988 80.4002 33.6988 80.4002 33.5988L80.0002 32.5988L80.4002 32.8988H77.7002L78.1002 32.5988L77.7002 33.4988C77.6002 33.6988 77.6002 33.7988 77.5002 33.7988C77.4002 33.9988 77.3002 33.9988 77.1002 33.9988ZM79.0002 30.3988L78.2002 32.3988L78.0002 32.0988H80.0002L79.8002 32.3988L79.0002 30.3988Z" fill="white"/>
<path d="M82.4 33.9988C82.2 33.9988 82.1 33.9988 82 33.8988C82 33.7988 82 33.6988 82 33.4988V29.7988C82 29.5988 82 29.4988 82.1 29.3988C82.2 29.2988 82.3 29.2988 82.4 29.2988C82.5 29.2988 82.6 29.2988 82.7 29.3988C82.8 29.3988 82.8 29.4988 82.9 29.5988L85.2 32.4988H85V29.7988C85 29.5988 85 29.4988 85.1 29.3988C85.2 29.2988 85.3 29.2988 85.5 29.2988C85.7 29.2988 85.8 29.2988 85.9 29.3988C86 29.4988 86 29.5988 86 29.7988V33.5988C86 33.6988 86 33.8988 85.9 33.8988C85.8 33.9988 85.7 33.9988 85.6 33.9988C85.5 33.9988 85.4 33.9988 85.3 33.8988C85.2 33.8988 85.1 33.7988 85.1 33.6988L82.8 30.7988H83V33.4988C83 33.6988 83 33.7988 82.9 33.8988C82.7 33.9988 82.6 33.9988 82.4 33.9988Z" fill="white"/>
</g>
<defs>
<clipPath id="clip0_651_107992">
<rect width="136.2" height="134.2" fill="white"/>
</clipPath>
</defs>
</svg>
