<?xml version="1.0" encoding="utf-8"?>
<!-- Generator: Adobe Illustrator 21.0.0, SVG Export Plug-In . SVG Version: 6.00 Build 0)  -->
<svg version="1.1" id="Layer_1" xmlns="http://www.w3.org/2000/svg" xmlns:xlink="http://www.w3.org/1999/xlink" x="0px" y="0px"
	 viewBox="0 0 300 300" style="enable-background:new 0 0 300 300;" xml:space="preserve">
<style type="text/css">
	.st0{fill:#FFFFFF;}
</style>
<g>
	<path class="st0" d="M54,172.4h-1.2l-0.3-19.1c0-2.2-0.3-4.3-1-6.3c-1-3.4-3.1-6.3-5.6-8.5c-10.1-10.1-3.9-23.7,8.2-23.7
		s18.2,13.6,8.2,23.7c-2.7,2.2-4.6,5.1-5.6,8.5c-0.7,2-1,4.3-1,6.3l-0.2,19.1H54z"/>
	<path class="st0" d="M287.1,116.5h-34.4l-12.3,20.3h7.2L221,186.4h25l5.3-12.3H266v12.3h24.2L287.1,116.5z M258.6,157.1l7-16v16
		H258.6z"/>
	<path class="st0" d="M216.9,187.9c-44.6,6-47.9-24.7-43.1-38.9c3.2-9.4,15.5-35.3,51.5-30.8l1.2-2.7l16.5,8.7l-11.6,19.1
		c-12.6-10.9-30.3-3.1-34.2,4.6c-5.5,10.6-1.9,26.9,29.8,17.4L216.9,187.9z"/>
	<path class="st0" d="M169.7,119.2c-6.1-4.4-11.9-3.6-18.9-3.4l-22.7,0.3l-10.9,19.8h6.8l-14.7,49.2h24.4c11.2,0,19.8,0,27.4-5.1
		c9.2-6,12.8-18.1,2.4-30.7C177.3,141.4,179.7,126.4,169.7,119.2z M147,167h-12.3l3.2-10.6h9.4C152.3,157.8,152,165.3,147,167
		L147,167z M151.1,144.3h-9.4l3.2-10.6h6.6C156.2,135.1,156,142.6,151.1,144.3L151.1,144.3z"/>
	<path class="st0" d="M97.9,150.1c0-6-0.7-12.1-2-17.9c-1.4-6.1-3.4-12.3-6.1-17.9l-0.5-0.5c-5.6-2.2-11.6-4.1-17.6-5.3
		c-11.6-2.2-23.5-2.2-35.3,0c-6,1.2-11.9,2.9-17.6,5.3l-0.9,0.3c-2.7,5.8-4.8,11.8-6.1,17.9c-1.4,6-2,11.9-2,17.9l0,0
		c0,6,0.7,12.1,2,17.9c1.4,6.1,3.6,12.3,6.1,17.9l0.5,0.5c5.6,2.2,11.6,4.1,17.6,5.3c11.6,2.2,23.5,2.2,35.3,0
		c6-1.2,11.9-2.9,17.6-5.3l0.5-0.5c2.7-5.8,4.8-11.8,6.1-17.9C97.3,162,97.9,156,97.9,150.1L97.9,150.1L97.9,150.1z M95.7,150.1
		c0,5.8-0.7,11.8-1.9,17.4c-1.4,5.8-3.2,11.6-5.8,17c-5.5,2.2-11.1,3.7-16.7,4.9c-11.4,2.2-23,2.2-34.4,0
		c-5.8-1.2-11.4-2.7-16.7-4.9c-2.6-5.5-4.4-11.2-5.8-17c-1.7-5.6-2.4-11.6-2.4-17.4l0,0c0-5.8,0.5-11.8,1.9-17.4
		c1.4-5.8,3.2-11.6,5.8-17c5.5-2.2,11.1-3.7,16.7-4.9c11.4-2.2,23-2.2,34.4,0c5.8,1.2,11.4,2.7,16.7,4.9c2.6,5.5,4.4,11.2,5.8,17
		C95,138.3,95.6,144.1,95.7,150.1L95.7,150.1L95.7,150.1z"/>
	<path class="st0" d="M33.4,184.2l0.2-0.9c-0.2,0.3-0.5,0.5-0.7,0.7c-0.3,0.2-0.7,0.2-1,0c-0.7-0.2-1.2-0.5-1.4-1.2
		c-0.2-1,0-2.2,0.3-3.2c0.2-0.5,0.3-1.2,0.5-1.7c0.2-0.3,0.3-0.7,0.5-0.9c0.2-0.2,0.5-0.3,0.9-0.5c0.3,0,0.9,0,1.2,0
		c1,0,1.9,1,1.9,2c0,0.2,0,0.5-0.2,0.7v0.2l-1.2-0.3l0,0c0.2-0.3,0.2-0.7,0-1c-0.2-0.3-0.3-0.5-0.7-0.5c-0.3-0.2-0.7,0-0.9,0.3
		c-0.3,0.7-0.7,1.5-0.7,2.4c-0.2,0.7-0.3,1.4-0.3,2c0,0.3,0.3,0.7,0.7,0.7c0.3,0.2,0.7,0,0.9-0.2c0.3-0.3,0.5-0.7,0.5-1.2v-0.2
		l-0.9-0.2l0.3-1.2l2.2,0.5l-0.9,3.9L33.4,184.2z"/>
	<path class="st0" d="M42.1,180.1c0.2-0.5,0-1-0.3-1.5c-0.3-0.3-1-0.7-1.5-0.7l-2.4-0.3l-1,7.3l1.4,0.2l0.5-3.2h0.5
		c0.3,0,0.7,0.2,1,0.3c0.2,0.3,0.2,0.5,0.2,0.9v0.2l-0.2,0.7c0,0.3,0,0.5,0,0.7s0,0.3,0,0.5l1.5,0.2c-0.2-0.2-0.2-0.3-0.2-0.5
		c0-0.2,0-0.5,0-0.7l0.2-1v-0.2c0.2-0.9-0.2-1.5-0.7-1.7c0.3,0,0.7-0.2,0.9-0.3C41.9,180.9,42.1,180.6,42.1,180.1z M40.7,180.1
		c0,0.3-0.2,0.7-0.3,0.9c-0.3,0.2-0.5,0.2-0.9,0.2l-0.9-0.2l0.3-2l0.7,0.2c0.3,0,0.7,0.2,0.9,0.3C40.7,179.6,40.7,179.7,40.7,180.1z
		"/>
	<path class="st0" d="M44.1,178.4l1.4,0.2l-0.3,4.9c0,0.3,0,0.9,0.2,1.2c0.2,0.2,0.5,0.3,0.7,0.3c0.3,0,0.5,0,0.7-0.3
		c0.2-0.3,0.3-0.7,0.3-1.2l0.3-4.9l1.4,0.2l-0.3,5.1c0,0.3,0,0.7-0.2,1c0,0.2-0.2,0.3-0.3,0.5c-0.2,0.2-0.5,0.5-0.9,0.5
		c-0.3,0.2-0.9,0.2-1.2,0.2c-0.7,0-1.2-0.2-1.7-0.7c-0.3-0.5-0.5-1.2-0.3-1.9L44.1,178.4z"/>
	<path class="st0" d="M54.8,179.4c-0.5-0.3-1-0.5-1.5-0.5h-2.4l-0.2,7.3h1.4v-3.1h1c0.5,0,1.2-0.2,1.5-0.5c0.3-0.5,0.5-1,0.5-1.5
		C55.3,180.4,55.2,179.9,54.8,179.4z M53.6,181.8c-0.3,0.2-0.5,0.3-0.9,0.2h-0.5v-2.2h0.5c0.3,0,0.7,0,0.9,0.3
		c0.2,0.2,0.3,0.5,0.2,0.9C54,181.3,53.8,181.6,53.6,181.8z"/>
	<path class="st0" d="M63.5,182.3c-0.2-0.3-0.5-0.5-0.9-0.5c0.3,0,0.5-0.3,0.7-0.5c0.2-0.3,0.2-0.7,0.2-1.2c0-0.5-0.2-1-0.5-1.4
		c-0.3-0.3-0.9-0.3-1.4-0.3l-2.2,0.2l0.7,7.3l2.2-0.2c0.5,0,1-0.2,1.5-0.7c0.3-0.5,0.3-1.2,0.3-1.7C63.9,183,63.7,182.6,63.5,182.3z
		 M60.6,179.6H61c0.3,0,0.5,0,0.7,0.2c0.2,0.2,0.3,0.5,0.3,0.7c0,0.3,0,0.5-0.2,0.9c-0.2,0.2-0.3,0.3-0.7,0.3h-0.5L60.6,179.6z
		 M62.3,184.5c-0.2,0.2-0.5,0.3-0.7,0.3h-0.5l-0.2-2.4h0.3c0.3,0,0.7,0,0.9,0.2s0.3,0.5,0.3,0.9C62.5,183.8,62.5,184.2,62.3,184.5
		L62.3,184.5z"/>
	<path class="st0" d="M69,182.3l1.4-0.2v0.2v0.2c0.2,0.7,0,1.4-0.3,1.9c-0.3,0.5-0.9,0.9-1.5,0.9c-0.3,0-0.7,0-0.9,0
		c-0.2,0-0.5-0.2-0.7-0.3c-0.3-0.2-0.5-0.5-0.7-1c-0.2-0.7-0.3-1.5-0.5-2.2c-0.2-0.7-0.2-1.2-0.2-1.9c0-0.3,0-0.7,0.2-1
		c0.2-0.3,0.3-0.7,0.7-0.9c0.3-0.2,0.7-0.3,1-0.3c0.5-0.2,1.2,0,1.7,0.3c0.5,0.5,0.7,1,0.9,1.7l-1.4,0.2v-0.2c0-0.3-0.2-0.5-0.3-0.9
		c-0.2-0.2-0.3-0.3-0.7-0.2c-0.3,0-0.5,0.2-0.7,0.5c0,0.7,0,1.5,0.2,2.2c0,0.9,0.2,1.5,0.5,2.4c0.2,0.3,0.5,0.3,0.7,0.3
		c0.3,0,0.5-0.2,0.5-0.3C69.1,183.3,69.1,182.8,69,182.3L69,182.3z"/>
	<path class="st0" d="M74.3,176.3l-1.7,0.3v7.5l1.4-0.3v-1.9l1.5-0.3l0.7,1.7l1.4-0.3L74.3,176.3z M73.7,181.1l-0.2-3.1l1.4,2.9
		L73.7,181.1z"/>
	<path class="st0" d="M83.1,152.8c-6.1,6.5-23.9,6.3-23.9,15.8v3.7H61v-1.2c0-6.3,10.9-1.9,17.7-3.9
		C83.3,166.1,85.8,161.7,83.1,152.8L83.1,152.8z"/>
	<path class="st0" d="M24.7,152.8c6.1,6.5,23.9,6.3,23.9,15.8v3.7h-1.7v-1.2c0-6.3-10.9-1.9-17.7-3.9
		C24.5,166.1,21.9,161.7,24.7,152.8L24.7,152.8z"/>
	<path class="st0" d="M51.4,172.4l0.2-14.1c0.2-9-3.4-16.9-10.6-20.8c-13.1-7.3-23.9,8.9-11.2,16.9c3.7,2.4,10.7,2.6,15.2,6.1
		c2.4,1.9,4.9,4.3,4.9,8v3.9H51.4z"/>
	<path class="st0" d="M56.4,172.4l-0.2-14.1c-0.2-9,3.4-16.9,10.6-20.8c13.1-7.3,23.9,8.9,11.2,16.9c-3.7,2.4-10.7,2.6-15.2,6.1
		c-2.4,1.9-4.9,4.3-4.9,8v3.9H56.4z"/>
</g>
</svg>
