<?xml version="1.0" encoding="utf-8"?>
<!-- Generator: Adobe Illustrator 21.0.0, SVG Export Plug-In . SVG Version: 6.00 Build 0)  -->
<svg version="1.1" id="Layer_1" xmlns="http://www.w3.org/2000/svg" xmlns:xlink="http://www.w3.org/1999/xlink" x="0px" y="0px"
	 viewBox="0 0 300 300" style="enable-background:new 0 0 300 300;" xml:space="preserve">
<style type="text/css">
	.st0{fill:#FFFFFF;}
</style>
<title>BNI</title>
<g>
	<path id="SVGID" class="st0" d="M258.6,164.4v-43c0-4.3-6-7.6-6-7.6h22.6c0,0-5.1,3-5.1,7.5v53.9c0,4.1,4.8,7.3,4.8,7.3l-21.7,0.3
		c0,0,5.3-3.3,5.3-6.6L258.6,164.4z"/>
	<path id="SVGID-2" class="st0" d="M175.6,113.6H191l37.7,50.8v-43c0-4.3-6-7.6-6-7.6H242c0,0-5.1,3-5.1,7.5v65.2
		c-6.2-2.9-11.7-7.3-15.8-12.8c-6.8-9.1-32.2-42.3-32.2-42.3V176c0,3.2,5.3,7,5.3,7h-19.1c0,0,5.3-3,5.3-6.8V122
		C180.5,118.5,178.6,115.2,175.6,113.6z"/>
	<path class="st0" d="M152.2,142.1c0,0,9.1-1.7,9.1-13.4c0-8.8-8.6-15.1-16.1-15.1h-33.4c0,0,5.3,3,5.3,8.3v52.3
		c0,5-5.8,8.1-5.8,8.1h33.5c5.8,0,23.2-5.8,23.2-21.1S152.2,142.1,152.2,142.1z M128.8,120.4l8-0.2c3.5,0,13.1,1.5,13.1,10
		c0,8.5-6.5,11-11.1,11h-10V120.4z M141.9,175h-13.1v-27.1h12.6c7.1,0,14.9,5.8,14.9,14.3C156.3,170.7,147,175,141.9,175z"/>
	<path class="st0" d="M55.7,127c1.5,9.1,8.6,15.9,8.6,15.9s-2.3-5.8,7.3-15.9s22.2-3.8,22.2-3.8v-9.6H55.7
		C55.7,113.6,54.4,117.9,55.7,127z"/>
	<path class="st0" d="M60.7,153.9c-2.3-3-5.1-6.8-7.8-10.5c-10.1-13.6-5.8-29.9-5.8-29.9H24.8v12.6c0,0,15.4,19.9,27.6,34.5
		L60.7,153.9z"/>
	<polygon class="st0" points="24.8,139.1 24.8,182.6 25.2,182.6 46.1,165.2 	"/>
	<path class="st0" d="M79.5,168c-6-0.8-10.8-4.8-16.1-11l-8.5,6.8c5.3,6.5,9.6,11.1,11.1,12c2.4,1.6,5.2,2.6,8.1,2.8l-4.8,3.8h24.6
		v-17.3C93.9,165.2,89.1,169.5,79.5,168z"/>
	<path class="st0" d="M57.2,178.3c-2-2-8-10-8-10l-17.6,14.3h26.6C58.8,181.1,58.4,179.4,57.2,178.3z"/>
	<path class="st0" d="M76.1,129.5c-6.8,4-10.6,9.6-2,23.7c8.6,14.1,19.8,8.6,19.8,8.6v-26.6C93.9,135.3,85.3,124.2,76.1,129.5z"/>
</g>
</svg>
