<?xml version="1.0" encoding="utf-8"?>
<!-- Generator: Adobe Illustrator 21.0.0, SVG Export Plug-In . SVG Version: 6.00 Build 0)  -->
<svg version="1.1" id="Layer_1" xmlns="http://www.w3.org/2000/svg" xmlns:xlink="http://www.w3.org/1999/xlink" x="0px" y="0px"
	 viewBox="0 0 300 300" style="enable-background:new 0 0 300 300;" xml:space="preserve">
<style type="text/css">
	.st0{fill:#FFFFFF;}
</style>
<title>Logo-Bank-BRI</title>
<g>
	<path class="st0" d="M94.5,160.3h2.6c3.2,0,6.5-0.5,6.5-3.8c0-3.6-3.4-3.9-6.4-3.9h-2.7V160.3z M94.5,146.6h2.4
		c2.9,0,5.8-0.7,5.8-3.5c0-3-2.8-3.3-5.7-3.3h-2.5L94.5,146.6L94.5,146.6z M85.8,133.6h15.2c6.1,0,10.7,2.7,10.7,8.3
		c0,4.1-2.1,6.4-5.8,7.7v0.1c4.4,0.9,6.6,3.3,6.6,7.2c0,7.9-6.9,9.5-12.8,9.5H85.9L85.8,133.6z"/>
	<path class="st0" d="M129.2,140.4L129.2,140.4l-4.3,12.8h8.3L129.2,140.4L129.2,140.4z M123.8,133.6h10.7l12.6,32.8h-9.6l-2.4-7
		h-12.3l-2.6,7h-8.9L123.8,133.6z"/>
	<polygon class="st0" points="148.4,133.6 159.5,133.6 170.6,155.9 170.7,155.9 170.6,133.6 178.6,133.6 178.6,166.5 167.7,166.5 
		156.3,144 156.2,144 156.4,166.5 148.4,166.5 	"/>
	<polygon class="st0" points="181.6,133.6 190.3,133.6 190.3,147 190.4,147 200.3,133.6 210.8,133.6 198.7,148.9 211.7,166.5 
		200.6,166.5 190.4,151.5 190.3,151.5 190.3,166.5 181.6,166.5 	"/>
	<path class="st0" d="M231.3,160.3h2.6c3.2,0,6.5-0.5,6.5-3.8c0-3.6-3.4-3.9-6.4-3.9h-2.7L231.3,160.3L231.3,160.3z M231.3,146.6
		h2.4c2.9,0,5.8-0.7,5.8-3.5c0-3-2.8-3.3-5.7-3.3h-2.5V146.6z M222.6,133.6h15.2c6.1,0,10.7,2.7,10.7,8.3c0,4.1-2.1,6.4-5.8,7.7v0.1
		c4.4,0.9,6.6,3.3,6.6,7.2c0,7.9-6.9,9.5-12.8,9.5h-13.8L222.6,133.6z"/>
	<path class="st0" d="M259.8,147.3h2.3c2.8,0,6.4-0.1,6.4-3.8c0-3.1-3.1-3.6-6.4-3.6h-2.3V147.3z M251.1,133.6h15.6
		c5.8,0,10.6,2.6,10.6,8.3c0,4.4-2.1,7.3-6.3,8.3v0.1c2.8,0.8,3,3.2,4.7,7.2l3.2,8.9h-9.1l-1.9-5.9c-1.8-5.6-2.9-7.1-6.2-7.1h-1.8
		v13h-8.7V133.6z"/>
	<rect x="281.3" y="133.6" class="st0" width="8.7" height="32.8"/>
	<path class="st0" d="M65.8,117.1H20.1c-5.6,0.1-10.1,4.7-10.1,10.3c0,0,0,0,0,0v45.2c-0.1,5.6,4.3,10.1,9.9,10.3h45.9
		c5.6-0.1,10.1-4.7,10.1-10.3c0,0,0,0,0,0v-45.3C75.9,121.7,71.4,117.1,65.8,117.1C65.8,117,65.8,117,65.8,117.1L65.8,117.1z
		 M25.5,177.7L25.5,177.7H23c-3,0-5.5-2.5-5.5-5.5v-44.5c0-2.9,2.4-5.3,5.3-5.3h5.1c4.8,0.2,8.5,4.3,8.3,9.1
		c-0.1,2.1-0.9,4.1-2.4,5.6l-12.9,13.1L33,162.6c1.6,1.6,2.5,3.7,2.5,6C35.6,173.6,31,177.7,25.5,177.7L25.5,177.7z M62.8,177.7
		H40.2c0,0,2.6-5.6,2.6-9.1c0.1-3.9-1.2-7.7-3.7-10.6l-7.7-7.9l7.9-8.2c2.7-2.8,4.1-6.6,4-10.6c0.1-3.2-0.8-6.3-2.5-9h5.5
		c4.8,0.2,8.5,4.3,8.3,9.1c-0.1,2.1-0.9,4.1-2.4,5.6L39.4,150l26.4,26.9C64.9,177.5,63.8,177.7,62.8,177.7L62.8,177.7z M68.3,169.3
		L49.4,150l9-9.1c2-2.8,3.1-6.2,3-9.6c0.1-3.2-0.8-6.4-2.6-9l4,0.1c3,0,5.5,2.5,5.5,5.5L68.3,169.3z"/>
</g>
</svg>
