<?xml version="1.0" encoding="utf-8"?>
<!-- Generator: Adobe Illustrator 21.0.0, SVG Export Plug-In . SVG Version: 6.00 Build 0)  -->
<svg version="1.1" id="Layer_1" xmlns="http://www.w3.org/2000/svg" xmlns:xlink="http://www.w3.org/1999/xlink" x="0px" y="0px"
	 viewBox="0 0 300 300" style="enable-background:new 0 0 300 300;" xml:space="preserve">
<style type="text/css">
	.st0{fill:#FFFFFF;}
</style>
<title>logo bank BTN</title>
<g id="Layer_1_1_">
	<polygon class="st0" points="139,157.1 148.5,151.8 158.1,157 153.4,159.7 148.5,156.9 143.6,159.7 	"/>
	<polygon class="st0" points="129.8,152 148.4,141.3 167,151.9 162.4,154.5 148.4,146.3 134.3,154.5 134.3,154.5 	"/>
	<path class="st0" d="M129.8,152L129.8,152v-21.8l18.6-10.7l18.6,10.7v21.7l-4.5,2.6v-21.9l-14.1-8.1l-14.1,8.1v21.9L129.8,152
		L129.8,152z M139,157.1l4.6,2.6v-21.2l4.9-2.8l4.9,2.8v21.2l0.2-0.1l4.4-2.5v-21l-9.5-5.4L139,136V157.1z"/>
	<path class="st0" d="M20.3,125h13.4c2.1-0.1,4.3,0.1,6.4,0.5c3.5,0.8,5.1,2.7,5,5.8c-0.2,2.7-1.8,4.8-4.7,6.3
		c-2.2,1-4.5,1.7-6.8,2.1c5.5,1.5,8.1,4,7.9,7.6c-0.1,1.9-0.9,3.6-2.3,5c-1.3,1.5-2.9,2.6-4.8,3.2c-2,0.7-5.7,1.1-10.9,1.1H9.3
		l0.4-0.9c2.2,0,3.7-0.5,4.4-1.4c0.6-1,1.1-2,1.4-3.1l7.2-19.5c0.5-1.3,0.9-2.6,1.1-3.9c0.1-1.2-1.2-1.9-3.8-2L20.3,125L20.3,125z
		 M185.3,123.5h20c3.3,0,5.6,0.8,6.9,2.4c1.3,1.7,1.6,4,0.9,6c-0.6,2-1.8,3.8-3.5,5.2c-1.3,1-2.8,1.8-4.4,2.3c2.3,0.6,3.8,1.6,4.6,3
		c0.7,1.7,0.8,3.6,0.1,5.4c-0.5,1.8-1.4,3.4-2.7,4.7c-1.2,1.4-2.7,2.5-4.4,3.3c-1.4,0.6-2.9,1-4.4,1.1c-2.5,0.3-4.1,0.5-4.9,0.5
		h-18.4L185.3,123.5L185.3,123.5z M192.1,136.8h4.6c1.3,0.1,2.6-0.2,3.7-0.8c0.8-0.6,1.4-1.5,1.7-2.4c0.3-0.8,0.2-1.6-0.3-2.3
		c-0.5-0.6-1.5-0.8-3.2-0.8H194L192.1,136.8L192.1,136.8z M188,150.1h5.4c1.5,0.1,2.9-0.2,4.2-1c0.9-0.6,1.6-1.5,1.9-2.6
		c0.3-0.8,0.2-1.7-0.4-2.4c-0.6-0.6-1.8-0.9-3.6-0.9h-5.4C190.1,143.3,188,150.1,188,150.1z M220.4,123.5h32.4l-2.5,8.4h-10.9
		l-7.7,25.5H221l7.7-25.5h-10.9L220.4,123.5L220.4,123.5z M257.7,123.5l-10.2,33.9h10l5.6-18.6l7.3,18.6h10l10.2-33.9h-10l-5.7,18.7
		l-7.3-18.7L257.7,123.5z M27.2,138.9c4.2-0.1,7.1-1.4,8.7-4.1c0.8-1.2,1.3-2.6,1.4-4.1c0.1-1.1-0.3-2.2-1.1-3
		c-0.9-0.8-2-1.2-3.2-1.1h-1.4L27.2,138.9L27.2,138.9z M26.5,140.7l-5.1,14.1h1.9c2.7,0.1,5.3-0.7,7.4-2.4c1.9-1.7,3-4.1,3-6.7
		c0.3-2-0.8-3.9-2.8-4.5C29.5,140.8,28.1,140.7,26.5,140.7L26.5,140.7z M67.3,135.3l-5.9,0.3l-1,2.9c-0.3-2.3-1.4-3.5-3.3-3.5
		c-2,0.1-3.9,0.9-5.5,2.2c-2.4,1.7-4.3,3.9-5.8,6.4c-1.6,2.4-2.5,5.1-2.8,7.9c-0.2,3.8,1.1,5.7,4,5.7c1.2,0,2.4-0.4,3.4-1.1
		c2.3-1.8,4.4-4.1,5.9-6.6l-0.7,1.9c-0.5,1.1-0.8,2.2-1,3.4c-0.1,1.6,0.8,2.4,2.8,2.4c3.1,0,5.9-1.9,8.4-5.8l-0.9-0.4
		c-0.6,0.8-1.2,1.5-1.9,2.1c-0.4,0.4-0.9,0.6-1.5,0.7c-0.4,0-0.6-0.2-0.6-0.7c0-0.2,0-0.3,0.1-0.5L67.3,135.3L67.3,135.3z
		 M59.1,139.7c-0.3,2.8-1.3,5.4-2.8,7.8c-0.9,1.5-2,2.9-3.2,4.2c-0.6,0.7-1.4,1.1-2.3,1.2c-0.9,0-1.4-0.8-1.3-2.3
		c0.3-2.7,1.1-5.3,2.4-7.6c2.2-4.4,4.1-6.6,5.6-6.6C58.7,136.4,59.2,137.5,59.1,139.7L59.1,139.7z M79,135l-3.7,10
		c1.5-2.1,3.2-4.1,5-6c2.8-2.7,5.2-4,7.3-4c0.8,0,1.7,0.3,2.2,1c0.5,0.6,0.8,1.5,0.7,2.3c-0.1,1.1-0.4,2.1-0.8,3.2l-3.8,9.9
		c-0.2,0.5-0.4,1.1-0.5,1.7c0,0.4,0.2,0.6,0.5,0.6c0.2,0,0.4-0.1,0.5-0.2c0.7-0.5,1.4-1.2,1.9-1.9l0.8-1l0.9,0.6
		c-2.7,3.8-5.4,5.7-8,5.7c-2.2,0-3.2-0.9-3.1-2.6c0.1-1,0.4-2,0.8-2.9l3.7-9.9c0.2-0.5,0.3-0.9,0.4-1.4c0-0.4-0.2-0.6-0.7-0.6
		c-0.9,0.1-1.7,0.5-2.3,1.1c-2.9,2.6-5.3,5.7-7.2,9.1l-2.5,6.9h-6.3l5.5-14.9c0.4-1,0.7-2.1,0.8-3.2c0.1-0.5-0.3-1-0.8-1.1
		c-0.6-0.1-1.1-0.2-1.7-0.2l0.3-0.9l8.5-1.3H79z M107.9,124.3h-1.5l-8.5,1.4l-0.3,0.9c0.6,0,1.1,0,1.7,0.2c0.6,0.2,1,0.8,0.9,1.4
		c-0.1,0.8-0.4,1.5-0.7,2.2l-9.7,26.3h6.4l2.9-8l2.9-2.3l0.9,5.3c0.2,1.1,0.4,2.3,0.8,3.4c0.4,1.2,1.5,1.9,2.7,1.9
		c1.1-0.1,2.1-0.5,2.9-1.1c1.8-1.3,3.3-3,4.5-5l-0.9-0.5c-0.2,0.4-0.4,0.6-0.5,0.7c-0.9,1.3-1.6,1.9-2.2,1.9c-0.2,0-0.5-0.1-0.6-0.3
		c-0.5-1.4-0.9-2.9-1.1-4.4l-1.1-6.4l1.1-0.9c0.8-0.6,1.7-1.3,2.8-2.1c0.7-0.5,1.4-0.9,2.2-1.3c1-0.4,2-0.7,3-0.9l0.3-0.9h-10.2
		l-0.3,0.9c1.9,0.1,2.9,0.5,2.8,1.3c0,0.2-0.1,0.5-0.2,0.6c-0.3,0.5-0.7,1-1.2,1.3l-8,6.5L107.9,124.3z"/>
	<path class="st0" d="M192.7,180.6c-11.5,0.2-23.8-3.5-20.9-7.1c9-11.1,73.1-11.2,111.7-11C236.4,166.4,192.2,172.4,192.7,180.6z"/>
</g>
</svg>
