<?xml version="1.0" encoding="utf-8"?>
<!-- Generator: Adobe Illustrator 21.0.0, SVG Export Plug-In . SVG Version: 6.00 Build 0)  -->
<svg version="1.1" id="Layer_1" xmlns="http://www.w3.org/2000/svg" xmlns:xlink="http://www.w3.org/1999/xlink" x="0px" y="0px"
	 viewBox="0 0 300 300" style="enable-background:new 0 0 300 300;" xml:space="preserve">
<style type="text/css">
	.st0{fill:#FFFFFF;}
	.st1{fill:#7B141F;}
	.st2{fill:#E2071F;}
</style>
<title>CIMB</title>
<g>
	<rect x="10.2" y="129.7" class="st0" width="44" height="40.7"/>
	<polygon class="st1" points="15.8,136.8 39.4,136.8 51.2,149.9 39.4,164.3 15.8,164.3 26.4,149.9 	"/>
	<polyline class="st2" points="51.2,149.9 39.4,136.8 15.8,136.8 26.4,149.9 	"/>
	<path class="st0" d="M84.1,144.3c-1.3-1.5-3.2-2.3-5.2-2.2c-4.7,0-8,3.7-8,8.8s3.4,8.8,7.8,8.8c2.3,0.1,4.4-1.1,5.7-2.9l5.1,3.7
		c-2.4,3.1-6.1,4.9-10,4.8c-8.7,0-14.9-5.6-14.9-14.4c0-8.8,6.3-14.4,15-14.4c3.1,0,7,1,9.3,4L84.1,144.3z"/>
	<rect x="92.7" y="137.2" class="st0" width="6.1" height="27.4"/>
	<polygon class="st0" points="104.4,137.2 113.6,137.2 120,155 120.1,155 126.5,137.2 135.7,137.2 135.7,164.6 129.6,164.6 
		129.6,143.6 129.5,143.6 122.2,164.6 117.6,164.6 110.6,143.6 110.5,143.6 110.5,164.6 104.4,164.6 	"/>
	<path class="st0" d="M141.3,137.2h10.3c4.9,0,10.1,1,10.1,7c0,2.9-2,5.4-4.8,6v0.1c3.5,0.3,6.2,3.2,6.1,6.7c0,5.7-5.5,7.6-10.5,7.6
		h-11.3L141.3,137.2z M147.4,148.1h4.4c1.9,0,3.8-0.8,3.8-3c0-2.2-2.2-2.9-4.1-2.9h-4.1L147.4,148.1z M147.4,159.5h5.5
		c1.9,0,4.1-0.8,4.1-3.2c0-2.6-2.9-3-4.9-3h-4.7L147.4,159.5z"/>
	<polygon class="st0" points="170.8,137.6 174.9,137.6 190.4,159.9 190.5,159.9 190.5,137.6 193.7,137.6 193.7,164.5 189.7,164.5 
		174.1,142.2 174,142.2 174,164.5 170.8,164.5 	"/>
	<rect x="200.4" y="137.6" class="st0" width="3.2" height="26.9"/>
	<path class="st0" d="M219,137.6h3l11.4,26.9h-3.7l-2.7-6.6h-13.4l-2.8,6.6h-3.6L219,137.6z M220.5,141.7L220.5,141.7l-5.7,13.2h11
		L220.5,141.7z"/>
	<path class="st0" d="M259.9,162.7c-3.1,1.7-6.6,2.5-10.1,2.5c-8.3,0-14.4-5.7-14.4-14.1s6.4-14.1,14.5-14.1
		c3.5-0.2,6.9,1.1,9.5,3.5l-2.3,2.6c-1.9-2-4.6-3.1-7.3-3.1c-6.1,0-10.8,4.7-10.8,11.2c-0.2,5.9,4.4,10.9,10.3,11.2
		c0.3,0,0.6,0,0.9,0c2.3,0,4.6-0.6,6.7-1.6v-8.3h-6.2v-3h9.4L259.9,162.7z"/>
	<path class="st0" d="M275.3,137.6h3l11.4,26.9H286l-2.7-6.6h-13.5l-2.8,6.6h-3.6L275.3,137.6z M276.8,141.7L276.8,141.7l-5.7,13.2
		h11L276.8,141.7z"/>
</g>
</svg>
