<?xml version="1.0" encoding="utf-8"?>
<!-- Generator: Adobe Illustrator 21.0.0, SVG Export Plug-In . SVG Version: 6.00 Build 0)  -->
<svg version="1.1" id="Layer_1" xmlns="http://www.w3.org/2000/svg" xmlns:xlink="http://www.w3.org/1999/xlink" x="0px" y="0px"
	 viewBox="0 0 300 300" style="enable-background:new 0 0 300 300;" xml:space="preserve">
<style type="text/css">
	.st0{fill:#E05726;}
	.st1{fill:#F6C315;}
	.st2{fill:#EA8923;}
	.st3{fill:#F7C315;}
	.st4{fill:#FFFFFF;}
</style>
<g>
	<title>Danamon</title>
	<polygon class="st0" points="15.4,112.8 58.8,122.4 58.8,133.8 15.1,133.7 15.4,112.8 	"/>
	<polygon class="st1" points="58.6,112.8 110.4,133.7 58.8,122.4 58.6,112.8 	"/>
	<polygon class="st2" points="58.8,122.4 103.4,132.2 110.4,133.7 58.8,133.8 58.8,122.4 	"/>
	<polygon class="st0" points="111.8,134.3 219.4,134.2 219.4,157.6 	"/>
	<polygon class="st2" points="219.4,134.2 289.8,134.2 289.8,173.1 219.4,157.6 219.4,134.2 	"/>
	<polygon class="st3" points="219.4,157.6 218.9,171.8 111.8,134.3 	"/>
	<path class="st4" d="M36.3,164.8c-0.2-2.7-0.6-5.6-2.4-7.7c-1.9-2.4-5.2-3-8.1-3.1c-3.5,0-7,0-10.5,0c-0.1,9.5-0.1,19,0,28.4
		c3.4,0,6.7,0,10.1,0c2.2,0.1,4.5-0.4,6.6-1.4c1.7-1,3-2.7,3.5-4.6C36.5,172.6,36.7,168.7,36.3,164.8z M29.7,173.6
		c-0.1,1.6-0.9,3-2.2,3.9c-1.7,0.9-3.9,0.6-5.7,0.6c0-6.5,0-13.1,0-19.7c2,0,4.4-0.4,6.1,0.7c1.1,0.9,1.9,2.2,1.9,3.7
		C30.3,166.5,30.3,169.9,29.7,173.6L29.7,173.6z"/>
	<path class="st4" d="M68.5,164.5c1.9-2.6,5.7-3,8.5-1.6c1.6,1,2.5,2.7,2.4,4.6c0,5,0,10,0,15c-2,0-4.1,0-6.1,0
		c-0.2-4.7,0-9.5-0.1-14.2c-0.1-0.9,0-1.9-0.7-2.5c-1.1-0.7-2.7-0.4-3.4,0.9c-0.1,0.2-0.2,0.5-0.4,0.9c-0.2,5,0.1,10-0.2,15
		c-2,0-4,0-6.1,0c0-6.6,0.1-13.2-0.1-19.9c2,0,4,0,6,0C68.4,163.2,68.4,163.8,68.5,164.5L68.5,164.5z"/>
	<path class="st4" d="M111.3,164.5c0.9-1.1,2.2-1.9,3.6-2.2c2.5-0.5,5.7,0.2,6.9,2.9c0.9-1.5,2.4-2.5,4-2.9c2-0.4,4,0,5.6,1.2
		c1.1,1,1.6,2.5,1.5,4c0,5,0,10,0,15c-2,0-4.1,0-6.1,0c-0.1-4.7,0-9.5,0-14.2c-0.1-0.9,0-2.1-1-2.6c-1.4-0.5-2.9,0-3.4,1.4
		c-0.1,0.2-0.2,0.6-0.2,1c-0.1,4.7,0,9.6,0,14.5c-2.1,0.1-4.1,0-6.2,0c-0.1-5.1,0.2-10.2-0.1-15.3c-0.1-1.9-2.9-2.1-3.9-0.7
		c-0.6,0.7-0.9,1.7-0.6,2.7c0,4.5,0,8.9,0,13.3c-2.1,0.1-4.1,0-6.2,0c0-6.6,0.1-13.2-0.1-19.9c2,0,4.1,0,6.1,0
		c0.1,0.6,0.1,1.2,0.2,1.9V164.5z"/>
	<path class="st4" d="M168.2,162.3c2.1-0.4,4.7-0.2,6.4,1.4c1,1.2,1.5,3,1.4,4.6c0,4.7,0,9.4,0,14.1c-2,0.1-4.1,0.1-6.1,0.1
		c0-4.5,0-9,0-13.5c0-1-0.1-1.9-0.5-2.7c-0.9-1-2.4-1.1-3.4-0.2c-0.1,0.1-0.1,0.1-0.2,0.2c-0.5,0.7-0.7,1.7-0.6,2.7
		c0,4.5,0,8.9,0,13.3c-2,0.1-4.1,0-6.2,0c-0.1-6.6,0.1-13.2-0.1-19.9c2,0,4.1,0,6.1,0c0,0.6,0.1,1.2,0.1,1.9c0.9-1,2-1.7,3.2-2.1
		L168.2,162.3z"/>
	<path class="st4" d="M154.8,169.1c-0.2-2.4-1.2-4.9-3.5-6c-2.7-1.1-5.9-1.4-8.7-0.6c-1.9,0.4-3.4,1.4-4.4,3c-1.6,3-1.4,6.5-1.1,9.7
		c0.2,2.5,1,5.6,3.6,6.7c3,1.1,6.2,1.2,9.2,0.5c2.1-0.5,3.7-2,4.2-4C155,175.3,155.1,172.2,154.8,169.1z M148.3,177.5
		c-0.4,1.4-1.7,2.1-3.1,1.6c-0.6-0.1-1.1-0.5-1.4-1c-1-2.2-0.7-4.9-0.7-7.2c0.1-1.7-0.1-4,1.5-5.1c1.4-0.6,3,0,3.6,1.2
		c0,0.1,0.1,0.2,0.1,0.4C148.9,170.8,148.9,174.3,148.3,177.5L148.3,177.5z"/>
	<path class="st4" d="M57.5,166.3c-0.4-2.6-3-3.9-5.4-4.1c-3.1-0.2-6.6-0.4-9.4,1.4c-1.4,1-2,2.5-1.9,4.1c1.9,0,3.7,0,5.6,0
		c0.2-0.7,0.4-1.7,1.1-2.2c1.1-0.6,2.4-0.6,3.5,0c1.1,1.1,0.9,2.7,0.9,4.1c-2.7-0.1-5.4,0.2-8,1.1c-1.6,0.6-2.9,1.9-3.4,3.5
		c-0.7,2.7-0.1,6.2,2.5,7.6c3,1.2,6.6,0.7,9-1.5c0.1,0.7,0.2,1.4,0.4,2.1c1.9,0,3.6,0,5.5,0C57.2,177.2,58.1,171.7,57.5,166.3z
		 M51.2,178.2c-1,1.5-3.7,1.7-4.5,0c-0.7-1.5-0.5-3.4,0.7-4.6c1.4-1,3.1-0.9,4.7-0.9C52,174.4,52.3,176.6,51.2,178.2L51.2,178.2z"/>
	<path class="st4" d="M100.4,170.6c-0.1-2.1,0.4-4.5-1-6.2s-4-2.1-6.1-2.2c-2.6,0-5.6,0-7.9,1.7c-1.1,1-1.7,2.4-1.7,3.9
		c1.9,0,3.7,0,5.7,0c0-1,0.5-1.9,1.2-2.4c1.1-0.6,2.4-0.5,3.4,0.2c0.9,1.1,0.6,2.6,0.7,4c-3.2,0.1-7,0.1-9.7,2.1
		c-3.1,2.7-2.5,9,1.5,10.5c2.9,0.9,6.1,0.1,8.4-1.9c0.1,0.7,0.2,1.4,0.4,2.1c1.9,0,3.6,0,5.5,0C100.2,178.5,100.5,174.6,100.4,170.6
		z M93.8,178.2c-1,1.5-3.7,1.6-4.5-0.2c-0.4-1.5-0.5-3.4,0.7-4.4c1.2-1,3.2-0.9,4.7-1C94.8,174.4,94.9,176.6,93.8,178.2z"/>
</g>
</svg>
