<?xml version="1.0" encoding="utf-8"?>
<!-- Generator: Adobe Illustrator 21.0.0, SVG Export Plug-In . SVG Version: 6.00 Build 0)  -->
<svg version="1.1" id="Layer_1" xmlns="http://www.w3.org/2000/svg" xmlns:xlink="http://www.w3.org/1999/xlink" x="0px" y="0px"
	 viewBox="0 0 300 300" style="enable-background:new 0 0 300 300;" xml:space="preserve">
<style type="text/css">
	.st0{fill:#FFFFFF;}
	.st1{fill:url(#SVGID_1_);}
</style>
<g>
	<title>Logo Bank Mandiri_2</title>
	<path class="st0" d="M19.6,148.3l0.3,5.2c1.1-1.7,2.7-3.2,4.5-4.3c2-1.1,4.1-1.5,6.4-1.5c2.3-0.1,4.5,0.5,6.5,1.9
		c1.5,1.1,2.5,2.5,3.3,4.3c0.5-1.1,1.2-1.9,2-2.7c1.2-1.1,2.7-2,4.1-2.5c1.6-0.7,3.3-0.9,5.1-1.1c1.9,0,3.7,0.4,5.5,1.3
		c1.5,0.8,2.7,1.9,3.6,3.3c0.8,1.5,1.2,2.9,1.5,4.5c0.3,2,0.4,3.9,0.4,5.9v19.6h-9.1v-18.8c0.1-1.7-0.1-3.5-0.5-5.2
		c-0.3-0.9-0.9-1.9-1.9-2.4c-0.8-0.5-1.9-0.8-2.8-0.8c-1.2,0-2.4,0.4-3.5,1.2c-1.2,0.9-2,2.1-2.4,3.6c-0.5,1.5-0.8,3.1-0.8,4.5v17.9
		h-9.1v-20.4c0.1-1.9-0.4-3.6-1.5-5.1c-0.9-1.1-2.3-1.7-3.7-1.7c-1.9,0-3.6,0.9-4.7,2.4c-1.3,1.6-2.1,4.3-2.1,7.7v17.1h-9.1v-25.6
		l-0.1-5.6c0-0.9,0-1.9-0.1-2.8H19.6z"/>
	<path class="st0" d="M89,166.8c-1.1-0.1-1.9-0.1-2.3-0.1c-2,0-4.1,0.1-6.1,0.5c-1.5,0.3-2.9,0.9-4,2c-0.8,0.9-1.2,2-1.2,3.2
		c0,1.2,0.5,2.4,1.5,3.2c1.1,0.9,2.5,1.3,3.9,1.2c1.5,0,2.9-0.4,4.3-1.3c1.3-0.8,2.4-1.9,3.1-3.3C88.7,170.6,89,168.7,89,166.8
		 M89.4,182.3l-0.3-5.1c-0.9,1.7-2.4,3.2-4.3,4c-2.1,1.1-4.4,1.6-6.8,1.6c-2.1,0-4.1-0.4-6-1.3c-1.7-0.8-3.3-2.1-4.3-3.7
		c-0.9-1.7-1.5-3.6-1.5-5.6c-0.1-3.7,2-7.1,5.3-8.7c2.8-1.5,6.9-2.3,12.4-2.3c1.3,0,2.9,0.1,4.8,0.3c0-0.4,0-0.7,0-0.9
		c0.1-1.9-0.5-3.6-1.9-4.9c-1.7-1.3-3.7-1.9-5.9-1.7c-2,0-4,0.4-5.9,1.1c-1.7,0.7-3.5,1.5-4.9,2.7L70,150c1.7-0.8,3.5-1.3,5.3-1.6
		c2.3-0.5,4.7-0.7,7.1-0.7c2.5,0,5.1,0.4,7.5,1.2c2,0.8,3.6,2,4.9,3.6c0.9,1.3,1.6,2.8,1.7,4.4c0.4,2.7,0.5,5.3,0.4,8.1v5.1l0.1,4.9
		l0.1,5.2l0.1,2.1L89.4,182.3z"/>
	<path class="st0" d="M111.6,148.3l0.3,5.2c2.4-3.9,6.8-6,11.2-5.7c1.7,0,3.5,0.3,5.1,0.8c1.3,0.4,2.7,1.2,3.7,2.3
		c0.9,0.9,1.6,1.9,2.1,3.1c0.5,1.5,0.9,3.1,1.1,4.8c0.1,0.9,0.1,3.5,0.1,7.7v16h-8.9v-17.1c0-3.7-0.3-6.1-0.9-7.5
		c-0.9-1.9-2.9-3.1-5.1-2.9c-1.5,0-2.9,0.4-4.1,1.2c-1.3,0.8-2.4,2.1-2.9,3.6c-0.7,2.1-1.1,4.4-0.9,6.7v16h-9.1V155
		c0-2.4-0.1-4.5-0.3-6.7H111.6z"/>
	<path class="st0" d="M156.7,155c-2.1,0-4,0.9-5.3,2.5c-1.5,1.7-2.1,4.3-2.1,7.9c0,3.5,0.8,6.1,2.3,8c2.4,3.1,6.8,3.5,9.9,1.1
		c0.4-0.3,0.7-0.7,1.1-1.1c1.5-1.7,2.3-4.4,2.3-7.9c0.1-2.7-0.7-5.3-2.1-7.6C161.2,156,159,154.8,156.7,155 M164.8,153.2v-20.5h8.9
		v49.6h-8.5v-4.9c-1.2,1.7-2.8,3.1-4.7,4c-3.6,1.7-7.7,1.9-11.5,0.5c-1.3-0.5-2.5-1.2-3.7-2.1c-1.1-0.9-1.9-2-2.7-3.2
		c-0.9-1.6-1.6-3.2-2-5.1c-0.5-2.1-0.8-4.4-0.8-6.7c0-5.3,1.2-9.6,3.7-12.5c2.5-3.1,6.3-4.8,10.3-4.7c2.1,0,4.3,0.4,6.1,1.3
		C161.9,150,163.5,151.5,164.8,153.2L164.8,153.2z"/>
	<rect x="180" y="148.3" class="st0" width="9.1" height="34"/>
	<path class="st0" d="M195.4,148.3h8.3l0.1,8.7c0.4-2.5,1.7-4.8,3.7-6.5c1.7-1.6,4-2.4,6.3-2.4c0.8,0,1.6,0.1,2.5,0.3v8.3
		c-0.9-0.4-1.9-0.5-2.8-0.5c-1.5,0-2.8,0.3-4.1,0.9c-1.1,0.7-2,1.5-2.7,2.5c-0.7,1.1-1.2,2.3-1.5,3.6c-0.3,1.7-0.5,3.6-0.4,5.3v13.9
		h-9.2v-23.7l-0.3-9.3V148.3z"/>
	<rect x="219.1" y="148.3" class="st0" width="9.1" height="34"/>
	
		<linearGradient id="SVGID_1_" gradientUnits="userSpaceOnUse" x1="-578.5313" y1="299.4861" x2="-577.8513" y2="299.4861" gradientTransform="matrix(224.5841 -119.3129 96.0002 180.7023 101308.4453 -122982.0625)">
		<stop  offset="0" style="stop-color:#FAA74A"/>
		<stop  offset="0.1" style="stop-color:#FFCB05"/>
		<stop  offset="0.3" style="stop-color:#FFF200"/>
		<stop  offset="0.37" style="stop-color:#FFCB05"/>
		<stop  offset="0.42" style="stop-color:#FAA74A"/>
		<stop  offset="0.48" style="stop-color:#FFCB05"/>
		<stop  offset="0.63" style="stop-color:#FFF200"/>
		<stop  offset="0.69" style="stop-color:#FFCB05"/>
		<stop  offset="0.75" style="stop-color:#FAA74A"/>
		<stop  offset="0.83" style="stop-color:#FFCB05"/>
		<stop  offset="1" style="stop-color:#FFF200"/>
	</linearGradient>
	<path class="st1" d="M283.5,111.1c-5.9-7.9-16.8,0.1-22.8,3.7c0,0-7.5,4-13.3,0.7c-5.5-2.9-5.6-9.2-12.3-12.4
		c-4.9-2.3-10.5-2-15.2,0.5l-22.8,12.3c0,0-7.5,4.7-12.9,0.8c-5.9-4.3-6.4-10.8-14.9-12.9c-4.1-1.1-9.3-0.3-15.5,2.5L121.5,125
		c0,0,4.7,12.5,15.5,11.3c4.4-0.5,7.9-3.1,11.6-5.3l13.2-7.7c4.4-2.5,9.6-3.6,14.7-3.2c3.5,0.3,6.7,1.5,9.5,3.6
		c2.9,2.4,4.3,6.4,6.9,9.2c5.7,5.9,11.6,1.2,17.2-2l15.1-8.7c0,0,13.5-8.5,23.3,0.8c2.7,3.1,6.9,9.7,10.8,10.9
		c2.4,0.8,6-0.3,10.1-2.7l20.1-12.1L283.5,111.1z"/>
</g>
</svg>
