<?xml version="1.0" encoding="utf-8"?>
<!-- Generator: Adobe Illustrator 21.0.0, SVG Export Plug-In . SVG Version: 6.00 Build 0)  -->
<svg version="1.1" id="Layer_1" xmlns="http://www.w3.org/2000/svg" xmlns:xlink="http://www.w3.org/1999/xlink" x="0px" y="0px"
	 viewBox="0 0 300 300" style="enable-background:new 0 0 300 300;" xml:space="preserve">
<style type="text/css">
	.st0{fill:#FFFFFF;}
	.st1{fill:url(#SVGID_1_);}
</style>
<title>logo bank mandiri syariah</title>
<g>
	<path class="st0" d="M25.4,130.7l0.3,5c1.1-1.7,2.6-3.1,4.4-4c1.9-1,4-1.4,6.1-1.4c2.3-0.1,4.4,0.6,6.3,1.7c1.4,1,2.4,2.4,3.1,4
		c0.4-1,1.1-1.9,1.9-2.6c1.1-1.1,2.6-1.9,4-2.4c1.6-0.6,3.3-0.9,5-0.9c1.9,0,3.6,0.4,5.3,1.3c1.4,0.7,2.6,1.9,3.3,3.1
		c0.7,1.4,1.3,2.8,1.4,4.4c0.3,1.9,0.4,3.8,0.3,5.7v18.8h-8.8v-18.1c0.1-1.7-0.1-3.4-0.6-5c-0.3-1-1-1.7-1.7-2.3
		c-0.9-0.6-1.7-0.9-2.7-0.9c-1.1,0-2.3,0.4-3.3,1.1c-1.1,0.9-2,2-2.4,3.4c-0.4,1.4-0.7,2.8-0.7,4.4v17.2h-8.7v-19.7
		c0.1-1.7-0.4-3.6-1.4-5c-0.9-1-2.3-1.7-3.6-1.6c-1.9,0-3.4,1-4.6,2.4c-1.3,1.6-2,4-2,7.4v16.4h-8.7v-24.6l-0.1-5.4
		c0-1,0-1.9-0.1-2.7C17.3,130.7,25.4,130.7,25.4,130.7z"/>
	<path class="st0" d="M92,148.5c-1.1-0.1-1.9-0.1-2.1-0.1c-2,0-4,0.1-5.8,0.6c-1.4,0.3-2.8,0.9-3.8,2c-0.7,0.9-1.3,2-1.1,3.1
		c0,1.1,0.6,2.3,1.4,3.1c1,0.9,2.4,1.3,3.8,1.1c1.4,0,2.8-0.4,4.1-1.3c1.3-0.7,2.3-1.9,2.8-3.1C91.8,152.2,92,150.3,92,148.5
		 M92.5,163.4l-0.3-4.8c-0.9,1.7-2.3,3-4,3.8c-2,1-4.3,1.6-6.6,1.6c-2,0-4-0.4-5.8-1.3c-1.7-0.9-3.1-2-4.1-3.7
		c-1-1.7-1.4-3.6-1.4-5.4c-0.1-3.6,1.9-7,5.1-8.5c2.7-1.4,6.7-2.1,12-2.1c1.3,0,2.8,0.1,4.6,0.3c0-0.4,0-0.7,0-0.9
		c0.1-1.9-0.6-3.6-1.9-4.7c-1.6-1.3-3.7-1.9-5.7-1.7c-1.9,0-3.8,0.4-5.6,1c-1.7,0.6-3.3,1.4-4.8,2.6l-0.3-7.4
		c1.6-0.7,3.3-1.3,5.1-1.6c2.1-0.4,4.4-0.7,6.7-0.7c2.4,0,4.8,0.3,7.1,1.1c2,0.7,3.7,1.9,5,3.6c0.9,1.3,1.6,2.7,1.7,4.3
		c0.3,2.6,0.4,5.1,0.4,7.8v4.8l0.1,4.7l0.1,5l0.1,2L92.5,163.4z"/>
	<path class="st0" d="M113.8,130.7l0.3,5c2.3-3.7,6.6-5.8,10.8-5.6c1.7,0,3.3,0.3,4.8,0.9c1.3,0.4,2.6,1.1,3.6,2.1
		c0.9,0.9,1.6,1.9,2.1,3c0.6,1.4,0.9,3,1,4.6c0.1,1,0.1,3.4,0.1,7.4v15.4h-8.7v-16.4c0.1-2.4-0.1-4.8-1-7.3c-0.9-1.9-2.8-3-4.8-2.8
		c-1.4,0-2.8,0.4-4,1.1c-1.3,0.9-2.3,2-2.7,3.4c-0.7,2-1,4.1-0.9,6.4v15.5h-8.7v-26.3c0-2.3-0.1-4.4-0.3-6.4H113.8z"/>
	<path class="st0" d="M157.1,137.1c-2,0-3.8,0.9-5.1,2.4c-1.4,1.7-2.1,4.1-2.1,7.5s0.7,6,2.3,7.7c2.3,2.8,6.6,3.3,9.5,1
		c0.4-0.3,0.7-0.6,1-1c1.6-2.1,2.4-4.8,2.3-7.5c0.1-2.6-0.6-5.1-2-7.3C161.5,138.1,159.4,137.1,157.1,137.1 M165,135.5v-19.8h8.5
		v47.7h-8.3v-4.7c-1.1,1.6-2.7,3-4.4,3.8c-3.4,1.7-7.4,1.9-11.1,0.6c-1.3-0.4-2.6-1.1-3.6-2s-1.9-1.9-2.6-3c-0.9-1.6-1.6-3.1-2-4.8
		c-0.6-2.1-0.7-4.3-0.7-6.4c0-5.1,1.1-9.1,3.6-12.1c2.4-3,6.1-4.6,9.8-4.4c2,0,4.1,0.4,5.8,1.3C162.1,132.4,163.7,133.7,165,135.5
		L165,135.5z"/>
	<rect x="179.6" y="130.7" class="st0" width="8.7" height="32.8"/>
	<path class="st0" d="M194.4,130.7h8l0.1,8.3c0.4-2.4,1.7-4.7,3.6-6.3c1.7-1.4,3.8-2.3,6.1-2.3c0.9,0,1.6,0,2.4,0.3v8
		c-0.9-0.4-1.7-0.6-2.7-0.6c-1.4,0-2.7,0.3-4,0.9c-1,0.6-2,1.4-2.6,2.4c-0.7,1-1.1,2.1-1.4,3.4c-0.3,1.7-0.4,3.4-0.4,5.1v13.4h-8.7
		v-22.8l-0.3-9.1v-0.7H194.4z"/>
	<rect x="217.2" y="130.7" class="st0" width="8.7" height="32.8"/>
	
		<linearGradient id="SVGID_1_" gradientUnits="userSpaceOnUse" x1="-564.1137" y1="299.5591" x2="-563.4586" y2="299.5591" gradientTransform="matrix(224.5841 -119.3129 96.0002 180.7023 98064.6484 -121292.8828)">
		<stop  offset="0" style="stop-color:#FAA74A"/>
		<stop  offset="0.1" style="stop-color:#FFCB05"/>
		<stop  offset="0.3" style="stop-color:#FFF200"/>
		<stop  offset="0.37" style="stop-color:#FFCB05"/>
		<stop  offset="0.42" style="stop-color:#FAA74A"/>
		<stop  offset="0.48" style="stop-color:#FFCB05"/>
		<stop  offset="0.63" style="stop-color:#FFF200"/>
		<stop  offset="0.69" style="stop-color:#FFCB05"/>
		<stop  offset="0.75" style="stop-color:#FAA74A"/>
		<stop  offset="0.83" style="stop-color:#FFCB05"/>
		<stop  offset="1" style="stop-color:#FFF200"/>
	</linearGradient>
	<path class="st1" d="M279.2,95.1c-5.7-7.5-16.2,0.1-21.9,3.6c0,0-7.1,3.8-12.8,0.7c-5.3-2.8-5.4-8.8-11.8-12
		c-4.7-2.1-10.1-2-14.7,0.4L196,99.6c0,0-7.3,4.4-12.4,0.7c-5.7-4-6.1-10.4-14.4-12.4c-4-1-9-0.3-15,2.4l-30.9,17.8
		c0,0,4.4,12.1,15,11c4.3-0.4,7.5-3,11.1-5.1l12.7-7.4c4.3-2.4,9.1-3.6,14.1-3.1c3.3,0.3,6.4,1.4,9.1,3.4c2.8,2.3,4.1,6.3,6.7,8.8
		c5.6,5.7,11.2,1.1,16.5-1.9l14.5-8.3c0,0,12.8-8.1,22.5,0.9c2.6,3,6.7,9.4,10.4,10.5c2.4,0.7,5.8-0.1,9.7-2.6l19.4-11.7L279.2,95.1
		z"/>
	<path class="st0" d="M16,206.3c2.1,1.3,4.6,2,7,2.1c5,0,7.3-2.6,7.3-5.8s-2.1-5.1-6.6-7c-5.1-1.9-7.8-4.7-7.8-8.3
		c0-4.4,3.6-8.3,9.5-8.3c2.4,0,4.8,0.6,6.8,1.9l-1.1,2.4c-1.9-1.3-4-1.9-6.1-1.9c-4,0-6,2.4-6,5.3c0,3.1,2.1,4.6,6.4,6.3
		c5,2,8,4.4,8,9.1c0,5.3-4.1,8.7-10.5,8.7c-2.7,0-5.6-0.7-7.8-2.1L16,206.3z"/>
	<path class="st0" d="M39.5,219.4c2.7-2.4,5-5.4,6.3-8.7c0.1-0.4,0.3-0.9,0.4-1.3c0-0.4-0.1-0.9-0.4-1.3L34.2,180h3.3l8.1,19.9
		c0.9,2.1,1.7,4.7,2.3,6.6H48c0.7-1.9,1.4-4.3,2.4-6.7L58,180h3.3L52,202.7c-3.7,9.4-7,16.4-11.4,19.4L39.5,219.4z"/>
	<path class="st0" d="M80.9,194.1c-6.8-0.1-15.7,0.9-15.7,8.1c-0.3,3.3,2.1,6.1,5.4,6.4c0.3,0,0.6,0,0.9,0c4.1,0.1,7.8-2.3,9.1-6.1
		c0.3-0.6,0.3-1.1,0.3-1.9V194.1L80.9,194.1z M84.1,203c0,2.4,0.1,4.8,0.4,7.3h-2.8l-0.4-4.4h-0.1c-2.3,3.3-6,5.1-10,5.1
		c-6.3,0-9.1-4.3-9.1-8.4c0-7.1,6.3-11.2,18.9-11.1v-0.9c0-3-0.6-9-8-9c-2.8,0-5.6,0.7-7.8,2.3l-1-2.3c2.7-1.7,6-2.6,9.1-2.6
		c9,0,10.7,6.6,10.7,12L84.1,203z"/>
	<path class="st0" d="M91.5,188.9c0-3,0-6.1-0.3-9.1H94l0.1,6.1h0.1c1.1-4,4.7-6.7,8.8-6.8c0.4,0,0.9,0,1.3,0.1v2.8
		c-0.4,0-1,0-1.4,0c-4.3,0-7.3,3.6-8.1,8.5c-0.1,1-0.3,1.9-0.3,2.8v16.8h-3.1L91.5,188.9z"/>
	<rect x="108.6" y="179.8" class="st0" width="3.1" height="30.5"/>
	<path class="st0" d="M135.6,194.1c-6.8-0.1-15.7,0.9-15.7,8.1c-0.3,3.3,2.1,6.1,5.4,6.4c0.3,0,0.6,0,0.9,0c4.1,0.1,7.8-2.3,9.1-6.1
		c0.3-0.6,0.3-1.1,0.3-1.9V194.1L135.6,194.1z M138.7,203c0,2.4,0.1,4.8,0.4,7.3h-2.8l-0.4-4.4h-0.1c-2.3,3.3-6,5.1-10,5.1
		c-6.3,0-9.1-4.3-9.1-8.4c0-7.1,6.3-11.2,18.9-11.1v-0.9c0-3-0.6-9-8-9c-2.8,0-5.6,0.7-7.8,2.3l-1-2.3c2.7-1.7,5.8-2.6,9.1-2.6
		c9,0,10.7,6.6,10.7,12v12H138.7z"/>
	<path class="st0" d="M146.6,171h2.7v14.2h0.1c1-1.9,2.4-3.3,4.3-4.4c1.9-1.1,4.1-1.7,6.3-1.7c2.8,0,10.8,1.4,10.8,12.8v18.4h-3.1
		v-17.9c0-5.4-2.1-10.5-8.5-10.5c-4.3,0.1-8,2.8-9.4,6.8c-0.3,1-0.4,2-0.4,3v18.7h-2.8L146.6,171z"/>
	<polygon class="st0" points="146.7,171 149.4,171 149.3,185.4 	"/>
</g>
</svg>
