<?xml version="1.0" encoding="utf-8"?>
<!-- Generator: Adobe Illustrator 21.0.0, SVG Export Plug-In . SVG Version: 6.00 Build 0)  -->
<svg version="1.1" id="maybank" xmlns="http://www.w3.org/2000/svg" xmlns:xlink="http://www.w3.org/1999/xlink" x="0px" y="0px"
	 viewBox="0 0 300 300" style="enable-background:new 0 0 300 300;" xml:space="preserve">
<style type="text/css">
	.st0{fill:#FABC19;}
	.st1{fill:none;}
	.st2{fill:#231F20;}
</style>
<title>maybank</title>
<rect x="14" y="122.5" class="st0" width="272" height="65.1"/>
<polygon points="102.7,169.9 110.1,149.7 112.5,169.9 120.4,169.9 116.1,140.2 106.5,140.2 100.2,158.1 93.9,140.2 84.3,140.2 
	80,169.9 87.9,169.9 90.3,149.7 97.7,169.9 "/>
<polygon points="143.9,147.8 154,169.9 150,178.6 158.7,178.6 172.5,147.8 163.6,147.8 158.2,163.3 152.9,147.8 "/>
<polygon points="277.2,169.9 268.1,158.1 276.4,147.8 267.1,147.8 259.7,157.5 259.7,137.7 251.5,137.7 251.5,169.9 259.7,169.9 
	259.7,158.7 268,169.9 "/>
<path class="st1" d="M182.1,153.2v11.7c1.5,0.4,7.6,1.6,7.6-6.1S183.8,152.6,182.1,153.2z"/>
<path d="M173.8,168.8c3.3,1.1,6.8,1.6,10.3,1.6c6,0,13.9-1.9,13.9-12.2s-10.4-10.7-11.6-10.7c-1.5,0-3,0.3-4.3,0.9v-10.6h-8.3
	L173.8,168.8z M182.1,164.8v-11.7c1.7-0.6,7.6-2,7.6,5.5C189.7,166.2,183.6,165.2,182.1,164.8z"/>
<path class="st1" d="M214.3,159.7c-1.7,0-7.7,0.2-7.7,3.4c0,3,6,2.4,7.7,2.3V159.7z"/>
<path d="M202.5,153.4c11.9-3.5,11.9,0.7,11.9,1.2v0.7c-9.6,0.1-15.3,2.8-15.3,7.8c0,5,5.3,7.2,12.4,7.2s10.6-1.6,10.6-1.6v-13.7
	c0-4.9-3.1-7.9-10.6-7.9s-10.8,1.8-10.8,1.8L202.5,153.4z M206.6,163.1c0-3.2,6-3.4,7.7-3.4v5.7
	C212.6,165.6,206.6,166.1,206.6,163.1L206.6,163.1z"/>
<path class="st1" d="M136.7,159.7c-1.7,0-7.7,0.2-7.7,3.4c0,3,6,2.4,7.7,2.3V159.7z"/>
<path d="M124.9,153.4c11.9-3.5,11.9,0.7,11.9,1.2v0.7c-9.6,0.1-15.3,2.8-15.3,7.8c0,5,5.3,7.2,12.4,7.2c7,0,10.6-1.6,10.6-1.6v-13.7
	c0-4.9-3.1-7.9-10.6-7.9s-10.8,1.8-10.8,1.8L124.9,153.4z M129,163.1c0-3.2,6-3.4,7.7-3.4v5.7C135,165.6,129,166.1,129,163.1
	L129,163.1z"/>
<path d="M240.3,169.9h8.2v-14c0-7.3-5.2-8.8-11.7-8.8c-3.9,0-7.9,0.6-11.6,1.8v21.1h8.2v-16.7c6.3-1.8,7,1.2,7,2.6L240.3,169.9z"/>
<circle class="st0" cx="47.6" cy="155.1" r="22.7"/>
<path class="st2" d="M47.6,132.3c12.5,0,22.7,10.2,22.7,22.7c0,12.5-10.2,22.7-22.7,22.7s-22.7-10.2-22.7-22.7
	C24.8,142.5,35,132.3,47.6,132.3L47.6,132.3 M47.6,130.3c-13.7,0-24.8,11.1-24.8,24.8c0,13.7,11.1,24.8,24.8,24.8
	s24.8-11.1,24.8-24.8c0,0,0,0,0,0C72.3,141.4,61.3,130.3,47.6,130.3L47.6,130.3z"/>
<path class="st1" d="M30.6,154.7c0.1-0.2,0.8-0.6,0.8-0.7c0-0.1-0.4-0.2-0.7-0.1c-0.3,0.1-1.4,0.6-1.2,0.9s1.1,1.7,1.7,1.7
	s0.4-0.6,0.2-0.8C31.1,155.4,30.5,154.8,30.6,154.7z"/>
<path class="st1" d="M42.5,146.6c0.5-0.6,0.7-0.8,0.8-0.8c0.1,0-0.8,0-1.2,0c0.1,0.1,0.2,0.2,0.2,0.4c0,0.3-0.2,0.6-0.6,0.6h-0.1
	l0,0c0.2,0.2,0.6,0.2,0.8,0C42.4,146.7,42.5,146.7,42.5,146.6z"/>
<path class="st1" d="M36.6,160.1c-0.3,0.1-0.5,0.3-0.8,0.4l-0.4,0.3c0.3,0.5,0.7,1,1.2,1.4C36.5,161.5,36.5,160.8,36.6,160.1z"/>
<path class="st1" d="M44.8,161c0-0.4-1.4-0.6-1.4-0.6c0.2,0.5,0.3,1,0.4,1.5c0,0.2-1.1,0.1-1.1,0.1c0,0.4-0.1,0.8-0.3,1.2
	C44,162.6,44.8,161.5,44.8,161z"/>
<path class="st1" d="M38.4,164.5c0,0,0.3,1.2,0.6,1.2c0.3,0.1,0.4-0.5,0.8-0.9C39.3,164.8,38.9,164.7,38.4,164.5z"/>
<path d="M36.9,146.4c0.2-1,0.7-2,1.4-2.8c2.5-1.8,5.3-3.2,8.2-4.1c0.4-0.1,0.8-0.1,1.2,0v0.3c-0.1,0.2-0.2,0.4-0.4,0.5
	c0.8,0.1,1.5-0.4,1.6-1.2c0.2-0.7,0.7-3.6,1.6-3.5c2.5,0.1,4.4,8.3,4.2,8.7c-0.2,0.4-1.1,0-1.1,0c1.6,2.4,3.7,2.4,4.1,2.1
	c0.5-0.4,0.2-1.7,0.2-1.7c5,3,4.7,6.5,4.7,6.5c1.5-5.8-2-8.3-2-8.3c1,0,2,0.3,2.8,0.8c-2.1-2.8-6.5-4.3-6.5-4.3s-5.1-5.6-6.7-5.4
	c-1.4,0.2-2.1,2.7-2.4,4.4c-0.3,0-0.7,0-1,0c-0.4-0.4-1.9-2.2-2.4-1.7c-0.2,0.8-0.4,1.7-0.3,2.5c-2.4,1-6.6,2.8-7.5,4.2
	c-0.4,0.7-0.8,1.4-0.9,2.1c0,0-5,3.2-6.2,6.7C31.5,149.8,34.1,147.8,36.9,146.4z"/>
<path d="M53,143.8c-0.1-2.6-1.4-4.7-2-4.8c-0.6-0.1-0.9,2.4-0.9,2.4C51.2,142,52.1,142.9,53,143.8z"/>
<path d="M40.7,143.3c-1,0.6-0.6,1.1-0.6,1.1s-0.2-0.5,1.1-0.9c2.2-0.6,4.2-1.2,4.2-1.8c0-0.6-1.5-0.7-1.5-0.7
	C44.2,141.6,41.7,142.7,40.7,143.3z"/>
<path d="M40,149.2c0,0,0.6-1.5,1.1-1.7c0.4,0.1,0.8,0.1,1.2,0c0.4-0.2,1.2-1.2,1.6-1.3c0,0-0.9,3.8-4.4,3.7c0,0,2.5,1.4,3.8,0.4
	s0.3-1.8,2-3.4c1.7-1.6,0.6-1.7,0.5-1.7c-0.2,0-0.4-0.1-0.6-0.1c0.2-0.2,0.4-0.4,0.7-0.5c0.5-0.2,3.2-1.4,3.2-2.2
	c0-0.7-1.9-1.5-2.9-1.5c0,0,0.9,0.4,0.9,0.9c0,0.5-2.7,1.7-2.7,3.1c-0.5,0-1.1,0-1.6-0.1c-0.7-0.2-1.5,0-2.2,0.4
	c-0.7,0.5-0.8-0.6-0.7-0.7s-1.4,0.9,0.4,2.1c-0.3,0.3-0.6,0.6-0.8,1C39.4,147.9,39.1,148.9,40,149.2z M41.7,146.8
	c0.3,0,0.6-0.2,0.6-0.6c0-0.2-0.1-0.3-0.2-0.4c0.4,0,1.2,0,1.2,0s-0.3,0.2-0.8,0.8C42.4,146.9,42,147,41.7,146.8
	C41.7,146.8,41.7,146.8,41.7,146.8L41.7,146.8L41.7,146.8z"/>
<path d="M37.6,154c0,0,0-1.3-1.2-1.1c-2.1,0.5-2.8,4.1-2.8,4.1C35.9,152.9,37.6,154,37.6,154z"/>
<path d="M38.4,157.3c1.1-1.8-0.2-3-2-2c-1.1,0.8-1.9,2-2.2,3.3C37.7,154.9,38.4,157.3,38.4,157.3z"/>
<path d="M33.9,153.9c1.2-2,2.7-2,2.7-2C34.9,150.6,33.9,153.9,33.9,153.9z"/>
<path d="M54.9,155c-0.8-0.8-1.2-2-1.1-3.2c0.1-2.1,0.5-5.2-3-7.3c0.8,1.3,1.1,2.9,0.9,4.4c-0.5,2.2-2.3,5.9-2.1,7.1
	c0.3,2.7,3.1,3.2,2.9,6.9c1-1.2,1.4-2.8,1.3-4.3c-0.3-2.3-2.4-3.4-1.5-5.2C53,154.1,53.9,154.7,54.9,155z"/>
<path d="M65,145.2c0,0,3.1,8.3-0.4,15.9c0.1-1.1-0.2-2.2-0.6-3.3c-0.7-1.9-0.8-4-0.2-5.9c-1.1,1.2-1.7,2.8-1.6,4.5
	c0.1,2.8,0.8,10.7-4.9,13.6c1.3-2.6,1.8-5.6,1.4-8.6c0.5,0.2,0.9,0.7,1.1,1.2c0.9-3,0.7-6.2-0.5-9c0.7,0.1,1.3,0.4,1.8,0.8
	c0,0,0.7-3.6-3.3-6.1c-1-0.6-0.9-1-0.9-1c-0.2,0.6,0,1.2,0.4,1.6c0.8,0.9,1.3,2,1.4,3.2c-0.8-0.5-1.7-0.7-2.7-0.6c0,0,3,2.6,2.6,8.1
	c-0.8-0.7-1.7-1.1-2.7-1.2c1.3,2.5,1.4,5.5,0.2,8.1c-0.1-0.8-0.4-1.6-0.8-2.3c-0.5,2-2,3.5-4,3.9c0,0,2.8-3.5-0.5-5.3
	s-6.2,2.2-6.8,5.6c0,0-3.9,0.3-4.3-1.3c-0.3-0.8,0-1.7,0.7-2.2c0,0,0.6,0.4,2-0.2s4.2-2.3,4-4.5c-0.3-2.2-3.7-4.3-6.4-3.4
	c-2.7,0.9-4.2,3.3-5.6,3.2c-1.4,0-3.1-2.2-2.9-3.3c0.2-1.1,1.2-1.4,1.5-3.3c-0.3,0-0.6,0-0.8-0.2c-0.5-0.3-1.1-0.5-1.7-0.4
	c-0.5,0.1-1.6,0.9-1.7,0.7c0-0.3,0.1-0.7,0.1-1c0,0-1.2,1.3-1.1,1.9c0.6,1.1,1.4,2,2.4,2.6c0.2,1.2,0.8,2.3,1.7,3.2
	c0.6,0.7,1.5,1.1,2.4,0.9c0.7,1,1.7,1.8,2.9,2.1c-0.2-1.1-0.2-2.2-0.1-3.2c0.1,0,0.1-0.1,0.2-0.1c0.3-0.3,3.2-3,5.5-0.4
	c-0.7,0.3-1.2,1-1.4,1.7c-0.4,1.2-0.6,4.4-3.9,2.4c-0.2,1,0.1,2.1,0.7,2.9c0,1.3,0.8,2.5,2,3c2.2,1.1,3.7,0.3,5.1,1
	c-0.1-1.6,0.3-3.2,1.1-4.6c1.2-1.7,2.9-2.3,3.7-1.7c0.8,0.7,1.3,3.2-1.8,5.9c2.1,0.2,4.3-0.3,6.1-1.5c-0.3,2.3-1.3,4.4-2.8,6.1
	c10.8-2.4,17.7-13,15.4-23.9C66.7,148.8,66,146.9,65,145.2L65,145.2z M31,156.4c-0.5,0-1.5-1.4-1.7-1.7c-0.2-0.3,0.9-0.8,1.2-0.9
	c0.3-0.1,0.7,0,0.7,0.1c0,0.1-0.7,0.6-0.8,0.7s0.6,0.8,0.7,0.9C31.3,155.7,31.6,156.4,31,156.4L31,156.4z M35.4,160.9l0.4-0.3
	c0.2-0.2,0.5-0.3,0.8-0.4c-0.1,0.7,0,1.4,0.1,2.1C36.2,161.9,35.7,161.4,35.4,160.9L35.4,160.9z M42.5,162.1c0,0,1.1,0,1.1-0.1
	c-0.1-0.5-0.2-1-0.4-1.5c0,0,1.4,0.1,1.4,0.6c0,0.5-0.8,1.6-2.4,2.3C42.4,162.9,42.5,162.5,42.5,162.1L42.5,162.1z M39,165.8
	c-0.3-0.1-0.6-1.2-0.6-1.2c0.4,0.2,0.9,0.4,1.4,0.4C39.4,165.3,39.4,165.9,39,165.8L39,165.8z"/>
<path d="M50.5,146c0,0-2.4-1.3-3.4,0c-1.1,1.3-0.3,3.5-0.9,4.9l0,0c-1.3-1.2-2.9,0.8-3.2,1.4c-0.1,0.3-0.4,0.5-0.7,0.6
	c-2.9,0.6-2.3-1.7-3.2-2.4c-1-0.7-2.6,0.3-2.6,0.3c1.6-0.3,2,0.8,1.9,1.2c0.1,0.9,0.3,1.7,0.7,2.4c0.4,0.7,2.2,0.2,3.7,0.3
	c1.4,0.1,2.3,1.9,2.3,1.9c0.9-2-1.5-3-1.5-3s0.7-1.3,1.5-0.9c2.6,1.4,2,7.3,2,7.3c2.3-4.2,1.2-6.7,0.1-8.2
	C47.3,150.6,48,146.5,50.5,146z"/>
</svg>
