<?xml version="1.0" encoding="utf-8"?>
<!-- Generator: Adobe Illustrator 21.0.0, SVG Export Plug-In . SVG Version: 6.00 Build 0)  -->
<svg version="1.1" id="Layer_1" xmlns="http://www.w3.org/2000/svg" xmlns:xlink="http://www.w3.org/1999/xlink" x="0px" y="0px"
	 viewBox="0 0 300 300" style="enable-background:new 0 0 300 300;" xml:space="preserve">
<style type="text/css">
	.st0{fill:#FFFFFF;}
</style>
<g>
	<path class="st0" d="M197.8,83.9l0-0.1l-38.8,0l-29.8,65l3.9,8.5l1,1.6l0.6,0.7l0.2,0.2l0.7,0.7l0.2,0.2l0.7,0.6l0.1,0.1l0.8,0.6
		l0.2,0.1l0.9,0.6l0.2,0.1l0.9,0.5l0.2,0.1l1,0.5h0.1l1,0.4l1.1,0.4h0.2l1.1,0.3h0.2l1.1,0.2h0.2l1.2,0.1h0.1h1.3h1.3h0.1l1.2-0.1
		h0.2l1.1-0.2h0.2l1.1-0.3h0.2l1.1-0.4l1-0.4h0.1l1-0.5l0.2-0.1l0.9-0.5l0.2-0.1l0.9-0.6l0.2-0.1l0.8-0.6l0.1-0.1l0.7-0.6l0.2-0.2
		l0.7-0.7l0.2-0.2l0.6-0.7l0.2-0.3l0.5-0.8l0.2-0.3c0.2-0.2,0.3-0.5,0.5-0.8l0.1-0.2l5.1-11.1l9-19.5l18.4,40.2h37.1L197.8,83.9z"/>
	<polygon class="st0" points="146.7,104.1 137.9,83.6 137.9,83.6 137.9,83.5 99.1,83.5 99.1,83.6 63.1,166 100.2,166 118.5,126 
		127.5,145.6 	"/>
</g>
<title>bank-Mega-Logo-Baru-02</title>
<path class="st0" d="M32.1,216.8h7.8c1.3,0.1,2.5-0.1,3.8-0.4c1.1-0.3,2-0.9,2.7-1.8c0.6-0.9,1-2.1,0.9-3.2c0-1.1-0.3-2.1-0.9-3
	c-0.6-0.8-1.4-1.4-2.4-1.8c-1.5-0.4-3.1-0.6-4.7-0.6h-7.2V216.8L32.1,216.8z M32.1,202.3h6.7c1.3,0,2.5-0.1,3.8-0.3
	c1-0.2,1.8-0.8,2.5-1.5c0.6-0.8,0.9-1.8,0.9-2.9c0-1-0.2-2-0.8-2.8c-0.5-0.7-1.2-1.3-2.1-1.5c-1.5-0.4-3.1-0.5-4.7-0.4h-6.2V202.3
	L32.1,202.3z M28,220.5v-31.3h11.7c1.9-0.1,3.8,0.2,5.6,0.9c1.4,0.6,2.6,1.6,3.4,2.9c0.9,1.2,1.3,2.7,1.3,4.2c0,1.4-0.4,2.7-1.1,3.9
	c-0.8,1.2-2,2.2-3.3,2.8c1.7,0.5,3.2,1.4,4.3,2.8c1.1,1.4,1.7,3.1,1.6,4.8c0,1.7-0.5,3.5-1.4,4.9c-0.9,1.4-2.2,2.5-3.8,3.1
	c-2.1,0.7-4.3,1.1-6.5,1L28,220.5z"/>
<path class="st0" d="M62.6,207.6h10.6l-3.3-8.7c-1-2.7-1.7-4.8-2.2-6.6c-0.4,2-0.9,4-1.6,6L62.6,207.6L62.6,207.6z M53.6,220.5
	l12-31.3H70l12.7,31.3h-4.7l-3.6-9.5H61.3l-3.4,9.5L53.6,220.5z"/>
<polygon class="st0" points="85.9,220.5 85.9,189.2 90.1,189.2 106.5,213.8 106.5,189.2 110.4,189.2 110.4,220.5 106.2,220.5 
	89.9,195.8 89.9,220.5 "/>
<polygon class="st0" points="117.2,220.5 117.2,189.2 121.4,189.2 121.4,204.7 136.8,189.2 142.4,189.2 129.3,201.9 143,220.5 
	137.5,220.5 126.5,204.7 121.4,209.6 121.4,220.5 "/>
<polygon class="st0" points="168.9,189.2 163.8,202.6 158.7,189.2 149.4,189.2 149.4,220.5 153,220.5 155.2,220.5 156.6,220.5 
	156.6,201.8 161.2,214.9 163.6,214.9 163.9,214.9 166.4,214.9 171,201.8 171,220.5 172.4,220.5 174.6,220.5 178.2,220.5 
	178.2,189.2 "/>
<polygon class="st0" points="208.2,196.9 208.2,189.2 207.7,189.2 188.3,189.2 185.6,189.2 185.6,192.8 185.6,216.9 185.6,220.5 
	192.2,220.5 208.2,220.5 208.2,215.2 208.2,213.2 193.5,213.2 193.5,208.4 205.7,208.4 205.7,201.2 193.5,201.2 193.5,196.9 "/>
<path class="st0" d="M224.7,195.7c2.1,0,3.8,1.5,4.2,3.5h8.5v-3c0-4.6-5.4-8.4-12.1-8.4s-12.1,3.7-12.1,8.4v15.9
	c0,3.5,3,6.4,7.3,7.7c3.2,0.9,6.6,0.9,9.8-0.1c4.2-1.3,7.1-4.2,7.1-7.6v-10.5h-12.8v7h4.3c-0.1,0.6-0.3,1.2-0.5,1.8
	c-0.3,0.6-0.8,1.1-1.3,1.4c-2,1.3-4.7,0.8-6.1-1.2c-0.5-0.7-0.7-1.5-0.7-2.4v-8.2C220.3,197.8,222.2,195.8,224.7,195.7
	C224.6,195.7,224.6,195.7,224.7,195.7z"/>
<path class="st0" d="M251.9,209.5l0.4-1.1l2.4-7.2V201v0.2l2.4,7.2l0.4,1.1H251.9z M267.7,216.7l-1.2-3.5l-1.3-3.7l-0.4-1.1
	l-2.4-7.2l-1.5-4.3l-2.4-7.2l-0.2-0.6h-7.2l-0.2,0.6l-2.4,7.1l-0.6,1.8l-7.4,21.8h7.6l1.3-3.7h10.7l1.3,3.7h7.6L267.7,216.7z"/>
</svg>
