<?xml version="1.0" encoding="utf-8"?>
<!-- Generator: Adobe Illustrator 21.0.0, SVG Export Plug-In . SVG Version: 6.00 Build 0)  -->
<svg version="1.1" id="Layer_1" xmlns="http://www.w3.org/2000/svg" xmlns:xlink="http://www.w3.org/1999/xlink" x="0px" y="0px"
	 viewBox="0 0 80 40" style="enable-background:new 0 0 80 40;" xml:space="preserve">
<style type="text/css">
	.st0{fill:#FFFFFF;}
	.st1{fill:url(#SVGID_1_);}
	.st2{fill:url(#SVGID_2_);}
	.st3{opacity:0.5;fill:#313132;enable-background:new    ;}
	.st4{fill:none;}
	.st5{fill:url(#SVGID_3_);}
	.st6{fill:url(#SVGID_4_);}
	.st7{fill:#8C0000;}
	.st8{fill:#646464;}
</style>
<title>OJK_signup</title>
<path class="st0" d="M2.8,0h74.3C78.7,0,80,1.3,80,2.8v34.3c0,1.6-1.3,2.8-2.8,2.8H2.8C1.3,40,0,38.7,0,37.2V2.8C0,1.3,1.3,0,2.8,0z
	"/>
<radialGradient id="SVGID_1_" cx="20.0575" cy="19.6048" r="13.9035" gradientTransform="matrix(1.0606 0 0 -0.9912 2.659 41.8363)" gradientUnits="userSpaceOnUse">
	<stop  offset="0" style="stop-color:#D60015"/>
	<stop  offset="1.000000e-02" style="stop-color:#D50015"/>
	<stop  offset="0.27" style="stop-color:#B60917"/>
	<stop  offset="0.53" style="stop-color:#A01019"/>
	<stop  offset="0.78" style="stop-color:#93141A"/>
	<stop  offset="1" style="stop-color:#8E151A"/>
</radialGradient>
<path class="st1" d="M22.4,14.8v11.8c-0.1,1-0.3,2.1-1.5,2.1c-0.5,0-0.7-0.1-0.9-0.3c1-1.5,1.5-3.2,1.5-5c0-1.1-0.2-2.1-0.6-3.1
	c-0.1-0.2-0.1-0.3-0.2-0.5c-1.1-2.9-3.9-4.8-7-4.9c-4.3,0-7.8,3.8-7.8,8.5s3.5,8.5,7.8,8.5c1.3,0,2.6-0.3,3.7-1c0.9,0.7,2,1,3.2,1
	c2.6,0,4.8-1.9,5.4-4.4l0,0V14.8H22.4z M15.7,28.5c-0.6,0.3-1.2,0.5-1.9,0.5c-2.6,0-4.7-2.5-4.7-5.7s2.1-5.7,4.7-5.7
	c2,0.1,3.7,1.4,4.3,3.4c0.3,0.7,0.4,1.5,0.4,2.3C18.6,25.4,17.5,27.4,15.7,28.5z"/>
<radialGradient id="SVGID_2_" cx="24.2839" cy="19.5742" r="13.4323" gradientTransform="matrix(1 0 0 -1 0 42)" gradientUnits="userSpaceOnUse">
	<stop  offset="0" style="stop-color:#D60015"/>
	<stop  offset="1.000000e-02" style="stop-color:#D50015"/>
	<stop  offset="0.27" style="stop-color:#B60917"/>
	<stop  offset="0.53" style="stop-color:#A01019"/>
	<stop  offset="0.78" style="stop-color:#93141A"/>
	<stop  offset="1" style="stop-color:#8E151A"/>
</radialGradient>
<polygon class="st2" points="27.4,21.3 27.4,26.3 29.6,24.3 34.5,31.6 39.4,31.6 32.4,21.1 38.4,14.8 33,14.8 "/>
<path class="st3" d="M38.8,14.6c-1.2,0.1-2.3,0.1-3.5,0c-0.1,0-0.2,0-0.2,0C29.5,13,28,10.2,24.2,7.9c-3.6-2.2-12-4.2-20.5,1.4
	c1.6,1.2,2.9,2.8,3.8,4.5c1.8,3.2,0.9,5.3,0.9,5.3s4.9-5.2,10.7-5.4c4.9-0.2,10.5,1.7,14.9,2.2c0.8,0.1,1.6,0.1,2.3,0.1
	c4.7-0.2,6.5-2.9,6.5-2.9C41.7,14.1,40.3,14.6,38.8,14.6z"/>
<path class="st4" d="M7.4,13.5c0.2-0.3,0.5-0.5,0.7-0.7C7.8,13,7.6,13.2,7.4,13.5z"/>
<linearGradient id="SVGID_3_" gradientUnits="userSpaceOnUse" x1="29.3028" y1="34.2322" x2="4.2229" y2="25.1022" gradientTransform="matrix(1 0 0 -1 0 42)">
	<stop  offset="0" style="stop-color:#E78B62"/>
	<stop  offset="2.000000e-02" style="stop-color:#DC684E"/>
	<stop  offset="5.000000e-02" style="stop-color:#D24C3D"/>
	<stop  offset="8.000000e-02" style="stop-color:#CB3630"/>
	<stop  offset="0.11" style="stop-color:#C62627"/>
	<stop  offset="0.14" style="stop-color:#C31D22"/>
	<stop  offset="0.19" style="stop-color:#C21A20"/>
	<stop  offset="0.25" style="stop-color:#D04239"/>
	<stop  offset="0.33" style="stop-color:#E17157"/>
	<stop  offset="0.37" style="stop-color:#E78362"/>
	<stop  offset="0.39" style="stop-color:#E57A5C"/>
	<stop  offset="0.5" style="stop-color:#DD5A46"/>
	<stop  offset="0.61" style="stop-color:#D64235"/>
	<stop  offset="0.73" style="stop-color:#D23029"/>
	<stop  offset="0.85" style="stop-color:#CF2522"/>
	<stop  offset="1" style="stop-color:#CE2220"/>
</linearGradient>
<path class="st5" d="M20.8,10.1c6.9,1.8,8.4,4.5,14,4.4c-0.4-0.2-0.7-0.4-1.1-0.5c-2.6-0.5-4.3-3.1-9.4-6.1
	C17.8,4.2,9.8,4.7,3.8,9.2c0,0,0,0.1,0,0.1c0,0,0,0,0,0c1.5,1.1,2.7,2.5,3.6,4.1c0.2-0.3,0.5-0.5,0.7-0.7C12.5,8.1,16.8,9,20.8,10.1
	z"/>
<linearGradient id="SVGID_4_" gradientUnits="userSpaceOnUse" x1="-3.9297" y1="18.7691" x2="34.4003" y2="32.7191" gradientTransform="matrix(1 0 0 -1 0 42)">
	<stop  offset="0" style="stop-color:#878787"/>
	<stop  offset="9.000000e-02" style="stop-color:#959595"/>
	<stop  offset="0.27" style="stop-color:#BABABA"/>
	<stop  offset="0.51" style="stop-color:#F6F6F6"/>
	<stop  offset="0.55" style="stop-color:#FFFFFF"/>
	<stop  offset="0.57" style="stop-color:#F5F5F5"/>
	<stop  offset="0.64" style="stop-color:#D9D9D9"/>
	<stop  offset="0.69" style="stop-color:#C8C8C8"/>
	<stop  offset="0.74" style="stop-color:#C2C2C2"/>
	<stop  offset="0.79" style="stop-color:#CFCFCF"/>
	<stop  offset="0.9" style="stop-color:#F2F2F2"/>
	<stop  offset="0.93" style="stop-color:#FFFFFF"/>
	<stop  offset="0.97" style="stop-color:#F3F3F3"/>
	<stop  offset="1" style="stop-color:#E0E0E0"/>
</linearGradient>
<path class="st6" d="M39.4,14.1c-1.2,0.3-2.3,0.3-3.5,0.2c-5.6-0.4-9.4-3-14.6-4.7c-4-1.3-8.7-1.4-13.2,3.2
	c-0.2,0.2-0.5,0.5-0.7,0.7l0.1,0.1c0.9,1.4,1.3,3.1,1.2,4.8c0,0,4.9-4.9,10.6-5.1c4.8-0.2,10.4,1.6,14.9,2.1
	c0.8,0.1,1.6,0.1,2.3,0.1C41.1,15.4,43,13,43,13S42.4,13.6,39.4,14.1z"/>
<rect x="43.2" y="14.5" class="st7" width="0.5" height="17.2"/>
<path class="st8" d="M50.6,17.3c0.1,1.1-0.7,2.1-1.8,2.1c-0.1,0-0.1,0-0.2,0c-1.1,0-2-0.8-2-1.9c0-0.1,0-0.1,0-0.2
	c-0.1-1.1,0.7-2.1,1.8-2.1c0.1,0,0.1,0,0.2,0c1.1-0.1,2,0.8,2,1.8C50.6,17.1,50.6,17.2,50.6,17.3z M47.2,17.4
	c-0.1,0.8,0.5,1.5,1.4,1.6c0,0,0,0,0,0c0.9,0,1.4-0.8,1.4-1.7c0.1-0.8-0.5-1.6-1.3-1.7c0,0,0,0-0.1,0C47.7,15.7,47.2,16.5,47.2,17.4
	L47.2,17.4z"/>
<path class="st8" d="M51.9,15.8h-1.3v-0.4h3.2v0.4h-1.3v3.6h-0.6V15.8z"/>
<path class="st8" d="M57.7,17.3c0.1,1.1-0.7,2.1-1.8,2.1c-0.1,0-0.1,0-0.2,0c-1.1,0-2-0.8-2-1.9c0-0.1,0-0.1,0-0.2
	c-0.1-1.1,0.7-2.1,1.8-2.1c0.1,0,0.1,0,0.2,0c1.1-0.1,2,0.8,2,1.8C57.7,17.1,57.7,17.2,57.7,17.3z M54.3,17.4
	c-0.1,0.8,0.5,1.5,1.4,1.6c0,0,0,0,0,0c0.9,0,1.4-0.8,1.4-1.7c0.1-0.8-0.5-1.6-1.3-1.7c0,0,0,0-0.1,0C54.8,15.7,54.3,16.5,54.3,17.4
	L54.3,17.4z"/>
<path class="st8" d="M58.3,15.4c0.4-0.1,0.7-0.1,1.1-0.1c0.4,0,0.9,0.1,1.3,0.3c0.2,0.2,0.3,0.5,0.3,0.8c0,0.5-0.4,0.9-0.8,1l0,0
	c0.3,0.1,0.6,0.4,0.6,0.8c0.1,0.4,0.2,0.8,0.3,1.1h-0.6c-0.1-0.3-0.2-0.7-0.3-1c-0.1-0.6-0.4-0.8-0.9-0.8h-0.5v1.9h-0.6V15.4z
	 M58.9,17.2h0.6c0.6,0,1-0.3,1-0.8s-0.4-0.8-1-0.8c-0.2,0-0.4,0-0.6,0L58.9,17.2z"/>
<path class="st8" d="M62.2,15.3v4.1h-0.6v-4.1H62.2z"/>
<path class="st8" d="M63.9,15.8h-1.3v-0.4h3.2v0.4h-1.3v3.6h-0.6V15.8z"/>
<path class="st8" d="M66.4,18.1l-0.4,1.3h-0.6l1.5-4.1h0.7l1.5,4.1h-0.6l-0.5-1.3L66.4,18.1z M67.8,17.7l-0.4-1.2
	c-0.1-0.3-0.2-0.5-0.2-0.8l0,0c-0.1,0.2-0.1,0.5-0.2,0.7l-0.4,1.2L67.8,17.7z"/>
<path class="st8" d="M69.4,18.8c0.3,0.2,0.6,0.3,1,0.3c0.6,0,0.9-0.3,0.9-0.7s-0.2-0.6-0.8-0.8s-1.2-0.6-1.2-1.2s0.6-1.1,1.4-1.1
	c0.3,0,0.7,0.1,1,0.2l-0.2,0.4c-0.3-0.1-0.5-0.2-0.8-0.2c-0.6,0-0.8,0.3-0.8,0.6s0.3,0.6,0.9,0.8s1.1,0.6,1.1,1.2s-0.5,1.2-1.5,1.2
	c-0.4,0-0.8-0.1-1.1-0.3L69.4,18.8z"/>
<path class="st8" d="M47.8,21.1h0.6v2.7c0,1.1-0.6,1.4-1.3,1.4c-0.2,0-0.4,0-0.6-0.1l0.1-0.4c0.2,0.1,0.3,0.1,0.5,0.1
	c0.5,0,0.8-0.2,0.8-1L47.8,21.1z"/>
<path class="st8" d="M49.9,23.9l-0.5,1.3h-0.6l1.5-4.1H51l1.5,4.1h-0.6l-0.5-1.3H49.9z M51.3,23.5l-0.4-1.2
	c-0.1-0.3-0.2-0.5-0.2-0.8l0,0c-0.1,0.2-0.1,0.5-0.2,0.7L50,23.5H51.3z"/>
<path class="st8" d="M52.9,24.5c0.3,0.2,0.6,0.3,1,0.3c0.6,0,0.9-0.3,0.9-0.7s-0.2-0.6-0.8-0.8s-1.2-0.6-1.2-1.2s0.6-1.1,1.4-1.1
	c0.3,0,0.7,0.1,1,0.2l-0.2,0.4c-0.3-0.1-0.5-0.2-0.8-0.2c-0.6,0-0.8,0.3-0.8,0.6s0.3,0.6,0.9,0.8s1.1,0.6,1.1,1.2s-0.5,1.2-1.5,1.2
	c-0.4,0-0.8-0.1-1.1-0.3L52.9,24.5z"/>
<path class="st8" d="M56.8,23.9l-0.5,1.3h-0.6l1.5-4.1h0.7l1.5,4.1h-0.6l-0.5-1.3H56.8z M58.2,23.5l-0.4-1.2
	c-0.1-0.3-0.2-0.5-0.2-0.8l0,0c-0.1,0.2-0.1,0.5-0.2,0.7l-0.4,1.2L58.2,23.5z"/>
<path class="st8" d="M46.9,26.8h0.6v2l0,0l0.3-0.4l1.3-1.5h0.7l-1.6,1.7l1.7,2.3h-0.7l-1.4-2l-0.4,0.5v1.6h-0.6L46.9,26.8z"/>
<path class="st8" d="M52.5,29h-1.7v1.5h1.9v0.4h-2.5v-4.1h2.4v0.4h-1.8v1.3h1.7L52.5,29z"/>
<path class="st8" d="M53.9,26.8v2.4c0,0.9,0.4,1.3,1,1.3s1.1-0.4,1.1-1.3v-2.4h0.6v2.4c0.2,0.8-0.4,1.6-1.3,1.8c-0.1,0-0.3,0-0.4,0
	c-0.9,0-1.6-0.5-1.6-1.8v-2.5H53.9z"/>
<path class="st8" d="M57.9,29.6l-0.5,1.3h-0.6l1.5-4.1H59l1.5,4.1h-0.6l-0.5-1.3L57.9,29.6z M59.3,29.2L58.9,28
	c-0.1-0.3-0.2-0.5-0.2-0.8l0,0c-0.1,0.2-0.1,0.5-0.2,0.7L58,29.2H59.3z"/>
<path class="st8" d="M61,30.9v-4.1h0.6l1.4,2.1c0.3,0.4,0.6,0.9,0.8,1.3l0,0c0-0.5-0.1-1-0.1-1.7v-1.7h0.5v4.1h-0.6l-1.4-2.1
	c-0.3-0.4-0.6-0.9-0.8-1.4l0,0c0,0.5,0,1,0,1.7v1.8L61,30.9z"/>
<path class="st8" d="M68.4,30.7c-0.4,0.1-0.9,0.2-1.3,0.2c-0.6,0-1.2-0.2-1.6-0.5c-0.4-0.4-0.6-0.9-0.6-1.5c0-1.2,1-2.1,2.1-2.1
	c0.1,0,0.2,0,0.2,0c0.4,0,0.7,0.1,1.1,0.2l-0.1,0.4c-0.3-0.1-0.7-0.2-1-0.2c-0.9-0.1-1.7,0.5-1.8,1.4c0,0.1,0,0.2,0,0.2
	c-0.1,0.9,0.6,1.6,1.4,1.7c0.1,0,0.2,0,0.3,0c0.3,0,0.5,0,0.8-0.1v-1.2H67v-0.4h1.4L68.4,30.7z"/>
<path class="st8" d="M69.9,29.6l-0.4,1.3h-0.6l1.5-4.1H71l1.5,4.1h-0.6l-0.5-1.3L69.9,29.6z M71.3,29.2L70.9,28
	c-0.1-0.3-0.2-0.5-0.2-0.8l0,0c-0.1,0.2-0.1,0.5-0.2,0.7L70,29.2H71.3z"/>
<path class="st8" d="M73,30.9v-4.1h0.6l1.4,2.1c0.3,0.4,0.6,0.9,0.8,1.3l0,0c-0.1-0.5-0.1-1-0.1-1.7v-1.7h0.5v4.1h-0.6l-1.4-2.1
	c-0.3-0.4-0.6-0.9-0.8-1.4l0,0c0,0.5,0,1,0,1.7v1.8L73,30.9z"/>
</svg>
