<?xml version="1.0" encoding="utf-8"?>
<!-- Generator: Adobe Illustrator 21.0.0, SVG Export Plug-In . SVG Version: 6.00 Build 0)  -->
<svg version="1.1" id="Layer_1" xmlns="http://www.w3.org/2000/svg" xmlns:xlink="http://www.w3.org/1999/xlink" x="0px" y="0px"
	 viewBox="0 0 300 300" style="enable-background:new 0 0 300 300;" xml:space="preserve">
<style type="text/css">
	.st0{fill:#FFFFFF;}
	.st1{fill:#0096B8;}
	.st2{fill:#005675;}
	.st3{fill:#0BBBEF;}
	.st4{fill:#007290;}
	.st5{fill:#81B73E;}
	.st6{fill:#69931D;}
	.st7{fill:#277933;}
	.st8{fill:#AECC53;}
	.st9{fill:#E4032E;}
	.st10{fill:#B51227;}
	.st11{fill:#791B15;}
	.st12{fill:#EA5160;}
</style>
<title>Permata Bank</title>
<path class="st0" d="M172.6,167.3c0-2.7-1-4.5-2.9-5.6c-0.7-0.3-1.4-0.6-2.2-0.7c-1-0.2-2-0.3-2.9-0.2h-3.8v13.3h3.8
	c2.8,0,4.8-0.5,6.1-1.6c0.7-0.6,1.2-1.3,1.4-2.1C172.4,169.4,172.6,168.3,172.6,167.3 M160.7,148.4v11.4h4c4.7,0,7-2,7.1-5.8
	c0.1-3.9-2.5-5.6-7.4-5.6L160.7,148.4z M157.6,172.3c0-0.4,0-1.2,0.1-2v-18l-0.1-1.8c0-0.4,0-0.6,0-0.8c0-0.1,0-0.3-0.1-0.4
	c-0.1-0.4-0.5-0.8-0.9-0.9c-0.6-0.2-1.2-0.3-1.8-0.3v-0.6H165c1.4,0,2.7,0.1,4,0.3c1,0.1,2,0.4,2.9,0.8c2.1,0.9,3.3,2.9,3.2,5.2
	c0,3.5-2.3,5.7-7,6.3l-0.8,0.1c1.1,0.1,2.1,0.3,3.2,0.5c0.7,0.2,1.3,0.4,2,0.7c2.4,1.1,3.9,3.5,3.7,6.1c0.2,3.1-1.9,6-5,6.6
	c-0.9,0.2-1.8,0.4-2.8,0.5c-1.2,0.1-2.4,0.2-3.6,0.2h-10.1v-0.6c0.8,0.1,1.7-0.1,2.3-0.6c0.1-0.1,0.3-0.3,0.3-0.5
	C157.5,172.8,157.5,172.5,157.6,172.3"/>
<path class="st0" d="M181.2,169.9c0,1.1,0.3,2.1,0.9,3c0.6,0.7,1.5,1.2,2.4,1.2c1,0,2-0.3,2.9-0.8c0.9-0.5,1.6-1.2,2.1-2.1
	c0.4-0.7,0.6-1.4,0.7-2.1c0.2-1,0.2-2.1,0.2-3.2v-2c-1.4,0.1-2.7,0.3-4.1,0.5c-0.9,0.2-1.7,0.5-2.5,0.9
	C182.1,166.3,181.1,168,181.2,169.9 M190.9,174.1c-0.3-0.7-0.4-1.4-0.4-2.2v-0.4l-0.2,0.3c-0.3,0.3-0.6,0.6-0.9,0.9
	c-0.3,0.3-0.6,0.5-1,0.7c-0.7,0.5-1.5,1-2.3,1.3c-0.8,0.3-1.7,0.4-2.5,0.4c-1.4,0.1-2.7-0.3-3.8-1.2c-0.5-0.5-0.9-1.1-1.2-1.7
	c-0.3-0.7-0.4-1.5-0.4-2.2c0-2.9,1.8-4.8,5.5-5.6c1-0.2,2-0.4,3.1-0.5c1.1-0.1,2.3-0.3,3.7-0.4l0.1-2.5c0-0.7,0-1.4-0.1-2.1
	c-0.1-0.5-0.2-1-0.4-1.4c-0.7-1.1-2-1.7-3.3-1.6c-2.6,0-4,1.2-4.1,3.6c0,0.3,0,0.6-0.1,0.8c0,0.1-0.1,0.3-0.2,0.4
	c-0.4,0.2-0.8,0.3-1.3,0.3c-1.3,0-1.7-0.4-1.7-1c0-0.7,0.2-1.4,0.7-1.9c0.5-0.7,1.1-1.2,1.8-1.6c1.7-0.8,3.6-1.2,5.5-1.2
	c2.5,0,4.1,0.6,5,1.6c0.4,0.5,0.7,1.1,0.8,1.7c0.2,0.8,0.3,1.6,0.2,2.5v0.2v1v2.6v3.6v1.8c0,0.8,0,1.4,0.1,2.2s0.3,1.4,0.9,1.6
	c0.7,0.2,1.4,0.3,2.2,0.3c0.6,0,1.2-0.1,1.8-0.3c0.5-0.2,0.8-0.7,0.9-1.2c0.1-0.9,0.2-1.7,0.2-2.6v-10.2c0.1-1-0.1-2-0.5-2.9
	c-0.6-0.5-1.3-0.8-2.1-0.7v-0.5l5.5-0.4v4.3l0.3-0.5c0.6-1.2,1.5-2.3,2.6-3c1.2-0.7,2.5-1,3.8-0.9c1.9-0.2,3.8,0.7,4.9,2.3
	c0.4,0.6,0.6,1.2,0.7,1.9c0.2,0.9,0.2,1.9,0.2,2.8v7.9c0,0.9,0,1.8,0.2,2.6c0.1,0.5,0.4,1,0.9,1.2c0.7,0.2,1.3,0.3,2,0.3
	c0.6,0,1.1-0.1,1.6-0.3c0.5-0.2,0.8-0.7,0.8-1.2c0.1-0.9,0.2-1.7,0.2-2.6v-18.6c0-0.8,0-1.6-0.1-2.3c-0.1-0.5-0.4-0.9-0.8-1.1
	c-0.6-0.2-1.2-0.2-1.7-0.2v-0.5l5.7-0.3c-0.1,1.3-0.1,2.6-0.2,3.9c0,1.3,0,2.5,0,3.6v12.5l6.2-6.8c0.7-0.6,1.2-1.5,1.4-2.5
	c0-0.9-0.9-1.3-2.4-1.4V156h8.1v0.5c-0.9,0.1-1.7,0.4-2.5,0.8c-0.4,0.3-0.8,0.5-1.1,0.7c-0.4,0.3-0.7,0.6-1,0.9
	c-0.4,0.4-1,1-1.7,1.8L228,163l5.4,8.5c0.4,0.8,1,1.5,1.7,2.1c0.6,0.4,1.2,0.7,1.9,0.7v0.5h-4.9c-0.1-0.3-0.3-0.6-0.6-1.1l-0.8-1.4
	l-0.6-1.1l-4.1-6.5l-3.1,3.5v2c0,0.9,0,1.7,0.2,2.6c0.1,0.5,0.4,0.9,0.8,1.2c0.6,0.2,1.2,0.3,1.8,0.3v0.5H209v-0.5
	c1.2,0,1.9-0.2,2.2-0.6c0.1-0.2,0.2-0.4,0.3-0.5c0.1-0.3,0.1-0.5,0.1-0.8c0-0.3,0-0.6,0.1-1.1c0.1-0.5,0-0.8,0-1v-7.7
	c0.1-1.4-0.1-2.8-0.6-4.2c-0.6-1.4-2-2.2-3.5-2.1c-1.9,0-3.6,1-4.4,2.6c-0.4,0.7-0.8,1.5-1,2.3c-0.2,0.8-0.3,1.6-0.4,2.5v6.6
	c0,0.9,0,1.8,0.2,2.6c0.1,0.5,0.4,1,0.9,1.2c0.6,0.2,1.2,0.3,1.8,0.3v0.5h-8.2c-0.7,0-2.1,0.1-2.8,0c-0.7-0.1-1.1-0.1-1.7-0.1
	S191,174.5,190.9,174.1"/>
<path class="st0" d="M20.6,162.3h1.8c1.7,0.1,3.4-0.4,4.7-1.5c0.6-0.6,1-1.4,1.2-2.3c0.3-1,0.4-2.1,0.4-3.2c0-4.5-2-6.8-5.9-6.8
	h-2.2V162.3z M20.6,163.4v6.8c0,0.8,0,1.6,0.2,2.4c0.1,0.5,0.4,0.9,0.9,1.1c0.7,0.2,1.4,0.3,2.2,0.3v0.9H13.2V174
	c0.7,0,1.4-0.1,2-0.3c0.4-0.2,0.8-0.6,0.8-1.1c0.2-0.8,0.2-1.6,0.2-2.4v-17.9c0-0.8,0-1.6-0.2-2.4c-0.1-0.5-0.4-0.9-0.8-1.1
	c-0.6-0.2-1.3-0.3-2-0.3v-0.9h10.2c3.4,0,5.9,0.6,7.5,1.8c1.7,1.4,2.6,3.6,2.3,5.8c0,3.7-1.4,6.1-4.3,7.3c-0.9,0.3-1.9,0.6-2.9,0.7
	c-1.3,0.2-2.6,0.3-3.9,0.3L20.6,163.4z"/>
<path class="st0" d="M38.2,163.5H46c0-1.1-0.1-2-0.2-2.7c-0.1-0.6-0.2-1.2-0.4-1.8c-0.7-1.9-1.7-2.9-3-2.8c-1.6,0-2.7,1.1-3.4,3.2
	c-0.2,0.6-0.4,1.2-0.5,1.8C38.4,161.9,38.3,162.7,38.2,163.5 M50.6,164.5H38.2c0,1.1,0.1,2.2,0.2,3.3c0.1,0.8,0.4,1.7,0.7,2.5
	c1,2.4,2.6,3.6,4.8,3.6c1.2,0,2.4-0.4,3.3-1.1c1.1-0.8,1.9-1.9,2.5-3.1l0.9,0.6c-0.7,1.5-1.8,2.8-3.2,3.8c-1.4,0.8-3,1.2-4.6,1.2
	c-2.6,0.1-5.1-0.9-7-2.7c-1.7-2-2.6-4.6-2.5-7.3c-0.1-2.7,0.7-5.3,2.4-7.4c1.8-1.8,4.3-2.8,6.8-2.7c1.6,0,3.3,0.4,4.7,1.2
	c1.3,0.9,2.2,2.1,2.7,3.6c0.2,0.6,0.4,1.2,0.4,1.8C50.5,162.7,50.5,163.6,50.6,164.5"/>
<path class="st0" d="M51.4,155.8l6.9-0.5c0,0.7,0.1,1.3,0.1,1.7c0,0.5,0,0.9,0,1.2v1.1c1.5-2.7,3.3-4.1,5.4-4.1
	c0.8,0,1.6,0.3,2.2,0.8c0.6,0.5,0.9,1.2,0.9,2c0,0.6-0.3,1.2-0.7,1.6c-0.5,0.4-1.2,0.6-1.9,0.6c-0.8,0.1-1.5-0.4-1.7-1.2
	c-0.1-0.4-0.2-0.7-0.4-1c-0.2-0.2-0.4-0.3-0.6-0.3h-0.1c-0.7,0.1-1.4,0.6-2.1,1.7c-0.3,0.6-0.5,1.2-0.7,1.8
	c-0.2,0.7-0.2,1.5-0.2,2.3v6.7c0,0.8,0,1.6,0.2,2.3c0.1,0.5,0.4,0.8,0.8,1c0.6,0.2,1.3,0.3,2,0.3v0.9H51.2V174
	c0.6,0,1.3-0.1,1.8-0.2c0.4-0.2,0.7-0.6,0.8-1c0.1-0.8,0.2-1.6,0.2-2.3v-10.2c0.1-1,0-2-0.5-2.9c-0.3-0.5-1.1-0.7-2.2-0.6
	L51.4,155.8z"/>
<path class="st0" d="M75.1,155.3v3.6c1.3-2.3,3.7-3.7,6.4-3.7c2.5-0.3,4.7,1.4,5.2,3.8c0.7-1.2,1.6-2.2,2.7-2.9
	c1.1-0.6,2.3-1,3.6-0.9c1.8-0.1,3.6,0.7,4.8,2.1c0.4,0.6,0.7,1.3,0.8,2c0.2,1,0.3,2,0.2,3v8c0,0.8,0,1.6,0.2,2.3
	c0.1,0.5,0.4,0.8,0.8,1c0.6,0.2,1.2,0.3,1.8,0.2v0.9h-9.9V174c0.6,0,1.2-0.1,1.8-0.2c0.4-0.2,0.7-0.6,0.7-1c0.1-0.8,0.2-1.6,0.2-2.3
	v-8c0.1-1.4-0.1-2.9-0.7-4.2c-0.5-0.8-1.4-1.3-2.3-1.3c-1.4,0-2.6,0.8-3.2,2c-0.8,1.1-1.2,2.4-1.2,3.7v7.7c0,0.8,0,1.6,0.2,2.3
	c0.1,0.4,0.3,0.8,0.8,1c0.6,0.2,1.2,0.3,1.8,0.2v0.9h-9.7V174c0.6,0,1.2-0.1,1.8-0.2c0.4-0.2,0.7-0.6,0.7-1c0.1-0.8,0.2-1.6,0.2-2.3
	v-8.1c0-3.6-1-5.4-3-5.4c-1.3,0-2.4,0.7-3.1,1.8c-0.9,1.2-1.3,2.7-1.3,4.2v7.4c0,0.8,0,1.6,0.2,2.4c0.1,0.4,0.3,0.8,0.7,1
	c0.6,0.2,1.2,0.3,1.8,0.2v0.9h-9.9V174c0.6,0,1.3,0,1.8-0.2c0.4-0.2,0.7-0.6,0.8-1c0.1-0.8,0.2-1.6,0.2-2.4v-10.2c0.1-1,0-2-0.4-2.9
	c-0.3-0.4-1.1-0.6-2.3-0.6v-0.9L75.1,155.3z"/>
<path class="st0" d="M127.8,157v12.2c0,0.7,0,1.3,0.1,2c0,0.4,0.1,0.9,0.3,1.3c0.1,0.4,0.4,0.7,0.7,1c0.3,0.2,0.7,0.4,1.1,0.4
	c1-0.1,1.9-0.5,2.6-1.2l0.5,0.9c-1.4,1.2-3.2,1.9-5,1.8c-1.6,0.2-3.2-0.6-4.1-2c-0.2-0.3-0.3-0.6-0.3-1c-0.1-0.5-0.1-1-0.2-1.5
	c0-0.6,0-1.5,0-2.6V157h-2.1v-1.1c0.7,0,1.4-0.2,2-0.5c0.6-0.3,1.1-0.8,1.4-1.4c0.3-0.5,0.6-1.1,0.8-1.7c0.2-0.7,0.4-1.5,0.6-2.3
	l1.8-0.2c0,0.5,0,1-0.1,1.5s0,1.1,0,1.8s0,1.6,0,2.7h4.4v1.2L127.8,157z"/>
<path class="st0" d="M114.3,167.2v-2.8c-2,0-3.9,0.5-5.6,1.4c-1.1,0.9-1.7,2.3-1.6,3.7c-0.1,1.1,0.2,2.2,0.8,3.2
	c0.5,0.7,1.3,1.2,2.2,1.2c0.7,0,1.5-0.2,2.1-0.6c0.6-0.4,1.2-1.1,1.5-1.8c0.3-0.5,0.4-1.1,0.5-1.7
	C114.3,168.9,114.4,168,114.3,167.2 M121.2,174.2v0.8c-1.1,0.1-1.5,0.1-2.6,0.1c-0.9,0-1.8-0.1-2.6-0.3c-0.4-0.1-0.8-0.4-1.1-0.7
	c-0.3-0.4-0.5-1-0.5-1.5c-0.8,0.9-1.8,1.7-3,2.3c-1,0.5-2.2,0.7-3.3,0.7c-1.5,0.1-3-0.5-4.1-1.5c-1-1-1.6-2.5-1.5-3.9
	c0-3.1,1.9-5.1,5.8-5.8c2-0.4,4-0.6,6-0.7v-2.3c0.1-1.4-0.1-2.7-0.6-4c-0.5-0.8-1.4-1.2-2.3-1.1c-1-0.1-2,0.4-2.5,1.2
	c-0.2,0.3-0.3,0.7-0.4,1c-0.1,0.5-0.2,1.1-0.2,1.6c0,0.5-0.2,1-0.6,1.4c-0.5,0.3-1.1,0.5-1.7,0.4c-1.7,0-2.6-0.6-2.6-1.7
	c0-0.7,0.2-1.3,0.6-1.9c0.4-0.6,1-1.2,1.7-1.6c1.8-1,3.9-1.5,6-1.4c2.5,0,4.3,0.5,5.4,1.5c0.5,0.5,0.9,1.1,1.1,1.8
	c0.3,0.9,0.4,1.8,0.3,2.8v3.2v3.2c0,1,0,1.7,0,2c0,1,0,1.9,0.1,2.9c0,0.5,0.2,0.9,0.6,1.2C120,174.1,120.6,174.3,121.2,174.2"/>
<path class="st0" d="M145.9,167.2v-2.8c-2,0-3.9,0.5-5.6,1.5c-1.1,0.9-1.7,2.3-1.6,3.7c-0.1,1.1,0.2,2.2,0.8,3.2
	c0.5,0.7,1.3,1.2,2.2,1.2c0.7,0,1.5-0.2,2.1-0.6c0.6-0.4,1.2-1.1,1.5-1.8c0.3-0.5,0.4-1.1,0.5-1.7
	C145.9,168.9,145.9,168,145.9,167.2 M152.7,174.2v0.8c-1.1,0.1-1.5,0.1-2.6,0.1c-0.9,0-1.8-0.1-2.6-0.3c-0.4-0.1-0.8-0.4-1.1-0.7
	c-0.3-0.4-0.5-1-0.5-1.5c-0.8,0.9-1.8,1.7-3,2.3c-1,0.5-2.2,0.7-3.3,0.7c-1.5,0.1-3-0.5-4.1-1.5c-1-1-1.6-2.5-1.5-3.9
	c0-3.1,1.9-5.1,5.8-5.8c2-0.4,4-0.6,6-0.7v-2.3c0.1-1.4-0.1-2.7-0.6-4c-0.5-0.8-1.4-1.2-2.3-1.1c-1-0.1-2,0.4-2.5,1.2
	c-0.2,0.3-0.3,0.7-0.4,1c-0.1,0.5-0.2,1.1-0.2,1.6c0,0.5-0.2,1-0.6,1.4c-0.5,0.3-1.1,0.5-1.7,0.4c-1.7,0-2.6-0.6-2.6-1.7
	c0-0.7,0.2-1.3,0.6-1.9c0.4-0.6,1-1.2,1.7-1.6c1.8-1,3.9-1.5,6-1.4c2.5,0,4.3,0.5,5.4,1.5c0.5,0.5,0.9,1.1,1.1,1.8
	c0.3,0.9,0.4,1.8,0.3,2.8v3.2v3.2c0,1,0,1.7,0,2c0,1,0,1.9,0.1,2.9c0,0.5,0.2,0.9,0.6,1.2C151.6,174.1,152.2,174.3,152.7,174.2"/>
<polygon class="st1" points="228.2,129.1 228.1,130.5 255.2,162.3 256.2,162.4 256.3,162.3 256.8,161.5 245.2,122.8 243.3,121.5 "/>
<polygon class="st2" points="228.1,130.5 255.2,162.3 256.2,162.4 236.2,132 "/>
<polygon class="st3" points="243.3,121.5 236.4,129.6 239.2,130.8 245.2,122.8 245.2,122.8 "/>
<polygon class="st4" points="228.1,130.5 236.2,132 236.4,129.6 228.2,129.1 "/>
<polygon class="st4" points="239.2,130.8 256.3,162.3 256.8,161.5 245.2,122.8 "/>
<polygon class="st5" points="271.7,120.7 289.2,128.8 289.2,131 260.5,174.6 259.2,174.9 259,174.8 258.6,173.8 270.1,121.6 "/>
<polygon class="st6" points="277.5,132 259.2,174.9 260.5,174.6 289.2,131 "/>
<polygon class="st7" points="270.1,121.6 258.6,173.8 259,174.8 274.2,130.2 "/>
<polygon class="st8" points="276.9,128.9 277.5,132 289.2,131 289.2,128.8 289.2,128.8 "/>
<polygon class="st6" points="270.1,121.6 274.2,130.2 276.9,128.9 271.7,120.7 "/>
<polygon class="st9" points="244.9,108.3 245.6,107 268,106.7 269.5,108.3 258.7,144.1 258.1,144.5 258,144.5 257.3,144 "/>
<polygon class="st10" points="244.9,108.3 253.6,112.6 255.2,110.7 245.6,107 "/>
<polygon class="st11" points="244.9,108.3 257.3,144 258,144.5 253.6,112.6 244.9,108.3 "/>
<polygon class="st10" points="257.8,112.7 258.1,144.5 258.7,144.1 269.5,108.3 "/>
<polygon class="st12" points="268,106.7 255.2,110.7 257.8,112.7 269.5,108.3 268,106.7 "/>
</svg>
