<?xml version="1.0" encoding="utf-8"?>
<!-- Generator: Adobe Illustrator 21.0.0, SVG Export Plug-In . SVG Version: 6.00 Build 0)  -->
<svg version="1.1" id="Layer_1" xmlns="http://www.w3.org/2000/svg" xmlns:xlink="http://www.w3.org/1999/xlink" x="0px" y="0px"
	 viewBox="0 0 300 300" style="enable-background:new 0 0 300 300;" xml:space="preserve">
<style type="text/css">
	.st0{fill:#ED1C24;}
	.st1{fill:#FFFFFF;}
</style>
<title>BSM Logo Guideline</title>
<g>
	<path class="st0" d="M22.8,117.2H75c3.2,0,5.8,2.6,5.8,5.8v52.2c0,3.2-2.6,5.8-5.8,5.8H22.8c-3.2,0-5.8-2.6-5.8-5.8V123
		C17,119.8,19.6,117.2,22.8,117.2z"/>
	<path class="st1" d="M67.4,149.7C67,162.2,56.6,172,44.1,171.6c-11.9-0.4-21.5-10-21.9-21.9h1.1c0.3,9.6,8.4,17.2,18.1,16.8
		c9.1-0.3,16.5-7.7,16.8-16.8H67.4z M77.9,149.7c-0.3,16-13.6,28.8-29.6,28.5c-15.6-0.3-28.2-12.9-28.5-28.5H21
		c0.5,13.1,11.5,23.4,24.7,22.9c12.4-0.5,22.4-10.5,22.9-22.9H77.9z M57,149.7c0,9-7.3,16.3-16.3,16.3s-16.3-7.3-16.3-16.3h1.2
		c0,0.1,0,0.3,0,0.4c0,6.4,5.2,11.6,11.6,11.6c6.4,0,11.6-5.2,11.6-11.6c0-0.1,0-0.3,0-0.4H57z M40.8,148.6c0-9,7.3-16.3,16.3-16.3
		s16.3,7.3,16.3,16.3h-1.2c0-0.1,0-0.3,0-0.4c0-6.4-5.2-11.6-11.6-11.6c-6.4,0-11.6,5.2-11.6,11.6c0,0.1,0,0.3,0,0.4H40.8z
		 M19.8,148.6c0.3-16,13.6-28.8,29.6-28.5c15.6,0.3,28.2,12.9,28.5,28.5h-1.2c-0.5-13.1-11.5-23.4-24.7-22.9
		c-12.4,0.5-22.4,10.5-22.9,22.9H19.8z M30.3,148.6c0.4-12.5,10.8-22.3,23.3-21.9c11.9,0.4,21.5,10,21.9,21.9h-1.1
		c-0.3-9.6-8.4-17.2-18.1-16.8c-9.1,0.3-16.5,7.7-16.8,16.8H30.3z"/>
	<path class="st1" d="M93.7,128.1c-0.1,1,0.1,2,0.6,2.9c0.5,0.8,1.4,1.3,2.3,1.3c0.8,0,1.5-0.3,1.9-0.9c0.6-0.9,0.9-1.9,0.8-3
		c0.1-1.1-0.2-2.2-0.8-3.1c-0.5-0.6-1.2-1-2-1c-0.8,0-1.5,0.3-2,0.9C93.9,126.1,93.6,127.1,93.7,128.1z M106.9,125.9l-3.1-0.6
		c0.3-1.1,0.9-2.1,1.8-2.7c1.1-0.7,2.5-1,3.8-0.9c1.2-0.1,2.3,0.1,3.4,0.5c0.7,0.3,1.2,0.7,1.6,1.4c0.4,1,0.5,2,0.5,3v3.9
		c0,0.8,0,1.7,0.2,2.5c0.1,0.6,0.3,1.2,0.6,1.7h-3.4c-0.1-0.2-0.2-0.6-0.3-1c-0.1-0.2-0.1-0.3-0.1-0.4c-0.5,0.5-1.2,1-1.9,1.3
		c-0.7,0.3-1.4,0.4-2.1,0.4c-1.1,0.1-2.3-0.3-3.1-1.1c-1.2-1.2-1.5-3.1-0.6-4.6c0.4-0.5,0.9-1,1.5-1.2c0.9-0.4,1.8-0.6,2.7-0.8
		c1.1-0.2,2.2-0.4,3.3-0.8v-0.3c0.1-0.5-0.1-1-0.5-1.4c-0.5-0.3-1.2-0.5-1.8-0.4C108.1,124.2,107.2,124.9,106.9,125.9L106.9,125.9z
		 M111.4,128.6c-0.7,0.2-1.4,0.4-2.1,0.5c-0.6,0.1-1.3,0.3-1.8,0.6c-0.4,0.3-0.7,0.7-0.7,1.2c0,0.5,0.2,0.9,0.5,1.2
		c0.4,0.3,0.8,0.5,1.4,0.5c0.6,0,1.2-0.2,1.8-0.6c0.4-0.3,0.7-0.7,0.8-1.1c0.1-0.5,0.2-1.1,0.1-1.6L111.4,128.6z M128.6,134.7h-3.4
		v-6.4c0-0.9,0-1.8-0.2-2.7c-0.1-0.4-0.4-0.7-0.7-0.9c-0.3-0.2-0.7-0.3-1.1-0.3c-0.6,0-1.1,0.2-1.6,0.5c-0.5,0.3-0.8,0.8-1,1.3
		c-0.2,1-0.3,1.9-0.3,2.9v5.8H117v-12.7h3.2v1.9c1-1.4,2.6-2.2,4.2-2.2c0.7,0,1.4,0.1,2.1,0.4c0.5,0.2,1,0.6,1.4,1
		c0.3,0.4,0.5,0.9,0.7,1.4c0.1,0.7,0.2,1.5,0.2,2.3L128.6,134.7z M130.7,134.7v-17.5h3.4v9.3l4.1-4.4h4.2l-4.4,4.6l4.7,8h-3.7
		l-3.2-5.7l-1.6,1.6v4.1L130.7,134.7z M90.3,134.7v-17.5h3.4v6.3c0.9-1.1,2.3-1.8,3.7-1.8c1.5,0,2.9,0.6,3.9,1.7
		c1.1,1.4,1.7,3.1,1.5,4.8c0.1,1.8-0.4,3.6-1.6,5c-0.9,1.1-2.3,1.8-3.8,1.8c-0.7,0-1.5-0.2-2.1-0.6c-0.7-0.4-1.4-0.9-1.8-1.6v1.9
		H90.3z"/>
	<path class="st1" d="M260.2,167.4l6.8-1c0.2,1.2,0.8,2.2,1.7,3c1.1,0.7,2.4,1.1,3.7,1c1.4,0.1,2.7-0.2,3.9-1
		c0.6-0.4,0.9-1.1,0.9-1.8c0-0.5-0.2-0.9-0.5-1.3c-0.7-0.5-1.4-0.8-2.3-0.9c-5.4-1.2-8.9-2.3-10.3-3.3c-1.9-1.2-3.1-3.4-3-5.7
		c0-2.2,0.9-4.2,2.6-5.5c1.7-1.5,4.4-2.3,8.1-2.3c3.5,0,6.1,0.6,7.8,1.7c1.7,1.2,3,3,3.5,5l-6.3,1.1c-0.2-0.9-0.8-1.7-1.6-2.3
		c-1-0.6-2.1-0.9-3.2-0.8c-1.3-0.1-2.6,0.2-3.8,0.7c-0.5,0.3-0.8,0.8-0.8,1.4c0,0.5,0.3,0.9,0.7,1.2c0.6,0.5,2.7,1.1,6.3,1.9
		c3.6,0.8,6.1,1.8,7.5,3c1.4,1.3,2.2,3.1,2.1,5c0,2.4-1.1,4.6-3,6.1c-2,1.7-4.8,2.5-8.6,2.5c-2.9,0.2-5.8-0.6-8.2-2.1
		C262.2,171.8,260.8,169.7,260.2,167.4z M251.8,162.4c-1.3,0.4-2.7,0.8-4.1,1c-1.3,0.2-2.5,0.6-3.7,1.1c-0.8,0.5-1.3,1.4-1.3,2.4
		c0,0.9,0.4,1.8,1.1,2.4c0.7,0.7,1.7,1.1,2.7,1c1.3,0,2.5-0.4,3.5-1.2c0.8-0.5,1.3-1.3,1.6-2.3c0.2-1.1,0.3-2.2,0.3-3.3V162.4z
		 M242.8,157l-6.1-1.1c0.5-2.2,1.8-4.1,3.5-5.5c1.7-1.2,4.2-1.8,7.5-1.8c2.3-0.1,4.6,0.3,6.8,1.1c1.3,0.5,2.4,1.5,3.1,2.7
		c0.6,1.1,0.9,3.1,0.9,6l-0.1,7.9c0,1.7,0.1,3.3,0.3,5c0.3,1.2,0.7,2.3,1.2,3.4h-6.6c-0.2-0.4-0.4-1.1-0.6-2
		c-0.1-0.4-0.2-0.7-0.2-0.8c-1.1,1.1-2.3,1.9-3.7,2.5c-1.3,0.6-2.7,0.8-4.2,0.8c-2.3,0.1-4.5-0.6-6.2-2.1c-2.5-2.4-3-6.2-1.2-9.2
		c0.7-1.1,1.7-2,2.9-2.6c1.7-0.7,3.5-1.3,5.4-1.6c2.2-0.3,4.4-0.9,6.5-1.7v-0.7c0.1-1-0.2-2-1-2.8c-1.1-0.7-2.3-1-3.6-0.8
		c-1-0.1-2,0.2-2.8,0.7C243.7,155.2,243.1,156,242.8,157L242.8,157z M196.2,149.2h6.2v3.5c1.9-2.5,4.8-4,7.9-4c1.5,0,2.9,0.3,4.2,1
		c1.2,0.7,2.3,1.8,2.9,3c1-1.2,2.2-2.3,3.6-3c1.3-0.7,2.7-1,4.1-1c1.7-0.1,3.3,0.3,4.7,1.1c1.3,0.8,2.3,2,2.9,3.4
		c0.6,1.7,0.8,3.5,0.7,5.3v16.2h-6.8v-14.6c0-2.5-0.2-4.1-0.7-4.9c-0.6-1-1.7-1.5-2.9-1.4c-1,0-1.9,0.3-2.7,0.9
		c-0.9,0.6-1.5,1.5-1.8,2.5c-0.4,1.7-0.6,3.5-0.6,5.2v12.2h-6.8v-13.9c0.1-1.6,0-3.2-0.4-4.8c-0.2-0.6-0.6-1.2-1.1-1.6
		c-0.6-0.4-1.3-0.6-2-0.5c-1,0-2,0.3-2.8,0.8c-0.8,0.6-1.4,1.4-1.7,2.4c-0.4,1.7-0.6,3.5-0.5,5.2v12.4h-6.8L196.2,149.2z
		 M185.8,174.6H179v-25.4h6.2v3.6c0.7-1.3,1.7-2.5,2.9-3.4c0.9-0.5,1.9-0.8,2.9-0.8c1.6,0,3.1,0.4,4.5,1.3l-2.1,5.9
		c-0.9-0.7-2-1.1-3.2-1.1c-0.9,0-1.7,0.3-2.4,0.8c-0.8,0.8-1.3,1.7-1.6,2.8c-0.5,2.8-0.7,5.7-0.6,8.5L185.8,174.6z M169.3,162.4
		c-1.3,0.4-2.7,0.8-4.1,1c-1.3,0.2-2.5,0.6-3.7,1.1c-0.8,0.5-1.3,1.4-1.3,2.4c0,0.9,0.4,1.8,1.1,2.4c0.7,0.7,1.7,1.1,2.7,1
		c1.3,0,2.5-0.4,3.5-1.2c0.8-0.5,1.3-1.3,1.6-2.3c0.2-1.1,0.3-2.2,0.3-3.3V162.4z M160.3,157l-6.1-1.1c0.5-2.2,1.8-4.1,3.5-5.5
		c1.7-1.2,4.2-1.8,7.5-1.8c2.3-0.1,4.6,0.3,6.8,1.1c1.3,0.5,2.4,1.5,3.1,2.7c0.6,1.1,0.9,3.1,0.9,6l-0.1,7.9c0,1.7,0.1,3.3,0.3,5
		c0.3,1.2,0.7,2.3,1.2,3.4h-6.6c-0.2-0.4-0.4-1.1-0.6-2c-0.1-0.4-0.2-0.7-0.2-0.8c-1.1,1.1-2.3,1.9-3.7,2.5
		c-1.3,0.6-2.7,0.8-4.2,0.8c-2.3,0.1-4.5-0.6-6.2-2.1c-2.5-2.4-3-6.2-1.2-9.2c0.7-1.1,1.7-2,2.9-2.6c1.7-0.7,3.5-1.3,5.4-1.6
		c2.2-0.3,4.4-0.9,6.5-1.7v-0.7c0.1-1-0.2-2-1-2.8c-1.1-0.7-2.3-1-3.6-0.8c-1-0.1-2,0.2-2.8,0.7C161.2,155.2,160.6,156,160.3,157
		L160.3,157z M150.9,174.6h-6.8v-13c0.1-1.8,0-3.6-0.4-5.3c-0.3-0.8-0.7-1.4-1.4-1.9c-0.7-0.5-1.5-0.7-2.3-0.7c-1.1,0-2.2,0.3-3.1,1
		c-0.9,0.6-1.6,1.5-1.9,2.5c-0.4,1.9-0.6,3.9-0.5,5.8v11.5h-6.8v-25.4h6.2v3.7c1.9-2.7,5-4.3,8.4-4.3c1.4,0,2.8,0.3,4.1,0.8
		c1.1,0.4,2,1.1,2.8,2c0.7,0.8,1.1,1.8,1.4,2.8c0.3,1.5,0.4,3,0.4,4.5L150.9,174.6z M116.6,174.6v-25.4h6.8v25.4H116.6z
		 M116.6,145.8v-6.2h6.8v6.2L116.6,145.8z M89.4,167.4l6.8-1c0.2,1.2,0.8,2.3,1.7,3c1.1,0.7,2.4,1.1,3.7,1c1.4,0.1,2.7-0.3,3.9-1
		c0.6-0.4,0.9-1.1,0.9-1.8c0-0.5-0.2-0.9-0.5-1.3c-0.7-0.5-1.4-0.8-2.3-0.9c-5.4-1.2-8.9-2.3-10.3-3.3c-1.9-1.2-3.1-3.4-3-5.7
		c0-2.2,0.9-4.2,2.6-5.5c1.7-1.5,4.4-2.3,8.1-2.3c3.5,0,6.1,0.6,7.8,1.7c1.7,1.2,3,3,3.5,5l-6.3,1.1c-0.2-0.9-0.8-1.7-1.6-2.3
		c-1-0.6-2.1-0.9-3.2-0.8c-1.3-0.1-2.6,0.2-3.8,0.7c-0.5,0.3-0.8,0.8-0.8,1.4c0,0.5,0.3,0.9,0.7,1.2c0.6,0.5,2.7,1.1,6.3,1.9
		c3.6,0.8,6.1,1.8,7.5,3c1.4,1.3,2.2,3.1,2.1,5c0,2.3-1.1,4.6-2.9,6c-1.9,1.7-4.8,2.5-8.6,2.5c-2.9,0.2-5.8-0.6-8.2-2.1
		C91.4,171.7,90,169.7,89.4,167.4z"/>
</g>
</svg>
