<svg xmlns="http://www.w3.org/2000/svg" width="12" height="13" fill="none" viewBox="0 0 12 13">
    <path fill="#5E5E5E" fill-rule="evenodd" d="M11.5 5.88H1.432L6.271.89c.095-.1.148-.231.148-.369 0-.137-.053-.269-.148-.368-.046-.048-.1-.087-.162-.113C6.047.014 5.98 0 5.914 0c-.066 0-.132.014-.194.04-.061.026-.117.065-.163.113L.351 5.523C.126 5.76 0 6.073 0 6.4c0 .327.126.641.351.877l5.206 5.37c.046.049.102.087.163.114.062.026.128.04.194.04.067 0 .133-.014.195-.04.061-.027.116-.065.162-.113.095-.1.148-.231.148-.368 0-.138-.053-.27-.148-.368l-4.838-4.99H11.5c.134-.006.261-.064.354-.16.093-.098.145-.227.145-.361 0-.134-.052-.263-.145-.36-.093-.097-.22-.155-.354-.16z" clip-rule="evenodd"/>
</svg>
