<svg xmlns="http://www.w3.org/2000/svg" width="17" height="19" fill="none" viewBox="0 0 17 19">
    <path fill="#00ACF0" d="M16.137 9H2.013L8.8 2.209c.072-.064.129-.143.17-.23.04-.087.061-.181.063-.277.003-.096-.014-.192-.05-.28-.036-.09-.089-.17-.157-.239-.068-.068-.149-.121-.238-.157-.089-.035-.184-.052-.28-.05-.096.002-.19.024-.278.064-.087.04-.165.098-.23.169L.493 8.516C.177 8.833 0 9.262 0 9.709c0 .448.177.877.493 1.194L7.8 18.209c.135.122.312.187.493.183.182-.005.355-.08.483-.207.128-.129.203-.302.207-.483.005-.182-.06-.358-.183-.493l-6.787-6.792h14.124c.183-.007.356-.085.483-.217.128-.132.199-.308.199-.492 0-.183-.071-.36-.198-.491-.128-.132-.301-.21-.484-.217z"/>
</svg>
