<svg xmlns="http://www.w3.org/2000/svg" width="60" height="60" fill="none" viewBox="0 0 60 60">
    <path fill="#A480CF" d="M30 0c5.933 0 11.734 1.76 16.667 5.056 4.934 3.296 8.779 7.982 11.05 13.463 2.27 5.482 2.864 11.514 1.706 17.334-1.157 5.82-4.014 11.165-8.21 15.36-4.195 4.196-9.54 7.053-15.36 8.21-5.82 1.158-11.852.564-17.334-1.707-5.481-2.27-10.167-6.115-13.463-11.049C1.759 41.734 0 35.933 0 30c0-7.956 3.16-15.587 8.787-21.213C14.413 3.16 22.044 0 30 0z" opacity=".16"/>
    <g opacity=".01">
        <path fill="url(#paint0_linear)" d="M51 9H9v42h42V9z" opacity=".01"/>
        <path stroke="#707070" d="M50.25 9.75H9.75v40.5h40.5V9.75z" opacity=".01"/>
    </g>
    <path fill="url(#paint1_linear)" d="M36.018 47.5c-.34-.011-.663-.154-.9-.399-.236-.244-.366-.57-.366-.91 0-.341.13-.668.366-.912.236-.245.56-.388.9-.4h6.468c.637 0 1.25-.252 1.7-.702.45-.45.703-1.06.703-1.697v-6.476c0-.347.135-.68.38-.925.246-.246.579-.384.926-.384.348 0 .683.138.929.383.246.246.38.579.38.926v6.476c0 1.329-.527 2.603-1.467 3.543-.94.94-2.216 1.47-3.545 1.471l-6.474.006zm-18.501 0c-1.33-.001-2.603-.53-3.542-1.47-.94-.941-1.466-2.215-1.465-3.544V36.01c0-.171.034-.341.1-.5.065-.158.162-.302.284-.423.12-.122.263-.218.421-.284.159-.066.33-.1.501-.1.172 0 .343.034.501.1.159.066.3.162.422.284.122.12.219.265.284.423.066.159.1.329.1.5v6.476c0 .636.253 1.247.703 1.697.45.45 1.06.703 1.697.703h6.474c.34.011.66.154.897.399.236.244.369.57.369.91 0 .34-.133.668-.37.912-.236.245-.556.388-.896.4l-6.48-.007zm3.029-4.567c-.81.025-1.597-.271-2.189-.825-.591-.553-.938-1.319-.966-2.129V35.89c.028-.81.375-1.575.966-2.129.592-.553 1.379-.85 2.189-.824h4.371c.81-.025 1.597.272 2.188.825.592.554.94 1.319.97 2.128v4.09c-.03.809-.378 1.574-.97 2.127-.591.554-1.378.85-2.188.826h-4.371zm-.54-7.05v4.089c.003.068.02.135.048.197s.07.118.12.164c.05.047.109.083.173.106.064.024.13.035.199.032h4.371c.137.005.272-.045.372-.139.1-.093.159-.223.164-.36v-4.09c-.002-.067-.019-.134-.047-.196s-.067-.118-.117-.164c-.05-.046-.11-.082-.173-.106-.064-.024-.131-.035-.199-.033h-4.371c-.069-.003-.138.008-.202.032-.065.025-.123.061-.173.108-.05.048-.092.104-.12.167-.028.063-.043.131-.044.2v-.007zm14.99 6.421c-.399 0-.78-.158-1.061-.439-.282-.281-.44-.663-.44-1.06v-5.068c0-.398.158-.779.44-1.06.28-.282.662-.44 1.06-.44h5.074c.398 0 .782.158 1.064.44.281.281.436.663.436 1.06v5.067c0 .398-.155.78-.436 1.061-.282.281-.666.44-1.064.44h-5.074zm-20.26-11.466c-.34-.011-.66-.154-.896-.399-.236-.244-.37-.57-.37-.91 0-.34.133-.668.37-.912.236-.245.556-.388.896-.4h29.605c.34.012.663.155.9.4.236.244.365.571.365.911 0 .34-.13.667-.366.911-.236.245-.56.388-.9.4H14.737zm20.608-3.961c-.811.024-1.6-.273-2.192-.828-.592-.555-.939-1.322-.967-2.133v-4.082c.03-.81.379-1.574.97-2.128.592-.553 1.379-.85 2.189-.825h4.37c.811-.025 1.6.271 2.192.824.593.554.942 1.319.973 2.13v4.08c-.03.812-.377 1.58-.97 2.134-.593.555-1.383.852-2.194.828h-4.371zm-.536-7.05v4.081c.004.139.063.27.164.364.1.095.233.147.372.143h4.37c.07.002.139-.009.203-.033s.123-.061.173-.109c.05-.047.09-.103.117-.166.028-.063.042-.13.044-.199v-4.081c-.002-.069-.016-.136-.044-.199-.028-.063-.067-.12-.117-.166-.05-.047-.109-.084-.173-.109-.064-.024-.134-.036-.202-.033h-4.371c-.07-.002-.14.01-.205.035-.065.026-.123.064-.173.112-.05.049-.09.107-.117.171-.027.065-.041.134-.041.204v-.015zm-14.262 7.05c-.811.025-1.6-.273-2.191-.828-.592-.555-.937-1.322-.964-2.133v-4.082c.028-.81.375-1.575.966-2.129.592-.553 1.379-.85 2.189-.824h4.371c.81-.025 1.597.272 2.188.825.592.554.94 1.319.97 2.128v4.082c-.027.81-.375 1.578-.967 2.133-.591.555-1.38.852-2.191.828h-4.371zm-.54-7.05v4.081c.006.139.067.27.168.365.1.095.233.146.372.142h4.371c.138.003.272-.048.372-.143.1-.095.16-.226.164-.364v-4.081c-.004-.138-.064-.27-.164-.364-.1-.095-.234-.146-.372-.143h-4.371c-.07-.002-.14.01-.205.035-.065.026-.123.063-.173.112-.05.049-.093.107-.12.171-.028.065-.04.134-.041.204v-.015zm24.874 4.15v-6.46c0-.635-.25-1.243-.697-1.693-.448-.45-1.056-.704-1.69-.707H36.02c-.347 0-.683-.138-.928-.384-.246-.246-.384-.58-.384-.927 0-.347.138-.68.384-.926.245-.246.581-.384.928-.384h6.472c1.328.003 2.6.533 3.54 1.472.938.94 1.465 2.213 1.467 3.541v6.476c0 .347-.138.68-.384.926-.245.245-.578.383-.926.383-.347 0-.68-.138-.925-.383-.246-.246-.384-.579-.384-.926v-.008zm-32.37 0v-6.46c0-1.329.529-2.603 1.467-3.543.94-.94 2.214-1.469 3.543-1.47h6.471c.348 0 .683.138.929.384.246.245.384.579.384.926 0 .348-.138.68-.384.927-.246.245-.581.383-.929.383H17.52c-.637 0-1.25.253-1.7.703-.45.45-.703 1.06-.703 1.697V24c0 .346-.136.678-.38.924-.246.245-.58.382-.927.382-.346 0-.677-.137-.922-.383-.245-.245-.384-.577-.384-.923l.006-.023z"/>
    <defs>
        <linearGradient id="paint0_linear" x1="30" x2="30" y1="9" y2="51" gradientUnits="userSpaceOnUse">
            <stop stop-color="#FFBEA2"/>
            <stop offset="1" stop-color="#F08A5D"/>
        </linearGradient>
        <linearGradient id="paint1_linear" x1="30.004" x2="30.004" y1="12.496" y2="47.506" gradientUnits="userSpaceOnUse">
            <stop stop-color="#CBA9F4"/>
            <stop offset="1" stop-color="#A480CF"/>
        </linearGradient>
    </defs>
</svg>
