<svg xmlns="http://www.w3.org/2000/svg" width="52" height="52" fill="none" viewBox="0 0 52 52">
    <path fill="#000" d="M26.001 51.4c14.139 0 25.6-11.462 25.6-25.6 0-14.138-11.461-25.6-25.6-25.6C11.863.2.401 11.662.401 25.8c0 14.138 11.462 25.6 25.6 25.6z"/>
    <path fill="#fff" d="M26.001 51.4c14.139 0 25.6-11.462 25.6-25.6 0-14.138-11.461-25.6-25.6-25.6C11.863.2.401 11.662.401 25.8c0 14.138 11.462 25.6 25.6 25.6z"/>
    <path fill="url(#paint0_linear)" fill-rule="evenodd" d="M19.6 27.4c0 1.371.407 2.712 1.169 3.852.762 1.14 1.845 2.028 3.111 2.553 1.267.525 2.661.662 4.006.395 1.345-.268 2.58-.928 3.55-1.898.97-.97 1.63-2.205 1.897-3.55.267-1.344.13-2.738-.395-4.005-.524-1.267-1.413-2.35-2.553-3.111-1.14-.762-2.48-1.169-3.852-1.169-1.838 0-3.602.73-4.902 2.03-1.3 1.3-2.03 3.064-2.03 4.903zm3.212.286c-.057-.736.107-1.473.469-2.116.362-.644.907-1.166 1.566-1.5.66-.333 1.402-.464 2.135-.375.734.089 1.424.393 1.984.875.56.48.965 1.117 1.163 1.83.199.71.181 1.465-.05 2.167-.23.701-.664 1.319-1.245 1.774-.582.455-1.286.727-2.022.782-.098 0-.194.011-.29.011-.94 0-1.845-.357-2.534-.996-.69-.639-1.112-1.514-1.184-2.452" clip-rule="evenodd"/>
    <path fill="#00ACF0" fill-rule="evenodd" d="M26 .2c-3.362-.007-6.692.648-9.8 1.928-3.11 1.28-5.935 3.16-8.318 5.532C3.072 12.45.36 18.956.346 25.746c-.015 6.79 2.669 13.306 7.46 18.118 4.79 4.81 11.296 7.522 18.085 7.536h.218c6.79-.014 13.295-2.725 18.086-7.536 4.79-4.812 7.474-11.329 7.46-18.118-.015-6.79-2.726-13.296-7.537-18.086C39.307 2.869 32.79.186 26 .2zm11.2 17.6h-2.894c-.35 0-.697-.068-1.02-.202-.324-.134-.617-.33-.865-.577l-1.106-1.107c-.5-.5-1.178-.78-1.884-.78h-5.792c-.35 0-.697.069-1.02.202-.324.134-.618.33-.865.578l-1.107 1.107c-.248.247-.542.443-.865.577-.324.134-.67.202-1.02.202h-2.895c-.707 0-1.385.281-1.886.781-.5.5-.78 1.179-.78 1.886V33.8c0 .35.068.697.202 1.02.134.324.33.618.578.866.248.248.542.444.866.578.323.134.67.203 1.02.203H37.2c.35 0 .697-.069 1.02-.203.325-.134.619-.33.866-.578.248-.248.444-.542.578-.865.134-.324.203-.67.203-1.021V20.467c0-.35-.069-.697-.203-1.02-.134-.324-.33-.618-.578-.866-.247-.247-.541-.444-.865-.578-.324-.134-.67-.203-1.02-.203z" clip-rule="evenodd"/>
    <defs>
        <linearGradient id="paint0_linear" x1="26.533" x2="26.533" y1="1.041" y2="51.706" gradientUnits="userSpaceOnUse">
            <stop stop-color="#00ACF0"/>
            <stop offset="1" stop-color="#0694C9"/>
        </linearGradient>
    </defs>
</svg>
