<svg xmlns="http://www.w3.org/2000/svg" width="16" height="16" fill="none" viewBox="0 0 16 16">
    <path fill="#05DB74" d="M8 16c4.418 0 8-3.582 8-8s-3.582-8-8-8-8 3.582-8 8 3.582 8 8 8z"/>
    <path fill="#fff" d="M6.987 12.013c-.047.047-.103.085-.164.11-.061.025-.127.038-.194.038-.066 0-.132-.013-.193-.038s-.117-.063-.164-.11l-2.85-2.852c-.141-.141-.22-.333-.22-.533s.079-.391.22-.533l.357-.358c.142-.14.333-.22.533-.22s.392.08.533.22l1.786 1.776 4.81-4.809c.141-.14.333-.22.532-.22.2 0 .392.08.534.22l.363.356c.14.142.22.334.22.533 0 .2-.08.392-.22.534l-5.883 5.886z"/>
</svg>
