<svg width="20" height="20" viewBox="0 0 20 20" fill="none" xmlns="http://www.w3.org/2000/svg">
<path d="M10 20C8.02219 20 6.08879 19.4135 4.4443 18.3147C2.79981 17.2159 1.51809 15.6541 0.761209 13.8268C0.00433284 11.9996 -0.193701 9.98891 0.192152 8.0491C0.578004 6.10929 1.53041 4.32746 2.92894 2.92894C4.32746 1.53041 6.10929 0.578004 8.0491 0.192152C9.98891 -0.193701 11.9996 0.00433284 13.8268 0.761209C15.6541 1.51809 17.2159 2.79981 18.3147 4.4443C19.4135 6.08879 20 8.02219 20 10C20 12.6522 18.9464 15.1957 17.0711 17.0711C15.1957 18.9464 12.6522 20 10 20Z" fill="#00ACF0"/>
<path d="M4.37495 10.231L4.91895 9.68696C5.05265 9.55335 5.23393 9.4783 5.42295 9.4783C5.61197 9.4783 5.79325 9.55335 5.92695 9.68696L7.92695 11.687L13.7769 5.83696C13.9106 5.70335 14.0919 5.6283 14.2809 5.6283C14.47 5.6283 14.6512 5.70335 14.7849 5.83696L15.3289 6.38096C15.4626 6.51466 15.5376 6.69594 15.5376 6.88496C15.5376 7.07398 15.4626 7.25526 15.3289 7.38896L8.42895 14.289C8.29525 14.4226 8.11397 14.4976 7.92495 14.4976C7.73593 14.4976 7.55465 14.4226 7.42095 14.289L4.37395 11.242C4.24034 11.1083 4.16528 10.927 4.16528 10.738C4.16528 10.5489 4.24034 10.3677 4.37395 10.234L4.37495 10.231Z" fill="white"/>
</svg>
