<svg xmlns="http://www.w3.org/2000/svg" width="16" height="16" fill="none" viewBox="0 0 16 16">
    <path fill="#ABABAB" fill-rule="evenodd" d="M8 11.2c-.168 0-.333-.038-.486-.107-.152-.07-.288-.172-.4-.298L2.868 6.091c-.128-.148-.199-.337-.199-.533s.07-.386.2-.534c.06-.068.133-.122.216-.16.083-.037.173-.056.263-.056.091 0 .181.02.264.056.082.038.156.092.216.16L8 9.64l4.169-4.617c.06-.068.134-.122.216-.16.083-.037.173-.056.264-.056.09 0 .18.019.263.056.083.038.157.092.217.16.128.148.199.338.199.534s-.07.385-.2.533l-4.242 4.706c-.111.126-.247.228-.4.298-.152.07-.318.106-.486.107z" clip-rule="evenodd"/>
</svg>
