<svg width="8" height="8" viewBox="0 0 8 8" fill="none" xmlns="http://www.w3.org/2000/svg">
<path d="M5.10001 4.00198L7.16701 1.93898C7.22122 1.88484 7.26423 1.82053 7.29357 1.74975C7.32292 1.67897 7.33802 1.6031 7.33802 1.52648C7.33802 1.44986 7.32292 1.37399 7.29357 1.30321C7.26423 1.23243 7.22122 1.16813 7.16701 1.11398L6.88801 0.838982C6.83386 0.784769 6.76956 0.74176 6.69878 0.712417C6.628 0.683073 6.55213 0.667969 6.47551 0.667969C6.39888 0.667969 6.32301 0.683073 6.25223 0.712417C6.18145 0.74176 6.11715 0.784769 6.06301 0.838982L4.00101 2.90198L1.93801 0.838982C1.88386 0.784769 1.81956 0.74176 1.74878 0.712417C1.678 0.683073 1.60213 0.667969 1.52551 0.667969C1.44888 0.667969 1.37301 0.683073 1.30223 0.712417C1.23145 0.74176 1.16715 0.784769 1.11301 0.838982L0.838006 1.11398C0.783792 1.16813 0.740784 1.23243 0.71144 1.30321C0.682096 1.37399 0.666992 1.44986 0.666992 1.52648C0.666992 1.6031 0.682096 1.67897 0.71144 1.74975C0.740784 1.82053 0.783792 1.88484 0.838006 1.93898L2.90101 4.00198L0.838006 6.06798C0.783792 6.12213 0.740784 6.18643 0.71144 6.25721C0.682096 6.32799 0.666992 6.40386 0.666992 6.48048C0.666992 6.5571 0.682096 6.63297 0.71144 6.70375C0.740784 6.77454 0.783792 6.83884 0.838006 6.89298L1.11301 7.16798C1.16715 7.2222 1.23145 7.2652 1.30223 7.29455C1.37301 7.32389 1.44888 7.339 1.52551 7.339C1.60213 7.339 1.678 7.32389 1.74878 7.29455C1.81956 7.2652 1.88386 7.2222 1.93801 7.16798L4.00101 5.10098L6.06701 7.16798C6.12115 7.2222 6.18545 7.2652 6.25623 7.29455C6.32701 7.32389 6.40288 7.339 6.47951 7.339C6.55613 7.339 6.632 7.32389 6.70278 7.29455C6.77356 7.2652 6.83786 7.2222 6.89201 7.16798L7.16701 6.88898C7.22122 6.83484 7.26423 6.77053 7.29357 6.69975C7.32292 6.62897 7.33802 6.5531 7.33802 6.47648C7.33802 6.39986 7.32292 6.32399 7.29357 6.25321C7.26423 6.18243 7.22122 6.11813 7.16701 6.06398L5.10001 4.00198Z" fill="#E4E4E4"/>
</svg>
