<svg xmlns="http://www.w3.org/2000/svg" width="60" height="60" fill="none" viewBox="0 0 60 60">
    <path fill="#7B43F5" d="M30 0c5.933 0 11.734 1.76 16.667 5.056 4.934 3.296 8.779 7.982 11.05 13.463 2.27 5.482 2.864 11.514 1.706 17.334-1.157 5.82-4.014 11.165-8.21 15.36-4.195 4.196-9.54 7.053-15.36 8.21-5.82 1.158-11.852.564-17.334-1.707-5.481-2.27-10.167-6.115-13.463-11.049C1.759 41.734 0 35.933 0 30c0-7.956 3.16-15.587 8.787-21.213C14.413 3.16 22.044 0 30 0z" opacity=".1"/>
    <path fill="url(#paint0_linear)" d="M10.313 49.768c-.37 0-.735-.072-1.076-.214-.342-.14-.652-.348-.913-.609s-.469-.57-.61-.912c-.141-.34-.214-.706-.214-1.076V21.652c.366-4.024.705-1.78 34.611-11.323.357-.097.73-.122 1.096-.074.367.048.721.168 1.041.352.321.185.601.43.827.724.225.293.39.628.486.985l1.75 6.527h2.363c.37 0 .734.072 1.075.213.342.14.652.348.913.61.261.26.469.57.61.91.142.341.215.707.215 1.076v25.305c0 .746-.297 1.461-.825 1.988-.527.527-1.242.823-1.988.823H10.313z"/>
    <path fill="#fff" d="M43.38 37.845c.561.375 1.239.536 1.909.453.67-.082 1.288-.403 1.741-.903.454-.5.712-1.147.73-1.822.016-.675-.21-1.333-.64-1.855-.427-.522-1.03-.873-1.694-.988-.666-.115-1.35.012-1.93.36-.578.346-1.013.89-1.225 1.531-.212.641-.186 1.337.072 1.96.213.515.574.954 1.037 1.264z"/>
    <path fill="#fff" d="M43.521 34.688h8.972v2.129H43.52c-.275-.01-.536-.127-.727-.325-.191-.199-.298-.464-.298-.74 0-.275.107-.54.298-.738.191-.199.452-.315.727-.326zM32.602 37.899c.116-.004.23.02.334.069.105.049.196.122.267.213.161.219.242.486.227.758-.015.243-.098.478-.24.677-.141.199-.335.354-.56.449-.527.288-1.086.51-1.667.66-.58.16-1.179.243-1.78.247-.74.04-1.48-.07-2.175-.323-.696-.253-1.334-.643-1.875-1.148-.513-.533-.91-1.165-1.168-1.858-.258-.693-.372-1.431-.332-2.17-.02-.998.203-1.986.649-2.88.41-.812 1.045-1.49 1.83-1.95.812-.468 1.736-.707 2.673-.692.872-.021 1.732.196 2.49.628.712.42 1.286 1.037 1.653 1.778.406.84.607 1.766.585 2.7 0 .62-.274.931-.822.931h-6.389c.012.81.311 1.589.845 2.197.283.25.612.44.969.561.357.12.734.17 1.11.143.414.007.827-.051 1.223-.172.408-.138.808-.297 1.2-.477.29-.18.615-.297.953-.341zm-3.75-6.04c-.325-.015-.65.04-.953.159-.303.12-.578.301-.806.534-.48.556-.758 1.258-.79 1.992h4.892c.024-.724-.207-1.433-.652-2.003-.214-.23-.476-.411-.767-.529-.291-.118-.605-.17-.919-.153h-.005z"/>
    <defs>
        <linearGradient id="paint0_linear" x1="29.993" x2="29.993" y1="10.231" y2="49.768" gradientUnits="userSpaceOnUse">
            <stop stop-color="#A886F9"/>
            <stop offset=".961" stop-color="#793FF5"/>
            <stop offset="1" stop-color="#A983FA"/>
        </linearGradient>
    </defs>
</svg>
