<svg xmlns="http://www.w3.org/2000/svg" width="260" height="171" fill="none" viewBox="0 0 260 171">
    <path fill="#ECF6FF" d="M180.995 167.772H85.192c-.884.001-1.76-.172-2.577-.509s-1.56-.831-2.185-1.454c-.626-.624-1.122-1.364-1.46-2.178-.34-.815-.514-1.688-.515-2.57V64.557c0-.618.123-1.23.36-1.8.238-.572.585-1.09 1.024-1.527l41.357-41.206c.887-.882 2.088-1.378 3.34-1.378h56.459c.884 0 1.759.173 2.577.51.817.337 1.559.83 2.185 1.454.625.623 1.122 1.363 1.461 2.178.338.814.513 1.688.513 2.57v135.699c0 .882-.174 1.756-.512 2.571-.339.815-.835 1.555-1.461 2.179-.626.624-1.368 1.118-2.186 1.456-.817.337-1.693.51-2.577.509z"/>
    <path fill="#13637B" d="M180.996 170.002H85.193c-2.38-.001-4.662-.943-6.346-2.62-1.683-1.677-2.632-3.951-2.637-6.325V64.559c-.001-.912.178-1.815.527-2.657.349-.842.86-1.608 1.507-2.252l41.366-41.206c.646-.647 1.414-1.159 2.26-1.508.846-.348 1.753-.526 2.668-.524h56.458c2.378.002 4.659.945 6.342 2.622 1.683 1.676 2.631 3.95 2.636 6.323v135.712c-.008 2.37-.957 4.641-2.64 6.316-1.683 1.674-3.962 2.615-6.338 2.617zm-56.461-149.12c-.324-.002-.646.06-.946.184-.3.124-.573.306-.802.536l-41.36 41.206c-.23.229-.412.501-.536.8-.124.3-.187.622-.186.946v96.515c.004 1.186.48 2.322 1.322 3.159.842.837 1.983 1.307 3.172 1.307h95.797c1.188 0 2.328-.47 3.17-1.307.841-.838 1.316-1.974 1.319-3.159V25.361c-.003-1.186-.478-2.322-1.319-3.16-.842-.836-1.982-1.307-3.17-1.307l-56.461-.013z"/>
    <path fill="#43CAFF" d="M81.038 63.365h35.966c.884.001 1.76-.172 2.577-.509s1.56-.83 2.186-1.454c.625-.623 1.122-1.363 1.46-2.178.339-.815.514-1.688.514-2.57V19.596c0-.186-.056-.369-.16-.523-.104-.155-.252-.276-.425-.347-.172-.071-.362-.09-.546-.053-.183.036-.352.126-.484.258L80.372 61.757c-.132.132-.222.3-.258.482-.037.183-.018.372.053.544.072.172.192.319.347.423.155.103.337.159.524.16z"/>
    <path fill="#13637B" d="M117.004 65.598H81.038c-.633.004-1.251-.181-1.778-.53-.526-.35-.936-.848-1.177-1.431-.241-.583-.302-1.225-.176-1.843.127-.618.435-1.184.886-1.626l41.72-42.791c.443-.452 1.011-.762 1.631-.89.62-.13 1.265-.07 1.852.168.587.238 1.089.645 1.444 1.169.354.524.543 1.141.544 1.773v37.057c-.005 2.373-.953 4.647-2.636 6.323-1.683 1.677-3.965 2.62-6.344 2.621zm-34.99-2.315l-.032.032.032-.032zm2.102-2.161h32.888c1.189 0 2.329-.47 3.171-1.308.841-.837 1.316-1.973 1.319-3.159v-33.87L84.116 61.123z"/>
    <path fill="#43CAFF" d="M131.81 137.414c-2.624 0-5.145-1.017-7.03-2.836l-19.44-18.76c-1.922-1.86-3.025-4.405-3.065-7.076-.041-2.671.983-5.248 2.848-7.165 1.864-1.918 4.416-3.018 7.094-3.058 2.677-.041 5.261.98 7.183 2.841l11.475 11.074 25.253-31.329c1.678-2.077 4.114-3.406 6.773-3.694 2.659-.289 5.324.487 7.411 2.156 2.086 1.669 3.424 4.095 3.719 6.747.295 2.652-.477 5.312-2.145 7.397l-32.198 39.941c-.881 1.092-1.981 1.99-3.229 2.635-1.248.645-2.617 1.023-4.02 1.111-.21.008-.421.016-.629.016z"/>
    <path fill="#13637B" d="M131.81 139.649c-3.209.008-6.293-1.237-8.593-3.468l-19.442-18.756c-1.194-1.119-2.152-2.463-2.82-3.955-.668-1.491-1.031-3.101-1.069-4.734-.038-1.633.251-3.257.848-4.778.598-1.521 1.493-2.908 2.634-4.08 1.14-1.173 2.503-2.107 4.009-2.749 1.507-.641 3.126-.978 4.763-.989 1.638-.011 3.262.303 4.776.924 1.515.62 2.891 1.536 4.048 2.692l9.702 9.365 23.715-29.412c1.008-1.277 2.261-2.342 3.684-3.134 1.424-.792 2.991-1.295 4.61-1.48 1.62-.184 3.26-.047 4.826.404 1.566.451 3.027 1.207 4.299 2.225 1.271 1.017 2.328 2.276 3.109 3.703.781 1.427 1.271 2.995 1.441 4.612.171 1.617.018 3.251-.448 4.81-.467 1.557-1.238 3.008-2.27 4.267l-32.196 39.939c-1.077 1.335-2.42 2.432-3.945 3.22-1.525.788-3.198 1.251-4.912 1.358l-.769.016zm-19.436-38.881c-1.565-.006-3.096.456-4.396 1.326-1.299.869-2.308 2.107-2.897 3.553-.588 1.447-.729 3.036-.405 4.563.325 1.527 1.1 2.922 2.226 4.006l19.442 18.757c1.464 1.418 3.426 2.209 5.466 2.205l.513-.016c1.087-.071 2.147-.366 3.113-.867.967-.501 1.818-1.196 2.501-2.042l32.203-39.941c1.304-1.62 1.909-3.692 1.682-5.758-.227-2.065-1.268-3.956-2.893-5.257-1.625-1.3-3.701-1.904-5.772-1.677-2.071.226-3.967 1.264-5.27 2.884l-26.805 33.242-13.241-12.78c-1.466-1.414-3.427-2.203-5.467-2.2v.002z"/>
    <path fill="#fff" d="M179.434 82.248l-20.64 13.46c-.116.077-.248.126-.385.145-.138.019-.278.007-.411-.034-.132-.041-.254-.112-.357-.205-.102-.094-.182-.209-.235-.337l-9.442-22.704 18.552-59.9c1.164-3.75 3.773-6.887 7.254-8.72 3.481-1.833 7.549-2.212 11.31-1.054l3.094.95c1.862.571 3.593 1.503 5.094 2.741 1.501 1.239 2.743 2.76 3.654 4.478.911 1.717 1.474 3.597 1.656 5.531.183 1.935-.019 3.886-.593 5.743l-18.551 59.906z"/>
    <path fill="#13637B" d="M158.279 98.098c-.318-.002-.635-.048-.94-.137-.448-.137-.86-.37-1.207-.684-.347-.314-.62-.7-.8-1.131l-9.444-22.708c-.198-.482-.222-1.018-.067-1.516l18.545-59.91c1.338-4.318 4.34-7.93 8.346-10.04 4.007-2.11 8.689-2.547 13.018-1.214l3.094.952c2.145.656 4.138 1.728 5.867 3.153 1.729 1.426 3.158 3.177 4.208 5.154 1.049 1.977 1.697 4.142 1.907 6.369.21 2.227-.023 4.474-.685 6.612l-18.549 59.906c-.153.499-.476.929-.913 1.216l-20.641 13.458c-.517.338-1.121.52-1.739.52zm-7.933-25.628l8.531 20.513 18.649-12.158 18.311-59.133c.981-3.184.655-6.626-.907-9.57-1.561-2.945-4.231-5.151-7.421-6.134l-3.096-.952c-3.192-.981-6.644-.658-9.597.897-2.954 1.555-5.169 4.216-6.157 7.399L150.346 72.47z"/>
    <path fill="#13637B" d="M197.982 22.342l-31.47-9.67c1.164-3.75 3.773-6.886 7.254-8.719 3.481-1.833 7.549-2.212 11.31-1.054l3.094.95c1.862.571 3.593 1.503 5.094 2.741 1.501 1.239 2.742 2.76 3.653 4.478.911 1.717 1.474 3.597 1.657 5.531.182 1.935-.02 3.886-.594 5.743h.002z"/>
    <path fill="#43CAFF" d="M149.852 71.907l17.477-6.24 14.892-48.094-14.976-4.602-18.055 58.305c-.028.09-.031.187-.007.279.024.092.073.175.142.24.069.066.154.111.247.131.093.02.19.013.28-.019z"/>
    <path fill="#13637B" d="M149.305 74.48l-1.521-1.062c-.373-.35-.639-.796-.771-1.288-.131-.493-.122-1.013.027-1.5l18.728-60.46 19.268 5.924-15.889 51.303-19.842 7.083zm19.43-58.711l-16.378 52.866 13.161-4.698 13.896-44.885-10.679-3.283z"/>
    <path fill="#43CAFF" d="M178.255 80.637l-10.918-14.972 14.891-48.095 14.983 4.61-18.056 58.309c-.028.09-.081.17-.152.232-.072.062-.159.102-.252.118-.093.015-.189.005-.276-.031-.088-.036-.164-.095-.22-.17z"/>
    <path fill="#13637B" d="M178.663 83.076c-.435 0-.864-.102-1.252-.3-.387-.197-.722-.484-.977-.837l-11.573-15.862 15.889-51.304 19.278 5.925-19.129 61.773-1.785.576c-.15.02-.3.03-.451.03zm-8.847-17.82l8.219 11.266 16.368-52.866-10.689-3.284-13.898 44.885zM154.978 88.045s6.712-2.99 9.914 3.046c-2.385 1.292-4.66 2.776-6.803 4.436l-3.111-7.482z"/>
    <path fill="#F66" d="M53.476 127.934h-1.145c-.17.001-.34-.032-.497-.096-.158-.064-.3-.159-.422-.278-.12-.12-.216-.262-.282-.419-.065-.156-.1-.324-.1-.494v-1.141c.007-.247-.066-.489-.206-.692-.141-.202-.343-.355-.576-.436-.172-.055-.355-.069-.534-.04-.178.028-.347.098-.494.203-.146.106-.266.244-.35.404-.082.16-.127.337-.129.518v1.183c0 .169-.034.337-.1.494-.065.157-.16.299-.282.418-.12.12-.264.215-.421.279-.158.064-.327.096-.497.095h-1.144c-.27-.004-.533.084-.746.251-.212.166-.36.401-.42.664-.033.166-.029.337.013.501.04.164.118.316.225.447.108.131.243.236.396.308.154.072.32.11.49.11h1.188c.17-.001.339.031.496.095.158.065.301.159.422.279.121.12.217.262.282.419.066.157.1.325.1.495v1.147c-.005.269.084.532.25.743.168.212.403.36.667.418.166.034.338.03.502-.011.165-.041.319-.117.45-.224.131-.108.237-.242.31-.395.072-.153.11-.32.11-.489v-1.195c.002-.342.14-.67.384-.911.243-.241.573-.377.916-.377h1.187c.17 0 .337-.037.49-.11.154-.072.289-.177.396-.308.108-.13.185-.283.226-.447.041-.164.045-.335.012-.501-.06-.262-.21-.495-.422-.66-.212-.166-.475-.253-.745-.247z"/>
    <path fill="#FEDD64" d="M37.447 42.226h-1.145c-.343 0-.673-.136-.916-.377-.244-.241-.382-.57-.384-.911v-1.142c.006-.246-.067-.489-.208-.691-.14-.203-.342-.356-.576-.437-.173-.054-.355-.068-.534-.04-.178.03-.347.1-.493.205-.147.106-.266.244-.35.404-.082.16-.127.337-.129.518v1.182c0 .17-.033.337-.098.494-.065.156-.16.298-.28.418-.12.12-.263.214-.42.279-.157.065-.325.098-.494.098H30.28c-.27-.005-.533.084-.745.25-.213.167-.361.401-.42.664-.033.166-.03.337.012.501.041.164.118.317.226.448.107.13.242.236.396.308.153.072.32.11.49.11h1.187c.17 0 .338.032.494.097.157.064.3.16.42.279.12.119.215.26.28.417.065.156.098.324.099.493v1.141c-.005.27.084.533.251.744.168.212.404.36.667.417.166.034.338.03.502-.01.165-.041.318-.118.45-.225.13-.107.236-.242.309-.394.072-.153.11-.32.11-.489v-1.183c0-.17.034-.337.1-.494.065-.157.161-.299.282-.419.12-.12.264-.214.422-.278.157-.064.326-.096.496-.095h1.188c.169 0 .336-.038.49-.11.153-.072.288-.177.395-.308.108-.13.185-.283.226-.447.041-.164.045-.335.012-.501-.058-.265-.208-.5-.422-.668-.214-.167-.479-.255-.75-.248z"/>
    <path fill="#93F" d="M27.577 150.516h-1.145c-.17 0-.338-.033-.495-.098-.156-.064-.299-.159-.419-.279-.12-.119-.215-.261-.28-.417-.065-.156-.099-.324-.1-.493v-1.141c.007-.247-.066-.489-.207-.692-.14-.203-.343-.355-.576-.436-.173-.055-.355-.069-.534-.04-.178.028-.347.098-.494.203-.147.106-.266.244-.35.404-.082.16-.127.337-.129.518v1.183c0 .169-.034.336-.099.492-.065.157-.16.298-.28.418-.12.119-.263.214-.42.279-.156.064-.324.097-.494.097H20.41c-.27-.005-.534.083-.747.25-.212.167-.36.402-.419.665-.033.166-.03.337.012.501.04.164.118.317.225.448.108.13.243.236.396.308.154.072.321.109.49.109h1.188c.17 0 .338.033.495.098.157.064.3.159.42.279.12.119.215.261.28.418.064.156.098.324.098.493v1.141c-.005.27.084.532.252.744.167.212.403.359.667.417.166.034.338.03.502-.011.165-.04.318-.117.45-.224.13-.107.237-.242.31-.395.072-.153.11-.32.11-.489v-1.183c0-.169.033-.337.098-.493.065-.157.16-.299.28-.418.12-.12.263-.215.42-.279.157-.065.325-.098.495-.098h1.187c.17 0 .337-.037.49-.11.153-.072.288-.177.395-.308.108-.131.185-.283.226-.447.04-.164.045-.335.011-.501-.059-.263-.207-.497-.419-.664-.212-.166-.475-.254-.745-.249z"/>
    <path fill="#F66" d="M62 157.636h-1.146c-.17.001-.338-.031-.496-.095-.158-.064-.301-.159-.422-.278-.12-.12-.217-.262-.282-.419-.066-.157-.1-.325-.1-.494v-1.141c.007-.247-.066-.49-.207-.692-.141-.203-.343-.356-.577-.437-.172-.054-.355-.068-.533-.039-.178.028-.347.098-.493.204-.147.105-.266.243-.35.403-.082.16-.127.337-.129.517v1.183c0 .169-.034.337-.099.493-.065.156-.16.298-.28.418-.12.119-.263.214-.42.278-.156.065-.324.098-.494.098h-1.145c-.27-.005-.534.083-.747.25-.212.167-.36.401-.419.665-.033.165-.03.336.012.5.04.164.117.317.225.448.107.13.242.236.396.308.153.072.32.11.49.11h1.187c.17-.001.338.033.494.097.157.065.3.16.42.279.12.12.215.262.28.418.065.157.099.324.099.494v1.141c-.005.269.084.532.251.744.168.211.403.359.667.417.166.033.338.029.502-.012.165-.04.318-.117.45-.224.13-.107.236-.242.309-.395.072-.153.11-.319.11-.489v-1.182c.002-.343.14-.67.384-.912.243-.241.573-.376.916-.376h1.187c.17 0 .337-.038.49-.11.154-.072.289-.178.396-.308.108-.131.185-.284.226-.448.041-.164.045-.335.012-.5-.059-.263-.207-.497-.42-.664-.211-.166-.474-.254-.744-.25z"/>
    <path fill="#39C" d="M62 61.109h-1.146c-.17.001-.338-.031-.496-.096-.158-.064-.301-.158-.422-.278-.12-.12-.217-.262-.282-.418-.066-.157-.1-.325-.1-.495v-1.14c.007-.248-.066-.49-.207-.693-.141-.203-.343-.355-.577-.436-.172-.054-.355-.068-.533-.04-.178.03-.347.099-.493.204-.147.106-.266.244-.35.404-.082.16-.127.337-.129.517v1.183c0 .169-.034.336-.099.493-.065.156-.16.298-.28.417-.12.12-.263.214-.42.279-.156.065-.324.098-.494.097h-1.145c-.27-.005-.534.084-.747.25-.212.167-.36.402-.419.665-.033.166-.03.337.012.5.04.165.117.318.225.448.107.131.242.236.396.309.153.072.32.11.49.11h1.187c.17-.001.338.032.494.097.157.065.3.16.42.279.12.12.215.262.28.418.065.156.099.324.099.493v1.141c-.005.27.084.533.251.744.168.212.403.36.667.418.166.033.338.029.502-.012.164-.04.318-.117.449-.224.13-.107.236-.242.31-.394.072-.153.11-.32.11-.488v-1.183c.002-.343.14-.67.384-.912.243-.24.573-.376.916-.376h1.187c.17 0 .337-.037.49-.11.154-.072.29-.177.397-.308.107-.13.184-.283.226-.447.04-.164.044-.335.011-.501-.059-.263-.207-.498-.419-.664-.212-.167-.475-.256-.745-.251z"/>
    <path fill="#FEDD64" d="M8.361 99.48H7.216c-.344 0-.673-.136-.916-.377-.244-.241-.382-.569-.384-.911V97.05c.006-.247-.067-.489-.207-.692-.141-.202-.343-.355-.576-.436-.172-.055-.355-.069-.534-.04-.178.028-.348.098-.494.204-.147.105-.266.244-.35.404-.083.16-.127.338-.129.518v1.183c0 .17-.033.337-.098.493-.065.156-.16.299-.28.418-.12.12-.263.215-.42.28-.157.064-.325.097-.494.097H1.188c-.27-.005-.534.083-.746.25-.213.167-.361.402-.42.665-.033.165-.029.336.012.5.04.164.118.317.225.448.108.131.243.236.396.308.153.072.32.11.49.11h1.187c.17-.001.338.033.494.097.157.065.3.159.42.279.12.119.215.261.28.417.065.157.099.324.099.493v1.141c-.005.27.084.533.252.744.167.212.403.359.667.418.166.033.337.029.501-.011.165-.041.318-.117.45-.224.13-.107.236-.242.309-.395.073-.153.11-.319.11-.488v-1.183c0-.17.034-.338.1-.495.065-.156.161-.299.282-.418.12-.12.264-.214.422-.278.157-.065.326-.097.496-.096h1.188c.17 0 .337-.037.49-.109.153-.072.289-.177.396-.308.108-.131.185-.284.226-.448.04-.164.045-.335.011-.501-.058-.263-.206-.498-.418-.665-.212-.167-.476-.256-.746-.251z"/>
    <path fill="#93F" d="M44.593 87.735h-1.848c-.273 0-.544-.053-.797-.157-.253-.105-.483-.258-.677-.45-.194-.194-.347-.423-.452-.675-.105-.252-.16-.522-.16-.795v-1.84c.01-.398-.106-.789-.334-1.115-.227-.327-.552-.574-.93-.704-.277-.09-.573-.115-.861-.07-.29.045-.563.157-.8.328-.238.17-.43.395-.564.655-.133.26-.203.546-.204.838v1.908c0 .55-.22 1.079-.61 1.468-.39.39-.92.609-1.473.61h-1.847c-.436-.008-.86.134-1.202.403-.342.268-.581.646-.676 1.07-.054.267-.047.543.019.808.066.264.19.511.364.722.173.21.391.38.638.497.247.117.517.177.79.177h1.914c.274 0 .545.054.797.158.253.104.483.257.676.45.194.193.348.422.452.674.105.252.16.522.16.795v1.84c-.008.434.135.858.405 1.2.27.34.65.578 1.075.672.268.054.545.048.81-.018s.513-.19.724-.362c.212-.173.382-.39.5-.636.117-.247.177-.516.178-.789v-1.899c0-.273.054-.543.159-.795.105-.252.258-.481.452-.674.194-.193.424-.346.677-.45.253-.104.524-.157.797-.157h1.916c.273 0 .543-.06.79-.177.248-.116.466-.286.639-.497.173-.21.297-.458.363-.722.067-.265.073-.54.019-.808-.093-.426-.332-.806-.674-1.076-.343-.27-.769-.414-1.205-.407z"/>
    <path fill="#F66" d="M16.947 66.522h-.497c-.168 0-.334-.032-.488-.096-.155-.064-.296-.158-.415-.276-.118-.118-.212-.259-.277-.413-.064-.154-.097-.32-.097-.487v-.496c.009-.523-.177-1.032-.522-1.427-.344-.395-.823-.648-1.344-.712-.287-.029-.577.003-.852.093-.274.09-.526.236-.74.43-.214.193-.385.429-.502.692-.118.264-.178.548-.178.836v.577c0 .167-.033.332-.097.487-.065.154-.159.295-.277.413-.119.118-.26.212-.414.275-.155.064-.321.097-.489.097h-.497c-.525-.01-1.034.176-1.43.519-.397.343-.653.82-.718 1.34-.028.286.005.575.095.849.091.273.238.524.432.737.194.214.431.384.695.5.264.117.55.177.838.177h.585c.168 0 .334.032.489.096.155.064.295.158.414.276.119.118.213.258.277.413.064.154.097.32.097.487v.496c-.009.523.177 1.031.521 1.426.345.395.823.649 1.344.713.287.029.577-.003.851-.093s.527-.237.74-.43c.215-.194.386-.43.503-.692.117-.264.178-.548.178-.836v-.577c0-.167.033-.332.097-.487.064-.154.158-.295.277-.413.119-.118.26-.212.414-.276.155-.063.321-.096.489-.096h.586c.289 0 .574-.06.838-.176.264-.117.5-.287.695-.5.194-.214.341-.465.432-.738.09-.274.123-.563.095-.85-.066-.519-.32-.996-.717-1.339-.397-.343-.906-.528-1.431-.519z"/>
    <path fill="#39C" d="M27.778 124.911c-1.428 0-2.825-.423-4.013-1.214-1.187-.792-2.113-1.917-2.66-3.233-.546-1.317-.69-2.765-.41-4.163.278-1.397.966-2.681 1.976-3.688 1.01-1.008 2.297-1.694 3.698-1.972 1.4-.278 2.853-.135 4.173.41 1.32.546 2.447 1.469 3.24 2.654.795 1.184 1.218 2.577 1.218 4.002-.002 1.91-.764 3.741-2.118 5.091-1.354 1.351-3.19 2.11-5.104 2.113zm0-11.051c-.763.001-1.51.228-2.143.652-.635.423-1.129 1.025-1.42 1.729-.291.704-.367 1.478-.218 2.224.15.747.518 1.433 1.058 1.971s1.228.904 1.977 1.053c.748.148 1.524.071 2.23-.22.705-.291 1.308-.785 1.732-1.418.424-.633.65-1.377.65-2.138-.002-1.022-.41-2.001-1.135-2.723-.725-.721-1.707-1.127-2.731-1.127v-.003zM254.951 127.106h-1.011c-.301 0-.59-.12-.803-.332-.213-.212-.333-.5-.334-.801v-1.008c.005-.217-.059-.43-.182-.608-.124-.178-.301-.312-.507-.383-.151-.05-.312-.063-.47-.038-.157.025-.306.086-.436.179-.129.093-.234.215-.307.357-.072.141-.111.298-.111.457v1.04c0 .149-.03.296-.087.434-.057.137-.141.262-.246.367-.106.105-.231.189-.369.246-.138.056-.286.086-.435.085h-1.011c-.238-.004-.47.074-.656.22-.187.147-.318.353-.37.584-.028.146-.024.296.012.44.037.144.105.278.199.393.094.115.213.207.347.271.135.064.282.097.43.098h1.045c.149 0 .297.029.435.086.138.057.263.14.368.245.106.105.19.23.247.368.057.137.086.285.086.433v1.009c-.003.237.075.468.222.653.147.186.354.316.586.367.146.029.297.025.441-.011.144-.036.279-.104.394-.198.115-.094.208-.212.272-.346.065-.134.098-.281.099-.429v-1.04c0-.301.12-.589.333-.801.214-.212.503-.332.804-.332h1.044c.149 0 .296-.034.43-.098.135-.063.253-.156.348-.271.094-.114.162-.249.198-.392.037-.144.041-.295.012-.44-.051-.23-.181-.435-.366-.582-.185-.146-.415-.225-.651-.222z"/>
    <path fill="#93F" d="M237.37 62.875h-1.011c-.302 0-.591-.119-.804-.331-.213-.213-.333-.5-.333-.801v-1.009c.005-.216-.059-.43-.183-.607-.123-.179-.301-.313-.506-.384-.152-.05-.313-.062-.47-.038-.158.025-.307.087-.436.18s-.234.215-.307.356c-.073.142-.111.298-.112.457v1.04c0 .301-.12.589-.333.801-.213.213-.502.332-.804.332h-1.011c-.237-.004-.469.074-.655.22-.187.147-.317.353-.369.584-.028.146-.024.296.012.44.037.144.105.278.199.393.094.114.213.207.347.27.135.064.281.098.43.098h1.045c.301 0 .59.12.803.332.213.213.333.5.333.801v1.008c-.004.237.075.468.222.654.147.186.354.316.586.367.146.028.296.024.44-.012.145-.036.279-.103.394-.197.116-.094.209-.212.273-.346.064-.133.098-.28.099-.428v-1.04c0-.3.12-.589.333-.801.214-.213.502-.332.804-.332h1.044c.149 0 .295-.034.43-.098.134-.064.252-.157.346-.271.095-.115.162-.249.199-.393.036-.144.04-.294.012-.44-.051-.23-.18-.435-.366-.582-.185-.147-.415-.225-.651-.223z"/>
    <path fill="#F66" d="M218.066 159.01h-1.011c-.149 0-.297-.029-.435-.086-.137-.057-.263-.14-.368-.245-.106-.105-.19-.23-.247-.368-.057-.137-.086-.285-.086-.433v-1.009c.005-.217-.059-.43-.183-.608-.123-.178-.301-.312-.506-.383-.152-.049-.313-.062-.47-.038-.157.025-.307.086-.436.179s-.234.215-.307.356c-.073.141-.111.298-.112.457v1.04c0 .149-.029.296-.087.434-.057.137-.14.262-.246.367-.106.105-.231.189-.369.245-.138.057-.286.086-.435.086h-1.011c-.238-.004-.469.074-.656.22-.187.147-.318.353-.369.584-.029.146-.025.296.012.44.036.144.104.278.198.393.095.115.213.207.348.271.134.064.281.097.43.098h1.044c.149 0 .297.029.435.086.138.056.263.14.369.245.105.105.189.23.246.368.057.137.087.284.087.433v1.009c-.005.237.073.468.221.654.147.187.354.316.586.367.146.029.297.025.441-.011.145-.036.279-.104.394-.198.116-.094.208-.212.273-.346.064-.134.097-.28.098-.429v-1.04c0-.149.03-.296.087-.434.057-.137.141-.262.246-.367.106-.105.231-.189.369-.246.138-.056.286-.086.435-.085h1.044c.149-.001.296-.035.43-.099s.253-.156.347-.271c.094-.115.162-.249.198-.393.036-.143.04-.293.012-.439-.052-.23-.181-.435-.365-.581-.185-.146-.415-.225-.651-.223z"/>
    <path fill="#FEDD64" d="M210.439 53.51h-1.012c-.149 0-.297-.03-.434-.086-.138-.057-.264-.14-.369-.246-.106-.105-.19-.23-.247-.367-.057-.138-.086-.285-.086-.434V51.37c.005-.217-.059-.43-.182-.608-.124-.178-.302-.313-.507-.384-.152-.049-.312-.061-.469-.037-.158.025-.307.086-.436.18-.128.092-.234.214-.306.355-.073.141-.112.297-.112.456v1.04c0 .15-.03.297-.087.434-.057.138-.141.263-.246.368-.106.105-.231.188-.369.245-.138.057-.286.086-.435.086h-1.011c-.238-.004-.469.074-.656.22-.186.147-.317.353-.368.584-.029.145-.025.296.012.44.036.144.104.278.198.392.095.115.213.208.348.272.134.063.281.097.43.097h1.044c.301 0 .59.12.803.332.213.212.333.5.334.8v1.01c-.005.236.074.468.221.654.147.186.354.316.586.367.146.029.297.025.441-.011.145-.037.279-.104.394-.198.116-.094.209-.212.273-.346.064-.134.097-.28.098-.43v-1.04c.001-.3.121-.588.334-.8.213-.213.502-.332.803-.332h1.044c.149 0 .296-.034.43-.098.135-.064.253-.156.348-.27.094-.116.162-.25.198-.394.037-.144.041-.294.012-.44-.051-.23-.181-.436-.367-.582-.185-.146-.416-.224-.652-.221z"/>
    <path fill="#13637B" d="M258.964 79.485h-1.011c-.301 0-.59-.12-.803-.332-.213-.212-.333-.5-.333-.8v-1.01c.005-.216-.059-.429-.183-.607s-.301-.312-.506-.384c-.152-.049-.313-.062-.47-.037-.157.024-.307.086-.436.178-.129.094-.234.216-.307.357-.073.141-.111.297-.112.456v1.04c0 .15-.029.297-.087.434-.057.138-.14.263-.246.368-.106.105-.231.188-.369.245-.138.057-.286.086-.435.086h-1.011c-.237-.004-.469.073-.656.22-.186.146-.316.353-.368.584-.028.145-.024.296.012.44.036.143.104.277.198.392.094.115.213.207.347.271.134.064.281.098.43.099h1.044c.149 0 .297.028.435.085.138.057.263.14.369.246.105.105.189.23.246.367.057.138.087.285.087.434v1.008c-.004.237.074.468.221.654.148.186.354.315.586.367.146.028.297.024.441-.012.144-.036.279-.103.394-.197.115-.094.208-.213.273-.347.064-.134.097-.28.098-.428v-1.04c.001-.301.121-.59.334-.802.213-.212.502-.331.803-.331h1.044c.149 0 .296-.034.43-.098.135-.064.253-.156.348-.271.094-.115.162-.25.198-.393.037-.144.041-.294.012-.44-.052-.23-.181-.434-.366-.58-.185-.146-.415-.225-.651-.222z"/>
    <path fill="#93F" d="M218.066 114.723h-1.011c-.301 0-.59-.119-.803-.332-.214-.212-.333-.5-.334-.8v-1.009c.006-.217-.058-.43-.182-.608s-.301-.312-.507-.383c-.151-.05-.312-.062-.47-.038-.157.025-.306.086-.435.179s-.235.215-.307.356c-.073.141-.112.298-.112.457v1.04c-.001.3-.121.588-.334.801-.213.212-.502.331-.803.331h-1.011c-.238-.004-.469.074-.656.22-.186.147-.317.353-.368.584-.029.146-.025.296.012.44.036.144.104.278.198.393.095.115.213.207.348.271.134.064.281.097.43.098h1.044c.301 0 .59.119.803.331.213.213.333.501.334.801v1.009c-.005.237.074.468.221.654.147.186.354.315.586.366.146.028.297.025.441-.011.144-.036.279-.104.394-.198.115-.094.208-.212.272-.345.064-.134.098-.28.099-.429v-1.04c.001-.301.121-.589.334-.801.213-.212.502-.331.803-.331h1.044c.149-.001.296-.035.43-.099s.253-.156.347-.271c.094-.115.162-.249.198-.393.036-.143.04-.294.012-.439-.052-.23-.181-.435-.366-.582-.185-.146-.415-.224-.651-.222z"/>
    <path fill="#F66" d="M243.657 102.906h-1.625c-.241 0-.479-.047-.702-.139-.222-.092-.424-.226-.594-.396-.17-.17-.306-.371-.398-.593-.092-.222-.139-.459-.139-.699v-1.618c.008-.35-.095-.694-.295-.982-.199-.287-.486-.504-.817-.619-.245-.08-.504-.1-.758-.061-.254.04-.495.138-.703.288-.209.15-.378.348-.495.576-.118.228-.179.48-.179.737v1.677c-.001.485-.194.95-.538 1.292-.343.343-.809.535-1.295.535h-1.625c-.383-.007-.757.119-1.058.355-.301.236-.511.569-.595.942-.047.235-.041.477.017.709.058.233.166.449.318.635.152.185.344.334.56.437.217.103.454.156.694.157h1.684c.486 0 .952.192 1.296.535.344.342.537.807.537 1.292v1.618c-.006.382.119.754.356 1.054.237.3.571.509.944.592.236.047.478.042.711-.016.233-.058.45-.167.636-.318.186-.152.335-.343.439-.559.103-.216.156-.452.157-.691v-1.677c0-.24.048-.478.14-.7.092-.222.227-.423.397-.593.17-.169.372-.304.595-.396.222-.091.46-.139.701-.138h1.686c.24-.001.477-.054.694-.157.216-.103.408-.252.56-.438.152-.185.26-.402.318-.634.058-.232.064-.474.017-.709-.083-.371-.292-.703-.59-.939-.299-.236-.67-.363-1.051-.359z"/>
    <path fill="#39C" d="M219.344 84.243h-.434c-.297 0-.583-.118-.793-.328-.211-.21-.329-.495-.329-.791v-.433c.006-.46-.158-.906-.461-1.253-.302-.347-.722-.57-1.18-.628-.252-.025-.507.003-.748.082-.242.08-.463.208-.651.378-.189.17-.339.377-.442.609-.103.231-.156.481-.157.734v.513c0 .147-.029.293-.085.43-.057.135-.139.258-.244.362-.104.104-.228.187-.364.243-.137.056-.283.085-.43.085h-.434c-.461-.007-.909.156-1.257.458-.348.302-.573.72-.632 1.177-.025.252.004.507.083.747.08.24.21.462.38.65.171.187.379.337.611.44.232.102.483.154.737.154h.515c.147 0 .293.029.429.085.136.056.26.138.365.242.104.104.187.227.243.363.057.136.086.281.086.428v.433c-.006.46.158.906.461 1.253.302.348.723.572 1.18.63.253.025.508-.004.749-.083s.463-.208.651-.378c.189-.17.339-.377.442-.608.103-.232.157-.482.157-.735v-.513c0-.147.029-.293.086-.428.056-.136.139-.26.243-.363.104-.104.228-.186.364-.242.136-.057.282-.085.43-.085h.515c.254 0 .505-.053.738-.155.232-.103.44-.253.611-.44.17-.188.3-.409.379-.65.08-.24.109-.494.084-.746-.059-.459-.285-.88-.635-1.181-.35-.302-.8-.465-1.263-.456z"/>
    <path fill="#FEDD64" d="M228.87 135.594c-1.255-.001-2.481-.374-3.524-1.07-1.043-.696-1.855-1.685-2.335-2.842-.479-1.157-.605-2.43-.359-3.657.245-1.228.849-2.356 1.737-3.241.887-.885 2.018-1.488 3.248-1.732 1.231-.245 2.507-.12 3.667.358 1.159.479 2.151 1.289 2.849 2.329.698 1.041 1.072 2.264 1.073 3.516 0 1.681-.67 3.293-1.862 4.482-1.191 1.189-2.808 1.857-4.494 1.857zm0-9.719c-.671 0-1.327.2-1.885.573-.558.372-.993.902-1.249 1.521-.256.619-.323 1.3-.191 1.956.131.657.455 1.26.93 1.734.475.473 1.08.795 1.739.925.658.131 1.341.063 1.961-.193.621-.257 1.151-.691 1.524-1.248s.572-1.211.572-1.881c-.002-.898-.361-1.759-.999-2.394-.637-.635-1.501-.992-2.402-.992v-.001z"/>
</svg>
