<svg xmlns="http://www.w3.org/2000/svg" width="25" height="25" fill="none" viewBox="0 0 25 25">
    <path fill="#fff" fill-rule="evenodd" d="M5.539 6.46c-.305.001-.596.123-.811.339-.215.216-.336.508-.335.813v11.117c0 .305.12.597.335.813.214.217.506.339.811.34h14.736c.305-.002.596-.124.81-.34.215-.216.335-.508.335-.813V7.612c0-.304-.12-.597-.334-.813-.215-.216-.506-.338-.811-.339H5.539zm14.736 14.823H5.539c-.675-.003-1.322-.273-1.798-.752S3 19.404 3 18.73V7.612c-.001-.675.266-1.323.742-1.801.476-.48 1.122-.75 1.797-.752h14.736c.675.003 1.321.273 1.797.752.476.478.743 1.126.742 1.801v11.117c.001.675-.265 1.323-.741 1.802-.476.479-1.123.75-1.798.752z" clip-rule="evenodd"/>
    <path fill="#fff" fill-rule="evenodd" d="M12.914 12.808c-.389 0-.772-.09-1.12-.265L6.236 9.22c-.143-.102-.243-.254-.28-.426-.036-.172-.007-.35.083-.502.09-.151.233-.263.401-.313.169-.05.35-.036.508.041l5.513 3.3c.155.07.323.103.493.1.17-.005.337-.048.488-.125l5.425-3.252c.079-.047.166-.078.256-.091.091-.014.184-.009.272.014.09.023.172.063.246.118.073.055.135.124.181.203.095.16.123.35.077.53-.045.18-.16.334-.319.429l-5.47 3.278c-.37.189-.78.288-1.195.289" clip-rule="evenodd"/>
</svg>
