<svg xmlns="http://www.w3.org/2000/svg" width="25" height="25" fill="none" viewBox="0 0 25 25">
    <path fill="#fff" d="M20.275 21.283H5.539c-.675-.003-1.322-.273-1.798-.752S3 19.404 3 18.73V7.611c0-.675.266-1.322.742-1.8.476-.48 1.122-.75 1.797-.752h14.736c.675.003 1.321.273 1.797.751.476.479.743 1.126.742 1.801V18.73c.001.675-.265 1.323-.741 1.802-.476.479-1.123.75-1.798.752zM5.539 6.46c-.304.001-.596.123-.81.34-.215.215-.336.508-.335.812V18.73c0 .305.12.598.334.814.215.216.506.338.811.34h14.736c.305-.001.597-.123.812-.34.215-.216.335-.509.334-.814V7.611c0-.305-.12-.597-.335-.813-.215-.216-.506-.338-.811-.339H5.539z"/>
    <path fill="#fff" d="M12.914 12.808c-.389 0-.772-.09-1.12-.264L6.237 9.22c-.144-.102-.243-.253-.28-.425-.036-.172-.007-.352.083-.503.09-.151.233-.263.401-.313.169-.05.35-.036.508.041l5.512 3.3c.155.07.323.104.493.1.17-.005.337-.048.488-.125l5.426-3.256c.078-.047.165-.078.256-.091.091-.014.183-.009.272.014.09.022.172.063.246.118.073.055.135.124.18.203.096.16.123.35.078.53-.045.18-.16.334-.32.43l-5.47 3.277c-.37.189-.78.288-1.195.29z"/>
</svg>
