<svg xmlns="http://www.w3.org/2000/svg" width="68" height="64" fill="none" viewBox="0 0 68 64">
    <path fill="#F3F3F3" d="M30 4c5.933 0 11.734 1.76 16.667 5.056 4.934 3.296 8.779 7.982 11.05 13.464 2.27 5.481 2.864 11.513 1.706 17.333-1.157 5.82-4.014 11.165-8.21 15.36-4.195 4.196-9.54 7.053-15.36 8.21-5.82 1.158-11.852.564-17.334-1.707-5.481-2.27-10.167-6.115-13.463-11.049C1.759 45.734 0 39.933 0 34c0-7.956 3.16-15.587 8.787-21.213C14.413 7.16 22.044 4 30 4z"/>
    <g opacity=".01">
        <path fill="#fff" d="M54 10H6v48h48V10z" opacity=".01"/>
        <path stroke="#707070" d="M53.25 10.75H6.75v46.5h46.5v-46.5z" opacity=".01"/>
    </g>
    <path fill="url(#paint0_linear)" d="M40.311 53.063c-1.238-.001-2.425-.493-3.3-1.369-.877-.875-1.37-2.062-1.37-3.3 0-1.239.493-2.426 1.369-3.302.875-.876 2.063-1.37 3.301-1.37 1.234.015 2.413.513 3.285 1.386.872.873 1.37 2.052 1.385 3.286-.002 1.238-.494 2.424-1.37 3.3-.875.875-2.062 1.368-3.3 1.37zm-15.9-.045h-.088c-1.192 0-2.337-.465-3.192-1.295-.856-.83-1.354-1.96-1.39-3.152-.045-1.239.402-2.445 1.244-3.354.841-.91 2.01-1.448 3.248-1.497 1.193.008 2.338.474 3.199 1.301.86.828 1.37 1.954 1.425 3.146.033.61-.058 1.218-.266 1.791-.208.573-.53 1.098-.946 1.544-.836.91-1.995 1.455-3.23 1.518l-.004-.002zm17.786-10.957H23.514c-1.172-.007-2.305-.43-3.193-1.196-.889-.765-1.476-1.822-1.656-2.98L15.878 18.93c-.017-.11-.07-.21-.153-.283-.082-.074-.187-.117-.297-.122H11.79c-.477 0-.935-.19-1.273-.527-.337-.338-.527-.796-.527-1.273 0-.237.047-.47.137-.69.09-.218.223-.416.39-.583.168-.167.366-.3.584-.39.219-.09.453-.137.69-.137h3.637c.97-.002 1.908.346 2.642.98.735.633 1.216 1.51 1.357 2.47l.45 3.009H48.17c.072.002.143.01.213.025.05.011.1.018.15.02.233.041.456.129.654.258.199.129.37.296.503.492.132.19.224.404.272.63.048.227.05.461.007.688l-2.92 14.595c-.235 1.115-.845 2.116-1.727 2.837-.882.721-1.984 1.12-3.123 1.13h-.003zm-5.45-9.561c-.199 0-.39.079-.53.22-.14.14-.22.33-.22.53v1.5c0 .199.08.39.22.53s.331.22.53.22h3c.2 0 .39-.08.53-.22.141-.14.22-.331.22-.53v-1.5c0-.2-.079-.39-.22-.53-.14-.141-.33-.22-.53-.22h-3zm-6 0c-.199 0-.39.079-.53.22-.14.14-.22.33-.22.53v1.5c0 .199.08.39.22.53s.331.22.53.22h3c.2 0 .39-.08.53-.22.141-.14.22-.331.22-.53v-1.5c0-.2-.079-.39-.22-.53-.14-.141-.33-.22-.53-.22h-3zm-6 0c-.199 0-.39.079-.53.22-.14.14-.22.33-.22.53v1.5c0 .199.08.39.22.53s.331.22.53.22h3c.2 0 .39-.08.53-.22.141-.14.22-.331.22-.53v-1.5c0-.2-.079-.39-.22-.53-.14-.141-.33-.22-.53-.22h-3zm12-4.5c-.199 0-.39.079-.53.22-.14.14-.22.33-.22.53v1.5c0 .199.08.39.22.53s.331.22.53.22h3c.2 0 .39-.08.53-.22.141-.14.22-.331.22-.53v-1.5c0-.2-.079-.39-.22-.53-.14-.141-.33-.22-.53-.22h-3zm-6 0c-.199 0-.39.079-.53.22-.14.14-.22.33-.22.53v1.5c0 .199.08.39.22.53s.331.22.53.22h3c.2 0 .39-.08.53-.22.141-.14.22-.331.22-.53v-1.5c0-.2-.079-.39-.22-.53-.14-.141-.33-.22-.53-.22h-3zm-6 0c-.199 0-.39.079-.53.22-.14.14-.22.33-.22.53v1.5c0 .199.08.39.22.53s.331.22.53.22h3c.2 0 .39-.08.53-.22.141-.14.22-.331.22-.53v-1.5c0-.2-.079-.39-.22-.53-.14-.141-.33-.22-.53-.22h-3z"/>
    <g filter="url(#filter0_d)">
        <path fill="#fff" d="M54 20c5.523 0 10-4.477 10-10S59.523 0 54 0 44 4.477 44 10s4.477 10 10 10z"/>
    </g>
    <path fill="#00ACF0" d="M57.403 8.612h-.348V7.223c0-.364-.072-.726-.212-1.063-.14-.337-.344-.643-.602-.901s-.564-.463-.901-.602c-.337-.14-.698-.212-1.063-.212s-.726.072-1.063.212c-.337.14-.643.344-.901.602-.259.258-.463.564-.603.901-.14.337-.211.699-.211 1.063v1.39h-.346c-.276 0-.541.11-.736.304-.196.196-.306.46-.306.736v4.861c0 .277.11.542.305.737.196.195.46.305.737.305h6.25c.276 0 .541-.11.736-.305.196-.195.306-.46.306-.737v-4.86c0-.277-.11-.541-.306-.737-.195-.195-.46-.304-.736-.305zm-4.977-1.389c.022-.475.227-.924.571-1.253.345-.33.803-.513 1.279-.513.476 0 .934.184 1.279.513.344.329.549.778.57 1.253v1.39h-3.7v-1.39zm2.315 4.964v1.058c0 .123-.049.24-.136.328-.087.086-.204.135-.327.135-.123 0-.24-.049-.328-.135-.086-.087-.135-.205-.135-.328v-1.058c-.177-.102-.315-.259-.393-.447-.078-.189-.091-.397-.039-.594.053-.197.17-.371.331-.495.162-.124.36-.192.564-.192.204 0 .402.068.564.192.161.124.278.298.33.495.053.197.04.405-.039.594-.078.188-.216.345-.392.447z"/>
    <defs>
        <linearGradient id="paint0_linear" x1="29.996" x2="29.996" y1="14.926" y2="53.063" gradientUnits="userSpaceOnUse">
            <stop stop-color="#EDEDED"/>
            <stop offset="1" stop-color="#C9C9C9"/>
        </linearGradient>
        <filter id="filter0_d" width="28" height="28" x="40" y="0" color-interpolation-filters="sRGB" filterUnits="userSpaceOnUse">
            <feFlood flood-opacity="0" result="BackgroundImageFix"/>
            <feColorMatrix in="SourceAlpha" values="0 0 0 0 0 0 0 0 0 0 0 0 0 0 0 0 0 0 127 0"/>
            <feOffset dy="4"/>
            <feGaussianBlur stdDeviation="2"/>
            <feColorMatrix values="0 0 0 0 0 0 0 0 0 0 0 0 0 0 0 0 0 0 0.16 0"/>
            <feBlend in2="BackgroundImageFix" result="effect1_dropShadow"/>
            <feBlend in="SourceGraphic" in2="effect1_dropShadow" result="shape"/>
        </filter>
    </defs>
</svg>
