<svg xmlns="http://www.w3.org/2000/svg" width="60" height="60" fill="none" viewBox="0 0 60 60">
    <path fill="#35BEB9" d="M30 0c5.933 0 11.734 1.76 16.667 5.056 4.934 3.296 8.779 7.982 11.05 13.463 2.27 5.482 2.864 11.514 1.706 17.334-1.157 5.82-4.014 11.165-8.21 15.36-4.195 4.196-9.54 7.053-15.36 8.21-5.82 1.158-11.852.564-17.334-1.707-5.481-2.27-10.167-6.115-13.463-11.049C1.759 41.734 0 35.933 0 30c0-7.956 3.16-15.587 8.787-21.213C14.413 3.16 22.044 0 30 0z" opacity=".16"/>
    <g opacity=".01">
        <path fill="#fff" d="M54 6H6v48h48V6z" opacity=".01"/>
        <path stroke="#707070" d="M53.25 6.75H6.75v46.5h46.5V6.75z" opacity=".01"/>
    </g>
    <path fill="url(#paint0_linear)" d="M35.649 44.394c-.001-.614.12-1.222.354-1.789.234-.567.578-1.082 1.012-1.516.434-.434.95-.778 1.516-1.013.567-.235 1.175-.355 1.789-.355 1.234.015 2.414.512 3.286 1.385.873.873 1.37 2.053 1.383 3.288-.022 1.224-.523 2.39-1.397 3.248-.873.858-2.049 1.339-3.273 1.339-1.225 0-2.4-.48-3.273-1.339-.874-.858-1.376-2.024-1.397-3.248zM24.334 49.02c-1.19-.006-2.331-.473-3.185-1.302-.853-.83-1.353-1.957-1.393-3.146-.041-1.236.407-2.44 1.247-3.348.84-.908 2.005-1.448 3.241-1.503 1.233-.023 2.425.444 3.314 1.299.89.855 1.402 2.029 1.425 3.262.024 1.233-.443 2.425-1.299 3.314-.855.889-2.028 1.402-3.261 1.425l-.089-.001zm-.81-10.96c-1.173-.003-2.306-.426-3.195-1.191-.889-.766-1.475-1.823-1.653-2.983L15.89 14.932c-.016-.109-.07-.209-.152-.283-.082-.074-.188-.117-.298-.122h-3.633c-.246.018-.494-.016-.727-.098-.233-.082-.446-.212-.627-.38-.18-.169-.325-.373-.424-.6-.098-.226-.15-.47-.15-.717s.052-.492.15-.718c.099-.227.243-.43.424-.6.18-.168.394-.297.627-.38.233-.082.48-.115.727-.098h3.636c.97-.004 1.91.343 2.644.977.735.634 1.216 1.512 1.354 2.473l.45 3.01H48.18c.134 0 .269.046.359.046.23.04.45.125.647.251s.367.29.5.481c.135.192.229.409.278.637.05.229.054.465.012.695l-2.92 14.602c-.237 1.113-.847 2.112-1.73 2.831-.881.719-1.983 1.115-3.12 1.122H23.524z"/>
    <path fill="#fff" d="M27.754 24h-3c-.414 0-.75.336-.75.75v1.5c0 .414.336.75.75.75h3c.414 0 .75-.336.75-.75v-1.5c0-.414-.336-.75-.75-.75zM27.754 28.5h-3c-.414 0-.75.336-.75.75v1.5c0 .414.336.75.75.75h3c.414 0 .75-.336.75-.75v-1.5c0-.414-.336-.75-.75-.75zM33.754 24h-3c-.414 0-.75.336-.75.75v1.5c0 .414.336.75.75.75h3c.414 0 .75-.336.75-.75v-1.5c0-.414-.336-.75-.75-.75zM33.754 28.5h-3c-.414 0-.75.336-.75.75v1.5c0 .414.336.75.75.75h3c.414 0 .75-.336.75-.75v-1.5c0-.414-.336-.75-.75-.75zM39.754 24h-3c-.414 0-.75.336-.75.75v1.5c0 .414.336.75.75.75h3c.414 0 .75-.336.75-.75v-1.5c0-.414-.336-.75-.75-.75zM39.754 28.5h-3c-.414 0-.75.336-.75.75v1.5c0 .414.336.75.75.75h3c.414 0 .75-.336.75-.75v-1.5c0-.414-.336-.75-.75-.75z"/>
    <defs>
        <linearGradient id="paint0_linear" x1="29.942" x2="29.942" y1="10.932" y2="49.021" gradientUnits="userSpaceOnUse">
            <stop stop-color="#64F4EE"/>
            <stop offset="1" stop-color="#35BEB9"/>
        </linearGradient>
    </defs>
</svg>
