<svg xmlns="http://www.w3.org/2000/svg" width="16" height="16" fill="none" viewBox="0 0 16 16">
    <path fill="#5E5E5E" d="M8 0C6.418 0 4.871.47 3.555 1.348c-1.315.88-2.34 2.129-2.946 3.59C.003 6.4-.155 8.009.154 9.562c.308 1.552 1.07 2.977 2.19 4.096 1.118 1.119 2.543 1.88 4.095 2.19 1.552.308 3.16.15 4.623-.456 1.461-.605 2.71-1.63 3.59-2.946C15.53 11.129 16 9.582 16 8c0-1.05-.206-2.091-.608-3.062-.402-.97-.991-1.853-1.734-2.596-.743-.743-1.625-1.332-2.596-1.734C10.092.206 9.051-.001 8 0zm0 14.751c-1.335 0-2.64-.396-3.75-1.138-1.11-.741-1.975-1.795-2.486-3.029-.511-1.233-.645-2.59-.384-3.9.26-1.31.903-2.512 1.847-3.456s2.147-1.587 3.456-1.847c1.31-.26 2.667-.127 3.9.384 1.233.51 2.288 1.376 3.03 2.486.741 1.11 1.137 2.415 1.137 3.75 0 .887-.174 1.764-.513 2.584-.339.819-.836 1.563-1.463 2.19-.627.627-1.371 1.124-2.19 1.463-.82.34-1.697.514-2.584.513z" opacity=".65"/>
    <path fill="#5E5E5E" d="M8.005 6.698c-.082 0-.164.016-.24.048-.075.031-.144.077-.202.135-.058.058-.104.127-.136.203-.031.076-.047.157-.047.24v4.025c.008.16.078.31.194.419.116.11.27.171.43.171.16 0 .313-.061.43-.171.115-.11.185-.26.194-.42V7.325c0-.165-.066-.324-.182-.442-.117-.117-.276-.183-.441-.184zM8 5.933c.465 0 .843-.378.843-.844 0-.466-.378-.844-.844-.844-.466 0-.844.378-.844.844 0 .466.378.844.844.844z" opacity=".65"/>
</svg>
