<svg xmlns="http://www.w3.org/2000/svg" width="25" height="25" fill="none" viewBox="0 0 25 25">
    <path fill="#fff" d="M5.462 19.686c-.653 0-1.278-.26-1.74-.722-.462-.461-.721-1.087-.722-1.74V8.462c0-.653.26-1.278.722-1.74.462-.462 1.087-.721 1.74-.722h14.545c.652.001 1.278.26 1.74.722.46.462.72 1.087.721 1.74v8.761c0 .652-.26 1.278-.722 1.74-.461.461-1.086.72-1.739.722l-14.545.001zM4.287 8.462v8.761c0 .155.03.308.089.45.059.143.145.273.254.382.11.11.24.196.382.255.143.06.296.09.45.09h14.545c.311 0 .61-.124.83-.344.22-.22.344-.519.344-.83V8.462c0-.311-.124-.61-.344-.83-.22-.22-.519-.344-.83-.344H5.462c-.311 0-.61.124-.83.344-.22.22-.345.519-.345.83zm15.09 8.9c-.165-.648-.544-1.22-1.077-1.625-.533-.403-1.188-.614-1.856-.597-.668-.017-1.322.193-1.856.596-.533.403-.913.975-1.079 1.623-.036.167-.137.313-.28.405-.144.093-.319.124-.486.088-.167-.036-.313-.137-.405-.28-.093-.145-.124-.319-.088-.486.229-.935.768-1.764 1.53-2.352.763-.588 1.702-.899 2.664-.883.962-.016 1.9.295 2.663.883.761.588 1.3 1.417 1.529 2.352.018.083.02.168.005.251-.015.083-.047.163-.092.234-.046.071-.106.132-.175.18-.07.048-.148.082-.231.1-.045.01-.09.016-.137.016-.147 0-.29-.05-.404-.143-.114-.092-.194-.22-.225-.364v.002zM5.462 15.14c-.17 0-.335-.068-.456-.189-.12-.12-.189-.285-.189-.456 0-.17.068-.334.19-.455.12-.121.284-.189.455-.189H9.1c.17 0 .335.068.456.189.12.12.189.285.189.456 0 .17-.068.334-.19.455-.12.121-.284.189-.455.189H5.462zm8.52-4.281c0-.487.145-.963.415-1.368.271-.404.656-.72 1.105-.906.45-.186.945-.235 1.423-.14.477.096.916.33 1.26.674.345.345.579.784.674 1.261.095.478.046.973-.14 1.422-.187.45-.502.835-.907 1.105s-.881.415-1.368.415c-.653 0-1.279-.26-1.74-.722-.462-.462-.722-1.088-.722-1.741zm1.287 0c0 .232.069.46.198.653.129.194.312.344.527.433.215.09.451.113.679.067.228-.045.438-.157.602-.321.164-.165.276-.374.322-.602.045-.228.021-.464-.068-.68-.089-.214-.24-.397-.433-.526-.193-.13-.42-.198-.653-.198-.311 0-.61.124-.83.344-.22.22-.343.519-.344.83zm-9.807 1.554c-.17 0-.335-.068-.456-.189-.12-.12-.189-.285-.189-.456 0-.17.068-.334.19-.455.12-.121.284-.189.455-.189h5.454c.17 0 .335.068.456.189.12.12.188.285.188.455 0 .171-.067.335-.188.456s-.285.189-.456.189H5.462z"/>
</svg>
