<svg xmlns="http://www.w3.org/2000/svg" width="68" height="64" fill="none" viewBox="0 0 68 64">
    <path fill="#F3F3F3" d="M30 4c5.933 0 11.734 1.76 16.667 5.056 4.934 3.296 8.779 7.982 11.05 13.464 2.27 5.481 2.864 11.513 1.706 17.333-1.157 5.82-4.014 11.165-8.21 15.36-4.195 4.196-9.54 7.053-15.36 8.21-5.82 1.158-11.852.564-17.334-1.707-5.481-2.27-10.167-6.115-13.463-11.049C1.759 45.734 0 39.933 0 34c0-7.956 3.16-15.587 8.787-21.213C14.413 7.16 22.044 4 30 4z"/>
    <path fill="url(#paint0_linear)" d="M19.5 56.5c-.795-.002-1.557-.32-2.119-.881-.562-.562-.879-1.324-.881-2.119v-39c0-.796.316-1.559.879-2.121.562-.563 1.325-.879 2.121-.879h21.39c.796 0 1.559.316 2.121.879.563.562.879 1.325.879 2.121v39c-.002.795-.32 1.557-.881 2.119-.562.562-1.324.879-2.119.881H19.5z"/>
    <path fill="#fff" d="M35.085 50.627h-9.782c-.54 0-.978.438-.978.978s.438.978.978.978h9.782c.54 0 .978-.438.978-.978s-.438-.978-.978-.978zM21.391 15.412c.194 0 .383.057.543.165.161.107.287.26.36.439.075.179.094.375.056.565-.037.19-.13.364-.267.5-.137.137-.311.23-.501.268-.19.038-.387.019-.565-.055-.179-.074-.332-.2-.44-.36-.107-.161-.164-.35-.164-.544 0-.26.103-.508.287-.691.183-.184.432-.287.691-.287zM32.803 28.835c-.98-.461-2.072-.634-3.147-.498-1.074.136-2.088.575-2.922 1.266-.097.08-.177.178-.236.288-.058.111-.094.232-.106.357-.012.125.001.25.038.37s.097.231.177.328c.08.096.178.176.288.235.111.058.232.095.357.107.125.011.25-.002.37-.038.12-.037.232-.098.328-.177.494-.41 1.084-.687 1.714-.807.63-.12 1.28-.08 1.89.119.61.198 1.16.548 1.599 1.016.439.468.752 1.04.911 1.66-.195-.02-.392.02-.563.114-.171.095-.31.24-.395.417-.085.176-.114.375-.083.568.032.194.122.373.26.513l1.189 1.2c.088.089.194.16.31.208.115.048.24.073.365.073.126 0 .25-.025.366-.073.115-.049.22-.12.309-.208l1.19-1.19c.152-.153.249-.353.273-.568.023-.215-.027-.431-.143-.614-.116-.183-.29-.32-.495-.39-.204-.07-.427-.069-.63.005-.146-.92-.514-1.79-1.073-2.536-.56-.745-1.293-1.341-2.136-1.738l-.005-.007zM24.758 34.95h-.317c-.188 0-.372-.056-.53-.16-.156-.105-.278-.253-.35-.427-.072-.174-.091-.366-.054-.55.037-.185.127-.355.26-.488l1.19-1.19c.089-.088.194-.16.31-.207.116-.049.24-.073.365-.073.126 0 .25.024.366.073.116.048.221.119.31.208l1.189 1.19c.133.132.224.302.261.486.037.185.018.377-.054.55-.072.175-.194.323-.351.428-.157.104-.341.16-.53.16h-.121c.16.619.472 1.188.91 1.654.437.467.985.816 1.593 1.014.608.199 1.256.241 1.884.123.629-.118 1.218-.392 1.712-.798.197-.142.44-.204.68-.172.241.032.46.154.614.342.153.188.229.427.211.67-.017.241-.126.468-.305.632-.774.634-1.7 1.053-2.687 1.217-.987.163-1.999.065-2.936-.286-.936-.351-1.764-.942-2.4-1.713-.637-.772-1.06-1.697-1.226-2.683h.006z"/>
    <g filter="url(#filter0_d)">
        <path fill="#fff" d="M54 20c5.523 0 10-4.477 10-10S59.523 0 54 0 44 4.477 44 10s4.477 10 10 10z"/>
    </g>
    <path fill="#00ACF0" d="M57.403 8.612h-.348V7.223c0-.364-.072-.726-.212-1.063-.14-.337-.344-.643-.602-.901s-.564-.463-.901-.602c-.337-.14-.698-.212-1.063-.212s-.726.072-1.063.212c-.337.14-.643.344-.901.602-.259.258-.463.564-.603.901-.14.337-.211.699-.211 1.063v1.39h-.346c-.276 0-.541.11-.736.304-.196.196-.306.46-.306.736v4.861c0 .277.11.542.305.737.196.195.46.305.737.305h6.25c.276 0 .541-.11.736-.305.196-.195.306-.46.306-.737v-4.86c0-.277-.11-.541-.306-.737-.195-.195-.46-.304-.736-.305zm-4.977-1.389c.022-.475.227-.924.571-1.253.345-.33.803-.513 1.279-.513.476 0 .934.184 1.279.513.344.329.549.778.57 1.253v1.39h-3.7v-1.39zm2.315 4.964v1.058c0 .123-.049.24-.136.328-.087.086-.204.135-.327.135-.123 0-.24-.049-.328-.135-.086-.087-.135-.205-.135-.328v-1.058c-.177-.102-.315-.259-.393-.447-.078-.189-.091-.397-.039-.594.053-.197.17-.371.331-.495.162-.124.36-.192.564-.192.204 0 .402.068.564.192.161.124.278.298.33.495.053.197.04.405-.039.594-.078.188-.216.345-.392.447z"/>
    <defs>
        <linearGradient id="paint0_linear" x1="30.195" x2="30.195" y1="11.5" y2="56.5" gradientUnits="userSpaceOnUse">
            <stop stop-color="#EDEDED"/>
            <stop offset="1" stop-color="#C9C9C9"/>
        </linearGradient>
        <filter id="filter0_d" width="28" height="28" x="40" y="0" color-interpolation-filters="sRGB" filterUnits="userSpaceOnUse">
            <feFlood flood-opacity="0" result="BackgroundImageFix"/>
            <feColorMatrix in="SourceAlpha" values="0 0 0 0 0 0 0 0 0 0 0 0 0 0 0 0 0 0 127 0"/>
            <feOffset dy="4"/>
            <feGaussianBlur stdDeviation="2"/>
            <feColorMatrix values="0 0 0 0 0 0 0 0 0 0 0 0 0 0 0 0 0 0 0.16 0"/>
            <feBlend in2="BackgroundImageFix" result="effect1_dropShadow"/>
            <feBlend in="SourceGraphic" in2="effect1_dropShadow" result="shape"/>
        </filter>
    </defs>
</svg>
