<svg xmlns="http://www.w3.org/2000/svg" width="60" height="60" fill="none" viewBox="0 0 60 60">
    <path fill="#1EA86D" d="M30 0c5.933 0 11.734 1.76 16.667 5.056 4.934 3.296 8.779 7.982 11.05 13.463 2.27 5.482 2.864 11.514 1.706 17.334-1.157 5.82-4.014 11.165-8.21 15.36-4.195 4.196-9.54 7.053-15.36 8.21-5.82 1.158-11.852.564-17.334-1.707-5.481-2.27-10.167-6.115-13.463-11.049C1.759 41.734 0 35.933 0 30c0-7.956 3.16-15.587 8.787-21.213C14.413 3.16 22.044 0 30 0z" opacity=".1"/>
    <path fill="url(#paint0_linear)" d="M19.5 52.5c-.795-.002-1.557-.32-2.119-.881-.562-.562-.879-1.324-.881-2.119v-39c0-.796.316-1.559.879-2.121.562-.563 1.325-.879 2.121-.879h21.39c.796 0 1.559.316 2.121.879.563.562.879 1.325.879 2.121v39c-.002.795-.32 1.557-.881 2.119-.562.562-1.324.879-2.119.881H19.5z"/>
    <path fill="#fff" d="M35.088 46.628h-9.782c-.54 0-.978.438-.978.978s.438.978.978.978h9.782c.54 0 .978-.438.978-.978s-.438-.978-.978-.978zM21.392 11.412c.194 0 .383.057.543.165.161.107.287.26.36.439.075.179.094.375.056.565-.037.19-.13.364-.267.5-.137.137-.311.23-.501.268-.19.038-.386.019-.565-.055-.179-.074-.332-.2-.44-.36-.107-.161-.164-.35-.164-.544 0-.26.103-.508.287-.691.183-.184.432-.287.691-.287zM32.805 24.834c-.98-.461-2.071-.634-3.146-.498-1.074.136-2.088.575-2.923 1.266-.096.08-.176.178-.235.288-.058.111-.094.232-.106.357-.012.125.001.25.038.37s.097.231.177.328c.08.096.178.176.288.235.111.058.232.095.357.107.125.011.25-.002.37-.038.12-.037.231-.097.328-.177.494-.41 1.084-.687 1.714-.807.63-.12 1.28-.08 1.89.119.61.198 1.16.548 1.599 1.016.439.468.752 1.04.91 1.66-.194-.02-.39.02-.562.114-.171.095-.31.24-.395.417-.085.176-.114.375-.083.568.032.194.122.373.26.513l1.189 1.2c.088.089.194.16.31.208.115.048.24.073.365.073s.25-.025.366-.073c.115-.049.22-.12.309-.208l1.19-1.19c.152-.153.249-.353.273-.568.023-.215-.027-.431-.143-.614-.116-.183-.29-.32-.495-.39-.204-.07-.427-.069-.63.005-.146-.92-.514-1.79-1.073-2.536-.56-.745-1.293-1.341-2.136-1.738l-.006-.007zM24.762 30.95h-.317c-.188 0-.372-.056-.53-.16-.156-.104-.278-.253-.35-.427-.073-.174-.091-.366-.054-.55.036-.185.127-.355.26-.488l1.19-1.19c.089-.088.194-.16.31-.207.116-.049.24-.073.365-.073.126 0 .25.024.366.073.116.048.22.119.31.208l1.189 1.19c.133.132.224.302.261.486.037.185.018.377-.054.55-.072.175-.194.324-.351.428-.157.104-.341.16-.53.16h-.121c.16.619.472 1.188.91 1.654.437.467.985.816 1.593 1.014.608.199 1.256.241 1.884.123.629-.118 1.217-.392 1.712-.798.196-.142.44-.204.68-.172.241.032.46.154.614.342.153.188.229.427.211.67-.017.241-.127.468-.305.632-.774.634-1.7 1.053-2.687 1.217-.987.163-1.999.065-2.936-.286-.936-.351-1.764-.942-2.4-1.713-.637-.772-1.06-1.697-1.226-2.683h.006z"/>
    <defs>
        <linearGradient id="paint0_linear" x1="30.195" x2="30.195" y1="7.5" y2="52.5" gradientUnits="userSpaceOnUse">
            <stop stop-color="#24DC8B"/>
            <stop offset="1" stop-color="#1EA86D"/>
        </linearGradient>
    </defs>
</svg>
