<svg width="144" height="143" viewBox="0 0 144 143" fill="none" xmlns="http://www.w3.org/2000/svg">
<g clip-path="url(#clip0_770_25424)">
<path d="M95.4382 135.781H37.8351C17.4483 135.781 0.892578 118.625 0.892578 97.8125V38.4688C0.892578 17.6562 17.5851 0.5 37.8351 0.5H95.4382C115.825 0.5 132.381 17.6562 132.381 38.4688V97.6719C132.518 118.625 115.825 135.781 95.4382 135.781Z" fill="#C0F9FC"/>
<path d="M91.8815 129.172H41.667C22.7853 129.172 7.46094 113.422 7.46094 94.0156C7.46094 74.6094 22.7853 58.8594 41.667 58.8594H92.0184C110.9 58.8594 126.224 74.6094 126.224 94.0156C126.088 113.422 110.763 129.172 91.8815 129.172Z" fill="#8CE6F4"/>
<path d="M101.869 10.3438H31.9516C26.0681 10.3438 21.2793 15.2656 21.2793 21.3125V131.422C26.3418 134.094 32.0884 135.641 38.1087 135.641H95.7117C101.732 135.641 107.479 134.094 112.541 131.422V21.4531C112.541 15.4062 107.752 10.3438 101.869 10.3438Z" fill="#17566B"/>
<path d="M99.1329 14.8438H34.5518C29.6261 14.8438 25.6582 18.9219 25.6582 23.9844V133.531C29.4893 134.938 33.7308 135.781 37.9724 135.781H95.5754C99.9538 135.781 104.059 134.938 107.89 133.531V23.9844C108.026 18.9219 104.059 14.8438 99.1329 14.8438Z" fill="#00ACF0"/>
<path d="M38.1092 135.641H52.8862L99.1329 14.7031H34.5518C29.6261 14.7031 25.6582 18.7812 25.6582 23.8438V133.391C29.6261 134.938 33.7308 135.641 38.1092 135.641Z" fill="#66CDF6"/>
<path d="M92.1547 113.281H44.2662C43.8557 113.281 43.4453 113.141 43.0348 113C42.6243 112.859 42.2138 112.578 41.9402 112.297C41.6665 112.016 41.3929 111.594 41.2561 111.172C41.1192 110.75 40.9824 110.328 40.9824 109.906V60.2656C40.9824 59.9844 40.9824 59.7031 41.1192 59.2812C41.2561 59 41.3929 58.7188 41.6665 58.4375L62.327 37.3438C62.7375 36.9219 63.4216 36.6406 63.9689 36.6406H92.2915C92.702 36.6406 93.1125 36.7812 93.523 36.9219C93.9334 37.0625 94.3439 37.3437 94.6176 37.625C94.8912 37.9062 95.1649 38.3281 95.3017 38.75C95.4385 39.1719 95.5753 39.5937 95.5753 40.0156V109.625C95.5753 110.047 95.4385 110.469 95.3017 110.891C95.1649 111.312 94.8912 111.734 94.6176 112.016C94.3439 112.297 93.9334 112.578 93.523 112.719C93.1125 112.859 92.702 113.281 92.1547 113.281Z" fill="#2291AA"/>
<path d="M90.2387 111.031H42.3502C41.9397 111.031 41.5292 110.891 41.1188 110.75C40.7083 110.609 40.2978 110.328 40.0242 110.047C39.7505 109.766 39.4769 109.344 39.3401 108.922C39.2032 108.5 39.0664 108.078 39.0664 107.656V58.1562C39.0664 57.875 39.0664 57.5937 39.2032 57.1719C39.3401 56.8906 39.4769 56.6094 39.7505 56.3281L60.411 35.2344C60.8215 34.8125 61.5056 34.5312 62.0529 34.5312H90.3755C90.786 34.5312 91.1965 34.6719 91.6069 34.8125C92.0174 34.9531 92.4279 35.2344 92.7015 35.5156C92.9752 35.7969 93.2488 36.2188 93.3857 36.6406C93.5225 37.0625 93.6593 37.4844 93.6593 37.9062V107.516C93.6593 107.938 93.5225 108.359 93.3857 108.781C93.2488 109.203 92.9752 109.625 92.7015 109.906C92.4279 110.188 92.0174 110.469 91.6069 110.609C91.1965 111.031 90.786 111.031 90.2387 111.031Z" fill="white"/>
<path d="M39.3402 57.7344H58.0851C58.4956 57.7344 59.0429 57.5937 59.4533 57.4531C59.8638 57.3125 60.2743 57.0312 60.5479 56.75C60.8216 56.4687 61.0952 56.0469 61.3689 55.625C61.5057 55.2031 61.6425 54.7812 61.6425 54.3594V34.9531C61.6425 34.8125 61.6425 34.8125 61.5057 34.6719C61.5057 34.5312 61.3689 34.5313 61.2321 34.5313C61.0952 34.5313 61.0952 34.5313 60.9584 34.5313C60.8216 34.5313 60.8216 34.5312 60.6848 34.6719L39.0665 56.8906C38.9297 56.8906 38.9297 57.0312 38.9297 57.1719C38.9297 57.3125 38.9297 57.3125 38.9297 57.4531C38.9297 57.5937 39.0665 57.5938 39.0665 57.7344C39.2033 57.7344 39.3402 57.7344 39.3402 57.7344Z" fill="#BCBEC0"/>
<path d="M85.9967 66.0312H47.2754V70.8125H85.9967V66.0312Z" fill="#BCBEC0"/>
<path d="M85.9967 75.4531H47.2754V80.2344H85.9967V75.4531Z" fill="#BCBEC0"/>
<path d="M85.9967 84.875H47.2754V89.6562H85.9967V84.875Z" fill="#BCBEC0"/>
<path d="M85.9967 94.4375H47.2754V99.2187H85.9967V94.4375Z" fill="#BCBEC0"/>
<path d="M79.9768 20.3281H53.7065C51.3805 20.3281 49.3281 18.3594 49.3281 15.8281C49.3281 13.2969 51.2437 11.3281 53.7065 11.3281H80.1136C82.4396 11.3281 84.492 13.2969 84.492 15.8281C84.492 18.3594 82.4396 20.3281 79.9768 20.3281Z" fill="#17566B"/>
<path d="M124.581 128.891C123.213 127.484 121.708 126.078 120.34 124.531C113.225 129.594 105.289 131 96.9428 128.469C90.7857 126.5 85.9969 122.563 82.4394 116.938C75.5982 105.688 77.7874 90.9219 87.6388 82.0625C97.3533 73.3437 111.993 73.3438 121.845 81.9219C132.243 91.0625 134.296 107.094 126.086 118.625C126.771 119.328 127.455 120.031 128.276 120.734C128.96 121.438 129.644 122.141 130.328 122.844C130.465 122.844 130.465 122.844 130.465 122.844C131.286 122 131.423 122 132.107 122.844C137.58 128.469 136.348 127.344 141.821 132.969C143.326 134.516 143.737 136.344 143.189 138.453C142.642 140.562 141.137 141.828 139.085 142.25C137.306 142.531 135.664 142.109 134.433 140.703C128.823 134.938 130.054 136.063 124.444 130.438C123.897 129.875 123.897 129.875 124.581 128.891ZM104.742 122.422C115.14 122.562 123.897 113.703 124.171 102.875C124.308 91.9063 115.825 82.9062 105.152 82.7656C94.48 82.625 85.7232 91.3438 85.5864 102.453C85.3127 113.281 93.9327 122.281 104.742 122.422Z" fill="#F6C957"/>
<path opacity="0.35" d="M104.741 124.953C116.605 124.953 126.223 115.068 126.223 102.875C126.223 90.6816 116.605 80.7969 104.741 80.7969C92.8773 80.7969 83.2598 90.6816 83.2598 102.875C83.2598 115.068 92.8773 124.953 104.741 124.953Z" fill="#FAEFC3"/>
</g>
<defs>
<clipPath id="clip0_770_25424">
<rect width="142.571" height="142.031" fill="white" transform="translate(0.892578 0.5)"/>
</clipPath>
</defs>
</svg>
