<svg xmlns="http://www.w3.org/2000/svg" width="25" height="25" fill="none" viewBox="0 0 25 25">
    <path fill="#fff" fill-rule="evenodd" d="M18 19.708c0 .343-.137.67-.379.913-.242.242-.57.379-.913.379h-8c-.342 0-.67-.137-.912-.38-.242-.242-.378-.57-.379-.912v-7c0-.342.137-.67.379-.912s.57-.378.912-.379h8c.342 0 .67.137.913.379.242.242.378.57.379.912v7zM12.708 4.416c.872.002 1.708.35 2.325.967.617.617.965 1.453.967 2.325V10H9.417V7.708c.002-.872.35-1.708.966-2.325.617-.617 1.453-.965 2.325-.967zm4.709 5.689v-2.4c0-1.249-.497-2.446-1.38-3.329-.883-.883-2.081-1.378-3.33-1.378s-2.446.497-3.329 1.38C8.495 5.261 8 6.46 8 7.708v2.4c-.573.154-1.079.492-1.44.961-.362.47-.558 1.046-.56 1.639v7c0 .718.286 1.406.794 1.914s1.196.793 1.914.794h8c.718 0 1.407-.286 1.915-.794.508-.507.793-1.196.794-1.914v-7c-.001-.593-.198-1.17-.56-1.64-.36-.47-.867-.808-1.44-.962v-.001z" clip-rule="evenodd"/>
    <path fill="#fff" fill-rule="evenodd" d="M12.708 17.708c-.265 0-.52-.105-.707-.293-.188-.187-.293-.442-.293-.707v-2c0-.265.105-.52.293-.707.187-.188.442-.293.707-.293.265 0 .52.105.707.293.188.187.293.442.293.707v2c0 .265-.105.52-.293.707-.187.188-.442.293-.707.293z" clip-rule="evenodd"/>
</svg>
