<svg xmlns="http://www.w3.org/2000/svg" width="68" height="64" fill="none" viewBox="0 0 68 64">
    <path fill="#F3F3F3" d="M30 64c5.933 0 11.734-1.76 16.667-5.056 4.934-3.296 8.779-7.982 11.05-13.464 2.27-5.481 2.864-11.513 1.706-17.333-1.157-5.82-4.014-11.165-8.21-15.36-4.195-4.196-9.54-7.053-15.36-8.21C30.033 3.418 24 4.012 18.519 6.283c-5.481 2.27-10.167 6.115-13.463 11.049C1.759 22.266 0 28.067 0 34c0 7.956 3.16 15.587 8.787 21.213C14.413 60.84 22.044 64 30 64z"/>
    <path fill="url(#paint0_linear)" d="M19.5 56.5c-.795-.002-1.557-.32-2.119-.881-.562-.562-.879-1.324-.881-2.119v-39c0-.796.316-1.559.879-2.121.562-.563 1.325-.879 2.121-.879h21.39c.796 0 1.559.316 2.121.879.563.562.879 1.325.879 2.121v39c-.002.795-.32 1.557-.881 2.119-.562.562-1.324.879-2.119.881H19.5z"/>
    <path fill="#fff" d="M35.085 50.627h-9.782c-.54 0-.978.438-.978.978s.438.978.978.978h9.782c.54 0 .978-.438.978-.978s-.438-.978-.978-.978zM21.391 15.412c.194 0 .383.057.543.165.161.107.287.26.36.439.075.179.094.375.056.565-.037.19-.13.364-.267.5-.137.137-.311.23-.501.268-.19.038-.387.019-.565-.055-.179-.074-.332-.2-.44-.36-.107-.161-.164-.35-.164-.544 0-.26.103-.508.287-.691.183-.184.432-.287.691-.287z"/>
    <path stroke="#fff" stroke-linecap="round" stroke-linejoin="round" stroke-width="1.5" d="M30.385 29.689l3.878 3.877-3.878-3.878zm0 0l-3.874 3.877 3.874-3.878z"/>
    <g filter="url(#filter0_d)">
        <path fill="#fff" d="M54 20c5.523 0 10-4.477 10-10S59.523 0 54 0 44 4.477 44 10s4.477 10 10 10z"/>
    </g>
    <path fill="#00ACF0" d="M57.403 8.612h-.348V7.223c0-.364-.072-.726-.212-1.063-.14-.337-.344-.643-.602-.901s-.564-.463-.901-.602c-.337-.14-.698-.212-1.063-.212s-.726.072-1.063.212c-.337.14-.643.344-.901.602-.259.258-.463.564-.603.901-.14.337-.211.699-.211 1.063v1.39h-.346c-.276 0-.541.11-.736.304-.196.196-.306.46-.306.736v4.861c0 .277.11.542.305.737.196.195.46.305.737.305h6.25c.276 0 .541-.11.736-.305.196-.195.306-.46.306-.737v-4.86c0-.277-.11-.541-.306-.737-.195-.195-.46-.304-.736-.305zm-4.977-1.389c.022-.475.227-.924.571-1.253.345-.33.803-.513 1.279-.513.476 0 .934.184 1.279.513.344.329.549.778.57 1.253v1.39h-3.7v-1.39zm2.315 4.964v1.058c0 .123-.049.24-.136.328-.087.086-.204.135-.327.135-.123 0-.24-.049-.328-.135-.086-.087-.135-.205-.135-.328v-1.058c-.177-.102-.315-.259-.393-.447-.078-.189-.091-.397-.039-.594.053-.197.17-.371.331-.495.162-.124.36-.192.564-.192.204 0 .402.068.564.192.161.124.278.298.33.495.053.197.04.405-.039.594-.078.188-.216.345-.392.447z"/>
    <defs>
        <linearGradient id="paint0_linear" x1="30.195" x2="30.195" y1="11.5" y2="56.5" gradientUnits="userSpaceOnUse">
            <stop stop-color="#EDEDED"/>
            <stop offset="1" stop-color="#C9C9C9"/>
        </linearGradient>
        <filter id="filter0_d" width="28" height="28" x="40" y="0" color-interpolation-filters="sRGB" filterUnits="userSpaceOnUse">
            <feFlood flood-opacity="0" result="BackgroundImageFix"/>
            <feColorMatrix in="SourceAlpha" values="0 0 0 0 0 0 0 0 0 0 0 0 0 0 0 0 0 0 127 0"/>
            <feOffset dy="4"/>
            <feGaussianBlur stdDeviation="2"/>
            <feColorMatrix values="0 0 0 0 0 0 0 0 0 0 0 0 0 0 0 0 0 0 0.16 0"/>
            <feBlend in2="BackgroundImageFix" result="effect1_dropShadow"/>
            <feBlend in="SourceGraphic" in2="effect1_dropShadow" result="shape"/>
        </filter>
    </defs>
</svg>
