<svg xmlns="http://www.w3.org/2000/svg" width="60" height="60" fill="none" viewBox="0 0 60 60">
    <path fill="#FC6320" d="M30 0c5.933 0 11.734 1.76 16.667 5.056 4.934 3.296 8.779 7.982 11.05 13.463 2.27 5.482 2.864 11.514 1.706 17.334-1.157 5.82-4.014 11.165-8.21 15.36-4.195 4.196-9.54 7.053-15.36 8.21-5.82 1.158-11.852.564-17.334-1.707-5.481-2.27-10.167-6.115-13.463-11.049C1.759 41.734 0 35.933 0 30c0-7.956 3.16-15.587 8.787-21.213C14.413 3.16 22.044 0 30 0z" opacity=".1"/>
    <path fill="url(#paint0_linear)" d="M19.5 52.5c-.795-.002-1.557-.32-2.119-.881-.562-.562-.879-1.324-.881-2.119v-39c0-.796.316-1.559.879-2.121.562-.563 1.325-.879 2.121-.879h21.39c.796 0 1.559.316 2.121.879.563.562.879 1.325.879 2.121v39c-.002.795-.32 1.557-.881 2.119-.562.562-1.324.879-2.119.881H19.5z"/>
    <path fill="#fff" d="M35.088 46.628h-9.782c-.54 0-.978.438-.978.978s.438.978.978.978h9.782c.54 0 .978-.438.978-.978s-.438-.978-.978-.978zM21.392 11.412c.194 0 .383.057.543.165.161.107.287.26.36.439.075.179.094.375.056.565-.037.19-.13.364-.267.5-.137.137-.311.23-.501.268-.19.038-.386.019-.565-.055-.179-.074-.332-.2-.44-.36-.107-.161-.164-.35-.164-.544 0-.26.103-.508.287-.691.183-.184.432-.287.691-.287z"/>
    <path stroke="#fff" stroke-linecap="round" stroke-linejoin="round" stroke-width="1.5" d="M30.39 25.69l3.878 3.877-3.878-3.878zm0 0l-3.874 3.877 3.874-3.878z"/>
    <defs>
        <linearGradient id="paint0_linear" x1="30.195" x2="30.195" y1="7.5" y2="52.5" gradientUnits="userSpaceOnUse">
            <stop stop-color="#FCB483"/>
            <stop offset="1" stop-color="#FD6015"/>
        </linearGradient>
    </defs>
</svg>
