<svg width="21" height="21" viewBox="0 0 21 21" fill="none" xmlns="http://www.w3.org/2000/svg">
<mask id="path-1-inside-1_404_4235" fill="white">
<path d="M16.8624 13.0096C16.1384 12.2963 15.2463 12.2963 14.5222 13.0096C13.9792 13.5544 13.4232 14.0991 12.8931 14.6439C12.7509 14.7995 12.6216 14.8254 12.4406 14.7217C12.0915 14.5271 11.7165 14.3715 11.3675 14.164C9.77715 13.1653 8.45836 11.8812 7.28179 10.4286C6.69997 9.71523 6.18279 8.93703 5.82077 8.08101C5.74319 7.89943 5.75612 7.79567 5.89834 7.653C6.44137 7.12122 6.97148 6.57648 7.51451 6.03174C8.26441 5.27947 8.26441 4.39751 7.51451 3.63227C7.08784 3.20426 6.66117 2.77625 6.2345 2.34823C5.7949 1.90725 5.35531 1.4533 4.91571 1.02529C4.19167 0.324904 3.29955 0.324904 2.57551 1.02529C2.01955 1.57003 1.50237 2.12775 0.933475 2.65952C0.416301 3.15238 0.157715 3.749 0.0930681 4.46236C0.00256279 5.60372 0.287008 6.69321 0.674888 7.74379C1.48944 9.92276 2.71773 11.8683 4.2046 13.6452C6.22158 16.0446 8.62643 17.9512 11.445 19.3261C12.7121 19.9486 14.0309 20.4156 15.4531 20.4934C16.4357 20.5453 17.2891 20.2988 17.9743 19.5336C18.4398 19.0148 18.9699 18.5349 19.4612 18.0291C20.1982 17.2768 20.1982 16.3819 19.4741 15.6426C18.6208 14.7606 17.7416 13.8786 16.8624 13.0096Z"/>
</mask>
<path d="M16.8624 13.0096C16.1384 12.2963 15.2463 12.2963 14.5222 13.0096C13.9792 13.5544 13.4232 14.0991 12.8931 14.6439C12.7509 14.7995 12.6216 14.8254 12.4406 14.7217C12.0915 14.5271 11.7165 14.3715 11.3675 14.164C9.77715 13.1653 8.45836 11.8812 7.28179 10.4286C6.69997 9.71523 6.18279 8.93703 5.82077 8.08101C5.74319 7.89943 5.75612 7.79567 5.89834 7.653C6.44137 7.12122 6.97148 6.57648 7.51451 6.03174C8.26441 5.27947 8.26441 4.39751 7.51451 3.63227C7.08784 3.20426 6.66117 2.77625 6.2345 2.34823C5.7949 1.90725 5.35531 1.4533 4.91571 1.02529C4.19167 0.324904 3.29955 0.324904 2.57551 1.02529C2.01955 1.57003 1.50237 2.12775 0.933475 2.65952C0.416301 3.15238 0.157715 3.749 0.0930681 4.46236C0.00256279 5.60372 0.287008 6.69321 0.674888 7.74379C1.48944 9.92276 2.71773 11.8683 4.2046 13.6452C6.22158 16.0446 8.62643 17.9512 11.445 19.3261C12.7121 19.9486 14.0309 20.4156 15.4531 20.4934C16.4357 20.5453 17.2891 20.2988 17.9743 19.5336C18.4398 19.0148 18.9699 18.5349 19.4612 18.0291C20.1982 17.2768 20.1982 16.3819 19.4741 15.6426C18.6208 14.7606 17.7416 13.8786 16.8624 13.0096Z" stroke="white" stroke-width="10" mask="url(#path-1-inside-1_404_4235)"/>
</svg>
