<svg width="21" height="21" viewBox="0 0 21 21" fill="none" xmlns="http://www.w3.org/2000/svg">
<g id="ic-rotate-right">
<path id="Vector" d="M16.3626 10.4218C16.3628 10.4218 16.363 10.4218 16.3632 10.4218L16.3681 9.92183C16.3678 9.92183 16.3675 9.92183 16.3672 9.92183V9.92184L16.3663 9.99748L16.363 10.4218L16.3626 10.4218ZM16.3626 10.4218C16.3626 10.4218 16.3625 10.4218 16.3625 10.4218L16.3612 10.4218L16.3609 10.4218L16.3597 10.4218L16.359 10.4218V10.4218C16.122 10.4195 15.9221 10.5954 15.8939 10.8286L15.8936 10.8316C15.6295 13.9442 12.8845 16.2536 9.76275 15.9904C6.64098 15.7272 4.32398 12.9909 4.58808 9.8783C4.85217 6.76574 7.5972 4.45631 10.7189 4.71951C11.6572 4.79862 12.5541 5.10855 13.3329 5.6133L14.7518 6.53289H13.061H12.488C12.2258 6.53289 12.0141 6.74474 12.0141 7.00511C12.0141 7.26547 12.2258 7.47732 12.488 7.47732L14.7968 7.47732C15.3225 7.47703 15.7481 7.05209 15.7484 6.52871V4.22734C15.7484 3.96698 15.5367 3.75513 15.2745 3.75513C15.0123 3.75513 14.8005 3.96698 14.8005 4.22734V4.52518V5.4782L14.0164 4.93659C11.3198 3.0741 7.5903 3.46469 5.34839 5.9658C2.92131 8.6735 3.15559 12.8298 5.8718 15.2494C8.58815 17.6691 12.7579 17.4355 15.1851 14.7276C16.1285 13.6752 16.7071 12.3482 16.8354 10.9427L16.8355 10.9418C16.8598 10.6809 16.667 10.4483 16.4037 10.4238" fill="#00ACF0" stroke="#00ACF0"/>
</g>
</svg>
