<svg width="25" height="24" viewBox="0 0 25 24" fill="none" xmlns="http://www.w3.org/2000/svg">
<path d="M24.5 0H0.5V24H24.5V0Z" fill="white"/>
<path d="M11.93 14.881C10.9568 14.8655 10.0295 14.4646 9.35143 13.7663C8.67337 13.068 8.29994 12.1293 8.31304 11.156V6.12504C8.2969 5.63993 8.37852 5.15653 8.55302 4.7036C8.72753 4.25068 8.99137 3.83749 9.32883 3.48861C9.66629 3.13974 10.0705 2.86232 10.5174 2.67285C10.9642 2.48338 11.4447 2.38574 11.93 2.38574C12.4154 2.38574 12.8958 2.48338 13.3427 2.67285C13.7896 2.86232 14.1938 3.13974 14.5312 3.48861C14.8687 3.83749 15.1325 4.25068 15.307 4.7036C15.4816 5.15653 15.5632 5.63993 15.547 6.12504V11.156C15.5601 12.1293 15.1867 13.068 14.5086 13.7663C13.8306 14.4646 12.9033 14.8655 11.93 14.881ZM11.93 3.83204C11.3296 3.84074 10.7572 4.08706 10.3381 4.51705C9.91894 4.94704 9.68736 5.52562 9.69403 6.12604V11.157C9.68774 11.4546 9.74091 11.7504 9.85043 12.0271C9.95995 12.3039 10.1236 12.556 10.3318 12.7686C10.54 12.9813 10.7886 13.1502 11.0629 13.2656C11.3373 13.3809 11.6319 13.4403 11.9295 13.4403C12.2272 13.4403 12.5218 13.3809 12.7961 13.2656C13.0705 13.1502 13.319 12.9813 13.5273 12.7686C13.7355 12.556 13.8991 12.3039 14.0086 12.0271C14.1182 11.7504 14.1713 11.4546 14.165 11.157V6.12504C14.1717 5.52479 13.9403 4.94636 13.5214 4.5164C13.1025 4.08644 12.5303 3.84 11.93 3.83104V3.83204Z" fill="url(#paint0_linear_0_830)"/>
<path d="M18.561 10.844C18.561 10.7521 18.5429 10.6611 18.5077 10.5762C18.4726 10.4912 18.421 10.4141 18.356 10.3491C18.291 10.2841 18.2138 10.2325 18.1289 10.1973C18.044 10.1621 17.953 10.144 17.861 10.144C17.7691 10.144 17.6781 10.1621 17.5931 10.1973C17.5082 10.2325 17.4311 10.2841 17.3661 10.3491C17.3011 10.4141 17.2495 10.4912 17.2143 10.5762C17.1791 10.6611 17.161 10.7521 17.161 10.844C17.1706 11.537 17.0424 12.225 16.7838 12.868C16.5253 13.511 16.1415 14.0962 15.6549 14.5896C15.1682 15.083 14.5884 15.4748 13.949 15.7422C13.3097 16.0097 12.6236 16.1474 11.9305 16.1474C11.2375 16.1474 10.5514 16.0097 9.91201 15.7422C9.27266 15.4748 8.69281 15.083 8.20617 14.5896C7.71952 14.0962 7.33577 13.511 7.07721 12.868C6.81866 12.225 6.69044 11.537 6.70003 10.844C6.70003 10.6584 6.62627 10.4803 6.495 10.3491C6.36372 10.2178 6.18568 10.144 6.00002 10.144C5.81437 10.144 5.63633 10.2178 5.50505 10.3491C5.37377 10.4803 5.30002 10.6584 5.30002 10.844C5.29111 12.4962 5.89222 14.0935 6.98815 15.3299C8.08409 16.5662 9.59774 17.3547 11.239 17.544V20.178H8.96102C8.77232 20.178 8.59135 20.253 8.45792 20.3864C8.32449 20.5199 8.24952 20.7008 8.24952 20.8895C8.24952 21.0782 8.32449 21.2592 8.45792 21.3926C8.59135 21.5261 8.77232 21.601 8.96102 21.601H14.9C15.0887 21.601 15.2697 21.5261 15.4031 21.3926C15.5366 21.2592 15.6115 21.0782 15.6115 20.8895C15.6115 20.7008 15.5366 20.5199 15.4031 20.3864C15.2697 20.253 15.0887 20.178 14.9 20.178H12.63V17.544C14.2699 17.3528 15.7816 16.5636 16.8759 15.3274C17.9702 14.0913 18.5702 12.495 18.561 10.844Z" fill="url(#paint1_linear_0_830)"/>
<defs>
<linearGradient id="paint0_linear_0_830" x1="7.73923" y1="6.14683" x2="16.7567" y2="7.94661" gradientUnits="userSpaceOnUse">
<stop stop-color="#00ACF0"/>
<stop offset="1" stop-color="#0694C9"/>
</linearGradient>
<linearGradient id="paint1_linear_0_830" x1="5.10101" y1="11.0033" x2="16.0991" y2="19.6287" gradientUnits="userSpaceOnUse">
<stop stop-color="#00ACF0"/>
<stop offset="1" stop-color="#0694C9"/>
</linearGradient>
</defs>
</svg>
