<svg width="21" height="21" viewBox="0 0 21 21" fill="none" xmlns="http://www.w3.org/2000/svg">
<g id="ic-rotate-left">
<path id="Vector" d="M7.15716 5.61426L5.75031 6.53291H7.43053H8.01103C8.27261 6.53291 8.4843 6.74429 8.4843 7.00513C8.4843 7.26597 8.27261 7.47735 8.01103 7.47735H5.78464C5.21651 7.47735 4.75477 7.01611 4.75477 6.44957V4.22735C4.75477 3.96651 4.96646 3.75513 5.22804 3.75513C5.48962 3.75513 5.7013 3.96651 5.7013 4.22735V4.52167V5.47845L6.48679 4.93216C7.5758 4.17477 8.87442 3.75513 10.2374 3.75513C13.8746 3.75513 16.8333 6.70854 16.8333 10.3385C16.8333 13.9684 13.8746 16.9218 10.2374 16.9218C6.80057 16.9218 3.97704 14.3491 3.66854 10.9368C3.64547 10.677 3.83725 10.4473 4.09732 10.4237L4.09743 10.4237L4.09828 10.4236C4.36619 10.4021 4.58809 10.5929 4.61125 10.8513L4.61128 10.8517C4.8752 13.7736 7.29469 15.9774 10.2374 15.9774C13.3524 15.9774 15.8867 13.4479 15.8867 10.3385C15.8867 7.22898 13.3524 4.69957 10.2374 4.69957C9.12637 4.69957 8.06266 5.02298 7.15716 5.61426Z" fill="#00ACF0" stroke="#00ACF0"/>
</g>
</svg>
