<svg xmlns="http://www.w3.org/2000/svg" width="68" height="64" fill="none" viewBox="0 0 68 64">
    <g opacity=".995">
        <path fill="#F3F3F3" d="M30 4c5.933 0 11.734 1.76 16.667 5.056 4.934 3.296 8.779 7.982 11.05 13.464 2.27 5.481 2.864 11.513 1.706 17.333-1.157 5.82-4.014 11.165-8.21 15.36-4.195 4.196-9.54 7.053-15.36 8.21-5.82 1.158-11.852.564-17.334-1.707-5.481-2.27-10.167-6.115-13.463-11.049C1.759 45.734 0 39.933 0 34c0-7.956 3.16-15.587 8.787-21.213C14.413 7.16 22.044 4 30 4z" opacity=".995"/>
        <path fill="url(#paint0_linear)" d="M35.847 51.498c-1.194 0-2.338-.474-3.182-1.317-.844-.844-1.318-1.989-1.318-3.182V35.343h11.655c1.194 0 2.338.475 3.182 1.318.844.844 1.318 1.989 1.318 3.182v7.154c0 1.194-.474 2.338-1.318 3.182-.844.844-1.988 1.318-3.182 1.318l-7.155.002zm-18.848 0c-1.193 0-2.338-.474-3.181-1.317-.844-.844-1.319-1.989-1.319-3.182v-7.153c0-1.193.475-2.338 1.319-3.181.843-.844 1.988-1.319 3.182-1.319h11.653v11.656c0 1.193-.474 2.338-1.318 3.181-.844.844-1.989 1.319-3.182 1.319L17 51.498zm14.345-18.845V20.999c0-1.194.474-2.338 1.318-3.182.844-.844 1.989-1.318 3.182-1.318h7.154c1.193 0 2.338.474 3.181 1.318.844.844 1.319 1.988 1.319 3.182v7.155c0 1.194-.475 2.338-1.319 3.182-.843.844-1.988 1.318-3.181 1.318l-11.654-.002zm-14.345 0c-1.193 0-2.338-.475-3.181-1.319-.844-.843-1.319-1.988-1.319-3.181v-7.154c0-1.194.475-2.338 1.319-3.182.843-.844 1.988-1.318 3.182-1.318h7.154c1.194 0 2.339.474 3.183 1.318.843.844 1.317 1.988 1.317 3.182v11.655L17 32.652z" opacity=".995"/>
    </g>
    <g filter="url(#filter0_d)">
        <path fill="#fff" d="M54 20c5.523 0 10-4.477 10-10S59.523 0 54 0 44 4.477 44 10s4.477 10 10 10z"/>
    </g>
    <path fill="#00ACF0" d="M57.403 8.612h-.348V7.223c0-.364-.072-.726-.212-1.063-.14-.337-.344-.643-.602-.901s-.564-.463-.901-.602c-.337-.14-.698-.212-1.063-.212s-.726.072-1.063.212c-.337.14-.643.344-.901.602-.259.258-.463.564-.603.901-.14.337-.211.699-.211 1.063v1.39h-.346c-.276 0-.541.11-.736.304-.196.196-.306.46-.306.736v4.861c0 .277.11.542.305.737.196.195.46.305.737.305h6.25c.276 0 .541-.11.736-.305.196-.195.306-.46.306-.737v-4.86c0-.277-.11-.541-.306-.737-.195-.195-.46-.304-.736-.305zm-4.977-1.389c.022-.475.227-.924.571-1.253.345-.33.803-.513 1.279-.513.476 0 .934.184 1.279.513.344.329.549.778.57 1.253v1.39h-3.7v-1.39zm2.315 4.964v1.058c0 .123-.049.24-.136.328-.087.086-.204.135-.327.135-.123 0-.24-.049-.328-.135-.086-.087-.135-.205-.135-.328v-1.058c-.177-.102-.315-.259-.393-.447-.078-.189-.091-.397-.039-.594.053-.197.17-.371.331-.495.162-.124.36-.192.564-.192.204 0 .402.068.564.192.161.124.278.298.33.495.053.197.04.405-.039.594-.078.188-.216.345-.392.447z"/>
    <defs>
        <linearGradient id="paint0_linear" x1="30.001" x2="30.001" y1="16.499" y2="51.502" gradientUnits="userSpaceOnUse">
            <stop stop-color="#EDEDED"/>
            <stop offset="1" stop-color="#C9C9C9"/>
        </linearGradient>
        <filter id="filter0_d" width="28" height="28" x="40" y="0" color-interpolation-filters="sRGB" filterUnits="userSpaceOnUse">
            <feFlood flood-opacity="0" result="BackgroundImageFix"/>
            <feColorMatrix in="SourceAlpha" values="0 0 0 0 0 0 0 0 0 0 0 0 0 0 0 0 0 0 127 0"/>
            <feOffset dy="4"/>
            <feGaussianBlur stdDeviation="2"/>
            <feColorMatrix values="0 0 0 0 0 0 0 0 0 0 0 0 0 0 0 0 0 0 0.16 0"/>
            <feBlend in2="BackgroundImageFix" result="effect1_dropShadow"/>
            <feBlend in="SourceGraphic" in2="effect1_dropShadow" result="shape"/>
        </filter>
    </defs>
</svg>
