<svg xmlns="http://www.w3.org/2000/svg" xmlns:xlink="http://www.w3.org/1999/xlink" width="60" height="60" viewBox="0 0 60 60">
  <defs>
    <linearGradient id="linear-gradient" x1="0.486" x2="0.486" y2="1" gradientUnits="objectBoundingBox">
      <stop offset="0" stop-color="#fff"/>
      <stop offset="1" stop-color="#f6f6f6"/>
    </linearGradient>
    <filter id="Path" x="0" y="0" width="60" height="60" filterUnits="userSpaceOnUse">
      <feOffset dy="2" input="SourceAlpha"/>
      <feGaussianBlur stdDeviation="2" result="blur"/>
      <feFlood flood-opacity="0.2"/>
      <feComposite operator="in" in2="blur"/>
      <feComposite in="SourceGraphic"/>
    </filter>
    <linearGradient id="linear-gradient-2" x1="0.146" y1="0.146" x2="0.854" y2="0.854" gradientUnits="objectBoundingBox">
      <stop offset="0" stop-color="#00acf0"/>
      <stop offset="1" stop-color="#1593b6"/>
    </linearGradient>
    <linearGradient id="linear-gradient-3" x1="0.5" x2="0.5" y2="1" gradientUnits="objectBoundingBox">
      <stop offset="0" stop-color="#00acf0"/>
      <stop offset="1" stop-color="#0694c9"/>
    </linearGradient>
  </defs>
  <g id="ic_seephoto" transform="translate(15902 -18081)">
    <rect id="Android_Atoms_Icon_48pxCamera_Preview_background" data-name="Android/Atoms/Icon/48pxCamera/Preview background" width="48" height="48" transform="translate(-15896 18085)" fill="#222" opacity="0"/>
    <g id="ic_lihat_gambar" data-name="ic_lihat gambar" transform="translate(-15896 18085)">
      <g transform="matrix(1, 0, 0, 1, -6, -4)" filter="url(#Path)">
        <circle id="Path-2" data-name="Path" cx="24" cy="24" r="24" transform="translate(6 4)" fill="url(#linear-gradient)"/>
      </g>
      <path id="Combined_Shape" data-name="Combined Shape" d="M19.413,21.08A11.885,11.885,0,0,1,0,11.884a11.884,11.884,0,0,1,20.287-8.4,11.888,11.888,0,0,1,1.1,15.543l6.09,6.09-2.015,2.015ZM5.295,5.261a9.318,9.318,0,1,0,6.59-2.73A9.331,9.331,0,0,0,5.295,5.261Z" transform="translate(10 11)" fill="url(#linear-gradient-2)"/>
      <path id="Fill_1" data-name="Fill 1" d="M.108,4.519A.718.718,0,0,0,.761,5.605l12.032-.121a.714.714,0,0,0,.524-1.225L10.1,1.191a.778.778,0,0,0-1.063,0L7.515,2.646a.777.777,0,0,1-1.063,0L3.9.21A.773.773,0,0,0,2.724.349Z" transform="translate(15 20)" fill="url(#linear-gradient-3)"/>
    </g>
  </g>
</svg>
