<svg xmlns="http://www.w3.org/2000/svg" width="60" height="60" fill="none" viewBox="0 0 60 60">
    <path fill="#009BBF" d="M30 0c5.933 0 11.734 1.76 16.667 5.056 4.934 3.296 8.779 7.982 11.05 13.463 2.27 5.482 2.864 11.514 1.706 17.334-1.157 5.82-4.014 11.165-8.21 15.36-4.195 4.196-9.54 7.053-15.36 8.21-5.82 1.158-11.852.564-17.334-1.707-5.481-2.27-10.167-6.115-13.463-11.049C1.759 41.734 0 35.933 0 30c0-7.956 3.16-15.587 8.787-21.213C14.413 3.16 22.044 0 30 0z" opacity=".1"/>
    <path fill="url(#paint0_linear)" d="M35.844 47.5c-1.194 0-2.339-.475-3.182-1.319-.844-.843-1.318-1.988-1.318-3.181V31.344h11.655c1.193 0 2.338.474 3.182 1.318.844.843 1.318 1.988 1.318 3.181v7.154c0 1.194-.474 2.338-1.318 3.182-.844.844-1.989 1.318-3.182 1.318l-7.155.002zm-18.848 0c-1.193 0-2.338-.475-3.182-1.319-.844-.843-1.318-1.988-1.318-3.181v-7.153c0-1.193.474-2.338 1.318-3.181.844-.844 1.989-1.318 3.182-1.318H28.65v11.654c0 1.194-.474 2.339-1.318 3.182-.844.844-1.989 1.319-3.182 1.319l-7.154-.004zm14.345-18.846V17c0-1.194.474-2.338 1.318-3.182.843-.844 1.988-1.318 3.182-1.318h7.153c1.194 0 2.338.474 3.182 1.318.844.844 1.318 1.989 1.318 3.182v7.155c0 1.194-.474 2.338-1.318 3.182-.844.844-1.988 1.318-3.182 1.318l-11.653-.002zm-14.345 0c-1.193 0-2.338-.475-3.182-1.319-.844-.843-1.318-1.988-1.318-3.181V17c0-1.194.474-2.338 1.318-3.182.844-.844 1.989-1.318 3.182-1.318h7.155c1.194 0 2.338.474 3.182 1.318.844.844 1.318 1.989 1.318 3.182v11.655l-11.655-.002z"/>
    <defs>
        <linearGradient id="paint0_linear" x1="29.997" x2="29.997" y1="12.5" y2="47.502" gradientUnits="userSpaceOnUse">
            <stop stop-color="#87D6E8"/>
            <stop offset="1" stop-color="#009BBF"/>
        </linearGradient>
    </defs>
</svg>
