<svg xmlns="http://www.w3.org/2000/svg" width="68" height="64" fill="none" viewBox="0 0 68 64">
    <path fill="#F3F3F3" d="M30 4c5.933 0 11.734 1.76 16.667 5.056 4.934 3.296 8.779 7.982 11.05 13.464 2.27 5.481 2.864 11.513 1.706 17.333-1.157 5.82-4.014 11.165-8.21 15.36-4.195 4.196-9.54 7.053-15.36 8.21-5.82 1.158-11.852.564-17.334-1.707-5.481-2.27-10.167-6.115-13.463-11.049C1.759 45.734 0 39.933 0 34c0-7.956 3.16-15.587 8.787-21.213C14.413 7.16 22.044 4 30 4z"/>
    <path fill="url(#paint0_linear)" d="M29.89 54.483l-6.64-6.638c-.175-.176-.296-.399-.348-.641-.05-.243-.03-.496.058-.728.09-.231.243-.432.444-.578.2-.147.44-.231.688-.245h13.34c.193 0 .383.041.557.123.22.108.406.276.536.485.129.21.196.45.194.696 0 .166-.035.33-.1.483-.064.153-.159.292-.277.408l-1.694 1.694-4.95 4.95c-.241.24-.568.375-.909.375-.34 0-.668-.135-.909-.375l.01-.01zM16.5 43.437c-.251 0-.502-.018-.75-.054-1.04-.118-2.016-.565-2.783-1.277-.767-.712-1.286-1.652-1.48-2.68l-.024-.116c-1.125-.265-2.129-.9-2.848-1.806-.72-.905-1.112-2.027-1.115-3.183v-15.43c.002-1.363.544-2.67 1.507-3.634.964-.963 2.27-1.505 3.633-1.507H43.5c1.187.002 2.338.414 3.256 1.166.919.753 1.549 1.8 1.784 2.963.118.028.235.06.35.096.974.25 1.845.8 2.487 1.574.643.774 1.024 1.73 1.09 2.735.022.193.033.388.033.583v15.645c-.014 1.291-.53 2.527-1.438 3.445-.908.918-2.138 1.446-3.43 1.474h-.268l-30.864.006z"/>
    <path fill="#fff" d="M16.498 35.603c.169 0 .335-.033.491-.098.156-.064.297-.158.416-.277.12-.12.214-.26.278-.416.065-.155.098-.322.098-.49 0-.34-.135-.667-.376-.907-.24-.24-.566-.376-.907-.376H12.64c-.34 0-.666.135-.907.376-.24.24-.375.566-.375.907 0 .168.033.335.098.49.064.156.159.297.278.416.119.119.26.213.416.277.155.065.322.098.49.098h3.858zM39.643 20.172h3.858c.169 0 .335-.033.491-.097.156-.064.297-.159.416-.278.12-.119.214-.26.278-.416.065-.155.098-.322.098-.49 0-.34-.135-.666-.376-.907-.24-.24-.566-.376-.907-.376h-3.858c-.34 0-.666.136-.907.376-.24.24-.375.567-.375.907 0 .168.033.335.098.49.064.156.158.297.278.416.119.12.26.213.416.278.155.064.322.097.49.097zM22.286 30.343c.256 0 .5-.102.682-.283.18-.18.282-.426.282-.682v-2.412h1.815l1.422 2.85c.08.16.204.295.356.389.152.094.328.144.507.144.15 0 .298-.035.432-.102.113-.057.214-.135.297-.231.083-.096.146-.207.186-.327.04-.12.056-.247.047-.374-.01-.126-.043-.25-.1-.363l-1.333-2.665c.443-.322.804-.744 1.053-1.232.25-.488.38-1.028.382-1.576 0-.927-.37-1.816-1.025-2.472-.655-.655-1.544-1.024-2.471-1.025h-2.53c-.256 0-.502.102-.683.283-.18.18-.282.426-.282.682v8.439c.002.254.104.497.284.677.18.179.425.28.679.28zm2.53-8.44c.416 0 .815.166 1.109.46.294.294.459.693.459 1.108 0 .416-.166.814-.46 1.108-.294.293-.692.458-1.108.458H23.25v-3.135l1.566.002zM30.723 33.719c.256 0 .5-.102.682-.283.18-.18.282-.426.282-.682v-2.412h1.566c.927 0 1.816-.37 2.471-1.024.656-.656 1.025-1.544 1.026-2.47-.001-.928-.37-1.817-1.025-2.472-.656-.656-1.545-1.025-2.472-1.025h-2.53c-.256 0-.501.101-.682.282-.181.181-.283.426-.283.682v8.44c0 .255.102.5.283.681.18.181.426.283.682.283zm4.1-6.87c-.002.415-.167.813-.461 1.107-.295.293-.693.457-1.109.457h-1.566v-3.135h1.566c.206 0 .41.04.6.12.19.078.364.194.51.34.145.145.26.318.339.509.079.19.119.394.119.6l.001.002z"/>
    <g filter="url(#filter0_d)">
        <path fill="#fff" d="M54 20c5.523 0 10-4.477 10-10S59.523 0 54 0 44 4.477 44 10s4.477 10 10 10z"/>
    </g>
    <path fill="#00ACF0" d="M57.403 8.612h-.348V7.223c0-.364-.072-.726-.212-1.063-.14-.337-.344-.643-.602-.901s-.564-.463-.901-.602c-.337-.14-.698-.212-1.063-.212s-.726.072-1.063.212c-.337.14-.643.344-.901.602-.259.258-.463.564-.603.901-.14.337-.211.699-.211 1.063v1.39h-.346c-.276 0-.541.11-.736.304-.196.196-.306.46-.306.736v4.861c0 .277.11.542.305.737.196.195.46.305.737.305h6.25c.276 0 .541-.11.736-.305.196-.195.306-.46.306-.737v-4.86c0-.277-.11-.541-.306-.737-.195-.195-.46-.304-.736-.305zm-4.977-1.389c.022-.475.227-.924.571-1.253.345-.33.803-.513 1.279-.513.476 0 .934.184 1.279.513.344.329.549.778.57 1.253v1.39h-3.7v-1.39zm2.315 4.964v1.058c0 .123-.049.24-.136.328-.087.086-.204.135-.327.135-.123 0-.24-.049-.328-.135-.086-.087-.135-.205-.135-.328v-1.058c-.177-.102-.315-.259-.393-.447-.078-.189-.091-.397-.039-.594.053-.197.17-.371.331-.495.162-.124.36-.192.564-.192.204 0 .402.068.564.192.161.124.278.298.33.495.053.197.04.405-.039.594-.078.188-.216.345-.392.447z"/>
    <defs>
        <linearGradient id="paint0_linear" x1="30" x2="30" y1="13.75" y2="54.867" gradientUnits="userSpaceOnUse">
            <stop stop-color="#EDEDED"/>
            <stop offset="1" stop-color="#C9C9C9"/>
        </linearGradient>
        <filter id="filter0_d" width="28" height="28" x="40" y="0" color-interpolation-filters="sRGB" filterUnits="userSpaceOnUse">
            <feFlood flood-opacity="0" result="BackgroundImageFix"/>
            <feColorMatrix in="SourceAlpha" values="0 0 0 0 0 0 0 0 0 0 0 0 0 0 0 0 0 0 127 0"/>
            <feOffset dy="4"/>
            <feGaussianBlur stdDeviation="2"/>
            <feColorMatrix values="0 0 0 0 0 0 0 0 0 0 0 0 0 0 0 0 0 0 0.16 0"/>
            <feBlend in2="BackgroundImageFix" result="effect1_dropShadow"/>
            <feBlend in="SourceGraphic" in2="effect1_dropShadow" result="shape"/>
        </filter>
    </defs>
</svg>
