<svg xmlns="http://www.w3.org/2000/svg" width="68" height="64" fill="none" viewBox="0 0 68 64">
    <path fill="#F3F3F3" d="M30 4c5.933 0 11.734 1.76 16.667 5.056 4.934 3.296 8.779 7.982 11.05 13.464 2.27 5.481 2.864 11.513 1.706 17.333-1.157 5.82-4.014 11.165-8.21 15.36-4.195 4.196-9.54 7.053-15.36 8.21-5.82 1.158-11.852.564-17.334-1.707-5.481-2.27-10.167-6.115-13.463-11.049C1.759 45.734 0 39.933 0 34c0-7.956 3.16-15.587 8.787-21.213C14.413 7.16 22.044 4 30 4z"/>
    <path fill="url(#paint0_linear)" d="M16.3 46.087l1.46-3.285h-.021.022l.08-.178L27.54 20.5h17.193c1.022.002 2.013.357 2.803 1.005.791.648 1.334 1.55 1.536 2.552h.023v-.053c1.983 0 3.378 2.46 3.378 3.952v4.142l.027 9.69c.043.567-.035 1.138-.229 1.673-.194.535-.5 1.022-.898 1.43-.397.407-.877.724-1.407.931-.53.208-1.098.3-1.666.27l-32-.005zM8.45 38.24c-.129.006-.256-.015-.376-.06-.12-.046-.228-.115-.32-.204-.093-.088-.166-.195-.216-.312-.05-.118-.076-.244-.076-.372s.026-.255.076-.372c.05-.118.123-.224.215-.313.093-.088.202-.157.321-.203.12-.045.247-.066.375-.061h6.64c.244.01.476.114.646.29.17.178.265.413.265.659 0 .245-.095.48-.265.658-.17.176-.402.28-.647.29H8.45zm2.85-7.065c-.253 0-.494-.1-.672-.277-.178-.178-.278-.42-.278-.671 0-.252.1-.493.278-.671.178-.178.42-.278.671-.278h6.633c.252 0 .493.1.671.278.178.178.278.42.278.67 0 .252-.1.494-.278.672-.178.178-.42.277-.67.277h-6.634zm2.85-7.858c-.252 0-.494-.1-.672-.278-.178-.178-.278-.42-.278-.67 0-.252.1-.494.278-.672.178-.177.42-.277.671-.277h6.629c.251 0 .493.1.67.277.178.178.278.42.278.671 0 .252-.1.493-.277.671-.178.178-.42.278-.671.278h-6.629z"/>
    <path fill="#fff" d="M42.644 25.416h2.954c.129 0 .256-.025.376-.075.119-.049.227-.121.318-.212s.164-.2.213-.319c.05-.119.075-.246.075-.375 0-.13-.025-.257-.074-.377-.05-.119-.122-.227-.213-.319-.091-.09-.2-.163-.32-.213-.118-.049-.246-.074-.375-.074h-2.954c-.129 0-.257.025-.376.074-.12.05-.228.122-.32.213-.09.092-.163.2-.212.32-.05.119-.075.247-.074.376 0 .129.025.256.074.375.05.12.122.228.214.319.09.091.2.163.318.212.12.05.247.075.376.075zM29.356 33.2c.097 0 .193-.019.283-.056.09-.037.17-.091.239-.16.069-.068.123-.15.16-.239.037-.09.056-.185.056-.282v-1.845h1.39l1.087 2.176c.061.122.156.225.272.297.116.072.25.11.388.111.114 0 .227-.027.33-.078.175-.088.307-.241.369-.427.061-.186.047-.388-.04-.563l-1.02-2.04c.338-.247.615-.57.805-.943.191-.374.291-.787.292-1.206 0-.71-.283-1.39-.785-1.892-.501-.502-1.181-.784-1.89-.784h-1.937c-.196 0-.384.077-.522.216-.138.138-.216.326-.216.522v6.459c0 .195.079.382.217.52.14.138.327.215.522.215zm1.937-6.458c.157 0 .313.03.459.09.146.061.278.15.39.261.11.111.199.244.26.39.06.145.09.301.09.459 0 .157-.03.313-.09.459-.061.145-.15.278-.26.39-.112.11-.245.199-.39.26-.146.06-.302.09-.46.09h-1.2v-2.4h1.2zM35.817 35.783c.195 0 .383-.078.521-.216.139-.139.217-.326.217-.522V33.2h1.2c.709 0 1.389-.283 1.89-.784.502-.501.784-1.181.786-1.89-.001-.71-.283-1.39-.785-1.892-.502-.501-1.182-.784-1.891-.784h-1.937c-.196 0-.383.077-.522.216-.138.138-.216.326-.216.522v6.459c0 .195.078.382.216.52s.325.216.52.216zm3.138-5.259c0 .318-.127.624-.352.849-.225.225-.53.351-.848.351h-1.2v-2.4h1.2c.157 0 .313.031.459.091.145.06.278.15.39.26.11.112.199.244.26.39.06.145.09.301.09.46z"/>
    <g filter="url(#filter0_d)">
        <path fill="#fff" d="M54 20c5.523 0 10-4.477 10-10S59.523 0 54 0 44 4.477 44 10s4.477 10 10 10z"/>
    </g>
    <path fill="#00ACF0" d="M57.403 8.612h-.348V7.223c0-.364-.072-.726-.212-1.063-.14-.337-.344-.643-.602-.901s-.564-.463-.901-.602c-.337-.14-.698-.212-1.063-.212s-.726.072-1.063.212c-.337.14-.643.344-.901.602-.259.258-.463.564-.603.901-.14.337-.211.699-.211 1.063v1.39h-.346c-.276 0-.541.11-.736.304-.196.196-.306.46-.306.736v4.861c0 .277.11.542.305.737.196.195.46.305.737.305h6.25c.276 0 .541-.11.736-.305.196-.195.306-.46.306-.737v-4.86c0-.277-.11-.541-.306-.737-.195-.195-.46-.304-.736-.305zm-4.977-1.389c.022-.475.227-.924.571-1.253.345-.33.803-.513 1.279-.513.476 0 .934.184 1.279.513.344.329.549.778.57 1.253v1.39h-3.7v-1.39zm2.315 4.964v1.058c0 .123-.049.24-.136.328-.087.086-.204.135-.327.135-.123 0-.24-.049-.328-.135-.086-.087-.135-.205-.135-.328v-1.058c-.177-.102-.315-.259-.393-.447-.078-.189-.091-.397-.039-.594.053-.197.17-.371.331-.495.162-.124.36-.192.564-.192.204 0 .402.068.564.192.161.124.278.298.33.495.053.197.04.405-.039.594-.078.188-.216.345-.392.447z"/>
    <defs>
        <linearGradient id="paint0_linear" x1="29.987" x2="29.987" y1="20.5" y2="46.097" gradientUnits="userSpaceOnUse">
            <stop stop-color="#EDEDED"/>
            <stop offset="1" stop-color="#C9C9C9"/>
        </linearGradient>
        <filter id="filter0_d" width="28" height="28" x="40" y="0" color-interpolation-filters="sRGB" filterUnits="userSpaceOnUse">
            <feFlood flood-opacity="0" result="BackgroundImageFix"/>
            <feColorMatrix in="SourceAlpha" values="0 0 0 0 0 0 0 0 0 0 0 0 0 0 0 0 0 0 127 0"/>
            <feOffset dy="4"/>
            <feGaussianBlur stdDeviation="2"/>
            <feColorMatrix values="0 0 0 0 0 0 0 0 0 0 0 0 0 0 0 0 0 0 0.16 0"/>
            <feBlend in2="BackgroundImageFix" result="effect1_dropShadow"/>
            <feBlend in="SourceGraphic" in2="effect1_dropShadow" result="shape"/>
        </filter>
    </defs>
</svg>
