<svg xmlns="http://www.w3.org/2000/svg" width="60" height="60" fill="none" viewBox="0 0 60 60">
    <path fill="#38B4FD" d="M30 0c5.933 0 11.734 1.76 16.667 5.056 4.934 3.296 8.779 7.982 11.05 13.463 2.27 5.482 2.864 11.514 1.706 17.334-1.157 5.82-4.014 11.165-8.21 15.36-4.195 4.196-9.54 7.053-15.36 8.21-5.82 1.158-11.852.564-17.334-1.707-5.481-2.27-10.167-6.115-13.463-11.049C1.759 41.734 0 35.933 0 30c0-7.956 3.16-15.587 8.787-21.213C14.413 3.16 22.044 0 30 0z" opacity=".1"/>
    <path fill="url(#paint0_linear)" d="M16.303 42.087l1.46-3.285h-.021.022l.08-.178L27.543 16.5h17.193c1.022.002 2.013.357 2.803 1.005.791.648 1.334 1.55 1.536 2.552h.023v-.053c1.983 0 3.378 2.46 3.378 3.952v4.142l.027 9.69c.043.567-.035 1.138-.229 1.673-.194.535-.5 1.022-.898 1.43-.397.407-.877.724-1.407.931-.53.208-1.098.3-1.666.27l-32-.005zm-7.85-7.847c-.129.006-.256-.015-.376-.06-.12-.046-.228-.115-.32-.204-.093-.088-.166-.195-.216-.312-.05-.118-.076-.244-.076-.372s.026-.255.076-.372c.05-.118.123-.224.215-.313.093-.088.202-.157.321-.203.12-.045.247-.066.375-.061h6.64c.244.01.476.114.646.29.17.178.265.413.265.659 0 .245-.095.48-.265.658-.17.176-.402.28-.647.29H8.452zm2.85-7.065c-.253 0-.494-.1-.672-.277-.178-.178-.278-.42-.278-.671 0-.252.1-.493.278-.671.178-.178.42-.278.671-.278h6.633c.252 0 .493.1.67.278.179.178.279.42.279.67 0 .252-.1.494-.278.672-.178.178-.42.277-.67.277h-6.634zm2.85-7.858c-.253 0-.494-.1-.672-.278-.178-.178-.278-.42-.278-.67 0-.252.1-.494.278-.672.178-.177.42-.277.671-.277h6.629c.251 0 .492.1.67.277.178.178.278.42.278.671 0 .252-.1.493-.278.671-.178.178-.419.278-.67.278h-6.629z"/>
    <path fill="#fff" d="M41.409 22.03h3.322c.293 0 .573-.115.78-.322.207-.207.324-.487.324-.78 0-.145-.028-.288-.084-.422-.055-.134-.137-.256-.24-.358-.102-.103-.223-.184-.357-.24-.134-.055-.278-.084-.423-.084H41.41c-.293 0-.574.116-.781.324-.207.207-.323.487-.323.78 0 .293.117.573.324.78.207.207.487.323.78.323zM26.46 30.787c.22 0 .432-.087.587-.243.156-.156.244-.367.244-.588V27.88h1.569l1.224 2.448c.07.138.175.254.306.335.131.08.282.124.436.124.13 0 .257-.03.372-.088.098-.049.185-.116.256-.199.072-.082.126-.178.16-.282.035-.103.049-.212.041-.321-.008-.109-.037-.215-.086-.313L30.42 27.29c.382-.277.693-.64.908-1.06.214-.42.327-.886.328-1.358 0-.798-.317-1.564-.882-2.129s-1.33-.882-2.13-.883H26.46c-.22 0-.432.088-.588.244-.155.156-.243.367-.243.587v7.266c0 .22.087.432.243.588.156.156.367.243.588.243zm2.18-7.266c.357 0 .7.143.954.396.253.253.395.596.395.954s-.142.702-.395.955-.597.395-.955.395h-1.35v-2.7h1.35zM33.728 33.695c.22 0 .432-.088.587-.244.156-.156.244-.367.244-.587v-2.076h1.35c.798 0 1.564-.318 2.128-.882.565-.564.883-1.33.884-2.127 0-.8-.318-1.565-.883-2.13-.564-.565-1.33-.882-2.13-.882H33.73c-.109 0-.217.021-.318.063-.1.042-.192.103-.27.18-.076.077-.137.169-.18.27-.041.1-.063.208-.063.318v7.266c0 .22.088.43.243.587.156.155.367.243.587.244zm3.53-5.916c0 .358-.143.701-.396.954s-.596.396-.955.396h-1.35v-2.7h1.35c.359 0 .702.142.955.395s.395.597.395.955z"/>
    <defs>
        <linearGradient id="paint0_linear" x1="29.99" x2="29.99" y1="16.5" y2="42.097" gradientUnits="userSpaceOnUse">
            <stop stop-color="#4ECFFC"/>
            <stop offset="1" stop-color="#38B4FD"/>
        </linearGradient>
    </defs>
</svg>
