<svg xmlns="http://www.w3.org/2000/svg" width="16" height="16" fill="none" viewBox="0 0 16 16">
    <path fill="#05DB74" d="M0 8c0-2.122.842-4.156 2.343-5.657C3.843.843 5.878 0 8 0s4.157.843 5.657 2.343S16 5.878 16 8s-.842 4.156-2.343 5.657C12.157 15.157 10.122 16 8 16s-4.157-.843-5.657-2.343S0 10.122 0 8z"/>
    <path fill="#fff" stroke="#fff" stroke-miterlimit="10" stroke-width=".3" d="M10.703 6.225h-1.48c.331-.62.497-1.314.48-2.016.016-.179-.03-.357-.132-.505-.102-.147-.252-.254-.424-.303-.173-.048-.357-.035-.52.038-.164.073-.297.201-.376.362-.098.212-.16.44-.182.673-.066.268-.193.518-.37.73-.177.212-.4.381-.653.494-.265.087-.514.218-.737.386-.167.126-.3.29-.39.48-.15.316-.5.235-.558.247-.078-.183-.217-.333-.394-.425-.176-.092-.379-.12-.573-.08-.195.039-.37.145-.496.3-.126.153-.195.346-.195.545v.34c0 .058.023.114.065.155.04.042.097.065.155.065.058 0 .114-.023.156-.065.041-.04.064-.097.064-.155v-.34c0-.113.045-.22.124-.3.08-.08.188-.125.3-.125.113 0 .221.045.3.125.08.08.125.187.125.3v3.16c0 .112-.045.22-.124.3-.08.08-.188.124-.3.124-.113 0-.22-.044-.3-.124-.08-.08-.125-.188-.125-.3V8.517c0-.059-.023-.115-.064-.156-.042-.041-.098-.064-.156-.064-.058 0-.114.023-.155.064-.042.041-.065.097-.065.156v1.794c0 .198.069.39.194.545.125.154.3.26.494.3.194.04.397.013.573-.078.176-.091.316-.24.395-.422.285-.041.575.017.822.166.396.295.875.458 1.368.466h1.234c.058 0 .114-.023.156-.065.041-.04.064-.097.064-.155 0-.059-.023-.114-.064-.156-.042-.041-.098-.064-.156-.064H7.55c-.399-.008-.786-.14-1.107-.377-.296-.202-.655-.291-1.012-.252v-2.97h.1c.165 0 .327-.047.466-.136.14-.088.251-.214.322-.363.059-.125.147-.233.256-.316.196-.147.414-.26.647-.333.316-.14.595-.351.817-.616.22-.266.378-.578.46-.914v-.017c.017-.187.064-.37.138-.542.2-.372.6-.185.625.22.016.683-.163 1.356-.518 1.939-.03.048-.047.104-.049.161-.001.057.013.114.04.164.028.05.069.092.118.12.05.03.106.045.163.045h1.687c.095 0 .185.037.252.104s.105.158.105.252c0 .095-.038.186-.105.252-.067.067-.157.105-.252.105h-.222c-.058 0-.114.023-.155.064-.042.041-.065.097-.065.156 0 .058.023.114.065.155.04.042.097.065.155.065h.2c.085 0 .167.03.231.085.065.055.108.131.121.215.008.05.006.1-.006.149-.012.048-.034.094-.065.134l-.034.037-.012.01c-.019.017-.06.044-.058.042-.118.05-.248.066-.375.048-.058 0-.114.023-.155.064-.042.041-.065.097-.065.156 0 .058.023.114.065.155.04.042.097.065.155.065.083 0 .164.029.228.082.064.053.108.127.123.21.016.08.002.166-.038.239-.04.073-.104.13-.182.16-.078.024-.159.032-.24.025-.058 0-.114.022-.156.062-.042.041-.066.097-.066.155-.001.059.022.115.062.157.041.041.097.065.155.066.051 0 .102.01.15.03.03.015.06.034.088.057.055.047.095.111.113.182.018.07.014.145-.011.214-.026.068-.072.127-.131.169-.06.041-.132.064-.205.064H9.81c-.058 0-.114.023-.155.064-.042.041-.065.097-.065.156 0 .058.023.114.065.155.04.042.097.065.155.065h.563c.153-.001.303-.046.431-.129s.23-.202.293-.341c.063-.14.085-.294.063-.445-.022-.152-.087-.294-.187-.41.166-.13.274-.32.3-.528.026-.21-.03-.42-.159-.587.1-.065.183-.152.245-.254.062-.101.1-.215.112-.334.013-.118-.002-.237-.042-.35-.04-.111-.104-.213-.188-.297.117-.11.2-.25.235-.407.036-.156.024-.319-.034-.468-.057-.15-.159-.278-.29-.37-.132-.09-.288-.14-.448-.141z"/>
</svg>
