<svg width="8" height="8" viewBox="0 0 8 8" fill="none" xmlns="http://www.w3.org/2000/svg">
<path d="M3.05275 6.57675C3.02118 6.60835 2.98368 6.63341 2.94242 6.65052C2.90115 6.66762 2.85692 6.67642 2.81225 6.67642C2.76758 6.67642 2.72335 6.66762 2.68208 6.65052C2.64082 6.63341 2.60333 6.60835 2.57175 6.57675L0.649751 4.65475C0.602281 4.60738 0.56462 4.55111 0.538923 4.48917C0.513227 4.42722 0.5 4.36082 0.5 4.29375C0.5 4.22669 0.513227 4.16028 0.538923 4.09834C0.56462 4.03639 0.602281 3.98012 0.649751 3.93275L0.889751 3.69375C0.937123 3.64628 0.993392 3.60862 1.05534 3.58292C1.11728 3.55723 1.18369 3.544 1.25075 3.544C1.31782 3.544 1.38422 3.55723 1.44617 3.58292C1.50811 3.60862 1.56438 3.64628 1.61175 3.69375L2.81175 4.89375L6.05375 1.64975C6.10112 1.60228 6.15739 1.56462 6.21934 1.53892C6.28128 1.51323 6.34769 1.5 6.41475 1.5C6.48182 1.5 6.54822 1.51323 6.61017 1.53892C6.67211 1.56462 6.72838 1.60228 6.77575 1.64975L7.01675 1.89375C7.06422 1.94112 7.10188 1.99739 7.12758 2.05934C7.15328 2.12128 7.1665 2.18769 7.1665 2.25475C7.1665 2.32182 7.15328 2.38822 7.12758 2.45017C7.10188 2.51211 7.06422 2.56838 7.01675 2.61575L3.05275 6.57675Z" fill="#4AD865"/>
</svg>
