<svg xmlns="http://www.w3.org/2000/svg" width="20" height="20" fill="none" viewBox="0 0 20 20">
    <path fill="#05DB74" d="M0 10c0-2.652 1.053-5.196 2.928-7.07C4.804 1.053 7.348 0 10 0s5.196 1.054 7.072 2.93C18.947 4.803 20 7.347 20 10s-1.053 5.196-2.928 7.07C15.196 18.947 12.652 20 10 20s-5.196-1.054-7.072-2.93C1.053 15.197 0 12.653 0 10z"/>
    <path fill="#fff" stroke="#fff" stroke-miterlimit="10" stroke-width=".3" d="M13.379 7.78h-1.85c.414-.774.62-1.642.6-2.52.02-.223-.039-.446-.166-.63-.127-.185-.314-.319-.53-.38-.215-.06-.445-.043-.65.048-.204.091-.37.251-.47.452-.123.266-.2.55-.227.841-.083.336-.24.648-.462.913-.222.265-.501.476-.817.617-.331.11-.642.273-.92.483-.21.157-.377.363-.488.6-.188.395-.625.294-.698.309-.098-.229-.272-.417-.492-.532-.22-.115-.474-.15-.717-.1-.244.05-.463.182-.62.374-.157.193-.243.434-.243.683v.425c0 .073.029.143.08.194.052.052.122.08.195.08.073 0 .143-.028.194-.08.052-.051.08-.121.08-.194v-.425c0-.141.057-.276.156-.376.1-.1.235-.155.375-.155.141 0 .276.056.376.155.099.1.155.235.155.376v3.95c0 .14-.056.275-.155.375-.1.1-.235.155-.376.155-.14 0-.275-.056-.375-.155-.1-.1-.155-.235-.155-.375v-2.243c0-.073-.03-.143-.08-.194-.052-.052-.122-.08-.195-.08-.073 0-.143.028-.195.08-.051.051-.08.121-.08.194v2.243c0 .248.085.488.242.68.156.193.374.326.617.377.243.05.496.016.717-.098.22-.114.394-.3.494-.528.356-.052.719.022 1.027.207.495.37 1.093.573 1.71.583h1.543c.073 0 .143-.03.194-.08.052-.052.08-.122.08-.195 0-.073-.028-.143-.08-.195-.052-.051-.121-.08-.194-.08H9.437c-.498-.01-.982-.175-1.383-.471-.371-.253-.82-.364-1.265-.315V9.06h.125c.206 0 .408-.06.582-.17.175-.11.314-.268.403-.455.073-.155.183-.29.32-.395.244-.183.517-.323.808-.416.395-.175.744-.438 1.021-.77.277-.332.473-.723.574-1.142V5.69c.023-.233.081-.462.174-.677.25-.465.75-.231.781.276.02.853-.204 1.694-.647 2.423-.038.06-.06.13-.061.201-.002.072.015.143.05.205.035.063.086.115.147.151.062.036.132.055.204.055h2.109c.118 0 .231.047.315.13.083.084.13.198.13.316s-.047.231-.13.315c-.084.083-.197.13-.315.13H13.1c-.073 0-.143.03-.194.08-.052.053-.08.122-.08.195 0 .073.028.143.08.195.051.051.121.08.194.08h.25c.106 0 .208.038.29.107.08.069.133.164.15.268.01.062.008.126-.007.187-.016.06-.043.117-.082.167l-.042.046-.015.014c-.024.02-.076.054-.073.051-.147.062-.31.083-.468.06-.073 0-.143.03-.195.08-.051.053-.08.122-.08.195 0 .073.029.143.08.195.052.051.122.08.195.08.104 0 .205.037.285.103.08.067.134.16.154.261.02.103.002.209-.048.3s-.13.162-.228.2c-.097.03-.198.04-.3.031-.072 0-.143.028-.195.079-.052.05-.082.12-.083.193 0 .073.028.144.079.196.05.052.12.082.193.082.064.001.127.014.186.038.04.02.078.043.112.071.069.06.118.14.14.228.023.088.019.181-.013.267-.032.085-.09.16-.164.211-.075.052-.165.08-.256.08h-.705c-.073 0-.143.03-.194.08-.052.053-.08.122-.08.195 0 .073.028.143.08.195.051.051.121.08.194.08h.704c.191 0 .378-.057.539-.16.16-.105.287-.253.366-.427.08-.174.106-.367.079-.556-.028-.19-.109-.367-.234-.512.207-.162.342-.4.375-.66.033-.262-.039-.526-.199-.735.124-.081.23-.19.306-.316.078-.127.126-.27.14-.418.016-.148-.002-.297-.052-.437-.05-.14-.13-.267-.235-.372.146-.137.249-.314.294-.509.045-.195.03-.399-.042-.585-.073-.187-.2-.347-.364-.461-.164-.114-.36-.176-.56-.178z"/>
</svg>
