<svg xmlns="http://www.w3.org/2000/svg" width="60" height="60" fill="none" viewBox="0 0 60 60">
    <path fill="#FD5F65" d="M30 0c5.933 0 11.734 1.76 16.667 5.056 4.934 3.296 8.779 7.982 11.05 13.463 2.27 5.482 2.864 11.514 1.706 17.334-1.157 5.82-4.014 11.165-8.21 15.36-4.195 4.196-9.54 7.053-15.36 8.21-5.82 1.158-11.852.564-17.334-1.707-5.481-2.27-10.167-6.115-13.463-11.049C1.759 41.734 0 35.933 0 30c0-7.956 3.16-15.587 8.787-21.213C14.413 3.16 22.044 0 30 0z" opacity=".1"/>
    <path fill="url(#paint0_linear)" d="M29.89 50.483l-6.64-6.638c-.175-.176-.296-.399-.348-.641-.05-.243-.03-.496.058-.728.09-.231.243-.432.444-.578.2-.147.44-.231.688-.245H37.43c.17 0 .34.033.497.099.158.065.3.161.42.283.12.121.215.265.279.424.064.158.095.327.092.498 0 .166-.035.33-.1.483-.064.153-.159.292-.277.408l-1.694 1.694-4.95 4.95c-.12.119-.26.214-.417.278-.155.065-.323.098-.491.098-.169 0-.336-.033-.492-.098-.156-.065-.297-.16-.416-.279l.008-.008zM16.5 39.437c-.251 0-.502-.018-.75-.054-1.04-.117-2.016-.564-2.784-1.276-.767-.711-1.287-1.65-1.482-2.678-.009-.04-.018-.08-.025-.119-1.125-.266-2.127-.903-2.845-1.808-.719-.905-1.11-2.026-1.114-3.181v-15.43c.002-1.363.544-2.67 1.508-3.633.963-.964 2.27-1.506 3.633-1.508H43.5c1.188.001 2.338.413 3.256 1.166.919.752 1.55 1.8 1.784 2.963.121.03.24.063.357.1.973.25 1.842.801 2.483 1.575.642.773 1.022 1.73 1.087 2.732.022.194.033.388.033.582v15.635c-.011 1.294-.526 2.532-1.436 3.452-.91.92-2.141 1.449-3.434 1.476h-.266l-30.864.006z"/>
    <path fill="#fff" d="M16.496 31.603c.168 0 .335-.033.49-.098.156-.064.298-.158.417-.277.119-.12.213-.26.278-.416.064-.155.098-.322.098-.49 0-.34-.136-.667-.376-.907s-.567-.376-.907-.376h-3.858c-.34 0-.666.135-.907.376-.24.24-.376.566-.376.907 0 .168.034.335.098.49.065.156.16.297.278.416.12.119.26.213.416.277.156.065.323.098.491.098h3.858zM39.642 16.172H43.5c.168 0 .335-.033.49-.097.156-.064.297-.159.417-.278.119-.119.213-.26.278-.415.064-.156.097-.323.097-.491 0-.34-.135-.666-.375-.907-.24-.24-.567-.376-.907-.376h-3.858c-.34 0-.667.135-.907.376-.24.24-.376.567-.376.907 0 .168.034.335.098.49.065.156.159.297.278.416.12.12.26.213.416.278.156.064.322.097.49.097zM22.283 26.343c.256 0 .501-.102.682-.283.181-.18.283-.426.283-.682v-2.412h1.815l1.422 2.85c.08.16.204.295.356.389.152.094.327.144.506.144.15 0 .298-.035.432-.102.114-.057.215-.135.297-.231.084-.096.147-.207.187-.327.04-.12.056-.247.046-.374-.009-.126-.042-.25-.1-.363l-1.333-2.665c.444-.322.805-.744 1.054-1.232.25-.488.38-1.028.382-1.576-.001-.927-.37-1.816-1.025-2.472-.656-.655-1.545-1.024-2.472-1.025h-2.53c-.256 0-.501.102-.682.283-.181.18-.283.426-.283.682v8.439c.002.254.105.497.285.677.18.179.424.28.678.28zm2.53-8.44c.417 0 .815.166 1.11.46.293.294.458.693.458 1.108 0 .416-.165.814-.46 1.108-.293.293-.692.458-1.107.458h-1.566v-3.135l1.566.002zM30.718 29.719c.256 0 .502-.102.682-.283.181-.18.283-.426.283-.682v-2.412h1.566c.927 0 1.815-.37 2.47-1.024.656-.656 1.025-1.544 1.026-2.47 0-.928-.369-1.817-1.025-2.472-.655-.656-1.544-1.025-2.471-1.025h-2.53c-.256 0-.502.101-.683.282-.18.181-.282.426-.282.682v8.44c0 .255.101.5.282.681.181.181.427.283.682.283zm4.1-6.87c0 .415-.167.813-.46 1.107-.295.293-.694.457-1.11.457h-1.565v-3.135h1.566c.206 0 .41.04.6.12.19.078.363.194.509.34.145.145.26.318.34.509.078.19.119.394.118.6l.002.002z"/>
    <defs>
        <linearGradient id="paint0_linear" x1="30" x2="30" y1="9.75" y2="50.868" gradientUnits="userSpaceOnUse">
            <stop stop-color="#FD856E"/>
            <stop offset="1" stop-color="#FD5F65"/>
        </linearGradient>
    </defs>
</svg>
