<svg width="16" height="16" fill="none" xmlns="http://www.w3.org/2000/svg">
    <path d="M11.183 10.022c.359.277.707.548 1.056.816l1.3 1a1.6 1.6 0 0 1-.012 2.526 1.541 1.541 0 0 1-.913.309 1.593 1.593 0 0 1-1.378-.758 332.3 332.3 0 0 1-1.482-2.307c-.09-.142-.16-.171-.32-.08a5.422 5.422 0 0 1-6.752-1.155A5.135 5.135 0 0 1 1.44 5.816a5.234 5.234 0 0 1 3.854-4.239 5.09 5.09 0 0 1 4.32.594 5.256 5.256 0 0 1 2.59 5.023 5.2 5.2 0 0 1-.851 2.553c-.054.08-.106.168-.17.275zm-8.62-3.224a4.2 4.2 0 0 0 4.206 4.219 4.233 4.233 0 0 0 4.235-4.253 4.223 4.223 0 0 0-8.122-1.58 4.214 4.214 0 0 0-.32 1.614z" fill="#31B1CC"/>
    <path d="m6.195 7.078 1.738-1.647a1.31 1.31 0 0 1 .15-.135.577.577 0 0 1 .756.085.533.533 0 0 1-.078.7c-.495.491-1 .975-1.5 1.461-.215.21-.429.42-.647.625a.57.57 0 0 1-.915-.03c-.278-.295-.565-.58-.849-.869a.548.548 0 0 1-.038-.83c.226-.218.515-.185.792.085.191.18.383.358.591.555z" fill="#31B1CC"/>
</svg>
