<svg xmlns="http://www.w3.org/2000/svg" width="16" height="16" fill="none" viewBox="0 0 16 16">
    <path fill="#BBB" d="M8 1.333c-1.319 0-2.608.391-3.704 1.124-1.096.732-1.95 1.773-2.455 2.992-.505 1.218-.637 2.558-.38 3.852.257 1.293.892 2.48 1.825 3.413.932.933 2.12 1.568 3.413 1.825 1.294.257 2.634.125 3.852-.38 1.219-.504 2.26-1.359 2.992-2.455.733-1.096 1.124-2.385 1.124-3.704-.002-1.768-.705-3.462-1.955-4.712C11.462 2.038 9.768 1.335 8 1.333z"/>
    <path fill="#fff" d="M11.378 6.587l-3.611 3.611c-.052.052-.113.093-.18.12-.068.029-.14.043-.213.043-.073 0-.145-.014-.213-.042-.067-.028-.128-.07-.18-.121L5.175 8.392c-.104-.104-.163-.246-.163-.393 0-.147.059-.289.163-.393.104-.104.246-.163.393-.163.147 0 .289.059.393.163l1.413 1.413 3.218-3.218c.104-.104.246-.163.393-.163.147 0 .289.059.393.163.104.104.163.246.163.393 0 .147-.059.289-.163.393z"/>
</svg>
