<svg width="25" height="24" viewBox="0 0 25 24" fill="none" xmlns="http://www.w3.org/2000/svg">
    <path d="M11.93 14.881a3.676 3.676 0 0 1-3.617-3.725V6.125a3.619 3.619 0 1 1 7.234 0v5.031a3.676 3.676 0 0 1-3.617 3.725zm0-11.049a2.269 2.269 0 0 0-2.236 2.294v5.031a2.236 2.236 0 1 0 4.471 0V6.125a2.269 2.269 0 0 0-2.235-2.294v.001z" fill="url(#7gqfohpjna)"/>
    <path d="M18.561 10.844a.7.7 0 1 0-1.4 0 5.23 5.23 0 0 1-10.084 2.024 5.23 5.23 0 0 1-.377-2.024.7.7 0 1 0-1.4 0 6.708 6.708 0 0 0 5.939 6.7v2.634H8.961a.712.712 0 0 0 0 1.423H14.9a.712.712 0 0 0 0-1.423h-2.27v-2.634a6.708 6.708 0 0 0 5.931-6.7z" fill="url(#9bg5d7r1tb)"/>
    <defs>
        <linearGradient id="7gqfohpjna" x1="7.739" y1="6.147" x2="16.757" y2="7.947" gradientUnits="userSpaceOnUse">
            <stop stop-color="#00ACF0"/>
            <stop offset="1" stop-color="#0694C9"/>
        </linearGradient>
        <linearGradient id="9bg5d7r1tb" x1="5.101" y1="11.003" x2="16.099" y2="19.629" gradientUnits="userSpaceOnUse">
            <stop stop-color="#00ACF0"/>
            <stop offset="1" stop-color="#0694C9"/>
        </linearGradient>
    </defs>
</svg>
