<svg id="Layer_1" data-name="Layer 1" xmlns="http://www.w3.org/2000/svg" viewBox="0 0 160 80"><defs><style>.cls-1{fill:#fff;}</style></defs><title>ic_agunan</title><path class="cls-1" d="M111.15,21.32a1.13,1.13,0,0,0,0-.18v0a1.12,1.12,0,0,0,0-.16l0-.07-.06-.11,0-.06-.1-.12,0,0L101,10.72h0l-.15-.13-.05,0-.13-.07-.05,0-.18-.05h0l-.2,0H84.12a4.71,4.71,0,0,0-4.7,4.7V47.26a4.71,4.71,0,0,0,4.7,4.7h22.34a4.71,4.71,0,0,0,4.7-4.7V21.32Zm-3.84-1.1H103a1.66,1.66,0,0,1-1.65-1.65l0-4.33Zm-.86,29.48H84.12a2.45,2.45,0,0,1-2.45-2.45V15.09a2.45,2.45,0,0,1,2.45-2.45h15l0,5.94A3.91,3.91,0,0,0,103,22.47h5.89V47.26A2.45,2.45,0,0,1,106.46,49.71Z"/><path class="cls-1" d="M105.6,38.52a1.13,1.13,0,0,0-1.13-1.13H85.81a1.13,1.13,0,1,0,0,2.25h18.66A1.13,1.13,0,0,0,105.6,38.52Z"/><path class="cls-1" d="M84.68,33a1.13,1.13,0,0,0,1.13,1.13h18.66a1.13,1.13,0,0,0,0-2.25H85.81A1.13,1.13,0,0,0,84.68,33Z"/><path class="cls-1" d="M104.87,43H96.13a1.13,1.13,0,1,0,0,2.25h8.74a1.13,1.13,0,1,0,0-2.25Z"/><path class="cls-1" d="M86.45,25.42a.54.54,0,0,0,.54-.54V22.17a.54.54,0,0,1,.54-.54H89.7a.54.54,0,0,1,.54.54v2.71a.54.54,0,0,0,.54.54h1.63a.54.54,0,0,0,.54-.54V20.22a.54.54,0,0,0-.16-.38L89,16a.54.54,0,0,0-.77,0l-3.79,3.79a.54.54,0,0,0-.16.38v4.65a.54.54,0,0,0,.54.54Z"/><path class="cls-1" d="M77,52H67.31a4.38,4.38,0,0,1-4.37-4.37V18.34A4.38,4.38,0,0,1,67.31,14H77a1.13,1.13,0,0,1,0,2.25H67.31a2.13,2.13,0,0,0-2.12,2.12V47.58a2.13,2.13,0,0,0,2.12,2.12H77A1.13,1.13,0,0,1,77,52Z"/><path class="cls-1" d="M77,40.77H68.85a1.13,1.13,0,0,1,0-2.25H77a1.13,1.13,0,1,1,0,2.25Z"/><path class="cls-1" d="M77,35.71H68.85a1.13,1.13,0,0,1,0-2.25H77a1.13,1.13,0,1,1,0,2.25Z"/><path class="cls-1" d="M77,22.19H76l-.26-1.39c-.15-.67-.85-.67-1.23-.67H71.3c-.38,0-1.08,0-1.23.67l-.26,1.39h-1a.51.51,0,0,0,0,1h.46a.72.72,0,0,0-.21.51v2.05a.77.77,0,0,0,.77.77h.26v.64a.64.64,0,1,0,1.28,0v-.64h3.08v.64a.64.64,0,1,0,1.28,0v-.64H76a.77.77,0,0,0,.77-.77V23.73a.72.72,0,0,0-.21-.51H77a.51.51,0,0,0,0-1Zm-6.41,2.56a.51.51,0,1,1,.51-.51A.51.51,0,0,1,70.58,24.76Zm.1-1.8.36-1.8h3.69l.36,1.8Zm4.51,1.8a.51.51,0,1,1,.51-.51A.51.51,0,0,1,75.2,24.76Z"/><path class="cls-1" d="M61.09,52h-8.3A4,4,0,0,1,48.84,48V22.67a4,4,0,0,1,3.94-3.94h8.3a1.13,1.13,0,1,1,0,2.25h-8.3a1.69,1.69,0,0,0-1.69,1.69V48a1.69,1.69,0,0,0,1.69,1.69h8.3a1.13,1.13,0,0,1,0,2.25Z"/><path class="cls-1" d="M60.69,42.26H54.11a1.13,1.13,0,0,1,0-2.25h6.58a1.13,1.13,0,0,1,0,2.25Z"/><path class="cls-1" d="M60.69,37.88H54.11a1.13,1.13,0,0,1,0-2.25h6.58a1.13,1.13,0,0,1,0,2.25Z"/><path class="cls-1" d="M59.81,27.36a1.44,1.44,0,0,0-.44.07l-.45-1a.17.17,0,0,0-.15-.1H57.64a.17.17,0,1,0,0,.34h1l.41.91-.13.09a1.19,1.19,0,0,0-1.11-.8H56.54a1.18,1.18,0,0,0-1,.58,1.45,1.45,0,0,0-.46-.08,1.47,1.47,0,1,0,1.37,2h1.38a1.13,1.13,0,0,0,.57-.16,1.47,1.47,0,1,0,1.42-1.83Zm-4.74,2.46a1,1,0,0,1,0-2,1,1,0,0,1,.3.05,1.27,1.27,0,0,0,0,.21,1.29,1.29,0,0,0,.07.39h-.34a.34.34,0,1,0,0,.67h.86l.06,0A1,1,0,0,1,55.07,29.82Zm4.74,0a1,1,0,0,1-1-1s0,0,0-.06a1.26,1.26,0,0,0,.17-.51,1,1,0,0,1,.26-.26l.4.89a.17.17,0,0,0,.15.1l.07,0a.17.17,0,0,0,.08-.22l-.4-.89a1,1,0,0,1,.25,0,1,1,0,1,1,0,2Z"/><path class="cls-1" d="M36.23,62.39v8.4H35V67H30.21v3.74H29v-8.4h1.2V66H35V62.39Z"/><path class="cls-1" d="M38.6,63a.71.71,0,0,1-.22-.53.73.73,0,0,1,.22-.53.76.76,0,0,1,.56-.22.78.78,0,0,1,.56.21.69.69,0,0,1,.22.52.74.74,0,0,1-.22.55.76.76,0,0,1-.56.22A.77.77,0,0,1,38.6,63Zm0,1.44h1.15v6.36H38.59Z"/><path class="cls-1" d="M47.26,65.08A2.76,2.76,0,0,1,48,67.13v3.66H46.82V67.27a2,2,0,0,0-.44-1.39,1.67,1.67,0,0,0-1.27-.47,2,2,0,0,0-1.48.55,2.13,2.13,0,0,0-.54,1.57v3.28H41.93V64.43H43v1a2.25,2.25,0,0,1,.94-.76,3.3,3.3,0,0,1,1.35-.26A2.63,2.63,0,0,1,47.26,65.08Z"/><path class="cls-1" d="M56.23,64.43v5.5a3.28,3.28,0,0,1-.83,2.47,3.43,3.43,0,0,1-2.47.8,5.91,5.91,0,0,1-1.72-.25,3.4,3.4,0,0,1-1.32-.7l.55-.89a3.26,3.26,0,0,0,1.1.61,4.16,4.16,0,0,0,1.35.22,2.27,2.27,0,0,0,1.65-.53A2.18,2.18,0,0,0,55.07,70v-.5a2.56,2.56,0,0,1-1,.74,3.34,3.34,0,0,1-1.29.25,3.47,3.47,0,0,1-1.65-.39A2.9,2.9,0,0,1,50,69a3.27,3.27,0,0,1,0-3.2,2.86,2.86,0,0,1,1.16-1.09,3.52,3.52,0,0,1,1.65-.38,3.38,3.38,0,0,1,1.34.26,2.49,2.49,0,0,1,1,.78v-1ZM54,69.26a1.94,1.94,0,0,0,.78-.74,2.05,2.05,0,0,0,.28-1.07A2,2,0,0,0,54.49,66a2.47,2.47,0,0,0-3.16,0,2,2,0,0,0-.61,1.49A2.05,2.05,0,0,0,51,68.52a1.94,1.94,0,0,0,.78.74,2.54,2.54,0,0,0,2.26,0Z"/><path class="cls-1" d="M64.51,64.43v5.5a3.28,3.28,0,0,1-.83,2.47,3.43,3.43,0,0,1-2.47.8,5.91,5.91,0,0,1-1.72-.25,3.4,3.4,0,0,1-1.32-.7l.55-.89a3.26,3.26,0,0,0,1.1.61,4.16,4.16,0,0,0,1.35.22,2.27,2.27,0,0,0,1.65-.53A2.18,2.18,0,0,0,63.35,70v-.5a2.56,2.56,0,0,1-1,.74,3.34,3.34,0,0,1-1.29.25,3.47,3.47,0,0,1-1.65-.39A2.9,2.9,0,0,1,58.25,69a3.27,3.27,0,0,1,0-3.2,2.86,2.86,0,0,1,1.16-1.09,3.52,3.52,0,0,1,1.65-.38,3.38,3.38,0,0,1,1.34.26,2.49,2.49,0,0,1,1,.78v-1Zm-2.19,4.82a1.94,1.94,0,0,0,.78-.74,2.05,2.05,0,0,0,.28-1.07A2,2,0,0,0,62.77,66a2.47,2.47,0,0,0-3.16,0A2,2,0,0,0,59,67.45a2.05,2.05,0,0,0,.28,1.07,1.94,1.94,0,0,0,.78.74,2.54,2.54,0,0,0,2.26,0Z"/><path class="cls-1" d="M71,65a2.5,2.5,0,0,1,.7,1.93v3.84H70.65V70a1.82,1.82,0,0,1-.82.68,3.13,3.13,0,0,1-1.27.23,2.65,2.65,0,0,1-1.71-.52A1.65,1.65,0,0,1,66.21,69a1.67,1.67,0,0,1,.61-1.35,3,3,0,0,1,1.94-.51h1.82v-.23a1.47,1.47,0,0,0-.43-1.14,1.82,1.82,0,0,0-1.27-.4,3.37,3.37,0,0,0-1.1.19,2.84,2.84,0,0,0-.91.5l-.48-.86a3.47,3.47,0,0,1,1.18-.61A4.93,4.93,0,0,1,69,64.37,2.88,2.88,0,0,1,71,65Zm-1.15,4.66a1.68,1.68,0,0,0,.7-.83V68H68.81q-1.46,0-1.46,1a.89.89,0,0,0,.37.76,1.7,1.7,0,0,0,1,.28A2.14,2.14,0,0,0,69.89,69.68Z"/><path class="cls-1" d="M79.19,62.39v8.4H78V63.44h-1.9v-1Z"/><path class="cls-1" d="M86.93,69.75v1h-6V70l3.42-3.3a4.09,4.09,0,0,0,.84-1,2,2,0,0,0,.22-.88,1.23,1.23,0,0,0-.46-1,2.09,2.09,0,0,0-1.33-.37,2.63,2.63,0,0,0-2.15.91l-.82-.71a3.28,3.28,0,0,1,1.29-.94,4.56,4.56,0,0,1,1.78-.34,3.24,3.24,0,0,1,2.1.63,2.08,2.08,0,0,1,.78,1.71,2.9,2.9,0,0,1-.29,1.27,5.11,5.11,0,0,1-1.09,1.37l-2.57,2.47Z"/><path class="cls-1" d="M98.63,67.18a2.12,2.12,0,0,1,.42,1.35,1.94,1.94,0,0,1-.82,1.68,4.09,4.09,0,0,1-2.39.59h-4v-8.4H95.6a3.72,3.72,0,0,1,2.23.58,1.87,1.87,0,0,1,.79,1.6,2.08,2.08,0,0,1-.31,1.14,2,2,0,0,1-.82.73A2.16,2.16,0,0,1,98.63,67.18ZM93,63.37v2.69h2.46a2.49,2.49,0,0,0,1.42-.34,1.26,1.26,0,0,0,0-2,2.49,2.49,0,0,0-1.42-.34Zm4.3,6.12a1.17,1.17,0,0,0,.52-1.06q0-1.4-2.05-1.4H93v2.8h2.76A2.85,2.85,0,0,0,97.33,69.49Z"/><path class="cls-1" d="M106.67,64.43v6.36h-1.09v-1a2.31,2.31,0,0,1-.92.76,2.85,2.85,0,0,1-1.24.27,2.78,2.78,0,0,1-2-.7,2.74,2.74,0,0,1-.73-2.07V64.43h1.15V68a2,2,0,0,0,.44,1.4,1.66,1.66,0,0,0,1.27.47,1.9,1.9,0,0,0,1.44-.55,2.17,2.17,0,0,0,.53-1.56V64.43Z"/><path class="cls-1" d="M108.87,61.89H110v8.9h-1.15Z"/><path class="cls-1" d="M116.55,65a2.5,2.5,0,0,1,.7,1.93v3.84h-1.09V70a1.82,1.82,0,0,1-.82.68,3.13,3.13,0,0,1-1.27.23,2.65,2.65,0,0,1-1.71-.52,1.65,1.65,0,0,1-.64-1.36,1.67,1.67,0,0,1,.61-1.35,3,3,0,0,1,1.94-.51h1.82v-.23a1.47,1.47,0,0,0-.43-1.14,1.82,1.82,0,0,0-1.27-.4,3.37,3.37,0,0,0-1.1.19,2.84,2.84,0,0,0-.91.5l-.48-.86a3.47,3.47,0,0,1,1.18-.61,4.93,4.93,0,0,1,1.45-.21A2.88,2.88,0,0,1,116.55,65Zm-1.15,4.66a1.68,1.68,0,0,0,.7-.83V68h-1.78q-1.46,0-1.46,1a.89.89,0,0,0,.37.76,1.7,1.7,0,0,0,1,.28A2.14,2.14,0,0,0,115.41,69.68Z"/><path class="cls-1" d="M124.71,65.08a2.76,2.76,0,0,1,.71,2.06v3.66h-1.15V67.27a2,2,0,0,0-.44-1.39,1.67,1.67,0,0,0-1.27-.47,2,2,0,0,0-1.48.55,2.13,2.13,0,0,0-.54,1.57v3.28h-1.15V64.43h1.1v1a2.25,2.25,0,0,1,.94-.76,3.3,3.3,0,0,1,1.35-.26A2.63,2.63,0,0,1,124.71,65.08Z"/></svg>