<svg id="Layer_1" data-name="Layer 1" xmlns="http://www.w3.org/2000/svg" viewBox="0 0 160 80"><defs><style>.cls-1{fill:#fff;}</style></defs><title>ic_mini</title><path class="cls-1" d="M41.26,41.31H39.4v3.2H36v-12h5.5a6.87,6.87,0,0,1,2.84.54,4.38,4.38,0,0,1,2.06,5.84l-.16.3a4.13,4.13,0,0,1-1.75,1.52l2.6,3.78H43.44Zm1.62-5.69a2.35,2.35,0,0,0-1.59-.43H39.4v3.52h1.89a2.37,2.37,0,0,0,1.59-.52,1.61,1.61,0,0,0,.53-1.3A1.64,1.64,0,0,0,42.88,35.62Z"/><path class="cls-1" d="M56.74,35.63a4.33,4.33,0,0,1,1.65,1.69,5.58,5.58,0,0,1,0,5.07,4.32,4.32,0,0,1-1.65,1.68,4.58,4.58,0,0,1-2.31.59,3.47,3.47,0,0,1-2.6-1v4.16H48.57V35.19h3.11v.93A3.39,3.39,0,0,1,54.43,35,4.59,4.59,0,0,1,56.74,35.63Zm-1.59,5.84a2.67,2.67,0,0,0,0-3.25,2,2,0,0,0-2.82,0,2.67,2.67,0,0,0,0,3.25A2,2,0,0,0,55.15,41.47Z"/><path class="cls-1" d="M100.43,69.52a6.65,6.65,0,0,1-2.67-2l2.8-3.32a4,4,0,0,0,3.14,1.89,2.12,2.12,0,0,0,1.7-.68,2.93,2.93,0,0,0,.58-2V55.66H99.7v-4h11.36V63.19a6.24,6.24,0,0,1-7,7.05A9.27,9.27,0,0,1,100.43,69.52Z"/><path class="cls-1" d="M124,69.28a4.91,4.91,0,0,1-1.52.6,8.34,8.34,0,0,1-1.91.21,6.06,6.06,0,0,1-4.23-1.35,5.17,5.17,0,0,1-1.48-4V60h-2V56.31h2V52.65h4.93v3.66H123V60h-3.2v4.67a1.66,1.66,0,0,0,.4,1.18,1.41,1.41,0,0,0,1.08.43,2.6,2.6,0,0,0,1.5-.44Z"/><path class="cls-1" d="M65.66,10.3v7.33h-1V14.37H60.41v3.27h-1V10.3h1v3.15h4.21V10.3Z"/><path class="cls-1" d="M67.73,10.83a.62.62,0,0,1-.19-.46.64.64,0,0,1,.19-.47.66.66,0,0,1,.49-.19.68.68,0,0,1,.49.18.6.6,0,0,1,.19.46.65.65,0,0,1-.19.48.72.72,0,0,1-1,0Zm0,1.26h1v5.55h-1Z"/><path class="cls-1" d="M75.28,12.64a2.41,2.41,0,0,1,.62,1.8v3.19h-1V14.55a1.71,1.71,0,0,0-.39-1.21,1.46,1.46,0,0,0-1.11-.41,1.73,1.73,0,0,0-1.29.48,1.86,1.86,0,0,0-.47,1.37v2.86h-1V12.08h1v.84a2,2,0,0,1,.82-.66A2.88,2.88,0,0,1,73.64,12,2.29,2.29,0,0,1,75.28,12.64Z"/><path class="cls-1" d="M83.11,12.08v4.79A2.87,2.87,0,0,1,82.39,19a3,3,0,0,1-2.16.7,5.16,5.16,0,0,1-1.5-.21,3,3,0,0,1-1.15-.61l.48-.77a2.85,2.85,0,0,0,1,.53,3.65,3.65,0,0,0,1.18.19,2,2,0,0,0,1.44-.46,1.9,1.9,0,0,0,.47-1.4v-.44a2.22,2.22,0,0,1-.87.64,2.91,2.91,0,0,1-1.12.21,3,3,0,0,1-1.44-.34,2.53,2.53,0,0,1-1-1,2.85,2.85,0,0,1,0-2.8,2.5,2.5,0,0,1,1-.95A3.07,3.07,0,0,1,80.16,12a2.94,2.94,0,0,1,1.17.23,2.17,2.17,0,0,1,.89.68V12Zm-1.92,4.21a1.7,1.7,0,0,0,.68-.64,1.79,1.79,0,0,0,.25-.94,1.7,1.7,0,0,0-.53-1.3,2.16,2.16,0,0,0-2.75,0,1.7,1.7,0,0,0-.53,1.3,1.8,1.8,0,0,0,.25.94,1.7,1.7,0,0,0,.68.64,2.22,2.22,0,0,0,2,0Z"/><path class="cls-1" d="M90.33,12.08v4.79A2.87,2.87,0,0,1,89.61,19a3,3,0,0,1-2.16.7,5.16,5.16,0,0,1-1.5-.21,3,3,0,0,1-1.15-.61l.48-.77a2.85,2.85,0,0,0,1,.53,3.65,3.65,0,0,0,1.18.19,2,2,0,0,0,1.44-.46,1.9,1.9,0,0,0,.47-1.4v-.44a2.22,2.22,0,0,1-.87.64,2.91,2.91,0,0,1-1.12.21,3,3,0,0,1-1.44-.34,2.53,2.53,0,0,1-1-1,2.85,2.85,0,0,1,0-2.8,2.5,2.5,0,0,1,1-.95A3.07,3.07,0,0,1,87.38,12a2.94,2.94,0,0,1,1.17.23,2.17,2.17,0,0,1,.89.68V12Zm-1.91,4.21a1.7,1.7,0,0,0,.68-.64,1.79,1.79,0,0,0,.25-.94,1.7,1.7,0,0,0-.53-1.3,2.16,2.16,0,0,0-2.75,0,1.7,1.7,0,0,0-.53,1.3,1.8,1.8,0,0,0,.25.94,1.7,1.7,0,0,0,.68.64,2.22,2.22,0,0,0,2,0Z"/><path class="cls-1" d="M96,12.6a2.18,2.18,0,0,1,.61,1.69v3.35h-1v-.73a1.59,1.59,0,0,1-.72.59,2.74,2.74,0,0,1-1.1.2,2.31,2.31,0,0,1-1.49-.45,1.55,1.55,0,0,1-.17-2.19l.17-.17a2.63,2.63,0,0,1,1.7-.44h1.59v-.26a1.28,1.28,0,0,0-.38-1,1.59,1.59,0,0,0-1.11-.35,3,3,0,0,0-1,.16,2.5,2.5,0,0,0-.8.43l-.3-.69a3,3,0,0,1,1-.55A4.29,4.29,0,0,1,94.27,12,2.51,2.51,0,0,1,96,12.6Zm-1,4.07a1.47,1.47,0,0,0,.61-.73v-.75H94.09q-1.28,0-1.28.86a.78.78,0,0,0,.32.66,1.48,1.48,0,0,0,.9.24,1.87,1.87,0,0,0,1-.29Z"/><path class="cls-1" d="M93.19,52.82A9.39,9.39,0,0,1,94.61,58a10.19,10.19,0,0,1-2.08,6.34,13.13,13.13,0,0,1-5.85,4.21A23.73,23.73,0,0,1,78,70a23.73,23.73,0,0,1-8.69-1.48,13.14,13.14,0,0,1-5.85-4.21A10.19,10.19,0,0,1,61.38,58a9.38,9.38,0,0,1,1.42-5.14,11.56,11.56,0,0,1,4-3.77,9.61,9.61,0,0,1-3-3.33,9,9,0,0,1-1.07-4.37,9.5,9.5,0,0,1,1.91-5.88A12.06,12.06,0,0,1,70,31.57a23.82,23.82,0,0,1,15.9,0,12.08,12.08,0,0,1,5.38,3.91,9.51,9.51,0,0,1,1.91,5.88,9,9,0,0,1-1.07,4.37,9.62,9.62,0,0,1-3,3.33A11.57,11.57,0,0,1,93.19,52.82Zm-11,8.28a4.64,4.64,0,0,0,0-6.94,7.45,7.45,0,0,0-8.36,0,4.64,4.64,0,0,0,0,6.94A7.45,7.45,0,0,0,82.19,61.1ZM74.72,38.86a4.12,4.12,0,0,0-.07,5.83l.07.07A4.88,4.88,0,0,0,78,45.83a5,5,0,0,0,3.33-1.07,3.63,3.63,0,0,0,1.26-2.92,3.7,3.7,0,0,0-1.26-3,5,5,0,0,0-3.33-1A4.89,4.89,0,0,0,74.72,38.86Z"/></svg>