<svg id="Layer_1" data-name="Layer 1" xmlns="http://www.w3.org/2000/svg" viewBox="0 0 160 80"><defs><style>.cls-1{fill:#fff;}</style></defs><title>ic_mini</title><path class="cls-1" d="M43.26,40.12H41.4v3.2H38v-12h5.5a6.87,6.87,0,0,1,2.84.54A4.38,4.38,0,0,1,48.4,37.7l-.16.3a4.13,4.13,0,0,1-1.75,1.52l2.6,3.78H45.44Zm1.62-5.69A2.35,2.35,0,0,0,43.29,34H41.4v3.52h1.89A2.37,2.37,0,0,0,44.88,37a1.61,1.61,0,0,0,.53-1.3A1.64,1.64,0,0,0,44.88,34.43Z"/><path class="cls-1" d="M58.74,34.44a4.33,4.33,0,0,1,1.65,1.69,5.58,5.58,0,0,1,0,5.07,4.32,4.32,0,0,1-1.65,1.68,4.58,4.58,0,0,1-2.31.59,3.47,3.47,0,0,1-2.6-1v4.16H50.57V34h3.11v.93a3.39,3.39,0,0,1,2.75-1.08A4.59,4.59,0,0,1,58.74,34.44Zm-1.59,5.84a2.67,2.67,0,0,0,0-3.25,2,2,0,0,0-2.82,0,2.67,2.67,0,0,0,0,3.25A2,2,0,0,0,57.15,40.28Z"/><path class="cls-1" d="M102.43,68.33a6.65,6.65,0,0,1-2.67-2l2.8-3.32a4,4,0,0,0,3.14,1.89,2.12,2.12,0,0,0,1.7-.68,2.93,2.93,0,0,0,.58-2V54.47H101.7v-4h11.36V62a6.24,6.24,0,0,1-7,7.05A9.27,9.27,0,0,1,102.43,68.33Z"/><path class="cls-1" d="M126,68.09a4.91,4.91,0,0,1-1.52.6,8.34,8.34,0,0,1-1.91.21,6.06,6.06,0,0,1-4.23-1.35,5.17,5.17,0,0,1-1.48-4V58.8h-2V55.12h2V51.46h4.93v3.66H125V58.8h-3.2v4.67a1.66,1.66,0,0,0,.4,1.18,1.41,1.41,0,0,0,1.08.43,2.6,2.6,0,0,0,1.5-.44Z"/><path class="cls-1" d="M67.66,9.11v7.33h-1V13.18H62.41v3.27h-1V9.11h1v3.15h4.21V9.11Z"/><path class="cls-1" d="M69.73,9.64a.62.62,0,0,1-.19-.46.64.64,0,0,1,.19-.47.66.66,0,0,1,.49-.19.68.68,0,0,1,.49.18.6.6,0,0,1,.19.46.65.65,0,0,1-.19.48.72.72,0,0,1-1,0Zm0,1.26h1v5.55h-1Z"/><path class="cls-1" d="M77.28,11.45a2.41,2.41,0,0,1,.62,1.8v3.19h-1V13.36a1.71,1.71,0,0,0-.39-1.21,1.46,1.46,0,0,0-1.11-.41,1.73,1.73,0,0,0-1.29.48,1.86,1.86,0,0,0-.47,1.37v2.86h-1V10.89h1v.84a2,2,0,0,1,.82-.66,2.88,2.88,0,0,1,1.18-.23A2.29,2.29,0,0,1,77.28,11.45Z"/><path class="cls-1" d="M85.11,10.89v4.79a2.87,2.87,0,0,1-.72,2.15,3,3,0,0,1-2.16.7,5.16,5.16,0,0,1-1.5-.21,3,3,0,0,1-1.15-.61l.48-.77a2.85,2.85,0,0,0,1,.53,3.65,3.65,0,0,0,1.18.19,2,2,0,0,0,1.44-.46,1.9,1.9,0,0,0,.47-1.4v-.44a2.22,2.22,0,0,1-.87.64,2.91,2.91,0,0,1-1.12.21,3,3,0,0,1-1.44-.34,2.53,2.53,0,0,1-1-1,2.85,2.85,0,0,1,0-2.8,2.5,2.5,0,0,1,1-.95,3.07,3.07,0,0,1,1.44-.34,2.94,2.94,0,0,1,1.17.23,2.17,2.17,0,0,1,.89.68v-.86ZM83.19,15.1a1.7,1.7,0,0,0,.68-.64,1.79,1.79,0,0,0,.25-.94,1.7,1.7,0,0,0-.53-1.3,2.16,2.16,0,0,0-2.75,0,1.7,1.7,0,0,0-.53,1.3,1.8,1.8,0,0,0,.25.94,1.7,1.7,0,0,0,.68.64,2.22,2.22,0,0,0,2,0Z"/><path class="cls-1" d="M92.33,10.89v4.79a2.87,2.87,0,0,1-.72,2.15,3,3,0,0,1-2.16.7,5.16,5.16,0,0,1-1.5-.21,3,3,0,0,1-1.15-.61l.48-.77a2.85,2.85,0,0,0,1,.53,3.65,3.65,0,0,0,1.18.19,2,2,0,0,0,1.44-.46,1.9,1.9,0,0,0,.47-1.4v-.44a2.22,2.22,0,0,1-.87.64,2.91,2.91,0,0,1-1.12.21,3,3,0,0,1-1.44-.34,2.53,2.53,0,0,1-1-1,2.85,2.85,0,0,1,0-2.8,2.5,2.5,0,0,1,1-.95,3.07,3.07,0,0,1,1.44-.34,2.94,2.94,0,0,1,1.17.23,2.17,2.17,0,0,1,.89.68v-.86ZM90.42,15.1a1.7,1.7,0,0,0,.68-.64,1.79,1.79,0,0,0,.25-.94,1.7,1.7,0,0,0-.53-1.3,2.16,2.16,0,0,0-2.75,0,1.7,1.7,0,0,0-.53,1.3,1.8,1.8,0,0,0,.25.94,1.7,1.7,0,0,0,.68.64,2.22,2.22,0,0,0,2,0Z"/><path class="cls-1" d="M98,11.41a2.18,2.18,0,0,1,.61,1.69v3.35h-1v-.73a1.59,1.59,0,0,1-.72.59,2.74,2.74,0,0,1-1.1.2,2.31,2.31,0,0,1-1.49-.45,1.55,1.55,0,0,1-.17-2.19l.17-.17a2.63,2.63,0,0,1,1.7-.44h1.59V13a1.28,1.28,0,0,0-.38-1,1.59,1.59,0,0,0-1.11-.35,3,3,0,0,0-1,.16,2.5,2.5,0,0,0-.8.43l-.3-.69A3,3,0,0,1,95,11a4.29,4.29,0,0,1,1.27-.18A2.51,2.51,0,0,1,98,11.41Zm-1,4.07a1.47,1.47,0,0,0,.61-.73V14H96.09q-1.28,0-1.28.86a.78.78,0,0,0,.32.66,1.48,1.48,0,0,0,.9.24,1.87,1.87,0,0,0,1-.29Z"/><path class="cls-1" d="M76.35,39.61l-6.83,1.62-2.14-8.68L79.25,29.2h8.16V70H76.35Z"/></svg>