<svg xmlns="http://www.w3.org/2000/svg" width="48" height="18" fill="none" viewBox="0 0 48 18">
    <path fill="#005F7A" fill-rule="evenodd" d="M16.168.005c.548.375 1.106.944 1.106 1.494v9.69c-.044.323-.154.633-.322.91-.168.279-.391.52-.656.708h4.934c3.192-.132 5.128-1.284 5.36-3.7.162-1.695-.733-3.013-2.933-3.756.523-.195.973-.548 1.285-1.011.313-.463.472-1.013.456-1.571.093-2.158-2.42-2.765-4-2.765h-5.23zm3.062 5.189V1.153h1.514c1.718 0 2.527.843 2.527 2.113s-1.162 1.928-2.611 1.928h-1.43zm1.614 6.38H19.23V6.342h1.829c2.725 0 3.549 1.638 3.4 2.977-.149 1.339-1.3 2.254-3.618 2.254h.003zM30.933.004h-2.681c.29.252.519.567.667.92.149.354.213.738.189 1.12v8.833c.016.413-.077.823-.27 1.19-.193.365-.48.673-.83.893h3.567c-.356-.22-.646-.532-.84-.902-.193-.371-.283-.787-.26-1.205v-7.8l5.406 7.222c.99 1.32 2.205 2.456 3.588 3.357V1.998c-.04-.405.045-.811.241-1.167s.496-.644.859-.826h-3.478c.319.21.576.501.745.843.17.342.245.723.22 1.104v7.79L30.932.005h.001zM42.544 12.96c.322-.172.592-.427.784-.738.19-.31.296-.667.305-1.032V1.939c.03-.377-.04-.754-.205-1.095-.164-.34-.416-.63-.73-.84h4.117c-.347.196-.639.476-.85.814-.211.338-.335.723-.359 1.12v9.226c.017.355.115.702.286 1.014.171.311.41.58.701.786l-4.049-.004z" clip-rule="evenodd"/>
    <path fill="#EE4E14" fill-rule="evenodd" d="M.001.005h3.975c-.208.356-.365 1.157.037 2.956.475 1.692 1.317 3.257 2.468 4.585L5.127 8.658.001 2.217V.004v.001zm5.8 0c-.663 1.2.188 3.765 1.481 5.327.068-.78.338-1.529.783-2.173.445-.644 1.05-1.161 1.755-1.501.464-.229.976-.344 1.493-.337.518.007 1.026.137 1.484.379V0L5.801.005zm7 3.944v5.046c-1.59.6-3.82-.966-4.38-2.828-.812-2.7 1.1-3.674 2.472-3.407.761.147 1.441.57 1.908 1.189zm0 5.875c-.543.334-1.162.526-1.799.559-.637.032-1.272-.096-1.846-.374-.802-.478-1.516-1.09-2.112-1.808l-1.38 1.133 1.51 1.9c.28.298.623.53 1.003.68.38.151.789.216 1.197.19l-.86.706h4.288V9.828l-.001-.004zm-6.683 2.982H1.434l2.919-2.4.688.865c.387.49.747 1.001 1.077 1.531v.004zm-6.046 0l3.742-3.072L0 4.941v7.865h.072z" clip-rule="evenodd"/>
    <path fill="#005F7A" fill-rule="evenodd" d="M44.294 16.5l.241-.035c.01.084.05.162.113.22.075.049.163.076.253.077.09.001.18-.024.256-.07.024-.02.044-.045.057-.074.014-.028.02-.059.021-.09 0-.025-.007-.05-.02-.072-.012-.023-.03-.041-.051-.055-.079-.036-.162-.063-.248-.078-.126-.029-.25-.07-.368-.12-.066-.029-.122-.075-.163-.134-.034-.057-.051-.124-.049-.19-.001-.062.013-.123.042-.178.028-.054.07-.1.12-.134.046-.034.1-.059.156-.07.066-.023.135-.035.205-.036.102 0 .203.016.3.05.075.026.14.072.191.133.04.068.069.142.085.22l-.241.034c-.009-.068-.041-.13-.092-.177-.066-.04-.142-.06-.219-.057-.084-.008-.168.01-.241.05-.021.015-.039.036-.051.059-.013.023-.02.049-.02.075.003.03.012.06.028.085.027.026.058.048.092.064.028.007.1.028.219.064.122.025.24.063.354.113.066.024.124.069.163.127.04.061.06.133.057.205 0 .081-.024.16-.071.226-.05.076-.121.135-.205.17-.095.04-.197.058-.3.057-.151.011-.302-.031-.425-.12-.104-.085-.172-.207-.191-.34l.002.001zm2.024-.4c.125-.014.248-.04.368-.078v-.064c.004-.038 0-.077-.012-.114-.012-.036-.032-.07-.059-.098-.08-.058-.178-.085-.276-.078h-.021c-.08-.004-.159.016-.227.057-.064.054-.107.13-.12.212l-.242-.032c.015-.09.051-.175.106-.248.056-.07.133-.12.219-.142.084-.032.172-.049.262-.05.018-.005.038-.008.057-.007.102-.003.204.014.3.05.063.016.12.05.163.098.044.047.074.106.085.17.01.075.015.151.014.227v.318c-.006.144-.001.289.014.432.007.061.03.12.064.17h-.255c-.029-.055-.045-.115-.049-.177-.076.07-.165.126-.262.163-.041.015-.084.027-.127.035-.047.009-.094.013-.142.014-.13.007-.258-.034-.361-.113-.042-.037-.075-.084-.097-.136-.022-.052-.032-.108-.03-.164.001-.067.018-.132.049-.19.03-.058.074-.106.127-.143.05-.037.109-.064.17-.078.072-.019.145-.03.219-.035.02-.006.042-.008.064-.007l-.001.008zm0 .665c.06-.007.118-.026.17-.057.07-.035.128-.092.163-.163.026-.08.038-.164.035-.248v-.092c-.119.044-.242.072-.368.085-.007 0-.021.007-.028.007-.073.006-.144.023-.212.05-.037.016-.069.042-.091.076-.023.034-.035.074-.036.114-.002.031.004.062.016.09.013.028.031.053.055.073.063.047.14.07.219.064.026.001.052-.001.078-.007l-.001.008zm-46.24.163v-1.974h.4l.467 1.4c.043.127.078.227.092.29.028-.07.063-.176.106-.318l.474-1.373h.354v1.974h-.255v-1.652l-.573 1.65H.909l-.573-1.678v1.677l-.258.004zm3.807 0v-1.974h.244v1.974h-.244zm-.948-.849h.4c-.005-.098-.037-.194-.092-.276-.036-.044-.082-.08-.134-.103-.052-.023-.109-.034-.166-.032h-.014c-.05-.001-.1.007-.145.026-.047.018-.089.045-.124.08-.079.08-.124.188-.127.3l.402.005zm0 .687h.021c.08 0 .16-.024.226-.07.072-.06.126-.14.156-.228l.248.028c-.034.136-.11.258-.219.347-.12.083-.264.125-.41.12h-.021c-.089.002-.176-.016-.258-.05-.082-.035-.155-.085-.216-.15-.066-.072-.116-.158-.147-.25-.032-.092-.044-.19-.037-.288-.008-.1.004-.202.036-.298.032-.096.082-.184.148-.26.06-.066.134-.118.215-.153.082-.035.17-.053.259-.053h.007c.088-.001.174.016.255.05.08.035.153.086.212.15.066.075.117.163.148.258.032.094.044.194.036.294v.064H2.529c0 .133.048.26.134.361.073.076.171.12.276.127l-.002.001zm3.093.715l-.028-.227c.046.013.094.02.142.021.044.003.088-.007.127-.028.034-.016.062-.044.078-.078.035-.054.061-.114.078-.177.002-.02.009-.04.021-.057l-.545-1.437h.262l.3.828c.043.109.078.22.106.333.026-.11.06-.22.1-.326l.3-.835h.241l-.545 1.458c-.037.112-.082.22-.134.326-.034.069-.086.127-.149.17-.058.041-.129.062-.2.057-.053 0-.106-.009-.156-.028h.002zm-.977-1.38c.125-.014.248-.04.368-.078v-.064c.004-.038 0-.077-.012-.114-.012-.036-.032-.07-.059-.098-.08-.056-.178-.083-.276-.078h-.021c-.082-.004-.163.016-.234.057-.06.058-.101.131-.12.212l-.234-.028c.015-.09.051-.175.106-.248.054-.068.128-.118.212-.142.086-.032.177-.049.269-.05.018-.006.038-.009.057-.007.102-.001.204.015.3.05.063.016.12.05.163.098.044.047.073.106.085.17.007.076.01.151.007.227v.318c-.005.145.002.289.021.432.008.06.028.117.057.17h-.255c-.023-.056-.037-.116-.042-.177-.076.07-.165.126-.262.163-.041.015-.084.027-.127.035-.047.008-.094.013-.142.014-.13.006-.258-.034-.361-.113-.042-.038-.075-.084-.097-.136-.022-.052-.032-.108-.03-.164-.002-.067.015-.133.05-.19.028-.057.07-.106.12-.143.054-.036.114-.062.177-.078.072-.019.145-.03.219-.035.02-.006.042-.008.064-.007l-.003.004zm0 .665c.06-.01.117-.028.17-.057.069-.035.124-.093.156-.163.032-.078.046-.163.042-.248v-.093c-.119.044-.242.072-.368.085-.014 0-.021.007-.028.007-.073.006-.144.023-.212.05-.042.012-.077.04-.1.077-.02.034-.03.074-.028.113-.001.03.005.062.017.09.012.028.03.053.054.073.06.046.136.069.212.064.029.001.057-.001.085-.007v.01zm6.843.163v-1.974h.269l1.04 1.55v-1.55h.248v1.974h-.269l-1.033-1.55v1.55h-.255zm-1.408 0V15.5h.248v1.43h-.248zm0-1.69v-.284h.248v.283h-.248zm-1.536 1.69V15.5h.219v.205c.05-.076.118-.138.199-.18.08-.042.17-.063.261-.06.08.001.16.018.234.05.065.023.121.065.163.12.038.054.065.117.078.183.01.078.015.156.014.234v.878h-.248v-.87c.005-.074-.005-.148-.028-.219-.008-.025-.02-.05-.038-.07-.017-.02-.038-.038-.062-.05-.052-.03-.11-.044-.17-.042-.097 0-.19.035-.262.1-.044.051-.077.11-.097.175-.02.065-.025.133-.016.2v.778l-.247-.002zm-.984-.828c.125-.014.248-.04.368-.078v-.064c.004-.038 0-.077-.012-.114-.012-.036-.032-.07-.059-.098-.08-.056-.178-.083-.276-.078h-.02c-.082-.005-.164.014-.234.057-.06.058-.101.131-.12.212l-.234-.028c.015-.09.051-.175.106-.248.054-.068.128-.118.212-.142.086-.032.177-.049.269-.05.018-.006.038-.009.057-.007.102-.001.204.015.3.05.065.02.124.056.17.105.036.05.062.105.078.163.007.076.01.151.007.227v.318c0 .226.007.375.014.432.014.06.035.117.064.17h-.255c-.026-.056-.043-.116-.05-.177-.073.072-.16.127-.255.163-.041.015-.084.027-.127.035-.047.008-.094.013-.142.014-.13.006-.258-.034-.361-.113-.042-.038-.075-.084-.097-.136-.022-.052-.032-.108-.03-.164-.002-.067.015-.133.049-.19.028-.057.07-.106.12-.143.054-.036.114-.062.177-.078.07-.018.14-.03.212-.035.023-.005.047-.008.071-.007l-.002.004zm0 .665c.057-.01.112-.03.161-.06.072-.034.13-.092.163-.164.032-.078.046-.163.042-.248v-.089c-.119.043-.242.072-.368.085-.014 0-.021.007-.028.007-.073.006-.144.023-.212.05-.042.012-.077.04-.1.077-.03.043-.041.095-.033.146.008.052.034.098.075.13.06.046.136.069.212.064.029.001.057-.001.085-.007l.003.01zm6.475-.687h.4c-.005-.098-.037-.194-.092-.276-.036-.044-.082-.079-.134-.102-.052-.024-.109-.035-.166-.033h-.007c-.05-.001-.1.007-.145.026-.047.018-.089.045-.124.08-.079.08-.124.188-.127.3l.395.005zm0 .687h.021c.081 0 .16-.024.227-.07.072-.06.124-.139.149-.228l.255.028c-.034.136-.11.258-.219.347-.12.083-.264.125-.41.12h-.021c-.09 0-.178-.017-.26-.051-.084-.034-.158-.085-.221-.149-.13-.148-.196-.341-.184-.538-.007-.101.007-.203.04-.299.032-.095.084-.184.151-.26.06-.065.134-.117.215-.152.082-.036.17-.053.259-.053h.007c.088-.001.175.016.255.05.08.035.153.086.212.15.13.153.197.351.184.552v.064h-1.074c-.003.133.045.262.134.361.072.077.17.123.276.127l.004.001zm1.5-.035c.054 0 .107-.01.156-.032s.092-.054.127-.095c.085-.115.126-.257.113-.4.011-.143-.031-.286-.12-.4-.032-.043-.073-.078-.121-.101-.048-.024-.101-.035-.155-.034-.053 0-.105.01-.152.032-.048.022-.09.055-.124.095-.085.115-.125.258-.113.4-.012.146.028.291.113.41.033.041.075.074.123.096.048.022.1.033.153.031v-.002zm0 .58c.083 0 .164-.025.234-.07.061-.047.106-.111.127-.185.01-.103.016-.207.014-.31-.045.055-.102.1-.167.133-.065.031-.136.049-.208.05h-.021c-.088.004-.176-.013-.256-.05-.08-.037-.15-.092-.204-.162-.107-.148-.162-.327-.156-.51-.002-.128.022-.256.071-.375.042-.109.116-.202.212-.269.098-.066.214-.1.333-.1h.021c.078.003.154.022.223.058.07.035.13.085.177.147v-.17h.226v1.238c.011.161-.013.323-.071.474-.046.094-.12.17-.212.22-.105.053-.222.08-.34.077h-.028c-.145.008-.29-.032-.41-.113-.053-.04-.095-.093-.122-.154-.027-.06-.039-.127-.034-.193l.241.035c0 .03.008.06.022.087.013.027.032.05.056.07.073.05.16.075.248.07l.024.002zm5.612-.382v-1.974h.262v.984l.977-.984h.354l-.828.8.863 1.175h-.34l-.708-1-.318.318v.68l-.262.001zm-1.493 0v-.276h.276v.276c.006.087-.013.173-.057.248-.037.067-.098.117-.17.141l-.064-.1c.047-.021.086-.056.113-.1.026-.06.038-.125.035-.19l-.133.001zm-.672 0V15.5h.239v1.43h-.239zm0-1.69v-.284h.239v.283h-.239zm-.927 1.69V15.5h.219v.22c.036-.08.09-.15.156-.206.046-.03.1-.048.156-.049.088.004.174.03.248.078l-.085.227c-.053-.033-.114-.05-.177-.05-.052 0-.102.017-.142.05-.044.031-.076.076-.092.127-.028.092-.042.187-.042.283v.75h-.241zm-.948-.849h.4c0-.098-.03-.194-.085-.276-.037-.043-.083-.078-.135-.101-.052-.023-.108-.035-.165-.034h-.007c-.102-.001-.2.037-.276.106-.074.083-.116.19-.12.3l.388.005zm0 .687h.021c.081 0 .16-.025.227-.07.072-.06.124-.139.149-.228l.248.028c-.028.139-.106.262-.219.347-.117.082-.257.124-.4.12h-.021c-.09 0-.178-.017-.26-.05-.084-.035-.158-.086-.221-.15-.13-.148-.196-.341-.184-.538-.007-.101.007-.203.04-.298.032-.097.084-.185.151-.26.06-.067.133-.119.215-.154.082-.035.17-.053.259-.052h.007c.088-.001.174.015.255.05.08.034.153.086.212.15.13.153.197.351.184.552 0 .022-.002.043-.007.064h-1.066c-.003.133.046.263.135.361.035.039.078.07.125.092.048.021.099.034.151.035l-.001.001zm6.433-.687h.4c-.005-.098-.037-.194-.092-.276-.036-.044-.082-.079-.134-.102-.052-.024-.109-.035-.166-.033h-.007c-.05-.001-.1.007-.145.026-.047.018-.089.045-.124.08-.079.08-.124.188-.127.3l.395.005zm0 .687h.021c.08 0 .16-.025.226-.07.072-.06.124-.139.149-.228l.255.028c-.034.136-.11.258-.219.347-.12.082-.264.124-.41.12h-.021c-.089.002-.176-.015-.258-.05-.082-.034-.155-.085-.216-.15-.13-.148-.196-.341-.184-.538-.007-.101.007-.203.04-.298.032-.097.084-.185.151-.26.059-.066.13-.119.211-.154.08-.036.168-.053.256-.052h.007c.088-.001.175.015.255.05.08.034.153.086.212.15.13.153.197.351.184.552v.064h-1.062c-.004.066.005.132.027.194.021.062.056.119.1.167.035.039.078.07.125.092.047.021.099.034.151.035v.001zm1.557-1.3c.009-.005.018-.007.028-.007.088.001.175.02.255.057.075.033.14.085.191.15.054.07.095.149.12.233.029.094.043.192.043.29.014.205-.052.408-.184.566-.054.064-.121.116-.197.151-.076.036-.158.054-.242.054h-.014c-.076-.003-.15-.023-.216-.06-.067-.037-.123-.089-.166-.152v.177h-.219v-1.974h.241v.708c.041-.058.095-.105.158-.138.063-.034.132-.052.203-.053l-.001-.002zm0 1.3c.053-.002.104-.016.15-.04.047-.025.088-.06.119-.102.087-.118.13-.263.12-.41.013-.146-.027-.291-.113-.41-.03-.042-.071-.077-.118-.1-.047-.024-.099-.036-.151-.035h-.007c-.052 0-.103.013-.15.037-.047.023-.087.057-.119.098-.083.116-.123.258-.113.4-.01.127.014.254.071.368.03.058.073.106.129.14.054.033.118.051.182.051v.003zm2.47.163V15.5h.212v.205c.05-.076.118-.138.199-.18.08-.042.17-.063.261-.06.08.001.16.018.234.05.066.021.123.063.163.12.039.054.065.117.078.183.01.078.015.156.014.234v.878h-.241v-.87c.001-.074-.008-.147-.028-.219-.021-.05-.058-.093-.106-.12-.051-.03-.11-.045-.17-.042-.097 0-.19.035-.262.1-.044.051-.078.11-.097.175-.02.065-.025.133-.016.2v.778l-.241-.002zm-.991-.828c.125-.014.248-.04.368-.078v-.064c.004-.038 0-.077-.012-.114-.012-.036-.032-.07-.059-.098-.08-.056-.178-.083-.276-.078h-.021c-.082-.004-.163.016-.234.057-.06.058-.101.131-.12.212l-.234-.028c.015-.09.051-.175.106-.248.054-.068.128-.118.212-.142.086-.032.177-.049.269-.05.018-.006.038-.008.057-.007.102-.001.204.015.3.05.063.016.12.05.163.098.044.047.073.106.085.17.007.076.01.151.007.227v.318c-.005.144.002.289.021.432.008.06.028.117.057.17h-.255c-.023-.056-.037-.116-.042-.177-.076.07-.165.126-.262.163-.041.015-.084.027-.127.035-.047.008-.094.013-.142.014-.13.006-.258-.034-.361-.113-.042-.038-.075-.084-.097-.136-.022-.052-.032-.108-.03-.164-.002-.067.015-.133.05-.19.028-.057.07-.106.12-.143.054-.036.114-.062.177-.078.072-.019.145-.03.219-.035.02-.006.042-.008.064-.007l-.003.004zm0 .665c.057-.008.113-.027.163-.057.072-.033.13-.09.163-.163.032-.078.047-.163.043-.248v-.094c-.119.043-.242.072-.368.085-.014 0-.021.007-.028.007-.073.006-.144.023-.212.05-.042.012-.077.04-.1.077-.02.034-.03.074-.028.113-.001.03.005.062.017.09.012.028.03.053.054.073.06.046.136.069.212.064.029.001.057-.001.085-.007l-.001.01zm3.071-.035c.053.002.105-.009.153-.031s.09-.055.123-.096c.085-.115.126-.257.113-.4.013-.143-.027-.285-.113-.4-.033-.042-.074-.076-.122-.1-.048-.023-.1-.035-.154-.035h-.007c-.052 0-.104.011-.152.033-.048.022-.09.054-.124.094-.082.117-.122.258-.113.4-.009.146.031.29.113.41.035.04.079.073.127.095.05.022.102.033.156.032v-.002zm0 .58c.083 0 .164-.025.234-.07.06-.047.102-.112.12-.185.018-.102.025-.207.021-.31-.046.055-.103.1-.168.132-.064.031-.135.049-.207.051h-.021c-.088.005-.176-.012-.256-.049-.08-.037-.15-.093-.204-.163-.11-.147-.167-.326-.163-.51 0-.129.026-.256.078-.375.042-.109.116-.202.212-.269.098-.067.214-.101.333-.1h.021c.078.003.154.023.223.059.069.035.13.085.177.146v-.17h.227v1.238c.008.161-.016.322-.071.474-.05.093-.126.169-.219.22-.102.053-.217.08-.333.077h-.03c-.145.01-.29-.03-.41-.113-.053-.04-.095-.093-.122-.154-.027-.06-.039-.127-.034-.193l.234.035c.007.061.038.117.085.156.072.052.16.077.248.071l.025.002zm1.536-.58c.053.002.105-.009.153-.031s.09-.055.123-.096c.085-.115.126-.257.113-.4.013-.143-.027-.285-.113-.4-.033-.042-.074-.076-.122-.1-.048-.023-.1-.035-.154-.035h-.007c-.052 0-.104.011-.152.033-.048.022-.09.054-.124.094-.082.117-.122.258-.113.4-.009.146.031.29.113.41.035.04.079.073.127.095.05.022.102.033.156.032v-.002zm0 .58c.083 0 .164-.025.234-.07.06-.047.102-.112.12-.185.018-.102.025-.207.021-.31-.046.055-.103.1-.168.132-.064.031-.135.049-.207.051h-.021c-.088.005-.176-.012-.256-.049-.08-.037-.15-.093-.204-.163-.11-.147-.167-.326-.163-.51 0-.129.026-.256.078-.375.042-.109.116-.202.212-.269.098-.067.214-.101.333-.1h.021c.078.003.153.023.223.059.069.035.13.085.177.146v-.17h.219v1.238c.01.16-.013.322-.064.474-.05.093-.126.169-.219.22-.103.052-.217.08-.333.077h-.028c-.145.009-.29-.03-.41-.113-.054-.039-.097-.091-.124-.152-.028-.061-.039-.128-.032-.195l.234.035c.007.061.038.117.085.156.072.053.16.078.248.071l.024.002zm1.529-1.21c.125-.014.248-.04.368-.078v-.064c.007-.076-.016-.152-.064-.212-.08-.056-.178-.083-.276-.078h-.028c-.08-.004-.159.016-.227.057-.062.056-.104.13-.12.212l-.244-.034c.021-.088.057-.172.106-.248.057-.068.133-.118.219-.142.084-.032.172-.049.262-.05.02-.006.042-.008.064-.007.102-.001.204.015.3.05.064.02.122.057.17.105.036.048.06.104.071.163.01.075.015.151.014.227v.318c0 .226.007.375.014.432.01.06.032.118.064.17h-.255c-.029-.055-.045-.115-.049-.177-.076.07-.165.126-.262.163-.041.016-.084.028-.127.035-.045.008-.09.013-.135.014-.132.008-.263-.033-.368-.113-.04-.039-.07-.086-.091-.137-.02-.052-.03-.107-.029-.163 0-.066.014-.131.043-.19.033-.056.076-.104.127-.143.053-.037.114-.064.177-.078.07-.02.14-.03.212-.035.02-.006.042-.008.064-.007v.01zm0 .665c.06-.007.118-.026.17-.057.07-.035.128-.092.163-.163.026-.08.038-.164.035-.248v-.094c-.119.044-.242.072-.368.085-.007 0-.014.007-.028.007-.073.006-.144.023-.212.05-.038.015-.07.042-.092.077-.03.043-.041.095-.033.146.008.052.034.098.075.13.06.048.136.07.212.064.026.002.052 0 .078-.007v.01zm2.526.163V15.5h.219v.205c.048-.076.115-.138.195-.18.08-.042.168-.063.258-.06.083.001.164.018.241.05.065.023.121.064.163.12.036.055.06.118.071.183.014.077.019.156.014.234v.878h-.241v-.87c.005-.074-.005-.148-.028-.219-.019-.05-.054-.092-.1-.12-.052-.029-.11-.043-.17-.042-.099 0-.194.035-.269.1-.044.051-.078.11-.097.175-.02.065-.025.133-.016.2v.778l-.24-.002zm-.991-.828c.125-.014.248-.04.368-.078v-.064c.007-.076-.016-.152-.064-.212-.08-.056-.178-.083-.276-.078h-.028c-.08-.004-.158.016-.226.057-.062.056-.104.13-.12.212l-.241-.028c.015-.09.051-.175.106-.248.057-.068.133-.118.219-.142.084-.032.172-.049.262-.05.02-.006.042-.008.064-.007.102-.001.204.015.3.05.062.02.118.057.163.105.041.046.068.103.078.163.01.075.015.151.014.227v.318c0 .226.007.375.014.432.007.061.03.12.064.17h-.255c-.03-.055-.046-.115-.05-.177-.076.07-.165.126-.262.163-.041.015-.084.027-.127.035-.044.008-.089.013-.134.014-.132.007-.263-.033-.368-.113-.042-.037-.075-.084-.097-.136-.022-.052-.032-.108-.03-.164.001-.066.018-.132.049-.19.033-.056.076-.104.127-.143.053-.038.113-.065.177-.078.069-.02.14-.032.212-.035.02-.006.042-.008.064-.007l-.003.004zm0 .665c.06-.007.118-.026.17-.057.07-.035.128-.092.163-.163.026-.08.038-.164.035-.248v-.094c-.119.044-.242.072-.368.085-.007 0-.014.007-.028.007-.073.006-.144.023-.212.05-.04.013-.072.04-.092.077-.022.034-.034.073-.035.113 0 .03.007.06.02.089.011.028.029.053.051.074.063.047.14.07.219.064.026.001.052-.001.078-.007l-.001.01zm4.013-1.812h.042c.123-.005.247.017.361.064.09.035.165.1.212.184.053.077.08.169.078.262 0 .082-.022.163-.064.234-.053.079-.127.142-.212.184.11.027.206.09.276.177.066.086.101.192.1.3 0 .09-.02.18-.057.262-.036.071-.087.134-.149.184-.065.045-.137.078-.212.1-.107.022-.216.031-.325.028h-.75V14.96l.7-.005zm0 .828c.08.003.162-.004.241-.02.06-.017.112-.052.149-.1.036-.05.053-.11.049-.17.003-.063-.015-.125-.049-.178-.031-.048-.079-.083-.134-.1-.083-.02-.17-.03-.255-.028h-.44v.594h.439v.002zm0 .913h.05c.061.003.123 0 .184-.007.053-.01.103-.03.149-.057.043-.024.078-.061.1-.106.03-.052.044-.11.043-.17 0-.068-.02-.134-.057-.19-.04-.056-.097-.096-.163-.114-.092-.026-.187-.037-.283-.035h-.462v.68h.439zm2.654.234V15.5h.219v.205c.048-.076.115-.138.195-.18.08-.042.168-.063.258-.06.083 0 .165.017.241.05.065.023.121.064.163.12.038.054.065.117.078.183.01.078.015.156.014.234v.878h-.248v-.87c.005-.074-.005-.148-.028-.219-.016-.051-.052-.095-.1-.12-.052-.029-.11-.043-.17-.042-.099 0-.194.036-.269.1-.043.052-.075.112-.095.176-.02.065-.025.132-.018.2v.777l-.24-.002zm-.991-.828c.125-.014.248-.04.368-.078.005-.02.007-.042.007-.064.005-.077-.02-.153-.071-.212-.08-.056-.178-.083-.276-.078h-.03c-.08-.004-.158.016-.226.057-.062.056-.104.13-.12.212l-.234-.028c.015-.09.051-.175.106-.248.054-.068.128-.118.212-.142.084-.032.172-.049.262-.05.02-.006.042-.008.064-.007.102-.001.204.015.3.05.065.02.123.056.17.105.036.048.06.104.071.163.01.075.015.151.014.227v.318c0 .226.007.375.014.432.014.06.035.116.064.17h-.255c-.026-.056-.043-.116-.05-.177-.074.07-.16.125-.255.163-.044.016-.088.028-.134.035-.044.008-.089.013-.134.014-.13.007-.258-.034-.361-.113-.042-.037-.075-.084-.097-.136-.022-.052-.032-.108-.03-.164-.001-.066.013-.131.042-.19.033-.056.076-.104.127-.143.053-.037.114-.064.177-.078.07-.02.14-.03.212-.035.02-.006.042-.008.064-.007l-.001.004zm0 .665c.06-.007.118-.026.17-.057.07-.035.128-.092.163-.163.03-.079.041-.164.035-.248v-.094c-.118.045-.242.073-.368.085-.007 0-.014.007-.028.007-.07.005-.14.022-.205.05-.041.012-.077.04-.1.077-.022.034-.034.073-.035.113 0 .031.007.062.02.09.014.029.034.053.058.073.06.048.136.07.212.064.026.002.053 0 .078-.007v.01zm3.078-.035c.053.001.105-.01.152-.032.048-.022.09-.054.124-.095.085-.115.126-.257.113-.4.013-.143-.027-.285-.113-.4-.033-.042-.074-.076-.122-.1-.048-.023-.1-.035-.154-.035h-.007c-.052 0-.104.011-.152.033-.048.022-.09.054-.124.094-.085.115-.125.258-.113.4-.012.146.028.291.113.41.035.04.079.073.127.095.05.022.102.033.156.032v-.002zm0 .58c.08 0 .16-.026.226-.07.064-.044.109-.11.127-.185.015-.103.02-.207.014-.31-.044.055-.1.1-.163.133-.064.031-.134.049-.205.05h-.028c-.087.005-.174-.012-.253-.049-.08-.037-.148-.093-.2-.163-.11-.147-.167-.326-.163-.51-.003-.128.022-.256.071-.375.045-.11.121-.203.219-.269.098-.067.214-.101.333-.1h.021c.078.003.154.023.222.059.07.035.13.085.178.146v-.17h.221v1.238c.01.16-.013.322-.064.474-.05.093-.126.169-.219.22-.103.052-.217.08-.333.077h-.028c-.148.008-.294-.032-.417-.113-.053-.04-.095-.092-.121-.153-.026-.061-.036-.128-.028-.194l.234.035c.002.03.01.06.025.088.015.026.035.05.06.068.072.053.16.078.248.071l.023.002z" clip-rule="evenodd"/>
</svg>
