<svg xmlns="http://www.w3.org/2000/svg" width="54" height="18" fill="none" viewBox="0 0 54 18">
    <path fill="#005AAA" d="M.018 16.656V14h.628l.835 2.208.82-2.208h.627v2.656h-.38v-2.3H2.54l-.88 2.3h-.37l-.88-2.3H.403v2.3H.018zM3.84 15.498h1.007c.001-.094-.019-.187-.058-.272-.035-.082-.093-.151-.167-.2-.077-.049-.167-.073-.259-.071-.098-.004-.196.024-.278.078-.074.05-.132.12-.17.2-.04.082-.065.17-.075.26v.005zm1.238.718v.358l-.117.043c-.042.015-.086.028-.13.04-.054.014-.107.024-.16.03-.069.01-.137.013-.206.013-.195.006-.388-.038-.56-.13-.148-.081-.266-.209-.336-.362-.076-.176-.114-.366-.109-.557-.002-.136.02-.272.065-.4.04-.115.103-.22.185-.311.08-.087.18-.155.29-.2.117-.049.243-.073.37-.071.177-.008.352.04.5.139.13.095.226.23.274.383.059.185.087.379.083.573H3.84c-.001.117.03.232.088.333.057.096.138.175.235.23.097.054.207.083.318.082.116-.002.231-.024.34-.065.091-.03.177-.073.255-.13l.003.002zM6.115 13.8h-.357v2.856h.357V13.8zM7.938 15.9v-.17H7.71c-.156-.001-.312.024-.46.074-.065.017-.122.057-.161.111-.04.055-.058.122-.054.19-.001.044.009.088.028.128.02.04.05.074.085.1.07.056.158.086.248.086.104.004.207-.019.3-.066.079-.04.143-.104.185-.182.042-.08.063-.17.062-.26l-.004-.01zm-1.045-.745l-.019-.305c.193-.118.414-.18.64-.182.108-.01.216.003.319.038.102.034.196.09.276.162.136.17.202.384.186.6v.8c-.002.127.003.254.015.38h-.334V16.4H7.97c-.063.084-.142.154-.233.206-.112.064-.24.096-.369.091-.185.01-.368-.042-.52-.149-.066-.055-.117-.125-.15-.204-.034-.079-.048-.164-.042-.25-.003-.106.026-.21.084-.3.057-.083.133-.152.222-.2.091-.05.19-.086.291-.108.1-.022.203-.033.306-.033.16 0 .287 0 .382.007.011-.137-.027-.273-.109-.383-.05-.046-.108-.08-.172-.101-.064-.022-.132-.029-.199-.022-.104 0-.207.018-.305.053-.098.032-.189.083-.267.15l.005-.002zM8.744 17.472l.022-.292c.054.019.11.029.168.03.045.001.09-.007.13-.024.042-.018.079-.044.11-.076.06-.064.108-.139.14-.221.023-.05.038-.104.046-.158 0-.017-.004-.033-.01-.05l-.027-.074c-.01-.03-.022-.058-.03-.081l-.66-1.812h.393l.521 1.61h.008l.533-1.61h.362l-.716 1.984c-.05.144-.108.286-.173.424-.051.103-.124.194-.215.265-.103.078-.23.118-.359.113-.082-.002-.163-.011-.243-.028zM11.98 15.9v-.17h-.23c-.156-.002-.312.023-.46.073-.065.018-.122.057-.161.112-.04.055-.058.121-.054.189-.001.044.009.088.028.128.02.04.05.075.085.1.07.056.158.087.248.087.104.003.207-.02.3-.067.079-.04.143-.104.185-.181.042-.08.063-.17.062-.26l-.004-.011zm-1.046-.745l-.018-.305c.192-.118.413-.181.64-.182.108-.01.217.002.32.036.104.035.199.09.28.163.135.17.201.384.185.6v.8c-.002.127.003.254.015.38h-.334V16.4h-.007c-.063.084-.142.154-.233.206-.112.064-.24.095-.37.09-.185.01-.368-.042-.52-.149-.066-.055-.117-.124-.15-.203-.034-.08-.048-.165-.042-.25-.003-.107.026-.212.084-.3.057-.084.133-.153.222-.2.091-.05.19-.087.291-.108.1-.022.203-.033.306-.034.16 0 .287 0 .381.008.01-.137-.028-.273-.109-.384-.05-.045-.108-.08-.173-.101-.064-.021-.132-.029-.199-.021-.104 0-.208.018-.306.053-.095.033-.183.084-.26.15l-.003-.002zM12.953 16.656v-1.943h.346v.311h.007c.055-.111.144-.202.254-.259.117-.065.248-.1.382-.1.102-.008.204.008.299.045s.18.096.25.171c.13.179.194.397.18.618v1.153h-.358v-1c.011-.176-.02-.352-.09-.514-.034-.055-.08-.101-.137-.133-.057-.03-.12-.046-.185-.045-.086-.006-.172.011-.25.049-.077.037-.144.094-.193.165-.107.175-.158.379-.147.584v.9h-.357v-.002zM15.336 16.656h.354v-1.943h-.354v1.943zm-.023-2.376h.4v-.4h-.4v.4zM17.822 14.332v1.991h.4c.137.02.276.008.408-.034.131-.043.25-.116.35-.213.098-.097.172-.215.217-.346.045-.13.06-.27.041-.407.004-.183-.039-.364-.126-.526-.08-.146-.201-.265-.348-.343-.154-.081-.326-.122-.5-.119h-.445l.003-.003zm-.38 2.324V14h.782c.188-.002.375.028.553.088.166.056.32.144.451.258.13.114.232.256.3.414.074.172.111.357.108.544.003.2-.031.398-.1.585-.06.161-.155.306-.279.424-.128.117-.28.205-.445.257-.191.06-.391.09-.592.086h-.779zM20.438 15.498h1.005c.001-.094-.019-.187-.058-.272-.036-.082-.096-.151-.172-.199-.076-.047-.164-.07-.254-.067-.098-.004-.195.024-.278.078-.073.05-.133.12-.17.2-.04.082-.064.17-.075.26h.002zm1.24.718v.358l-.118.043c-.04.015-.085.028-.13.04-.053.014-.106.024-.16.03-.068.01-.136.013-.205.013-.195.006-.389-.038-.562-.13-.148-.081-.265-.208-.336-.362-.076-.176-.113-.366-.109-.557-.002-.136.02-.272.065-.4.04-.115.104-.22.186-.311.08-.087.18-.155.29-.2.117-.049.243-.073.37-.071.177-.008.352.04.5.139.13.095.226.23.274.383.059.185.087.379.083.573h-1.388c-.002.117.029.232.088.333.056.096.138.176.235.23.097.055.206.083.317.083.116-.002.231-.024.34-.065.093-.03.18-.074.26-.13zM22.316 16.656v-1.943h.346v.311h.007c.055-.111.144-.202.254-.259.117-.065.249-.1.383-.1.102-.008.204.008.3.045.094.037.18.096.248.171.13.179.195.397.18.618v1.153h-.357v-1c.012-.176-.02-.352-.092-.514-.033-.055-.08-.101-.136-.133-.057-.03-.12-.046-.185-.045-.086-.005-.172.011-.25.049-.077.037-.144.094-.193.165-.107.176-.158.38-.147.584v.9h-.357v-.002zM25.446 16.366c.105.002.207-.03.293-.088.087-.061.156-.144.2-.24.049-.104.073-.217.072-.331.002-.129-.02-.256-.063-.377-.038-.107-.104-.201-.193-.272-.09-.069-.2-.104-.312-.1-.08-.002-.16.017-.23.056-.07.04-.13.096-.17.166-.096.149-.147.322-.145.5-.001.117.021.233.066.34.04.1.106.186.19.25.082.064.183.097.286.095h.006zm.925-1.653v1.859c.003.135-.016.27-.058.4-.037.11-.1.209-.182.29-.089.084-.196.145-.313.18-.145.045-.297.066-.449.063-.106 0-.212-.01-.316-.028-.129-.025-.256-.059-.38-.1l.037-.332c.117.055.24.1.364.136.11.027.224.04.338.039.082.004.164-.01.24-.04.077-.03.146-.077.202-.137.114-.137.17-.312.16-.49v-.19h-.007c-.074.099-.173.176-.286.225-.115.051-.24.078-.366.078-.161.004-.32-.042-.455-.131-.126-.087-.224-.209-.283-.35-.063-.15-.095-.312-.094-.475 0-.172.034-.342.1-.5.063-.154.166-.287.3-.385.137-.102.305-.154.475-.15.128-.013.257.011.37.07.115.06.209.152.27.265h.01v-.291l.323-.006zM28.143 15.9v-.17h-.229c-.156-.001-.312.024-.46.074-.065.018-.122.057-.161.112-.04.054-.058.12-.054.188-.001.045.009.089.028.129.02.04.05.074.086.1.07.056.158.086.248.086.102.003.204-.02.295-.066.079-.04.143-.104.185-.182.043-.08.064-.17.062-.26v-.01zm-1.045-.745l-.018-.305c.192-.118.414-.18.64-.182.107-.01.215.003.318.038.102.034.196.09.276.162.136.17.202.384.186.6v.8c-.002.127.003.254.015.38h-.334V16.4h-.007c-.063.084-.142.154-.233.206-.112.064-.24.095-.37.091-.185.01-.368-.042-.52-.149-.066-.055-.117-.125-.15-.204-.034-.079-.048-.165-.042-.25-.003-.106.026-.21.084-.3.056-.084.132-.152.221-.2.091-.05.19-.086.291-.108.101-.022.204-.033.307-.033.16 0 .287.002.381.007.011-.137-.027-.273-.109-.383-.05-.046-.108-.08-.172-.101-.064-.022-.132-.029-.199-.022-.102 0-.204.019-.3.053-.098.032-.188.083-.266.15l.001-.002zM29.115 16.656v-1.943h.346v.311h.008c.055-.111.144-.202.254-.259.117-.065.249-.1.383-.1.102-.008.204.008.299.045s.18.096.25.171c.13.179.193.397.178.618v1.153h-.354v-1c.011-.176-.02-.352-.092-.514-.033-.056-.08-.101-.136-.133-.057-.03-.12-.046-.185-.045-.086-.005-.172.011-.25.049-.077.037-.144.094-.193.165-.107.176-.158.38-.147.584v.9h-.358l-.003-.002zM33.812 14.046l-.052.35c-.084-.034-.17-.063-.259-.087-.078-.017-.158-.025-.239-.024-.114-.003-.227.026-.326.083-.045.029-.082.069-.106.117-.024.048-.035.102-.03.155-.004.046.004.092.023.135.019.042.048.079.085.106.134.086.273.165.417.234.172.08.329.192.461.328.107.131.162.298.152.467.009.115-.011.23-.058.334-.047.105-.12.197-.21.266-.207.14-.452.21-.7.2-.186-.01-.368-.047-.542-.11l.037-.353c.173.079.36.123.55.13.081-.001.163-.017.24-.048.077-.03.146-.079.2-.144.054-.069.082-.155.08-.243.004-.057-.006-.114-.029-.166-.023-.052-.058-.098-.103-.134-.133-.092-.274-.172-.42-.239-.163-.071-.31-.17-.439-.292-.051-.058-.091-.126-.116-.2-.025-.074-.036-.152-.03-.23-.006-.136.03-.27.105-.385.074-.115.182-.204.308-.255.138-.057.286-.085.435-.083.192-.003.384.027.566.088zM34.687 15.498h1.007c0-.094-.02-.187-.058-.272-.035-.082-.093-.151-.167-.2-.078-.049-.168-.074-.26-.071-.098-.004-.196.024-.278.078-.073.05-.132.12-.17.2-.04.082-.064.17-.074.26v.005zm1.24.718v.358l-.118.043c-.04.015-.085.028-.132.04-.053.014-.106.024-.16.03-.068.01-.136.013-.205.013-.195.006-.388-.038-.56-.13-.15-.081-.267-.208-.338-.362-.077-.176-.114-.366-.109-.557-.002-.136.02-.272.065-.4.041-.115.104-.22.186-.311.08-.087.18-.155.29-.2.117-.049.243-.073.37-.071.177-.008.352.04.5.139.13.095.225.23.273.383.059.185.087.378.083.573h-1.388c-.002.117.029.232.088.333.057.096.138.176.236.23.096.055.205.083.316.083.117-.002.232-.024.341-.065.093-.03.181-.073.261-.13zM37.593 14.713v.29h-.515v1.06c-.005.093.025.185.086.255.027.03.06.054.097.07.037.015.077.023.117.022.086.002.171-.022.244-.068v.305c-.097.03-.198.048-.3.052-.159.01-.316-.04-.44-.14-.055-.055-.097-.12-.124-.194-.027-.072-.038-.15-.032-.228v-1.134h-.437v-.289h.438v-.449l.357-.114v.563h.514-.005zM39.772 14.713v1.943h-.346v-.312h-.007c-.035.074-.087.139-.15.19-.067.054-.143.096-.225.122-.084.028-.171.042-.26.042-.143.005-.284-.03-.409-.1-.11-.066-.194-.167-.24-.286-.056-.143-.083-.296-.079-.449V14.71h.357v1c-.003.128.01.256.038.381.019.087.064.166.13.226.069.055.155.085.243.086.086.006.173-.01.25-.048.078-.038.145-.095.194-.166.107-.175.159-.38.148-.585v-.9h.356v.01zM40.794 13.8h-.358v2.856h.358V13.8zM43.183 14.713v1.943h-.346v-.312h-.007c-.036.074-.087.139-.151.19-.067.054-.143.095-.224.122-.084.028-.172.043-.26.042-.144.005-.285-.03-.409-.1-.11-.066-.194-.167-.24-.286-.056-.143-.083-.296-.079-.449V14.71h.357v1c-.003.128.01.256.04.381.017.087.062.166.127.226.07.055.156.085.244.086.086.005.172-.012.25-.05.078-.037.145-.093.194-.164.107-.176.158-.38.147-.585v-.9h.357v.01zM43.635 16.592l.02-.32c.071.044.148.077.228.1.07.022.143.035.217.037.09.002.178-.022.255-.068.036-.021.065-.053.085-.09.019-.037.028-.078.025-.12.002-.035-.006-.07-.022-.102-.016-.032-.04-.06-.07-.079-.1-.064-.203-.122-.31-.173-.12-.055-.23-.13-.328-.22-.037-.039-.066-.085-.084-.135-.02-.05-.028-.103-.026-.157-.004-.116.027-.23.09-.328.06-.089.144-.159.243-.2.111-.046.23-.069.351-.067.152.004.302.03.446.076l-.03.312c-.057-.03-.118-.053-.18-.067-.066-.02-.133-.03-.2-.032-.087-.003-.171.017-.246.06-.03.018-.056.043-.073.074-.018.03-.027.066-.027.101-.002.037.004.074.02.107.016.034.04.062.07.084.098.063.202.119.31.166.122.052.234.126.33.218.078.09.118.207.11.325.005.114-.025.227-.086.324-.062.096-.152.17-.258.214-.105.044-.218.067-.333.066-.181.008-.362-.029-.527-.106zM46.412 16.656V14h.381v1.11h1.272V14h.381v2.656h-.38v-1.217h-1.273v1.214l-.38.003zM50.273 15.9v-.17h-.23c-.156-.001-.312.024-.46.074-.065.017-.122.057-.161.111-.04.055-.058.122-.054.19-.001.044.009.088.028.128.02.04.05.074.085.1.07.056.158.086.248.086.104.004.207-.019.3-.066.079-.04.143-.104.185-.182.042-.08.064-.17.062-.26l-.003-.01zm-1.045-.745l-.019-.305c.193-.118.414-.18.64-.182.107-.01.215.003.318.038.102.034.196.09.276.162.136.17.203.384.186.6v.8c-.002.127.003.254.015.38h-.333V16.4h-.008c-.062.084-.141.154-.232.206-.112.064-.24.096-.37.091-.185.01-.369-.042-.52-.149-.066-.055-.117-.125-.15-.204-.034-.079-.048-.165-.042-.25-.003-.106.026-.21.084-.3.057-.083.133-.152.222-.2.091-.05.19-.086.291-.108.101-.022.204-.033.307-.033.16 0 .287 0 .382.007.011-.137-.027-.273-.109-.383-.05-.046-.108-.08-.173-.101-.064-.022-.132-.029-.199-.022-.102 0-.203.019-.3.053-.098.032-.188.083-.267.15l.001-.002zM52.276 14.713v.29h-.514v1.06c-.005.093.025.185.086.255.027.03.06.054.097.07.037.016.077.023.117.022.086.002.17-.021.243-.068v.305c-.097.03-.198.048-.3.052-.159.01-.316-.04-.44-.14-.055-.055-.097-.12-.124-.194-.027-.072-.038-.15-.032-.228v-1.134h-.438v-.289h.438v-.449l.357-.114v.563h.514-.004zM52.79 16.656h.353v-1.943h-.354v1.943zm-.025-2.376h.4v-.4h-.4v.4zM16.037 8.189h.491c.606 0 1.24-.09 1.24-.723 0-.677-.652-.74-1.223-.74h-.509v1.463h.001zm0-2.587h.464c.544 0 1.107-.134 1.107-.661 0-.57-.535-.624-1.089-.624h-.482v1.285zM14.378 3.14h2.864c1.16 0 2.024.508 2.024 1.579.019.333-.082.662-.283.928-.202.267-.491.453-.817.526v.018c.83.17 1.258.616 1.258 1.374 0 1.49-1.312 1.8-2.427 1.8h-2.622l.003-6.225zM22.622 4.425h-.019l-.8 2.435h1.561l-.74-2.435h-.002zM21.605 3.14h2.034l2.4 6.226h-1.82l-.463-1.33H21.42l-.49 1.33h-1.687l2.363-6.226zM26.27 3.14h2.114l2.105 4.229h.017l-.026-4.23h1.514v6.227h-2.06L27.755 5.11h-.017l.053 4.255h-1.525l.003-6.226zM32.56 3.14h1.66v2.543h.017L36.11 3.14h2l-2.3 2.9 2.48 3.327h-2.115L34.24 6.539h-.018v2.828h-1.659L32.56 3.14zM42.004 8.189h.491c.606 0 1.24-.09 1.24-.723 0-.677-.65-.74-1.222-.74h-.509v1.463zm0-2.587h.464c.544 0 1.106-.134 1.106-.661 0-.57-.535-.624-1.088-.624h-.482v1.285zm-1.66-2.462h2.86c1.16 0 2.025.508 2.025 1.579.019.333-.082.662-.283.928-.202.267-.491.453-.817.526v.018c.83.17 1.258.616 1.258 1.374 0 1.49-1.31 1.8-2.426 1.8h-2.617V3.14zM47.42 5.727h.437c.535 0 1.214-.018 1.214-.723 0-.58-.58-.687-1.214-.687h-.437v1.41zM45.761 3.14h2.962c1.106 0 2.007.5 2.007 1.57.035.364-.07.727-.29 1.018-.222.291-.545.488-.905.552v.018c.534.143.57.616.883 1.374l.607 1.695h-1.73l-.357-1.123c-.339-1.071-.553-1.34-1.169-1.34h-.348v2.463h-1.66V3.14zM53.141 3.14h-1.659v6.226h1.66V3.14zM10.592 0H1.91C1.397.006.908.216.55.583.193.95-.005 1.443 0 1.956v8.6c-.006.507.188.997.54 1.363.35.365.832.579 1.34.593h8.708c.513-.006 1.002-.216 1.36-.583.358-.367.555-.86.55-1.373v-8.6c.005-.512-.192-1.006-.55-1.373C11.59.216 11.1.006 10.588 0h.004zm-7.65 11.509l-.475.005c-.277-.002-.542-.113-.737-.31-.195-.197-.304-.463-.303-.74V2.011c.002-.268.109-.524.298-.713.188-.19.444-.298.711-.302H3.4c.317.014.623.12.882.302.259.184.46.437.578.732.119.294.15.616.091.927-.059.312-.207.6-.425.83L2.068 6.28l2.3 2.345c.303.306.474.718.476 1.149-.024.483-.238.937-.595 1.262-.358.325-.83.496-1.313.474l.005-.001zm7.08-.008H5.726c.26-.548.429-1.135.5-1.737.017-.732-.23-1.446-.695-2.012l-1.468-1.5 1.5-1.549c.25-.27.445-.587.573-.932.127-.345.185-.712.17-1.08.013-.603-.156-1.195-.485-1.7h1.04c.317.014.623.119.882.302.26.183.46.437.58.731.118.294.15.616.09.928-.059.312-.206.6-.425.83L5.58 6.249l5.006 5.1c-.17.099-.363.149-.559.144l-.005.008zm1.048-1.594L7.482 6.251l1.71-1.737c.385-.528.586-1.168.568-1.822.013-.609-.158-1.207-.49-1.717l.765.023c.277.002.542.114.737.312.195.197.303.464.301.741l-.003 7.856z"/>
</svg>
