<svg xmlns="http://www.w3.org/2000/svg" width="60" height="18" fill="none" viewBox="0 0 60 18">
    <path fill="#003163" d="M1.86 10.037l.049 1.12c.242-.385.584-.698.989-.906.423-.218.892-.33 1.368-.325.497-.017.987.123 1.4.4.307.234.548.544.7.9.103-.219.246-.416.421-.583.259-.235.561-.417.89-.536.352-.133.724-.2 1.1-.2.407-.01.81.086 1.169.278.313.166.575.412.761.714.159.304.262.634.306.975.063.418.09.841.08 1.264v4.232H9.13v-4.038c.017-.378-.022-.756-.114-1.122-.068-.216-.21-.4-.4-.522-.182-.122-.396-.187-.615-.185-.268.005-.527.093-.741.254-.252.193-.437.461-.527.766-.109.318-.166.652-.17.989v3.857H4.609v-4.4c.03-.394-.084-.785-.321-1.1-.098-.116-.221-.208-.36-.271-.138-.063-.288-.094-.44-.092-.198.006-.391.057-.567.15-.175.091-.327.222-.444.38-.338.485-.497 1.07-.45 1.659v3.677H.063v-5.518l-.027-1.217c-.005-.213-.017-.413-.036-.6h1.86zM16.876 17.372l-.051-1.084c-.203.378-.52.681-.907.866-.454.237-.96.357-1.471.351-.45.004-.894-.093-1.3-.285-.382-.175-.703-.46-.924-.818-.22-.368-.332-.79-.323-1.219-.009-.392.096-.777.303-1.11.206-.333.505-.6.859-.766.844-.37 1.764-.533 2.684-.479.3 0 .639.017 1.019.047.005-.088.007-.155.007-.2.012-.197-.019-.395-.09-.579-.071-.184-.181-.351-.323-.489-.36-.281-.811-.417-1.266-.38-.429.002-.854.083-1.254.237-.386.137-.749.334-1.074.584l-.051-1.646c.365-.161.747-.278 1.14-.349.493-.105.996-.158 1.5-.159.547-.014 1.092.073 1.607.256.42.159.79.427 1.069.778.207.284.34.615.387.963.077.577.111 1.16.1 1.741v1.084l.02 1.07.029 1.127.037.458-1.727.001zm-.1-3.343c-.243-.019-.406-.028-.491-.028-.44-.003-.877.04-1.308.126-.326.047-.63.197-.865.427-.175.188-.271.436-.27.693-.003.13.023.26.076.378.053.12.131.225.23.31.239.192.54.288.846.27.33-.003.652-.099.931-.275.285-.165.512-.413.651-.712.15-.379.218-.785.2-1.192v.003zM21.659 10.033l.051 1.12c.258-.404.62-.73 1.046-.948.427-.218.904-.318 1.382-.29.374-.006.746.054 1.1.176.298.098.57.26.8.474.199.188.358.414.469.664.126.327.203.672.229 1.022.02.208.031.76.036 1.654v3.46h-1.945V13.69c.04-.547-.034-1.096-.214-1.613-.1-.2-.257-.365-.45-.476-.194-.111-.416-.163-.639-.148-.32-.001-.632.09-.9.263-.282.175-.498.44-.613.752-.149.459-.214.94-.192 1.423v3.475H19.86v-5.886c0-.505-.022-.987-.063-1.447h1.862zM33.124 11.091v-4.4h1.923v10.675h-1.852v-1.07c-.256.364-.6.658-1 .854-.384.184-.8.29-1.225.31-.425.02-.85-.043-1.249-.189-.29-.105-.56-.258-.8-.453-.223-.198-.417-.426-.576-.679-.202-.336-.35-.701-.437-1.084-.117-.472-.174-.956-.17-1.443-.053-.97.232-1.93.807-2.714.265-.327.603-.589.987-.762.384-.174.804-.255 1.225-.238.458-.012.912.086 1.325.285.407.222.762.53 1.04.9l.002.008zm-1.753.377c-.22-.001-.439.048-.638.144-.198.096-.373.236-.509.41-.35.49-.516 1.09-.469 1.69-.052.62.126 1.238.5 1.734.143.174.322.314.526.41.204.096.426.144.651.143.225-.001.447-.053.65-.15.202-.099.38-.24.521-.417.365-.482.543-1.08.5-1.684.024-.58-.136-1.153-.457-1.637-.14-.206-.331-.373-.554-.486-.223-.112-.47-.166-.72-.157h-.001zM38.361 10.037h-1.957v7.333h1.957v-7.333zM39.718 10.037h1.787l.037 1.862c.1-.544.378-1.04.79-1.407.373-.335.858-.52 1.359-.517.18 0 .358.015.535.047v1.793c-.188-.087-.393-.128-.6-.118-.308-.01-.613.059-.887.2-.235.132-.436.316-.588.539-.154.231-.261.49-.318.762-.071.38-.102.767-.093 1.155v3.015h-1.959V12.26l-.051-2.023-.012-.2zM46.782 10.037h-1.957v7.333h1.957v-7.333z"/>
    <path fill="url(#paint0_linear)" fill-rule="evenodd" d="M23.798 4.996s.992 2.7 3.337 2.451c.906-.194 1.759-.582 2.5-1.138l2.843-1.674c.958-.543 2.058-.787 3.156-.7.74.06 1.449.328 2.042.775.645.525.917 1.386 1.5 1.978 1.249 1.261 2.508.253 3.7-.429l3.253-1.857s2.888-1.827 5.034.184c.589.67 1.5 2.1 2.318 2.37.382.054.77.033 1.144-.064.374-.097.724-.267 1.031-.5l4.341-2.6-1.3-1.739c-1.262-1.685-3.625.021-4.911.8-.44.235-.927.37-1.426.396-.498.026-.996-.058-1.459-.245-1.173-.647-1.2-1.99-2.635-2.668-.518-.237-1.084-.352-1.654-.334-.57.017-1.128.166-1.631.434l-4.9 2.643s-1.614.993-2.781.161C36.027 2.333 35.926.905 34.073.452c-1.146-.194-2.323.001-3.345.554l-6.93 3.99z" clip-rule="evenodd"/>
    <defs>
        <linearGradient id="paint0_linear" x1="-5.958" x2="-1.257" y1="28.75" y2="-27.586" gradientUnits="userSpaceOnUse">
            <stop stop-color="#FB9335"/>
            <stop offset=".1" stop-color="#FFBE00"/>
            <stop offset=".3" stop-color="#FE0"/>
            <stop offset=".37" stop-color="#FFBE00"/>
            <stop offset=".42" stop-color="#FB9335"/>
            <stop offset=".48" stop-color="#FFBE00"/>
            <stop offset=".63" stop-color="#FE0"/>
            <stop offset=".69" stop-color="#FFBE00"/>
            <stop offset=".75" stop-color="#FB9335"/>
            <stop offset=".83" stop-color="#FFBE00"/>
            <stop offset="1" stop-color="#FE0"/>
        </linearGradient>
    </defs>
</svg>
