<svg xmlns="http://www.w3.org/2000/svg" width="60" height="18" fill="none" viewBox="0 0 60 18">
    <path fill="#004293" fill-rule="evenodd" d="M9.414 13.283h-.27l-.043-3.865c-.01-.436-.086-.868-.225-1.281-.225-.679-.65-1.273-1.218-1.707-2.155-2.041-.852-4.79 1.756-4.79 2.609 0 3.912 2.749 1.757 4.79-.568.434-.993 1.029-1.219 1.707-.138.413-.214.845-.225 1.28l-.043 3.866h-.27zM59.328 2.003h-7.384l-2.613 4.09h1.537l-5.695 10.014h5.352l1.142-2.471h3.121l.013 2.47H60l-.673-14.103zm-6.067 8.18l1.5-3.237.017 3.238H53.26zM44.316 16.405c-9.543 1.2-10.266-5-9.22-7.84.706-1.912 3.306-7.115 11.028-6.222l.27-.554 3.526 1.747-2.486 3.835c-2.7-2.214-6.5-.626-7.342.925-1.158 2.134-.42 5.424 6.394 3.506l-2.17 4.603z" clip-rule="evenodd"/>
    <path fill="#004293" fill-rule="evenodd" d="M34.218 2.55c-1.305-.88-2.558-.72-4.052-.7l-4.866.067-2.348 4h1.45l-3.148 9.934h5.221c2.39 0 4.218-.016 5.89-1.039 1.99-1.216 2.731-3.66.5-6.18 3-1.621 3.478-4.651 1.353-6.082zm-4.844 9.64h-2.61l.686-2.133h1.994c.227.077.422.224.558.421.137.197.206.432.198.671-.008.24-.092.47-.241.657-.149.188-.354.322-.585.385zm.852-4.583H28.21l.676-2.134h1.41c.226.076.422.224.559.42.136.198.206.433.198.673-.008.239-.092.47-.241.657-.149.188-.354.323-.586.385l.001-.001zM18.836 8.747c.01-1.221-.13-2.439-.418-3.625-.305-1.252-.75-2.466-1.327-3.62l-.129-.113C15.74.928 14.477.576 13.192.339c-2.496-.452-5.052-.452-7.547 0-1.285.237-2.547.589-3.77 1.05l-.13.114C1.17 2.656.725 3.87.418 5.122.131 6.308-.009 7.526 0 8.747v.006c-.009 1.22.132 2.436.418 3.622.306 1.252.751 2.466 1.327 3.62l.13.114c1.223.46 2.485.812 3.77 1.05 2.495.451 5.051.451 7.546 0 1.286-.238 2.548-.589 3.771-1.05l.13-.114c.576-1.153 1.021-2.368 1.326-3.62.288-1.187.428-2.404.418-3.625v-.006.003zm-.478.009c.01 1.186-.128 2.37-.407 3.523-.29 1.191-.712 2.347-1.256 3.447-1.168.434-2.373.766-3.6.992-2.435.442-4.93.442-7.365 0-1.226-.226-2.43-.558-3.6-.992-.54-1.102-.958-2.259-1.246-3.451C.605 11.12.47 9.938.477 8.752V8.74C.47 7.553.605 6.37.884 5.217c.292-1.19.713-2.344 1.256-3.442 1.17-.435 2.374-.767 3.6-.992 2.436-.442 4.93-.442 7.365 0 1.227.225 2.431.557 3.6.992.544 1.1.965 2.255 1.256 3.447.28 1.153.416 2.336.407 3.523v.012l-.01-.001z" clip-rule="evenodd"/>
    <path fill="#004293" fill-rule="evenodd" d="M5.016 15.645l.02-.164c-.039.056-.094.099-.158.122-.072.02-.147.02-.22 0-.068-.008-.133-.035-.186-.078-.054-.044-.093-.102-.114-.168-.03-.219-.011-.441.058-.651.027-.115.063-.228.108-.337.028-.069.07-.131.123-.183.054-.049.12-.08.19-.093.085-.013.172-.008.255.013.133.017.253.085.336.19.031.055.05.117.055.18.006.063-.002.127-.023.187l-.009.036-.267-.06v-.014c.023-.067.023-.14 0-.207-.016-.027-.038-.051-.064-.069-.027-.018-.057-.029-.088-.034-.032-.004-.064-.001-.094.008-.03.01-.058.026-.082.048-.08.145-.136.303-.164.467-.042.135-.062.277-.058.419.004.034.02.066.043.091.024.025.055.042.09.047.03.01.063.01.094.004s.06-.021.084-.042c.058-.068.096-.15.11-.237l.012-.05-.2-.044.057-.23.472.1-.2.787-.18-.038zM6.874 14.828c.014-.053.016-.108.006-.16-.01-.054-.032-.104-.064-.148-.088-.083-.203-.132-.325-.137l-.519-.072-.228 1.466.28.04.1-.645.1.014c.082.003.16.03.226.08.019.027.03.057.036.089.005.031.003.064-.006.095l-.006.039-.02.153c-.008.062-.013.11-.014.144-.002.03-.002.06 0 .09l.344.046c-.021-.027-.036-.06-.043-.094-.006-.045-.006-.09 0-.135l.022-.195v-.02c.023-.185-.032-.305-.165-.357.034.001.067-.005.098-.018.031-.012.059-.032.081-.056.054-.062.088-.138.097-.22zm-.294-.022c-.003.062-.03.12-.076.164-.056.03-.12.038-.183.022l-.167-.022.065-.415.142.02c.07.002.135.027.188.07.017.023.029.05.034.077.006.028.005.056-.003.084zM7.326 14.487l.292.018-.07 1c-.013.08-.003.161.028.235.04.042.095.067.153.071.058.004.115-.015.16-.052.041-.07.062-.151.06-.233l.07-.994.287.018-.072 1.021c-.002.073-.013.146-.033.216-.013.044-.037.084-.068.117-.047.05-.108.088-.175.106-.08.023-.165.031-.249.024-.068.011-.139.005-.204-.019-.065-.024-.124-.064-.17-.116-.045-.052-.076-.116-.09-.184-.015-.068-.012-.138.008-.205l.073-1.023zM9.617 14.671c-.094-.074-.213-.11-.333-.1l-.509-.006-.02 1.483h.29l.01-.629h.213c.12.012.24-.023.334-.1.04-.043.07-.095.09-.15.02-.056.027-.116.023-.175.007-.057.001-.116-.016-.171-.016-.056-.044-.107-.082-.152zm-.253.5c-.056.04-.124.057-.193.05h-.123l.006-.443h.127c.068-.006.136.011.192.05.02.024.034.052.042.081.009.03.011.06.007.091.002.03-.002.061-.012.09-.01.028-.025.055-.046.077v.004zM11.48 15.252c-.023-.027-.05-.049-.081-.064s-.066-.023-.1-.024c.029-.007.056-.02.08-.04.023-.018.042-.042.055-.07.029-.073.038-.153.026-.23-.001-.05-.013-.1-.034-.146-.022-.045-.053-.085-.091-.118-.092-.058-.202-.08-.309-.062l-.469.041.146 1.476.477-.042c.059 0 .117-.012.171-.036.054-.024.103-.059.142-.103.068-.104.093-.231.07-.354-.004-.082-.033-.162-.084-.228zm-.62-.538l.09-.008c.056-.01.114-.002.164.026.018.02.033.042.043.067.01.025.014.052.014.078.011.058.002.118-.026.17-.02.018-.043.034-.068.043-.025.01-.052.015-.08.014l-.1.01-.037-.4zm.38.99c-.02.02-.044.038-.07.05-.027.01-.056.016-.085.015l-.12.01-.046-.469.088-.008c.032-.01.066-.012.099-.006.033.007.064.021.09.043.025.02.046.048.058.08.012.031.017.065.013.098.012.064.003.13-.028.187zM12.656 15.27l.281-.04.005.028c0 .012 0 .022.005.03.033.133.013.273-.055.392-.039.05-.088.092-.145.122-.057.03-.119.046-.183.05-.066.01-.133.01-.2 0-.054-.011-.106-.034-.15-.067-.066-.05-.115-.117-.144-.194-.05-.15-.085-.304-.105-.46-.02-.12-.032-.242-.037-.364-.004-.07.006-.14.03-.208.026-.067.072-.126.132-.168.07-.043.15-.07.231-.078.062-.014.126-.015.188-.003.063.011.122.036.174.071.098.096.158.223.167.36l-.28.038-.006-.035c-.005-.063-.03-.122-.069-.172-.017-.017-.038-.03-.061-.037-.024-.008-.049-.009-.073-.004-.029.001-.057.012-.08.03-.024.018-.041.042-.05.07-.012.152-.001.305.032.453.016.164.053.324.112.477.017.023.04.04.064.052.026.012.054.017.081.015.028-.002.055-.011.079-.026.023-.015.042-.036.055-.06.02-.084.02-.17 0-.254l.002-.019zM13.787 14.075l-.382.085.013 1.52.291-.064-.016-.379.328-.072.166.346.307-.068-.707-1.368zm-.1.934l-.03-.632.273.578-.243.054zM15.678 9.308c-1.313 1.324-5.118 1.285-5.117 3.209v.766h.368v-.248c0-1.267 2.322-.362 3.8-.78.968-.274 1.522-1.153.95-2.947zM3.158 9.308c1.316 1.324 5.116 1.285 5.116 3.212v.766h-.368v-.248c0-1.267-2.322-.362-3.8-.78-.968-.274-1.522-1.153-.949-2.947l.001-.003z" clip-rule="evenodd"/>
    <path fill="#004293" fill-rule="evenodd" d="M8.906 13.283l.032-2.856c.059-.843-.123-1.685-.525-2.429-.401-.743-1.006-1.357-1.743-1.77-2.8-1.475-5.12 1.778-2.418 3.421.81.492 2.3.51 3.246 1.22.294.162.544.391.73.67.187.278.303.597.34.93v.807l.338.007zM9.934 13.283l-.032-2.856c-.058-.843.124-1.685.525-2.429.401-.743 1.006-1.357 1.742-1.77 2.8-1.475 5.122 1.778 2.418 3.421-.81.492-2.3.51-3.245 1.22-.294.162-.544.391-.73.67-.186.278-.303.597-.34.93v.807l-.338.007z" clip-rule="evenodd"/>
</svg>
