<svg xmlns="http://www.w3.org/2000/svg" width="25" height="40" fill="none" viewBox="0 0 25 40">
    <path fill="#fff" d="M10.335 28.424l-.054.018.054-.018zM.633 0H0v.625h.633V0zM2.945.822h-.632v.626h.632V.822zM5.387 1.715h-.633v.625h.633v-.625zM7.832 2.626h-.633v.625h.633v-.625zM10.27 3.52h-.633v.625h.632V3.52zM12.637 4.377h-.633v.625h.633v-.625zM14.918 5.18h-.633v.626h.633V5.18zM17.098 5.913h-.633v.625h.633v-.625zM19.129 6.592h-.633v.625h.633v-.625zM3.164 2.233H2.53v.626h.633v-.626zM5.242 2.93h-.633v.625h.633V2.93zM7.39 3.662h-.632v.625h.632v-.625zM9.578 4.43h-.633v.626h.633V4.43zM11.785 5.18h-.633v.626h.633V5.18zM13.934 5.913H13.3v.625h.633v-.625zM16.015 6.592h-.632v.625h.633v-.625zM18.008 7.235h-.633v.626h.633v-.626zM19.883 7.825h-.633v.625h.633v-.625zM5.437 4.34h-.632v.626h.632v-.625zM7.3 4.913h-.632v.625h.633v-.625zM9.238 5.52h-.633v.626h.633V5.52zM11.207 6.146h-.633v.625h.633v-.625zM13.18 6.77h-.633v.626h.633V6.77zM15.125 7.396h-.633v.626h.633v-.626zM17.027 8.004h-.633v.625h.633v-.625zM18.867 8.54h-.633v.624h.633V8.54zM20.605 9.04h-.632v.625h.632V9.04zM7.488 6.307h-.633v.625h.633v-.625zM9.148 6.753h-.632v.625h.632v-.625zM10.898 7.271h-.632v.626h.632V7.27zM12.691 7.79h-.632v.624h.632V7.79zM14.48 8.325h-.632v.625h.632v-.625zM16.25 8.843h-.633v.625h.633v-.625zM17.988 9.325h-.633v.625h.633v-.625zM19.668 9.79h-.633v.625h.633V9.79zM21.277 10.219h-.633v.625h.633v-.625zM9.273 8.129h-.632v.625h.632V8.13zM10.789 8.504h-.633v.625h.633v-.625zM12.379 8.915h-.633v.625h.633v-.625zM14.004 9.344h-.633v.625h.633v-.625zM15.64 9.79h-.632v.625h.633V9.79zM17.265 10.219h-.632v.625h.633v-.625zM18.855 10.63h-.632v.625h.632v-.625zM20.39 11.023h-.632v.625h.633v-.625zM21.875 11.38h-.633v.625h.633v-.625zM10.84 9.826h-.633v.625h.633v-.625zM12.242 10.13h-.633v.625h.633v-.625zM13.707 10.469h-.633v.625h.633v-.625zM15.184 10.826h-.633v.625h.633v-.625zM16.68 11.184h-.633v.625h.633v-.625zM18.164 11.541h-.633v.625h.633v-.625zM19.629 11.88h-.633v.625h.633v-.625zM21.062 12.202h-.632v.625h.632v-.625zM22.43 12.506h-.633v.625h.633v-.625zM12.203 11.398h-.633v.626h.633v-.626zM13.504 11.648h-.633v.626h.633v-.626zM14.844 11.916h-.633v.625h.633v-.625zM16.21 12.202h-.632v.625h.633v-.625zM17.594 12.506h-.633v.625h.633v-.625zM18.96 12.791h-.632v.625h.633v-.625zM20.32 13.077h-.633v.625h.633v-.625zM21.637 13.327h-.633v.625h.633v-.625zM22.937 13.577h-.632v.625h.632v-.625zM13.379 12.863h-.633v.626h.633v-.626zM14.59 13.06h-.633v.625h.633v-.625zM15.836 13.273h-.633v.626h.633v-.626zM17.098 13.506h-.633v.625h.633v-.625zM18.367 13.756h-.633v.625h.633v-.625zM19.648 13.988h-.632v.626h.632v-.626zM20.894 14.22h-.632v.626h.632v-.625zM22.144 14.435h-.632v.625h.632v-.625zM23.36 14.632h-.633v.625h.632v-.625zM14.371 14.238h-.633v.626h.633v-.626zM15.488 14.382h-.633v.625h.633v-.625zM16.66 14.56h-.633v.626h.633v-.626zM17.86 14.738h-.633v.626h.632v-.626zM19.05 14.935h-.632v.626h.633v-.626zM20.25 15.132h-.633v.625h.633v-.625zM21.422 15.31h-.633v.626h.633v-.626zM22.578 15.49h-.633v.624h.633v-.625zM23.71 15.632h-.632v.625h.633v-.625zM15.184 15.507h-.633v.625h.633v-.625zM16.265 15.632h-.632v.625h.633v-.625zM17.371 15.774h-.633v.626h.633v-.626zM18.492 15.918h-.633v.625h.633v-.625zM19.61 16.06h-.633v.626h.632v-.625zM20.738 16.203h-.633v.625h.633v-.625zM21.836 16.347h-.633v.625h.633v-.625zM22.937 16.49h-.632v.625h.632v-.626zM24.023 16.614h-.632v.625h.632v-.625zM15.867 16.704h-.633v.625h.633v-.625zM16.922 16.793h-.633v.625h.633v-.625zM17.969 16.9h-.633v.626h.633V16.9zM19.012 17.025h-.633v.626h.633v-.626zM20.086 17.133h-.633v.625h.633v-.625zM21.152 17.24h-.633v.626h.633v-.626zM22.223 17.365h-.633v.626h.633v-.626zM23.242 17.472h-.633v.625h.633v-.625zM24.277 17.561h-.633v.626h.633v-.626zM16.433 17.811h-.632v.626h.632v-.626zM17.422 17.883h-.633v.625h.633v-.625zM18.437 17.973h-.632v.625h.632v-.625zM19.45 18.061h-.634v.626h.633v-.626zM20.465 18.151h-.633v.626h.633v-.626zM21.48 18.24h-.632v.626h.632v-.626zM22.48 18.33h-.632v.624h.632v-.625zM23.484 18.419h-.632v.625h.632v-.625zM24.473 18.49h-.633v.626h.633v-.626zM16.883 18.884h-.633v.625h.633v-.625zM17.84 18.936h-.633v.626h.633v-.626zM18.816 18.99h-.632v.626h.632v-.626zM19.793 19.063h-.633v.625h.633v-.625zM20.77 19.134h-.633v.625h.632v-.625zM21.746 19.205h-.633v.625h.633v-.625zM22.723 19.259h-.633v.625h.633v-.625zM23.68 19.313h-.633v.625h.633v-.625zM24.637 19.384h-.633v.625h.633v-.625zM17.246 19.884h-.633v.625h.633v-.625zM18.164 19.92h-.633v.625h.633v-.625zM19.11 19.974h-.633v.625h.632v-.625zM20.066 20.026h-.632v.626h.632v-.626zM21.004 20.063h-.633v.625h.633v-.625zM21.95 20.116h-.634v.625h.633v-.625zM22.898 20.17h-.632v.625h.632v-.625zM23.844 20.224h-.633v.625h.633v-.625zM24.746 20.259h-.633v.625h.633v-.625zM17.515 20.849h-.632v.625h.633v-.625zM18.418 20.866h-.633v.625h.633v-.625zM19.344 20.902h-.633v.626h.633v-.626zM20.27 20.938h-.633v.625h.632v-.625zM21.187 20.974h-.632v.625h.632v-.625zM22.105 21.01h-.632v.625h.632v-.625zM23.027 21.045h-.633v.625h.633v-.625zM23.953 21.081h-.633v.625h.633v-.625zM24.851 21.116h-.632v.625h.632v-.625zM17.715 21.76h-.633v.625h.633v-.625zM18.613 21.796h-.633v.625h.633v-.625zM19.527 21.814h-.633v.625h.633v-.625zM20.426 21.831h-.633v.625h.633v-.625zM21.308 21.867h-.632v.625h.633v-.625zM22.223 21.885h-.633v.625h.633v-.625zM23.121 21.902h-.633v.626h.633v-.626zM24.023 21.939h-.632v.625h.632v-.625zM24.91 21.939h-.633v.625h.633v-.625zM17.86 22.653h-.633v.626h.632v-.626zM18.746 22.67h-.633v.626h.633v-.625zM19.629 22.689h-.633v.625h.633v-.625zM20.535 22.706h-.633v.625h.633v-.625zM21.402 22.725h-.633v.625h.633v-.625zM22.305 22.725h-.633v.625h.633v-.625zM23.191 22.76h-.632v.625h.632v-.625zM24.058 22.76h-.632v.625h.633v-.625zM24.95 22.778h-.634v.626h.633v-.626zM17.969 23.51h-.633v.626h.633v-.625zM18.836 23.528h-.633v.626h.633v-.626zM19.723 23.546h-.633v.625h.633v-.625zM20.605 23.546h-.632v.625h.632v-.625zM21.48 23.546h-.632v.625h.632v-.625zM22.36 23.564h-.633v.626h.632v-.626zM23.223 23.582h-.633v.625h.633v-.625zM24.098 23.582h-.633v.625h.633v-.625zM24.96 23.582h-.632v.625h.633v-.625zM18.043 24.368h-.633v.625h.633v-.625zM18.906 24.368h-.633v.625h.633v-.625zM19.773 24.368h-.632v.625h.632v-.625zM20.644 24.368h-.632v.625h.632v-.625zM21.512 24.386h-.633v.625h.633v-.625zM22.398 24.386h-.632v.625h.632v-.625zM23.262 24.403h-.633v.626h.633v-.626zM24.137 24.403h-.633v.626h.633v-.626zM25 24.403h-.633v.626H25v-.626zM18.074 25.19h-.633v.625h.633v-.626zM18.941 25.19h-.632v.625h.632v-.626zM19.812 25.19h-.632v.625h.632v-.626zM20.68 25.19h-.633v.625h.633v-.626zM21.55 25.19h-.632v.625h.633v-.626zM22.418 25.208h-.633v.625h.633v-.625zM23.262 25.208h-.633v.625h.633v-.625zM24.137 25.208h-.633v.625h.633v-.625zM25 25.208h-.633v.625H25v-.625zM18.113 26.012h-.633v.625h.633v-.625zM18.96 26.012h-.632v.625h.633v-.625zM19.824 26.012h-.633v.625h.633v-.625zM20.68 26.012h-.633v.625h.633v-.625zM21.55 26.012h-.632v.625h.633v-.625zM22.418 26.012h-.633v.625h.633v-.625zM23.281 26.012h-.633v.625h.633v-.625zM24.137 26.012h-.633v.625h.633v-.625zM25 26.012h-.633v.625H25v-.625zM18.113 26.815h-.633v.626h.633v-.626zM18.98 26.815h-.632v.626h.632v-.626zM19.844 26.815h-.633v.626h.633v-.626zM20.7 26.815h-.634v.626h.633v-.626zM21.55 26.815h-.632v.626h.633v-.626zM22.43 26.815h-.633v.626h.633v-.626zM23.281 26.815h-.633v.626h.633v-.626zM24.137 26.815h-.633v.626h.633v-.626zM25 26.815h-.633v.626H25v-.626zM18.113 27.638h-.633v.625h.633v-.625zM18.98 27.638h-.632v.625h.632v-.625zM19.844 27.638h-.633v.625h.633v-.625zM20.7 27.638h-.634v.625h.633v-.625zM21.562 27.638h-.632v.625h.632v-.625zM22.43 27.638h-.633v.625h.633v-.625zM23.281 27.638h-.633v.625h.633v-.625zM24.137 27.638h-.633v.625h.633v-.625zM25 27.638h-.633v.625H25v-.625zM8.66 28.959l-.289.107h.29v-.107zM9.527 29.067v-.393l-.632.214v.179h.632zM10.371 29.067c-.036-.268-.054-.554-.109-.572-.18.018-.343.054-.524.125v.447h.633zM18.113 28.424h-.633v.625h.633v-.625zM18.98 28.424h-.632v.625h.632v-.625zM19.844 28.424h-.633v.625h.633v-.625zM20.7 28.424h-.634v.625h.633v-.625zM21.562 28.424h-.632v.625h.632v-.625zM22.43 28.424h-.633v.625h.633v-.625zM23.281 28.424h-.633v.625h.633v-.625zM24.137 28.424h-.633v.625h.633v-.625zM25 28.424h-.633v.625H25v-.625zM6.09 29.799l-.18.053h.18V29.8zM6.941 29.853v-.322l-.632.197v.125h.632zM7.808 29.852v-.607l-.632.197v.41h.632zM8.68 29.245h-.633v.625h.633v-.625zM9.527 29.245h-.632v.625h.632v-.625zM10.39 29.245h-.632v.625h.633v-.625zM10.66 29.853c-.019-.054-.037-.09-.055-.143v.143h.054zM17.26 29.531c-.017.125-.035.233-.053.34h.054v-.34zM18.133 29.245H17.5v.625h.633v-.625zM18.98 29.245h-.632v.625h.632v-.625zM19.844 29.245h-.633v.625h.633v-.625zM20.7 29.245h-.634v.625h.633v-.625zM21.562 29.245h-.632v.625h.632v-.625zM22.43 29.245h-.633v.625h.633v-.625zM23.281 29.245h-.633v.625h.633v-.625zM24.137 29.245h-.633v.625h.633v-.625zM25 29.245h-.633v.625H25v-.625zM3.509 30.639l-.071.035h.071v-.035zM4.375 30.674v-.322l-.633.215v.107h.633zM5.23 30.675v-.608l-.632.215v.393h.632zM6.09 30.031h-.633v.626h.633v-.626zM6.941 30.031H6.31v.626h.632v-.626zM7.808 30.031h-.632v.626h.632v-.626zM8.68 30.031h-.633v.626h.633v-.626zM9.527 30.031h-.632v.626h.632v-.626zM10.39 30.031h-.632v.626h.633v-.626zM10.612 30.674h.416c-.127-.196-.217-.41-.308-.625h-.126v.625h.018zM17.265 30.031h-.09c-.055.215-.091.411-.163.626h.253v-.626zM18.133 30.031H17.5v.626h.633v-.626zM18.98 30.031h-.632v.626h.632v-.626zM19.844 30.031h-.633v.626h.633v-.626zM20.7 30.031h-.634v.626h.633v-.626zM21.562 30.031h-.632v.626h.632v-.626zM22.43 30.031h-.633v.626h.633v-.626zM23.281 30.031h-.633v.626h.633v-.626zM24.137 30.031h-.633v.626h.633v-.626zM24.367 30.031v.626h.579c.018-.197.054-.411.054-.626h-.633zM3.514 30.852h-.47c-.072 0-.126.054-.126.126v.017c.018.161.054.322.09.483h.506v-.626zM4.375 30.852h-.633v.626h.633v-.626zM5.242 30.852h-.633v.626h.633v-.626zM6.09 30.852h-.633v.626h.633v-.626zM6.941 30.852H6.31v.626h.632v-.626zM7.808 30.852h-.632v.626h.632v-.626zM8.68 30.852h-.633v.626h.633v-.626zM9.527 30.852h-.632v.626h.632v-.626zM10.39 30.852h-.632v.626h.633v-.626zM10.605 31.46h.633v-.482c-.036-.054-.072-.09-.09-.143h-.524l-.019.625zM11.647 31.46c-.054-.054-.108-.125-.163-.179v.179h.163zM17.265 31.46v-.625h-.325c-.09.197-.18.393-.307.572v.053h.633zM18.133 30.852H17.5v.626h.633v-.626zM18.98 30.852h-.632v.626h.632v-.626zM19.844 30.852h-.633v.626h.633v-.626zM20.7 30.852h-.634v.626h.633v-.626zM21.562 30.852h-.632v.626h.632v-.626zM22.43 30.852h-.633v.626h.633v-.626zM23.281 30.852h-.633v.626h.633v-.626zM24.137 30.852h-.633v.626h.633v-.626zM24.367 31.46h.47c.054-.196.09-.41.09-.625h-.56v.625zM3.509 31.639h-.47c.054.214.09.41.145.625h.325v-.625zM4.375 31.639h-.633v.625h.633v-.625zM5.242 31.639h-.633v.625h.633v-.625zM6.09 31.639h-.633v.625h.633v-.625zM6.941 31.639H6.31v.625h.632v-.625zM7.808 31.639h-.632v.625h.632v-.625zM8.68 31.639h-.633v.625h.633v-.625zM9.527 31.639h-.632v.625h.632v-.625zM10.39 31.639h-.632v.625h.633v-.625zM11.238 31.639h-.633v.625h.633v-.625zM11.484 32.264h.633v-.41c-.09-.072-.199-.144-.271-.215h-.362v.625zM12.912 32.264c-.199-.071-.38-.16-.56-.268v.268h.56zM15.55 32.228c-.036.018-.072.018-.109.036h.109v-.036zM16.402 32.264v-.59c-.18.197-.398.34-.633.447v.125h.633v.018zM17.265 31.639h-.632v.625h.633v-.625zM18.133 31.639H17.5v.625h.633v-.625zM18.98 31.639h-.632v.625h.632v-.625zM19.844 31.639h-.633v.625h.633v-.625zM20.7 31.639h-.634v.625h.633v-.625zM21.562 31.639h-.632v.625h.632v-.625zM22.43 31.639h-.633v.625h.633v-.625zM23.281 31.639h-.633v.625h.633v-.625zM24.137 31.639h-.633v.625h.633v-.625zM24.367 32.264h.271c.055-.197.109-.41.163-.625h-.434v.625zM3.506 32.46h-.272c.055.215.127.412.181.626h.09v-.625zM4.375 32.46h-.633v.626h.633v-.625zM5.242 32.46h-.633v.626h.633v-.625zM6.09 32.46h-.633v.626h.633v-.625zM6.941 32.46H6.31v.626h.632v-.625zM7.808 32.46h-.632v.626h.632v-.625zM8.68 32.46h-.633v.626h.633v-.625zM9.527 32.46h-.632v.626h.632v-.625zM10.39 32.46h-.632v.626h.633v-.625zM11.238 32.46h-.633v.626h.633v-.625zM12.117 32.46h-.633v.626h.633v-.625zM12.965 32.46h-.633v.626h.633v-.625zM13.195 33.086h.633v-.625h-.633v.625zM14.677 33.086v-.625h-.307c-.109 0-.199.018-.307.018v.625l.614-.018zM15.543 32.46h-.633v.626h.633v-.625zM16.414 32.46h-.633v.626h.633v-.625zM17.265 32.46h-.632v.626h.633v-.625zM18.133 32.46H17.5v.626h.633v-.625zM18.98 32.46h-.632v.626h.632v-.625zM19.844 32.46h-.633v.626h.633v-.625zM20.7 32.46h-.634v.626h.633v-.625zM21.562 32.46h-.632v.626h.632v-.625zM22.43 32.46h-.633v.626h.633v-.625zM23.281 32.46h-.633v.626h.633v-.625zM24.137 32.46h-.633v.626h.633v-.625zM24.366 33.086c.072-.196.144-.41.199-.625h-.217l.018.625zM3.488 33.265c.018.035.018.071.036.107v-.107h-.036zM4.375 33.265h-.633v.625h.633v-.625zM5.242 33.265h-.633v.625h.633v-.625zM6.09 33.265h-.633v.625h.633v-.625zM6.941 33.265H6.31v.625h.632v-.625zM7.808 33.265h-.632v.625h.632v-.625zM8.68 33.265h-.633v.625h.633v-.625zM9.527 33.265h-.632v.625h.632v-.625zM10.39 33.265h-.632v.625h.633v-.625zM11.238 33.265h-.633v.625h.633v-.625zM12.117 33.265h-.633v.625h.633v-.625zM12.965 33.265h-.633v.625h.633v-.625zM13.828 33.265h-.633v.625h.633v-.625zM14.676 33.265h-.633v.625h.633v-.625zM15.543 33.265h-.633v.625h.633v-.625zM16.414 33.265h-.633v.625h.633v-.625zM17.265 33.265h-.632v.625h.633v-.625zM18.133 33.265H17.5v.625h.633v-.625zM18.98 33.265h-.632v.625h.632v-.625zM19.844 33.265h-.633v.625h.633v-.625zM20.7 33.265h-.634v.625h.633v-.625zM21.562 33.265h-.632v.625h.632v-.625zM22.43 33.265h-.633v.625h.633v-.625zM23.281 33.265h-.633v.625h.633v-.625zM23.504 33.265v.625h.524c.036-.072.054-.143.09-.215v-.41h-.614zM4.358 34.068h-.596c.09.215.18.411.27.626h.308v-.626h.018zM5.242 34.068h-.633v.626h.633v-.626zM6.09 34.068h-.633v.626h.633v-.626zM6.941 34.068H6.31v.626h.632v-.626zM7.808 34.068h-.632v.626h.632v-.626zM8.68 34.068h-.633v.626h.633v-.626zM9.527 34.068h-.632v.626h.632v-.626zM10.39 34.068h-.632v.626h.633v-.626zM11.238 34.068h-.633v.626h.633v-.626zM12.117 34.068h-.633v.626h.633v-.626zM12.965 34.068h-.633v.626h.633v-.626zM13.828 34.068h-.633v.626h.633v-.626zM14.676 34.068h-.633v.626h.633v-.626zM15.543 34.068h-.633v.626h.633v-.626zM16.414 34.068h-.633v.626h.633v-.626zM17.265 34.068h-.632v.626h.633v-.626zM18.133 34.068H17.5v.626h.633v-.626zM18.98 34.068h-.632v.626h.632v-.626zM19.844 34.068h-.633v.626h.633v-.626zM20.7 34.068h-.634v.626h.633v-.626zM21.562 34.068h-.632v.626h.632v-.626zM22.43 34.068h-.633v.626h.633v-.626zM23.281 34.068h-.633v.626h.633v-.626zM23.504 34.694h.126c.109-.197.217-.411.326-.626h-.452v.626zM4.14 34.873c.073.143.145.268.218.41v-.41H4.14zM5.242 34.873h-.633v.625h.633v-.625zM6.09 34.873h-.633v.625h.633v-.625zM6.941 34.873H6.31v.625h.632v-.625zM7.808 34.873h-.632v.625h.632v-.625zM8.68 34.873h-.633v.625h.633v-.625zM9.527 34.873h-.632v.625h.632v-.625zM10.39 34.873h-.632v.625h.633v-.625zM11.238 34.873h-.633v.625h.633v-.625zM12.117 34.873h-.633v.625h.633v-.625zM12.965 34.873h-.633v.625h.633v-.625zM13.828 34.873h-.633v.625h.633v-.625zM14.676 34.873h-.633v.625h.633v-.625zM15.543 34.873h-.633v.625h.633v-.625zM16.414 34.873h-.633v.625h.633v-.625zM17.265 34.873h-.632v.625h.633v-.625zM18.133 34.873H17.5v.625h.633v-.625zM18.98 34.873h-.632v.625h.632v-.625zM19.844 34.873h-.633v.625h.633v-.625zM20.7 34.873h-.634v.625h.633v-.625zM21.562 34.873h-.632v.625h.632v-.625zM22.43 34.873h-.633v.625h.633v-.625zM22.648 34.873v.625h.489c.054-.071.09-.143.126-.214v-.411h-.615zM23.504 34.908l.018-.053h-.018v.053zM5.23 35.66h-.632c.126.214.27.428.433.625h.2v-.626zM6.09 35.66h-.633v.625h.633v-.626zM6.941 35.66H6.31v.625h.632v-.626zM7.808 35.66h-.632v.625h.632v-.626zM8.68 35.66h-.633v.625h.633v-.626zM9.527 35.66h-.632v.625h.632v-.626zM10.39 35.66h-.632v.625h.633v-.626zM11.238 35.66h-.633v.625h.633v-.626zM12.117 35.66h-.633v.625h.633v-.626zM12.965 35.66h-.633v.625h.633v-.626zM13.828 35.66h-.633v.625h.633v-.626zM14.676 35.66h-.633v.625h.633v-.626zM15.543 35.66h-.633v.625h.633v-.626zM16.414 35.66h-.633v.625h.633v-.626zM17.265 35.66h-.632v.625h.633v-.626zM18.133 35.66H17.5v.625h.633v-.626zM18.98 35.66h-.632v.625h.632v-.626zM19.844 35.66h-.633v.625h.633v-.626zM20.7 35.66h-.634v.625h.633v-.626zM21.562 35.66h-.632v.625h.632v-.626zM22.43 35.66h-.633v.625h.633v-.626zM22.648 36.142c.127-.161.253-.304.362-.483h-.362v.483zM5.168 36.48l.054.072v-.072h-.054zM6.09 36.48h-.633v.34c.09.09.163.196.271.286h.38l-.018-.626zM6.941 36.48H6.31v.626h.632v-.626zM7.808 36.48h-.632v.626h.632v-.626zM8.68 36.48h-.633v.626h.633v-.626zM9.527 36.48h-.632v.626h.632v-.626zM10.39 36.48h-.632v.626h.633v-.626zM11.238 36.48h-.633v.626h.633v-.626zM12.117 36.48h-.633v.626h.633v-.626zM12.965 36.48h-.633v.626h.633v-.626zM13.828 36.48h-.633v.626h.633v-.626zM14.676 36.48h-.633v.626h.633v-.626zM15.543 36.48h-.633v.626h.633v-.626zM16.414 36.48h-.633v.626h.633v-.626zM17.265 36.48h-.632v.626h.633v-.626zM18.133 36.48H17.5v.626h.633v-.626zM18.98 36.48h-.632v.626h.632v-.626zM19.844 36.48h-.633v.626h.633v-.626zM20.7 36.48h-.634v.626h.633v-.626zM21.562 36.48h-.632v.626h.632v-.626zM21.797 37.07c.199-.197.398-.393.578-.59h-.578v.59zM5.89 37.284c.055.054.127.125.2.179v-.179h-.2zM6.941 37.284H6.31v.393c.09.09.18.161.27.233h.344c.018 0 .018-.626.018-.626zM7.808 37.267h-.632v.625h.632v-.625zM8.68 37.267h-.633v.625h.633v-.625zM9.527 37.267h-.632v.625h.632v-.625zM10.39 37.267h-.632v.625h.633v-.625zM11.238 37.267h-.633v.625h.633v-.625zM12.117 37.267h-.633v.625h.633v-.625zM12.965 37.267h-.633v.625h.633v-.625zM13.828 37.267h-.633v.625h.633v-.625zM14.676 37.267h-.633v.625h.633v-.625zM15.543 37.267h-.633v.625h.633v-.625zM16.414 37.267h-.633v.625h.633v-.625zM17.265 37.267h-.632v.625h.633v-.625zM18.133 37.267H17.5v.625h.633v-.625zM18.98 37.267h-.632v.625h.632v-.625zM19.844 37.267h-.633v.625h.633v-.625zM20.7 37.267h-.634v.625h.633v-.625zM20.93 37.802c.217-.16.415-.34.632-.518h-.632v.518zM6.836 38.088c.036.018.072.053.108.09v-.09h-.108zM7.176 38.088v.232c.199.125.416.268.632.375v-.607h-.632zM8.68 38.088h-.633v.625h.633v-.625zM9.527 38.088h-.632v.625h.632v-.625zM10.39 38.088h-.632v.625h.633v-.625zM11.238 38.088h-.633v.625h.633v-.625zM12.117 38.088h-.633v.625h.633v-.625zM12.965 38.088h-.633v.625h.633v-.625zM13.828 38.088h-.633v.625h.633v-.625zM14.676 38.088h-.633v.625h.633v-.625zM15.543 38.088h-.633v.625h.633v-.625zM16.414 38.088h-.633v.625h.633v-.625zM17.265 38.088h-.632v.625h.633v-.625zM18.133 38.088H17.5v.625h.633v-.625zM18.98 38.088h-.632v.625h.632v-.625zM19.21 38.088v.625h.236c.127-.071.271-.143.398-.214v-.411h-.633zM20.066 38.356c.163-.09.308-.178.452-.286h-.452v.286zM8.152 38.893c.163.089.344.16.506.232v-.232h-.506zM8.895 38.892v.322c.198.089.415.16.632.214v-.554l-.632.018zM10.371 38.893h-.633v.625l.018.018h.597v-.643h.018zM11.238 38.893h-.633v.625h.633v-.625zM12.117 38.893h-.633v.625h.633v-.625zM12.965 38.893h-.633v.625h.633v-.625zM13.828 38.893h-.633v.625h.633v-.625zM14.676 38.893h-.633v.625h.633v-.625zM15.543 38.893h-.633v.625h.633v-.625zM16.414 38.893h-.633v.625h.633v-.625zM17.265 38.893h-.632v.625h.633v-.625zM17.5 38.893v.59c.217-.054.416-.126.633-.197v-.376l-.633-.017zM18.348 38.893v.303c.217-.089.415-.16.632-.25v-.036l-.632-.017zM10.605 39.696v.018c.2.054.416.09.633.125v-.143h-.633zM11.484 39.696v.179c.2.018.416.053.633.071v-.25h-.633zM12.332 39.696v.268c.199.018.416.018.633.036v-.304h-.633zM13.195 39.697V40h.29c.09 0 .216 0 .343-.018v-.303l-.633.018zM14.043 39.696V40c.217-.018.416-.018.633-.036v-.268h-.633zM14.91 39.696v.25c.217-.017.416-.035.633-.071v-.179h-.633zM15.781 39.696v.143c.217-.035.416-.071.633-.107v-.036h-.633z"/>
</svg>
