<svg width="65" height="24" fill="none" xmlns="http://www.w3.org/2000/svg">
    <g clip-path="url(#a)" fill="#fff">
        <path d="M53.1 9.4V5.7H56.5V4.1h-5.3V11h5.4V9.4h-3.5z"/>
        <path d="M55 6.7h-1.6v1.6H55V6.7zM45 9.4V5.7h3.5V4.1h-5.3V11h5.4V9.4H45z"/>
        <path d="M46.9 6.7h-1.6v1.6h1.6V6.7zM19.8 9.4V5.7H23.2V4.1h-5.3V11h5.4V9.4h-3.5z"/>
        <path d="M21.7 6.7h-1.6v1.6h1.6V6.7zM13.1 11 12 8.6h-.8V11H9.4V4.1h3.1c1.6 0 2.7.6 2.7 2.3 0 1-.5 1.7-1.2 2l1.4 2.6h-2.3zm-.7-5.4h-1.2v1.5h1.1c.6 0 .8-.3.8-.8.1-.4-.1-.7-.7-.7zM38.5 5.8V11h-1.9V5.8h-1.9V4.1h5.8v1.7h-2zM32.1 4.1h-1.8v3.5c-.2-.3-.8-1.1-1-1.6l-1.5-2H26v7h1.8V7.2c.2.4.8 1.1 1 1.5l1.7 2.3h1.6V4.1z"/>
        <path d="M57.5 0h-49C4.3 0 .9 3.4.9 7.5S4.3 15 8.4 15h49c4.1 0 7.5-3.4 7.5-7.5C65 3.4 61.6 0 57.5 0zm0 13.4h-49c-3.3 0-5.9-2.6-5.9-5.8 0-3.2 2.6-5.9 5.9-5.9h49c3.3 0 5.8 2.6 5.8 5.8 0 3.2-2.6 5.9-5.8 5.9zM10.5 20.3c0 .8-.7 1.4-1.7 1.4h-.9v1.1h-.7v-4h1.7c1 .1 1.6.6 1.6 1.5zm-.7 0c0-.5-.3-.8-1-.8H8V21h.8c.7.1 1-.2 1-.7zM10.9 21.3c0-.9.7-1.6 1.6-1.6.9 0 1.6.7 1.6 1.6 0 .9-.7 1.6-1.6 1.6-.9 0-1.6-.6-1.6-1.6zm2.5 0c0-.6-.4-.9-.9-.9s-.9.4-.9.9c0 .6.4.9.9.9.6.1.9-.3.9-.9zM19.5 19.8l-1.1 3h-.7l-.8-2.1-.8 2.1h-.7l-1.1-3h.7l.8 2.2.8-2.2h.6L18 22l.8-2.2h.7zM22.7 21.5h-2.4c.1.4.5.7 1 .7.3 0 .6-.1.8-.3l.4.4c-.3.3-.7.5-1.2.5-1 0-1.7-.7-1.7-1.6 0-.9.7-1.6 1.6-1.6.9 0 1.5.6 1.5 1.6v.3zm-2.4-.4H22c0-.4-.4-.8-.8-.8-.5.1-.8.4-.9.8zM25.1 19.8v.7H25c-.5 0-.9.3-.9.9v1.5h-.7v-3.1h.6v.5c.3-.4.7-.5 1.1-.5zM28.5 21.5h-2.4c.1.4.5.7 1 .7.3 0 .6-.1.8-.3l.4.4c-.3.3-.7.5-1.2.5-1 0-1.7-.7-1.7-1.6 0-.9.7-1.6 1.6-1.6.9 0 1.5.6 1.5 1.6.1.2 0 .3 0 .3zm-2.3-.4h1.7c0-.4-.4-.8-.8-.8-.6.1-.9.4-.9.8zM32.2 18.7v4.2h-.7v-.4c-.2.3-.6.4-1 .4-.9 0-1.5-.6-1.5-1.6 0-.9.7-1.6 1.5-1.6.4 0 .8.1 1 .4v-1.6h.7v.2zm-.7 2.6c0-.6-.4-.9-.9-.9s-.9.4-.9.9c0 .6.4.9.9.9s.9-.3.9-.9zM37.9 21.3c0 .9-.7 1.6-1.5 1.6-.4 0-.8-.1-1-.4v.4h-.7v-4.2h.7v1.6c.2-.3.6-.4 1-.4.8-.1 1.5.5 1.5 1.4zm-.8 0c0-.6-.4-.9-.9-.9s-.9.4-.9.9c0 .6.4.9.9.9.6.1.9-.3.9-.9zM41.3 19.8l-1.4 3.3c-.3.7-.7.9-1.2.9-.3 0-.6-.1-.8-.3l.3-.5c.1.1.3.2.5.2s.4-.1.5-.4v-.1l-1.3-3h.8l.9 2.2.9-2.2h.8v-.1zM42.7 22.4l.5-.6c.2.3.5.5.8.5.4 0 .6-.2.6-.7v-1.9h-1.4v-.8h2.4v2.7c0 1-.5 1.5-1.5 1.5-.6-.1-1.1-.3-1.4-.7zM46.4 21.1v-2.3h.9v2.3c0 .8.3 1.1.9 1.1.6 0 .9-.3.9-1.1v-2.3h.9v2.3c0 1.2-.7 1.9-1.9 1.9s-1.7-.7-1.7-1.9zM51 18.9h1v3.3h2v.8h-3v-4.1zM54.2 20.9c0-1.2.9-2.1 2.2-2.1 1.3 0 2.2.9 2.2 2.1 0 1.2-1 2.1-2.2 2.1-1.2 0-2.2-.9-2.2-2.1zm3.6 0c0-.8-.5-1.3-1.3-1.3s-1.3.5-1.3 1.3.5 1.3 1.3 1.3 1.3-.5 1.3-1.3z"/>
    </g>
    <defs>
        <clipPath id="a">
            <path fill="#fff" d="M0 0h65v24H0z"/>
        </clipPath>
    </defs>
</svg>
