<svg width="1920" height="400" viewBox="0 0 1920 400" fill="none" xmlns="http://www.w3.org/2000/svg">
<path d="M1920 -323.053H0V936.283H1920V-323.053Z" fill="url(#paint0_linear_1927_189336)"/>
<mask id="mask0_1927_189336" style="mask-type:luminance" maskUnits="userSpaceOnUse" x="0" y="-324" width="1920" height="1261">
<path d="M1920 -323.053H0V936.283H1920V-323.053Z" fill="white"/>
</mask>
<g mask="url(#mask0_1927_189336)">
<g opacity="0.6">
<path opacity="0.2" d="M37.334 754.522V560.165L72.0006 556.806L102.401 500.304V447.328L126.454 413.746L145.542 387.971H212.161V541.023H244.641V616.163L281.974 676.032V344.734H336.854V301.581H411.201L444.054 353.214V592.068H476.054L490.987 615.668H511.414V754.606L37.334 754.522Z" fill="url(#paint1_linear_1927_189336)"/>
<path opacity="0.6" d="M0 917.133V475.107H7.57333V445.47H15.4133V400.974H56.2133V440.433H67.2V603.811H76.64V633.447H93.8667L120.533 676.013V499.706H129.973V477.541H155.093V497.271H166.027V601.208H269.547L288.427 565.947V532.364L303.68 511.124L315.787 494.836H357.333V590.881H377.867V638.316L401.387 676.013V467.634H435.893V440.433H482.88L503.36 473.1V623.288H523.947L533.333 638.065H545.707V675.089C551.25 687.396 556.206 700.332 560.533 713.793C567.116 750.935 570.1 789.428 569.387 827.972H661.333C659.147 783.476 583.307 694.735 583.307 694.735H574.88V675.005H671.147L696.107 -2.85333H681.44V-22.6669H703.467C698.373 -27.3241 694.568 -34.8101 692.8 -43.6558C686.672 -73.7959 703.787 -116.11 709.12 -128.115L709.712 -128.787L710.779 -131.054L711.205 -130.466L711.685 -130.97C712.053 -130.278 712.391 -129.548 712.699 -128.787L713.285 -127.947C718.565 -116.361 735.685 -74.1317 729.605 -43.9916C727.83 -35.1518 724.028 -27.6693 718.939 -23.0027H744.592V-3.18916H726.507L750.768 674.669H860.907V694.399H846.24C846.24 694.399 763.2 778.531 760.907 827.972H889.333V516.497H909.227L964.213 432.541H1002.45V476.702H1049.6V525.984H1102.93V580.387H1121.81V812.944H1206.72V634.371L1222.45 609.604V491.31H1275.79V115.104L1376.37 274.62V550.499L1376.8 551.17V922.003L0 917.133Z" fill="url(#paint2_linear_1927_189336)"/>
<g opacity="0.6">
<path opacity="0.6" d="M1335.74 902.695H1335.63V725.464H1344V576.527H1391.36V90.1712H1472L1491.58 121.906V282.934H1533.34V-159.597H1597.34V-254.971L1689.23 -110.399V558.476H1739.31V449.334H1753.23V260.937H1780.91L1800.38 230.293H1864.38L1881.23 259.762V515.155H1920V902.695H1335.74Z" fill="url(#paint3_linear_1927_189336)"/>
</g>
</g>
</g>
<defs>
<linearGradient id="paint0_linear_1927_189336" x1="0" y1="-323.053" x2="1155.08" y2="1438" gradientUnits="userSpaceOnUse">
<stop stop-color="#00ACF0"/>
<stop offset="1" stop-color="#13637B"/>
</linearGradient>
<linearGradient id="paint1_linear_1927_189336" x1="274.374" y1="754.606" x2="274.374" y2="301.581" gradientUnits="userSpaceOnUse">
<stop stop-color="white" stop-opacity="0"/>
<stop offset="0.13" stop-color="white" stop-opacity="0.129"/>
<stop offset="0.74" stop-color="white" stop-opacity="0.749"/>
<stop offset="1" stop-color="white"/>
</linearGradient>
<linearGradient id="paint2_linear_1927_189336" x1="688.4" y1="-131.054" x2="688.4" y2="-132.107" gradientUnits="userSpaceOnUse">
<stop stop-color="white" stop-opacity="0"/>
<stop offset="0.13" stop-color="white" stop-opacity="0.129"/>
<stop offset="0.74" stop-color="white" stop-opacity="0.749"/>
<stop offset="1" stop-color="white"/>
</linearGradient>
<linearGradient id="paint3_linear_1927_189336" x1="1627.81" y1="-254.971" x2="1627.81" y2="-254.971" gradientUnits="userSpaceOnUse">
<stop stop-color="white" stop-opacity="0"/>
<stop offset="0.13" stop-color="white" stop-opacity="0.129"/>
<stop offset="0.74" stop-color="white" stop-opacity="0.749"/>
<stop offset="1" stop-color="white"/>
</linearGradient>
</defs>
</svg>
